<svg width="82" height="18" viewBox="0 0 82 18" fill="none" xmlns="http://www.w3.org/2000/svg">
<path d="M23.4783 4.68328C23.9403 3.26143 24.1713 2.5505 24.5182 2.35976C24.8182 2.19484 25.1818 2.19484 25.4818 2.35976C25.8287 2.5505 26.0597 3.26143 26.5217 4.68328L26.6614 5.11327C26.7905 5.51062 26.8551 5.70929 26.9767 5.85627C27.084 5.98606 27.2224 6.08662 27.379 6.14862C27.5564 6.21885 27.7653 6.21885 28.1831 6.21885H28.6352C30.1302 6.21885 30.8778 6.21885 31.1664 6.48988C31.4159 6.72423 31.5283 7.06995 31.4641 7.40623C31.3899 7.79514 30.7852 8.23452 29.5757 9.11328L29.2099 9.37902C28.8719 9.62459 28.7029 9.74738 28.6007 9.90844C28.5104 10.0507 28.4576 10.2134 28.447 10.3815C28.435 10.5719 28.4996 10.7705 28.6287 11.1679L28.7684 11.5979C29.2304 13.0197 29.4614 13.7307 29.2928 14.0889C29.147 14.3987 28.8529 14.6123 28.5133 14.6552C28.1205 14.7049 27.5157 14.2655 26.3062 13.3867L25.9405 13.121C25.6025 12.8754 25.4335 12.7526 25.2487 12.7052C25.0855 12.6633 24.9145 12.6633 24.7513 12.7052C24.5665 12.7526 24.3975 12.8754 24.0595 13.121L23.6938 13.3867C22.4843 14.2655 21.8795 14.7049 21.4867 14.6552C21.1471 14.6123 20.853 14.3987 20.7072 14.0889C20.5386 13.7307 20.7696 13.0197 21.2316 11.5979L21.3713 11.1679C21.5004 10.7705 21.565 10.5719 21.553 10.3815C21.5424 10.2134 21.4896 10.0507 21.3993 9.90844C21.2971 9.74738 21.1281 9.62459 20.7901 9.37902L20.4243 9.11328C19.2148 8.23452 18.6101 7.79514 18.5359 7.40623C18.4717 7.06995 18.5841 6.72423 18.8336 6.48988C19.1222 6.21885 19.8698 6.21885 21.3648 6.21885H21.8169C22.2347 6.21885 22.4436 6.21885 22.621 6.14862C22.7776 6.08662 22.916 5.98606 23.0233 5.85627C23.1449 5.70929 23.2095 5.51062 23.3386 5.11327L23.4783 4.68328Z" fill="#D9D9D9"/>
<path d="M39.4783 4.68328C39.9403 3.26143 40.1713 2.5505 40.5182 2.35976C40.8182 2.19484 41.1818 2.19484 41.4818 2.35976C41.8287 2.5505 42.0597 3.26143 42.5217 4.68328L42.6614 5.11327C42.7905 5.51062 42.8551 5.70929 42.9767 5.85627C43.084 5.98606 43.2224 6.08662 43.379 6.14862C43.5564 6.21885 43.7653 6.21885 44.1831 6.21885H44.6352C46.1302 6.21885 46.8778 6.21885 47.1664 6.48988C47.4159 6.72423 47.5283 7.06995 47.4641 7.40623C47.3899 7.79514 46.7852 8.23452 45.5757 9.11328L45.2099 9.37902C44.8719 9.62459 44.7029 9.74738 44.6007 9.90844C44.5104 10.0507 44.4576 10.2134 44.447 10.3815C44.435 10.5719 44.4996 10.7705 44.6287 11.1679L44.7684 11.5979C45.2304 13.0197 45.4614 13.7307 45.2928 14.0889C45.147 14.3987 44.8529 14.6123 44.5133 14.6552C44.1205 14.7049 43.5157 14.2655 42.3062 13.3867L41.9405 13.121C41.6025 12.8754 41.4335 12.7526 41.2487 12.7052C41.0855 12.6633 40.9145 12.6633 40.7513 12.7052C40.5665 12.7526 40.3975 12.8754 40.0595 13.121L39.6938 13.3867C38.4843 14.2655 37.8795 14.7049 37.4867 14.6552C37.1471 14.6123 36.853 14.3987 36.7072 14.0889C36.5386 13.7307 36.7696 13.0197 37.2316 11.5979L37.3713 11.1679C37.5004 10.7705 37.565 10.5719 37.553 10.3815C37.5424 10.2134 37.4896 10.0507 37.3993 9.90844C37.2971 9.74738 37.1281 9.62459 36.7901 9.37902L36.4243 9.11328C35.2148 8.23452 34.6101 7.79514 34.5359 7.40623C34.4717 7.06995 34.5841 6.72423 34.8336 6.48988C35.1222 6.21885 35.8698 6.21885 37.3648 6.21885H37.8169C38.2347 6.21885 38.4436 6.21885 38.621 6.14862C38.7776 6.08662 38.916 5.98606 39.0233 5.85627C39.1449 5.70929 39.2095 5.51062 39.3386 5.11327L39.4783 4.68328Z" fill="#D9D9D9"/>
<path d="M71.4783 4.68328C71.9403 3.26143 72.1713 2.5505 72.5182 2.35976C72.8182 2.19484 73.1818 2.19484 73.4818 2.35976C73.8287 2.5505 74.0597 3.26143 74.5217 4.68328L74.6614 5.11327C74.7905 5.51062 74.8551 5.70929 74.9767 5.85627C75.084 5.98606 75.2224 6.08662 75.379 6.14862C75.5564 6.21885 75.7653 6.21885 76.1831 6.21885H76.6352C78.1302 6.21885 78.8778 6.21885 79.1664 6.48988C79.4159 6.72423 79.5283 7.06995 79.4641 7.40623C79.3899 7.79514 78.7852 8.23452 77.5757 9.11328L77.2099 9.37902C76.8719 9.62459 76.7029 9.74738 76.6007 9.90844C76.5104 10.0507 76.4576 10.2134 76.447 10.3815C76.435 10.5719 76.4996 10.7705 76.6287 11.1679L76.7684 11.5979C77.2304 13.0197 77.4614 13.7307 77.2928 14.0889C77.147 14.3987 76.8529 14.6123 76.5133 14.6552C76.1205 14.7049 75.5157 14.2655 74.3062 13.3867L73.9405 13.121C73.6025 12.8754 73.4335 12.7526 73.2487 12.7052C73.0855 12.6633 72.9145 12.6633 72.7513 12.7052C72.5665 12.7526 72.3975 12.8754 72.0595 13.121L71.6938 13.3867C70.4843 14.2655 69.8795 14.7049 69.4867 14.6552C69.1471 14.6123 68.853 14.3987 68.7072 14.0889C68.5386 13.7307 68.7696 13.0197 69.2316 11.5979L69.3713 11.1679C69.5004 10.7705 69.565 10.5719 69.553 10.3815C69.5424 10.2134 69.4896 10.0507 69.3993 9.90844C69.2971 9.74738 69.1281 9.62459 68.7901 9.37902L68.4243 9.11328C67.2148 8.23452 66.6101 7.79514 66.5359 7.40623C66.4717 7.06995 66.5841 6.72423 66.8336 6.48988C67.1222 6.21885 67.8698 6.21885 69.3648 6.21885H69.8169C70.2347 6.21885 70.4436 6.21885 70.621 6.14862C70.7776 6.08662 70.916 5.98606 71.0233 5.85627C71.1449 5.70929 71.2095 5.51062 71.3386 5.11327L71.4783 4.68328Z" fill="#D9D9D9"/>
<path d="M8.98184 2.5V12.4377L7.67561 13.3867C6.46611 14.2655 5.86136 14.7049 5.46855 14.6552C5.12891 14.6123 4.83482 14.3987 4.68906 14.0889C4.52048 13.7307 4.75148 13.0197 5.21347 11.5979L5.35318 11.1679C5.48228 10.7705 5.54684 10.5719 5.53486 10.3815C5.52428 10.2134 5.47141 10.0507 5.38116 9.90844C5.27894 9.74738 5.10994 9.6246 4.77194 9.37902L4.40617 9.11328C3.19667 8.23452 2.59192 7.79514 2.51773 7.40623C2.45358 7.06995 2.56591 6.72423 2.81547 6.48988C3.10409 6.21885 3.8516 6.21885 5.34663 6.21885H5.79875C6.21654 6.21885 6.42543 6.21885 6.6028 6.14862C6.75941 6.08662 6.89782 5.98606 7.00519 5.85627C7.12678 5.70929 7.19133 5.51062 7.32044 5.11327L7.91853 3.27254C7.94384 3.19465 7.95649 3.1557 7.97054 3.12136C8.11412 2.77041 8.44384 2.53085 8.82199 2.50275C8.85899 2.5 8.89994 2.5 8.98184 2.5Z" fill="#FDE45F"/>
<path d="M8.98184 2.5V12.4377L10.2882 13.3867C11.4977 14.2655 12.1024 14.7049 12.4953 14.6552C12.8349 14.6123 13.129 14.3987 13.2747 14.0889C13.4433 13.7307 13.2123 13.0197 12.7503 11.5979L12.6106 11.1679C12.4815 10.7705 12.417 10.5719 12.429 10.3815C12.4395 10.2134 12.4924 10.0507 12.5827 9.90844C12.6849 9.74738 12.8539 9.6246 13.1919 9.37902L13.5576 9.11328C14.7671 8.23452 15.3719 7.79514 15.4461 7.40623C15.5102 7.06995 15.3979 6.72423 15.1483 6.48988C14.8597 6.21885 14.1122 6.21885 12.6172 6.21885H12.1651C11.7473 6.21885 11.5384 6.21885 11.361 6.14862C11.2044 6.08662 11.066 5.98606 10.9586 5.85627C10.837 5.70929 10.7725 5.51062 10.6434 5.11327L10.0453 3.27254C10.02 3.19465 10.0073 3.1557 9.99327 3.12136C9.84969 2.77041 9.51997 2.53085 9.14182 2.50275C9.10482 2.5 9.06375 2.5 8.98184 2.5Z" fill="#D9D9D9"/>
<path d="M55.4783 4.68328C55.9403 3.26143 56.1713 2.5505 56.5182 2.35976C56.8182 2.19484 57.1818 2.19484 57.4818 2.35976C57.8287 2.5505 58.0597 3.26143 58.5217 4.68328L58.6614 5.11327C58.7905 5.51062 58.8551 5.70929 58.9767 5.85627C59.084 5.98606 59.2224 6.08662 59.379 6.14862C59.5564 6.21885 59.7653 6.21885 60.1831 6.21885H60.6352C62.1302 6.21885 62.8778 6.21885 63.1664 6.48988C63.4159 6.72423 63.5283 7.06995 63.4641 7.40623C63.3899 7.79514 62.7852 8.23452 61.5757 9.11328L61.2099 9.37902C60.8719 9.62459 60.7029 9.74738 60.6007 9.90844C60.5104 10.0507 60.4576 10.2134 60.447 10.3815C60.435 10.5719 60.4996 10.7705 60.6287 11.1679L60.7684 11.5979C61.2304 13.0197 61.4614 13.7307 61.2928 14.0889C61.147 14.3987 60.8529 14.6123 60.5133 14.6552C60.1205 14.7049 59.5157 14.2655 58.3062 13.3867L57.9405 13.121C57.6025 12.8754 57.4335 12.7526 57.2487 12.7052C57.0855 12.6633 56.9145 12.6633 56.7513 12.7052C56.5665 12.7526 56.3975 12.8754 56.0595 13.121L55.6938 13.3867C54.4843 14.2655 53.8795 14.7049 53.4867 14.6552C53.1471 14.6123 52.853 14.3987 52.7072 14.0889C52.5386 13.7307 52.7696 13.0197 53.2316 11.5979L53.3713 11.1679C53.5004 10.7705 53.565 10.5719 53.553 10.3815C53.5424 10.2134 53.4896 10.0507 53.3993 9.90844C53.2971 9.74738 53.1281 9.62459 52.7901 9.37902L52.4243 9.11328C51.2148 8.23452 50.6101 7.79514 50.5359 7.40623C50.4717 7.06995 50.5841 6.72423 50.8336 6.48988C51.1222 6.21885 51.8698 6.21885 53.3648 6.21885H53.8169C54.2347 6.21885 54.4436 6.21885 54.621 6.14862C54.7776 6.08662 54.916 5.98606 55.0233 5.85627C55.1449 5.70929 55.2095 5.51062 55.3386 5.11327L55.4783 4.68328Z" fill="#D9D9D9"/>
</svg>
