<svg width="114" height="29" viewBox="0 0 114 29" fill="none" xmlns="http://www.w3.org/2000/svg">
<rect width="114" height="29" rx="2.5" fill="#AFABAB"/>
<path d="M10.573 10.189V13.797H17.492V10.189H10.573ZM16.051 11.333V12.653H12.003V11.333H16.051ZM9.44 14.754V15.909H18.647V14.754H9.44ZM13.301 13.533V15.084H14.764V13.533H13.301ZM10.463 16.646V17.801H16.073V19.979H17.536V16.646H10.463ZM21.8251 15.337V18.076H23.2881V15.337H21.8251ZM25.0261 15.348V18.087H26.4781V15.348H25.0261ZM19.5701 17.68V18.868H28.7881V17.68H19.5701ZM20.2741 10.596V11.762H28.0291V10.596H20.2741ZM20.3181 14.622V15.777H27.9961V14.622H20.3181ZM21.6601 11.564V14.787H23.1231V11.564H21.6601ZM25.1911 11.564V14.787H26.6431V11.564H25.1911ZM36.9608 11.872V13.049H39.7328V11.872H36.9608ZM36.9608 15.029V16.206H39.7328V15.029H36.9608ZM35.2008 10.497C33.6718 10.497 32.5718 11.905 32.5718 14.127C32.5718 16.371 33.6718 17.779 35.2008 17.779C36.7188 17.779 37.8298 16.371 37.8298 14.127C37.8298 11.905 36.7188 10.497 35.2008 10.497ZM35.2008 11.828C35.9488 11.828 36.4438 12.631 36.4438 14.127C36.4438 15.645 35.9488 16.459 35.2008 16.459C34.4638 16.459 33.9578 15.645 33.9578 14.127C33.9578 12.631 34.4638 11.828 35.2008 11.828ZM39.5018 9.782V20.001H40.9538V9.782H39.5018ZM49.8189 9.793V16.173H51.2049V9.793H49.8189ZM48.5759 12.301V13.489H50.2039V12.301H48.5759ZM47.7069 9.991V15.843H49.0709V9.991H47.7069ZM42.4819 10.838V11.96H47.4209V10.838H42.4819ZM44.9679 12.29C43.6919 12.29 42.7679 13.016 42.7679 14.072C42.7679 15.128 43.6919 15.843 44.9679 15.843C46.2439 15.843 47.1679 15.128 47.1679 14.072C47.1679 13.016 46.2439 12.29 44.9679 12.29ZM44.9679 13.335C45.4959 13.335 45.8589 13.599 45.8589 14.072C45.8589 14.545 45.4959 14.809 44.9679 14.809C44.4289 14.809 44.0659 14.545 44.0659 14.072C44.0659 13.599 44.4289 13.335 44.9679 13.335ZM44.2309 9.892V11.608H45.6719V9.892H44.2309ZM47.7619 16.283C45.5729 16.283 44.2529 16.943 44.2529 18.131C44.2529 19.308 45.5729 19.979 47.7619 19.979C49.9399 19.979 51.2599 19.308 51.2599 18.131C51.2599 16.943 49.9399 16.283 47.7619 16.283ZM47.7619 17.372C49.1149 17.372 49.7969 17.603 49.7969 18.131C49.7969 18.648 49.1149 18.89 47.7619 18.89C46.3979 18.89 45.7159 18.648 45.7159 18.131C45.7159 17.603 46.3979 17.372 47.7619 17.372ZM55.0981 11.399V12.543C55.0981 14.27 54.2731 16.151 52.5681 16.91L53.3931 18.065C55.3071 17.196 56.2641 14.897 56.2641 12.543V11.399H55.0981ZM55.4281 11.399V12.543C55.4281 14.809 56.3741 16.976 58.3101 17.812L59.1021 16.657C57.3971 15.953 56.5831 14.193 56.5831 12.543V11.399H55.4281ZM52.9751 10.772V11.971H58.6841V10.772H52.9751ZM59.6301 9.793V19.979H61.1041V9.793H59.6301ZM68.1217 11.729V11.85C68.1217 12.73 67.4287 13.566 65.8557 13.852L66.4387 14.985C68.3967 14.589 69.2987 13.357 69.2987 11.85V11.729H68.1217ZM68.4187 11.729V11.85C68.4187 13.291 69.3207 14.468 71.2457 14.831L71.8177 13.709C70.2777 13.434 69.5957 12.675 69.5957 11.85V11.729H68.4187ZM66.1307 10.805V11.927H71.5757V10.805H66.1307ZM68.1217 9.815V11.608H69.5957V9.815H68.1217ZM68.1107 15.579V19.671H69.5737V15.579H68.1107ZM72.5657 9.793V19.979H74.0177V9.793H72.5657ZM65.7017 16.602C67.5167 16.602 69.8817 16.569 72.0817 16.173L71.9827 15.117C69.8487 15.403 67.3737 15.414 65.5257 15.414L65.7017 16.602ZM75.6229 17.592V18.791H84.8409V17.592H75.6229ZM79.4509 15.326V17.911H80.9029V15.326H79.4509ZM79.3959 10.354V11.091C79.3959 12.499 78.1529 14.061 75.8319 14.435L76.4369 15.656C79.0989 15.172 80.6719 13.258 80.6719 11.091V10.354H79.3959ZM79.6819 10.354V11.091C79.6819 13.291 81.2549 15.161 83.9279 15.656L84.5329 14.435C82.2009 14.061 80.9579 12.532 80.9579 11.091V10.354H79.6819ZM92.265 9.793V19.979H93.717V9.793H92.265ZM93.387 13.764V14.985H95.191V13.764H93.387ZM85.687 11.3V12.466H91.616V11.3H85.687ZM88.668 13.038C87.183 13.038 86.083 14.05 86.083 15.469C86.083 16.888 87.183 17.9 88.668 17.9C90.153 17.9 91.253 16.888 91.253 15.469C91.253 14.05 90.153 13.038 88.668 13.038ZM88.668 14.226C89.361 14.226 89.856 14.688 89.856 15.469C89.856 16.25 89.361 16.712 88.668 16.712C87.975 16.712 87.48 16.25 87.48 15.469C87.48 14.688 87.975 14.226 88.668 14.226ZM87.931 9.958V11.74H89.394V9.958H87.931ZM102.868 9.793V19.979H104.342V9.793H102.868ZM99.8652 10.849V11.113C99.8652 13.841 98.8092 15.689 95.8832 17.097L96.6422 18.263C100.261 16.514 101.317 13.962 101.317 10.849H99.8652ZM96.4222 10.849V12.004H100.558V10.849H96.4222Z" fill="white"/>
</svg>
