<svg width="40" height="40" viewBox="0 0 40 40" fill="none" xmlns="http://www.w3.org/2000/svg">
<g clip-path="url(#clip0_1007_261)">
<path d="M14.6608 10.8749L15.6205 11.1562L14.6608 10.8749ZM14.2105 12.4115L13.2508 12.1303L14.2105 12.4115ZM24.6229 12.4115L23.6632 12.6928L24.6229 12.4115ZM24.1725 10.8749L23.2129 11.1562L24.1725 10.8749ZM15.6205 11.1562C15.9951 9.8781 17.1675 9 18.4994 9V7C16.2796 7 14.3256 8.46351 13.7012 10.5937L15.6205 11.1562ZM15.1701 12.6928L15.6205 11.1562L13.7012 10.5937L13.2508 12.1303L15.1701 12.6928ZM13.4259 14.0488C14.3315 14.0488 14.9676 13.3838 15.1701 12.6928L13.2508 12.1303C13.2518 12.1272 13.2552 12.1154 13.2754 12.0984C13.2995 12.0782 13.3525 12.0488 13.4259 12.0488V14.0488ZM10 14.0488H13.4259V12.0488H10V14.0488ZM7 17.0488C7 15.3919 8.34315 14.0488 10 14.0488V12.0488C7.23858 12.0488 5 14.2874 5 17.0488H7ZM7 27V17.0488H5V27H7ZM10 30C8.34315 30 7 28.6569 7 27H5C5 29.7614 7.23858 32 10 32V30ZM28.8333 30H10V32H28.8333V30ZM31.8333 27C31.8333 28.6569 30.4902 30 28.8333 30V32C31.5948 32 33.8333 29.7614 33.8333 27H31.8333ZM31.8333 17.0488V27H33.8333V17.0488H31.8333ZM28.8333 14.0488C30.4902 14.0488 31.8333 15.3919 31.8333 17.0488H33.8333C33.8333 14.2874 31.5948 12.0488 28.8333 12.0488V14.0488ZM25.4075 14.0488H28.8333V12.0488H25.4075V14.0488ZM23.6632 12.6928C23.8658 13.3838 24.5018 14.0488 25.4075 14.0488V12.0488C25.4809 12.0488 25.5338 12.0782 25.5579 12.0984C25.5782 12.1154 25.5816 12.1272 25.5825 12.1303L23.6632 12.6928ZM23.2129 11.1562L23.6632 12.6928L25.5825 12.1303L25.1321 10.5937L23.2129 11.1562ZM20.334 9C21.6658 9 22.8383 9.87811 23.2129 11.1562L25.1321 10.5937C24.5078 8.46351 22.5538 7 20.334 7V9ZM18.4994 9H20.334V7H18.4994V9ZM17.7414 9.80481C16.8793 9.80481 16.1804 10.5037 16.1804 11.3658H18.1804C18.1804 11.6082 17.9838 11.8048 17.7414 11.8048V9.80481ZM21.0916 9.80481H17.7414V11.8048H21.0916V9.80481ZM22.6526 11.3658C22.6526 10.5037 21.9538 9.80481 21.0916 9.80481V11.8048C20.8492 11.8048 20.6526 11.6082 20.6526 11.3658H22.6526ZM21.0916 12.9268C21.9537 12.9268 22.6526 12.2279 22.6526 11.3658H20.6526C20.6526 11.1233 20.8492 10.9268 21.0916 10.9268V12.9268ZM17.7414 12.9268H21.0916V10.9268H17.7414V12.9268ZM16.1804 11.3658C16.1804 12.2279 16.8793 12.9268 17.7414 12.9268V10.9268C17.9838 10.9268 18.1804 11.1233 18.1804 11.3658H16.1804ZM25.125 21.9192C25.125 25.088 22.566 27.6509 19.4167 27.6509V29.6509C23.6771 29.6509 27.125 26.186 27.125 21.9192H25.125ZM19.4167 16.1875C22.566 16.1875 25.125 18.7504 25.125 21.9192H27.125C27.125 17.6524 23.6771 14.1875 19.4167 14.1875V16.1875ZM13.7083 21.9192C13.7083 18.7504 16.2673 16.1875 19.4167 16.1875V14.1875C15.1562 14.1875 11.7083 17.6524 11.7083 21.9192H13.7083ZM19.4167 27.6509C16.2673 27.6509 13.7083 25.088 13.7083 21.9192H11.7083C11.7083 26.186 15.1562 29.6509 19.4167 29.6509V27.6509Z" fill="#26265C"/>
<path d="M19.4167 25.3903C21.2691 25.3903 22.7708 23.8833 22.7708 22.0244C22.7708 20.1655 21.2691 18.6586 19.4167 18.6586C17.5642 18.6586 16.0625 20.1655 16.0625 22.0244C16.0625 23.8833 17.5642 25.3903 19.4167 25.3903Z" stroke="#26265C" stroke-width="2"/>
</g>
<defs>
<clipPath id="clip0_1007_261">
<rect width="29" height="25" fill="white" transform="translate(5 7)"/>
</clipPath>
</defs>
</svg>
