<svg width="168" height="37" viewBox="0 0 168 37" fill="none" xmlns="http://www.w3.org/2000/svg">
<path d="M15.3225 9.36656C16.2464 6.52285 16.7084 5.101 17.4023 4.71952C18.0023 4.38967 18.7294 4.38967 19.3294 4.71952C20.0233 5.101 20.4852 6.52285 21.4092 9.36656L21.7708 10.4793C22.029 11.274 22.1581 11.6714 22.4013 11.9653C22.616 12.2249 22.8928 12.426 23.2061 12.55C23.5608 12.6905 23.9786 12.6905 24.8142 12.6905H25.9842C28.9743 12.6905 30.4693 12.6905 31.0465 13.2325C31.5456 13.7012 31.7703 14.3927 31.642 15.0652C31.4936 15.8431 30.2841 16.7218 27.8651 18.4793L26.9185 19.1671C26.2425 19.6582 25.9045 19.9038 25.7001 20.2259C25.5196 20.5104 25.4139 20.8358 25.3927 21.172C25.3688 21.5528 25.4979 21.9501 25.7561 22.7448L26.1176 23.8576C27.0416 26.7013 27.5036 28.1231 27.1664 28.8396C26.8749 29.4591 26.2867 29.8865 25.6075 29.9723C24.8218 30.0715 23.6123 29.1928 21.1933 27.4353L20.2468 26.7475C19.5708 26.2564 19.2328 26.0108 18.8632 25.9159C18.5369 25.8322 18.1948 25.8322 17.8685 25.9159C17.4989 26.0108 17.1609 26.2564 16.4849 26.7475L15.5383 27.4353C13.1193 29.1928 11.9098 30.0715 11.1242 29.9723C10.4449 29.8865 9.85677 29.4591 9.56524 28.8396C9.22809 28.1231 9.69008 26.7013 10.6141 23.8576L10.9756 22.7448C11.2338 21.9501 11.3629 21.5528 11.339 21.172C11.3178 20.8358 11.2121 20.5104 11.0316 20.2259C10.8271 19.9038 10.4891 19.6582 9.81315 19.1671L8.86656 18.4793C6.44756 16.7218 5.23806 15.8431 5.08968 15.0652C4.96138 14.3927 5.18605 13.7012 5.68516 13.2325C6.2624 12.6905 7.75743 12.6905 10.7475 12.6905H11.9175C12.7531 12.6905 13.1709 12.6905 13.5256 12.55C13.8388 12.426 14.1157 12.2249 14.3304 11.9653C14.5736 11.6714 14.7027 11.274 14.9609 10.4793L15.3225 9.36656Z" fill="#D9D9D9"/>
<path d="M80.6232 9.36656C81.5472 6.52285 82.0092 5.101 82.7031 4.71952C83.3031 4.38967 84.0301 4.38967 84.6301 4.71952C85.324 5.101 85.786 6.52285 86.71 9.36656L87.0716 10.4793C87.3298 11.274 87.4589 11.6714 87.7021 11.9653C87.9168 12.2249 88.1936 12.426 88.5069 12.55C88.8616 12.6905 89.2794 12.6905 90.115 12.6905H91.285C94.275 12.6905 95.7701 12.6905 96.3473 13.2325C96.8464 13.7012 97.0711 14.3927 96.9428 15.0652C96.7944 15.8431 95.5849 16.7218 93.1659 18.4793L92.2193 19.1671C91.5433 19.6582 91.2053 19.9038 91.0009 20.2259C90.8204 20.5104 90.7146 20.8358 90.6935 21.172C90.6695 21.5528 90.7986 21.9501 91.0569 22.7448L91.4184 23.8576C92.3424 26.7013 92.8044 28.1231 92.4672 28.8396C92.1757 29.4591 91.5875 29.8865 90.9082 29.9723C90.1226 30.0715 88.9131 29.1928 86.4941 27.4353L85.5475 26.7475C84.8715 26.2564 84.5335 26.0108 84.164 25.9159C83.8377 25.8322 83.4955 25.8322 83.1692 25.9159C82.7997 26.0108 82.4617 26.2564 81.7857 26.7475L80.8391 27.4353C78.4201 29.1928 77.2106 30.0715 76.425 29.9723C75.7457 29.8865 75.1575 29.4591 74.866 28.8396C74.5289 28.1231 74.9909 26.7013 75.9148 23.8576L76.2764 22.7448C76.5346 21.9501 76.6637 21.5528 76.6398 21.172C76.6186 20.8358 76.5129 20.5104 76.3324 20.2259C76.1279 19.9038 75.7899 19.6582 75.1139 19.1671L74.1673 18.4793C71.7483 16.7218 70.5388 15.8431 70.3905 15.0652C70.2622 14.3927 70.4868 13.7012 70.9859 13.2325C71.5632 12.6905 73.0582 12.6905 76.0483 12.6905H77.2183C78.0539 12.6905 78.4717 12.6905 78.8264 12.55C79.1396 12.426 79.4164 12.2249 79.6312 11.9653C79.8744 11.6714 80.0035 11.274 80.2617 10.4793L80.6232 9.36656Z" fill="#D9D9D9"/>
<path d="M145.924 9.36656C146.848 6.52285 147.31 5.101 148.004 4.71952C148.604 4.38967 149.331 4.38967 149.931 4.71952C150.625 5.101 151.087 6.52285 152.011 9.36656L152.372 10.4793C152.631 11.274 152.76 11.6714 153.003 11.9653C153.218 12.2249 153.494 12.426 153.808 12.55C154.162 12.6905 154.58 12.6905 155.416 12.6905H156.586C159.576 12.6905 161.071 12.6905 161.648 13.2325C162.147 13.7012 162.372 14.3927 162.244 15.0652C162.095 15.8431 160.886 16.7218 158.467 18.4793L157.52 19.1671C156.844 19.6582 156.506 19.9038 156.302 20.2259C156.121 20.5104 156.015 20.8358 155.994 21.172C155.97 21.5528 156.099 21.9501 156.358 22.7448L156.719 23.8576C157.643 26.7013 158.105 28.1231 157.768 28.8396C157.476 29.4591 156.888 29.8865 156.209 29.9723C155.423 30.0715 154.214 29.1928 151.795 27.4353L150.848 26.7475C150.172 26.2564 149.834 26.0108 149.465 25.9159C149.138 25.8322 148.796 25.8322 148.47 25.9159C148.1 26.0108 147.762 26.2564 147.086 26.7475L146.14 27.4353C143.721 29.1928 142.511 30.0715 141.726 29.9723C141.047 29.8865 140.458 29.4591 140.167 28.8396C139.83 28.1231 140.292 26.7013 141.216 23.8576L141.577 22.7448C141.835 21.9501 141.964 21.5528 141.941 21.172C141.919 20.8358 141.814 20.5104 141.633 20.2259C141.429 19.9038 141.091 19.6582 140.415 19.1671L139.468 18.4793C137.049 16.7218 135.84 15.8431 135.691 15.0652C135.563 14.3927 135.788 13.7012 136.287 13.2325C136.864 12.6905 138.359 12.6905 141.349 12.6905H142.519C143.355 12.6905 143.772 12.6905 144.127 12.55C144.44 12.426 144.717 12.2249 144.932 11.9653C145.175 11.6714 145.304 11.274 145.562 10.4793L145.924 9.36656Z" fill="#D9D9D9"/>
<path d="M113.322 9.36656C114.246 6.52285 114.708 5.101 115.402 4.71952C116.002 4.38967 116.729 4.38967 117.329 4.71952C118.023 5.101 118.485 6.52285 119.409 9.36656L119.771 10.4793C120.029 11.274 120.158 11.6714 120.401 11.9653C120.616 12.2249 120.893 12.426 121.206 12.55C121.561 12.6905 121.979 12.6905 122.814 12.6905H123.984C126.974 12.6905 128.469 12.6905 129.047 13.2325C129.546 13.7012 129.77 14.3927 129.642 15.0652C129.494 15.8431 128.284 16.7218 125.865 18.4793L124.919 19.1671C124.243 19.6582 123.905 19.9038 123.7 20.2259C123.52 20.5104 123.414 20.8358 123.393 21.172C123.369 21.5528 123.498 21.9501 123.756 22.7448L124.118 23.8576C125.042 26.7013 125.504 28.1231 125.166 28.8396C124.875 29.4591 124.287 29.8865 123.607 29.9723C122.822 30.0715 121.612 29.1928 119.193 27.4353L118.247 26.7475C117.571 26.2564 117.233 26.0108 116.863 25.9159C116.537 25.8322 116.195 25.8322 115.868 25.9159C115.499 26.0108 115.161 26.2564 114.485 26.7475L113.538 27.4353C111.119 29.1928 109.91 30.0715 109.124 29.9723C108.445 29.8865 107.857 29.4591 107.565 28.8396C107.228 28.1231 107.69 26.7013 108.614 23.8576L108.976 22.7448C109.234 21.9501 109.363 21.5528 109.339 21.172C109.318 20.8358 109.212 20.5104 109.032 20.2259C108.827 19.9038 108.489 19.6582 107.813 19.1671L106.867 18.4793C104.448 16.7218 103.238 15.8431 103.09 15.0652C102.961 14.3927 103.186 13.7012 103.685 13.2325C104.262 12.6905 105.757 12.6905 108.747 12.6905H109.918C110.753 12.6905 111.171 12.6905 111.526 12.55C111.839 12.426 112.116 12.2249 112.33 11.9653C112.574 11.6714 112.703 11.274 112.961 10.4793L113.322 9.36656Z" fill="#D9D9D9"/>
<path d="M15.3225 9.36656C16.2464 6.52285 16.7084 5.101 17.4023 4.71952C18.0023 4.38967 18.7294 4.38967 19.3294 4.71952C20.0233 5.101 20.4852 6.52285 21.4092 9.36656L21.7708 10.4793C22.029 11.274 22.1581 11.6714 22.4013 11.9653C22.616 12.2249 22.8928 12.426 23.2061 12.55C23.5608 12.6905 23.9786 12.6905 24.8142 12.6905H25.9842C28.9743 12.6905 30.4693 12.6905 31.0465 13.2325C31.5456 13.7012 31.7703 14.3927 31.642 15.0652C31.4936 15.8431 30.2841 16.7218 27.8651 18.4793L26.9185 19.1671C26.2425 19.6582 25.9045 19.9038 25.7001 20.2259C25.5196 20.5104 25.4139 20.8358 25.3927 21.172C25.3688 21.5528 25.4979 21.9501 25.7561 22.7448L26.1176 23.8576C27.0416 26.7013 27.5036 28.1231 27.1664 28.8396C26.8749 29.4591 26.2867 29.8865 25.6075 29.9723C24.8218 30.0715 23.6123 29.1928 21.1933 27.4353L20.2468 26.7475C19.5708 26.2564 19.2328 26.0108 18.8632 25.9159C18.5369 25.8322 18.1948 25.8322 17.8685 25.9159C17.4989 26.0108 17.1609 26.2564 16.4849 26.7475L15.5383 27.4353C13.1193 29.1928 11.9098 30.0715 11.1242 29.9723C10.4449 29.8865 9.85677 29.4591 9.56524 28.8396C9.22809 28.1231 9.69008 26.7013 10.6141 23.8576L10.9756 22.7448C11.2338 21.9501 11.3629 21.5528 11.339 21.172C11.3178 20.8358 11.2121 20.5104 11.0316 20.2259C10.8271 19.9038 10.4891 19.6582 9.81315 19.1671L8.86656 18.4793C6.44756 16.7218 5.23806 15.8431 5.08968 15.0652C4.96138 14.3927 5.18605 13.7012 5.68516 13.2325C6.2624 12.6905 7.75743 12.6905 10.7475 12.6905H11.9175C12.7531 12.6905 13.1709 12.6905 13.5256 12.55C13.8388 12.426 14.1157 12.2249 14.3304 11.9653C14.5736 11.6714 14.7027 11.274 14.9609 10.4793L15.3225 9.36656Z" fill="#FDE45F"/>
<path d="M80.6232 9.36656C81.5472 6.52285 82.0092 5.101 82.7031 4.71952C83.3031 4.38967 84.0301 4.38967 84.6301 4.71952C85.324 5.101 85.786 6.52285 86.71 9.36656L87.0716 10.4793C87.3298 11.274 87.4589 11.6714 87.7021 11.9653C87.9168 12.2249 88.1936 12.426 88.5069 12.55C88.8616 12.6905 89.2794 12.6905 90.115 12.6905H91.285C94.275 12.6905 95.7701 12.6905 96.3473 13.2325C96.8464 13.7012 97.0711 14.3927 96.9428 15.0652C96.7944 15.8431 95.5849 16.7218 93.1659 18.4793L92.2193 19.1671C91.5433 19.6582 91.2053 19.9038 91.0009 20.2259C90.8204 20.5104 90.7146 20.8358 90.6935 21.172C90.6695 21.5528 90.7986 21.9501 91.0569 22.7448L91.4184 23.8576C92.3424 26.7013 92.8044 28.1231 92.4672 28.8396C92.1757 29.4591 91.5875 29.8865 90.9082 29.9723C90.1226 30.0715 88.9131 29.1928 86.4941 27.4353L85.5475 26.7475C84.8715 26.2564 84.5335 26.0108 84.164 25.9159C83.8377 25.8322 83.4955 25.8322 83.1692 25.9159C82.7997 26.0108 82.4617 26.2564 81.7857 26.7475L80.8391 27.4353C78.4201 29.1928 77.2106 30.0715 76.425 29.9723C75.7457 29.8865 75.1575 29.4591 74.866 28.8396C74.5289 28.1231 74.9909 26.7013 75.9148 23.8576L76.2764 22.7448C76.5346 21.9501 76.6637 21.5528 76.6398 21.172C76.6186 20.8358 76.5129 20.5104 76.3324 20.2259C76.1279 19.9038 75.7899 19.6582 75.1139 19.1671L74.1673 18.4793C71.7483 16.7218 70.5388 15.8431 70.3905 15.0652C70.2622 14.3927 70.4868 13.7012 70.9859 13.2325C71.5632 12.6905 73.0582 12.6905 76.0483 12.6905H77.2183C78.0539 12.6905 78.4717 12.6905 78.8264 12.55C79.1396 12.426 79.4164 12.2249 79.6312 11.9653C79.8744 11.6714 80.0035 11.274 80.2617 10.4793L80.6232 9.36656Z" fill="#D9D9D9"/>
<path d="M50.1986 5.10181V11.2238V15.2415V20.5338V22.4473V25.3812L47.3711 27.4355C44.9521 29.193 43.7426 30.0717 42.957 29.9725C42.2777 29.8867 41.6896 29.4593 41.398 28.8398C41.0609 28.1233 41.5229 26.7015 42.4469 23.8577L42.8084 22.745C43.0666 21.9503 43.1957 21.5529 43.1718 21.1722C43.1506 20.836 43.0449 20.5105 42.8644 20.2261C42.6599 19.904 42.3219 19.6584 41.6459 19.1673L40.6994 18.4795C38.2804 16.722 37.0709 15.8433 36.9225 15.0654C36.7942 14.3929 37.0189 13.7014 37.518 13.2327C38.0952 12.6907 39.5902 12.6907 42.5803 12.6907H43.7503C44.5859 12.6907 45.0037 12.6907 45.3584 12.5502C45.6716 12.4262 45.9485 12.2251 46.1632 11.9655C46.4064 11.6716 46.5355 11.2742 46.7937 10.4795L48.0288 6.6783C48.0892 6.4925 48.1193 6.39961 48.154 6.31818C48.4431 5.63933 49.0825 5.17479 49.8175 5.10962C49.9056 5.10181 50.0033 5.10181 50.1986 5.10181V5.10181Z" fill="#FDE45F"/>
<path d="M50.1991 5.10181V11.2238V15.2415V20.5338V22.4473V25.3812L53.0266 27.4355C55.4456 29.193 56.6551 30.0717 57.4407 29.9725C58.12 29.8867 58.7081 29.4593 58.9997 28.8398C59.3368 28.1233 58.8748 26.7015 57.9509 23.8577L57.5893 22.745C57.3311 21.9503 57.202 21.5529 57.2259 21.1722C57.2471 20.836 57.3528 20.5105 57.5333 20.2261C57.7378 19.904 58.0758 19.6584 58.7518 19.1673L59.6983 18.4795C62.1173 16.722 63.3268 15.8433 63.4752 15.0654C63.6035 14.3929 63.3789 13.7014 62.8797 13.2327C62.3025 12.6907 60.8075 12.6907 57.8174 12.6907H56.6474C55.8118 12.6907 55.394 12.6907 55.0393 12.5502C54.7261 12.4262 54.4492 12.2251 54.2345 11.9655C53.9913 11.6716 53.8622 11.2742 53.604 10.4795L52.3689 6.6783C52.3085 6.4925 52.2784 6.39961 52.2437 6.31818C51.9546 5.63933 51.3152 5.17479 50.5802 5.10962C50.4921 5.10181 50.3944 5.10181 50.1991 5.10181V5.10181Z" fill="#D9D9D9"/>
</svg>
