<svg width="242" height="68" viewBox="0 0 242 68" fill="none" xmlns="http://www.w3.org/2000/svg">
<path d="M1.43466 33V18.4545H4.0696V30.7912H10.4759V33H1.43466ZM17.4787 33.2131C16.3849 33.2131 15.4403 32.9858 14.6449 32.5312C13.8542 32.072 13.2457 31.4233 12.8196 30.5852C12.3935 29.7424 12.1804 28.7505 12.1804 27.6094C12.1804 26.4872 12.3935 25.5024 12.8196 24.6548C13.2505 23.8026 13.8518 23.1397 14.6236 22.6662C15.3954 22.188 16.3021 21.9489 17.3438 21.9489C18.0161 21.9489 18.6506 22.0578 19.2472 22.2756C19.8485 22.4886 20.3788 22.8201 20.8381 23.2699C21.3021 23.7197 21.6667 24.2926 21.9318 24.9886C22.197 25.6799 22.3295 26.5038 22.3295 27.4602V28.2486H13.3878V26.5156H19.8651C19.8603 26.0232 19.7538 25.5852 19.5455 25.2017C19.3371 24.8134 19.0459 24.508 18.6719 24.2855C18.3026 24.063 17.8717 23.9517 17.3793 23.9517C16.8537 23.9517 16.392 24.0795 15.9943 24.3352C15.5966 24.5862 15.2865 24.9176 15.0639 25.3295C14.8461 25.7367 14.7348 26.1842 14.7301 26.6719V28.1847C14.7301 28.8191 14.8461 29.3636 15.0781 29.8182C15.3101 30.268 15.6345 30.6136 16.0511 30.8551C16.4678 31.0919 16.9555 31.2102 17.5142 31.2102C17.8883 31.2102 18.2268 31.1581 18.5298 31.054C18.8329 30.9451 19.0956 30.7865 19.3182 30.5781C19.5407 30.3698 19.7088 30.1117 19.8224 29.804L22.223 30.0739C22.0715 30.7083 21.7827 31.2623 21.3565 31.7358C20.9351 32.2045 20.3954 32.5691 19.7372 32.8295C19.0791 33.0852 18.3262 33.2131 17.4787 33.2131ZM29.9521 22.0909V24.0795H23.6808V22.0909H29.9521ZM25.229 19.4773H27.8001V29.7188C27.8001 30.0644 27.8522 30.3295 27.9563 30.5142C28.0652 30.6941 28.2073 30.8172 28.3825 30.8835C28.5576 30.9498 28.7518 30.983 28.9648 30.983C29.1258 30.983 29.2726 30.9711 29.4052 30.9474C29.5425 30.9238 29.6467 30.9025 29.7177 30.8835L30.1509 32.8935C30.0136 32.9408 29.8171 32.9929 29.5614 33.0497C29.3105 33.1065 29.0027 33.1397 28.6381 33.1491C27.9942 33.1681 27.4142 33.071 26.8981 32.858C26.382 32.6402 25.9724 32.304 25.6694 31.8494C25.3711 31.3949 25.2243 30.8267 25.229 30.1449V19.4773ZM38.6612 37.0909C38.3108 37.0909 37.9865 37.0625 37.6882 37.0057C37.3946 36.9536 37.1603 36.892 36.9851 36.821L37.5817 34.8182C37.9557 34.9271 38.2895 34.9792 38.5831 34.9744C38.8767 34.9697 39.1347 34.8774 39.3572 34.6974C39.5845 34.5223 39.7763 34.2287 39.9325 33.8168L40.1527 33.2273L36.1967 22.0909H38.924L41.4382 30.3295H41.5518L44.0732 22.0909H46.8075L42.4396 34.321C42.236 34.8987 41.9661 35.3935 41.63 35.8054C41.2938 36.2221 40.8819 36.5393 40.3942 36.7571C39.9112 36.9796 39.3336 37.0909 38.6612 37.0909ZM52.9741 33.2131C51.9087 33.2131 50.9854 32.9787 50.2042 32.5099C49.4229 32.0412 48.8169 31.3854 48.386 30.5426C47.9599 29.6998 47.7468 28.715 47.7468 27.5881C47.7468 26.4612 47.9599 25.474 48.386 24.6264C48.8169 23.7789 49.4229 23.1207 50.2042 22.652C50.9854 22.1832 51.9087 21.9489 52.9741 21.9489C54.0394 21.9489 54.9627 22.1832 55.744 22.652C56.5252 23.1207 57.1289 23.7789 57.555 24.6264C57.9859 25.474 58.2013 26.4612 58.2013 27.5881C58.2013 28.715 57.9859 29.6998 57.555 30.5426C57.1289 31.3854 56.5252 32.0412 55.744 32.5099C54.9627 32.9787 54.0394 33.2131 52.9741 33.2131ZM52.9883 31.1534C53.5659 31.1534 54.0489 30.9948 54.4371 30.6776C54.8254 30.3556 55.1142 29.9247 55.3036 29.3849C55.4978 28.8452 55.5948 28.2438 55.5948 27.581C55.5948 26.9134 55.4978 26.3097 55.3036 25.7699C55.1142 25.2254 54.8254 24.7921 54.4371 24.4702C54.0489 24.1482 53.5659 23.9872 52.9883 23.9872C52.3964 23.9872 51.904 24.1482 51.511 24.4702C51.1228 24.7921 50.8316 25.2254 50.6374 25.7699C50.448 26.3097 50.3533 26.9134 50.3533 27.581C50.3533 28.2438 50.448 28.8452 50.6374 29.3849C50.8316 29.9247 51.1228 30.3556 51.511 30.6776C51.904 30.9948 52.3964 31.1534 52.9883 31.1534ZM67.3366 28.4119V22.0909H69.9077V33H67.4148V31.0611H67.3011C67.0549 31.6719 66.6501 32.1714 66.0866 32.5597C65.5279 32.9479 64.839 33.142 64.0199 33.142C63.3049 33.142 62.6728 32.9834 62.1236 32.6662C61.5791 32.3442 61.1529 31.8778 60.8452 31.267C60.5374 30.6515 60.3835 29.9081 60.3835 29.0369V22.0909H62.9545V28.6392C62.9545 29.3305 63.1439 29.8797 63.5227 30.2869C63.9015 30.6941 64.3987 30.8977 65.0142 30.8977C65.393 30.8977 65.7599 30.8054 66.1151 30.6207C66.4702 30.4361 66.7614 30.1615 66.9886 29.7969C67.2206 29.4276 67.3366 28.9659 67.3366 28.4119ZM72.5515 33V22.0909H75.0444V23.9091H75.158C75.3569 23.2794 75.6978 22.794 76.1808 22.4531C76.6684 22.1075 77.2248 21.9347 77.8498 21.9347C77.9918 21.9347 78.1505 21.9418 78.3256 21.956C78.5056 21.9654 78.6547 21.982 78.7731 22.0057V24.3707C78.6642 24.3329 78.4914 24.2997 78.2546 24.2713C78.0226 24.2382 77.7977 24.2216 77.5799 24.2216C77.1112 24.2216 76.6897 24.3234 76.3157 24.527C75.9464 24.7259 75.6552 25.0028 75.4421 25.358C75.229 25.7131 75.1225 26.1226 75.1225 26.5866V33H72.5515ZM90.8896 22.0909V24.0795H84.6183V22.0909H90.8896ZM86.1665 19.4773H88.7376V29.7188C88.7376 30.0644 88.7897 30.3295 88.8938 30.5142C89.0027 30.6941 89.1448 30.8172 89.32 30.8835C89.4951 30.9498 89.6893 30.983 89.9023 30.983C90.0633 30.983 90.2101 30.9711 90.3427 30.9474C90.48 30.9238 90.5842 30.9025 90.6552 30.8835L91.0884 32.8935C90.9511 32.9408 90.7546 32.9929 90.4989 33.0497C90.248 33.1065 89.9402 33.1397 89.5756 33.1491C88.9317 33.1681 88.3517 33.071 87.8356 32.858C87.3195 32.6402 86.9099 32.304 86.6069 31.8494C86.3086 31.3949 86.1618 30.8267 86.1665 30.1449V19.4773ZM93.0398 33V22.0909H95.5327V23.9091H95.6463C95.8452 23.2794 96.1861 22.794 96.669 22.4531C97.1567 22.1075 97.7131 21.9347 98.3381 21.9347C98.4801 21.9347 98.6387 21.9418 98.8139 21.956C98.9938 21.9654 99.143 21.982 99.2614 22.0057V24.3707C99.1525 24.3329 98.9796 24.2997 98.7429 24.2713C98.5109 24.2382 98.286 24.2216 98.0682 24.2216C97.5994 24.2216 97.178 24.3234 96.804 24.527C96.4347 24.7259 96.1435 25.0028 95.9304 25.358C95.7173 25.7131 95.6108 26.1226 95.6108 26.5866V33H93.0398ZM103.913 33.2202C103.222 33.2202 102.599 33.0971 102.045 32.8509C101.496 32.5999 101.061 32.2306 100.739 31.7429C100.421 31.2552 100.263 30.6539 100.263 29.9389C100.263 29.3234 100.376 28.8144 100.604 28.4119C100.831 28.0095 101.141 27.6875 101.534 27.446C101.927 27.2045 102.37 27.0223 102.862 26.8991C103.359 26.7713 103.873 26.679 104.403 26.6222C105.043 26.5559 105.561 26.4967 105.959 26.4446C106.357 26.3878 106.645 26.3026 106.825 26.1889C107.01 26.0705 107.102 25.8883 107.102 25.642V25.5994C107.102 25.0644 106.944 24.6501 106.626 24.3565C106.309 24.063 105.852 23.9162 105.256 23.9162C104.626 23.9162 104.126 24.0535 103.757 24.3281C103.393 24.6027 103.146 24.9271 103.018 25.3011L100.618 24.9602C100.807 24.2973 101.12 23.7434 101.555 23.2983C101.991 22.8485 102.524 22.5123 103.153 22.2898C103.783 22.0625 104.479 21.9489 105.241 21.9489C105.767 21.9489 106.29 22.0104 106.811 22.1335C107.332 22.2566 107.808 22.4602 108.239 22.7443C108.67 23.0237 109.015 23.4048 109.276 23.8878C109.541 24.3707 109.673 24.9744 109.673 25.6989V33H107.202V31.5014H107.116C106.96 31.8045 106.74 32.0885 106.456 32.3537C106.177 32.6141 105.824 32.8248 105.398 32.9858C104.976 33.142 104.482 33.2202 103.913 33.2202ZM104.581 31.331C105.097 31.331 105.545 31.2292 105.923 31.0256C106.302 30.8172 106.593 30.5426 106.797 30.2017C107.005 29.8608 107.109 29.4891 107.109 29.0866V27.8011C107.029 27.8674 106.892 27.929 106.697 27.9858C106.508 28.0426 106.295 28.0923 106.058 28.1349C105.821 28.1776 105.587 28.2154 105.355 28.2486C105.123 28.2817 104.922 28.3101 104.751 28.3338C104.368 28.3859 104.025 28.4711 103.722 28.5895C103.419 28.7079 103.179 28.8736 103.004 29.0866C102.829 29.295 102.741 29.5649 102.741 29.8963C102.741 30.3698 102.914 30.7273 103.26 30.9688C103.606 31.2102 104.046 31.331 104.581 31.331ZM117.017 33.2131C115.928 33.2131 114.993 32.974 114.212 32.4957C113.435 32.0175 112.836 31.357 112.415 30.5142C111.998 29.6667 111.79 28.6913 111.79 27.5881C111.79 26.4801 112.003 25.5024 112.429 24.6548C112.855 23.8026 113.456 23.1397 114.233 22.6662C115.014 22.188 115.938 21.9489 117.003 21.9489C117.888 21.9489 118.672 22.1122 119.354 22.4389C120.04 22.7609 120.587 23.2178 120.994 23.8097C121.402 24.3968 121.634 25.0833 121.69 25.8693H119.233C119.134 25.3437 118.897 24.9058 118.523 24.5554C118.153 24.2003 117.659 24.0227 117.038 24.0227C116.513 24.0227 116.051 24.1648 115.653 24.4489C115.256 24.7282 114.946 25.1307 114.723 25.6562C114.505 26.1818 114.396 26.8116 114.396 27.5455C114.396 28.2888 114.505 28.928 114.723 29.4631C114.941 29.9934 115.246 30.4029 115.639 30.6918C116.037 30.9759 116.503 31.1179 117.038 31.1179C117.417 31.1179 117.756 31.0469 118.054 30.9048C118.357 30.758 118.61 30.5473 118.814 30.2727C119.018 29.9981 119.157 29.6643 119.233 29.2713H121.69C121.629 30.0431 121.402 30.7273 121.009 31.3239C120.616 31.9157 120.08 32.3797 119.403 32.7159C118.726 33.0473 117.931 33.2131 117.017 33.2131ZM128.631 33.2131C127.537 33.2131 126.593 32.9858 125.797 32.5312C125.007 32.072 124.398 31.4233 123.972 30.5852C123.546 29.7424 123.333 28.7505 123.333 27.6094C123.333 26.4872 123.546 25.5024 123.972 24.6548C124.403 23.8026 125.004 23.1397 125.776 22.6662C126.548 22.188 127.454 21.9489 128.496 21.9489C129.168 21.9489 129.803 22.0578 130.4 22.2756C131.001 22.4886 131.531 22.8201 131.99 23.2699C132.454 23.7197 132.819 24.2926 133.084 24.9886C133.349 25.6799 133.482 26.5038 133.482 27.4602V28.2486H124.54V26.5156H131.017C131.013 26.0232 130.906 25.5852 130.698 25.2017C130.489 24.8134 130.198 24.508 129.824 24.2855C129.455 24.063 129.024 23.9517 128.532 23.9517C128.006 23.9517 127.544 24.0795 127.147 24.3352C126.749 24.5862 126.439 24.9176 126.216 25.3295C125.998 25.7367 125.887 26.1842 125.882 26.6719V28.1847C125.882 28.8191 125.998 29.3636 126.23 29.8182C126.462 30.268 126.787 30.6136 127.203 30.8551C127.62 31.0919 128.108 31.2102 128.667 31.2102C129.041 31.2102 129.379 31.1581 129.682 31.054C129.985 30.9451 130.248 30.7865 130.471 30.5781C130.693 30.3698 130.861 30.1117 130.975 29.804L133.375 30.0739C133.224 30.7083 132.935 31.2623 132.509 31.7358C132.087 32.2045 131.548 32.5691 130.89 32.8295C130.231 33.0852 129.479 33.2131 128.631 33.2131ZM144.279 24.9744L141.935 25.2301C141.869 24.9934 141.753 24.7708 141.587 24.5625C141.426 24.3542 141.209 24.1861 140.934 24.0582C140.659 23.9304 140.323 23.8665 139.925 23.8665C139.39 23.8665 138.941 23.9825 138.576 24.2145C138.216 24.4465 138.039 24.7472 138.043 25.1165C138.039 25.4337 138.155 25.6918 138.391 25.8906C138.633 26.0895 139.031 26.2528 139.585 26.3807L141.445 26.7784C142.478 27.0009 143.245 27.3537 143.746 27.8366C144.253 28.3196 144.509 28.9517 144.513 29.733C144.509 30.4195 144.308 31.0256 143.91 31.5511C143.517 32.072 142.97 32.4792 142.269 32.7727C141.568 33.0663 140.763 33.2131 139.854 33.2131C138.519 33.2131 137.444 32.9337 136.63 32.375C135.816 31.8116 135.33 31.0279 135.174 30.0241L137.681 29.7827C137.795 30.2751 138.036 30.6468 138.406 30.8977C138.775 31.1487 139.255 31.2741 139.847 31.2741C140.458 31.2741 140.948 31.1487 141.317 30.8977C141.692 30.6468 141.879 30.3366 141.879 29.9673C141.879 29.6548 141.758 29.3968 141.516 29.1932C141.28 28.9896 140.91 28.8333 140.408 28.7244L138.548 28.3338C137.501 28.116 136.727 27.7491 136.225 27.233C135.723 26.7121 135.475 26.054 135.479 25.2585C135.475 24.5862 135.657 24.0038 136.026 23.5114C136.4 23.0142 136.919 22.6307 137.582 22.3608C138.249 22.0862 139.019 21.9489 139.89 21.9489C141.168 21.9489 142.174 22.2211 142.908 22.7656C143.647 23.3101 144.104 24.0464 144.279 24.9744ZM1.43466 59V44.4545H10.8949V46.6634H4.0696V50.6122H10.4048V52.821H4.0696V56.7912H10.9517V59H1.43466ZM23.2138 48.0909L19.3288 59H16.4879L12.603 48.0909H15.3445L17.8516 56.1946H17.9652L20.4794 48.0909H23.2138ZM29.4513 59.2131C28.3576 59.2131 27.413 58.9858 26.6175 58.5312C25.8268 58.072 25.2184 57.4233 24.7923 56.5852C24.3661 55.7424 24.1531 54.7505 24.1531 53.6094C24.1531 52.4872 24.3661 51.5024 24.7923 50.6548C25.2231 49.8026 25.8245 49.1397 26.5962 48.6662C27.368 48.188 28.2747 47.9489 29.3164 47.9489C29.9888 47.9489 30.6232 48.0578 31.2198 48.2756C31.8211 48.4886 32.3514 48.8201 32.8107 49.2699C33.2747 49.7197 33.6393 50.2926 33.9045 50.9886C34.1696 51.6799 34.3022 52.5038 34.3022 53.4602V54.2486H25.3604V52.5156H31.8377C31.833 52.0232 31.7264 51.5852 31.5181 51.2017C31.3098 50.8134 31.0186 50.508 30.6445 50.2855C30.2752 50.063 29.8443 49.9517 29.3519 49.9517C28.8263 49.9517 28.3647 50.0795 27.967 50.3352C27.5692 50.5862 27.2591 50.9176 27.0366 51.3295C26.8188 51.7367 26.7075 52.1842 26.7028 52.6719V54.1847C26.7028 54.8191 26.8188 55.3636 27.0508 55.8182C27.2828 56.268 27.6071 56.6136 28.0238 56.8551C28.4405 57.0919 28.9281 57.2102 29.4869 57.2102C29.8609 57.2102 30.1995 57.1581 30.5025 57.054C30.8055 56.9451 31.0683 56.7865 31.2908 56.5781C31.5134 56.3698 31.6815 56.1117 31.7951 55.804L34.1957 56.0739C34.0442 56.7083 33.7553 57.2623 33.3292 57.7358C32.9078 58.2045 32.368 58.5691 31.7099 58.8295C31.0517 59.0852 30.2989 59.2131 29.4513 59.2131ZM36.4773 59V48.0909H38.9702V49.9091H39.0838C39.2827 49.2794 39.6236 48.794 40.1065 48.4531C40.5942 48.1075 41.1506 47.9347 41.7756 47.9347C41.9176 47.9347 42.0762 47.9418 42.2514 47.956C42.4313 47.9654 42.5805 47.982 42.6989 48.0057V50.3707C42.59 50.3329 42.4171 50.2997 42.1804 50.2713C41.9484 50.2382 41.7235 50.2216 41.5057 50.2216C41.0369 50.2216 40.6155 50.3234 40.2415 50.527C39.8722 50.7259 39.581 51.0028 39.3679 51.358C39.1548 51.7131 39.0483 52.1226 39.0483 52.5866V59H36.4773ZM46.337 63.0909C45.9866 63.0909 45.6623 63.0625 45.364 63.0057C45.0704 62.9536 44.8361 62.892 44.6609 62.821L45.2575 60.8182C45.6315 60.9271 45.9653 60.9792 46.2589 60.9744C46.5524 60.9697 46.8105 60.8774 47.033 60.6974C47.2603 60.5223 47.4521 60.2287 47.6083 59.8168L47.8285 59.2273L43.8725 48.0909H46.5998L49.114 56.3295H49.2276L51.7489 48.0909H54.4833L50.1154 60.321C49.9118 60.8987 49.6419 61.3935 49.3058 61.8054C48.9696 62.2221 48.5576 62.5393 48.07 62.7571C47.587 62.9796 47.0094 63.0909 46.337 63.0909ZM58.5138 59L55.4315 48.0909H58.0522L59.9698 55.7614H60.0692L62.0295 48.0909H64.6218L66.582 55.7188H66.6886L68.5778 48.0909H71.2056L68.1161 59H65.4386L63.3931 51.6278H63.244L61.1985 59H58.5138ZM75.5717 52.608V59H73.0007V44.4545H75.5149V49.9446H75.6428C75.8984 49.3291 76.2938 48.8437 76.8288 48.4886C77.3686 48.1288 78.0552 47.9489 78.8885 47.9489C79.6461 47.9489 80.3066 48.1075 80.87 48.4247C81.4335 48.742 81.8691 49.206 82.1768 49.8168C82.4893 50.4276 82.6456 51.1733 82.6456 52.054V59H80.0746V52.4517C80.0746 51.7178 79.8852 51.1473 79.5064 50.7401C79.1323 50.3281 78.6068 50.1222 77.9297 50.1222C77.4751 50.1222 77.0679 50.2216 76.7081 50.4205C76.353 50.6146 76.0736 50.8963 75.87 51.2656C75.6712 51.6349 75.5717 52.0824 75.5717 52.608ZM90.0959 59.2131C89.0021 59.2131 88.0575 58.9858 87.2621 58.5312C86.4714 58.072 85.8629 57.4233 85.4368 56.5852C85.0107 55.7424 84.7976 54.7505 84.7976 53.6094C84.7976 52.4872 85.0107 51.5024 85.4368 50.6548C85.8677 49.8026 86.469 49.1397 87.2408 48.6662C88.0125 48.188 88.9193 47.9489 89.9609 47.9489C90.6333 47.9489 91.2678 48.0578 91.8643 48.2756C92.4657 48.4886 92.996 48.8201 93.4553 49.2699C93.9193 49.7197 94.2839 50.2926 94.549 50.9886C94.8142 51.6799 94.9467 52.5038 94.9467 53.4602V54.2486H86.005V52.5156H92.4822C92.4775 52.0232 92.371 51.5852 92.1626 51.2017C91.9543 50.8134 91.6631 50.508 91.2891 50.2855C90.9197 50.063 90.4889 49.9517 89.9964 49.9517C89.4709 49.9517 89.0092 50.0795 88.6115 50.3352C88.2138 50.5862 87.9036 50.9176 87.6811 51.3295C87.4633 51.7367 87.352 52.1842 87.3473 52.6719V54.1847C87.3473 54.8191 87.4633 55.3636 87.6953 55.8182C87.9273 56.268 88.2517 56.6136 88.6683 56.8551C89.085 57.0919 89.5727 57.2102 90.1314 57.2102C90.5054 57.2102 90.844 57.1581 91.147 57.054C91.45 56.9451 91.7128 56.7865 91.9354 56.5781C92.1579 56.3698 92.326 56.1117 92.4396 55.804L94.8402 56.0739C94.6887 56.7083 94.3999 57.2623 93.9737 57.7358C93.5523 58.2045 93.0125 58.5691 92.3544 58.8295C91.6963 59.0852 90.9434 59.2131 90.0959 59.2131ZM97.1218 59V48.0909H99.6147V49.9091H99.7283C99.9272 49.2794 100.268 48.794 100.751 48.4531C101.239 48.1075 101.795 47.9347 102.42 47.9347C102.562 47.9347 102.721 47.9418 102.896 47.956C103.076 47.9654 103.225 47.982 103.343 48.0057V50.3707C103.234 50.3329 103.062 50.2997 102.825 50.2713C102.593 50.2382 102.368 50.2216 102.15 50.2216C101.681 50.2216 101.26 50.3234 100.886 50.527C100.517 50.7259 100.225 51.0028 100.012 51.358C99.7994 51.7131 99.6928 52.1226 99.6928 52.5866V59H97.1218ZM109.432 59.2131C108.338 59.2131 107.393 58.9858 106.598 58.5312C105.807 58.072 105.199 57.4233 104.773 56.5852C104.347 55.7424 104.134 54.7505 104.134 53.6094C104.134 52.4872 104.347 51.5024 104.773 50.6548C105.204 49.8026 105.805 49.1397 106.577 48.6662C107.348 48.188 108.255 47.9489 109.297 47.9489C109.969 47.9489 110.604 48.0578 111.2 48.2756C111.802 48.4886 112.332 48.8201 112.791 49.2699C113.255 49.7197 113.62 50.2926 113.885 50.9886C114.15 51.6799 114.283 52.5038 114.283 53.4602V54.2486H105.341V52.5156H111.818C111.813 52.0232 111.707 51.5852 111.499 51.2017C111.29 50.8134 110.999 50.508 110.625 50.2855C110.256 50.063 109.825 49.9517 109.332 49.9517C108.807 49.9517 108.345 50.0795 107.947 50.3352C107.55 50.5862 107.24 50.9176 107.017 51.3295C106.799 51.7367 106.688 52.1842 106.683 52.6719V54.1847C106.683 54.8191 106.799 55.3636 107.031 55.8182C107.263 56.268 107.588 56.6136 108.004 56.8551C108.421 57.0919 108.909 57.2102 109.467 57.2102C109.841 57.2102 110.18 57.1581 110.483 57.054C110.786 56.9451 111.049 56.7865 111.271 56.5781C111.494 56.3698 111.662 56.1117 111.776 55.804L114.176 56.0739C114.025 56.7083 113.736 57.2623 113.31 57.7358C112.888 58.2045 112.348 58.5691 111.69 58.8295C111.032 59.0852 110.279 59.2131 109.432 59.2131ZM121.419 59V48.0909H123.99V59H121.419ZM122.711 46.5426C122.304 46.5426 121.954 46.4077 121.66 46.1378C121.367 45.8632 121.22 45.5341 121.22 45.1506C121.22 44.7623 121.367 44.4332 121.66 44.1634C121.954 43.8887 122.304 43.7514 122.711 43.7514C123.123 43.7514 123.474 43.8887 123.762 44.1634C124.056 44.4332 124.203 44.7623 124.203 45.1506C124.203 45.5341 124.056 45.8632 123.762 46.1378C123.474 46.4077 123.123 46.5426 122.711 46.5426ZM129.205 52.608V59H126.634V48.0909H129.091V49.9446H129.219C129.47 49.3338 129.87 48.8485 130.419 48.4886C130.973 48.1288 131.657 47.9489 132.472 47.9489C133.224 47.9489 133.88 48.1098 134.439 48.4318C135.002 48.7538 135.438 49.2202 135.746 49.831C136.058 50.4418 136.212 51.1828 136.207 52.054V59H133.636V52.4517C133.636 51.7225 133.447 51.152 133.068 50.7401C132.694 50.3281 132.176 50.1222 131.513 50.1222C131.063 50.1222 130.663 50.2216 130.312 50.4205C129.967 50.6146 129.695 50.8963 129.496 51.2656C129.302 51.6349 129.205 52.0824 129.205 52.608Z" fill="#FEFEFE"/>
<path d="M160.217 24.9744L157.873 25.2301C157.807 24.9934 157.691 24.7708 157.525 24.5625C157.364 24.3542 157.146 24.1861 156.871 24.0582C156.597 23.9304 156.261 23.8665 155.863 23.8665C155.328 23.8665 154.878 23.9825 154.513 24.2145C154.154 24.4465 153.976 24.7472 153.981 25.1165C153.976 25.4337 154.092 25.6918 154.329 25.8906C154.57 26.0895 154.968 26.2528 155.522 26.3807L157.383 26.7784C158.415 27.0009 159.182 27.3537 159.684 27.8366C160.191 28.3196 160.446 28.9517 160.451 29.733C160.446 30.4195 160.245 31.0256 159.847 31.5511C159.454 32.072 158.907 32.4792 158.207 32.7727C157.506 33.0663 156.701 33.2131 155.792 33.2131C154.457 33.2131 153.382 32.9337 152.567 32.375C151.753 31.8116 151.268 31.0279 151.112 30.0241L153.619 29.7827C153.732 30.2751 153.974 30.6468 154.343 30.8977C154.712 31.1487 155.193 31.2741 155.785 31.2741C156.396 31.2741 156.886 31.1487 157.255 30.8977C157.629 30.6468 157.816 30.3366 157.816 29.9673C157.816 29.6548 157.695 29.3968 157.454 29.1932C157.217 28.9896 156.848 28.8333 156.346 28.7244L154.485 28.3338C153.439 28.116 152.665 27.7491 152.163 27.233C151.661 26.7121 151.412 26.054 151.417 25.2585C151.412 24.5862 151.594 24.0038 151.964 23.5114C152.338 23.0142 152.856 22.6307 153.519 22.3608C154.187 22.0862 154.956 21.9489 155.827 21.9489C157.106 21.9489 158.112 22.2211 158.846 22.7656C159.585 23.3101 160.041 24.0464 160.217 24.9744ZM165.142 26.608V33H162.571V18.4545H165.085V23.9446H165.213C165.469 23.3291 165.864 22.8437 166.399 22.4886C166.939 22.1288 167.625 21.9489 168.459 21.9489C169.216 21.9489 169.877 22.1075 170.44 22.4247C171.004 22.742 171.439 23.206 171.747 23.8168C172.06 24.4276 172.216 25.1733 172.216 26.054V33H169.645V26.4517C169.645 25.7178 169.455 25.1473 169.077 24.7401C168.703 24.3281 168.177 24.1222 167.5 24.1222C167.045 24.1222 166.638 24.2216 166.278 24.4205C165.923 24.6146 165.644 24.8963 165.44 25.2656C165.241 25.6349 165.142 26.0824 165.142 26.608ZM174.837 33V22.0909H177.408V33H174.837ZM176.129 20.5426C175.722 20.5426 175.372 20.4077 175.078 20.1378C174.785 19.8632 174.638 19.5341 174.638 19.1506C174.638 18.7623 174.785 18.4332 175.078 18.1634C175.372 17.8887 175.722 17.7514 176.129 17.7514C176.541 17.7514 176.892 17.8887 177.18 18.1634C177.474 18.4332 177.621 18.7623 177.621 19.1506C177.621 19.5341 177.474 19.8632 177.18 20.1378C176.892 20.4077 176.541 20.5426 176.129 20.5426ZM182.623 26.608V33H180.051V22.0909H182.509V23.9446H182.637C182.888 23.3338 183.288 22.8485 183.837 22.4886C184.391 22.1288 185.075 21.9489 185.89 21.9489C186.642 21.9489 187.298 22.1098 187.857 22.4318C188.42 22.7538 188.856 23.2202 189.164 23.831C189.476 24.4418 189.63 25.1828 189.625 26.054V33H187.054V26.4517C187.054 25.7225 186.865 25.152 186.486 24.7401C186.112 24.3281 185.594 24.1222 184.931 24.1222C184.481 24.1222 184.081 24.2216 183.73 24.4205C183.385 24.6146 183.113 24.8963 182.914 25.2656C182.72 25.6349 182.623 26.0824 182.623 26.608ZM197.069 33.2131C195.975 33.2131 195.03 32.9858 194.235 32.5312C193.444 32.072 192.836 31.4233 192.409 30.5852C191.983 29.7424 191.77 28.7505 191.77 27.6094C191.77 26.4872 191.983 25.5024 192.409 24.6548C192.84 23.8026 193.442 23.1397 194.213 22.6662C194.985 22.188 195.892 21.9489 196.934 21.9489C197.606 21.9489 198.24 22.0578 198.837 22.2756C199.438 22.4886 199.969 22.8201 200.428 23.2699C200.892 23.7197 201.257 24.2926 201.522 24.9886C201.787 25.6799 201.919 26.5038 201.919 27.4602V28.2486H192.978V26.5156H199.455C199.45 26.0232 199.344 25.5852 199.135 25.2017C198.927 24.8134 198.636 24.508 198.262 24.2855C197.892 24.063 197.462 23.9517 196.969 23.9517C196.444 23.9517 195.982 24.0795 195.584 24.3352C195.186 24.5862 194.876 24.9176 194.654 25.3295C194.436 25.7367 194.325 26.1842 194.32 26.6719V28.1847C194.32 28.8191 194.436 29.3636 194.668 29.8182C194.9 30.268 195.224 30.6136 195.641 30.8551C196.058 31.0919 196.545 31.2102 197.104 31.2102C197.478 31.2102 197.817 31.1581 198.12 31.054C198.423 30.9451 198.685 30.7865 198.908 30.5781C199.131 30.3698 199.299 30.1117 199.412 29.804L201.813 30.0739C201.661 30.7083 201.373 31.2623 200.946 31.7358C200.525 32.2045 199.985 32.5691 199.327 32.8295C198.669 33.0852 197.916 33.2131 197.069 33.2131Z" fill="#FDC15F"/>
<path d="M143.896 59V44.4545H146.531V51.1378H146.708L152.383 44.4545H155.6L149.975 50.9815L155.65 59H152.482L148.143 52.7642L146.531 54.6676V59H143.896ZM161.275 59.2131C160.21 59.2131 159.286 58.9787 158.505 58.5099C157.724 58.0412 157.118 57.3854 156.687 56.5426C156.261 55.6998 156.048 54.715 156.048 53.5881C156.048 52.4612 156.261 51.474 156.687 50.6264C157.118 49.7789 157.724 49.1207 158.505 48.652C159.286 48.1832 160.21 47.9489 161.275 47.9489C162.34 47.9489 163.263 48.1832 164.045 48.652C164.826 49.1207 165.43 49.7789 165.856 50.6264C166.287 51.474 166.502 52.4612 166.502 53.5881C166.502 54.715 166.287 55.6998 165.856 56.5426C165.43 57.3854 164.826 58.0412 164.045 58.5099C163.263 58.9787 162.34 59.2131 161.275 59.2131ZM161.289 57.1534C161.867 57.1534 162.35 56.9948 162.738 56.6776C163.126 56.3556 163.415 55.9247 163.604 55.3849C163.799 54.8452 163.896 54.2438 163.896 53.581C163.896 52.9134 163.799 52.3097 163.604 51.7699C163.415 51.2254 163.126 50.7921 162.738 50.4702C162.35 50.1482 161.867 49.9872 161.289 49.9872C160.697 49.9872 160.205 50.1482 159.812 50.4702C159.424 50.7921 159.132 51.2254 158.938 51.7699C158.749 52.3097 158.654 52.9134 158.654 53.581C158.654 54.2438 158.749 54.8452 158.938 55.3849C159.132 55.9247 159.424 56.3556 159.812 56.6776C160.205 56.9948 160.697 57.1534 161.289 57.1534ZM168.684 59V48.0909H171.177V49.9091H171.291C171.49 49.2794 171.831 48.794 172.314 48.4531C172.801 48.1075 173.358 47.9347 173.983 47.9347C174.125 47.9347 174.283 47.9418 174.458 47.956C174.638 47.9654 174.788 47.982 174.906 48.0057V50.3707C174.797 50.3329 174.624 50.2997 174.387 50.2713C174.155 50.2382 173.931 50.2216 173.713 50.2216C173.244 50.2216 172.823 50.3234 172.449 50.527C172.079 50.7259 171.788 51.0028 171.575 51.358C171.362 51.7131 171.255 52.1226 171.255 52.5866V59H168.684ZM180.994 59.2131C179.901 59.2131 178.956 58.9858 178.161 58.5312C177.37 58.072 176.761 57.4233 176.335 56.5852C175.909 55.7424 175.696 54.7505 175.696 53.6094C175.696 52.4872 175.909 51.5024 176.335 50.6548C176.766 49.8026 177.367 49.1397 178.139 48.6662C178.911 48.188 179.818 47.9489 180.859 47.9489C181.532 47.9489 182.166 48.0578 182.763 48.2756C183.364 48.4886 183.894 48.8201 184.354 49.2699C184.818 49.7197 185.182 50.2926 185.447 50.9886C185.713 51.6799 185.845 52.5038 185.845 53.4602V54.2486H176.903V52.5156H183.381C183.376 52.0232 183.269 51.5852 183.061 51.2017C182.853 50.8134 182.562 50.508 182.188 50.2855C181.818 50.063 181.387 49.9517 180.895 49.9517C180.369 49.9517 179.908 50.0795 179.51 50.3352C179.112 50.5862 178.802 50.9176 178.58 51.3295C178.362 51.7367 178.25 52.1842 178.246 52.6719V54.1847C178.246 54.8191 178.362 55.3636 178.594 55.8182C178.826 56.268 179.15 56.6136 179.567 56.8551C179.983 57.0919 180.471 57.2102 181.03 57.2102C181.404 57.2102 181.742 57.1581 182.045 57.054C182.348 56.9451 182.611 56.7865 182.834 56.5781C183.056 56.3698 183.224 56.1117 183.338 55.804L185.739 56.0739C185.587 56.7083 185.298 57.2623 184.872 57.7358C184.451 58.2045 183.911 58.5691 183.253 58.8295C182.595 59.0852 181.842 59.2131 180.994 59.2131ZM191.159 59.2202C190.468 59.2202 189.846 59.0971 189.292 58.8509C188.742 58.5999 188.307 58.2306 187.985 57.7429C187.667 57.2552 187.509 56.6539 187.509 55.9389C187.509 55.3234 187.623 54.8144 187.85 54.4119C188.077 54.0095 188.387 53.6875 188.78 53.446C189.173 53.2045 189.616 53.0223 190.108 52.8991C190.605 52.7713 191.119 52.679 191.65 52.6222C192.289 52.5559 192.807 52.4967 193.205 52.4446C193.603 52.3878 193.891 52.3026 194.071 52.1889C194.256 52.0705 194.348 51.8883 194.348 51.642V51.5994C194.348 51.0644 194.19 50.6501 193.873 50.3565C193.555 50.063 193.098 49.9162 192.502 49.9162C191.872 49.9162 191.373 50.0535 191.003 50.3281C190.639 50.6027 190.392 50.9271 190.265 51.3011L187.864 50.9602C188.053 50.2973 188.366 49.7434 188.801 49.2983C189.237 48.8485 189.77 48.5123 190.4 48.2898C191.029 48.0625 191.725 47.9489 192.488 47.9489C193.013 47.9489 193.536 48.0104 194.057 48.1335C194.578 48.2566 195.054 48.4602 195.485 48.7443C195.916 49.0237 196.261 49.4048 196.522 49.8878C196.787 50.3707 196.919 50.9744 196.919 51.6989V59H194.448V57.5014H194.363C194.206 57.8045 193.986 58.0885 193.702 58.3537C193.423 58.6141 193.07 58.8248 192.644 58.9858C192.222 59.142 191.728 59.2202 191.159 59.2202ZM191.827 57.331C192.343 57.331 192.791 57.2292 193.169 57.0256C193.548 56.8172 193.839 56.5426 194.043 56.2017C194.251 55.8608 194.355 55.4891 194.355 55.0866V53.8011C194.275 53.8674 194.138 53.929 193.944 53.9858C193.754 54.0426 193.541 54.0923 193.304 54.1349C193.068 54.1776 192.833 54.2154 192.601 54.2486C192.369 54.2817 192.168 54.3101 191.998 54.3338C191.614 54.3859 191.271 54.4711 190.968 54.5895C190.665 54.7079 190.426 54.8736 190.25 55.0866C190.075 55.295 189.988 55.5649 189.988 55.8963C189.988 56.3698 190.16 56.7273 190.506 56.9688C190.852 57.2102 191.292 57.331 191.827 57.331Z" fill="#FFF48E"/>
<path d="M211.619 47.8435C212.033 47.1119 213.134 47.1391 213.507 47.8926C215.642 52.2103 217.134 53.7315 221.225 55.698C221.997 56.0688 222.028 57.202 221.281 57.6206C219.821 58.4395 217.867 59.6564 216.647 60.8998C215.487 62.0828 214.346 63.9496 213.573 65.3469C213.166 66.0841 212.041 66.0881 211.631 65.3524C210.827 63.9101 209.629 61.9629 208.44 60.7735C207.254 59.5879 205.316 58.3943 203.875 57.5903C203.137 57.1785 203.144 56.0467 203.885 55.6399C205.284 54.8715 207.145 53.7349 208.314 52.566C209.521 51.3586 210.78 49.3276 211.619 47.8435Z" fill="#FFF48E"/>
<path d="M223.923 41.1493C223.556 40.9433 223.569 40.3935 223.946 40.2081C226.321 39.0412 227.13 38.2467 228.204 35.9948C228.388 35.6086 228.954 35.5928 229.162 35.9668C229.599 36.7514 230.265 37.8337 230.947 38.5019C231.595 39.1379 232.629 39.7634 233.38 40.1752C233.749 40.3777 233.751 40.9395 233.382 41.1434C232.608 41.5721 231.53 42.2279 230.879 42.8792C230.23 43.5285 229.576 44.6013 229.147 45.3753C228.943 45.745 228.378 45.7421 228.175 45.371C227.766 44.6185 227.143 43.5875 226.502 42.9465C225.841 42.2861 224.719 41.5968 223.923 41.1493Z" fill="#FEFEFE"/>
<path d="M229.619 1.84349C230.033 1.1119 231.134 1.13909 231.507 1.89261C233.642 6.21032 235.134 7.73147 239.225 9.69801C239.997 10.0688 240.028 11.202 239.281 11.6206C237.821 12.4395 235.867 13.6564 234.647 14.8998C233.487 16.0828 232.346 17.9496 231.573 19.3469C231.166 20.0841 230.041 20.0881 229.631 19.3524C228.827 17.9101 227.629 15.9629 226.44 14.7735C225.254 13.5879 223.316 12.3943 221.875 11.5903C221.137 11.1785 221.144 10.0467 221.885 9.63993C223.284 8.87155 225.145 7.73494 226.314 6.56599C227.521 5.35865 228.78 3.32759 229.619 1.84349Z" fill="#FDC15F"/>
<path d="M209.923 27.1493C209.556 26.9433 209.569 26.3935 209.946 26.2081C212.321 25.0412 213.13 24.2467 214.204 21.9948C214.388 21.6086 214.954 21.5928 215.162 21.9668C215.599 22.7514 216.265 23.8337 216.947 24.5019C217.595 25.1379 218.629 25.7634 219.38 26.1752C219.749 26.3777 219.751 26.9395 219.382 27.1434C218.608 27.5721 217.53 28.2279 216.879 28.8792C216.23 29.5285 215.576 30.6013 215.147 31.3753C214.943 31.745 214.378 31.7421 214.175 31.371C213.766 30.6185 213.143 29.5875 212.502 28.9465C211.841 28.2861 210.719 27.5968 209.923 27.1493Z" fill="#FFF48E"/>
</svg>
