<svg width="166" height="37" viewBox="0 0 166 37" fill="none" xmlns="http://www.w3.org/2000/svg">
<path d="M15.3225 9.36656C16.2464 6.52285 16.7084 5.101 17.4023 4.71952C18.0023 4.38967 18.7294 4.38967 19.3294 4.71952C20.0233 5.101 20.4852 6.52285 21.4092 9.36656L21.7708 10.4793C22.029 11.274 22.1581 11.6714 22.4013 11.9653C22.616 12.2249 22.8928 12.426 23.2061 12.55C23.5608 12.6905 23.9786 12.6905 24.8142 12.6905H25.9842C28.9743 12.6905 30.4693 12.6905 31.0465 13.2325C31.5456 13.7012 31.7703 14.3927 31.642 15.0652C31.4936 15.8431 30.2841 16.7218 27.8651 18.4793L26.9185 19.1671C26.2425 19.6582 25.9045 19.9038 25.7001 20.2259C25.5196 20.5104 25.4139 20.8358 25.3927 21.172C25.3688 21.5528 25.4979 21.9501 25.7561 22.7448L26.1176 23.8576C27.0416 26.7013 27.5036 28.1231 27.1664 28.8396C26.8749 29.4591 26.2867 29.8865 25.6075 29.9723C24.8218 30.0715 23.6123 29.1928 21.1933 27.4353L20.2468 26.7475C19.5708 26.2564 19.2328 26.0108 18.8632 25.9159C18.5369 25.8322 18.1948 25.8322 17.8685 25.9159C17.4989 26.0108 17.1609 26.2564 16.4849 26.7475L15.5383 27.4353C13.1193 29.1928 11.9098 30.0715 11.1242 29.9723C10.4449 29.8865 9.85677 29.4591 9.56524 28.8396C9.22809 28.1231 9.69008 26.7013 10.6141 23.8576L10.9756 22.7448C11.2338 21.9501 11.3629 21.5528 11.339 21.172C11.3178 20.8358 11.2121 20.5104 11.0316 20.2259C10.8271 19.9038 10.4891 19.6582 9.81315 19.1671L8.86656 18.4793C6.44756 16.7218 5.23806 15.8431 5.08968 15.0652C4.96138 14.3927 5.18605 13.7012 5.68516 13.2325C6.2624 12.6905 7.75743 12.6905 10.7475 12.6905H11.9175C12.7531 12.6905 13.1709 12.6905 13.5256 12.55C13.8388 12.426 14.1157 12.2249 14.3304 11.9653C14.5736 11.6714 14.7027 11.274 14.9609 10.4793L15.3225 9.36656Z" fill="#D9D9D9"/>
<path d="M47.9729 9.36656C48.8968 6.52285 49.3588 5.101 50.0527 4.71952C50.6527 4.38967 51.3797 4.38967 51.9797 4.71952C52.6737 5.101 53.1356 6.52285 54.0596 9.36656L54.4212 10.4793C54.6794 11.274 54.8085 11.6714 55.0517 11.9653C55.2664 12.2249 55.5432 12.426 55.8565 12.55C56.2112 12.6905 56.629 12.6905 57.4646 12.6905H58.6346C61.6247 12.6905 63.1197 12.6905 63.6969 13.2325C64.196 13.7012 64.4207 14.3927 64.2924 15.0652C64.144 15.8431 62.9345 16.7218 60.5155 18.4793L59.5689 19.1671C58.8929 19.6582 58.5549 19.9038 58.3505 20.2259C58.17 20.5104 58.0643 20.8358 58.0431 21.172C58.0192 21.5528 58.1483 21.9501 58.4065 22.7448L58.768 23.8576C59.692 26.7013 60.154 28.1231 59.8168 28.8396C59.5253 29.4591 58.9371 29.8865 58.2578 29.9723C57.4722 30.0715 56.2627 29.1928 53.8437 27.4353L52.8971 26.7475C52.2211 26.2564 51.8831 26.0108 51.5136 25.9159C51.1873 25.8322 50.8452 25.8322 50.5189 25.9159C50.1493 26.0108 49.8113 26.2564 49.1353 26.7475L48.1887 27.4353C45.7697 29.1928 44.5602 30.0715 43.7746 29.9723C43.0953 29.8865 42.5072 29.4591 42.2156 28.8396C41.8785 28.1231 42.3405 26.7013 43.2644 23.8576L43.626 22.7448C43.8842 21.9501 44.0133 21.5528 43.9894 21.172C43.9682 20.8358 43.8625 20.5104 43.682 20.2259C43.4775 19.9038 43.1395 19.6582 42.4635 19.1671L41.517 18.4793C39.098 16.7218 37.8885 15.8431 37.7401 15.0652C37.6118 14.3927 37.8364 13.7012 38.3356 13.2325C38.9128 12.6905 40.4078 12.6905 43.3979 12.6905H44.5679C45.4035 12.6905 45.8213 12.6905 46.176 12.55C46.4892 12.426 46.7661 12.2249 46.9808 11.9653C47.224 11.6714 47.3531 11.274 47.6113 10.4793L47.9729 9.36656Z" fill="#D9D9D9"/>
<path d="M15.3225 9.36656C16.2464 6.52285 16.7084 5.101 17.4023 4.71952C18.0023 4.38967 18.7294 4.38967 19.3294 4.71952C20.0233 5.101 20.4852 6.52285 21.4092 9.36656L21.7708 10.4793C22.029 11.274 22.1581 11.6714 22.4013 11.9653C22.616 12.2249 22.8928 12.426 23.2061 12.55C23.5608 12.6905 23.9786 12.6905 24.8142 12.6905H25.9842C28.9743 12.6905 30.4693 12.6905 31.0465 13.2325C31.5456 13.7012 31.7703 14.3927 31.642 15.0652C31.4936 15.8431 30.2841 16.7218 27.8651 18.4793L26.9185 19.1671C26.2425 19.6582 25.9045 19.9038 25.7001 20.2259C25.5196 20.5104 25.4139 20.8358 25.3927 21.172C25.3688 21.5528 25.4979 21.9501 25.7561 22.7448L26.1176 23.8576C27.0416 26.7013 27.5036 28.1231 27.1664 28.8396C26.8749 29.4591 26.2867 29.8865 25.6075 29.9723C24.8218 30.0715 23.6123 29.1928 21.1933 27.4353L20.2468 26.7475C19.5708 26.2564 19.2328 26.0108 18.8632 25.9159C18.5369 25.8322 18.1948 25.8322 17.8685 25.9159C17.4989 26.0108 17.1609 26.2564 16.4849 26.7475L15.5383 27.4353C13.1193 29.1928 11.9098 30.0715 11.1242 29.9723C10.4449 29.8865 9.85677 29.4591 9.56524 28.8396C9.22809 28.1231 9.69008 26.7013 10.6141 23.8576L10.9756 22.7448C11.2338 21.9501 11.3629 21.5528 11.339 21.172C11.3178 20.8358 11.2121 20.5104 11.0316 20.2259C10.8271 19.9038 10.4891 19.6582 9.81315 19.1671L8.86656 18.4793C6.44756 16.7218 5.23806 15.8431 5.08968 15.0652C4.96138 14.3927 5.18605 13.7012 5.68516 13.2325C6.2624 12.6905 7.75743 12.6905 10.7475 12.6905H11.9175C12.7531 12.6905 13.1709 12.6905 13.5256 12.55C13.8388 12.426 14.1157 12.2249 14.3304 11.9653C14.5736 11.6714 14.7027 11.274 14.9609 10.4793L15.3225 9.36656Z" fill="#FDE45F"/>
<path d="M47.9729 9.36656C48.8968 6.52285 49.3588 5.101 50.0527 4.71952C50.6527 4.38967 51.3797 4.38967 51.9797 4.71952C52.6737 5.101 53.1356 6.52285 54.0596 9.36656L54.4212 10.4793C54.6794 11.274 54.8085 11.6714 55.0517 11.9653C55.2664 12.2249 55.5432 12.426 55.8565 12.55C56.2112 12.6905 56.629 12.6905 57.4646 12.6905H58.6346C61.6247 12.6905 63.1197 12.6905 63.6969 13.2325C64.196 13.7012 64.4207 14.3927 64.2924 15.0652C64.144 15.8431 62.9345 16.7218 60.5155 18.4793L59.5689 19.1671C58.8929 19.6582 58.5549 19.9038 58.3505 20.2259C58.17 20.5104 58.0643 20.8358 58.0431 21.172C58.0192 21.5528 58.1483 21.9501 58.4065 22.7448L58.768 23.8576C59.692 26.7013 60.154 28.1231 59.8168 28.8396C59.5253 29.4591 58.9371 29.8865 58.2578 29.9723C57.4722 30.0715 56.2627 29.1928 53.8437 27.4353L52.8971 26.7475C52.2211 26.2564 51.8831 26.0108 51.5136 25.9159C51.1873 25.8322 50.8452 25.8322 50.5189 25.9159C50.1493 26.0108 49.8113 26.2564 49.1353 26.7475L48.1887 27.4353C45.7697 29.1928 44.5602 30.0715 43.7746 29.9723C43.0953 29.8865 42.5072 29.4591 42.2156 28.8396C41.8785 28.1231 42.3405 26.7013 43.2644 23.8576L43.626 22.7448C43.8842 21.9501 44.0133 21.5528 43.9894 21.172C43.9682 20.8358 43.8625 20.5104 43.682 20.2259C43.4775 19.9038 43.1395 19.6582 42.4635 19.1671L41.517 18.4793C39.098 16.7218 37.8885 15.8431 37.7401 15.0652C37.6118 14.3927 37.8364 13.7012 38.3356 13.2325C38.9128 12.6905 40.4078 12.6905 43.3979 12.6905H44.5679C45.4035 12.6905 45.8213 12.6905 46.176 12.55C46.4892 12.426 46.7661 12.2249 46.9808 11.9653C47.224 11.6714 47.3531 11.274 47.6113 10.4793L47.9729 9.36656Z" fill="#FDE45F"/>
<path d="M80.6232 9.36656C81.5472 6.52285 82.0092 5.101 82.7031 4.71952C83.3031 4.38967 84.0301 4.38967 84.6301 4.71952C85.324 5.101 85.786 6.52285 86.71 9.36656L87.0716 10.4793C87.3298 11.274 87.4589 11.6714 87.7021 11.9653C87.9168 12.2249 88.1936 12.426 88.5069 12.55C88.8616 12.6905 89.2794 12.6905 90.115 12.6905H91.285C94.275 12.6905 95.7701 12.6905 96.3473 13.2325C96.8464 13.7012 97.0711 14.3927 96.9428 15.0652C96.7944 15.8431 95.5849 16.7218 93.1659 18.4793L92.2193 19.1671C91.5433 19.6582 91.2053 19.9038 91.0009 20.2259C90.8204 20.5104 90.7146 20.8358 90.6935 21.172C90.6695 21.5528 90.7986 21.9501 91.0569 22.7448L91.4184 23.8576C92.3424 26.7013 92.8044 28.1231 92.4672 28.8396C92.1757 29.4591 91.5875 29.8865 90.9082 29.9723C90.1226 30.0715 88.9131 29.1928 86.4941 27.4353L85.5475 26.7475C84.8715 26.2564 84.5335 26.0108 84.164 25.9159C83.8377 25.8322 83.4955 25.8322 83.1692 25.9159C82.7997 26.0108 82.4617 26.2564 81.7857 26.7475L80.8391 27.4353C78.4201 29.1928 77.2106 30.0715 76.425 29.9723C75.7457 29.8865 75.1575 29.4591 74.866 28.8396C74.5289 28.1231 74.9909 26.7013 75.9148 23.8576L76.2764 22.7448C76.5346 21.9501 76.6637 21.5528 76.6398 21.172C76.6186 20.8358 76.5129 20.5104 76.3324 20.2259C76.1279 19.9038 75.7899 19.6582 75.1139 19.1671L74.1673 18.4793C71.7483 16.7218 70.5388 15.8431 70.3905 15.0652C70.2622 14.3927 70.4868 13.7012 70.9859 13.2325C71.5632 12.6905 73.0582 12.6905 76.0483 12.6905H77.2183C78.0539 12.6905 78.4717 12.6905 78.8264 12.55C79.1396 12.426 79.4164 12.2249 79.6312 11.9653C79.8744 11.6714 80.0035 11.274 80.2617 10.4793L80.6232 9.36656Z" fill="#FDE45F"/>
<path d="M114.322 9.36656C115.246 6.52285 115.708 5.101 116.402 4.71952C117.002 4.38967 117.729 4.38967 118.329 4.71952C119.023 5.101 119.485 6.52285 120.409 9.36656L120.771 10.4793C121.029 11.274 121.158 11.6714 121.401 11.9653C121.616 12.2249 121.893 12.426 122.206 12.55C122.561 12.6905 122.979 12.6905 123.814 12.6905H124.984C127.974 12.6905 129.469 12.6905 130.047 13.2325C130.546 13.7012 130.77 14.3927 130.642 15.0652C130.494 15.8431 129.284 16.7218 126.865 18.4793L125.919 19.1671C125.243 19.6582 124.905 19.9038 124.7 20.2259C124.52 20.5104 124.414 20.8358 124.393 21.172C124.369 21.5528 124.498 21.9501 124.756 22.7448L125.118 23.8576C126.042 26.7013 126.504 28.1231 126.166 28.8396C125.875 29.4591 125.287 29.8865 124.607 29.9723C123.822 30.0715 122.612 29.1928 120.193 27.4353L119.247 26.7475C118.571 26.2564 118.233 26.0108 117.863 25.9159C117.537 25.8322 117.195 25.8322 116.868 25.9159C116.499 26.0108 116.161 26.2564 115.485 26.7475L114.538 27.4353C112.119 29.1928 110.91 30.0715 110.124 29.9723C109.445 29.8865 108.857 29.4591 108.565 28.8396C108.228 28.1231 108.69 26.7013 109.614 23.8576L109.976 22.7448C110.234 21.9501 110.363 21.5528 110.339 21.172C110.318 20.8358 110.212 20.5104 110.032 20.2259C109.827 19.9038 109.489 19.6582 108.813 19.1671L107.867 18.4793C105.448 16.7218 104.238 15.8431 104.09 15.0652C103.961 14.3927 104.186 13.7012 104.685 13.2325C105.262 12.6905 106.757 12.6905 109.747 12.6905H110.918C111.753 12.6905 112.171 12.6905 112.526 12.55C112.839 12.426 113.116 12.2249 113.33 11.9653C113.574 11.6714 113.703 11.274 113.961 10.4793L114.322 9.36656Z" fill="#FDE45F"/>
<path d="M148.467 5.10156V11.2235V15.2412V20.5336V22.4471V25.3809L145.639 27.4352C143.22 29.1927 142.011 30.0715 141.225 29.9722C140.546 29.8864 139.958 29.4591 139.666 28.8396C139.329 28.1231 139.791 26.7012 140.715 23.8575L141.077 22.7447C141.335 21.95 141.464 21.5527 141.44 21.1719C141.419 20.8357 141.313 20.5103 141.133 20.2259C140.928 19.9037 140.59 19.6582 139.914 19.167L138.968 18.4793C136.549 16.7218 135.339 15.843 135.191 15.0652C135.062 14.3926 135.287 13.7012 135.786 13.2325C136.364 12.6904 137.859 12.6904 140.849 12.6904H142.019C142.854 12.6904 143.272 12.6904 143.627 12.55C143.94 12.426 144.217 12.2248 144.432 11.9653C144.675 11.6713 144.804 11.274 145.062 10.4793L146.297 6.67805C146.357 6.49226 146.388 6.39936 146.422 6.31794C146.711 5.63909 147.351 5.17455 148.086 5.10938C148.174 5.10156 148.272 5.10156 148.467 5.10156V5.10156Z" fill="#FDE45F"/>
<path d="M148.467 5.10156V11.2235V15.2412V20.5336V22.4471V25.3809L151.295 27.4352C153.714 29.1927 154.923 30.0715 155.709 29.9722C156.388 29.8864 156.976 29.4591 157.268 28.8396C157.605 28.1231 157.143 26.7012 156.219 23.8575L155.858 22.7447C155.599 21.95 155.47 21.5527 155.494 21.1719C155.515 20.8357 155.621 20.5103 155.802 20.2259C156.006 19.9037 156.344 19.6582 157.02 19.167L157.967 18.4793C160.386 16.7218 161.595 15.843 161.744 15.0652C161.872 14.3926 161.647 13.7012 161.148 13.2325C160.571 12.6904 159.076 12.6904 156.086 12.6904H154.916C154.08 12.6904 153.662 12.6904 153.308 12.55C152.994 12.426 152.718 12.2248 152.503 11.9653C152.26 11.6713 152.131 11.274 151.872 10.4793L150.637 6.67805C150.577 6.49226 150.547 6.39936 150.512 6.31794C150.223 5.63909 149.584 5.17455 148.849 5.10938C148.76 5.10156 148.663 5.10156 148.467 5.10156V5.10156Z" fill="#D9D9D9"/>
</svg>
