<svg width="74" height="35" viewBox="0 0 74 35" fill="none" xmlns="http://www.w3.org/2000/svg">
<g filter="url(#filter0_d_1125_187)">
<g filter="url(#filter1_b_1125_187)">
<g filter="url(#filter2_b_1125_187)">
<rect x="4" y="4" width="66" height="27" rx="13.5" fill="white" fill-opacity="0.46"/>
</g>
<path d="M23.8336 13.9297H22.193L24.6442 21H26.529L28.9704 13.9297H27.3493L25.6208 19.3203H25.5524L23.8336 13.9297ZM30.1918 21H31.6372V15.6973H30.1918V21ZM30.1235 14.2715C30.1235 14.6719 30.4799 15.0039 30.9145 15.0039C31.3442 15.0039 31.7006 14.6719 31.6958 14.2715C31.7006 13.8613 31.3442 13.5342 30.9145 13.5293C30.4799 13.5342 30.1235 13.8613 30.1235 14.2715ZM36.2376 17.2695H37.595C37.5168 16.2637 36.6868 15.6289 35.3489 15.6289C33.9817 15.6289 33.1077 16.2637 33.1126 17.2793C33.1077 18.0654 33.6252 18.583 34.636 18.7832L35.5149 18.959C36.0129 19.0615 36.2376 19.2324 36.2376 19.5059C36.2376 19.8477 35.886 20.0576 35.3586 20.0625C34.8264 20.0576 34.4895 19.8428 34.4211 19.4277H32.9661C33.0881 20.4629 33.928 21.1025 35.3586 21.1074C36.7698 21.1025 37.7073 20.4043 37.7122 19.3594C37.7073 18.5977 37.2092 18.1387 36.179 17.9238L35.2317 17.7285C34.7288 17.626 34.5432 17.4404 34.5481 17.2012C34.5432 16.8789 34.8997 16.6592 35.3684 16.6543C35.8518 16.6592 36.1741 16.8984 36.2376 17.2695ZM39.0508 21H40.4961V15.6973H39.0508V21ZM38.9825 14.2715C38.9825 14.6719 39.3389 15.0039 39.7735 15.0039C40.2032 15.0039 40.5596 14.6719 40.5547 14.2715C40.5596 13.8613 40.2032 13.5342 39.7735 13.5293C39.3389 13.5342 38.9825 13.8613 38.9825 14.2715ZM44.8622 15.6973H43.8661V14.4277H42.4208V15.6973H41.6883V16.7812H42.4208V19.5742C42.411 20.6045 43.1239 21.0732 44.1688 21.0684C44.5252 21.0732 44.784 21.0439 44.9403 21.0195V19.877C44.7645 19.8916 44.5106 19.9062 44.3641 19.9062C44.0711 19.8965 43.8612 19.7939 43.8661 19.3691V16.7812H44.8622V15.6973ZM48.5641 21.1074C49.8727 21.1025 50.7516 20.4678 50.9567 19.4863H49.5797C49.4381 19.8037 49.0866 20.0186 48.5934 20.0234C47.8463 20.0186 47.3727 19.5254 47.3727 18.7246H50.9958V18.3145C50.9958 16.5078 49.8971 15.6289 48.5055 15.6289C46.9528 15.6289 45.942 16.7373 45.9469 18.373C45.942 20.0527 46.9381 21.1025 48.5641 21.1074ZM47.3727 17.8164C47.402 17.2061 47.8708 16.708 48.5348 16.7129C49.1793 16.708 49.6237 17.1719 49.6286 17.8164H47.3727ZM54.3071 21.0879C55.1713 21.0879 55.6108 20.5898 55.811 20.1504H55.8793V21H57.3051V13.9297H55.8598V16.5859H55.811C55.6206 16.1562 55.1958 15.6289 54.3071 15.6289C53.1352 15.6289 52.1489 16.5371 52.1489 18.3535C52.1489 20.126 53.0961 21.0879 54.3071 21.0879ZM53.6333 18.3438C53.6284 17.4209 54.019 16.7812 54.7563 16.7812C55.4838 16.7812 55.8891 17.3916 55.8891 18.3438C55.8891 19.3008 55.479 19.9307 54.7563 19.9355C54.0239 19.9307 53.6284 19.2812 53.6333 18.3438Z" fill="#FEFEFE"/>
</g>
<circle cx="15.5143" cy="17.6572" r="2.65715" fill="#51CBFF"/>
</g>
<defs>
<filter id="filter0_d_1125_187" x="0" y="0" width="74" height="35" filterUnits="userSpaceOnUse" color-interpolation-filters="sRGB">
<feFlood flood-opacity="0" result="BackgroundImageFix"/>
<feColorMatrix in="SourceAlpha" type="matrix" values="0 0 0 0 0 0 0 0 0 0 0 0 0 0 0 0 0 0 127 0" result="hardAlpha"/>
<feOffset/>
<feGaussianBlur stdDeviation="2"/>
<feComposite in2="hardAlpha" operator="out"/>
<feColorMatrix type="matrix" values="0 0 0 0 0 0 0 0 0 0 0 0 0 0 0 0 0 0 0.25 0"/>
<feBlend mode="normal" in2="BackgroundImageFix" result="effect1_dropShadow_1125_187"/>
<feBlend mode="normal" in="SourceGraphic" in2="effect1_dropShadow_1125_187" result="shape"/>
</filter>
<filter id="filter1_b_1125_187" x="0" y="0" width="74" height="35" filterUnits="userSpaceOnUse" color-interpolation-filters="sRGB">
<feFlood flood-opacity="0" result="BackgroundImageFix"/>
<feGaussianBlur in="BackgroundImage" stdDeviation="2"/>
<feComposite in2="SourceAlpha" operator="in" result="effect1_backgroundBlur_1125_187"/>
<feBlend mode="normal" in="SourceGraphic" in2="effect1_backgroundBlur_1125_187" result="shape"/>
</filter>
<filter id="filter2_b_1125_187" x="0" y="0" width="74" height="35" filterUnits="userSpaceOnUse" color-interpolation-filters="sRGB">
<feFlood flood-opacity="0" result="BackgroundImageFix"/>
<feGaussianBlur in="BackgroundImage" stdDeviation="2"/>
<feComposite in2="SourceAlpha" operator="in" result="effect1_backgroundBlur_1125_187"/>
<feBlend mode="normal" in="SourceGraphic" in2="effect1_backgroundBlur_1125_187" result="shape"/>
</filter>
</defs>
</svg>
