<svg width="370" height="60" viewBox="0 0 370 60" fill="none" xmlns="http://www.w3.org/2000/svg">
<rect width="370" height="60" rx="5" fill="#AFABAB"/>
<path d="M166.669 37H162.286V24.6364H166.706C167.949 24.6364 169.02 24.8839 169.917 25.3789C170.815 25.8699 171.505 26.5762 171.988 27.4979C172.475 28.4195 172.718 29.5223 172.718 30.8061C172.718 32.094 172.475 33.2008 171.988 34.1264C171.505 35.0521 170.811 35.7624 169.905 36.2575C169.004 36.7525 167.925 37 166.669 37ZM164.9 34.7603H166.561C167.333 34.7603 167.983 34.6235 168.511 34.3498C169.042 34.0721 169.44 33.6435 169.706 33.0639C169.976 32.4804 170.11 31.7277 170.11 30.8061C170.11 29.8925 169.976 29.146 169.706 28.5664C169.44 27.9869 169.044 27.5603 168.517 27.2866C167.989 27.0129 167.339 26.8761 166.567 26.8761H164.9V34.7603ZM186.016 30.8182C186.016 32.1664 185.761 33.3134 185.249 34.2592C184.742 35.205 184.05 35.9274 183.173 36.4265C182.299 36.9215 181.317 37.169 180.227 37.169C179.128 37.169 178.142 36.9195 177.269 36.4205C176.395 35.9214 175.705 35.199 175.198 34.2532C174.691 33.3074 174.437 32.1624 174.437 30.8182C174.437 29.4699 174.691 28.3229 175.198 27.3771C175.705 26.4313 176.395 25.7109 177.269 25.2159C178.142 24.7169 179.128 24.4673 180.227 24.4673C181.317 24.4673 182.299 24.7169 183.173 25.2159C184.05 25.7109 184.742 26.4313 185.249 27.3771C185.761 28.3229 186.016 29.4699 186.016 30.8182ZM183.366 30.8182C183.366 29.9448 183.235 29.2083 182.974 28.6087C182.716 28.009 182.352 27.5542 181.881 27.2443C181.41 26.9344 180.859 26.7795 180.227 26.7795C179.595 26.7795 179.044 26.9344 178.573 27.2443C178.102 27.5542 177.735 28.009 177.474 28.6087C177.216 29.2083 177.088 29.9448 177.088 30.8182C177.088 31.6915 177.216 32.428 177.474 33.0277C177.735 33.6274 178.102 34.0821 178.573 34.392C179.044 34.7019 179.595 34.8569 180.227 34.8569C180.859 34.8569 181.41 34.7019 181.881 34.392C182.352 34.0821 182.716 33.6274 182.974 33.0277C183.235 32.428 183.366 31.6915 183.366 30.8182ZM198.294 24.6364V37H196.036L190.657 29.2184H190.566V37H187.953V24.6364H190.247L195.583 32.4119H195.692V24.6364H198.294ZM200.453 37V24.6364H208.784V26.7915H203.067V29.7376H208.356V31.8928H203.067V34.8448H208.809V37H200.453Z" fill="#FEFEFE"/>
</svg>
