<svg width="27" height="27" viewBox="0 0 27 27" fill="none" xmlns="http://www.w3.org/2000/svg">
<path d="M11.4077 5.67558C11.8755 4.23571 12.2073 3.21719 12.5052 2.50603C12.6528 2.15357 12.7754 1.91826 12.879 1.76404C12.9658 1.63465 13.0157 1.59806 13.0206 1.59456C13.3193 1.43133 13.6807 1.43133 13.9794 1.59456C13.9843 1.59806 14.0342 1.63465 14.121 1.76404C14.2246 1.91826 14.3472 2.15357 14.4948 2.50603C14.7927 3.21719 15.1245 4.23572 15.5923 5.67558L15.984 6.88106C15.9992 6.92781 16.0142 6.97419 16.0291 7.02017C16.2408 7.67525 16.4267 8.25014 16.7951 8.69546L17.5656 8.05803L16.7951 8.69546C17.1172 9.08481 17.5324 9.38649 18.0022 9.57251L18.3703 8.64274L18.0022 9.57252C18.5396 9.78527 19.1438 9.78437 19.8322 9.78333C19.8805 9.78326 19.9293 9.78319 19.9784 9.78319H21.246C22.7599 9.78319 23.8311 9.78402 24.5995 9.84754C24.9804 9.87903 25.242 9.92292 25.4207 9.97373C25.5705 10.0163 25.6208 10.0524 25.6256 10.056C25.8732 10.2897 25.9849 10.6334 25.922 10.968C25.9201 10.9738 25.9007 11.0325 25.8045 11.155C25.6898 11.3011 25.5039 11.4905 25.2144 11.7398C24.63 12.2428 23.7639 12.8731 22.5391 13.763L21.5136 14.508C21.4739 14.5369 21.4344 14.5655 21.3953 14.5939C20.8377 14.9977 20.3484 15.3521 20.0387 15.8401C19.7679 16.2667 19.6093 16.7549 19.5776 17.2592C19.5413 17.836 19.7289 18.4103 19.9426 19.0648C19.9576 19.1107 19.9727 19.157 19.9879 19.2038L20.3796 20.4093C20.8474 21.8491 21.1777 22.8682 21.3547 23.6186C21.4424 23.9905 21.4816 24.2529 21.4884 24.4386C21.4942 24.5943 21.4754 24.6532 21.4735 24.6589C21.3277 24.9666 21.0354 25.179 20.6978 25.2225C20.6918 25.2226 20.6299 25.2223 20.4836 25.1686C20.3092 25.1047 20.0717 24.9864 19.7451 24.7881C19.0861 24.3878 18.219 23.7588 16.9941 22.8689L15.9687 22.1239C15.9289 22.095 15.8895 22.0663 15.8505 22.0379C15.2941 21.6323 14.8059 21.2765 14.2461 21.1328C13.7566 21.0071 13.2434 21.0071 12.7539 21.1328C12.1941 21.2765 11.7059 21.6324 11.1495 22.0379C11.1104 22.0663 11.0711 22.095 11.0313 22.1239L10.0059 22.8689C8.78104 23.7588 7.91392 24.3878 7.25493 24.7881C6.92833 24.9864 6.69083 25.1047 6.51642 25.1686C6.37005 25.2223 6.30821 25.2226 6.30223 25.2225C5.96458 25.179 5.67227 24.9666 5.5265 24.6589C5.5246 24.6532 5.50578 24.5942 5.51156 24.4386C5.51845 24.2529 5.55756 23.9905 5.64531 23.6186C5.82234 22.8682 6.15257 21.8491 6.62041 20.4093L7.01209 19.2038C7.02729 19.157 7.04242 19.1107 7.05742 19.0648C7.27115 18.4103 7.45871 17.836 7.42242 17.2592C7.39069 16.7549 7.23209 16.2667 6.96133 15.8401C6.65164 15.3521 6.16233 14.9977 5.60475 14.5939C5.56561 14.5655 5.52613 14.5369 5.48635 14.508L4.46091 13.763C3.23609 12.8731 2.36996 12.2428 1.78564 11.7398C1.49605 11.4905 1.31015 11.3011 1.19547 11.155C1.09926 11.0324 1.07987 10.9737 1.07804 10.968C1.01513 10.6334 1.12678 10.2897 1.37435 10.056C1.37924 10.0524 1.42947 10.0163 1.57929 9.97373C1.75796 9.92292 2.01964 9.87903 2.40046 9.84754C3.16887 9.78402 4.24008 9.78319 5.75404 9.78319H7.02156C7.07072 9.78319 7.11946 9.78326 7.16779 9.78333C7.85624 9.78437 8.46041 9.78527 8.99778 9.57252L8.62965 8.64274L8.99778 9.57252C9.46761 9.38649 9.88284 9.08481 10.2049 8.69546C10.5733 8.25014 10.7592 7.67525 10.9709 7.02017C10.9858 6.97419 11.0008 6.92781 11.016 6.88106L11.4077 5.67558Z" stroke="#26265C" stroke-width="2"/>
</svg>
