<svg width="29" height="29" viewBox="0 0 29 29" fill="none" xmlns="http://www.w3.org/2000/svg">
<mask id="path-1-outside-1_127_310" maskUnits="userSpaceOnUse" x="-0.117188" y="-0.11731" width="29" height="29" fill="black">
<rect fill="white" x="-0.117188" y="-0.11731" width="29" height="29"/>
<path fill-rule="evenodd" clip-rule="evenodd" d="M25.0169 9.26138C24.4445 9.60346 23.7751 9.80004 23.0597 9.80004C20.9497 9.80004 19.2392 8.08953 19.2392 5.9795C19.2392 5.26416 19.4358 4.59474 19.7779 4.02232C19.9432 3.74572 19.87 3.36904 19.576 3.23709C19.3145 3.11973 19.0483 3.0112 18.7775 2.91187C18.5003 2.81016 18.2054 2.98571 18.1027 3.26255C17.5631 4.71772 16.1624 5.75474 14.5194 5.75474C12.8765 5.75474 11.4759 4.71776 10.9362 3.26264C10.8335 2.98579 10.5385 2.81025 10.2614 2.91197C9.99078 3.01126 9.72465 3.11974 9.46334 3.23703C9.16935 3.36898 9.0961 3.74567 9.26141 4.02227C9.60354 4.5947 9.80015 5.26414 9.80015 5.9795C9.80015 8.08953 8.08963 9.80004 5.9796 9.80004C5.26424 9.80004 4.5948 9.60344 4.02237 9.26131C3.74577 9.09599 3.36908 9.16925 3.23713 9.46323C3.11981 9.72462 3.0113 9.99082 2.91199 10.2615C2.81028 10.5387 2.98583 10.8336 3.26267 10.9363C4.71783 11.4759 5.75484 12.8767 5.75484 14.5196C5.75484 16.1625 4.71785 17.5632 3.26272 18.1028C2.98587 18.2055 2.81033 18.5005 2.91205 18.7777C3.01135 19.0483 3.11984 19.3144 3.23715 19.5758C3.3691 19.8698 3.74579 19.943 4.02239 19.7777C4.59482 19.4356 5.26425 19.239 5.9796 19.239C8.08963 19.239 9.80015 20.9495 9.80015 23.0595C9.80015 23.7749 9.60354 24.4443 9.26143 25.0167C9.09612 25.2933 9.16937 25.67 9.46335 25.802C9.6823 25.9002 9.90462 25.9923 10.1301 26.078C10.4287 26.1914 10.7445 25.9812 10.8265 25.6725C11.2601 24.0387 12.7492 22.8347 14.5194 22.8347C16.2897 22.8347 17.7788 24.0388 18.2124 25.6726C18.2943 25.9813 18.6102 26.1915 18.9088 26.0781C19.1344 25.9924 19.3569 25.9002 19.576 25.8019C19.8699 25.6699 19.9432 25.2933 19.7779 25.0167C19.4358 24.4443 19.2392 23.7748 19.2392 23.0595C19.2392 20.9495 20.9497 19.239 23.0597 19.239C23.775 19.239 24.4444 19.4356 25.0168 19.7776C25.2934 19.9429 25.6701 19.8697 25.8021 19.5757C25.9003 19.3567 25.9924 19.1344 26.0781 18.9089C26.1916 18.6103 25.9813 18.2945 25.6726 18.2125C24.0388 17.7789 22.8348 16.2898 22.8348 14.5196C22.8348 12.7493 24.0389 11.2602 25.6727 10.8266C25.9814 10.7447 26.1916 10.4288 26.0782 10.1302C25.9925 9.90469 25.9004 9.68231 25.8021 9.46331C25.6701 9.16934 25.2935 9.09607 25.0169 9.26138ZM14.3288 19.4978C17.1835 19.4978 19.4977 17.1835 19.4977 14.3288C19.4977 11.474 17.1835 9.15982 14.3288 9.15982C11.474 9.15982 9.1598 11.474 9.1598 14.3288C9.1598 17.1835 11.474 19.4978 14.3288 19.4978Z"/>
</mask>
<path d="M25.0169 9.26138L26.0429 10.9782L25.0169 9.26138ZM19.7779 4.02232L18.0611 2.99629L18.0611 2.9963L19.7779 4.02232ZM19.576 3.23709L18.757 5.06171L18.757 5.06171L19.576 3.23709ZM18.7775 2.91187L18.0886 4.78946L18.0886 4.78946L18.7775 2.91187ZM18.1027 3.26255L16.2275 2.56713L16.2275 2.56713L18.1027 3.26255ZM10.9362 3.26264L9.061 3.9581L9.061 3.9581L10.9362 3.26264ZM10.2614 2.91197L10.9504 4.78954L10.2614 2.91197ZM9.46334 3.23703L10.2823 5.06166H10.2823L9.46334 3.23703ZM9.26141 4.02227L7.54467 5.04832V5.04832L9.26141 4.02227ZM4.02237 9.26131L5.04843 7.54456H5.04842L4.02237 9.26131ZM3.23713 9.46323L1.41249 8.64426L3.23713 9.46323ZM2.91199 10.2615L1.03441 9.5725L1.03441 9.5725L2.91199 10.2615ZM3.26267 10.9363L3.9581 9.06109L3.9581 9.06109L3.26267 10.9363ZM3.26272 18.1028L3.95817 19.978H3.95817L3.26272 18.1028ZM2.91205 18.7777L1.03447 19.4666L1.03447 19.4666L2.91205 18.7777ZM3.23715 19.5758L1.41252 20.3948L1.41252 20.3948L3.23715 19.5758ZM4.02239 19.7777L5.04843 21.4945L5.04844 21.4945L4.02239 19.7777ZM9.26143 25.0167L7.54467 23.9907L7.54467 23.9907L9.26143 25.0167ZM9.46335 25.802L8.64438 27.6266L8.64439 27.6266L9.46335 25.802ZM10.1301 26.078L9.4197 27.9476L9.41971 27.9476L10.1301 26.078ZM10.8265 25.6725L12.7595 26.1856L10.8265 25.6725ZM18.2124 25.6726L16.2793 26.1856L16.2793 26.1856L18.2124 25.6726ZM18.9088 26.0781L19.6191 27.9477L19.6191 27.9477L18.9088 26.0781ZM19.576 25.8019L18.757 23.9773L18.757 23.9773L19.576 25.8019ZM19.7779 25.0167L18.0611 26.0427L18.0611 26.0427L19.7779 25.0167ZM25.0168 19.7776L26.0428 18.0609L26.0428 18.0609L25.0168 19.7776ZM25.8021 19.5757L23.9774 18.7567L23.9774 18.7567L25.8021 19.5757ZM26.0781 18.9089L27.9477 19.6193L27.9477 19.6193L26.0781 18.9089ZM25.6726 18.2125L25.1596 20.1456L25.6726 18.2125ZM25.6727 10.8266L26.1857 12.7597L25.6727 10.8266ZM26.0782 10.1302L27.9478 9.41987L27.9478 9.41986L26.0782 10.1302ZM25.8021 9.46331L23.9774 10.2823L23.9774 10.2823L25.8021 9.46331ZM23.0597 11.8C24.1463 11.8 25.1689 11.5004 26.0429 10.9782L23.9909 7.5446C23.72 7.70649 23.4038 7.80004 23.0597 7.80004V11.8ZM17.2392 5.9795C17.2392 9.1941 19.8451 11.8 23.0597 11.8V7.80004C22.0543 7.80004 21.2392 6.98496 21.2392 5.9795H17.2392ZM18.0611 2.9963C17.5388 3.87023 17.2392 4.89293 17.2392 5.9795H21.2392C21.2392 5.6354 21.3328 5.31925 21.4947 5.04835L18.0611 2.9963ZM18.757 5.06171C18.2686 4.84249 17.9938 4.41968 17.903 4.03637C17.8173 3.67435 17.8771 3.30431 18.0611 2.99629L21.4947 5.04835C22.12 4.00205 22.0377 2.14981 20.395 1.41246L18.757 5.06171ZM18.0886 4.78946C18.3152 4.8726 18.5381 4.96345 18.757 5.06171L20.395 1.41247C20.091 1.27602 19.7813 1.14981 19.4665 1.03428L18.0886 4.78946ZM19.9779 3.95797C19.7855 4.47683 19.0685 5.14902 18.0886 4.78946L19.4665 1.03428C17.9322 0.471291 16.6253 1.49459 16.2275 2.56713L19.9779 3.95797ZM14.5194 7.75474C17.0256 7.75474 19.1569 6.17185 19.9779 3.95797L16.2275 2.56713C15.9692 3.2636 15.2992 3.75474 14.5194 3.75474V7.75474ZM9.061 3.9581C9.88205 6.17191 12.0134 7.75474 14.5194 7.75474V3.75474C13.7397 3.75474 13.0697 3.26362 12.8114 2.56717L9.061 3.9581ZM10.9504 4.78954C9.97046 5.14913 9.25343 4.47695 9.061 3.9581L12.8114 2.56717C12.4136 1.49463 11.1066 0.47137 9.57235 1.0344L10.9504 4.78954ZM10.2823 5.06166C10.5011 4.96345 10.7239 4.87264 10.9504 4.78954L9.57235 1.0344C9.25768 1.14987 8.9482 1.27602 8.64436 1.41239L10.2823 5.06166ZM10.9782 2.99622C11.1623 3.30424 11.222 3.67428 11.1363 4.03631C11.0455 4.41961 10.7707 4.84244 10.2823 5.06166L8.64436 1.41239C7.00159 2.14974 6.91932 4.00202 7.54467 5.04832L10.9782 2.99622ZM11.8001 5.9795C11.8001 4.89289 11.5005 3.87017 10.9782 2.99622L7.54467 5.04832C7.70658 5.31923 7.80015 5.63539 7.80015 5.9795H11.8001ZM5.9796 11.8C9.1942 11.8 11.8001 9.1941 11.8001 5.9795H7.80015C7.80015 6.98496 6.98506 7.80004 5.9796 7.80004V11.8ZM2.99632 10.9781C3.87027 11.5004 4.893 11.8 5.9796 11.8V7.80004C5.63549 7.80004 5.31934 7.70648 5.04843 7.54456L2.99632 10.9781ZM5.06176 10.2822C4.84254 10.7706 4.41971 11.0454 4.03641 11.1362C3.67438 11.2219 3.30434 11.1622 2.99632 10.9781L5.04842 7.54456C4.00213 6.91922 2.14984 7.00148 1.41249 8.64426L5.06176 10.2822ZM4.78958 10.9504C4.8727 10.7239 4.96353 10.5011 5.06176 10.2822L1.41249 8.64426C1.27609 8.94818 1.14991 9.25774 1.03441 9.5725L4.78958 10.9504ZM3.9581 9.06109C4.47696 9.25351 5.14914 9.97053 4.78958 10.9504L1.03441 9.5725C0.47141 11.1068 1.4947 12.4137 2.56724 12.8115L3.9581 9.06109ZM7.75484 14.5196C7.75484 12.0135 6.17196 9.88212 3.9581 9.06109L2.56724 12.8115C3.2637 13.0698 3.75484 13.7398 3.75484 14.5196H7.75484ZM3.95817 19.978C6.17199 19.157 7.75484 17.0257 7.75484 14.5196H3.75484C3.75484 15.2993 3.26372 15.9693 2.56726 16.2276L3.95817 19.978ZM4.78962 18.0887C5.1492 19.0686 4.47702 19.7856 3.95817 19.978L2.56726 16.2276C1.49472 16.6254 0.471453 17.9324 1.03447 19.4666L4.78962 18.0887ZM5.06178 18.7568C4.96356 18.538 4.87273 18.3152 4.78962 18.0887L1.03447 19.4666C1.14996 19.7814 1.27612 20.0909 1.41252 20.3948L5.06178 18.7568ZM2.99634 18.061C3.30437 17.8769 3.6744 17.8171 4.03643 17.9028C4.41973 17.9936 4.84255 18.2684 5.06178 18.7568L1.41252 20.3948C2.14987 22.0375 4.00214 22.1198 5.04843 21.4945L2.99634 18.061ZM5.9796 17.239C4.893 17.239 3.87028 17.5386 2.99634 18.061L5.04844 21.4945C5.31935 21.3325 5.6355 21.239 5.9796 21.239V17.239ZM11.8001 23.0595C11.8001 19.8449 9.1942 17.239 5.9796 17.239V21.239C6.98506 21.239 7.80015 22.0541 7.80015 23.0595H11.8001ZM10.9782 26.0428C11.5005 25.1688 11.8001 24.1461 11.8001 23.0595H7.80015C7.80015 23.4036 7.70659 23.7198 7.54467 23.9907L10.9782 26.0428ZM10.2823 23.9773C10.7707 24.1965 11.0455 24.6194 11.1363 25.0027C11.2221 25.3647 11.1623 25.7347 10.9782 26.0428L7.54467 23.9907C6.91935 25.037 7.00161 26.8892 8.64438 27.6266L10.2823 23.9773ZM10.8405 24.2084C10.6518 24.1367 10.4656 24.0596 10.2823 23.9773L8.64439 27.6266C8.89895 27.7409 9.15748 27.8479 9.4197 27.9476L10.8405 24.2084ZM8.89342 25.1594C8.98446 24.8164 9.20426 24.517 9.52018 24.3248C9.85448 24.1215 10.344 24.0198 10.8405 24.2084L9.41971 27.9476C11.0877 28.5814 12.4495 27.3537 12.7595 26.1856L8.89342 25.1594ZM14.5194 20.8347C11.8197 20.8347 9.55391 22.671 8.89342 25.1594L12.7595 26.1856C12.9664 25.4064 13.6787 24.8347 14.5194 24.8347V20.8347ZM20.1455 25.1596C19.4851 22.6711 17.2192 20.8347 14.5194 20.8347V24.8347C15.3602 24.8347 16.0725 25.4065 16.2793 26.1856L20.1455 25.1596ZM18.1984 24.2085C18.6949 24.0199 19.1844 24.1216 19.5187 24.3249C19.8347 24.5171 20.0545 24.8165 20.1455 25.1596L16.2793 26.1856C16.5893 27.3537 17.9511 28.5815 19.6191 27.9477L18.1984 24.2085ZM18.757 23.9773C18.5735 24.0596 18.3873 24.1367 18.1984 24.2085L19.6191 27.9477C19.8815 27.848 20.1402 27.7409 20.395 27.6265L18.757 23.9773ZM18.0611 26.0427C17.877 25.7347 17.8173 25.3646 17.903 25.0026C17.9938 24.6193 18.2686 24.1965 18.757 23.9773L20.395 27.6265C22.0377 26.8892 22.12 25.0369 21.4947 23.9907L18.0611 26.0427ZM17.2392 23.0595C17.2392 24.1461 17.5388 25.1688 18.0611 26.0427L21.4947 23.9907C21.3328 23.7198 21.2392 23.4036 21.2392 23.0595H17.2392ZM23.0597 17.239C19.8451 17.239 17.2392 19.8449 17.2392 23.0595H21.2392C21.2392 22.0541 22.0543 21.239 23.0597 21.239V17.239ZM26.0428 18.0609C25.1689 17.5386 24.1463 17.239 23.0597 17.239V21.239C23.4038 21.239 23.72 21.3325 23.9909 21.4944L26.0428 18.0609ZM23.9774 18.7567C24.1966 18.2683 24.6195 17.9935 25.0028 17.9027C25.3648 17.817 25.7348 17.8768 26.0428 18.0609L23.9908 21.4944C25.0372 22.1197 26.8894 22.0374 27.6267 20.3947L23.9774 18.7567ZM24.2085 18.1985C24.1368 18.3873 24.0597 18.5734 23.9774 18.7567L27.6267 20.3947C27.741 20.1401 27.8481 19.8815 27.9477 19.6193L24.2085 18.1985ZM25.1596 20.1456C24.8165 20.0546 24.5171 19.8348 24.325 19.5188C24.1216 19.1845 24.0199 18.695 24.2085 18.1985L27.9477 19.6193C28.5815 17.9513 27.3538 16.5895 26.1857 16.2795L25.1596 20.1456ZM20.8348 14.5196C20.8348 17.2193 22.6711 19.4851 25.1596 20.1456L26.1857 16.2795C25.4065 16.0727 24.8348 15.3603 24.8348 14.5196H20.8348ZM25.1596 8.89352C22.6712 9.55398 20.8348 11.8198 20.8348 14.5196H24.8348C24.8348 13.6788 25.4066 12.9665 26.1857 12.7597L25.1596 8.89352ZM24.2086 10.8406C24.0199 10.3441 24.1217 9.85457 24.325 9.52027C24.5172 9.20436 24.8166 8.98456 25.1596 8.89352L26.1857 12.7597C27.3538 12.4497 28.5815 11.0879 27.9478 9.41987L24.2086 10.8406ZM23.9774 10.2823C24.0597 10.4656 24.1369 10.6518 24.2086 10.8406L27.9478 9.41986C27.8481 9.15757 27.741 8.89898 27.6267 8.64435L23.9774 10.2823ZM26.0429 10.9782C25.7348 11.1622 25.3648 11.222 25.0028 11.1363C24.6195 11.0455 24.1967 10.7707 23.9774 10.2823L27.6267 8.64435C26.8894 7.0016 25.0372 6.9193 23.9909 7.5446L26.0429 10.9782ZM17.4977 14.3288C17.4977 16.079 16.0789 17.4978 14.3288 17.4978V21.4978C18.2881 21.4978 21.4977 18.2881 21.4977 14.3288H17.4977ZM14.3288 11.1598C16.0789 11.1598 17.4977 12.5786 17.4977 14.3288H21.4977C21.4977 10.3695 18.2881 7.15982 14.3288 7.15982V11.1598ZM11.1598 14.3288C11.1598 12.5786 12.5786 11.1598 14.3288 11.1598V7.15982C10.3695 7.15982 7.1598 10.3695 7.1598 14.3288H11.1598ZM14.3288 17.4978C12.5786 17.4978 11.1598 16.079 11.1598 14.3288H7.1598C7.1598 18.2881 10.3695 21.4978 14.3288 21.4978V17.4978Z" fill="#26265C" mask="url(#path-1-outside-1_127_310)"/>
</svg>
