<svg width="11" height="11" viewBox="0 0 11 11" fill="none" xmlns="http://www.w3.org/2000/svg">
<path d="M1.16772 5.71345C1.16238 5.71044 1.16119 5.70851 1.15998 5.70624C1.15782 5.7022 1.15511 5.69404 1.15538 5.68299C1.15564 5.67195 1.15871 5.66459 1.1605 5.66162C1.16124 5.66038 1.16173 5.6599 1.16195 5.6597C1.16206 5.6596 1.16319 5.6585 1.16657 5.65684C2.36917 5.06586 3.22287 4.54711 3.91407 3.86396C4.60759 3.17852 5.10807 2.35688 5.65493 1.21002C5.65742 1.20482 5.659 1.2037 5.66139 1.20224C5.66568 1.19964 5.67495 1.19589 5.68826 1.19551C5.70156 1.19513 5.71152 1.19833 5.71668 1.20106C5.71993 1.20278 5.72211 1.20439 5.72515 1.20985C6.16322 1.99721 6.85914 3.1358 7.59645 3.85886C8.2983 4.54714 9.3858 5.2003 10.1397 5.61366C10.1443 5.61617 10.1468 5.61859 10.1498 5.62391C10.1536 5.63097 10.1578 5.64354 10.1578 5.65994C10.1579 5.67634 10.1538 5.68887 10.15 5.69586C10.1471 5.70109 10.1447 5.70346 10.1401 5.70596C9.36469 6.13511 8.23145 6.81983 7.52564 7.52564C6.82186 8.22942 6.13913 9.35806 5.70987 10.1331C5.7074 10.1375 5.70504 10.14 5.69966 10.143C5.69249 10.1468 5.67961 10.151 5.66272 10.1509C5.64583 10.1509 5.63278 10.1465 5.62535 10.1424C5.61966 10.1393 5.6171 10.1365 5.61455 10.1319C5.20315 9.37649 4.55161 8.28918 3.85542 7.59299C3.14111 6.87868 1.96288 6.16047 1.16772 5.71345Z" fill="#FEFEFE" stroke="#FDE45F"/>
</svg>
