<svg width="88" height="36" viewBox="0 0 88 36" fill="none" xmlns="http://www.w3.org/2000/svg">
<g filter="url(#filter0_d_1170_1048)">
<g filter="url(#filter1_b_1170_1048)">
<rect x="4" y="4" width="80" height="27.3143" rx="13.6572" fill="white" fill-opacity="0.46"/>
<circle cx="15.6572" cy="17.6572" r="2.65715" fill="#1DD185"/>
</g>
<path d="M31.9014 16.3809H30.6416V13.0117H29.3916V21.8789H30.6416V17.3965H31.9014V16.3809ZM23.9131 19.7109H24.6846C25.9932 19.7109 27.4336 19.6328 28.9229 19.3301L28.7959 18.2949C27.5117 18.5537 26.291 18.6611 25.1533 18.6807V13.8613H23.9131V19.7109ZM35.7033 13.6074C34.302 13.6025 33.2277 14.5107 33.2326 15.7852C33.2277 17.0645 34.302 17.9678 35.7033 17.9727C37.1145 17.9678 38.1594 17.0645 38.1643 15.7852C38.1594 14.5107 37.1145 13.6025 35.7033 13.6074ZM32.8615 19.0859L33.008 20.1016C34.5607 20.1016 36.6701 20.0869 38.6428 19.7012L38.5451 18.8027C36.6457 19.0713 34.4484 19.0908 32.8615 19.0859ZM34.4729 15.7852C34.468 15.0918 35.0002 14.6816 35.7033 14.6816C36.4113 14.6816 36.9484 15.0918 36.9533 15.7852C36.9484 16.4883 36.4113 16.8936 35.7033 16.8887C35.0002 16.8936 34.468 16.4883 34.4729 15.7852ZM39.0529 21.918H40.2932V13.0117H39.0529V21.918ZM47.3209 13.6367C45.9732 13.6367 45.0064 14.8623 45.0162 16.8008C45.0064 18.7539 45.9732 19.9746 47.3209 19.9746C48.1803 19.9746 48.8883 19.4668 49.2838 18.5879H51.1393V21.918H52.3697V13.0117H51.1393V14.8379H49.191C48.7857 14.0713 48.1217 13.6367 47.3209 13.6367ZM46.2076 16.8008C46.2027 15.4824 46.6568 14.7598 47.3209 14.7598C47.9898 14.7598 48.4342 15.4824 48.4342 16.8008C48.4342 18.124 47.9898 18.8467 47.3209 18.8418C46.6568 18.8467 46.2027 18.124 46.2076 16.8008ZM49.5377 15.8438H51.1393V17.5918H49.567C49.6061 17.3428 49.6256 17.0791 49.6256 16.8008C49.6256 16.459 49.5963 16.1367 49.5377 15.8438ZM61.699 13.0117H60.5174V15.209H59.8045V13.1777H58.6424V18.2949H59.8045V16.2246H60.5174V18.5879H61.699V13.0117ZM54.0135 14.8965H58.3787V13.9297H56.826V13.0898H55.5857V13.9297H54.0135V14.8965ZM54.2869 16.7422C54.282 17.665 55.0975 18.2803 56.2107 18.2852C57.3387 18.2803 58.1492 17.665 58.1541 16.7422C58.1492 15.8096 57.3387 15.1895 56.2107 15.1895C55.0975 15.1895 54.282 15.8096 54.2869 16.7422ZM55.4002 16.7422C55.3953 16.3271 55.7273 16.083 56.2107 16.0879C56.6941 16.083 57.0262 16.3271 57.0311 16.7422C57.0262 17.1523 56.6941 17.4014 56.2107 17.3965C55.7225 17.4014 55.3953 17.1523 55.4002 16.7422ZM55.5857 20.2871C55.5809 21.3125 56.7479 21.9033 58.6619 21.8984C60.5809 21.9033 61.7381 21.3125 61.7479 20.2871C61.7381 19.2568 60.5809 18.6709 58.6619 18.666C56.7479 18.6709 55.5809 19.2568 55.5857 20.2871ZM56.8357 20.2871C56.826 19.8184 57.4559 19.5986 58.6619 19.6035C59.8729 19.5986 60.4881 19.8184 60.4881 20.2871C60.4881 20.7363 59.8729 20.9609 58.6619 20.9609C57.4559 20.9609 56.826 20.7363 56.8357 20.2871ZM66.7021 15.4336V14.8867H68.5576V13.8711H63.5381V14.8867H65.4229V15.4336C65.4229 16.9375 64.6611 18.583 63.1865 19.2422L63.8994 20.2285C64.9492 19.7451 65.6865 18.7686 66.0869 17.6016C66.4873 18.6758 67.21 19.5596 68.2549 20.0039L68.9287 19.0273C67.4395 18.4072 66.6973 16.8691 66.7021 15.4336ZM69.4365 21.8984H70.6963V13.0117H69.4365V21.8984Z" fill="#FEFEFE"/>
</g>
<defs>
<filter id="filter0_d_1170_1048" x="0" y="0" width="88" height="35.3143" filterUnits="userSpaceOnUse" color-interpolation-filters="sRGB">
<feFlood flood-opacity="0" result="BackgroundImageFix"/>
<feColorMatrix in="SourceAlpha" type="matrix" values="0 0 0 0 0 0 0 0 0 0 0 0 0 0 0 0 0 0 127 0" result="hardAlpha"/>
<feOffset/>
<feGaussianBlur stdDeviation="2"/>
<feComposite in2="hardAlpha" operator="out"/>
<feColorMatrix type="matrix" values="0 0 0 0 0 0 0 0 0 0 0 0 0 0 0 0 0 0 0.25 0"/>
<feBlend mode="normal" in2="BackgroundImageFix" result="effect1_dropShadow_1170_1048"/>
<feBlend mode="normal" in="SourceGraphic" in2="effect1_dropShadow_1170_1048" result="shape"/>
</filter>
<filter id="filter1_b_1170_1048" x="0" y="0" width="88" height="35.3143" filterUnits="userSpaceOnUse" color-interpolation-filters="sRGB">
<feFlood flood-opacity="0" result="BackgroundImageFix"/>
<feGaussianBlur in="BackgroundImage" stdDeviation="2"/>
<feComposite in2="SourceAlpha" operator="in" result="effect1_backgroundBlur_1170_1048"/>
<feBlend mode="normal" in="SourceGraphic" in2="effect1_backgroundBlur_1170_1048" result="shape"/>
</filter>
</defs>
</svg>
