<svg width="83" height="30" viewBox="0 0 83 30" fill="none" xmlns="http://www.w3.org/2000/svg">
<rect x="0.75" y="0.75" width="81.5" height="28.5" rx="14.25" fill="#FEFEFE" stroke="#FEFEFE" stroke-width="1.5"/>
<path d="M17.628 9.388L15.936 9.292C15.96 9.568 15.96 9.808 15.912 10.36C15.792 12.04 15.216 15.688 15.216 16.912C15.216 18.928 16.548 19.744 18.444 19.744C21.072 19.744 22.692 18.436 22.692 16.624C22.692 15.604 22.332 14.764 21.528 13.756L19.848 14.116C20.628 14.848 21.084 15.628 21.084 16.432C21.084 17.416 20.16 18.196 18.48 18.196C17.304 18.196 16.704 17.656 16.704 16.66C16.704 15.448 17.268 11.488 17.412 10.456C17.472 10.144 17.52 9.832 17.628 9.388ZM13.344 10.876L13.272 12.256C14.376 12.568 15.84 12.76 17.052 12.76C18.06 12.76 18.72 12.724 19.428 12.652L19.476 11.212C18.876 11.32 18.024 11.38 17.1 11.38C15.876 11.38 14.388 11.224 13.344 10.876ZM13.08 13.852L13.008 15.304C14.1 15.616 15.624 15.784 17.22 15.784C17.976 15.784 18.684 15.748 19.344 15.676L19.38 14.248C18.6 14.344 17.712 14.392 16.98 14.392C15.768 14.392 14.376 14.296 13.08 13.852ZM25.704 13.924L26.328 15.484C27.36 15.052 29.748 14.056 31.14 14.056C32.196 14.056 32.868 14.692 32.868 15.58C32.868 17.212 30.84 17.944 28.104 18.016L28.74 19.492C32.544 19.264 34.464 17.776 34.464 15.616C34.464 13.792 33.192 12.664 31.284 12.664C29.832 12.664 27.804 13.36 26.976 13.6C26.616 13.72 26.064 13.864 25.704 13.924ZM45.996 12.004L45.156 10.624C44.844 10.876 44.508 11.08 44.052 11.344C43.32 11.764 41.808 12.508 40.668 13.264C39.24 14.2 38.124 15.268 38.124 16.792C38.124 18.856 39.936 19.528 42.336 19.528C43.896 19.528 45.156 19.396 46.188 19.228L46.2 17.5C45.132 17.752 43.512 17.944 42.288 17.944C40.62 17.944 39.78 17.476 39.78 16.612C39.78 15.784 40.452 15.088 41.448 14.44C42.552 13.732 44.052 13.024 44.796 12.652C45.24 12.436 45.624 12.22 45.996 12.004ZM39.96 9.436L38.448 10.06C39.108 11.608 39.828 13.18 40.488 14.272L41.856 13.48C41.292 12.472 40.536 11.032 39.96 9.436ZM51.48 12.352H56.52V13.096H51.48V12.352ZM51.48 14.272H56.52V15.016H51.48V14.272ZM51.48 10.444H56.52V11.188H51.48V10.444ZM50.088 9.184V16.276H57.984V9.184H50.088ZM54.552 15.304V18.184C54.552 19.552 54.9 19.984 56.34 19.984C56.616 19.984 57.624 19.984 57.924 19.984C59.124 19.984 59.508 19.492 59.664 17.584C59.268 17.488 58.632 17.248 58.344 17.008C58.284 18.424 58.212 18.628 57.792 18.628C57.54 18.628 56.736 18.628 56.532 18.628C56.1 18.628 56.016 18.568 56.016 18.184V15.304H54.552ZM51.612 15.796C51.456 17.404 51.132 18.328 48.348 18.844C48.648 19.156 49.032 19.744 49.152 20.128C52.392 19.396 52.956 17.98 53.16 15.796H51.612ZM62.64 9.868L62.688 11.428C62.964 11.38 63.336 11.356 63.66 11.332C64.308 11.284 65.964 11.224 66.576 11.2C65.988 11.728 64.728 12.736 64.056 13.288C63.36 13.876 61.908 15.1 61.056 15.772L62.148 16.9C63.432 15.448 64.62 14.464 66.468 14.464C67.872 14.464 68.952 15.196 68.952 16.288C68.952 17.572 67.92 18.34 65.892 18.34C65.16 18.34 64.668 18.04 64.668 17.596C64.668 17.284 64.968 17.008 65.412 17.008C66.12 17.008 66.576 17.608 66.6 18.472L68.004 18.292C67.968 16.972 67.056 15.868 65.412 15.868C64.14 15.868 63.252 16.756 63.252 17.728C63.252 18.94 64.512 19.696 66.18 19.696C69.084 19.696 70.524 18.196 70.524 16.3C70.524 14.56 68.976 13.288 66.936 13.288C66.564 13.288 66.204 13.312 65.796 13.42C66.564 12.82 67.824 11.764 68.472 11.308C68.736 11.104 69.024 10.936 69.3 10.756L68.532 9.676C68.388 9.724 68.112 9.772 67.608 9.808C66.924 9.868 64.368 9.928 63.72 9.928C63.384 9.928 62.976 9.904 62.64 9.868Z" fill="#7070FF"/>
</svg>
