<svg width="32" height="31" viewBox="0 0 32 31" fill="none" xmlns="http://www.w3.org/2000/svg">
<path d="M13.7018 5.33144C13.7054 5.32496 13.7077 5.32272 13.708 5.32245L13.708 5.32244C13.7084 5.32204 13.7093 5.32121 13.7116 5.31998C13.7172 5.31696 13.731 5.31199 13.7511 5.31251C13.7711 5.31303 13.7843 5.31869 13.7893 5.32174C13.7913 5.32296 13.792 5.32368 13.7922 5.3239C13.7922 5.3239 13.7943 5.32603 13.7975 5.33275C15.3272 8.49266 16.6235 10.6692 18.3476 12.4092C20.0765 14.1541 22.1737 15.3981 25.1908 16.8086C25.1977 16.8119 25.1999 16.814 25.1999 16.814C25.2002 16.8143 25.2011 16.8151 25.2027 16.8177C25.2065 16.8239 25.2133 16.8397 25.2139 16.8635C25.2146 16.8874 25.2087 16.9047 25.2043 16.913C25.2024 16.9165 25.2009 16.9182 25.1999 16.9192C25.1992 16.92 25.1965 16.9226 25.1894 16.9265C23.2576 17.9785 20.2158 19.7851 18.3476 21.6901C16.5683 23.5045 14.8712 26.41 13.8774 28.2607C13.8725 28.2698 13.8685 28.2737 13.86 28.2784C13.848 28.2851 13.8257 28.2928 13.7961 28.2929C13.7665 28.293 13.7447 28.2855 13.7335 28.2793C13.7258 28.2751 13.7223 28.2719 13.7177 28.2632C12.6871 26.3638 10.9082 23.3394 9.08763 21.5188C7.27153 19.7027 4.25759 17.9281 2.35776 16.8967C2.34928 16.8921 2.34594 16.8886 2.34161 16.8807C2.33525 16.8691 2.32759 16.8465 2.32777 16.816C2.32796 16.7854 2.33591 16.7622 2.34298 16.7496C2.34805 16.7406 2.35235 16.7363 2.36154 16.7314C4.21737 15.7427 7.12396 14.0513 8.92331 12.252C10.7621 10.4132 12.6291 7.27405 13.7018 5.33144Z" stroke="#26265C" stroke-width="2"/>
<line x1="1" y1="-1" x2="11.0597" y2="-1" transform="matrix(1 0 -0.062439 0.998049 18 6.77075)" stroke="#26265C" stroke-width="2" stroke-linecap="round"/>
<line x1="1" y1="-1" x2="11.0597" y2="-1" transform="matrix(0 -1 0.998049 -0.062439 25.0308 12.3198)" stroke="#26265C" stroke-width="2" stroke-linecap="round"/>
</svg>
