<svg width="18" height="15" viewBox="0 0 18 15" fill="none" xmlns="http://www.w3.org/2000/svg">
<path d="M9.05951 0.5V3.5V5.46885V8.06231V9V10.4377L7.75328 11.3867C6.54378 12.2655 5.93903 12.7049 5.54622 12.6552C5.20658 12.6123 4.91249 12.3987 4.76673 12.0889C4.59815 11.7307 4.82914 11.0197 5.29113 9.59787L5.43084 9.16788C5.55995 8.77054 5.6245 8.57187 5.61252 8.38148C5.60195 8.21337 5.54908 8.05066 5.45882 7.90844C5.35661 7.74738 5.18761 7.6246 4.84961 7.37902L4.48384 7.11328C3.27434 6.23452 2.66959 5.79514 2.5954 5.40623C2.53125 5.06995 2.64358 4.72423 2.89314 4.48988C3.18176 4.21885 3.92927 4.21885 5.4243 4.21885H5.87641C6.2942 4.21885 6.5031 4.21885 6.68046 4.14862C6.83708 4.08662 6.97549 3.98606 7.08285 3.85627C7.20445 3.70929 7.269 3.51062 7.3981 3.11327L7.99619 1.27254C8.0215 1.19465 8.03416 1.1557 8.04821 1.12136C8.19178 0.770405 8.52151 0.530845 8.89966 0.502749C8.93665 0.5 8.9776 0.5 9.05951 0.5Z" fill="#FEFEFE"/>
<path d="M9.05963 0.5V3.5V5.46885V8.06231V9V10.4377L10.3659 11.3867C11.5754 12.2655 12.1801 12.7049 12.5729 12.6552C12.9126 12.6123 13.2067 12.3987 13.3524 12.0889C13.521 11.7307 13.29 11.0197 12.828 9.59787L12.6883 9.16788C12.5592 8.77054 12.4946 8.57187 12.5066 8.38148C12.5172 8.21337 12.5701 8.05066 12.6603 7.90844C12.7625 7.74738 12.9315 7.6246 13.2695 7.37902L13.6353 7.11328C14.8448 6.23452 15.4496 5.79514 15.5237 5.40623C15.5879 5.06995 15.4756 4.72423 15.226 4.48988C14.9374 4.21885 14.1899 4.21885 12.6948 4.21885H12.2427C11.8249 4.21885 11.616 4.21885 11.4387 4.14862C11.2821 4.08662 11.1437 3.98606 11.0363 3.85627C10.9147 3.70929 10.8501 3.51062 10.721 3.11327L10.1229 1.27254C10.0976 1.19465 10.085 1.1557 10.0709 1.12136C9.92736 0.770405 9.59763 0.530845 9.21948 0.502749C9.18249 0.5 9.14154 0.5 9.05963 0.5Z" fill="#D9D9D9"/>
</svg>
