<svg width="33" height="33" viewBox="0 0 33 33" fill="none" xmlns="http://www.w3.org/2000/svg">
<path d="M20.6191 1.84349C21.0332 1.1119 22.1338 1.13909 22.5064 1.89261C24.6414 6.21032 26.1336 7.73147 30.225 9.69801C30.9964 10.0688 31.0274 11.202 30.2809 11.6206C28.8209 12.4395 26.8663 13.6564 25.6471 14.8998C24.4868 16.0828 23.3454 17.9496 22.5732 19.3469C22.1658 20.0841 21.0408 20.0881 20.6306 19.3524C19.8266 17.9101 18.629 15.9629 17.4396 14.7735C16.254 13.5879 14.3156 12.3943 12.8747 11.5903C12.1368 11.1785 12.1438 10.0467 12.8845 9.63993C14.2837 8.87155 16.1443 7.73494 17.3133 6.56599C18.5206 5.35865 19.7793 3.32759 20.6191 1.84349Z" fill="#FDC15F"/>
<path d="M0.922702 27.1492C0.556322 26.9432 0.568825 26.3933 0.946045 26.208C3.32056 25.0411 4.12982 24.2466 5.20362 21.9947C5.38779 21.6084 5.95403 21.5927 6.16208 21.9666C6.59866 22.7513 7.26518 23.8336 7.94654 24.5017C8.59512 25.1378 9.62893 25.7633 10.3801 26.1751C10.7494 26.3776 10.7507 26.9394 10.3822 27.1433C9.60774 27.5719 8.53046 28.2278 7.87919 28.8791C7.22985 29.5284 6.57596 30.6012 6.14726 31.3752C5.94253 31.7448 5.37756 31.742 5.17546 31.3709C4.76563 30.6184 4.14286 29.5874 3.50186 28.9464C2.84138 28.2859 1.71869 27.5967 0.922702 27.1492Z" fill="#FFF48E"/>
</svg>
