<svg width="33" height="33" viewBox="0 0 33 33" fill="none" xmlns="http://www.w3.org/2000/svg">
<path d="M9.61939 12.8435C10.0334 12.1119 11.1341 12.1391 11.5067 12.8926C13.6417 17.2103 15.1339 18.7315 19.2253 20.698C19.9966 21.0688 20.0276 22.202 19.2812 22.6206C17.8211 23.4395 15.8666 24.6564 14.6473 25.8998C13.4871 27.0828 12.3456 28.9496 11.5735 30.3469C11.1661 31.0841 10.041 31.0881 9.63087 30.3524C8.8268 28.9101 7.62922 26.9629 6.43981 25.7735C5.25427 24.5879 3.31586 23.3943 1.87499 22.5903C1.13702 22.1785 1.14405 21.0467 1.88478 20.6399C3.28393 19.8715 5.14459 18.7349 6.31354 17.566C7.52088 16.3586 8.77955 14.3276 9.61939 12.8435Z" fill="#FFF48E"/>
<path d="M21.9227 6.1493C21.5563 5.94333 21.5688 5.39347 21.946 5.2081C24.3206 4.04122 25.1298 3.24671 26.2036 0.994818C26.3878 0.608568 26.954 0.59282 27.1621 0.966755C27.5987 1.75145 28.2652 2.83368 28.9465 3.50187C29.5951 4.13791 30.6289 4.76338 31.3801 5.17523C31.7494 5.37772 31.7507 5.9395 31.3822 6.14344C30.6077 6.57206 29.5305 7.22792 28.8792 7.8792C28.2299 8.52853 27.576 9.60134 27.1473 10.3753C26.9425 10.745 26.3776 10.7421 26.1755 10.371C25.7656 9.61853 25.1429 8.58754 24.5019 7.94654C23.8414 7.28606 22.7187 6.59678 21.9227 6.1493Z" fill="#FEFEFE"/>
</svg>
