<svg width="46" height="46" viewBox="0 0 46 46" fill="none" xmlns="http://www.w3.org/2000/svg">
<g filter="url(#filter0_d_632_211)">
<path d="M12.9684 24.7863C11.5257 23.9231 11.5807 21.7177 13.069 20.9357C17.4559 18.6307 19.4384 16.7007 21.5845 12.5776C22.3748 11.0593 24.6471 10.993 25.5273 12.461C26.5524 14.1706 27.8498 16.0861 29.1696 17.3803C30.4221 18.6087 32.2495 19.8213 33.8818 20.7841C35.3328 21.64 35.3393 23.9085 33.8903 24.7678C32.189 25.7767 30.2712 27.0536 29.0012 28.3236C27.7381 29.5867 26.468 31.4908 25.4617 33.1852C24.5986 34.6384 22.3161 34.626 21.4589 33.1693C20.5009 31.5411 19.2929 29.727 18.0579 28.492C16.7571 27.1912 14.7392 25.8457 12.9684 24.7863Z" fill="#7070FF"/>
<path d="M13.5341 21.8209C15.7719 20.6452 17.458 19.5334 18.867 18.1526C20.2794 16.7685 21.369 15.1575 22.4715 13.0393C22.8999 12.2163 24.1906 12.1763 24.6697 12.9753C25.7049 14.7017 27.0553 16.7075 28.4694 18.0943C29.8116 19.4105 31.7249 20.6728 33.3737 21.6454C34.1725 22.1165 34.1724 23.4379 33.3802 23.9077C31.6653 24.9247 29.6569 26.2537 28.2941 27.6165C26.9384 28.9721 25.6165 30.9663 24.6019 32.6746C24.38 33.0482 23.9537 33.2707 23.4626 33.2685C22.9712 33.2663 22.5427 33.0393 22.3208 32.6622C21.3525 31.0165 20.0927 29.1126 18.765 27.7849C17.3715 26.3913 15.2628 24.9936 13.4818 23.9282C12.7043 23.463 12.7417 22.2373 13.5341 21.8209Z" stroke="#FEFEFE" stroke-width="2"/>
</g>
<defs>
<filter id="filter0_d_632_211" x="0.918701" y="0.398438" width="45.0549" height="44.8701" filterUnits="userSpaceOnUse" color-interpolation-filters="sRGB">
<feFlood flood-opacity="0" result="BackgroundImageFix"/>
<feColorMatrix in="SourceAlpha" type="matrix" values="0 0 0 0 0 0 0 0 0 0 0 0 0 0 0 0 0 0 127 0" result="hardAlpha"/>
<feOffset/>
<feGaussianBlur stdDeviation="5.5"/>
<feComposite in2="hardAlpha" operator="out"/>
<feColorMatrix type="matrix" values="0 0 0 0 0.4375 0 0 0 0 0.4375 0 0 0 0 1 0 0 0 1 0"/>
<feBlend mode="normal" in2="BackgroundImageFix" result="effect1_dropShadow_632_211"/>
<feBlend mode="normal" in="SourceGraphic" in2="effect1_dropShadow_632_211" result="shape"/>
</filter>
</defs>
</svg>
