<svg width="36" height="36" viewBox="0 0 36 36" fill="none" xmlns="http://www.w3.org/2000/svg">
<g filter="url(#filter0_d_615_189)">
<path d="M11.9243 18.5591C11.5562 18.3562 11.5703 17.807 11.9487 17.6241C15.1868 16.059 16.1836 15.0772 17.621 11.9965C17.8019 11.6087 18.3668 11.5932 18.5711 11.9692C19.1082 12.9579 20.0098 14.4718 20.9332 15.3773C21.8127 16.2398 23.259 17.0868 24.206 17.5942C24.5773 17.7931 24.5793 18.3522 24.209 18.5527C23.2353 19.0799 21.7302 19.9678 20.849 20.849C19.9699 21.728 19.0842 23.2279 18.5566 24.2018C18.3553 24.5734 17.7929 24.5698 17.5946 24.1967C17.0899 23.2469 16.247 21.8029 15.3773 20.9331C14.4861 20.0419 12.9216 19.1087 11.9243 18.5591Z" fill="#FEFEFE"/>
<path d="M15.9077 20.4028C15.0461 19.5413 13.6561 18.6779 12.6594 18.1111C14.0957 17.3973 15.1376 16.7542 15.988 15.9113C16.8382 15.0688 17.4579 14.0657 18.1178 12.6992C18.6727 13.6847 19.5152 15.0373 20.408 15.9128C21.2661 16.7542 22.5752 17.552 23.5209 18.0751C22.547 18.6187 21.1824 19.4549 20.3187 20.3186C19.4567 21.1806 18.6221 22.5414 18.0786 23.5147C17.5576 22.5666 16.7602 21.2553 15.9077 20.4028Z" stroke="#7070FF" stroke-width="1.5"/>
</g>
<defs>
<filter id="filter0_d_615_189" x="0.65625" y="0.696228" width="34.8293" height="34.7823" filterUnits="userSpaceOnUse" color-interpolation-filters="sRGB">
<feFlood flood-opacity="0" result="BackgroundImageFix"/>
<feColorMatrix in="SourceAlpha" type="matrix" values="0 0 0 0 0 0 0 0 0 0 0 0 0 0 0 0 0 0 127 0" result="hardAlpha"/>
<feOffset/>
<feGaussianBlur stdDeviation="5.5"/>
<feComposite in2="hardAlpha" operator="out"/>
<feColorMatrix type="matrix" values="0 0 0 0 0.4375 0 0 0 0 0.4375 0 0 0 0 1 0 0 0 1 0"/>
<feBlend mode="normal" in2="BackgroundImageFix" result="effect1_dropShadow_615_189"/>
<feBlend mode="normal" in="SourceGraphic" in2="effect1_dropShadow_615_189" result="shape"/>
</filter>
</defs>
</svg>
