<svg width="97" height="36" viewBox="0 0 97 36" fill="none" xmlns="http://www.w3.org/2000/svg">
<g filter="url(#filter0_f_649_215)">
<rect x="4" y="4" width="88.8955" height="28" rx="8" fill="#FEFEFE" fill-opacity="0.3"/>
</g>
<mask id="path-2-inside-1_649_215" fill="white">
<path d="M4 12C4 7.58172 7.58172 4 12 4H84.8955C89.3138 4 92.8955 7.58172 92.8955 12V24C92.8955 28.4183 89.3138 32 84.8955 32H12C7.58172 32 4 28.4183 4 24V12Z"/>
</mask>
<path d="M4 12C4 7.58172 7.58172 4 12 4H84.8955C89.3138 4 92.8955 7.58172 92.8955 12V24C92.8955 28.4183 89.3138 32 84.8955 32H12C7.58172 32 4 28.4183 4 24V12Z" fill="#FEFEFE" fill-opacity="0.82"/>
<path d="M4 12C4 7.02944 8.02944 3 13 3H83.8955C88.8661 3 92.8955 7.02944 92.8955 12C92.8955 8.13401 89.3138 5 84.8955 5H12C7.58172 5 4 8.13401 4 12ZM92.8955 24C92.8955 28.9706 88.8661 33 83.8955 33H13C8.02944 33 4 28.9706 4 24C4 27.866 7.58172 31 12 31H84.8955C89.3138 31 92.8955 27.866 92.8955 24ZM4 32V4V32ZM92.8955 4V32V4Z" fill="#FEFEFE" mask="url(#path-2-inside-1_649_215)"/>
<rect x="4.5" y="4.5" width="88" height="27" rx="7.5" stroke="#FEFEFE"/>
<path d="M25.8319 13.63V22.89H27.1019V13.63H25.8319ZM24.6219 17.2V18.26H26.1619V17.2H24.6219ZM23.7619 13.79V22.45H25.0019V13.79H23.7619ZM19.5319 14.65V20H20.8619V14.65H19.5319ZM19.5319 19.5V20.64H20.1719C21.1119 20.64 22.1719 20.59 23.3819 20.37L23.2519 19.23C22.1019 19.45 21.0619 19.5 20.1719 19.5H19.5319ZM37.0716 13.64V20.69H38.4016V13.64H37.0716ZM35.8616 15.93V16.99H37.5716V15.93H35.8616ZM35.8616 17.92V18.97H37.5716V17.92H35.8616ZM30.6816 14.6V15.64H35.7616V14.6H30.6816ZM33.2816 15.97C32.0216 15.97 31.1116 16.72 31.1116 17.79C31.1116 18.86 32.0216 19.61 33.2816 19.61C34.5416 19.61 35.4516 18.86 35.4516 17.79C35.4516 16.72 34.5416 15.97 33.2816 15.97ZM33.2816 16.99C33.8216 16.99 34.2016 17.28 34.2016 17.79C34.2016 18.31 33.8216 18.59 33.2816 18.59C32.7416 18.59 32.3616 18.31 32.3616 17.79C32.3616 17.28 32.7416 16.99 33.2816 16.99ZM32.6216 13.61V15.24H33.9516V13.61H32.6216ZM32.2716 21.67V22.73H38.6016V21.67H32.2716ZM32.2716 20.11V22.16H33.6116V20.11H32.2716ZM46.5108 13.63V22.89H47.7708V13.63H46.5108ZM45.4008 17.18V18.26H46.9408V17.18H45.4008ZM44.5208 13.77V22.47H45.7608V13.77H44.5208ZM41.4008 15.07V15.89C41.4008 17.67 40.9608 19.31 39.5708 20.11L40.3708 21.13C41.9108 20.2 42.4108 18.18 42.4108 15.89V15.07H41.4008ZM41.6708 15.07V15.89C41.6708 18.04 42.2208 19.95 43.7808 20.79L44.5408 19.78C43.1608 19.06 42.6908 17.52 42.6908 15.89V15.07H41.6708ZM39.8708 14.57V15.64H44.0808V14.57H39.8708ZM54.2305 14C52.8305 14 51.8105 14.81 51.8105 15.98C51.8105 17.13 52.8305 17.96 54.2305 17.96C55.6405 17.96 56.6605 17.13 56.6605 15.98C56.6605 14.81 55.6405 14 54.2305 14ZM54.2305 15.08C54.9105 15.08 55.3905 15.4 55.3905 15.98C55.3905 16.55 54.9105 16.87 54.2305 16.87C53.5605 16.87 53.0805 16.55 53.0805 15.98C53.0805 15.4 53.5605 15.08 54.2305 15.08ZM53.6105 18.88V22.61H54.9405V18.88H53.6105ZM57.6605 13.63V22.89H58.9805V13.63H57.6605ZM51.4205 19.58C53.0205 19.57 55.2105 19.55 57.2205 19.15L57.1305 18.18C55.1705 18.48 52.8805 18.5 51.2605 18.5L51.4205 19.58ZM66.6897 13.63V22.89H68.0297V13.63H66.6897ZM62.6097 16.03V16.51C62.6097 17.91 61.8897 19.48 60.3697 20.16L61.0797 21.18C62.7897 20.44 63.6597 18.47 63.6597 16.51V16.03H62.6097ZM62.8997 16.03V16.51C62.8997 18.41 63.7797 20.32 65.4897 21.03L66.1997 20.01C64.6697 19.36 63.9397 17.84 63.9397 16.51V16.03H62.8997ZM60.6797 15.14V16.19H65.8297V15.14H60.6797ZM62.6097 13.84V15.68H63.9397V13.84H62.6097ZM69.4389 20.79V21.87H77.8189V20.79H69.4389ZM72.9489 19.04V21.23H74.2789V19.04H72.9489ZM70.3789 14.23V15.28H75.5589V16.27H70.3989V18.87H71.7189V17.31H76.8789V14.23H70.3789ZM70.3989 18.34V19.41H77.0889V18.34H70.3989Z" fill="#7070FF"/>
<defs>
<filter id="filter0_f_649_215" x="0" y="0" width="96.8955" height="36" filterUnits="userSpaceOnUse" color-interpolation-filters="sRGB">
<feFlood flood-opacity="0" result="BackgroundImageFix"/>
<feBlend mode="normal" in="SourceGraphic" in2="BackgroundImageFix" result="shape"/>
<feGaussianBlur stdDeviation="2" result="effect1_foregroundBlur_649_215"/>
</filter>
</defs>
</svg>
