<svg width="40" height="40" viewBox="0 0 40 40" fill="none" xmlns="http://www.w3.org/2000/svg">
<g filter="url(#filter0_d_615_196)">
<path d="M13.9243 20.5591C13.5562 20.3562 13.5703 19.807 13.9487 19.6241C17.1868 18.059 18.1836 17.0772 19.621 13.9965C19.8019 13.6087 20.3668 13.5932 20.5711 13.9692C21.1082 14.9579 22.0098 16.4718 22.9332 17.3773C23.8127 18.2398 25.259 19.0868 26.206 19.5942C26.5773 19.7931 26.5793 20.3522 26.209 20.5527C25.2353 21.0799 23.7302 21.9678 22.849 22.849C21.9699 23.728 21.0842 25.2279 20.5566 26.2018C20.3553 26.5734 19.7929 26.5698 19.5946 26.1967C19.0899 25.2469 18.247 23.8029 17.3773 22.9331C16.4861 22.0419 14.9216 21.1087 13.9243 20.5591Z" fill="#7070FF"/>
<path d="M18.7148 13.5737C18.0125 15.0789 17.4637 15.9671 16.7562 16.6683C16.0437 17.3744 15.1077 17.9532 13.5135 18.7237C12.4019 19.261 12.3647 20.8414 13.4416 21.4349C14.4452 21.988 15.8915 22.8615 16.6702 23.6403C17.4238 24.3939 18.2074 25.7172 18.7116 26.666C19.2819 27.7391 20.8523 27.7555 21.4359 26.6782C21.9649 25.7015 22.7912 24.3209 23.5561 23.5561C24.3229 22.7892 25.7084 21.9608 26.685 21.4321C27.7584 20.8511 27.7488 19.2862 26.6783 18.7127C25.7321 18.2058 24.4009 17.416 23.6333 16.6633C22.8276 15.8731 21.9866 14.48 21.4498 13.4918C20.8569 12.4006 19.2457 12.4358 18.7148 13.5737Z" stroke="#FEFEFE" stroke-width="2"/>
</g>
<defs>
<filter id="filter0_d_615_196" x="0.656494" y="0.696289" width="38.8291" height="38.7822" filterUnits="userSpaceOnUse" color-interpolation-filters="sRGB">
<feFlood flood-opacity="0" result="BackgroundImageFix"/>
<feColorMatrix in="SourceAlpha" type="matrix" values="0 0 0 0 0 0 0 0 0 0 0 0 0 0 0 0 0 0 127 0" result="hardAlpha"/>
<feOffset/>
<feGaussianBlur stdDeviation="5.5"/>
<feComposite in2="hardAlpha" operator="out"/>
<feColorMatrix type="matrix" values="0 0 0 0 0.4375 0 0 0 0 0.4375 0 0 0 0 1 0 0 0 1 0"/>
<feBlend mode="normal" in2="BackgroundImageFix" result="effect1_dropShadow_615_196"/>
<feBlend mode="normal" in="SourceGraphic" in2="effect1_dropShadow_615_196" result="shape"/>
</filter>
</defs>
</svg>
