<svg width="33" height="33" viewBox="0 0 33 33" fill="none" xmlns="http://www.w3.org/2000/svg">
<path fill-rule="evenodd" clip-rule="evenodd" d="M12.3429 12.6999C14.0223 11.0205 15.6926 8.43197 16.8911 6.38109C18.2832 9.10356 19.5983 11.1619 21.2941 12.8722C22.9787 14.5712 24.9518 15.8393 27.5238 17.1264C26.5132 17.7139 25.378 18.4171 24.2827 19.1906C24.6709 19.8085 25.0644 20.3217 25.5071 20.7741C27.0902 19.6633 28.7953 18.6812 30.0608 17.9974C30.8138 17.5906 30.7817 16.4614 30.0056 16.1008C23.3397 13.0044 21.2656 10.9001 17.8929 3.89748C17.5281 3.14014 16.4293 3.11438 16.025 3.85134C14.8678 5.96024 12.8522 9.36218 10.9287 11.2857C9.04842 13.166 5.90268 14.987 3.89112 16.0501C3.14395 16.4449 3.1381 17.5681 3.882 17.9691C5.94333 19.0801 9.20824 20.9938 11.1072 22.8928C13.0105 24.7961 14.9286 28.0715 16.0385 30.132C16.438 30.8736 17.5551 30.8708 17.9512 30.1275C18.4312 29.2267 19.0648 28.0951 19.7862 26.9494C19.7094 26.8644 19.6324 26.7831 19.5555 26.7062C19.1938 26.3445 18.736 25.9817 18.2489 25.6392C17.788 26.3598 17.3638 27.0723 16.99 27.7279C15.8362 25.7187 14.209 23.1662 12.5215 21.4786C10.8378 19.795 8.29351 18.1716 6.28694 17.0185C8.23521 15.9135 10.6823 14.3605 12.3429 12.6999Z" fill="#26265C"/>
<path d="M23.0623 18.0436C23.7412 19.3589 24.3704 20.3304 25.1601 21.1346C25.9517 21.9406 26.8809 22.5545 28.1272 23.1881C28.5358 23.3958 28.5572 24.0342 28.1578 24.2695C27.1728 24.8496 25.9874 25.631 25.186 26.4482C24.4246 27.2246 23.6935 28.3557 23.1479 29.297C22.9171 29.6953 22.2638 29.6954 22.0334 29.3004C21.4638 28.3239 20.6951 27.1388 19.9089 26.3527C19.1264 25.5702 17.9488 24.805 16.9753 24.2364C16.5795 24.0053 16.5794 23.3453 16.9815 23.1131C17.922 22.5699 19.0486 21.8404 19.8168 21.0722C20.6186 20.2705 21.4264 19.0292 22.0222 18.0183C22.2511 17.6299 22.8588 17.6493 23.0623 18.0436Z" fill="#26265C" stroke="#FEFEFE"/>
</svg>
