<svg width="90" height="67" viewBox="0 0 90 67" fill="none" xmlns="http://www.w3.org/2000/svg">
<path fill-rule="evenodd" clip-rule="evenodd" d="M89.7992 25.3795C89.5451 25.4076 89.2868 25.422 89.0251 25.422C85.1772 25.422 82.0579 22.3027 82.0579 18.4549C82.0579 18.1932 82.0724 17.9349 82.1005 17.6808H23.1812C23.2092 17.9349 23.2237 18.1932 23.2237 18.4549C23.2237 22.3027 20.1044 25.422 16.2565 25.422C15.9949 25.422 15.7367 25.4076 15.4827 25.3796V53.3333C15.7367 53.3052 15.9949 53.2908 16.2565 53.2908C20.1044 53.2908 23.2237 56.4101 23.2237 60.258C23.2237 60.5197 23.2092 60.7779 23.1811 61.0321H82.1005C82.0724 60.7779 82.0579 60.5197 82.0579 60.258C82.0579 56.4101 85.1772 53.2908 89.0251 53.2908C89.2868 53.2908 89.5451 53.3052 89.7992 53.3333V25.3795Z" fill="url(#paint0_linear_633_308)"/>
<g filter="url(#filter0_d_633_308)">
<mask id="path-2-inside-1_633_308" fill="white">
<path fill-rule="evenodd" clip-rule="evenodd" d="M79.9948 8.06336C79.7366 8.16407 79.4702 8.25163 79.1962 8.32504C75.1662 9.40488 71.0239 7.01329 69.944 2.9833C69.8706 2.70919 69.8132 2.43457 69.7713 2.16043L8.06315 18.6951C8.16395 18.9535 8.25158 19.22 8.32504 19.4942C9.40487 23.5242 7.01329 27.6665 2.98329 28.7464C2.70925 28.8198 2.43469 28.8772 2.1606 28.9191L10.0053 58.1958C10.2635 58.0951 10.5299 58.0076 10.8039 57.9342C14.8339 56.8543 18.9762 59.2459 20.056 63.2759C20.1294 63.5499 20.1868 63.8244 20.2287 64.0984L81.9365 47.5639C81.8357 47.3056 81.7482 47.0391 81.6747 46.765C80.5949 42.735 82.9865 38.5927 87.0165 37.5128C87.2906 37.4394 87.5653 37.382 87.8395 37.3401L79.9948 8.06336Z"/>
</mask>
<path fill-rule="evenodd" clip-rule="evenodd" d="M79.9948 8.06336C79.7366 8.16407 79.4702 8.25163 79.1962 8.32504C75.1662 9.40488 71.0239 7.01329 69.944 2.9833C69.8706 2.70919 69.8132 2.43457 69.7713 2.16043L8.06315 18.6951C8.16395 18.9535 8.25158 19.22 8.32504 19.4942C9.40487 23.5242 7.01329 27.6665 2.98329 28.7464C2.70925 28.8198 2.43469 28.8772 2.1606 28.9191L10.0053 58.1958C10.2635 58.0951 10.5299 58.0076 10.8039 57.9342C14.8339 56.8543 18.9762 59.2459 20.056 63.2759C20.1294 63.5499 20.1868 63.8244 20.2287 64.0984L81.9365 47.5639C81.8357 47.3056 81.7482 47.0391 81.6747 46.765C80.5949 42.735 82.9865 38.5927 87.0165 37.5128C87.2906 37.4394 87.5653 37.382 87.8395 37.3401L79.9948 8.06336Z" fill="#FEFEFE"/>
<path d="M79.9948 8.06336L83.8585 7.02808L82.7025 2.71389L78.5414 4.33674L79.9948 8.06336ZM69.7713 2.16043L73.7254 1.55606L73.0505 -2.85934L68.736 -1.70328L69.7713 2.16043ZM8.06315 18.6951L7.02787 14.8314L2.71335 15.9874L4.33665 20.1488L8.06315 18.6951ZM2.1606 28.9191L1.55611 24.965L-2.85912 25.64L-1.7031 29.9544L2.1606 28.9191ZM10.0053 58.1958L6.14159 59.2311L7.29757 63.5453L11.4587 61.9225L10.0053 58.1958ZM20.2287 64.0984L16.2747 64.703L16.9497 69.1181L21.264 67.9621L20.2287 64.0984ZM81.9365 47.5639L82.9718 51.4276L87.2861 50.2716L85.6631 46.1104L81.9365 47.5639ZM87.8395 37.3401L88.4438 41.2942L92.8592 40.6193L91.7032 36.3048L87.8395 37.3401ZM80.2315 12.1887C80.6475 12.0773 81.0535 11.9439 81.4482 11.79L78.5414 4.33674C78.4196 4.38423 78.2928 4.426 78.1609 4.46134L80.2315 12.1887ZM66.0803 4.01857C67.7319 10.1824 74.0676 13.8403 80.2315 12.1887L78.1609 4.46134C76.2648 4.9694 74.3158 3.84416 73.8077 1.94802L66.0803 4.01857ZM65.8172 2.76479C65.8813 3.18384 65.9688 3.60232 66.0803 4.01857L73.8077 1.94802C73.7724 1.81606 73.7451 1.6853 73.7254 1.55606L65.8172 2.76479ZM9.09842 22.5588L70.8066 6.02413L68.736 -1.70328L7.02787 14.8314L9.09842 22.5588ZM12.1887 18.4589C12.0772 18.0426 11.9437 17.6364 11.7897 17.2414L4.33665 20.1488C4.38417 20.2706 4.42597 20.3975 4.46133 20.5295L12.1887 18.4589ZM4.01857 32.6101C10.1824 30.9585 13.8403 24.6228 12.1887 18.4589L4.46133 20.5295C4.9694 22.4256 3.84415 24.3746 1.94802 24.8827L4.01857 32.6101ZM2.7651 32.8731C3.18404 32.8091 3.60243 32.7216 4.01857 32.6101L1.94802 24.8827C1.81607 24.918 1.68533 24.9453 1.55611 24.965L2.7651 32.8731ZM13.869 57.1606L6.02431 27.8838L-1.7031 29.9544L6.14159 59.2311L13.869 57.1606ZM11.4587 61.9225C11.5804 61.875 11.7072 61.8332 11.8391 61.7979L9.76858 54.0705C9.35258 54.1819 8.94662 54.3153 8.55189 54.4692L11.4587 61.9225ZM11.8391 61.7979C13.7353 61.2898 15.6843 62.4151 16.1923 64.3112L23.9197 62.2406C22.2681 56.0768 15.9324 52.4189 9.76858 54.0705L11.8391 61.7979ZM16.1923 64.3112C16.2277 64.4431 16.2549 64.5738 16.2747 64.703L24.1828 63.4939C24.1187 63.075 24.0312 62.6567 23.9197 62.2406L16.1923 64.3112ZM80.9012 43.7002L19.1934 60.2347L21.264 67.9621L82.9718 51.4276L80.9012 43.7002ZM77.811 47.8003C77.9225 48.2165 78.0559 48.6225 78.2099 49.0174L85.6631 46.1104C85.6156 45.9886 85.5738 45.8617 85.5384 45.7297L77.811 47.8003ZM85.9812 33.6491C79.8173 35.3007 76.1594 41.6364 77.811 47.8003L85.5384 45.7297C85.0304 43.8336 86.1556 41.8846 88.0517 41.3765L85.9812 33.6491ZM87.2351 33.386C86.816 33.4501 86.3975 33.5376 85.9812 33.6491L88.0517 41.3765C88.1837 41.3412 88.3145 41.3139 88.4438 41.2942L87.2351 33.386ZM76.1311 9.09863L83.9758 38.3754L91.7032 36.3048L83.8585 7.02808L76.1311 9.09863Z" fill="url(#paint1_linear_633_308)" mask="url(#path-2-inside-1_633_308)"/>
</g>
<mask id="path-4-inside-2_633_308" fill="white">
<path fill-rule="evenodd" clip-rule="evenodd" d="M65.5365 10.4751L15.7895 23.8048C15.8635 23.9859 15.9267 24.1731 15.9784 24.366C16.7383 27.202 14.7206 30.2068 11.4717 31.0774C11.2508 31.1365 11.0299 31.1843 10.8098 31.2211L16.3303 51.8239C16.5394 51.7457 16.7546 51.6767 16.9755 51.6175C20.2244 50.7469 23.4742 52.3403 24.2341 55.1763C24.2858 55.3692 24.3246 55.5628 24.3511 55.7565L74.0989 42.4266C74.0249 42.2457 73.9618 42.0586 73.9101 41.8657C73.1502 39.0297 75.1679 36.0249 78.4168 35.1544C78.6375 35.0952 78.8583 35.0474 79.0783 35.0107L73.5577 14.4075C73.3485 14.4858 73.1331 14.5549 72.9121 14.6141C69.6632 15.4847 66.4134 13.8913 65.6535 11.0553C65.6018 10.8624 65.563 10.6688 65.5365 10.4751Z"/>
</mask>
<path fill-rule="evenodd" clip-rule="evenodd" d="M65.5365 10.4751L15.7895 23.8048C15.8635 23.9859 15.9267 24.1731 15.9784 24.366C16.7383 27.202 14.7206 30.2068 11.4717 31.0774C11.2508 31.1365 11.0299 31.1843 10.8098 31.2211L16.3303 51.8239C16.5394 51.7457 16.7546 51.6767 16.9755 51.6175C20.2244 50.7469 23.4742 52.3403 24.2341 55.1763C24.2858 55.3692 24.3246 55.5628 24.3511 55.7565L74.0989 42.4266C74.0249 42.2457 73.9618 42.0586 73.9101 41.8657C73.1502 39.0297 75.1679 36.0249 78.4168 35.1544C78.6375 35.0952 78.8583 35.0474 79.0783 35.0107L73.5577 14.4075C73.3485 14.4858 73.1331 14.5549 72.9121 14.6141C69.6632 15.4847 66.4134 13.8913 65.6535 11.0553C65.6018 10.8624 65.563 10.6688 65.5365 10.4751Z" fill="#FEFEFE"/>
<path d="M15.7895 23.8048L15.2718 21.8729L13.0798 22.4603L13.938 24.5611L15.7895 23.8048ZM65.5365 10.4751L67.5181 10.2042L67.2108 7.95595L65.0189 8.54326L65.5365 10.4751ZM10.8098 31.2211L10.4801 29.2485L8.30798 29.6116L8.87797 31.7388L10.8098 31.2211ZM16.3303 51.8239L14.3985 52.3416L14.9685 54.4688L17.0311 53.6971L16.3303 51.8239ZM24.3511 55.7565L22.3695 56.0274L22.6768 58.2757L24.8687 57.6884L24.3511 55.7565ZM74.0989 42.4266L74.6165 44.3585L76.8084 43.7712L75.9504 41.6704L74.0989 42.4266ZM79.0783 35.0107L79.4081 36.9833L81.5801 36.6201L81.0102 34.493L79.0783 35.0107ZM73.5577 14.4075L75.4896 13.8898L74.9195 11.7625L72.8568 12.5343L73.5577 14.4075ZM16.3071 25.7366L66.0542 12.407L65.0189 8.54326L15.2718 21.8729L16.3071 25.7366ZM17.9102 23.8484C17.8367 23.5739 17.7466 23.307 17.6409 23.0484L13.938 24.5611C13.9803 24.6647 14.0167 24.7722 14.0465 24.8836L17.9102 23.8484ZM11.9893 33.0092C16.0502 31.9211 19.0199 27.9896 17.9102 23.8484L14.0465 24.8836C14.4567 26.4145 13.391 28.4925 10.9541 29.1455L11.9893 33.0092ZM11.1395 33.1938C11.4229 33.1464 11.7065 33.085 11.9893 33.0092L10.9541 29.1455C10.7952 29.1881 10.637 29.2223 10.4801 29.2485L11.1395 33.1938ZM18.2622 51.3063L12.7417 30.7035L8.87797 31.7388L14.3985 52.3416L18.2622 51.3063ZM17.0311 53.6971C17.1801 53.6414 17.3342 53.5919 17.4931 53.5493L16.4579 49.6856C16.175 49.7614 15.8986 49.8501 15.6295 49.9507L17.0311 53.6971ZM17.4931 53.5493C19.93 52.8964 21.892 54.1631 22.3022 55.694L26.1659 54.6587C25.0563 50.5175 20.5187 48.5975 16.4579 49.6856L17.4931 53.5493ZM22.3022 55.694C22.3321 55.8054 22.3543 55.9166 22.3695 56.0274L26.3326 55.4857C26.2948 55.2091 26.2394 54.933 26.1659 54.6587L22.3022 55.694ZM73.5812 40.4948L23.8334 53.8247L24.8687 57.6884L74.6165 44.3585L73.5812 40.4948ZM71.9782 42.3834C72.0517 42.6576 72.1418 42.9244 72.2474 43.1829L75.9504 41.6704C75.9081 41.5669 75.8718 41.4595 75.8419 41.3481L71.9782 42.3834ZM77.8991 33.2225C73.8383 34.3106 70.8686 38.2422 71.9782 42.3834L75.8419 41.3481C75.4317 39.8172 76.4975 37.7392 78.9344 37.0862L77.8991 33.2225ZM78.7485 33.038C78.4653 33.0854 78.1818 33.1468 77.8991 33.2225L78.9344 37.0862C79.0932 37.0437 79.2513 37.0095 79.4081 36.9833L78.7485 33.038ZM71.6259 14.9251L77.1465 35.5283L81.0102 34.493L75.4896 13.8898L71.6259 14.9251ZM73.4297 16.546C73.7128 16.4701 73.9894 16.3814 74.2586 16.2806L72.8568 12.5343C72.7077 12.5901 72.5535 12.6396 72.3944 12.6823L73.4297 16.546ZM63.7216 11.5729C64.8313 15.7141 69.3688 17.6341 73.4297 16.546L72.3944 12.6823C69.9575 13.3352 67.9955 12.0685 67.5853 10.5376L63.7216 11.5729ZM63.5549 10.746C63.5928 11.0225 63.6481 11.2986 63.7216 11.5729L67.5853 10.5376C67.5555 10.4262 67.5332 10.315 67.5181 10.2042L63.5549 10.746Z" fill="#26265C" mask="url(#path-4-inside-2_633_308)"/>
<path d="M19.9199 36.8333L22.8663 35.9982L25.1589 44.0878L26.8689 43.6032L24.5763 35.5136L27.5096 34.6823L27.1033 33.2485L19.5135 35.3995L19.9199 36.8333ZM31.1439 42.3917L32.8539 41.9071L31.8661 38.4213L33.655 37.9143L36.5107 40.8707L38.418 40.3302L35.2895 37.1384C36.279 36.3678 36.5988 35.2398 36.2382 33.9423C35.7172 32.1289 34.2064 31.2355 32.0228 31.8543L28.445 32.8683L31.1439 42.3917ZM31.4597 36.9875L30.5613 33.8175L32.1661 33.3627C33.4552 32.9973 34.2017 33.4252 34.4887 34.4381C34.7776 35.4575 34.3554 36.174 33.0645 36.5327L31.4597 36.9875ZM40.7594 39.6666L40.8813 37.0884L44.4658 36.0726L45.9288 38.2016L47.7572 37.6834L41.6909 29.1144L39.5863 29.7108L38.931 40.1848L40.7594 39.6666ZM40.9503 35.5768L41.1508 31.3705L41.2298 31.3482L43.6139 34.8219L40.9503 35.5768ZM46.3605 27.791L44.4795 28.3241L50.5327 36.8968L52.6373 36.3004L53.3057 25.8227L51.4247 26.3558L51.0672 34.5712L50.962 34.601L46.3605 27.791ZM57.1359 35.0255L63.3577 33.2622L62.9476 31.8153L58.4358 33.0939L57.6977 30.4895L61.8543 29.3115L61.448 27.8777L57.2914 29.0557L56.5533 26.4512L61.0387 25.18L60.6324 23.7463L54.4369 25.5021L57.1359 35.0255ZM64.9756 32.8037L70.8948 31.1261L70.4848 29.6792L66.2755 30.8721L63.9866 22.7957L62.2766 23.2803L64.9756 32.8037Z" fill="#26265C"/>
<defs>
<filter id="filter0_d_633_308" x="1.16064" y="1.1604" width="87.6787" height="63.938" filterUnits="userSpaceOnUse" color-interpolation-filters="sRGB">
<feFlood flood-opacity="0" result="BackgroundImageFix"/>
<feColorMatrix in="SourceAlpha" type="matrix" values="0 0 0 0 0 0 0 0 0 0 0 0 0 0 0 0 0 0 127 0" result="hardAlpha"/>
<feOffset/>
<feGaussianBlur stdDeviation="0.5"/>
<feComposite in2="hardAlpha" operator="out"/>
<feColorMatrix type="matrix" values="0 0 0 0 0.996078 0 0 0 0 0.996078 0 0 0 0 0.996078 0 0 0 1 0"/>
<feBlend mode="normal" in2="BackgroundImageFix" result="effect1_dropShadow_633_308"/>
<feBlend mode="normal" in="SourceGraphic" in2="effect1_dropShadow_633_308" result="shape"/>
</filter>
<linearGradient id="paint0_linear_633_308" x1="52.6409" y1="17.6808" x2="52.6409" y2="61.0321" gradientUnits="userSpaceOnUse">
<stop stop-color="#7070FF"/>
<stop offset="0.472917" stop-color="#26265C"/>
</linearGradient>
<linearGradient id="paint1_linear_633_308" x1="38.9171" y1="10.4278" x2="51.0829" y2="55.8311" gradientUnits="userSpaceOnUse">
<stop stop-color="#26265C"/>
<stop offset="1" stop-color="#26265C"/>
</linearGradient>
</defs>
</svg>
