<svg width="62" height="46" viewBox="0 0 62 46" fill="none" xmlns="http://www.w3.org/2000/svg">
<path fill-rule="evenodd" clip-rule="evenodd" d="M61.8619 17.4838C61.6868 17.5031 61.5088 17.5131 61.3286 17.5131C58.6778 17.5131 56.529 15.3642 56.529 12.7135C56.529 12.5332 56.5389 12.3553 56.5583 12.1802H15.9695C15.9889 12.3553 15.9988 12.5332 15.9988 12.7135C15.9988 15.3642 13.8499 17.5131 11.1992 17.5131C11.019 17.5131 10.8411 17.5031 10.666 17.4838V36.7409C10.8411 36.7215 11.019 36.7116 11.1992 36.7116C13.8499 36.7116 15.9988 38.8604 15.9988 41.5112C15.9988 41.6914 15.9889 41.8693 15.9695 42.0444H56.5583C56.5389 41.8693 56.529 41.6914 56.529 41.5112C56.529 38.8604 58.6778 36.7116 61.3286 36.7116C61.5088 36.7116 61.6868 36.7215 61.8619 36.7409V17.4838Z" fill="url(#paint0_linear_770_2615)"/>
<mask id="path-2-inside-1_770_2615" fill="white">
<path fill-rule="evenodd" clip-rule="evenodd" d="M55.1075 5.55472C54.9296 5.62412 54.746 5.68446 54.5573 5.73504C51.781 6.47892 48.9274 4.83139 48.1835 2.05517C48.133 1.86635 48.0934 1.67717 48.0646 1.48833L5.55449 12.8789C5.62392 13.0569 5.68428 13.2405 5.73488 13.4293C6.47877 16.2056 4.83124 19.0592 2.05501 19.803C1.86627 19.8536 1.67718 19.8931 1.48841 19.922L6.89253 40.0905C7.07041 40.0211 7.2539 39.9608 7.44261 39.9102C10.2188 39.1663 13.0724 40.8139 13.8163 43.5901C13.8669 43.7788 13.9064 43.9679 13.9353 44.1567L56.4451 32.7662C56.3757 32.5883 56.3154 32.4047 56.2648 32.2159C55.5209 29.4397 57.1684 26.5861 59.9447 25.8422C60.1335 25.7916 60.3228 25.7521 60.5116 25.7232L55.1075 5.55472Z"/>
</mask>
<path fill-rule="evenodd" clip-rule="evenodd" d="M55.1075 5.55472C54.9296 5.62412 54.746 5.68446 54.5573 5.73504C51.781 6.47892 48.9274 4.83139 48.1835 2.05517C48.133 1.86635 48.0934 1.67717 48.0646 1.48833L5.55449 12.8789C5.62392 13.0569 5.68428 13.2405 5.73488 13.4293C6.47877 16.2056 4.83124 19.0592 2.05501 19.803C1.86627 19.8536 1.67718 19.8931 1.48841 19.922L6.89253 40.0905C7.07041 40.0211 7.2539 39.9608 7.44261 39.9102C10.2188 39.1663 13.0724 40.8139 13.8163 43.5901C13.8669 43.7788 13.9064 43.9679 13.9353 44.1567L56.4451 32.7662C56.3757 32.5883 56.3154 32.4047 56.2648 32.2159C55.5209 29.4397 57.1684 26.5861 59.9447 25.8422C60.1335 25.7916 60.3228 25.7521 60.5116 25.7232L55.1075 5.55472Z" fill="#FEFEFE"/>
<path d="M55.1075 5.55472L58.0053 4.77827L57.1383 1.54254L54.0174 2.75979L55.1075 5.55472ZM48.0646 1.48833L51.0301 1.03499L50.5239 -2.27648L47.2881 -1.40945L48.0646 1.48833ZM5.55449 12.8789L4.77803 9.98109L1.54217 10.8481L2.7596 13.9691L5.55449 12.8789ZM1.48841 19.922L1.03496 16.9565L-2.27636 17.4628L-1.40937 20.6985L1.48841 19.922ZM6.89253 40.0905L3.99475 40.8669L4.86173 44.1025L7.98255 42.8854L6.89253 40.0905ZM13.9353 44.1567L10.9698 44.6102L11.4761 47.9215L14.7117 47.0545L13.9353 44.1567ZM56.4451 32.7662L57.2216 35.664L60.4573 34.797L59.2401 31.6761L56.4451 32.7662ZM60.5116 25.7232L60.9649 28.6888L64.2765 28.1826L63.4094 24.9467L60.5116 25.7232ZM55.3337 8.63282C55.6291 8.55368 55.9173 8.45899 56.1976 8.34966L54.0174 2.75979C53.9419 2.78926 53.863 2.81524 53.7808 2.83726L55.3337 8.63282ZM45.2858 2.83163C46.4585 7.20825 50.9571 9.80553 55.3337 8.63282L53.7808 2.83726C52.605 3.15232 51.3964 2.45454 51.0813 1.27871L45.2858 2.83163ZM45.099 1.94166C45.1445 2.23913 45.2066 2.53619 45.2858 2.83163L51.0813 1.27871C51.0593 1.19652 51.0424 1.11522 51.0301 1.03499L45.099 1.94166ZM6.33094 15.7766L48.841 4.38611L47.2881 -1.40945L4.77803 9.98109L6.33094 15.7766ZM8.63266 12.6529C8.55349 12.3574 8.45876 12.0691 8.34937 11.7886L2.7596 13.9691C2.78908 14.0447 2.81507 14.1236 2.83711 14.2058L8.63266 12.6529ZM2.83147 22.7008C7.20809 21.5281 9.80537 17.0295 8.63266 12.6529L2.83711 14.2058C3.15217 15.3816 2.45438 16.5902 1.27856 16.9053L2.83147 22.7008ZM1.94186 22.8875C2.23924 22.8421 2.53618 22.7799 2.83147 22.7008L1.27856 16.9053C1.19637 16.9273 1.11511 16.9442 1.03496 16.9565L1.94186 22.8875ZM9.79031 39.314L4.38619 19.1455L-1.40937 20.6985L3.99475 40.8669L9.79031 39.314ZM7.98255 42.8854C8.05807 42.856 8.1369 42.83 8.21907 42.808L6.66615 37.0124C6.37091 37.0916 6.08275 37.1862 5.80252 37.2955L7.98255 42.8854ZM8.21907 42.808C9.39489 42.4929 10.6035 43.1907 10.9186 44.3665L16.7141 42.8136C15.5414 38.437 11.0428 35.8397 6.66615 37.0124L8.21907 42.808ZM10.9186 44.3665C10.9406 44.4487 10.9575 44.53 10.9698 44.6102L16.9008 43.7033C16.8554 43.4059 16.7932 43.1089 16.7141 42.8136L10.9186 44.3665ZM55.6687 29.8685L13.1588 41.2589L14.7117 47.0545L57.2216 35.664L55.6687 29.8685ZM53.367 32.9924C53.4462 33.2878 53.5409 33.576 53.6502 33.8563L59.2401 31.6761C59.2106 31.6005 59.1846 31.5217 59.1626 31.4395L53.367 32.9924ZM59.1682 22.9444C54.7916 24.1171 52.1943 28.6158 53.367 32.9924L59.1626 31.4395C58.8475 30.2637 59.5453 29.0551 60.7211 28.74L59.1682 22.9444ZM60.0584 22.7576C59.7608 22.8031 59.4637 22.8653 59.1682 22.9444L60.7211 28.74C60.8034 28.718 60.8847 28.701 60.9649 28.6888L60.0584 22.7576ZM52.2097 6.33118L57.6139 26.4997L63.4094 24.9467L58.0053 4.77827L52.2097 6.33118Z" fill="url(#paint1_linear_770_2615)" mask="url(#path-2-inside-1_770_2615)"/>
<mask id="path-4-inside-2_770_2615" fill="white">
<path fill-rule="evenodd" clip-rule="evenodd" d="M45.1474 7.21626L10.8771 16.399C10.928 16.5237 10.9716 16.6526 11.0072 16.7855C11.5307 18.7392 10.1407 20.8092 7.90257 21.4089C7.75049 21.4496 7.59841 21.4825 7.44686 21.5079L11.2499 35.7009C11.3938 35.6471 11.542 35.5995 11.6941 35.5588C13.9323 34.9591 16.171 36.0567 16.6945 38.0104C16.7301 38.1433 16.7568 38.2767 16.7751 38.4102L51.0459 29.2273C50.995 29.1026 50.9515 28.9738 50.9159 28.8409C50.3924 26.8872 51.7824 24.8173 54.0205 24.2175C54.1726 24.1768 54.3247 24.1439 54.4763 24.1185L50.6732 9.92518C50.5291 9.97912 50.3807 10.0267 50.2283 10.0676C47.9902 10.6673 45.7515 9.56962 45.228 7.6159C45.1924 7.48306 45.1656 7.34968 45.1474 7.21626Z"/>
</mask>
<path fill-rule="evenodd" clip-rule="evenodd" d="M45.1474 7.21626L10.8771 16.399C10.928 16.5237 10.9716 16.6526 11.0072 16.7855C11.5307 18.7392 10.1407 20.8092 7.90257 21.4089C7.75049 21.4496 7.59841 21.4825 7.44686 21.5079L11.2499 35.7009C11.3938 35.6471 11.542 35.5995 11.6941 35.5588C13.9323 34.9591 16.171 36.0567 16.6945 38.0104C16.7301 38.1433 16.7568 38.2767 16.7751 38.4102L51.0459 29.2273C50.995 29.1026 50.9515 28.9738 50.9159 28.8409C50.3924 26.8872 51.7824 24.8173 54.0205 24.2175C54.1726 24.1768 54.3247 24.1439 54.4763 24.1185L50.6732 9.92518C50.5291 9.97912 50.3807 10.0267 50.2283 10.0676C47.9902 10.6673 45.7515 9.56962 45.228 7.6159C45.1924 7.48306 45.1656 7.34968 45.1474 7.21626Z" fill="#FEFEFE"/>
<path d="M10.8771 16.399L10.3594 14.4671L8.16744 15.0545L9.02559 17.1553L10.8771 16.399ZM45.1474 7.21626L47.129 6.94538L46.8216 4.6971L44.6298 5.28441L45.1474 7.21626ZM7.44686 21.5079L7.11703 19.5353L4.94506 19.8984L5.51501 22.0255L7.44686 21.5079ZM11.2499 35.7009L9.31802 36.2186L9.88799 38.3457L11.9506 37.5741L11.2499 35.7009ZM16.7751 38.4102L14.7935 38.681L15.1008 40.9293L17.2927 40.342L16.7751 38.4102ZM51.0459 29.2273L51.5636 31.1592L53.7554 30.5719L52.8975 28.4711L51.0459 29.2273ZM54.4763 24.1185L54.8061 26.0912L56.9781 25.728L56.4082 23.6009L54.4763 24.1185ZM50.6732 9.92518L52.6051 9.40755L52.035 7.28013L49.9722 8.05204L50.6732 9.92518ZM11.3947 18.3308L45.665 9.14811L44.6298 5.28441L10.3594 14.4671L11.3947 18.3308ZM12.939 16.2679C12.8816 16.0535 12.8112 15.8449 12.7286 15.6427L9.02559 17.1553C9.04488 17.2025 9.06154 17.2517 9.07532 17.3031L12.939 16.2679ZM8.42021 23.3407C11.4703 22.5235 13.8122 19.5267 12.939 16.2679L9.07532 17.3031C9.2491 17.9517 8.81106 19.0949 7.38493 19.477L8.42021 23.3407ZM7.77669 23.4805C7.99143 23.4446 8.20618 23.3981 8.42021 23.3407L7.38493 19.477C7.2948 19.5012 7.20539 19.5205 7.11703 19.5353L7.77669 23.4805ZM13.1817 35.1833L9.37871 20.9902L5.51501 22.0255L9.31802 36.2186L13.1817 35.1833ZM11.9506 37.5741C12.0345 37.5428 12.1216 37.5148 12.2118 37.4906L11.1765 33.6269C10.9624 33.6843 10.7531 33.7514 10.5492 33.8277L11.9506 37.5741ZM12.2118 37.4906C13.6379 37.1085 14.5889 37.8795 14.7626 38.5281L18.6263 37.4928C17.7531 34.2339 14.2266 32.8096 11.1765 33.6269L12.2118 37.4906ZM14.7626 38.5281C14.7764 38.5795 14.7866 38.6304 14.7935 38.681L18.7567 38.1394C18.7271 37.923 18.6838 37.7071 18.6263 37.4928L14.7626 38.5281ZM50.5283 27.2955L16.2574 36.4783L17.2927 40.342L51.5636 31.1592L50.5283 27.2955ZM48.9841 29.3586C49.0415 29.5729 49.1119 29.7814 49.1944 29.9835L52.8975 28.4711C52.8782 28.4239 52.8615 28.3747 52.8478 28.3233L48.9841 29.3586ZM53.5029 22.2857C50.4527 23.103 48.1108 26.0997 48.9841 29.3586L52.8478 28.3233C52.674 27.6747 53.112 26.5315 54.5381 26.1494L53.5029 22.2857ZM54.1465 22.1459C53.9317 22.1818 53.7169 22.2283 53.5029 22.2857L54.5381 26.1494C54.6283 26.1252 54.7177 26.1059 54.8061 26.0912L54.1465 22.1459ZM48.7414 10.4428L52.5444 24.6362L56.4082 23.6009L52.6051 9.40755L48.7414 10.4428ZM50.746 11.9994C50.9603 11.942 51.1699 11.8748 51.3742 11.7983L49.9722 8.05204C49.8882 8.08349 49.801 8.11152 49.7107 8.13571L50.746 11.9994ZM43.2961 8.13354C44.1693 11.3924 47.6959 12.8167 50.746 11.9994L49.7107 8.13571C48.2846 8.51784 47.3336 7.74683 47.1598 7.09827L43.2961 8.13354ZM43.1658 7.48714C43.1954 7.70343 43.2387 7.91924 43.2961 8.13354L47.1598 7.09827C47.1461 7.04689 47.1359 6.99593 47.129 6.94538L43.1658 7.48714Z" fill="#26265C" mask="url(#path-4-inside-2_770_2615)"/>
<path d="M14.4986 25.2494L16.3928 24.7126L17.8666 29.9131L18.9659 29.6016L17.4921 24.4011L19.3777 23.8667L19.1165 22.945L14.2374 24.3277L14.4986 25.2494ZM21.7141 28.8227L22.8134 28.5112L22.1783 26.2703L23.3283 25.9444L25.1642 27.8449L26.3903 27.4974L24.3791 25.4456C25.0152 24.9502 25.2208 24.225 24.989 23.3909C24.654 22.2252 23.6828 21.6509 22.2791 22.0487L19.979 22.7005L21.7141 28.8227ZM21.9171 25.3486L21.3395 23.3107L22.3712 23.0183C23.1999 22.7835 23.6798 23.0585 23.8643 23.7097C24.05 24.365 23.7786 24.8256 22.9487 25.0562L21.9171 25.3486ZM27.8955 27.0709L27.9738 25.4135L30.2781 24.7604L31.2187 26.1291L32.3941 25.796L28.4943 20.2873L27.1413 20.6707L26.7201 27.404L27.8955 27.0709ZM28.0182 24.4417L28.1471 21.7377L28.1978 21.7233L29.7305 23.9564L28.0182 24.4417ZM31.4962 19.4365L30.287 19.7792L34.1783 25.2903L35.5313 24.9069L35.961 18.1712L34.7517 18.5139L34.5219 23.7952L34.4543 23.8144L31.4962 19.4365ZM38.4232 24.0873L42.4229 22.9537L42.1593 22.0236L39.2589 22.8456L38.7844 21.1713L41.4565 20.414L41.1953 19.4923L38.5232 20.2496L38.0487 18.5753L40.9322 17.7581L40.671 16.8364L36.6882 17.9651L38.4232 24.0873ZM43.463 22.659L47.2682 21.5806L47.0046 20.6504L44.2987 21.4173L42.8273 16.2253L41.728 16.5368L43.463 22.659Z" fill="#26265C"/>
<defs>
<linearGradient id="paint0_linear_770_2615" x1="36.2639" y1="12.1802" x2="36.2639" y2="42.0444" gradientUnits="userSpaceOnUse">
<stop stop-color="#7070FF"/>
<stop offset="0.472917" stop-color="#26265C"/>
</linearGradient>
<linearGradient id="paint1_linear_770_2615" x1="26.8096" y1="7.18359" x2="35.1904" y2="38.4614" gradientUnits="userSpaceOnUse">
<stop stop-color="#26265C"/>
<stop offset="1" stop-color="#26265C"/>
</linearGradient>
</defs>
</svg>
