<svg width="81" height="36" viewBox="0 0 81 36" fill="none" xmlns="http://www.w3.org/2000/svg">
<g filter="url(#filter0_d_1170_1048)">
<g filter="url(#filter1_b_1170_1048)">
<rect x="4" y="4" width="72.3143" height="27.3143" rx="13.6572" fill="white" fill-opacity="0.46"/>
<circle cx="15.6572" cy="17.6572" r="2.65715" fill="#1DD185"/>
</g>
<path d="M30.2379 13.0117H28.9879V21.8789H30.2379V17.4453H31.4977V16.4199H30.2379V13.0117ZM23.1285 19.3887L23.8316 20.3457C26.8199 18.876 27.8551 16.5762 27.8648 13.9199H23.6363V14.9355H26.6002C26.3658 16.918 25.233 18.334 23.1285 19.3887ZM39.743 13.7832H33.2586V14.7695H38.493C38.4881 15.8145 38.4734 17.0645 38.1316 18.7441L39.3816 18.8711C39.7381 16.9863 39.7381 15.7363 39.743 14.623V13.7832ZM32.4187 20.8145H40.5242V19.7988H36.5594V16.7422H35.3191V19.7988H32.4187V20.8145ZM51.9074 13.0215H50.6574V17.9434H51.9074V13.0215ZM44.4367 16.8398L45.0324 17.8164C46.0969 17.4941 46.8244 16.8154 47.2297 15.9561C47.635 16.752 48.343 17.3672 49.3684 17.6699L49.9641 16.6836C48.509 16.2832 47.8645 15.2383 47.8742 14.1836V13.3242H46.5754V14.1836C46.5754 15.2822 45.9211 16.3906 44.4367 16.8398ZM45.7746 21.8008H52.0344V20.8047H50.8918V19.3301H51.9562V18.3438H45.8527V19.3301H46.927V20.8047H45.7746V21.8008ZM48.1574 20.8047V19.3301H49.6613V20.8047H48.1574ZM61.7641 17.5527H53.6586V18.5488H61.7641V17.5527ZM54.4691 15.1016C54.4691 16.2393 55.7533 16.9375 57.7113 16.9375C59.6547 16.9375 60.9389 16.2393 60.9437 15.1016C60.9389 13.9688 59.6547 13.2754 57.7113 13.2852C55.7533 13.2754 54.4691 13.9688 54.4691 15.1016ZM54.6352 21.7422H60.8461V20.7461H55.8852V19.1445H54.6352V21.7422ZM55.768 15.1016C55.7582 14.5645 56.476 14.2715 57.7113 14.2617C58.9369 14.2715 59.6547 14.5645 59.6547 15.1016C59.6547 15.6533 58.9369 15.9316 57.7113 15.9316C56.476 15.9316 55.7582 15.6533 55.768 15.1016Z" fill="#FEFEFE"/>
</g>
<defs>
<filter id="filter0_d_1170_1048" x="0" y="0" width="80.3142" height="35.3143" filterUnits="userSpaceOnUse" color-interpolation-filters="sRGB">
<feFlood flood-opacity="0" result="BackgroundImageFix"/>
<feColorMatrix in="SourceAlpha" type="matrix" values="0 0 0 0 0 0 0 0 0 0 0 0 0 0 0 0 0 0 127 0" result="hardAlpha"/>
<feOffset/>
<feGaussianBlur stdDeviation="2"/>
<feComposite in2="hardAlpha" operator="out"/>
<feColorMatrix type="matrix" values="0 0 0 0 0 0 0 0 0 0 0 0 0 0 0 0 0 0 0.25 0"/>
<feBlend mode="normal" in2="BackgroundImageFix" result="effect1_dropShadow_1170_1048"/>
<feBlend mode="normal" in="SourceGraphic" in2="effect1_dropShadow_1170_1048" result="shape"/>
</filter>
<filter id="filter1_b_1170_1048" x="0" y="0" width="80.3142" height="35.3143" filterUnits="userSpaceOnUse" color-interpolation-filters="sRGB">
<feFlood flood-opacity="0" result="BackgroundImageFix"/>
<feGaussianBlur in="BackgroundImage" stdDeviation="2"/>
<feComposite in2="SourceAlpha" operator="in" result="effect1_backgroundBlur_1170_1048"/>
<feBlend mode="normal" in="SourceGraphic" in2="effect1_backgroundBlur_1170_1048" result="shape"/>
</filter>
</defs>
</svg>
