<svg width="336" height="92" viewBox="0 0 336 92" fill="none" xmlns="http://www.w3.org/2000/svg">
<path d="M8.42038 2.136L6.34038 2.072C6.35638 2.36 6.32438 2.728 6.29238 3.048C6.11638 4.632 5.82838 6.984 5.82838 9.08C5.82838 11.432 6.29238 13.8 6.77238 15.24L8.61238 14.696C8.08438 13.08 7.62038 11.288 7.62038 8.76C7.62038 6.776 7.89238 4.472 8.19638 2.984C8.26038 2.728 8.32438 2.44 8.42038 2.136ZM5.55638 3.896C4.58038 3.896 3.18838 3.768 2.61238 3.688L2.66038 5.528C3.41238 5.56 4.66038 5.64 5.50838 5.64C7.92438 5.64 11.2844 5.4 13.4764 5L13.4604 3.16C11.0124 3.752 8.59638 3.896 5.55638 3.896ZM12.4684 6.248L10.5004 5.768C10.4844 6.12 10.3724 6.808 10.2604 7.144C9.62038 9.352 8.53238 10.776 7.36438 11.848C6.38838 12.76 5.31638 13.288 4.56438 13.288C4.03638 13.288 3.82838 13.016 3.82838 12.488C3.82838 11.416 4.96438 9.88 6.56438 9.128C7.34838 8.776 8.50038 8.36 9.95638 8.36C12.1164 8.36 13.2844 9.512 13.2844 10.872C13.2844 12.456 12.0204 14.008 8.93237 14.344L10.0044 16.04C13.9244 15.432 15.2684 13.24 15.2684 10.968C15.2684 8.472 13.0604 6.744 10.0684 6.744C8.86838 6.744 7.55638 6.984 6.50038 7.368C3.95638 8.296 1.94038 10.648 1.94038 12.904C1.94038 14.536 2.91638 15.24 4.08438 15.24C5.47638 15.24 6.86838 14.536 7.90838 13.768C9.42838 12.648 11.0764 10.488 11.9884 7.608C12.1004 7.272 12.3404 6.536 12.4684 6.248ZM17.7964 4.52L17.9404 6.392C18.6284 6.424 19.3004 6.44 19.9404 6.44C21.9884 6.456 24.2924 6.04 25.6684 5.656L25.6204 3.8C24.0684 4.296 21.9084 4.632 19.9244 4.632C19.3484 4.632 18.4844 4.6 17.7964 4.52ZM24.0204 2.12L21.8124 1.912C21.7644 3.144 21.4124 4.632 21.0284 5.784C20.4044 7.512 18.9644 10.312 17.5244 12.072L19.4604 13.064C20.8204 11.176 22.2604 8.2 22.9964 5.896C23.4284 4.536 23.8124 2.968 24.0204 2.12ZM27.7804 7.112H25.7644C25.8444 8.792 26.0204 11.736 26.0204 12.696C26.0204 13.592 25.6684 14.2 24.5804 14.2C23.7004 14.2 23.1884 13.784 23.1884 13.192C23.1884 12.632 23.7964 12.232 24.7244 12.232C27.1404 12.232 28.9644 13.88 30.1164 14.952L31.1724 13.224C29.8444 12.024 27.6364 10.616 24.8364 10.616C22.6124 10.616 21.3004 11.832 21.3004 13.384C21.3004 15.144 22.8684 16.04 24.8524 16.04C27.1404 16.04 27.9404 14.872 27.9404 13.384C27.9404 12.488 27.7964 10.104 27.7644 9.16C27.7484 8.456 27.7324 7.784 27.7804 7.112ZM30.5324 7.96L31.6684 6.264C30.8364 5.672 28.8684 4.6 27.7164 4.104L26.6764 5.672C27.7804 6.168 29.6044 7.208 30.5324 7.96ZM40.0524 2.232L37.6044 2.04C37.6524 2.424 37.6364 3.08 37.5564 3.672C37.4444 4.616 37.0764 6.376 36.6764 7.88C36.0684 10.12 34.8524 13.464 33.9084 15.08L36.1324 15.832C37.0124 13.928 38.0844 10.664 38.6604 8.424C39.0924 6.792 39.4924 4.84 39.7164 3.752C39.7964 3.4 39.9404 2.68 40.0524 2.232ZM35.9724 4.632C35.3164 4.632 34.7884 4.6 33.9564 4.504L34.0204 6.504C34.5804 6.536 35.1724 6.568 35.9564 6.568C37.7644 6.568 40.2764 6.296 42.2604 5.832V3.832C40.1804 4.328 37.9244 4.632 35.9724 4.632ZM40.9964 7.08V8.952C42.0044 8.824 42.9964 8.776 44.1004 8.776C45.0604 8.776 46.0364 8.888 46.8524 8.984L46.8844 7.064C45.9564 6.968 44.9964 6.92 44.0844 6.92C43.0444 6.92 41.8924 6.984 40.9964 7.08ZM41.8604 11.096L39.9564 10.92C39.8284 11.544 39.6844 12.312 39.6844 13.064C39.6844 14.68 41.1244 15.592 43.8284 15.592C45.1084 15.592 46.1804 15.496 47.0764 15.368L47.1564 13.336C46.0204 13.544 44.9164 13.656 43.8444 13.656C42.1164 13.656 41.6524 13.128 41.6524 12.424C41.6524 12.072 41.7484 11.56 41.8604 11.096ZM57.9404 4.04L55.7484 3.976C55.5884 5.656 55.2364 7.496 54.7724 9C54.1004 11.16 53.4924 12.184 52.8044 12.184C52.1964 12.184 51.5564 11.4 51.5564 9.784C51.5564 7.768 53.4124 5 56.8044 5C59.5724 5 61.1404 6.792 61.1404 9.304C61.1404 11.656 59.5404 13.112 57.5084 13.608C57.0764 13.704 56.6284 13.784 56.0044 13.864L57.2204 15.752C61.2524 15.128 63.3164 12.744 63.3164 9.384C63.3164 5.88 60.8044 3.128 56.8524 3.128C52.7084 3.128 49.4924 6.296 49.4924 9.976C49.4924 12.68 50.9644 14.648 52.7564 14.648C54.5004 14.648 55.8764 12.664 56.8364 9.432C57.3964 7.544 57.7164 5.672 57.9404 4.04ZM73.3804 3.352V5.096H79.7164V3.352H73.3804ZM72.8524 8.232V16.424H74.6604V8.232H72.8524ZM73.2684 1.4C72.8364 3.336 71.9724 5.16 70.7564 6.296C71.2044 6.552 71.9884 7.16 72.3244 7.496C73.5884 6.168 74.6124 4.056 75.1724 1.768L73.2684 1.4ZM76.7244 7.32L75.0764 7.544C75.6204 11.496 76.5804 14.68 78.9164 16.392C79.1884 15.896 79.7804 15.144 80.2124 14.792C78.1324 13.448 77.1724 10.568 76.7244 7.32ZM78.8044 8.072C78.1484 8.872 76.9804 9.928 76.1644 10.536L77.2844 11.624C78.1324 11.048 79.2684 10.12 80.1484 9.272L78.8044 8.072ZM65.1404 3.848V5.624H71.7804V3.848H65.1404ZM67.6204 7.192V8.936H70.2284V7.192H67.6204ZM67.5564 1.416V4.424H69.3964V1.416H67.5564ZM69.6044 7.192V7.544C69.5404 12.472 69.4604 14.136 69.2364 14.52C69.1084 14.696 68.9804 14.76 68.7724 14.76C68.5164 14.76 68.1004 14.744 67.6044 14.68C67.8604 15.16 68.0364 15.88 68.0684 16.392C68.7084 16.408 69.3324 16.408 69.7324 16.328C70.1644 16.248 70.4684 16.104 70.7724 15.656C71.1724 15.064 71.2524 13.144 71.3324 7.944C71.3324 7.72 71.3324 7.192 71.3324 7.192H69.6044ZM66.7724 4.984V8.12C66.7724 10.264 66.5484 12.984 64.7724 15.32C65.2524 15.624 65.8764 16.104 66.1964 16.488C68.1804 13.896 68.4524 10.76 68.4524 8.136V4.984H66.7724ZM77.9404 5.256C76.5324 6.376 73.6524 7.544 71.3804 8.008C71.7964 8.424 72.2604 9.112 72.5164 9.608C74.7724 8.92 77.7164 7.576 79.3324 6.264L77.9404 5.256ZM87.6204 2.328V4.152H95.4444V2.328H87.6204ZM91.6844 7.304V14.168C91.6844 14.408 91.5884 14.472 91.2844 14.488C90.9964 14.488 89.9404 14.488 89.0284 14.44C89.2844 15 89.5404 15.832 89.6044 16.392C91.0444 16.392 92.0524 16.376 92.7404 16.088C93.4444 15.784 93.6524 15.24 93.6524 14.216V7.304H91.6844ZM86.9324 6.76V8.584H95.8604V6.76H86.9324ZM83.3484 8.648V16.456H85.2684V7.064L85.0284 6.968L83.3484 8.648ZM85.1564 4.904C84.1004 6.712 82.3564 8.568 80.7244 9.72C81.1084 10.104 81.7644 10.968 82.0364 11.368C83.7484 9.96 85.7164 7.72 86.9804 5.592L85.1564 4.904ZM84.5484 1.416C83.7644 2.536 82.2284 3.976 80.9004 4.84C81.2204 5.224 81.7164 5.976 81.9724 6.408C83.4924 5.352 85.2204 3.688 86.3884 2.168L84.5484 1.416ZM97.5884 4.04L97.7964 6.232C99.6364 5.832 102.916 5.48 104.404 5.32C103.332 6.136 102.036 7.96 102.036 10.248C102.036 13.72 105.204 15.528 108.548 15.736L109.3 13.544C106.596 13.416 104.132 12.456 104.132 9.832C104.132 7.928 105.588 5.848 107.508 5.336C108.372 5.144 109.748 5.128 110.612 5.128L110.596 3.064C109.46 3.112 107.716 3.224 106.052 3.352C103.124 3.608 100.484 3.832 99.1564 3.96C98.8524 3.992 98.2124 4.024 97.5884 4.04ZM108.324 6.696L107.14 7.192C107.636 7.896 107.972 8.536 108.388 9.4L109.588 8.872C109.284 8.232 108.708 7.256 108.324 6.696ZM110.1 5.96L108.948 6.488C109.46 7.192 109.828 7.8 110.26 8.664L111.46 8.088C111.124 7.464 110.516 6.52 110.1 5.96ZM122.356 1.416V12.712H124.164V1.416H122.356ZM117.62 7.848L118.34 9.544L126.612 5.96L125.908 4.328L117.62 7.848ZM119.204 2.968V13.32C119.204 15.544 119.812 16.12 122.004 16.12C122.5 16.12 124.9 16.12 125.428 16.12C127.3 16.12 127.876 15.368 128.116 13.096C127.604 13 126.852 12.696 126.436 12.408C126.308 14.056 126.148 14.408 125.268 14.408C124.772 14.408 122.644 14.408 122.164 14.408C121.172 14.408 121.028 14.28 121.028 13.336V2.968H119.204ZM125.54 4.536C125.54 8.072 125.54 9.816 125.476 10.136C125.428 10.424 125.332 10.472 125.14 10.472C124.996 10.472 124.628 10.472 124.356 10.456C124.564 10.856 124.708 11.576 124.772 12.056C125.284 12.056 125.972 12.056 126.436 11.832C126.932 11.624 127.204 11.24 127.268 10.504C127.332 9.848 127.364 7.912 127.364 4.856L127.444 4.536L126.1 4.056L125.764 4.296L125.428 4.536H125.54ZM113.028 5.128V6.936H118.308V5.128H113.028ZM114.884 1.64V12.248H116.676V1.64H114.884ZM112.804 12.264L113.572 14.184C115.06 13.512 116.9 12.648 118.596 11.784L118.164 10.088C116.212 10.92 114.132 11.784 112.804 12.264ZM138.948 4.744C137.716 8.28 135.268 10.84 131.844 12.264C132.228 12.632 132.836 13.416 133.076 13.816C136.628 12.104 139.284 9.24 140.756 5.208L138.948 4.744ZM132.532 9.224C134.964 10.28 138.036 12.04 139.476 13.32L140.628 11.816C139.092 10.536 135.94 8.904 133.572 7.944L132.532 9.224ZM132.068 5.352C132.58 6.216 133.124 7.368 133.316 8.104L134.852 7.416C134.644 6.68 134.052 5.576 133.508 4.744L132.068 5.352ZM134.98 4.84C135.444 5.752 135.876 6.952 135.988 7.72L137.588 7.128C137.444 6.376 136.964 5.192 136.484 4.312L134.98 4.84ZM129.668 2.104V16.408H131.588V3.944H141.332V16.408H143.332V2.104H129.668ZM130.788 13.896V15.736H142.1V13.896H130.788ZM152.26 2.168L150.148 1.992C150.1 2.808 149.892 3.784 149.572 4.648C148.9 6.408 147.668 8.136 145.62 10.024L147.332 11.304C147.876 10.6 148.324 10.024 148.804 9.544C149.412 8.968 150.42 8.44 151.3 8.44C151.972 8.44 152.612 8.776 152.612 9.8C152.628 10.664 152.596 12.024 152.532 12.776H154.452C154.436 11.768 154.388 10.024 154.388 9.16C154.388 7.672 153.38 6.888 152.052 6.888C151.508 6.888 150.66 7 150.228 7.192C150.676 6.552 151.14 5.64 151.476 4.856C151.924 3.704 152.132 2.76 152.26 2.168ZM146.228 3.656V5.512C147.108 5.592 148.276 5.624 148.932 5.624C150.884 5.624 154.1 5.48 156.356 5.16L156.372 3.304C154.052 3.72 151.156 3.832 149.044 3.832C148.228 3.832 147.044 3.768 146.228 3.656ZM158.9 8.2L158.116 6.328C157.508 6.632 156.948 6.888 156.324 7.16C155.364 7.608 154.356 7.992 152.884 8.76C150.964 9.72 148.676 11.032 148.676 13.256C148.676 15.32 150.548 15.944 153.044 15.944C154.564 15.944 156.516 15.8 157.588 15.656L157.652 13.592C156.244 13.88 154.452 14.056 153.092 14.056C151.54 14.056 150.772 13.816 150.772 12.936C150.772 12.056 151.556 11.368 153.012 10.616C154.516 9.848 155.956 9.272 156.996 8.872C157.54 8.664 158.404 8.344 158.9 8.2ZM162.596 2.296V4.024H165.412V10.36H162.596V12.12H167.188V2.296H162.596ZM162.612 6.296V8.008H166.116V6.296H162.612ZM169.444 2.056V3.832H174.356V2.056H169.444ZM169.444 5.88V7.608H174.356V5.88H169.444ZM169.412 9.672V11.384H174.34V9.672H169.412ZM161.572 2.296V13.512H163.348V2.296H161.572ZM173.636 2.056V14.216C173.636 14.504 173.54 14.6 173.252 14.6C172.98 14.6 172.004 14.616 171.14 14.568C171.412 15.064 171.716 15.896 171.796 16.424C173.156 16.424 174.068 16.376 174.708 16.072C175.332 15.768 175.54 15.24 175.54 14.248V2.056H173.636ZM168.292 2.056V7.848C168.292 10.296 168.052 13.304 165.348 15.272C165.764 15.528 166.5 16.184 166.788 16.568C169.748 14.392 170.18 10.632 170.18 7.864V2.056H168.292ZM181.812 2.12L181.316 4.056C182.564 4.376 186.116 5.112 187.748 5.336L188.228 3.368C186.82 3.224 183.332 2.6 181.812 2.12ZM181.924 5.336L179.764 5.048C179.668 7.032 179.284 10.168 178.964 11.736L180.82 12.184C180.948 11.864 181.124 11.608 181.412 11.272C182.42 10.056 184.036 9.384 185.844 9.384C187.252 9.384 188.228 10.136 188.228 11.176C188.228 13.224 185.7 14.392 180.884 13.72L181.508 15.816C188.148 16.392 190.468 14.152 190.468 11.224C190.468 9.288 188.836 7.56 186.036 7.56C184.356 7.56 182.756 8.04 181.316 9.096C181.428 8.168 181.7 6.232 181.924 5.336ZM199.86 2.376L197.492 2.12C197.508 3.32 197.332 4.68 197.028 6.12C196.58 8.136 195.38 12.36 193.476 14.92L195.572 15.752C197.236 13.048 198.532 8.488 199.06 6.232C199.22 5.416 199.428 4.424 199.572 3.704C199.668 3.304 199.764 2.792 199.86 2.376ZM205.38 3.864L203.46 4.68C204.612 6.104 205.748 8.984 206.164 10.776L208.196 9.832C207.7 8.296 206.356 5.256 205.38 3.864ZM193.38 5.656L193.572 7.816C194.052 7.736 194.884 7.624 195.348 7.56C196.228 7.448 198.98 7.096 199.94 7.096C200.932 7.096 201.492 7.288 201.492 8.568C201.492 10.136 201.284 12.088 200.836 12.984C200.58 13.512 200.18 13.672 199.636 13.672C199.22 13.672 198.308 13.512 197.684 13.336L198.02 15.448C198.58 15.576 199.332 15.672 199.956 15.672C201.156 15.672 202.036 15.32 202.58 14.2C203.252 12.824 203.476 10.232 203.476 8.344C203.476 6.024 202.276 5.272 200.596 5.272C199.396 5.272 196.372 5.624 195.092 5.656C194.5 5.672 193.956 5.688 193.38 5.656ZM215.636 3.816L215.652 5.864C217.652 6.056 220.564 6.056 222.516 5.864V3.8C220.804 4.008 217.604 4.088 215.636 3.816ZM216.916 10.648L215.092 10.488C214.9 11.304 214.804 11.928 214.804 12.568C214.804 14.2 216.132 15.192 218.884 15.192C220.692 15.192 221.988 15.08 223.028 14.872L222.98 12.712C221.588 13.016 220.404 13.144 218.98 13.144C217.348 13.144 216.724 12.712 216.724 11.992C216.724 11.576 216.788 11.192 216.916 10.648ZM213.172 2.744L210.932 2.568C210.916 3.08 210.836 3.688 210.772 4.12C210.596 5.368 210.116 8.056 210.116 10.472C210.116 12.648 210.42 14.6 210.74 15.688L212.58 15.576C212.564 15.352 212.564 15.08 212.548 14.904C212.548 14.744 212.596 14.392 212.644 14.152C212.804 13.304 213.332 11.576 213.796 10.232L212.804 9.448C212.564 9.992 212.308 10.536 212.068 11.08C212.02 10.76 212.004 10.36 212.004 10.04C212.004 8.44 212.564 5.24 212.788 4.184C212.852 3.896 213.06 3.08 213.172 2.744ZM230.42 2.312L227.844 2.296C227.972 2.92 228.036 3.688 228.036 4.456C228.036 5.832 227.892 10.024 227.892 12.168C227.892 14.904 229.572 16.056 232.196 16.056C235.844 16.056 238.116 13.928 239.156 12.392L237.7 10.616C236.532 12.36 234.868 13.88 232.228 13.88C230.98 13.88 230.02 13.352 230.02 11.736C230.02 9.752 230.132 6.184 230.212 4.456C230.244 3.816 230.324 2.984 230.42 2.312ZM241.136 4.008L241.344 6.2C243.2 5.784 246.464 5.448 247.968 5.288C246.88 6.104 245.584 7.912 245.584 10.216C245.584 13.688 248.752 15.496 252.112 15.704L252.848 13.512C250.144 13.368 247.68 12.424 247.68 9.784C247.68 7.896 249.136 5.816 251.056 5.304C251.92 5.112 253.296 5.096 254.16 5.096L254.144 3.032C253.008 3.08 251.264 3.176 249.616 3.32C246.672 3.576 244.048 3.8 242.704 3.928C242.4 3.96 241.76 3.992 241.136 4.008ZM267.26 3.48L265.388 1.816C265.132 2.2 264.62 2.728 264.156 3.176C263.084 4.232 260.876 6.008 259.628 7.032C258.028 8.36 257.9 9.224 259.484 10.584C260.956 11.816 263.308 13.832 264.268 14.84C264.748 15.32 265.228 15.816 265.676 16.328L267.532 14.6C265.9 13.016 262.86 10.632 261.66 9.624C260.796 8.872 260.78 8.68 261.628 7.96C262.7 7.032 264.812 5.4 265.852 4.568C266.22 4.264 266.748 3.848 267.26 3.48ZM278.604 2.424L276.156 2.232C276.204 2.6 276.188 3.256 276.108 3.848C275.996 4.808 275.628 6.552 275.212 8.056C274.62 10.296 273.404 13.656 272.444 15.256L274.684 16.008C275.564 14.12 276.636 10.84 277.212 8.6C277.644 6.984 278.028 5.016 278.252 3.928C278.332 3.576 278.492 2.856 278.604 2.424ZM274.524 4.808C273.868 4.808 273.34 4.792 272.508 4.696L272.572 6.68C273.132 6.712 273.724 6.744 274.508 6.744C276.316 6.744 278.828 6.488 280.812 6.024V4.024C278.732 4.52 276.476 4.808 274.524 4.808ZM279.548 7.272V9.144C280.556 9.016 281.532 8.968 282.652 8.968C283.612 8.968 284.588 9.064 285.404 9.16L285.436 7.24C284.508 7.144 283.548 7.096 282.636 7.096C281.58 7.096 280.444 7.176 279.548 7.272ZM280.412 11.288L278.508 11.096C278.364 11.736 278.236 12.504 278.236 13.24C278.236 14.856 279.676 15.8 282.38 15.8C283.66 15.8 284.732 15.672 285.628 15.56L285.708 13.512C284.572 13.72 283.452 13.848 282.396 13.848C280.668 13.848 280.204 13.32 280.204 12.616C280.204 12.264 280.3 11.736 280.412 11.288ZM283.724 2.888L282.46 3.4C282.892 4.024 283.388 4.968 283.724 5.624L285.004 5.08C284.7 4.488 284.14 3.464 283.724 2.888ZM285.628 2.152L284.364 2.68C284.796 3.288 285.324 4.216 285.644 4.888L286.924 4.344C286.636 3.768 286.044 2.76 285.628 2.152ZM295.612 3.656C295.804 4.184 296.028 4.92 296.38 5.8C296.876 7.128 297.58 8.472 298.156 9.416C297.66 9.368 296.604 9.288 295.82 9.208L295.66 10.904C297.004 11.016 299.036 11.224 299.932 11.4L300.908 9.976C300.62 9.64 300.332 9.304 300.06 8.904C299.532 8.168 298.78 6.792 298.284 5.448C297.9 4.424 297.516 3.16 297.276 1.928L295.116 2.184C295.308 2.712 295.5 3.288 295.612 3.656ZM289.788 4.408L289.82 6.44C293.1 6.712 295.628 6.648 297.756 6.392C299.036 6.248 300.412 6.008 301.468 5.704L301.228 3.704C299.964 4.088 298.556 4.36 297.132 4.536C295.212 4.744 292.78 4.76 289.788 4.408ZM293.004 9.848L291.004 9.384C290.46 10.472 290.156 11.384 290.156 12.36C290.156 14.68 292.204 15.944 295.484 15.944C297.42 15.944 298.86 15.736 299.772 15.576L299.884 13.544C298.764 13.768 297.356 13.944 295.612 13.944C293.42 13.928 292.22 13.368 292.22 12.008C292.22 11.32 292.476 10.616 293.004 9.848ZM307.66 3.576L305.196 3.544C305.308 4.04 305.324 4.728 305.324 5.16C305.324 6.136 305.34 8.024 305.5 9.496C305.948 13.784 307.468 15.352 309.244 15.352C310.524 15.352 311.516 14.392 312.588 11.592L310.972 9.656C310.668 10.92 310.044 12.808 309.276 12.808C308.268 12.808 307.788 11.224 307.564 8.92C307.468 7.752 307.468 6.568 307.468 5.528C307.468 5.08 307.548 4.136 307.66 3.576ZM315.66 3.928L313.628 4.6C315.372 6.584 316.236 10.456 316.476 13.048L318.588 12.216C318.412 9.768 317.18 5.768 315.66 3.928ZM322.604 11.048C321.18 11.048 320.012 12.2 320.012 13.624C320.012 15.064 321.18 16.216 322.604 16.216C324.044 16.216 325.196 15.064 325.196 13.624C325.196 12.2 324.044 11.048 322.604 11.048ZM322.604 15.064C321.82 15.064 321.164 14.424 321.164 13.624C321.164 12.84 321.82 12.2 322.604 12.2C323.404 12.2 324.044 12.84 324.044 13.624C324.044 14.424 323.404 15.064 322.604 15.064Z" fill="#FEFEFE"/>
<path d="M97.9311 80V45.0909H106.369V73.1477H120.891V80H97.9311ZM133.279 80H124.211L135.989 45.0909H147.222L159.001 80H149.933L141.734 53.8864H141.461L133.279 80ZM132.069 66.2614H151.023V72.6705H132.069V66.2614ZM162.759 45.0909H173.208L182.072 66.7045H182.481L191.344 45.0909H201.793V80H193.577V58.5568H193.288L184.901 79.7784H179.651L171.265 58.4375H170.975V80H162.759V45.0909ZM207.056 80V45.0909H221.477C224.09 45.0909 226.346 45.6023 228.244 46.625C230.153 47.6364 231.624 49.0511 232.658 50.8693C233.692 52.6761 234.21 54.7784 234.21 57.1761C234.21 59.5852 233.681 61.6932 232.624 63.5C231.579 65.2955 230.085 66.6875 228.141 67.6761C226.198 68.6648 223.891 69.1591 221.221 69.1591H212.323V62.5114H219.653C220.925 62.5114 221.988 62.2898 222.84 61.8466C223.704 61.4034 224.357 60.7841 224.8 59.9886C225.244 59.1818 225.465 58.2443 225.465 57.1761C225.465 56.0966 225.244 55.1648 224.8 54.3807C224.357 53.5852 223.704 52.9716 222.84 52.5398C221.977 52.108 220.914 51.892 219.653 51.892H215.494V80H207.056ZM241.415 80.4943C240.188 80.4943 239.137 80.0625 238.262 79.1989C237.398 78.3352 236.972 77.2898 236.984 76.0625C236.972 74.858 237.398 73.8295 238.262 72.9773C239.137 72.1136 240.188 71.6818 241.415 71.6818C242.575 71.6818 243.597 72.1136 244.484 72.9773C245.381 73.8295 245.836 74.858 245.847 76.0625C245.836 76.8807 245.62 77.625 245.2 78.2955C244.79 78.9659 244.251 79.5 243.58 79.8977C242.921 80.2955 242.2 80.4943 241.415 80.4943Z" fill="#FFF48E"/>
<path d="M240.619 64.8435C241.033 64.1119 242.134 64.1391 242.506 64.8926C244.641 69.2103 246.134 70.7315 250.225 72.698C250.996 73.0688 251.027 74.202 250.281 74.6206C248.821 75.4395 246.866 76.6564 245.647 77.8998C244.487 79.0828 243.345 80.9496 242.573 82.3469C242.166 83.0841 241.041 83.0881 240.631 82.3524C239.827 80.9101 238.629 78.9629 237.44 77.7735C236.254 76.5879 234.316 75.3943 232.875 74.5903C232.137 74.1785 232.144 73.0467 232.885 72.6399C234.284 71.8715 236.144 70.7349 237.313 69.566C238.521 68.3586 239.779 66.3276 240.619 64.8435Z" fill="#FFF48E"/>
</svg>
