<svg width="29" height="25" viewBox="0 0 29 25" fill="none" xmlns="http://www.w3.org/2000/svg">
<circle cx="6.525" cy="6.525" r="5.525" stroke="#26265C" stroke-width="2"/>
<circle cx="22.4747" cy="6.525" r="5.525" stroke="#26265C" stroke-width="2"/>
<mask id="path-3-inside-1_33_352" fill="white">
<path fill-rule="evenodd" clip-rule="evenodd" d="M10.8 5.80005C8.03862 5.80005 5.80004 8.03863 5.80004 10.8001V10.95C5.80004 11.7309 5.97903 12.4699 6.29821 13.1283C5.07315 14.3264 4.3501 15.8029 4.3501 17.4001C4.3501 21.4042 8.89441 24.6501 14.5001 24.6501C20.1058 24.6501 24.6501 21.4042 24.6501 17.4001C24.6501 15.8029 23.927 14.3263 22.7019 13.1283C23.0211 12.4699 23.2 11.7308 23.2 10.95V10.8C23.2 8.03863 20.9615 5.80005 18.2 5.80005H10.8Z"/>
</mask>
<path fill-rule="evenodd" clip-rule="evenodd" d="M10.8 5.80005C8.03862 5.80005 5.80004 8.03863 5.80004 10.8001V10.95C5.80004 11.7309 5.97903 12.4699 6.29821 13.1283C5.07315 14.3264 4.3501 15.8029 4.3501 17.4001C4.3501 21.4042 8.89441 24.6501 14.5001 24.6501C20.1058 24.6501 24.6501 21.4042 24.6501 17.4001C24.6501 15.8029 23.927 14.3263 22.7019 13.1283C23.0211 12.4699 23.2 11.7308 23.2 10.95V10.8C23.2 8.03863 20.9615 5.80005 18.2 5.80005H10.8Z" fill="white"/>
<path d="M6.29821 13.1283L7.69656 14.5582L8.72597 13.5515L8.0979 12.2559L6.29821 13.1283ZM22.7019 13.1283L20.9022 12.2559L20.2742 13.5515L21.3036 14.5582L22.7019 13.1283ZM7.80004 10.8001C7.80004 9.1432 9.14319 7.80005 10.8 7.80005V3.80005C6.93404 3.80005 3.80004 6.93406 3.80004 10.8001H7.80004ZM7.80004 10.95V10.8001H3.80004V10.95H7.80004ZM8.0979 12.2559C7.90768 11.8635 7.80004 11.4222 7.80004 10.95H3.80004C3.80004 12.0396 4.05037 13.0763 4.49852 14.0008L8.0979 12.2559ZM6.3501 17.4001C6.3501 16.4427 6.77701 15.4575 7.69656 14.5582L4.89986 11.6984C3.3693 13.1952 2.3501 15.1632 2.3501 17.4001H6.3501ZM14.5001 22.6501C12.066 22.6501 9.94591 21.9423 8.48544 20.8991C7.02113 19.8532 6.3501 18.5886 6.3501 17.4001H2.3501C2.3501 20.2157 3.95122 22.576 6.16049 24.1541C8.3736 25.7349 11.3285 26.6501 14.5001 26.6501V22.6501ZM22.6501 17.4001C22.6501 18.5886 21.9791 19.8532 20.5148 20.8991C19.0543 21.9423 16.9342 22.6501 14.5001 22.6501V26.6501C17.6717 26.6501 20.6266 25.7349 22.8397 24.1541C25.049 22.576 26.6501 20.2157 26.6501 17.4001H22.6501ZM21.3036 14.5582C22.2232 15.4575 22.6501 16.4427 22.6501 17.4001H26.6501C26.6501 15.1631 25.6309 13.1951 24.1002 11.6983L21.3036 14.5582ZM21.2 10.95C21.2 11.4222 21.0924 11.8635 20.9022 12.2559L24.5016 14.0007C24.9497 13.0762 25.2 12.0395 25.2 10.95H21.2ZM21.2 10.8V10.95H25.2V10.8H21.2ZM18.2 7.80005C19.8569 7.80005 21.2 9.1432 21.2 10.8H25.2C25.2 6.93406 22.066 3.80005 18.2 3.80005V7.80005ZM10.8 7.80005H18.2V3.80005H10.8V7.80005Z" fill="#26265C" mask="url(#path-3-inside-1_33_352)"/>
<ellipse cx="14.5002" cy="15.7083" rx="2.41667" ry="1.20833" fill="#26265C"/>
</svg>
