<svg width="168" height="37" viewBox="0 0 168 37" fill="none" xmlns="http://www.w3.org/2000/svg">
<path d="M47.3225 9.36656C48.2464 6.52285 48.7084 5.101 49.4023 4.71952C50.0023 4.38967 50.7294 4.38967 51.3294 4.71952C52.0233 5.101 52.4852 6.52285 53.4092 9.36656L53.7708 10.4793C54.029 11.274 54.1581 11.6714 54.4013 11.9653C54.616 12.2249 54.8928 12.426 55.2061 12.55C55.5608 12.6905 55.9786 12.6905 56.8142 12.6905H57.9842C60.9743 12.6905 62.4693 12.6905 63.0465 13.2325C63.5456 13.7012 63.7703 14.3927 63.642 15.0652C63.4936 15.8431 62.2841 16.7218 59.8651 18.4793L58.9185 19.1671C58.2425 19.6582 57.9045 19.9038 57.7001 20.2259C57.5196 20.5104 57.4139 20.8358 57.3927 21.172C57.3688 21.5528 57.4979 21.9501 57.7561 22.7448L58.1176 23.8576C59.0416 26.7013 59.5036 28.1231 59.1664 28.8396C58.8749 29.4591 58.2867 29.8865 57.6075 29.9723C56.8218 30.0715 55.6123 29.1928 53.1933 27.4353L52.2468 26.7475C51.5708 26.2564 51.2328 26.0108 50.8632 25.9159C50.5369 25.8322 50.1948 25.8322 49.8685 25.9159C49.4989 26.0108 49.1609 26.2564 48.4849 26.7475L47.5383 27.4353C45.1193 29.1928 43.9098 30.0715 43.1242 29.9723C42.4449 29.8865 41.8568 29.4591 41.5652 28.8396C41.2281 28.1231 41.6901 26.7013 42.6141 23.8576L42.9756 22.7448C43.2338 21.9501 43.3629 21.5528 43.339 21.172C43.3178 20.8358 43.2121 20.5104 43.0316 20.2259C42.8271 19.9038 42.4891 19.6582 41.8131 19.1671L40.8666 18.4793C38.4476 16.7218 37.2381 15.8431 37.0897 15.0652C36.9614 14.3927 37.186 13.7012 37.6852 13.2325C38.2624 12.6905 39.7574 12.6905 42.7475 12.6905H43.9175C44.7531 12.6905 45.1709 12.6905 45.5256 12.55C45.8388 12.426 46.1157 12.2249 46.3304 11.9653C46.5736 11.6714 46.7027 11.274 46.9609 10.4793L47.3225 9.36656Z" fill="#D9D9D9"/>
<path d="M80.6232 9.36656C81.5472 6.52285 82.0092 5.101 82.7031 4.71952C83.3031 4.38967 84.0301 4.38967 84.6301 4.71952C85.324 5.101 85.786 6.52285 86.71 9.36656L87.0716 10.4793C87.3298 11.274 87.4589 11.6714 87.7021 11.9653C87.9168 12.2249 88.1936 12.426 88.5069 12.55C88.8616 12.6905 89.2794 12.6905 90.115 12.6905H91.285C94.275 12.6905 95.7701 12.6905 96.3473 13.2325C96.8464 13.7012 97.0711 14.3927 96.9428 15.0652C96.7944 15.8431 95.5849 16.7218 93.1659 18.4793L92.2193 19.1671C91.5433 19.6582 91.2053 19.9038 91.0009 20.2259C90.8204 20.5104 90.7146 20.8358 90.6935 21.172C90.6695 21.5528 90.7986 21.9501 91.0569 22.7448L91.4184 23.8576C92.3424 26.7013 92.8044 28.1231 92.4672 28.8396C92.1757 29.4591 91.5875 29.8865 90.9082 29.9723C90.1226 30.0715 88.9131 29.1928 86.4941 27.4353L85.5475 26.7475C84.8715 26.2564 84.5335 26.0108 84.164 25.9159C83.8377 25.8322 83.4955 25.8322 83.1692 25.9159C82.7997 26.0108 82.4617 26.2564 81.7857 26.7475L80.8391 27.4353C78.4201 29.1928 77.2106 30.0715 76.425 29.9723C75.7457 29.8865 75.1575 29.4591 74.866 28.8396C74.5289 28.1231 74.9909 26.7013 75.9148 23.8576L76.2764 22.7448C76.5346 21.9501 76.6637 21.5528 76.6398 21.172C76.6186 20.8358 76.5129 20.5104 76.3324 20.2259C76.1279 19.9038 75.7899 19.6582 75.1139 19.1671L74.1673 18.4793C71.7483 16.7218 70.5388 15.8431 70.3905 15.0652C70.2622 14.3927 70.4868 13.7012 70.9859 13.2325C71.5632 12.6905 73.0582 12.6905 76.0483 12.6905H77.2183C78.0539 12.6905 78.4717 12.6905 78.8264 12.55C79.1396 12.426 79.4164 12.2249 79.6312 11.9653C79.8744 11.6714 80.0035 11.274 80.2617 10.4793L80.6232 9.36656Z" fill="#D9D9D9"/>
<path d="M145.924 9.36656C146.848 6.52285 147.31 5.101 148.004 4.71952C148.604 4.38967 149.331 4.38967 149.931 4.71952C150.625 5.101 151.087 6.52285 152.011 9.36656L152.372 10.4793C152.631 11.274 152.76 11.6714 153.003 11.9653C153.218 12.2249 153.494 12.426 153.808 12.55C154.162 12.6905 154.58 12.6905 155.416 12.6905H156.586C159.576 12.6905 161.071 12.6905 161.648 13.2325C162.147 13.7012 162.372 14.3927 162.244 15.0652C162.095 15.8431 160.886 16.7218 158.467 18.4793L157.52 19.1671C156.844 19.6582 156.506 19.9038 156.302 20.2259C156.121 20.5104 156.015 20.8358 155.994 21.172C155.97 21.5528 156.099 21.9501 156.358 22.7448L156.719 23.8576C157.643 26.7013 158.105 28.1231 157.768 28.8396C157.476 29.4591 156.888 29.8865 156.209 29.9723C155.423 30.0715 154.214 29.1928 151.795 27.4353L150.848 26.7475C150.172 26.2564 149.834 26.0108 149.465 25.9159C149.138 25.8322 148.796 25.8322 148.47 25.9159C148.1 26.0108 147.762 26.2564 147.086 26.7475L146.14 27.4353C143.721 29.1928 142.511 30.0715 141.726 29.9723C141.047 29.8865 140.458 29.4591 140.167 28.8396C139.83 28.1231 140.292 26.7013 141.216 23.8576L141.577 22.7448C141.835 21.9501 141.964 21.5528 141.941 21.172C141.919 20.8358 141.814 20.5104 141.633 20.2259C141.429 19.9038 141.091 19.6582 140.415 19.1671L139.468 18.4793C137.049 16.7218 135.84 15.8431 135.691 15.0652C135.563 14.3927 135.788 13.7012 136.287 13.2325C136.864 12.6905 138.359 12.6905 141.349 12.6905H142.519C143.355 12.6905 143.772 12.6905 144.127 12.55C144.44 12.426 144.717 12.2249 144.932 11.9653C145.175 11.6714 145.304 11.274 145.562 10.4793L145.924 9.36656Z" fill="#D9D9D9"/>
<path d="M113.322 9.36656C114.246 6.52285 114.708 5.101 115.402 4.71952C116.002 4.38967 116.729 4.38967 117.329 4.71952C118.023 5.101 118.485 6.52285 119.409 9.36656L119.771 10.4793C120.029 11.274 120.158 11.6714 120.401 11.9653C120.616 12.2249 120.893 12.426 121.206 12.55C121.561 12.6905 121.979 12.6905 122.814 12.6905H123.984C126.974 12.6905 128.469 12.6905 129.047 13.2325C129.546 13.7012 129.77 14.3927 129.642 15.0652C129.494 15.8431 128.284 16.7218 125.865 18.4793L124.919 19.1671C124.243 19.6582 123.905 19.9038 123.7 20.2259C123.52 20.5104 123.414 20.8358 123.393 21.172C123.369 21.5528 123.498 21.9501 123.756 22.7448L124.118 23.8576C125.042 26.7013 125.504 28.1231 125.166 28.8396C124.875 29.4591 124.287 29.8865 123.607 29.9723C122.822 30.0715 121.612 29.1928 119.193 27.4353L118.247 26.7475C117.571 26.2564 117.233 26.0108 116.863 25.9159C116.537 25.8322 116.195 25.8322 115.868 25.9159C115.499 26.0108 115.161 26.2564 114.485 26.7475L113.538 27.4353C111.119 29.1928 109.91 30.0715 109.124 29.9723C108.445 29.8865 107.857 29.4591 107.565 28.8396C107.228 28.1231 107.69 26.7013 108.614 23.8576L108.976 22.7448C109.234 21.9501 109.363 21.5528 109.339 21.172C109.318 20.8358 109.212 20.5104 109.032 20.2259C108.827 19.9038 108.489 19.6582 107.813 19.1671L106.867 18.4793C104.448 16.7218 103.238 15.8431 103.09 15.0652C102.961 14.3927 103.186 13.7012 103.685 13.2325C104.262 12.6905 105.757 12.6905 108.747 12.6905H109.918C110.753 12.6905 111.171 12.6905 111.526 12.55C111.839 12.426 112.116 12.2249 112.33 11.9653C112.574 11.6714 112.703 11.274 112.961 10.4793L113.322 9.36656Z" fill="#D9D9D9"/>
<path d="M15.3225 9.36656C16.2464 6.52285 16.7084 5.101 17.4023 4.71952C18.0023 4.38967 18.7294 4.38967 19.3294 4.71952C20.0233 5.101 20.4852 6.52285 21.4092 9.36656L21.7708 10.4793C22.029 11.274 22.1581 11.6714 22.4013 11.9653C22.616 12.2249 22.8928 12.426 23.2061 12.55C23.5608 12.6905 23.9786 12.6905 24.8142 12.6905H25.9842C28.9743 12.6905 30.4693 12.6905 31.0465 13.2325C31.5456 13.7012 31.7703 14.3927 31.642 15.0652C31.4936 15.8431 30.2841 16.7218 27.8651 18.4793L26.9185 19.1671C26.2425 19.6582 25.9045 19.9038 25.7001 20.2259C25.5196 20.5104 25.4139 20.8358 25.3927 21.172C25.3688 21.5528 25.4979 21.9501 25.7561 22.7448L26.1176 23.8576C27.0416 26.7013 27.5036 28.1231 27.1664 28.8396C26.8749 29.4591 26.2867 29.8865 25.6075 29.9723C24.8218 30.0715 23.6123 29.1928 21.1933 27.4353L20.2468 26.7475C19.5708 26.2564 19.2328 26.0108 18.8632 25.9159C18.5369 25.8322 18.1948 25.8322 17.8685 25.9159C17.4989 26.0108 17.1609 26.2564 16.4849 26.7475L15.5383 27.4353C13.1193 29.1928 11.9098 30.0715 11.1242 29.9723C10.4449 29.8865 9.85677 29.4591 9.56524 28.8396C9.22809 28.1231 9.69008 26.7013 10.6141 23.8576L10.9756 22.7448C11.2338 21.9501 11.3629 21.5528 11.339 21.172C11.3178 20.8358 11.2121 20.5104 11.0316 20.2259C10.8271 19.9038 10.4891 19.6582 9.81315 19.1671L8.86656 18.4793C6.44756 16.7218 5.23806 15.8431 5.08968 15.0652C4.96138 14.3927 5.18605 13.7012 5.68516 13.2325C6.2624 12.6905 7.75743 12.6905 10.7475 12.6905H11.9175C12.7531 12.6905 13.1709 12.6905 13.5256 12.55C13.8388 12.426 14.1157 12.2249 14.3304 11.9653C14.5736 11.6714 14.7027 11.274 14.9609 10.4793L15.3225 9.36656Z" fill="#FDE45F"/>
<path d="M80.6232 9.36656C81.5472 6.52285 82.0092 5.101 82.7031 4.71952C83.3031 4.38967 84.0301 4.38967 84.6301 4.71952C85.324 5.101 85.786 6.52285 86.71 9.36656L87.0716 10.4793C87.3298 11.274 87.4589 11.6714 87.7021 11.9653C87.9168 12.2249 88.1936 12.426 88.5069 12.55C88.8616 12.6905 89.2794 12.6905 90.115 12.6905H91.285C94.275 12.6905 95.7701 12.6905 96.3473 13.2325C96.8464 13.7012 97.0711 14.3927 96.9428 15.0652C96.7944 15.8431 95.5849 16.7218 93.1659 18.4793L92.2193 19.1671C91.5433 19.6582 91.2053 19.9038 91.0009 20.2259C90.8204 20.5104 90.7146 20.8358 90.6935 21.172C90.6695 21.5528 90.7986 21.9501 91.0569 22.7448L91.4184 23.8576C92.3424 26.7013 92.8044 28.1231 92.4672 28.8396C92.1757 29.4591 91.5875 29.8865 90.9082 29.9723C90.1226 30.0715 88.9131 29.1928 86.4941 27.4353L85.5475 26.7475C84.8715 26.2564 84.5335 26.0108 84.164 25.9159C83.8377 25.8322 83.4955 25.8322 83.1692 25.9159C82.7997 26.0108 82.4617 26.2564 81.7857 26.7475L80.8391 27.4353C78.4201 29.1928 77.2106 30.0715 76.425 29.9723C75.7457 29.8865 75.1575 29.4591 74.866 28.8396C74.5289 28.1231 74.9909 26.7013 75.9148 23.8576L76.2764 22.7448C76.5346 21.9501 76.6637 21.5528 76.6398 21.172C76.6186 20.8358 76.5129 20.5104 76.3324 20.2259C76.1279 19.9038 75.7899 19.6582 75.1139 19.1671L74.1673 18.4793C71.7483 16.7218 70.5388 15.8431 70.3905 15.0652C70.2622 14.3927 70.4868 13.7012 70.9859 13.2325C71.5632 12.6905 73.0582 12.6905 76.0483 12.6905H77.2183C78.0539 12.6905 78.4717 12.6905 78.8264 12.55C79.1396 12.426 79.4164 12.2249 79.6312 11.9653C79.8744 11.6714 80.0035 11.274 80.2617 10.4793L80.6232 9.36656Z" fill="#D9D9D9"/>
<path d="M18.467 5.10181V11.2238V15.2415V20.5338V22.4473V25.3812L15.6395 27.4355C13.2205 29.193 12.011 30.0717 11.2253 29.9725C10.5461 29.8867 9.95788 29.4593 9.66635 28.8398C9.3292 28.1233 9.79119 26.7015 10.7152 23.8577L11.0767 22.745C11.3349 21.9503 11.464 21.5529 11.4401 21.1722C11.4189 20.836 11.3132 20.5105 11.1327 20.2261C10.9283 19.904 10.5903 19.6584 9.91426 19.1673L8.96768 18.4795C6.54867 16.722 5.33917 15.8433 5.19079 15.0654C5.0625 14.3929 5.28716 13.7014 5.78627 13.2327C6.36351 12.6907 7.85854 12.6907 10.8486 12.6907H12.0186C12.8542 12.6907 13.272 12.6907 13.6267 12.5502C13.94 12.4262 14.2168 12.2251 14.4315 11.9655C14.6747 11.6716 14.8038 11.2742 15.062 10.4795L16.2971 6.6783C16.3575 6.4925 16.3877 6.39961 16.4223 6.31818C16.7114 5.63933 17.3508 5.17479 18.0858 5.10962C18.1739 5.10181 18.2716 5.10181 18.467 5.10181V5.10181Z" fill="#FDE45F"/>
<path d="M18.4674 5.10181V11.2238V15.2415V20.5338V22.4473V25.3812L21.2949 27.4355C23.7139 29.193 24.9234 30.0717 25.709 29.9725C26.3883 29.8867 26.9764 29.4593 27.268 28.8398C27.6051 28.1233 27.1431 26.7015 26.2192 23.8577L25.8576 22.745C25.5994 21.9503 25.4703 21.5529 25.4942 21.1722C25.5154 20.836 25.6211 20.5105 25.8016 20.2261C26.0061 19.904 26.3441 19.6584 27.0201 19.1673L27.9667 18.4795C30.3857 16.722 31.5952 15.8433 31.7435 15.0654C31.8718 14.3929 31.6472 13.7014 31.1481 13.2327C30.5708 12.6907 29.0758 12.6907 26.0857 12.6907H24.9157C24.0801 12.6907 23.6623 12.6907 23.3076 12.5502C22.9944 12.4262 22.7176 12.2251 22.5028 11.9655C22.2596 11.6716 22.1305 11.2742 21.8723 10.4795L20.6372 6.6783C20.5769 6.4925 20.5467 6.39961 20.512 6.31818C20.2229 5.63933 19.5835 5.17479 18.8486 5.10962C18.7604 5.10181 18.6627 5.10181 18.4674 5.10181V5.10181Z" fill="#D9D9D9"/>
</svg>
