<svg width="291" height="327" viewBox="0 0 291 327" fill="none" xmlns="http://www.w3.org/2000/svg">
<path d="M9.61964 57.8435C10.0336 57.1119 11.1343 57.1391 11.5069 57.8926C13.6419 62.2103 15.1341 63.7315 19.2255 65.698C19.9969 66.0688 20.0279 67.202 19.2814 67.6206C17.8214 68.4395 15.8668 69.6564 14.6475 70.8998C13.4873 72.0828 12.3459 73.9496 11.5737 75.3469C11.1663 76.0841 10.0413 76.0881 9.63111 75.3524C8.82704 73.9101 7.62947 71.9629 6.44005 70.7735C5.25451 69.5879 3.3161 68.3943 1.87523 67.5903C1.13726 67.1785 1.14429 66.0467 1.88502 65.6399C3.28418 64.8715 5.14484 63.7349 6.31379 62.566C7.52113 61.3586 8.77979 59.3276 9.61964 57.8435Z" fill="#FFF48E"/>
<path d="M33.9227 36.1493C33.5563 35.9433 33.5688 35.3935 33.946 35.2081C36.3206 34.0412 37.1298 33.2467 38.2036 30.9948C38.3878 30.6086 38.954 30.5928 39.1621 30.9667C39.5987 31.7514 40.2652 32.8337 40.9465 33.5019C41.5951 34.1379 42.6289 34.7634 43.3801 35.1752C43.7494 35.3777 43.7507 35.9395 43.3822 36.1434C42.6077 36.5721 41.5305 37.2279 40.8792 37.8792C40.2299 38.5285 39.576 39.6013 39.1473 40.3753C38.9425 40.745 38.3776 40.7421 38.1755 40.371C37.7656 39.6185 37.1429 38.5875 36.5019 37.9465C35.8414 37.2861 34.7187 36.5968 33.9227 36.1493Z" fill="#FEFEFE"/>
<path d="M254 19.8284C255.751 19.0203 256.088 18.6836 256.828 17C256.828 17 257.39 18.1789 257.973 18.7509C258.531 19.2975 259.657 19.8284 259.657 19.8284C259.657 19.8284 258.492 20.3873 257.94 20.9396C257.387 21.4919 256.828 22.6569 256.828 22.6569C256.828 22.6569 256.303 21.5256 255.751 20.9733C255.199 20.421 254 19.8284 254 19.8284Z" fill="#FEFEFE"/>
<g style="mix-blend-mode:soft-light" filter="url(#filter0_d_290_7)">
<path d="M269 2.82843C270.751 2.02031 271.088 1.68359 271.828 3.12837e-06C271.828 3.12837e-06 272.39 1.17891 272.973 1.75093C273.531 2.29749 274.657 2.82843 274.657 2.82843C274.657 2.82843 273.492 3.38731 272.94 3.9396C272.387 4.49188 271.828 5.65686 271.828 5.65686C271.828 5.65686 271.303 4.52555 270.751 3.97327C270.199 3.42099 269 2.82843 269 2.82843Z" fill="#FEFEFE"/>
</g>
<g style="mix-blend-mode:soft-light" filter="url(#filter1_d_290_7)">
<path d="M6 11.6569C9.50186 10.0406 10.1753 9.36718 11.6569 6.00001C11.6569 6.00001 12.7799 8.35783 13.9465 9.50187C15.0612 10.595 17.3137 11.6569 17.3137 11.6569C17.3137 11.6569 14.9838 12.7746 13.8792 13.8792C12.7746 14.9838 11.6569 17.3137 11.6569 17.3137C11.6569 17.3137 10.6064 15.0511 9.50186 13.9465C8.39729 12.842 6 11.6569 6 11.6569Z" fill="#FEFEFE"/>
</g>
<g style="mix-blend-mode:soft-light" filter="url(#filter2_d_290_7)">
<path d="M155 303.828C156.751 303.02 157.088 302.684 157.828 301C157.828 301 158.39 302.179 158.973 302.751C159.531 303.297 160.657 303.828 160.657 303.828C160.657 303.828 159.492 304.387 158.94 304.94C158.387 305.492 157.828 306.657 157.828 306.657C157.828 306.657 157.303 305.526 156.751 304.973C156.199 304.421 155 303.828 155 303.828Z" fill="#FEFEFE"/>
</g>
<g style="mix-blend-mode:soft-light" filter="url(#filter3_d_290_7)">
<path d="M127 312.657C130.502 311.041 131.175 310.367 132.657 307C132.657 307 133.78 309.358 134.947 310.502C136.061 311.595 138.314 312.657 138.314 312.657C138.314 312.657 135.984 313.775 134.879 314.879C133.775 315.984 132.657 318.314 132.657 318.314C132.657 318.314 131.606 316.051 130.502 314.947C129.397 313.842 127 312.657 127 312.657Z" fill="#FEFEFE"/>
</g>
<g style="mix-blend-mode:soft-light" filter="url(#filter4_d_290_7)">
<path d="M275 233.657C278.502 232.041 279.175 231.367 280.657 228C280.657 228 281.78 230.358 282.947 231.502C284.061 232.595 286.314 233.657 286.314 233.657C286.314 233.657 283.984 234.775 282.879 235.879C281.775 236.984 280.657 239.314 280.657 239.314C280.657 239.314 279.606 237.051 278.502 235.947C277.397 234.842 275 233.657 275 233.657Z" fill="#FEFEFE"/>
</g>
<path d="M263 40.8284C264.751 40.0203 265.088 39.6836 265.828 38C265.828 38 266.39 39.1789 266.973 39.7509C267.531 40.2975 268.657 40.8284 268.657 40.8284C268.657 40.8284 267.492 41.3873 266.94 41.9396C266.387 42.4919 265.828 43.6569 265.828 43.6569C265.828 43.6569 265.303 42.5256 264.751 41.9733C264.199 41.421 263 40.8284 263 40.8284Z" fill="#FDE45F"/>
<path d="M35.6567 263.828C33.9058 264.637 33.5691 264.973 32.8283 266.657C32.8283 266.657 32.2668 265.478 31.6835 264.906C31.1261 264.359 29.9999 263.828 29.9999 263.828C29.9999 263.828 31.1649 263.27 31.7171 262.717C32.2694 262.165 32.8283 261 32.8283 261C32.8283 261 33.3535 262.131 33.9058 262.684C34.4581 263.236 35.6567 263.828 35.6567 263.828Z" fill="#FEFEFE"/>
<g style="mix-blend-mode:soft-light" filter="url(#filter5_d_290_7)">
<path d="M20.6567 279.828C18.9058 280.637 18.5691 280.973 17.8283 282.657C17.8283 282.657 17.2668 281.478 16.6835 280.906C16.1261 280.359 14.9999 279.828 14.9999 279.828C14.9999 279.828 16.1649 279.27 16.7171 278.717C17.2694 278.165 17.8283 277 17.8283 277C17.8283 277 18.3535 278.131 18.9058 278.684C19.4581 279.236 20.6567 279.828 20.6567 279.828Z" fill="#FEFEFE"/>
</g>
<path d="M26.6567 241.828C24.9058 242.637 24.5691 242.973 23.8283 244.657C23.8283 244.657 23.2668 243.478 22.6835 242.906C22.1261 242.359 20.9999 241.828 20.9999 241.828C20.9999 241.828 22.1649 241.27 22.7171 240.717C23.2694 240.165 23.8283 239 23.8283 239C23.8283 239 24.3535 240.131 24.9058 240.684C25.4581 241.236 26.6567 241.828 26.6567 241.828Z" fill="#FDE45F"/>
<path d="M252.619 209.843C253.033 209.112 254.134 209.139 254.507 209.893C256.642 214.21 258.134 215.731 262.225 217.698C262.997 218.069 263.028 219.202 262.281 219.621C260.821 220.439 258.867 221.656 257.647 222.9C256.487 224.083 255.346 225.95 254.573 227.347C254.166 228.084 253.041 228.088 252.631 227.352C251.827 225.91 250.629 223.963 249.44 222.773C248.254 221.588 246.316 220.394 244.875 219.59C244.137 219.179 244.144 218.047 244.885 217.64C246.284 216.872 248.145 215.735 249.314 214.566C250.521 213.359 251.78 211.328 252.619 209.843Z" fill="#FDC15F"/>
<path d="M222.923 246.149C222.556 245.943 222.569 245.393 222.946 245.208C225.321 244.041 226.13 243.247 227.204 240.995C227.388 240.609 227.954 240.593 228.162 240.967C228.599 241.751 229.265 242.834 229.947 243.502C230.595 244.138 231.629 244.763 232.38 245.175C232.749 245.378 232.751 245.94 232.382 246.143C231.608 246.572 230.53 247.228 229.879 247.879C229.23 248.529 228.576 249.601 228.147 250.375C227.943 250.745 227.378 250.742 227.175 250.371C226.766 249.619 226.143 248.588 225.502 247.947C224.841 247.286 223.719 246.597 222.923 246.149Z" fill="#FFF48E"/>
<defs>
<filter id="filter0_d_290_7" x="265" y="0" width="13.6567" height="13.6569" filterUnits="userSpaceOnUse" color-interpolation-filters="sRGB">
<feFlood flood-opacity="0" result="BackgroundImageFix"/>
<feColorMatrix in="SourceAlpha" type="matrix" values="0 0 0 0 0 0 0 0 0 0 0 0 0 0 0 0 0 0 127 0" result="hardAlpha"/>
<feOffset dy="4"/>
<feGaussianBlur stdDeviation="2"/>
<feComposite in2="hardAlpha" operator="out"/>
<feColorMatrix type="matrix" values="0 0 0 0 0 0 0 0 0 0 0 0 0 0 0 0 0 0 0.25 0"/>
<feBlend mode="normal" in2="BackgroundImageFix" result="effect1_dropShadow_290_7"/>
<feBlend mode="normal" in="SourceGraphic" in2="effect1_dropShadow_290_7" result="shape"/>
</filter>
<filter id="filter1_d_290_7" x="2" y="6.00001" width="19.3137" height="19.3137" filterUnits="userSpaceOnUse" color-interpolation-filters="sRGB">
<feFlood flood-opacity="0" result="BackgroundImageFix"/>
<feColorMatrix in="SourceAlpha" type="matrix" values="0 0 0 0 0 0 0 0 0 0 0 0 0 0 0 0 0 0 127 0" result="hardAlpha"/>
<feOffset dy="4"/>
<feGaussianBlur stdDeviation="2"/>
<feComposite in2="hardAlpha" operator="out"/>
<feColorMatrix type="matrix" values="0 0 0 0 0 0 0 0 0 0 0 0 0 0 0 0 0 0 0.25 0"/>
<feBlend mode="normal" in2="BackgroundImageFix" result="effect1_dropShadow_290_7"/>
<feBlend mode="normal" in="SourceGraphic" in2="effect1_dropShadow_290_7" result="shape"/>
</filter>
<filter id="filter2_d_290_7" x="151" y="301" width="13.6567" height="13.6569" filterUnits="userSpaceOnUse" color-interpolation-filters="sRGB">
<feFlood flood-opacity="0" result="BackgroundImageFix"/>
<feColorMatrix in="SourceAlpha" type="matrix" values="0 0 0 0 0 0 0 0 0 0 0 0 0 0 0 0 0 0 127 0" result="hardAlpha"/>
<feOffset dy="4"/>
<feGaussianBlur stdDeviation="2"/>
<feComposite in2="hardAlpha" operator="out"/>
<feColorMatrix type="matrix" values="0 0 0 0 0 0 0 0 0 0 0 0 0 0 0 0 0 0 0.25 0"/>
<feBlend mode="normal" in2="BackgroundImageFix" result="effect1_dropShadow_290_7"/>
<feBlend mode="normal" in="SourceGraphic" in2="effect1_dropShadow_290_7" result="shape"/>
</filter>
<filter id="filter3_d_290_7" x="123" y="307" width="19.3137" height="19.3137" filterUnits="userSpaceOnUse" color-interpolation-filters="sRGB">
<feFlood flood-opacity="0" result="BackgroundImageFix"/>
<feColorMatrix in="SourceAlpha" type="matrix" values="0 0 0 0 0 0 0 0 0 0 0 0 0 0 0 0 0 0 127 0" result="hardAlpha"/>
<feOffset dy="4"/>
<feGaussianBlur stdDeviation="2"/>
<feComposite in2="hardAlpha" operator="out"/>
<feColorMatrix type="matrix" values="0 0 0 0 0 0 0 0 0 0 0 0 0 0 0 0 0 0 0.25 0"/>
<feBlend mode="normal" in2="BackgroundImageFix" result="effect1_dropShadow_290_7"/>
<feBlend mode="normal" in="SourceGraphic" in2="effect1_dropShadow_290_7" result="shape"/>
</filter>
<filter id="filter4_d_290_7" x="271" y="228" width="19.3137" height="19.3137" filterUnits="userSpaceOnUse" color-interpolation-filters="sRGB">
<feFlood flood-opacity="0" result="BackgroundImageFix"/>
<feColorMatrix in="SourceAlpha" type="matrix" values="0 0 0 0 0 0 0 0 0 0 0 0 0 0 0 0 0 0 127 0" result="hardAlpha"/>
<feOffset dy="4"/>
<feGaussianBlur stdDeviation="2"/>
<feComposite in2="hardAlpha" operator="out"/>
<feColorMatrix type="matrix" values="0 0 0 0 0 0 0 0 0 0 0 0 0 0 0 0 0 0 0.25 0"/>
<feBlend mode="normal" in2="BackgroundImageFix" result="effect1_dropShadow_290_7"/>
<feBlend mode="normal" in="SourceGraphic" in2="effect1_dropShadow_290_7" result="shape"/>
</filter>
<filter id="filter5_d_290_7" x="11" y="277" width="13.6567" height="13.6569" filterUnits="userSpaceOnUse" color-interpolation-filters="sRGB">
<feFlood flood-opacity="0" result="BackgroundImageFix"/>
<feColorMatrix in="SourceAlpha" type="matrix" values="0 0 0 0 0 0 0 0 0 0 0 0 0 0 0 0 0 0 127 0" result="hardAlpha"/>
<feOffset dy="4"/>
<feGaussianBlur stdDeviation="2"/>
<feComposite in2="hardAlpha" operator="out"/>
<feColorMatrix type="matrix" values="0 0 0 0 0 0 0 0 0 0 0 0 0 0 0 0 0 0 0.25 0"/>
<feBlend mode="normal" in2="BackgroundImageFix" result="effect1_dropShadow_290_7"/>
<feBlend mode="normal" in="SourceGraphic" in2="effect1_dropShadow_290_7" result="shape"/>
</filter>
</defs>
</svg>
