<svg width="252" height="62" viewBox="0 0 252 62" fill="none" xmlns="http://www.w3.org/2000/svg">
<path d="M5.32 15.68V18.38C5.32 21.98 3.8 25.54 0.58 26.94L2.16 29.14C5.84 27.44 7.48 23.14 7.48 18.38V15.68H5.32ZM5.84 15.68V18.38C5.84 22.94 7.48 27.06 11.06 28.7L12.62 26.56C9.46 25.2 8 21.8 8 18.38V15.68H5.84ZM13.5 14.24V32.82H16.18V14.24H13.5ZM23.3184 16.16V17.32C23.3184 19.64 22.0184 22.04 18.9184 23.04L20.2984 25.1C23.8384 23.96 25.4984 20.82 25.4984 17.32V16.16H23.3184ZM23.8584 16.16V17.32C23.8584 20.64 25.4584 23.66 28.9184 24.78L30.2784 22.72C27.2784 21.76 26.0184 19.5 26.0184 17.32V16.16H23.8584ZM19.6384 15.34V17.46H29.6384V15.34H19.6384ZM31.1184 14.26V25.42H33.7784V14.26H31.1184ZM33.0384 18.74V20.92H36.2384V18.74H33.0384ZM21.4184 26.22V28.36H31.1184V32.78H33.7784V26.22H21.4184ZM49.4769 14.26V32.78H52.1169V14.26H49.4769ZM51.5169 21.48V23.7H54.7969V21.48H51.5169ZM37.5169 17V19.12H48.2969V17H37.5169ZM42.9369 20.16C40.2369 20.16 38.2369 22 38.2369 24.58C38.2369 27.16 40.2369 29 42.9369 29C45.6369 29 47.6369 27.16 47.6369 24.58C47.6369 22 45.6369 20.16 42.9369 20.16ZM42.9369 22.32C44.1969 22.32 45.0969 23.16 45.0969 24.58C45.0969 26 44.1969 26.84 42.9369 26.84C41.6769 26.84 40.7769 26 40.7769 24.58C40.7769 23.16 41.6769 22.32 42.9369 22.32ZM41.5969 14.56V17.8H44.2569V14.56H41.5969ZM68.7553 14.26V32.78H71.4353V14.26H68.7553ZM63.2953 16.18V16.66C63.2953 21.62 61.3753 24.98 56.0553 27.54L57.4353 29.66C64.0153 26.48 65.9353 21.84 65.9353 16.18H63.2953ZM57.0353 16.18V18.28H64.5553V16.18H57.0353ZM91.2747 14.26V24.52H93.9347V14.26H91.2747ZM93.1747 18.32V20.48H96.3947V18.32H93.1747ZM81.8347 25.34V27.44H94.2947V25.34H81.8347ZM81.6747 30.4V32.5H94.5147V30.4H81.6747ZM84.0547 25.86V31.42H86.6747V25.86H84.0547ZM89.4747 25.86V31.42H92.0747V25.86H89.4747ZM84.5147 15.2C81.6347 15.2 79.4747 17.06 79.4747 19.66C79.4747 22.24 81.6347 24.1 84.5147 24.1C87.3947 24.1 89.5547 22.24 89.5547 19.66C89.5547 17.06 87.3947 15.2 84.5147 15.2ZM84.5147 17.4C85.9147 17.4 86.9547 18.24 86.9547 19.66C86.9547 21.06 85.9147 21.9 84.5147 21.9C83.1147 21.9 82.0747 21.06 82.0747 19.66C82.0747 18.24 83.1147 17.4 84.5147 17.4ZM107.093 20.04V22.18H111.973V20.04H107.093ZM102.053 15.68V18.36C102.053 21.88 100.653 25.46 97.4931 26.92L99.1531 29.06C102.633 27.32 104.213 23.02 104.213 18.36V15.68H102.053ZM102.613 15.68V18.36C102.613 22.98 104.073 27.06 107.553 28.74L109.133 26.62C106.073 25.26 104.733 21.88 104.733 18.36V15.68H102.613ZM110.653 14.24V32.82H113.293V14.24H110.653ZM12.74 40.26V50.94H15.42V40.26H12.74ZM14.64 44.64V46.8H17.84V44.64H14.64ZM9.34 51.28C5.52 51.28 3.06 52.7 3.06 55.04C3.06 57.4 5.52 58.8 9.34 58.8C13.14 58.8 15.6 57.4 15.6 55.04C15.6 52.7 13.14 51.28 9.34 51.28ZM9.34 53.4C11.68 53.4 12.98 53.92 12.98 55.04C12.98 56.14 11.68 56.68 9.34 56.68C6.98 56.68 5.68 56.14 5.68 55.04C5.68 53.92 6.98 53.4 9.34 53.4ZM1.44 47.86V49.98H2.98C7.16 49.98 9.3 49.9 11.56 49.4L11.3 47.28C9.08 47.76 7.06 47.86 2.98 47.86H1.44ZM1.44 41.5V49.3H4.08V43.62H9.72V41.5H1.44ZM31.9184 40.28V53.78H34.5984V40.28H31.9184ZM22.2584 56.34V58.46H35.0584V56.34H22.2584ZM22.2584 52.48V57.44H24.9184V52.48H22.2584ZM23.5384 41.28V43.08C23.5384 45.54 22.2384 48.12 19.1384 49.18L20.4784 51.3C24.0784 50.04 25.7384 46.7 25.7384 43.08V41.28H23.5384ZM24.0784 41.28V43.08C24.0784 46.66 25.6984 49.8 29.1984 50.98L30.5584 48.86C27.5184 47.88 26.2584 45.5 26.2584 43.08V41.28H24.0784ZM43.5569 41.48C40.6569 41.48 38.4369 43.38 38.4369 46.04C38.4369 48.72 40.6569 50.62 43.5569 50.62C46.4769 50.62 48.6569 48.72 48.6569 46.04C48.6569 43.38 46.4769 41.48 43.5569 41.48ZM43.5569 43.76C44.9769 43.76 46.0569 44.6 46.0569 46.04C46.0569 47.5 44.9769 48.34 43.5569 48.34C42.1369 48.34 41.0569 47.5 41.0569 46.04C41.0569 44.6 42.1369 43.76 43.5569 43.76ZM50.3969 40.24V58.82H53.0569V40.24H50.3969ZM37.9969 55.06C41.1969 55.06 45.5569 55.02 49.5769 54.22L49.3769 52.3C45.4769 52.88 40.9369 52.92 37.6769 52.92L37.9969 55.06ZM73.6563 40.24V58.82H76.3363V40.24H73.6563ZM66.3563 41.54C63.5563 41.54 61.4963 44.1 61.4963 48.14C61.4963 52.22 63.5563 54.78 66.3563 54.78C69.1563 54.78 71.2163 52.22 71.2163 48.14C71.2163 44.1 69.1563 41.54 66.3563 41.54ZM66.3563 43.96C67.7363 43.96 68.6563 45.42 68.6563 48.14C68.6563 50.9 67.7363 52.38 66.3563 52.38C64.9763 52.38 64.0363 50.9 64.0363 48.14C64.0363 45.42 64.9763 43.96 66.3563 43.96ZM79.3547 49.6V51.7H96.1347V49.6H79.3547ZM81.4147 40.6V42.62H91.4747V43.68H81.4347V47.58H84.0747V45.56H94.0947V40.6H81.4147ZM81.4347 46.6V48.62H94.4547V46.6H81.4347ZM81.4747 52.82V58.58H94.1947V52.82H81.4747ZM91.5747 54.9V56.48H84.0747V54.9H91.5747ZM106.133 40.52C101.893 40.52 99.4331 41.64 99.4331 43.68C99.4331 45.72 101.893 46.84 106.133 46.84C110.353 46.84 112.833 45.72 112.833 43.68C112.833 41.64 110.353 40.52 106.133 40.52ZM106.133 42.46C108.813 42.46 110.073 42.86 110.073 43.68C110.073 44.54 108.813 44.9 106.133 44.9C103.453 44.9 102.193 44.54 102.193 43.68C102.193 42.86 103.453 42.46 106.133 42.46ZM97.7531 47.7V49.8H114.493V47.7H97.7531ZM99.6731 50.84V52.82H109.853V53.76H99.6931V57.24H102.313V55.6H112.473V50.84H99.6731ZM99.6931 56.66V58.66H112.953V56.66H99.6931ZM131.153 44.74V46.9H134.673V44.74H131.153ZM133.953 40.26V51.26H136.613V40.26H133.953ZM130.333 51.66C126.413 51.66 123.993 53 123.993 55.24C123.993 57.5 126.413 58.8 130.333 58.8C134.253 58.8 136.673 57.5 136.673 55.24C136.673 53 134.253 51.66 130.333 51.66ZM130.333 53.68C132.753 53.68 134.033 54.18 134.033 55.24C134.033 56.28 132.753 56.78 130.333 56.78C127.933 56.78 126.653 56.28 126.653 55.24C126.653 54.18 127.933 53.68 130.333 53.68ZM125.393 42.12V43.28C125.393 45.66 124.073 48.12 121.013 49.16L122.373 51.26C125.913 50.06 127.553 46.82 127.553 43.28V42.12H125.393ZM125.953 42.12V43.28C125.953 46.58 127.533 49.66 130.973 50.8L132.273 48.7C129.353 47.72 128.093 45.46 128.093 43.28V42.12H125.953ZM121.733 41.38V43.5H131.693V41.38H121.733ZM139.491 43.04V45.16H148.351V43.04H139.491ZM143.951 45.98C141.611 45.98 139.891 47.8 139.891 50.4C139.891 52.98 141.611 54.8 143.951 54.8C146.311 54.8 148.011 52.98 148.011 50.4C148.011 47.8 146.311 45.98 143.951 45.98ZM143.951 48.2C144.951 48.2 145.671 49 145.671 50.4C145.671 51.8 144.951 52.58 143.951 52.58C142.951 52.58 142.251 51.8 142.251 50.4C142.251 49 142.951 48.2 143.951 48.2ZM152.891 40.26V58.78H155.431V40.26H152.891ZM150.671 47.78V49.92H153.731V47.78H150.671ZM149.011 40.6V58H151.491V40.6H149.011ZM142.651 40.76V44.38H145.271V40.76H142.651ZM164.769 42.32V42.86C164.769 44.76 162.809 46.84 158.729 47.34L159.709 49.42C164.409 48.78 167.069 46.12 167.069 42.86V42.32H164.769ZM165.529 42.32V42.86C165.529 46.12 168.189 48.78 172.909 49.42L173.869 47.34C169.789 46.84 167.829 44.76 167.829 42.86V42.32H165.529ZM164.909 52V58.8H167.549V52H164.909ZM157.929 50.48V52.6H174.669V50.48H157.929ZM159.409 41.2V43.3H173.149V41.2H159.409ZM183.608 46.48V48.64H186.668V46.48H183.608ZM179.648 41.86V44.98C179.648 48.12 178.688 51.42 175.968 53.1L177.568 55.1C180.528 53.28 181.688 49.18 181.688 44.98V41.86H179.648ZM180.228 41.86V44.86C180.228 48.86 181.148 52.86 184.088 54.68L185.528 52.6C183.008 50.96 182.228 47.88 182.228 44.86V41.86H180.228ZM189.688 40.26V58.78H192.228V40.26H189.688ZM185.928 40.54V57.94H188.408V40.54H185.928ZM198.406 49.66V54.86H201.046V49.66H198.406ZM205.126 49.66V54.86H207.786V49.66H205.126ZM194.726 54.48V56.64H211.486V54.48H194.726ZM203.086 41.16C199.086 41.16 196.166 43.12 196.166 46.14C196.166 49.16 199.086 51.1 203.086 51.1C207.066 51.1 210.006 49.16 210.006 46.14C210.006 43.12 207.066 41.16 203.086 41.16ZM203.086 43.24C205.666 43.24 207.386 44.3 207.386 46.14C207.386 47.96 205.666 49.04 203.086 49.04C200.506 49.04 198.786 47.96 198.786 46.14C198.786 44.3 200.506 43.24 203.086 43.24Z" fill="#FEFEFE"/>
<path d="M228.619 37.8435C229.033 37.1119 230.134 37.1391 230.507 37.8926C232.642 42.2103 234.134 43.7315 238.225 45.698C238.997 46.0688 239.028 47.202 238.281 47.6206C236.821 48.4395 234.867 49.6564 233.647 50.8998C232.487 52.0828 231.346 53.9496 230.573 55.3469C230.166 56.0841 229.041 56.0881 228.631 55.3524C227.827 53.9101 226.629 51.9629 225.44 50.7735C224.254 49.5879 222.316 48.3943 220.875 47.5903C220.137 47.1785 220.144 46.0467 220.885 45.6399C222.284 44.8715 224.145 43.7349 225.314 42.566C226.521 41.3586 227.78 39.3276 228.619 37.8435Z" fill="#FFF48E"/>
<path d="M240.923 31.1493C240.556 30.9433 240.569 30.3935 240.946 30.2081C243.321 29.0412 244.13 28.2467 245.204 25.9948C245.388 25.6086 245.954 25.5928 246.162 25.9668C246.599 26.7514 247.265 27.8337 247.947 28.5019C248.595 29.1379 249.629 29.7634 250.38 30.1752C250.749 30.3777 250.751 30.9395 250.382 31.1434C249.608 31.5721 248.53 32.2279 247.879 32.8792C247.23 33.5285 246.576 34.6013 246.147 35.3753C245.943 35.745 245.378 35.7421 245.175 35.371C244.766 34.6185 244.143 33.5875 243.502 32.9465C242.841 32.2861 241.719 31.5968 240.923 31.1493Z" fill="#FEFEFE"/>
<path d="M143.619 1.84349C144.033 1.1119 145.134 1.13909 145.507 1.89261C147.642 6.21032 149.134 7.73147 153.225 9.69801C153.997 10.0688 154.028 11.202 153.281 11.6206C151.821 12.4395 149.867 13.6564 148.647 14.8998C147.487 16.0828 146.346 17.9496 145.573 19.3469C145.166 20.0841 144.041 20.0881 143.631 19.3524C142.827 17.9101 141.629 15.9629 140.44 14.7735C139.254 13.5879 137.316 12.3943 135.875 11.5903C135.137 11.1785 135.144 10.0467 135.885 9.63993C137.284 8.87155 139.145 7.73494 140.314 6.56599C141.521 5.35865 142.78 3.32759 143.619 1.84349Z" fill="#FDC15F"/>
<path d="M123.923 27.1493C123.556 26.9433 123.569 26.3935 123.946 26.2081C126.321 25.0412 127.13 24.2467 128.204 21.9948C128.388 21.6086 128.954 21.5928 129.162 21.9668C129.599 22.7514 130.265 23.8337 130.947 24.5019C131.595 25.1379 132.629 25.7634 133.38 26.1752C133.749 26.3777 133.751 26.9395 133.382 27.1434C132.608 27.5721 131.53 28.2279 130.879 28.8792C130.23 29.5285 129.576 30.6013 129.147 31.3753C128.943 31.745 128.378 31.7421 128.175 31.371C127.766 30.6185 127.143 29.5875 126.502 28.9465C125.841 28.2861 124.719 27.5968 123.923 27.1493Z" fill="#FFF48E"/>
</svg>
