<svg width="311" height="54" viewBox="0 0 311 54" fill="none" xmlns="http://www.w3.org/2000/svg">
<rect width="311" height="54" rx="7" fill="#FEFEFE"/>
<path d="M128.028 33V22.0909H132.119C132.957 22.0909 133.66 22.2365 134.228 22.5277C134.8 22.8189 135.232 23.2273 135.523 23.7528C135.818 24.2749 135.965 24.8839 135.965 25.5799C135.965 26.2795 135.816 26.8867 135.517 27.4016C135.223 27.913 134.788 28.3089 134.212 28.5895C133.637 28.8665 132.93 29.005 132.092 29.005H129.179V27.3643H131.826C132.316 27.3643 132.717 27.2969 133.03 27.1619C133.342 27.0234 133.573 26.8228 133.722 26.56C133.875 26.2937 133.951 25.967 133.951 25.5799C133.951 25.1928 133.875 24.8626 133.722 24.5891C133.57 24.3121 133.337 24.1026 133.025 23.9606C132.712 23.815 132.309 23.7422 131.815 23.7422H130.004V33H128.028ZM133.664 28.0568L136.364 33H134.159L131.506 28.0568H133.664ZM141.204 33.1598C140.383 33.1598 139.675 32.9893 139.078 32.6484C138.485 32.304 138.029 31.8175 137.709 31.1889C137.39 30.5568 137.23 29.8129 137.23 28.957C137.23 28.1154 137.39 27.3768 137.709 26.7411C138.033 26.1019 138.484 25.6048 139.062 25.2496C139.641 24.891 140.321 24.7116 141.103 24.7116C141.607 24.7116 142.083 24.7933 142.53 24.9567C142.981 25.1165 143.379 25.3651 143.723 25.7024C144.071 26.0398 144.345 26.4695 144.544 26.9915C144.742 27.5099 144.842 28.1278 144.842 28.8452V29.4364H138.136V28.1367H142.994C142.99 27.7674 142.91 27.4389 142.754 27.1513C142.598 26.8601 142.379 26.631 142.099 26.4641C141.822 26.2972 141.498 26.2138 141.129 26.2138C140.735 26.2138 140.389 26.3097 140.09 26.5014C139.792 26.6896 139.56 26.9382 139.393 27.2472C139.229 27.5526 139.146 27.8881 139.142 28.2539V29.3885C139.142 29.8643 139.229 30.2727 139.403 30.6136C139.577 30.951 139.821 31.2102 140.133 31.3913C140.446 31.5689 140.811 31.6577 141.23 31.6577C141.511 31.6577 141.765 31.6186 141.992 31.5405C142.219 31.4588 142.416 31.3398 142.583 31.1836C142.75 31.0273 142.876 30.8338 142.962 30.603L144.762 30.8054C144.648 31.2812 144.432 31.6967 144.112 32.0518C143.796 32.4034 143.391 32.6768 142.898 32.8722C142.404 33.0639 141.839 33.1598 141.204 33.1598ZM146.473 33V24.8182H148.316V26.2085H148.412C148.583 25.7397 148.865 25.3739 149.259 25.1112C149.653 24.8448 150.124 24.7116 150.671 24.7116C151.225 24.7116 151.692 24.8466 152.072 25.1165C152.455 25.3828 152.725 25.7468 152.881 26.2085H152.966C153.148 25.7539 153.453 25.3917 153.883 25.1218C154.316 24.8484 154.829 24.7116 155.422 24.7116C156.175 24.7116 156.789 24.9496 157.265 25.4254C157.741 25.9013 157.979 26.5955 157.979 27.5082V33H156.045V27.8065C156.045 27.2987 155.91 26.9276 155.64 26.6932C155.371 26.4553 155.04 26.3363 154.65 26.3363C154.184 26.3363 153.82 26.4819 153.558 26.7731C153.298 27.0607 153.169 27.4354 153.169 27.897V33H151.278V27.7266C151.278 27.304 151.15 26.9666 150.894 26.7145C150.642 26.4624 150.312 26.3363 149.904 26.3363C149.627 26.3363 149.374 26.4073 149.147 26.5494C148.92 26.6879 148.739 26.8849 148.604 27.1406C148.469 27.3928 148.401 27.6875 148.401 28.0249V33H146.473ZM163.504 33.1598C162.705 33.1598 162.013 32.984 161.427 32.6325C160.841 32.2809 160.386 31.7891 160.063 31.157C159.743 30.5249 159.584 29.7862 159.584 28.9411C159.584 28.0959 159.743 27.3555 160.063 26.7198C160.386 26.0842 160.841 25.5906 161.427 25.239C162.013 24.8874 162.705 24.7116 163.504 24.7116C164.303 24.7116 164.995 24.8874 165.581 25.239C166.167 25.5906 166.62 26.0842 166.94 26.7198C167.263 27.3555 167.424 28.0959 167.424 28.9411C167.424 29.7862 167.263 30.5249 166.94 31.157C166.62 31.7891 166.167 32.2809 165.581 32.6325C164.995 32.984 164.303 33.1598 163.504 33.1598ZM163.515 31.6151C163.948 31.6151 164.31 31.4961 164.601 31.2582C164.892 31.0167 165.109 30.6935 165.251 30.2887C165.397 29.8839 165.47 29.4329 165.47 28.9357C165.47 28.435 165.397 27.9822 165.251 27.5774C165.109 27.169 164.892 26.8441 164.601 26.6026C164.31 26.3612 163.948 26.2404 163.515 26.2404C163.071 26.2404 162.701 26.3612 162.407 26.6026C162.116 26.8441 161.897 27.169 161.752 27.5774C161.609 27.9822 161.538 28.435 161.538 28.9357C161.538 29.4329 161.609 29.8839 161.752 30.2887C161.897 30.6935 162.116 31.0167 162.407 31.2582C162.701 31.4961 163.071 31.6151 163.515 31.6151ZM176.091 24.8182L173.177 33H171.047L168.133 24.8182H170.189L172.069 30.896H172.155L174.04 24.8182H176.091ZM180.769 33.1598C179.949 33.1598 179.24 32.9893 178.644 32.6484C178.051 32.304 177.594 31.8175 177.275 31.1889C176.955 30.5568 176.795 29.8129 176.795 28.957C176.795 28.1154 176.955 27.3768 177.275 26.7411C177.598 26.1019 178.049 25.6048 178.628 25.2496C179.207 24.891 179.887 24.7116 180.668 24.7116C181.172 24.7116 181.648 24.7933 182.096 24.9567C182.547 25.1165 182.944 25.3651 183.289 25.7024C183.637 26.0398 183.91 26.4695 184.109 26.9915C184.308 27.5099 184.407 28.1278 184.407 28.8452V29.4364H177.701V28.1367H182.559C182.555 27.7674 182.475 27.4389 182.319 27.1513C182.163 26.8601 181.945 26.631 181.664 26.4641C181.387 26.2972 181.064 26.2138 180.695 26.2138C180.3 26.2138 179.954 26.3097 179.656 26.5014C179.358 26.6896 179.125 26.9382 178.958 27.2472C178.795 27.5526 178.711 27.8881 178.708 28.2539V29.3885C178.708 29.8643 178.795 30.2727 178.969 30.6136C179.143 30.951 179.386 31.2102 179.699 31.3913C180.011 31.5689 180.377 31.6577 180.796 31.6577C181.076 31.6577 181.33 31.6186 181.558 31.5405C181.785 31.4588 181.982 31.3398 182.149 31.1836C182.316 31.0273 182.442 30.8338 182.527 30.603L184.327 30.8054C184.214 31.2812 183.997 31.6967 183.678 32.0518C183.362 32.4034 182.957 32.6768 182.463 32.8722C181.969 33.0639 181.405 33.1598 180.769 33.1598Z" fill="#7070FF"/>
</svg>
