<svg width="62" height="62" viewBox="0 0 62 62" fill="none" xmlns="http://www.w3.org/2000/svg">
<rect x="48.1883" y="17.4112" width="4.23975" height="19.4925" rx="2" transform="rotate(41.2659 48.1883 17.4112)" stroke="#FEFEFE" stroke-width="2"/>
<path fill-rule="evenodd" clip-rule="evenodd" d="M31.9016 40.2956C32.1196 39.5213 32.2362 38.7042 32.2362 37.8598C32.2362 37.1682 32.1796 36.4048 32.0556 35.6146C32.8417 35.2077 33.8468 35.2264 34.6513 35.8755C36.288 37.1961 35.5383 39.8353 33.4515 40.0994L31.9016 40.2956ZM30.9873 42.4272L30.8453 42.4452L28.8492 42.6978L28.8158 40.6862L28.7679 37.8072C28.7344 35.7875 29.9885 34.2441 31.6053 33.629C31.8052 34.2921 31.9533 34.9625 32.0556 35.6146C31.3031 36.0041 30.7512 36.7835 30.7676 37.7732L30.8118 40.4335L31.9016 40.2956C31.6887 41.0517 31.3792 41.767 30.9873 42.4272ZM30.9873 42.4272C29.4377 45.0376 26.6003 46.786 23.3566 46.786C20.498 46.786 15.5085 45.4281 11.8437 43.319C7.59933 40.8763 8.19746 34.6326 13.0279 33.8274L13.0617 33.8218C14.5965 33.566 16.1598 33.3055 17.546 32.0066C18.0181 31.5642 18.47 31.0787 18.9213 30.5938C20.3514 29.0574 21.7758 27.5271 23.8216 27.3922C28.2566 27.0998 30.5938 30.2731 31.6053 33.629C32.9663 33.1111 34.5844 33.2512 35.9075 34.3187C38.9162 36.7463 37.538 41.5981 33.7019 42.0836L30.9873 42.4272Z" fill="#FEFEFE"/>
<rect x="1" y="1" width="60" height="60" rx="21" stroke="#FEFEFE" stroke-width="2"/>
</svg>
