<svg width="33" height="33" viewBox="0 0 33 33" fill="none" xmlns="http://www.w3.org/2000/svg">
<path d="M20.6194 1.84349C21.0334 1.1119 22.1341 1.13909 22.5067 1.89261C24.6417 6.21032 26.1339 7.73147 30.2253 9.69801C30.9966 10.0688 31.0276 11.202 30.2812 11.6206C28.8211 12.4395 26.8666 13.6564 25.6473 14.8998C24.4871 16.0828 23.3456 17.9496 22.5735 19.3469C22.1661 20.0841 21.041 20.0881 20.6309 19.3524C19.8268 17.9101 18.6292 15.9629 17.4398 14.7735C16.2543 13.5879 14.3159 12.3943 12.875 11.5903C12.137 11.1785 12.144 10.0467 12.8848 9.63993C14.2839 8.87155 16.1446 7.73494 17.3135 6.56599C18.5209 5.35865 19.7795 3.32759 20.6194 1.84349Z" fill="#FDC15F"/>
<path d="M0.922702 27.1493C0.556322 26.9433 0.568825 26.3935 0.946045 26.2081C3.32056 25.0412 4.12982 24.2467 5.20362 21.9948C5.38779 21.6086 5.95403 21.5928 6.16208 21.9668C6.59866 22.7514 7.26518 23.8337 7.94654 24.5019C8.59512 25.1379 9.62893 25.7634 10.3801 26.1752C10.7494 26.3777 10.7507 26.9395 10.3822 27.1434C9.60774 27.5721 8.53046 28.2279 7.87919 28.8792C7.22985 29.5285 6.57596 30.6013 6.14726 31.3753C5.94253 31.745 5.37756 31.7421 5.17546 31.371C4.76563 30.6185 4.14286 29.5875 3.50186 28.9465C2.84138 28.2861 1.71869 27.5968 0.922702 27.1493Z" fill="#FFF48E"/>
</svg>
