<svg width="168" height="37" viewBox="0 0 168 37" fill="none" xmlns="http://www.w3.org/2000/svg">
<path d="M15.3225 9.36656C16.2464 6.52285 16.7084 5.101 17.4023 4.71952C18.0023 4.38967 18.7294 4.38967 19.3294 4.71952C20.0233 5.101 20.4852 6.52285 21.4092 9.36656L21.7708 10.4793C22.029 11.274 22.1581 11.6714 22.4013 11.9653C22.616 12.2249 22.8928 12.426 23.2061 12.55C23.5608 12.6905 23.9786 12.6905 24.8142 12.6905H25.9842C28.9743 12.6905 30.4693 12.6905 31.0465 13.2325C31.5456 13.7012 31.7703 14.3927 31.642 15.0652C31.4936 15.8431 30.2841 16.7218 27.8651 18.4793L26.9185 19.1671C26.2425 19.6582 25.9045 19.9038 25.7001 20.2259C25.5196 20.5104 25.4139 20.8358 25.3927 21.172C25.3688 21.5528 25.4979 21.9501 25.7561 22.7448L26.1176 23.8576C27.0416 26.7013 27.5036 28.1231 27.1664 28.8396C26.8749 29.4591 26.2867 29.8865 25.6075 29.9723C24.8218 30.0715 23.6123 29.1928 21.1933 27.4353L20.2468 26.7475C19.5708 26.2564 19.2328 26.0108 18.8632 25.9159C18.5369 25.8322 18.1948 25.8322 17.8685 25.9159C17.4989 26.0108 17.1609 26.2564 16.4849 26.7475L15.5383 27.4353C13.1193 29.1928 11.9098 30.0715 11.1242 29.9723C10.4449 29.8865 9.85677 29.4591 9.56524 28.8396C9.22809 28.1231 9.69008 26.7013 10.6141 23.8576L10.9756 22.7448C11.2338 21.9501 11.3629 21.5528 11.339 21.172C11.3178 20.8358 11.2121 20.5104 11.0316 20.2259C10.8271 19.9038 10.4891 19.6582 9.81315 19.1671L8.86656 18.4793C6.44756 16.7218 5.23806 15.8431 5.08968 15.0652C4.96138 14.3927 5.18605 13.7012 5.68516 13.2325C6.2624 12.6905 7.75743 12.6905 10.7475 12.6905H11.9175C12.7531 12.6905 13.1709 12.6905 13.5256 12.55C13.8388 12.426 14.1157 12.2249 14.3304 11.9653C14.5736 11.6714 14.7027 11.274 14.9609 10.4793L15.3225 9.36656Z" fill="#D9D9D9"/>
<path d="M47.9729 9.36656C48.8968 6.52285 49.3588 5.101 50.0527 4.71952C50.6527 4.38967 51.3797 4.38967 51.9797 4.71952C52.6737 5.101 53.1356 6.52285 54.0596 9.36656L54.4212 10.4793C54.6794 11.274 54.8085 11.6714 55.0517 11.9653C55.2664 12.2249 55.5432 12.426 55.8565 12.55C56.2112 12.6905 56.629 12.6905 57.4646 12.6905H58.6346C61.6247 12.6905 63.1197 12.6905 63.6969 13.2325C64.196 13.7012 64.4207 14.3927 64.2924 15.0652C64.144 15.8431 62.9345 16.7218 60.5155 18.4793L59.5689 19.1671C58.8929 19.6582 58.5549 19.9038 58.3505 20.2259C58.17 20.5104 58.0643 20.8358 58.0431 21.172C58.0192 21.5528 58.1483 21.9501 58.4065 22.7448L58.768 23.8576C59.692 26.7013 60.154 28.1231 59.8168 28.8396C59.5253 29.4591 58.9371 29.8865 58.2578 29.9723C57.4722 30.0715 56.2627 29.1928 53.8437 27.4353L52.8971 26.7475C52.2211 26.2564 51.8831 26.0108 51.5136 25.9159C51.1873 25.8322 50.8452 25.8322 50.5189 25.9159C50.1493 26.0108 49.8113 26.2564 49.1353 26.7475L48.1887 27.4353C45.7697 29.1928 44.5602 30.0715 43.7746 29.9723C43.0953 29.8865 42.5072 29.4591 42.2156 28.8396C41.8785 28.1231 42.3405 26.7013 43.2644 23.8576L43.626 22.7448C43.8842 21.9501 44.0133 21.5528 43.9894 21.172C43.9682 20.8358 43.8625 20.5104 43.682 20.2259C43.4775 19.9038 43.1395 19.6582 42.4635 19.1671L41.517 18.4793C39.098 16.7218 37.8885 15.8431 37.7401 15.0652C37.6118 14.3927 37.8364 13.7012 38.3356 13.2325C38.9128 12.6905 40.4078 12.6905 43.3979 12.6905H44.5679C45.4035 12.6905 45.8213 12.6905 46.176 12.55C46.4892 12.426 46.7661 12.2249 46.9808 11.9653C47.224 11.6714 47.3531 11.274 47.6113 10.4793L47.9729 9.36656Z" fill="#D9D9D9"/>
<path d="M80.6232 9.36656C81.5472 6.52285 82.0092 5.101 82.7031 4.71952C83.3031 4.38967 84.0301 4.38967 84.6301 4.71952C85.324 5.101 85.786 6.52285 86.71 9.36656L87.0716 10.4793C87.3298 11.274 87.4589 11.6714 87.7021 11.9653C87.9168 12.2249 88.1936 12.426 88.5069 12.55C88.8616 12.6905 89.2794 12.6905 90.115 12.6905H91.285C94.275 12.6905 95.7701 12.6905 96.3473 13.2325C96.8464 13.7012 97.0711 14.3927 96.9428 15.0652C96.7944 15.8431 95.5849 16.7218 93.1659 18.4793L92.2193 19.1671C91.5433 19.6582 91.2053 19.9038 91.0009 20.2259C90.8204 20.5104 90.7146 20.8358 90.6935 21.172C90.6695 21.5528 90.7986 21.9501 91.0569 22.7448L91.4184 23.8576C92.3424 26.7013 92.8044 28.1231 92.4672 28.8396C92.1757 29.4591 91.5875 29.8865 90.9082 29.9723C90.1226 30.0715 88.9131 29.1928 86.4941 27.4353L85.5475 26.7475C84.8715 26.2564 84.5335 26.0108 84.164 25.9159C83.8377 25.8322 83.4955 25.8322 83.1692 25.9159C82.7997 26.0108 82.4617 26.2564 81.7857 26.7475L80.8391 27.4353C78.4201 29.1928 77.2106 30.0715 76.425 29.9723C75.7457 29.8865 75.1575 29.4591 74.866 28.8396C74.5289 28.1231 74.9909 26.7013 75.9148 23.8576L76.2764 22.7448C76.5346 21.9501 76.6637 21.5528 76.6398 21.172C76.6186 20.8358 76.5129 20.5104 76.3324 20.2259C76.1279 19.9038 75.7899 19.6582 75.1139 19.1671L74.1673 18.4793C71.7483 16.7218 70.5388 15.8431 70.3905 15.0652C70.2622 14.3927 70.4868 13.7012 70.9859 13.2325C71.5632 12.6905 73.0582 12.6905 76.0483 12.6905H77.2183C78.0539 12.6905 78.4717 12.6905 78.8264 12.55C79.1396 12.426 79.4164 12.2249 79.6312 11.9653C79.8744 11.6714 80.0035 11.274 80.2617 10.4793L80.6232 9.36656Z" fill="#D9D9D9"/>
<path d="M145.924 9.36656C146.848 6.52285 147.31 5.101 148.004 4.71952C148.604 4.38967 149.331 4.38967 149.931 4.71952C150.625 5.101 151.087 6.52285 152.011 9.36656L152.372 10.4793C152.631 11.274 152.76 11.6714 153.003 11.9653C153.218 12.2249 153.494 12.426 153.808 12.55C154.162 12.6905 154.58 12.6905 155.416 12.6905H156.586C159.576 12.6905 161.071 12.6905 161.648 13.2325C162.147 13.7012 162.372 14.3927 162.244 15.0652C162.095 15.8431 160.886 16.7218 158.467 18.4793L157.52 19.1671C156.844 19.6582 156.506 19.9038 156.302 20.2259C156.121 20.5104 156.015 20.8358 155.994 21.172C155.97 21.5528 156.099 21.9501 156.358 22.7448L156.719 23.8576C157.643 26.7013 158.105 28.1231 157.768 28.8396C157.476 29.4591 156.888 29.8865 156.209 29.9723C155.423 30.0715 154.214 29.1928 151.795 27.4353L150.848 26.7475C150.172 26.2564 149.834 26.0108 149.465 25.9159C149.138 25.8322 148.796 25.8322 148.47 25.9159C148.1 26.0108 147.762 26.2564 147.086 26.7475L146.14 27.4353C143.721 29.1928 142.511 30.0715 141.726 29.9723C141.047 29.8865 140.458 29.4591 140.167 28.8396C139.83 28.1231 140.292 26.7013 141.216 23.8576L141.577 22.7448C141.835 21.9501 141.964 21.5528 141.941 21.172C141.919 20.8358 141.814 20.5104 141.633 20.2259C141.429 19.9038 141.091 19.6582 140.415 19.1671L139.468 18.4793C137.049 16.7218 135.84 15.8431 135.691 15.0652C135.563 14.3927 135.788 13.7012 136.287 13.2325C136.864 12.6905 138.359 12.6905 141.349 12.6905H142.519C143.355 12.6905 143.772 12.6905 144.127 12.55C144.44 12.426 144.717 12.2249 144.932 11.9653C145.175 11.6714 145.304 11.274 145.562 10.4793L145.924 9.36656Z" fill="#D9D9D9"/>
<path d="M15.3225 9.36656C16.2464 6.52285 16.7084 5.101 17.4023 4.71952C18.0023 4.38967 18.7294 4.38967 19.3294 4.71952C20.0233 5.101 20.4852 6.52285 21.4092 9.36656L21.7708 10.4793C22.029 11.274 22.1581 11.6714 22.4013 11.9653C22.616 12.2249 22.8928 12.426 23.2061 12.55C23.5608 12.6905 23.9786 12.6905 24.8142 12.6905H25.9842C28.9743 12.6905 30.4693 12.6905 31.0465 13.2325C31.5456 13.7012 31.7703 14.3927 31.642 15.0652C31.4936 15.8431 30.2841 16.7218 27.8651 18.4793L26.9185 19.1671C26.2425 19.6582 25.9045 19.9038 25.7001 20.2259C25.5196 20.5104 25.4139 20.8358 25.3927 21.172C25.3688 21.5528 25.4979 21.9501 25.7561 22.7448L26.1176 23.8576C27.0416 26.7013 27.5036 28.1231 27.1664 28.8396C26.8749 29.4591 26.2867 29.8865 25.6075 29.9723C24.8218 30.0715 23.6123 29.1928 21.1933 27.4353L20.2468 26.7475C19.5708 26.2564 19.2328 26.0108 18.8632 25.9159C18.5369 25.8322 18.1948 25.8322 17.8685 25.9159C17.4989 26.0108 17.1609 26.2564 16.4849 26.7475L15.5383 27.4353C13.1193 29.1928 11.9098 30.0715 11.1242 29.9723C10.4449 29.8865 9.85677 29.4591 9.56524 28.8396C9.22809 28.1231 9.69008 26.7013 10.6141 23.8576L10.9756 22.7448C11.2338 21.9501 11.3629 21.5528 11.339 21.172C11.3178 20.8358 11.2121 20.5104 11.0316 20.2259C10.8271 19.9038 10.4891 19.6582 9.81315 19.1671L8.86656 18.4793C6.44756 16.7218 5.23806 15.8431 5.08968 15.0652C4.96138 14.3927 5.18605 13.7012 5.68516 13.2325C6.2624 12.6905 7.75743 12.6905 10.7475 12.6905H11.9175C12.7531 12.6905 13.1709 12.6905 13.5256 12.55C13.8388 12.426 14.1157 12.2249 14.3304 11.9653C14.5736 11.6714 14.7027 11.274 14.9609 10.4793L15.3225 9.36656Z" fill="#FDE45F"/>
<path d="M47.9729 9.36656C48.8968 6.52285 49.3588 5.101 50.0527 4.71952C50.6527 4.38967 51.3797 4.38967 51.9797 4.71952C52.6737 5.101 53.1356 6.52285 54.0596 9.36656L54.4212 10.4793C54.6794 11.274 54.8085 11.6714 55.0517 11.9653C55.2664 12.2249 55.5432 12.426 55.8565 12.55C56.2112 12.6905 56.629 12.6905 57.4646 12.6905H58.6346C61.6247 12.6905 63.1197 12.6905 63.6969 13.2325C64.196 13.7012 64.4207 14.3927 64.2924 15.0652C64.144 15.8431 62.9345 16.7218 60.5155 18.4793L59.5689 19.1671C58.8929 19.6582 58.5549 19.9038 58.3505 20.2259C58.17 20.5104 58.0643 20.8358 58.0431 21.172C58.0192 21.5528 58.1483 21.9501 58.4065 22.7448L58.768 23.8576C59.692 26.7013 60.154 28.1231 59.8168 28.8396C59.5253 29.4591 58.9371 29.8865 58.2578 29.9723C57.4722 30.0715 56.2627 29.1928 53.8437 27.4353L52.8971 26.7475C52.2211 26.2564 51.8831 26.0108 51.5136 25.9159C51.1873 25.8322 50.8452 25.8322 50.5189 25.9159C50.1493 26.0108 49.8113 26.2564 49.1353 26.7475L48.1887 27.4353C45.7697 29.1928 44.5602 30.0715 43.7746 29.9723C43.0953 29.8865 42.5072 29.4591 42.2156 28.8396C41.8785 28.1231 42.3405 26.7013 43.2644 23.8576L43.626 22.7448C43.8842 21.9501 44.0133 21.5528 43.9894 21.172C43.9682 20.8358 43.8625 20.5104 43.682 20.2259C43.4775 19.9038 43.1395 19.6582 42.4635 19.1671L41.517 18.4793C39.098 16.7218 37.8885 15.8431 37.7401 15.0652C37.6118 14.3927 37.8364 13.7012 38.3356 13.2325C38.9128 12.6905 40.4078 12.6905 43.3979 12.6905H44.5679C45.4035 12.6905 45.8213 12.6905 46.176 12.55C46.4892 12.426 46.7661 12.2249 46.9808 11.9653C47.224 11.6714 47.3531 11.274 47.6113 10.4793L47.9729 9.36656Z" fill="#FDE45F"/>
<path d="M80.6232 9.36656C81.5472 6.52285 82.0092 5.101 82.7031 4.71952C83.3031 4.38967 84.0301 4.38967 84.6301 4.71952C85.324 5.101 85.786 6.52285 86.71 9.36656L87.0716 10.4793C87.3298 11.274 87.4589 11.6714 87.7021 11.9653C87.9168 12.2249 88.1936 12.426 88.5069 12.55C88.8616 12.6905 89.2794 12.6905 90.115 12.6905H91.285C94.275 12.6905 95.7701 12.6905 96.3473 13.2325C96.8464 13.7012 97.0711 14.3927 96.9428 15.0652C96.7944 15.8431 95.5849 16.7218 93.1659 18.4793L92.2193 19.1671C91.5433 19.6582 91.2053 19.9038 91.0009 20.2259C90.8204 20.5104 90.7146 20.8358 90.6935 21.172C90.6695 21.5528 90.7986 21.9501 91.0569 22.7448L91.4184 23.8576C92.3424 26.7013 92.8044 28.1231 92.4672 28.8396C92.1757 29.4591 91.5875 29.8865 90.9082 29.9723C90.1226 30.0715 88.9131 29.1928 86.4941 27.4353L85.5475 26.7475C84.8715 26.2564 84.5335 26.0108 84.164 25.9159C83.8377 25.8322 83.4955 25.8322 83.1692 25.9159C82.7997 26.0108 82.4617 26.2564 81.7857 26.7475L80.8391 27.4353C78.4201 29.1928 77.2106 30.0715 76.425 29.9723C75.7457 29.8865 75.1575 29.4591 74.866 28.8396C74.5289 28.1231 74.9909 26.7013 75.9148 23.8576L76.2764 22.7448C76.5346 21.9501 76.6637 21.5528 76.6398 21.172C76.6186 20.8358 76.5129 20.5104 76.3324 20.2259C76.1279 19.9038 75.7899 19.6582 75.1139 19.1671L74.1673 18.4793C71.7483 16.7218 70.5388 15.8431 70.3905 15.0652C70.2622 14.3927 70.4868 13.7012 70.9859 13.2325C71.5632 12.6905 73.0582 12.6905 76.0483 12.6905H77.2183C78.0539 12.6905 78.4717 12.6905 78.8264 12.55C79.1396 12.426 79.4164 12.2249 79.6312 11.9653C79.8744 11.6714 80.0035 11.274 80.2617 10.4793L80.6232 9.36656Z" fill="#FDE45F"/>
<path d="M116.438 5.10156V11.2235V15.2412V20.5336V22.4471V25.3809L113.611 27.4352C111.192 29.1927 109.982 30.0715 109.197 29.9722C108.517 29.8864 107.929 29.4591 107.638 28.8396C107.301 28.1231 107.763 26.7012 108.687 23.8575L109.048 22.7447C109.306 21.95 109.435 21.5527 109.412 21.1719C109.39 20.8357 109.285 20.5103 109.104 20.2259C108.9 19.9037 108.562 19.6582 107.886 19.167L106.939 18.4793C104.52 16.7218 103.311 15.843 103.162 15.0652C103.034 14.3926 103.259 13.7012 103.758 13.2325C104.335 12.6904 105.83 12.6904 108.82 12.6904H109.99C110.826 12.6904 111.243 12.6904 111.598 12.55C111.911 12.426 112.188 12.2248 112.403 11.9653C112.646 11.6713 112.775 11.274 113.033 10.4793L114.269 6.67805C114.329 6.49226 114.359 6.39936 114.394 6.31794C114.683 5.63909 115.322 5.17455 116.057 5.10938C116.145 5.10156 116.243 5.10156 116.438 5.10156V5.10156Z" fill="#FDE45F"/>
<path d="M116.439 5.10156V11.2235V15.2412V20.5336V22.4471V25.3809L119.266 27.4352C121.685 29.1927 122.895 30.0715 123.68 29.9722C124.36 29.8864 124.948 29.4591 125.239 28.8396C125.577 28.1231 125.115 26.7012 124.191 23.8575L123.829 22.7447C123.571 21.95 123.442 21.5527 123.466 21.1719C123.487 20.8357 123.593 20.5103 123.773 20.2259C123.978 19.9037 124.316 19.6582 124.992 19.167L125.938 18.4793C128.357 16.7218 129.567 15.843 129.715 15.0652C129.843 14.3926 129.619 13.7012 129.119 13.2325C128.542 12.6904 127.047 12.6904 124.057 12.6904H122.887C122.052 12.6904 121.634 12.6904 121.279 12.55C120.966 12.426 120.689 12.2248 120.474 11.9653C120.231 11.6713 120.102 11.274 119.844 10.4793L118.609 6.67805C118.548 6.49226 118.518 6.39936 118.483 6.31794C118.194 5.63909 117.555 5.17455 116.82 5.10938C116.732 5.10156 116.634 5.10156 116.439 5.10156V5.10156Z" fill="#D9D9D9"/>
</svg>
