<svg width="168" height="37" viewBox="0 0 168 37" fill="none" xmlns="http://www.w3.org/2000/svg">
<path d="M15.3225 9.36656C16.2464 6.52285 16.7084 5.101 17.4023 4.71952C18.0023 4.38967 18.7294 4.38967 19.3294 4.71952C20.0233 5.101 20.4852 6.52285 21.4092 9.36656L21.7708 10.4793C22.029 11.274 22.1581 11.6714 22.4013 11.9653C22.616 12.2249 22.8928 12.426 23.2061 12.55C23.5608 12.6905 23.9786 12.6905 24.8142 12.6905H25.9842C28.9743 12.6905 30.4693 12.6905 31.0465 13.2325C31.5456 13.7012 31.7703 14.3927 31.642 15.0652C31.4936 15.8431 30.2841 16.7218 27.8651 18.4793L26.9185 19.1671C26.2425 19.6582 25.9045 19.9038 25.7001 20.2259C25.5196 20.5104 25.4139 20.8358 25.3927 21.172C25.3688 21.5528 25.4979 21.9501 25.7561 22.7448L26.1176 23.8576C27.0416 26.7013 27.5036 28.1231 27.1664 28.8396C26.8749 29.4591 26.2867 29.8865 25.6075 29.9723C24.8218 30.0715 23.6123 29.1928 21.1933 27.4353L20.2468 26.7475C19.5708 26.2564 19.2328 26.0108 18.8632 25.9159C18.5369 25.8322 18.1948 25.8322 17.8685 25.9159C17.4989 26.0108 17.1609 26.2564 16.4849 26.7475L15.5383 27.4353C13.1193 29.1928 11.9098 30.0715 11.1242 29.9723C10.4449 29.8865 9.85677 29.4591 9.56524 28.8396C9.22809 28.1231 9.69008 26.7013 10.6141 23.8576L10.9756 22.7448C11.2338 21.9501 11.3629 21.5528 11.339 21.172C11.3178 20.8358 11.2121 20.5104 11.0316 20.2259C10.8271 19.9038 10.4891 19.6582 9.81315 19.1671L8.86656 18.4793C6.44756 16.7218 5.23806 15.8431 5.08968 15.0652C4.96138 14.3927 5.18605 13.7012 5.68516 13.2325C6.2624 12.6905 7.75743 12.6905 10.7475 12.6905H11.9175C12.7531 12.6905 13.1709 12.6905 13.5256 12.55C13.8388 12.426 14.1157 12.2249 14.3304 11.9653C14.5736 11.6714 14.7027 11.274 14.9609 10.4793L15.3225 9.36656Z" fill="#D9D9D9"/>
<path d="M47.9729 9.36656C48.8968 6.52285 49.3588 5.101 50.0527 4.71952C50.6527 4.38967 51.3797 4.38967 51.9797 4.71952C52.6737 5.101 53.1356 6.52285 54.0596 9.36656L54.4212 10.4793C54.6794 11.274 54.8085 11.6714 55.0517 11.9653C55.2664 12.2249 55.5432 12.426 55.8565 12.55C56.2112 12.6905 56.629 12.6905 57.4646 12.6905H58.6346C61.6247 12.6905 63.1197 12.6905 63.6969 13.2325C64.196 13.7012 64.4207 14.3927 64.2924 15.0652C64.144 15.8431 62.9345 16.7218 60.5155 18.4793L59.5689 19.1671C58.8929 19.6582 58.5549 19.9038 58.3505 20.2259C58.17 20.5104 58.0643 20.8358 58.0431 21.172C58.0192 21.5528 58.1483 21.9501 58.4065 22.7448L58.768 23.8576C59.692 26.7013 60.154 28.1231 59.8168 28.8396C59.5253 29.4591 58.9371 29.8865 58.2578 29.9723C57.4722 30.0715 56.2627 29.1928 53.8437 27.4353L52.8971 26.7475C52.2211 26.2564 51.8831 26.0108 51.5136 25.9159C51.1873 25.8322 50.8452 25.8322 50.5189 25.9159C50.1493 26.0108 49.8113 26.2564 49.1353 26.7475L48.1887 27.4353C45.7697 29.1928 44.5602 30.0715 43.7746 29.9723C43.0953 29.8865 42.5072 29.4591 42.2156 28.8396C41.8785 28.1231 42.3405 26.7013 43.2644 23.8576L43.626 22.7448C43.8842 21.9501 44.0133 21.5528 43.9894 21.172C43.9682 20.8358 43.8625 20.5104 43.682 20.2259C43.4775 19.9038 43.1395 19.6582 42.4635 19.1671L41.517 18.4793C39.098 16.7218 37.8885 15.8431 37.7401 15.0652C37.6118 14.3927 37.8364 13.7012 38.3356 13.2325C38.9128 12.6905 40.4078 12.6905 43.3979 12.6905H44.5679C45.4035 12.6905 45.8213 12.6905 46.176 12.55C46.4892 12.426 46.7661 12.2249 46.9808 11.9653C47.224 11.6714 47.3531 11.274 47.6113 10.4793L47.9729 9.36656Z" fill="#D9D9D9"/>
<path d="M145.924 9.36656C146.848 6.52285 147.31 5.101 148.004 4.71952C148.604 4.38967 149.331 4.38967 149.931 4.71952C150.625 5.101 151.087 6.52285 152.011 9.36656L152.372 10.4793C152.631 11.274 152.76 11.6714 153.003 11.9653C153.218 12.2249 153.494 12.426 153.808 12.55C154.162 12.6905 154.58 12.6905 155.416 12.6905H156.586C159.576 12.6905 161.071 12.6905 161.648 13.2325C162.147 13.7012 162.372 14.3927 162.244 15.0652C162.095 15.8431 160.886 16.7218 158.467 18.4793L157.52 19.1671C156.844 19.6582 156.506 19.9038 156.302 20.2259C156.121 20.5104 156.015 20.8358 155.994 21.172C155.97 21.5528 156.099 21.9501 156.358 22.7448L156.719 23.8576C157.643 26.7013 158.105 28.1231 157.768 28.8396C157.476 29.4591 156.888 29.8865 156.209 29.9723C155.423 30.0715 154.214 29.1928 151.795 27.4353L150.848 26.7475C150.172 26.2564 149.834 26.0108 149.465 25.9159C149.138 25.8322 148.796 25.8322 148.47 25.9159C148.1 26.0108 147.762 26.2564 147.086 26.7475L146.14 27.4353C143.721 29.1928 142.511 30.0715 141.726 29.9723C141.047 29.8865 140.458 29.4591 140.167 28.8396C139.83 28.1231 140.292 26.7013 141.216 23.8576L141.577 22.7448C141.835 21.9501 141.964 21.5528 141.941 21.172C141.919 20.8358 141.814 20.5104 141.633 20.2259C141.429 19.9038 141.091 19.6582 140.415 19.1671L139.468 18.4793C137.049 16.7218 135.84 15.8431 135.691 15.0652C135.563 14.3927 135.788 13.7012 136.287 13.2325C136.864 12.6905 138.359 12.6905 141.349 12.6905H142.519C143.355 12.6905 143.772 12.6905 144.127 12.55C144.44 12.426 144.717 12.2249 144.932 11.9653C145.175 11.6714 145.304 11.274 145.562 10.4793L145.924 9.36656Z" fill="#D9D9D9"/>
<path d="M15.3225 9.36656C16.2464 6.52285 16.7084 5.101 17.4023 4.71952C18.0023 4.38967 18.7294 4.38967 19.3294 4.71952C20.0233 5.101 20.4852 6.52285 21.4092 9.36656L21.7708 10.4793C22.029 11.274 22.1581 11.6714 22.4013 11.9653C22.616 12.2249 22.8928 12.426 23.2061 12.55C23.5608 12.6905 23.9786 12.6905 24.8142 12.6905H25.9842C28.9743 12.6905 30.4693 12.6905 31.0465 13.2325C31.5456 13.7012 31.7703 14.3927 31.642 15.0652C31.4936 15.8431 30.2841 16.7218 27.8651 18.4793L26.9185 19.1671C26.2425 19.6582 25.9045 19.9038 25.7001 20.2259C25.5196 20.5104 25.4139 20.8358 25.3927 21.172C25.3688 21.5528 25.4979 21.9501 25.7561 22.7448L26.1176 23.8576C27.0416 26.7013 27.5036 28.1231 27.1664 28.8396C26.8749 29.4591 26.2867 29.8865 25.6075 29.9723C24.8218 30.0715 23.6123 29.1928 21.1933 27.4353L20.2468 26.7475C19.5708 26.2564 19.2328 26.0108 18.8632 25.9159C18.5369 25.8322 18.1948 25.8322 17.8685 25.9159C17.4989 26.0108 17.1609 26.2564 16.4849 26.7475L15.5383 27.4353C13.1193 29.1928 11.9098 30.0715 11.1242 29.9723C10.4449 29.8865 9.85677 29.4591 9.56524 28.8396C9.22809 28.1231 9.69008 26.7013 10.6141 23.8576L10.9756 22.7448C11.2338 21.9501 11.3629 21.5528 11.339 21.172C11.3178 20.8358 11.2121 20.5104 11.0316 20.2259C10.8271 19.9038 10.4891 19.6582 9.81315 19.1671L8.86656 18.4793C6.44756 16.7218 5.23806 15.8431 5.08968 15.0652C4.96138 14.3927 5.18605 13.7012 5.68516 13.2325C6.2624 12.6905 7.75743 12.6905 10.7475 12.6905H11.9175C12.7531 12.6905 13.1709 12.6905 13.5256 12.55C13.8388 12.426 14.1157 12.2249 14.3304 11.9653C14.5736 11.6714 14.7027 11.274 14.9609 10.4793L15.3225 9.36656Z" fill="#FDE45F"/>
<path d="M47.9729 9.36656C48.8968 6.52285 49.3588 5.101 50.0527 4.71952C50.6527 4.38967 51.3797 4.38967 51.9797 4.71952C52.6737 5.101 53.1356 6.52285 54.0596 9.36656L54.4212 10.4793C54.6794 11.274 54.8085 11.6714 55.0517 11.9653C55.2664 12.2249 55.5432 12.426 55.8565 12.55C56.2112 12.6905 56.629 12.6905 57.4646 12.6905H58.6346C61.6247 12.6905 63.1197 12.6905 63.6969 13.2325C64.196 13.7012 64.4207 14.3927 64.2924 15.0652C64.144 15.8431 62.9345 16.7218 60.5155 18.4793L59.5689 19.1671C58.8929 19.6582 58.5549 19.9038 58.3505 20.2259C58.17 20.5104 58.0643 20.8358 58.0431 21.172C58.0192 21.5528 58.1483 21.9501 58.4065 22.7448L58.768 23.8576C59.692 26.7013 60.154 28.1231 59.8168 28.8396C59.5253 29.4591 58.9371 29.8865 58.2578 29.9723C57.4722 30.0715 56.2627 29.1928 53.8437 27.4353L52.8971 26.7475C52.2211 26.2564 51.8831 26.0108 51.5136 25.9159C51.1873 25.8322 50.8452 25.8322 50.5189 25.9159C50.1493 26.0108 49.8113 26.2564 49.1353 26.7475L48.1887 27.4353C45.7697 29.1928 44.5602 30.0715 43.7746 29.9723C43.0953 29.8865 42.5072 29.4591 42.2156 28.8396C41.8785 28.1231 42.3405 26.7013 43.2644 23.8576L43.626 22.7448C43.8842 21.9501 44.0133 21.5528 43.9894 21.172C43.9682 20.8358 43.8625 20.5104 43.682 20.2259C43.4775 19.9038 43.1395 19.6582 42.4635 19.1671L41.517 18.4793C39.098 16.7218 37.8885 15.8431 37.7401 15.0652C37.6118 14.3927 37.8364 13.7012 38.3356 13.2325C38.9128 12.6905 40.4078 12.6905 43.3979 12.6905H44.5679C45.4035 12.6905 45.8213 12.6905 46.176 12.55C46.4892 12.426 46.7661 12.2249 46.9808 11.9653C47.224 11.6714 47.3531 11.274 47.6113 10.4793L47.9729 9.36656Z" fill="#FDE45F"/>
<path d="M113.322 9.36656C114.246 6.52285 114.708 5.101 115.402 4.71952C116.002 4.38967 116.729 4.38967 117.329 4.71952C118.023 5.101 118.485 6.52285 119.409 9.36656L119.771 10.4793C120.029 11.274 120.158 11.6714 120.401 11.9653C120.616 12.2249 120.893 12.426 121.206 12.55C121.561 12.6905 121.979 12.6905 122.814 12.6905H123.984C126.974 12.6905 128.469 12.6905 129.047 13.2325C129.546 13.7012 129.77 14.3927 129.642 15.0652C129.494 15.8431 128.284 16.7218 125.865 18.4793L124.919 19.1671C124.243 19.6582 123.905 19.9038 123.7 20.2259C123.52 20.5104 123.414 20.8358 123.393 21.172C123.369 21.5528 123.498 21.9501 123.756 22.7448L124.118 23.8576C125.042 26.7013 125.504 28.1231 125.166 28.8396C124.875 29.4591 124.287 29.8865 123.607 29.9723C122.822 30.0715 121.612 29.1928 119.193 27.4353L118.247 26.7475C117.571 26.2564 117.233 26.0108 116.863 25.9159C116.537 25.8322 116.195 25.8322 115.868 25.9159C115.499 26.0108 115.161 26.2564 114.485 26.7475L113.538 27.4353C111.119 29.1928 109.91 30.0715 109.124 29.9723C108.445 29.8865 107.857 29.4591 107.565 28.8396C107.228 28.1231 107.69 26.7013 108.614 23.8576L108.976 22.7448C109.234 21.9501 109.363 21.5528 109.339 21.172C109.318 20.8358 109.212 20.5104 109.032 20.2259C108.827 19.9038 108.489 19.6582 107.813 19.1671L106.867 18.4793C104.448 16.7218 103.238 15.8431 103.09 15.0652C102.961 14.3927 103.186 13.7012 103.685 13.2325C104.262 12.6905 105.757 12.6905 108.747 12.6905H109.918C110.753 12.6905 111.171 12.6905 111.526 12.55C111.839 12.426 112.116 12.2249 112.33 11.9653C112.574 11.6714 112.703 11.274 112.961 10.4793L113.322 9.36656Z" fill="#D9D9D9"/>
<path d="M83.467 5.10181V11.2238V15.2415V20.5338V22.4473V25.3812L80.6395 27.4355C78.2205 29.193 77.011 30.0717 76.2253 29.9725C75.5461 29.8867 74.9579 29.4593 74.6664 28.8398C74.3292 28.1233 74.7912 26.7015 75.7152 23.8577L76.0767 22.745C76.3349 21.9503 76.464 21.5529 76.4401 21.1722C76.4189 20.836 76.3132 20.5105 76.1327 20.2261C75.9283 19.904 75.5903 19.6584 74.9143 19.1673L73.9677 18.4795C71.5487 16.722 70.3392 15.8433 70.1908 15.0654C70.0625 14.3929 70.2872 13.7014 70.7863 13.2327C71.3635 12.6907 72.8585 12.6907 75.8486 12.6907H77.0186C77.8542 12.6907 78.272 12.6907 78.6267 12.5502C78.94 12.4262 79.2168 12.2251 79.4315 11.9655C79.6747 11.6716 79.8038 11.2742 80.062 10.4795L81.2971 6.6783C81.3575 6.4925 81.3877 6.39961 81.4223 6.31818C81.7114 5.63933 82.3508 5.17479 83.0858 5.10962C83.1739 5.10181 83.2716 5.10181 83.467 5.10181V5.10181Z" fill="#FDE45F"/>
<path d="M83.4674 5.10181V11.2238V15.2415V20.5338V22.4473V25.3812L86.2949 27.4355C88.7139 29.193 89.9234 30.0717 90.709 29.9725C91.3883 29.8867 91.9764 29.4593 92.268 28.8398C92.6051 28.1233 92.1431 26.7015 91.2192 23.8577L90.8576 22.745C90.5994 21.9503 90.4703 21.5529 90.4942 21.1722C90.5154 20.836 90.6211 20.5105 90.8016 20.2261C91.0061 19.904 91.3441 19.6584 92.0201 19.1673L92.9667 18.4795C95.3857 16.722 96.5952 15.8433 96.7435 15.0654C96.8718 14.3929 96.6472 13.7014 96.1481 13.2327C95.5708 12.6907 94.0758 12.6907 91.0857 12.6907H89.9157C89.0801 12.6907 88.6623 12.6907 88.3076 12.5502C87.9944 12.4262 87.7176 12.2251 87.5028 11.9655C87.2596 11.6716 87.1305 11.2742 86.8723 10.4795L85.6372 6.6783C85.5769 6.4925 85.5467 6.39961 85.512 6.31818C85.2229 5.63933 84.5835 5.17479 83.8486 5.10962C83.7604 5.10181 83.6627 5.10181 83.4674 5.10181V5.10181Z" fill="#D9D9D9"/>
</svg>
