<svg width="311" height="54" viewBox="0 0 311 54" fill="none" xmlns="http://www.w3.org/2000/svg">
<rect width="311" height="54" rx="7" fill="#7070FF"/>
<path d="M134.34 22.08V23.715H140.28V22.08H134.34ZM133.845 26.655V34.335H135.54V26.655H133.845ZM134.235 20.25C133.83 22.065 133.02 23.775 131.88 24.84C132.3 25.08 133.035 25.65 133.35 25.965C134.535 24.72 135.495 22.74 136.02 20.595L134.235 20.25ZM137.475 25.8L135.93 26.01C136.44 29.715 137.34 32.7 139.53 34.305C139.785 33.84 140.34 33.135 140.745 32.805C138.795 31.545 137.895 28.845 137.475 25.8ZM139.425 26.505C138.81 27.255 137.715 28.245 136.95 28.815L138 29.835C138.795 29.295 139.86 28.425 140.685 27.63L139.425 26.505ZM126.615 22.545V24.21H132.84V22.545H126.615ZM128.94 25.68V27.315H131.385V25.68H128.94ZM128.88 20.265V23.085H130.605V20.265H128.88ZM130.8 25.68V26.01C130.74 30.63 130.665 32.19 130.455 32.55C130.335 32.715 130.215 32.775 130.02 32.775C129.78 32.775 129.39 32.76 128.925 32.7C129.165 33.15 129.33 33.825 129.36 34.305C129.96 34.32 130.545 34.32 130.92 34.245C131.325 34.17 131.61 34.035 131.895 33.615C132.27 33.06 132.345 31.26 132.42 26.385C132.42 26.175 132.42 25.68 132.42 25.68H130.8ZM128.145 23.61V26.55C128.145 28.56 127.935 31.11 126.27 33.3C126.72 33.585 127.305 34.035 127.605 34.395C129.465 31.965 129.72 29.025 129.72 26.565V23.61H128.145ZM138.615 23.865C137.295 24.915 134.595 26.01 132.465 26.445C132.855 26.835 133.29 27.48 133.53 27.945C135.645 27.3 138.405 26.04 139.92 24.81L138.615 23.865ZM147.69 21.12V22.83H155.025V21.12H147.69ZM151.5 25.785V32.22C151.5 32.445 151.41 32.505 151.125 32.52C150.855 32.52 149.865 32.52 149.01 32.475C149.25 33 149.49 33.78 149.55 34.305C150.9 34.305 151.845 34.29 152.49 34.02C153.15 33.735 153.345 33.225 153.345 32.265V25.785H151.5ZM147.045 25.275V26.985H155.415V25.275H147.045ZM143.685 27.045V34.365H145.485V25.56L145.26 25.47L143.685 27.045ZM145.38 23.535C144.39 25.23 142.755 26.97 141.225 28.05C141.585 28.41 142.2 29.22 142.455 29.595C144.06 28.275 145.905 26.175 147.09 24.18L145.38 23.535ZM144.81 20.265C144.075 21.315 142.635 22.665 141.39 23.475C141.69 23.835 142.155 24.54 142.395 24.945C143.82 23.955 145.44 22.395 146.535 20.97L144.81 20.265ZM159.57 24.525V26.145H167.355V24.525H159.57ZM156.78 27.225V28.92H170.22V27.225H156.78ZM160.41 28.575C160.185 30.63 159.78 32.025 156.345 32.79C156.75 33.165 157.215 33.915 157.395 34.395C161.355 33.345 162.075 31.365 162.36 28.575H160.41ZM164.28 28.29V31.98C164.28 33.6 164.7 34.125 166.455 34.125C166.8 34.125 168.03 34.125 168.375 34.125C169.8 34.125 170.28 33.555 170.46 31.365C169.995 31.245 169.215 30.96 168.855 30.675C168.795 32.25 168.705 32.505 168.21 32.505C167.925 32.505 166.95 32.505 166.71 32.505C166.185 32.505 166.095 32.43 166.095 31.95V28.29H164.28ZM162.495 20.28V22.995H164.415V20.28H162.495ZM157.05 21.72V25.29H158.88V23.415H168V25.29H169.935V21.72H157.05ZM177.63 25.395V32.22C177.63 32.475 177.51 32.565 177.18 32.565C176.835 32.565 175.605 32.565 174.54 32.52C174.825 33.015 175.17 33.825 175.275 34.35C176.715 34.35 177.795 34.32 178.53 34.05C179.28 33.78 179.535 33.285 179.535 32.265V25.395H177.63ZM172.5 21.315V23.085H182.985V21.315H172.5ZM182.31 21.315V21.75C181.56 22.89 179.79 24.69 178.23 25.68C178.59 25.965 179.175 26.565 179.46 26.955C181.305 25.8 183.285 23.895 184.635 22.245L183.225 21.195L182.79 21.315H182.31Z" fill="#FEFEFE"/>
</svg>
