<svg width="35" height="36" viewBox="0 0 35 36" fill="none" xmlns="http://www.w3.org/2000/svg">
<g filter="url(#filter0_d_615_191)">
<path d="M13.1359 13.0065C15.4374 10.5618 19.6917 10.9032 22.0414 13.3016C24.4149 15.7243 24.4653 19.9464 22.0906 22.368C19.7727 24.7316 15.5003 24.7548 13.2083 22.366C13.1637 22.3195 13.119 22.2739 13.0744 22.2292C13.0304 22.1853 12.9855 22.1413 12.9397 22.0973C10.5611 19.8137 10.6041 15.5446 12.9357 13.213C13.0023 13.1464 13.069 13.0775 13.1359 13.0065Z" fill="#FEFEFE"/>
<path d="M13.864 13.692C15.7014 11.7403 19.2943 11.9266 21.3271 14.0014C23.3297 16.0456 23.36 19.6453 21.3766 21.6678C19.4442 23.6383 15.8219 23.6456 13.9299 21.6737C13.8807 21.6224 13.8312 21.5718 13.7815 21.5221C13.7325 21.4732 13.6827 21.4244 13.6322 21.376C11.6758 19.4976 11.6895 15.8733 13.6428 13.9201C13.7169 13.8459 13.7907 13.7698 13.864 13.692Z" stroke="#FDC15F" stroke-width="2"/>
</g>
<defs>
<filter id="filter0_d_615_191" x="0.171387" y="0.330078" width="34.6753" height="34.8191" filterUnits="userSpaceOnUse" color-interpolation-filters="sRGB">
<feFlood flood-opacity="0" result="BackgroundImageFix"/>
<feColorMatrix in="SourceAlpha" type="matrix" values="0 0 0 0 0 0 0 0 0 0 0 0 0 0 0 0 0 0 127 0" result="hardAlpha"/>
<feOffset/>
<feGaussianBlur stdDeviation="5.5"/>
<feComposite in2="hardAlpha" operator="out"/>
<feColorMatrix type="matrix" values="0 0 0 0 0.991667 0 0 0 0 0.238 0 0 0 0 0 0 0 0 1 0"/>
<feBlend mode="normal" in2="BackgroundImageFix" result="effect1_dropShadow_615_191"/>
<feBlend mode="normal" in="SourceGraphic" in2="effect1_dropShadow_615_191" result="shape"/>
</filter>
</defs>
</svg>
