<svg width="73" height="34" viewBox="0 0 73 34" fill="none" xmlns="http://www.w3.org/2000/svg">
<g filter="url(#filter0_d_1315_251)">
<g filter="url(#filter1_b_1315_251)">
<rect x="4" y="4" width="65" height="26" rx="13" fill="white" fill-opacity="0.46"/>
<path d="M27.9658 13.9297H26.5107V18.4219H26.4424L23.3564 13.9297H22.0674V21H23.5322V16.5078H23.5908L26.6963 21H27.9658V13.9297ZM29.324 19.5156C29.3289 20.5654 30.076 21.1025 31.0916 21.0977C31.8777 21.1025 32.3855 20.7559 32.6443 20.2676H32.6834V21H34.0506V17.4258C34.0555 16.1465 32.9617 15.6289 31.8045 15.6289C30.3982 15.6289 29.5975 16.3516 29.5096 17.2695H30.8865C30.9646 16.9082 31.2723 16.6885 31.7654 16.6836C32.3074 16.6885 32.6102 16.9424 32.615 17.3867V17.8164C32.3904 17.8262 31.6775 17.8604 31.2967 17.8848C30.2762 17.9482 29.3289 18.334 29.324 19.5156ZM30.7107 19.4766C30.7107 19.0664 31.0281 18.8271 31.5311 18.7832C31.7752 18.7637 32.3953 18.7295 32.615 18.7197V19.1055C32.6199 19.667 32.1609 20.0967 31.5018 20.1016C31.0379 20.0967 30.7107 19.8818 30.7107 19.4766ZM38.3971 15.6973H37.401V14.4277H35.9557V15.6973H35.2232V16.7812H35.9557V19.5742C35.9459 20.6045 36.6588 21.0732 37.7037 21.0684C38.0602 21.0732 38.3189 21.0439 38.4752 21.0195V19.877C38.2994 19.8916 38.0455 19.9062 37.899 19.9062C37.6061 19.8965 37.3961 19.7939 37.401 19.3691V16.7812H38.3971V15.6973ZM43.1537 18.7441C43.1537 19.4668 42.6557 19.8428 42.1283 19.8477C41.5619 19.8428 41.2006 19.4521 41.2006 18.8223V15.6973H39.7553V19.0762C39.7553 20.3164 40.4828 21.0684 41.5424 21.0684C42.3432 21.0684 42.9145 20.6582 43.1537 20.043H43.2123V21H44.599V15.6973H43.1537V18.7441ZM46.1721 21H47.6174V17.9824C47.6125 17.333 48.0959 16.8789 48.7502 16.8789C48.9504 16.8789 49.2287 16.9131 49.3654 16.957V15.668C49.2385 15.6387 49.0529 15.6191 48.9064 15.6191C48.3107 15.6191 47.8176 15.9658 47.6271 16.6152H47.5686V15.6973H46.1721V21ZM52.7549 21.1074C54.0635 21.1025 54.9424 20.4678 55.1475 19.4863H53.7705C53.6289 19.8037 53.2773 20.0186 52.7842 20.0234C52.0371 20.0186 51.5635 19.5254 51.5635 18.7246H55.1865V18.3145C55.1865 16.5078 54.0879 15.6289 52.6963 15.6289C51.1436 15.6289 50.1328 16.7373 50.1377 18.373C50.1328 20.0527 51.1289 21.1025 52.7549 21.1074ZM51.5635 17.8164C51.5928 17.2061 52.0615 16.708 52.7256 16.7129C53.3701 16.708 53.8145 17.1719 53.8193 17.8164H51.5635Z" fill="#FEFEFE"/>
</g>
<path fill-rule="evenodd" clip-rule="evenodd" d="M15 19.3293C16.1652 18.9175 17 17.8062 17 16.5C17 14.8431 15.6569 13.5 14 13.5C12.3431 13.5 11 14.8431 11 16.5C11 17.8062 11.8348 18.9175 13 19.3293V17.5C13 16.9477 13.4477 16.5 14 16.5C14.5523 16.5 15 16.9477 15 17.5V19.3293ZM14.6 19.44V17.5C14.6 17.1686 14.3314 16.9 14 16.9C13.6686 16.9 13.4 17.1686 13.4 17.5V19.44C13.5939 19.4793 13.7945 19.5 14 19.5C14.2055 19.5 14.4061 19.4793 14.6 19.44Z" fill="#1DD185"/>
<path fill-rule="evenodd" clip-rule="evenodd" d="M13.9999 18.5H13.3999V21.5H13.9999V18.5ZM14.6 18.5H14V21.5H14.6V18.5Z" fill="#1DD185"/>
</g>
<defs>
<filter id="filter0_d_1315_251" x="0" y="0" width="73" height="34" filterUnits="userSpaceOnUse" color-interpolation-filters="sRGB">
<feFlood flood-opacity="0" result="BackgroundImageFix"/>
<feColorMatrix in="SourceAlpha" type="matrix" values="0 0 0 0 0 0 0 0 0 0 0 0 0 0 0 0 0 0 127 0" result="hardAlpha"/>
<feOffset/>
<feGaussianBlur stdDeviation="2"/>
<feComposite in2="hardAlpha" operator="out"/>
<feColorMatrix type="matrix" values="0 0 0 0 0 0 0 0 0 0 0 0 0 0 0 0 0 0 0.25 0"/>
<feBlend mode="normal" in2="BackgroundImageFix" result="effect1_dropShadow_1315_251"/>
<feBlend mode="normal" in="SourceGraphic" in2="effect1_dropShadow_1315_251" result="shape"/>
</filter>
<filter id="filter1_b_1315_251" x="0" y="0" width="73" height="34" filterUnits="userSpaceOnUse" color-interpolation-filters="sRGB">
<feFlood flood-opacity="0" result="BackgroundImageFix"/>
<feGaussianBlur in="BackgroundImageFix" stdDeviation="2"/>
<feComposite in2="SourceAlpha" operator="in" result="effect1_backgroundBlur_1315_251"/>
<feBlend mode="normal" in="SourceGraphic" in2="effect1_backgroundBlur_1315_251" result="shape"/>
</filter>
</defs>
</svg>
