<svg width="109" height="30" viewBox="0 0 109 30" fill="none" xmlns="http://www.w3.org/2000/svg">
<path d="M95.5148 7.68328C95.9768 6.26143 96.2078 5.5505 96.5548 5.35976C96.8548 5.19484 97.2183 5.19484 97.5183 5.35976C97.8652 5.5505 98.0962 6.26143 98.5582 7.68328L99.3633 10.1609C99.4924 10.5583 99.5569 10.757 99.6785 10.9039C99.7859 11.0337 99.9243 11.1343 100.081 11.1963C100.258 11.2665 100.467 11.2665 100.885 11.2665H103.49C104.985 11.2665 105.733 11.2665 106.021 11.5375C106.271 11.7719 106.383 12.1176 106.319 12.4539C106.245 12.8428 105.64 13.2822 104.431 14.1609L102.323 15.6922C101.985 15.9378 101.816 16.0606 101.714 16.2216C101.623 16.3639 101.571 16.5266 101.56 16.6947C101.548 16.8851 101.613 17.0837 101.742 17.4811L102.547 19.9587C103.009 21.3806 103.24 22.0915 103.071 22.4498C102.925 22.7595 102.631 22.9732 102.292 23.0161C101.899 23.0657 101.294 22.6263 100.085 21.7476L97.977 20.2163C97.639 19.9707 97.47 19.848 97.2852 19.8005C97.1221 19.7586 96.951 19.7586 96.7878 19.8005C96.6031 19.848 96.4341 19.9707 96.0961 20.2163L93.9885 21.7476C92.779 22.6263 92.1742 23.0657 91.7814 23.0161C91.4418 22.9732 91.1477 22.7595 91.0019 22.4498C90.8333 22.0915 91.0643 21.3806 91.5263 19.9587L92.3313 17.4811C92.4605 17.0837 92.525 16.8851 92.513 16.6947C92.5024 16.5266 92.4496 16.3639 92.3593 16.2216C92.2571 16.0606 92.0881 15.9378 91.7501 15.6922L89.6425 14.1609C88.433 13.2822 87.8282 12.8428 87.754 12.4539C87.6899 12.1176 87.8022 11.7719 88.0518 11.5375C88.3404 11.2665 89.0879 11.2665 90.5829 11.2665H93.1881C93.6059 11.2665 93.8148 11.2665 93.9922 11.1963C94.1488 11.1343 94.2872 11.0337 94.3946 10.9039C94.5161 10.757 94.5807 10.5583 94.7098 10.1609L95.5148 7.68328Z" fill="#D9D9D9"/>
<path d="M74.4417 7.68328C74.9037 6.26143 75.1347 5.5505 75.4817 5.35976C75.7817 5.19484 76.1452 5.19484 76.4452 5.35976C76.7921 5.5505 77.0231 6.26143 77.4851 7.68328L78.2901 10.1609C78.4193 10.5583 78.4838 10.757 78.6054 10.9039C78.7128 11.0337 78.8512 11.1343 79.0078 11.1963C79.1852 11.2665 79.394 11.2665 79.8118 11.2665H82.417C83.912 11.2665 84.6595 11.2665 84.9482 11.5375C85.1977 11.7719 85.31 12.1176 85.2459 12.4539C85.1717 12.8428 84.567 13.2822 83.3575 14.1609L81.2498 15.6922C80.9118 15.9378 80.7428 16.0606 80.6406 16.2216C80.5504 16.3639 80.4975 16.5266 80.4869 16.6947C80.4749 16.8851 80.5395 17.0837 80.6686 17.4811L81.4736 19.9587C81.9356 21.3806 82.1666 22.0915 81.998 22.4498C81.8523 22.7595 81.5582 22.9732 81.2186 23.0161C80.8257 23.0657 80.221 22.6263 79.0115 21.7476L76.9039 20.2163C76.5659 19.9707 76.3969 19.848 76.2121 19.8005C76.049 19.7586 75.8779 19.7586 75.7147 19.8005C75.53 19.848 75.361 19.9707 75.023 20.2163L72.9153 21.7476C71.7058 22.6263 71.1011 23.0657 70.7083 23.0161C70.3686 22.9732 70.0745 22.7595 69.9288 22.4498C69.7602 22.0915 69.9912 21.3806 70.4532 19.9587L71.2582 17.4811C71.3873 17.0837 71.4519 16.8851 71.4399 16.6947C71.4293 16.5266 71.3765 16.3639 71.2862 16.2216C71.184 16.0606 71.015 15.9378 70.677 15.6922L68.5694 14.1609C67.3599 13.2822 66.7551 12.8428 66.6809 12.4539C66.6168 12.1176 66.7291 11.7719 66.9787 11.5375C67.2673 11.2665 68.0148 11.2665 69.5098 11.2665H72.115C72.5328 11.2665 72.7417 11.2665 72.919 11.1963C73.0757 11.1343 73.2141 11.0337 73.3214 10.9039C73.443 10.757 73.5076 10.5583 73.6367 10.1609L74.4417 7.68328Z" fill="#D9D9D9"/>
<path d="M52.9417 7.68328C53.4037 6.26143 53.6347 5.5505 53.9817 5.35976C54.2817 5.19484 54.6452 5.19484 54.9452 5.35976C55.2921 5.5505 55.5231 6.26143 55.9851 7.68328L56.7901 10.1609C56.9193 10.5583 56.9838 10.757 57.1054 10.9039C57.2128 11.0337 57.3512 11.1343 57.5078 11.1963C57.6852 11.2665 57.894 11.2665 58.3118 11.2665H60.917C62.412 11.2665 63.1595 11.2665 63.4482 11.5375C63.6977 11.7719 63.81 12.1176 63.7459 12.4539C63.6717 12.8428 63.067 13.2822 61.8575 14.1609L59.7498 15.6922C59.4118 15.9378 59.2428 16.0606 59.1406 16.2216C59.0504 16.3639 58.9975 16.5266 58.9869 16.6947C58.9749 16.8851 59.0395 17.0837 59.1686 17.4811L59.9736 19.9587C60.4356 21.3806 60.6666 22.0915 60.498 22.4498C60.3523 22.7595 60.0582 22.9732 59.7186 23.0161C59.3257 23.0657 58.721 22.6263 57.5115 21.7476L55.4039 20.2163C55.0659 19.9707 54.8969 19.848 54.7121 19.8005C54.549 19.7586 54.3779 19.7586 54.2147 19.8005C54.03 19.848 53.861 19.9707 53.523 20.2163L51.4153 21.7476C50.2058 22.6263 49.6011 23.0657 49.2083 23.0161C48.8686 22.9732 48.5745 22.7595 48.4288 22.4498C48.2602 22.0915 48.4912 21.3806 48.9532 19.9587L49.7582 17.4811C49.8873 17.0837 49.9519 16.8851 49.9399 16.6947C49.9293 16.5266 49.8765 16.3639 49.7862 16.2216C49.684 16.0606 49.515 15.9378 49.177 15.6922L47.0694 14.1609C45.8599 13.2822 45.2551 12.8428 45.1809 12.4539C45.1168 12.1176 45.2291 11.7719 45.4787 11.5375C45.7673 11.2665 46.5148 11.2665 48.0098 11.2665H50.615C51.0328 11.2665 51.2417 11.2665 51.419 11.1963C51.5757 11.1343 51.7141 11.0337 51.8214 10.9039C51.943 10.757 52.0076 10.5583 52.1367 10.1609L52.9417 7.68328Z" fill="#D9D9D9"/>
<path d="M32.4417 7.68328C32.9037 6.26143 33.1347 5.5505 33.4817 5.35976C33.7817 5.19484 34.1452 5.19484 34.4452 5.35976C34.7921 5.5505 35.0231 6.26143 35.4851 7.68328L36.2901 10.1609C36.4193 10.5583 36.4838 10.757 36.6054 10.9039C36.7128 11.0337 36.8512 11.1343 37.0078 11.1963C37.1852 11.2665 37.394 11.2665 37.8118 11.2665H40.417C41.912 11.2665 42.6595 11.2665 42.9482 11.5375C43.1977 11.7719 43.31 12.1176 43.2459 12.4539C43.1717 12.8428 42.567 13.2822 41.3575 14.1609L39.2498 15.6922C38.9118 15.9378 38.7428 16.0606 38.6406 16.2216C38.5504 16.3639 38.4975 16.5266 38.4869 16.6947C38.4749 16.8851 38.5395 17.0837 38.6686 17.4811L39.4736 19.9587C39.9356 21.3806 40.1666 22.0915 39.998 22.4498C39.8523 22.7595 39.5582 22.9732 39.2186 23.0161C38.8257 23.0657 38.221 22.6263 37.0115 21.7476L34.9039 20.2163C34.5659 19.9707 34.3969 19.848 34.2121 19.8005C34.049 19.7586 33.8779 19.7586 33.7147 19.8005C33.53 19.848 33.361 19.9707 33.023 20.2163L30.9153 21.7476C29.7058 22.6263 29.1011 23.0657 28.7083 23.0161C28.3686 22.9732 28.0745 22.7595 27.9288 22.4498C27.7602 22.0915 27.9912 21.3806 28.4532 19.9587L29.2582 17.4811C29.3873 17.0837 29.4519 16.8851 29.4399 16.6947C29.4293 16.5266 29.3765 16.3639 29.2862 16.2216C29.184 16.0606 29.015 15.9378 28.677 15.6922L26.5694 14.1609C25.3599 13.2822 24.7551 12.8428 24.6809 12.4539C24.6168 12.1176 24.7291 11.7719 24.9787 11.5375C25.2673 11.2665 26.0148 11.2665 27.5098 11.2665H30.115C30.5328 11.2665 30.7417 11.2665 30.919 11.1963C31.0757 11.1343 31.2141 11.0337 31.3214 10.9039C31.443 10.757 31.5076 10.5583 31.6367 10.1609L32.4417 7.68328Z" fill="#D9D9D9"/>
<path d="M12.3779 5.5V10.311V12.9282V16.3756V17.622V19.5331L9.3298 21.7477C8.1203 22.6264 7.51555 23.0658 7.12274 23.0162C6.7831 22.9733 6.48901 22.7596 6.34325 22.4498C6.17467 22.0916 6.40567 21.3807 6.86765 19.9588L7.6727 17.4811C7.8018 17.0838 7.86635 16.8851 7.85438 16.6948C7.8438 16.5266 7.79093 16.3639 7.70068 16.2217C7.59846 16.0607 7.42946 15.9379 7.09146 15.6923L4.98384 14.161C3.77434 13.2823 3.16959 12.8429 3.0954 12.454C3.03125 12.1177 3.14358 11.772 3.39314 11.5376C3.68176 11.2666 4.42927 11.2666 5.92429 11.2666H8.57767C8.97927 11.2666 9.18007 11.2666 9.35246 11.2007C9.50474 11.1425 9.64049 11.048 9.74788 10.9253C9.86945 10.7865 9.93909 10.5982 10.0784 10.2215L10.53 9L11.03 7.5L11.3244 6.32254C11.4452 5.83913 11.8796 5.5 12.3779 5.5V5.5Z" fill="#FDE45F"/>
<path d="M12.3782 5.5V10.311V12.9282V16.3756V17.622V19.5331L15.4263 21.7477C16.6358 22.6264 17.2406 23.0658 17.6334 23.0162C17.973 22.9733 18.2671 22.7596 18.4129 22.4498C18.5814 22.0916 18.3504 21.3807 17.8884 19.9588L17.0834 17.4811C16.9543 17.0838 16.8898 16.8851 16.9017 16.6948C16.9123 16.5266 16.9652 16.3639 17.0554 16.2217C17.1576 16.0607 17.3266 15.9379 17.6646 15.6923L19.7723 14.161C20.9818 13.2823 21.5865 12.8429 21.6607 12.454C21.7249 12.1177 21.6125 11.772 21.363 11.5376C21.0743 11.2666 20.3268 11.2666 18.8318 11.2666H16.1742C15.774 11.2666 15.574 11.2666 15.402 11.2011C15.2501 11.1432 15.1146 11.0492 15.0072 10.9272C14.8857 10.7891 14.8156 10.6017 14.6755 10.2268L14.03 8.5L13.2361 6.11836C13.1131 5.74908 12.7675 5.5 12.3782 5.5V5.5Z" fill="#D9D9D9"/>
</svg>
