<svg width="302" height="140" viewBox="0 0 302 140" fill="none" xmlns="http://www.w3.org/2000/svg">
<mask id="path-1-outside-1_619_192" maskUnits="userSpaceOnUse" x="0" y="0" width="303" height="140" fill="black">
<rect fill="white" width="303" height="140"/>
<path fill-rule="evenodd" clip-rule="evenodd" d="M29.5352 7H271.553C276.187 16.4182 284.618 23.8476 295 27.5526L295 29.2769C292.483 29.2769 290.443 31.1949 290.443 33.5608C290.443 35.9268 292.483 37.8448 295 37.8448V43.8423C292.483 43.8423 290.443 45.7603 290.443 48.1263C290.443 50.4923 292.483 52.4103 295 52.4103V58.4078C292.483 58.4078 290.443 60.3258 290.443 62.6918C290.443 65.0578 292.483 66.9758 295 66.9758V72.9735C292.483 72.9735 290.443 74.8915 290.443 77.2575C290.443 79.6235 292.483 81.5415 295 81.5415V87.5391C292.483 87.5391 290.443 89.4571 290.443 91.8231C290.443 94.189 292.483 96.107 295 96.107V102.105C292.483 102.105 290.443 104.023 290.443 106.389C290.443 108.755 292.483 110.673 295 110.673L295 111.54C284.306 115.357 275.681 123.125 271.145 132.949H29.9438C25.537 123.406 17.2724 115.802 7 111.877V110.673C9.51666 110.673 11.5568 108.755 11.5568 106.389C11.5568 104.023 9.51666 102.105 7 102.105V96.107C9.51666 96.107 11.5568 94.189 11.5568 91.8231C11.5568 89.4571 9.51666 87.5391 7 87.5391V81.5415C9.51666 81.5414 11.5568 79.6234 11.5568 77.2575C11.5568 74.8916 9.51666 72.9736 7 72.9735V66.9758C9.51666 66.9757 11.5568 65.0578 11.5568 62.6918C11.5568 60.3259 9.51666 58.4079 7 58.4078V52.4103C9.51666 52.4102 11.5568 50.4922 11.5568 48.1263C11.5568 45.7603 9.51666 43.8424 7 43.8423V37.8448C9.51666 37.8448 11.5568 35.9268 11.5568 33.5608C11.5568 31.1949 9.51666 29.2769 7 29.2769V27.2158C16.963 23.4086 25.0374 16.141 29.5352 7Z"/>
</mask>
<path fill-rule="evenodd" clip-rule="evenodd" d="M29.5352 7H271.553C276.187 16.4182 284.618 23.8476 295 27.5526L295 29.2769C292.483 29.2769 290.443 31.1949 290.443 33.5608C290.443 35.9268 292.483 37.8448 295 37.8448V43.8423C292.483 43.8423 290.443 45.7603 290.443 48.1263C290.443 50.4923 292.483 52.4103 295 52.4103V58.4078C292.483 58.4078 290.443 60.3258 290.443 62.6918C290.443 65.0578 292.483 66.9758 295 66.9758V72.9735C292.483 72.9735 290.443 74.8915 290.443 77.2575C290.443 79.6235 292.483 81.5415 295 81.5415V87.5391C292.483 87.5391 290.443 89.4571 290.443 91.8231C290.443 94.189 292.483 96.107 295 96.107V102.105C292.483 102.105 290.443 104.023 290.443 106.389C290.443 108.755 292.483 110.673 295 110.673L295 111.54C284.306 115.357 275.681 123.125 271.145 132.949H29.9438C25.537 123.406 17.2724 115.802 7 111.877V110.673C9.51666 110.673 11.5568 108.755 11.5568 106.389C11.5568 104.023 9.51666 102.105 7 102.105V96.107C9.51666 96.107 11.5568 94.189 11.5568 91.8231C11.5568 89.4571 9.51666 87.5391 7 87.5391V81.5415C9.51666 81.5414 11.5568 79.6234 11.5568 77.2575C11.5568 74.8916 9.51666 72.9736 7 72.9735V66.9758C9.51666 66.9757 11.5568 65.0578 11.5568 62.6918C11.5568 60.3259 9.51666 58.4079 7 58.4078V52.4103C9.51666 52.4102 11.5568 50.4922 11.5568 48.1263C11.5568 45.7603 9.51666 43.8424 7 43.8423V37.8448C9.51666 37.8448 11.5568 35.9268 11.5568 33.5608C11.5568 31.1949 9.51666 29.2769 7 29.2769V27.2158C16.963 23.4086 25.0374 16.141 29.5352 7Z" fill="#FEFEFE"/>
<path d="M271.553 7L277.834 3.90954L275.91 0H271.553V7ZM29.5352 7V0H25.1781L23.2544 3.90953L29.5352 7ZM295 27.5526L302 27.5532L302 22.6185L297.353 20.9599L295 27.5526ZM295 29.2769V36.2769H301.999L302 29.2775L295 29.2769ZM295 37.8448H302V30.8448H295V37.8448ZM295 43.8423V50.8423H302V43.8423H295ZM295 52.4103H302V45.4103H295V52.4103ZM295 58.4078V65.4078H302V58.4078H295ZM295 66.9758H302V59.9758H295V66.9758ZM295 72.9735V79.9735H302V72.9735H295ZM295 81.5415H302V74.5415H295V81.5415ZM295 87.5391V94.5391H302V87.5391H295ZM295 96.107H302V89.107H295V96.107ZM295 102.105V109.105H302V102.105H295ZM295 110.673L302 110.671L301.999 103.673H295V110.673ZM295 111.54L297.353 118.133L302.001 116.474L302 111.539L295 111.54ZM271.145 132.949V139.949H275.623L277.5 135.884L271.145 132.949ZM29.9438 132.949L23.5886 135.884L25.4659 139.949H29.9438V132.949ZM7 111.877H0V116.695L4.50126 118.416L7 111.877ZM7 110.673L6.99977 103.673L0 103.673V110.673H7ZM7 102.105H0V109.104L6.99977 109.105L7 102.105ZM7 96.107L6.99977 89.107L0 89.1073V96.107H7ZM7 87.5391H0V94.5388L6.99977 94.5391L7 87.5391ZM7 81.5415L6.99977 74.5415L0 74.5417V81.5415H7ZM7 72.9735H0V79.9733L6.99977 79.9735L7 72.9735ZM7 66.9758L6.99977 59.9758L0 59.9761V66.9758H7ZM7 58.4078H0V65.4076L6.99977 65.4078L7 58.4078ZM7 52.4103L6.99977 45.4103L0 45.4105V52.4103H7ZM7 43.8423H0V50.8421L6.99977 50.8423L7 43.8423ZM7 37.8448L6.99977 30.8448L0 30.8451V37.8448H7ZM7 29.2769H0V36.2766L6.99977 36.2769L7 29.2769ZM7 27.2158L4.50126 20.677L0 22.3971V27.2158H7ZM271.553 0H29.5352V14H271.553V0ZM297.353 20.9599C288.612 17.8404 281.63 11.6244 277.834 3.90954L265.272 10.0905C270.745 21.212 280.625 29.8548 292.647 34.1453L297.353 20.9599ZM302 29.2775L302 27.5532L288 27.552L288 29.2762L302 29.2775ZM297.443 33.5608C297.443 35.4619 295.935 36.2769 295 36.2769V22.2769C289.031 22.2769 283.443 26.9278 283.443 33.5608H297.443ZM295 30.8448C295.935 30.8448 297.443 31.6598 297.443 33.5608H283.443C283.443 40.1939 289.031 44.8448 295 44.8448V30.8448ZM302 43.8423V37.8448H288V43.8423H302ZM297.443 48.1263C297.443 50.0274 295.935 50.8423 295 50.8423V36.8423C289.031 36.8423 283.443 41.4932 283.443 48.1263H297.443ZM295 45.4103C295.935 45.4103 297.443 46.2252 297.443 48.1263H283.443C283.443 54.7593 289.031 59.4103 295 59.4103V45.4103ZM302 58.4078V52.4103H288V58.4078H302ZM297.443 62.6918C297.443 64.5929 295.935 65.4078 295 65.4078V51.4078C289.031 51.4078 283.443 56.0588 283.443 62.6918H297.443ZM295 59.9758C295.935 59.9758 297.443 60.7908 297.443 62.6918H283.443C283.443 69.3249 289.031 73.9758 295 73.9758V59.9758ZM302 72.9735V66.9758H288V72.9735H302ZM297.443 77.2575C297.443 79.1586 295.935 79.9735 295 79.9735V65.9735C289.031 65.9735 283.443 70.6244 283.443 77.2575H297.443ZM295 74.5415C295.935 74.5415 297.443 75.3564 297.443 77.2575H283.443C283.443 83.8905 289.031 88.5415 295 88.5415V74.5415ZM302 87.5391V81.5415H288V87.5391H302ZM297.443 91.8231C297.443 93.7241 295.935 94.5391 295 94.5391V80.5391C289.031 80.5391 283.443 85.19 283.443 91.8231H297.443ZM295 89.107C295.935 89.107 297.443 89.922 297.443 91.8231H283.443C283.443 98.4561 289.031 103.107 295 103.107V89.107ZM302 102.105V96.107H288V102.105H302ZM297.443 106.389C297.443 108.29 295.935 109.105 295 109.105V95.1046C289.031 95.1046 283.443 99.7556 283.443 106.389H297.443ZM295 103.673C295.935 103.673 297.443 104.488 297.443 106.389H283.443C283.443 113.022 289.031 117.673 295 117.673V103.673ZM302 111.539L302 110.671L288 110.674L288 111.541L302 111.539ZM277.5 135.884C281.212 127.846 288.347 121.347 297.353 118.133L292.647 104.947C280.264 109.366 270.15 118.405 264.789 130.015L277.5 135.884ZM29.9438 139.949H271.145V125.949H29.9438V139.949ZM4.50126 118.416C13.1475 121.72 19.9831 128.076 23.5886 135.884L36.2989 130.015C31.0909 118.736 21.3972 109.885 9.49874 105.338L4.50126 118.416ZM0 110.673V111.877H14V110.673H0ZM4.5568 106.389C4.5568 104.488 6.06415 103.673 6.99977 103.673L7.00023 117.673C12.9692 117.672 18.5568 113.021 18.5568 106.389H4.5568ZM6.99977 109.105C6.06415 109.105 4.5568 108.29 4.5568 106.389H18.5568C18.5568 99.7557 12.9692 95.1048 7.00023 95.1046L6.99977 109.105ZM0 96.107V102.105H14V96.107H0ZM4.5568 91.8231C4.5568 89.922 6.06415 89.1071 6.99977 89.107L7.00023 103.107C12.9692 103.107 18.5568 98.4559 18.5568 91.8231H4.5568ZM6.99977 94.5391C6.06415 94.539 4.5568 93.7241 4.5568 91.8231H18.5568C18.5568 85.1902 12.9692 80.5393 7.00023 80.5391L6.99977 94.5391ZM0 81.5415V87.5391H14V81.5415H0ZM4.5568 77.2575C4.5568 75.3565 6.06415 74.5415 6.99977 74.5415L7.00023 88.5415C12.9692 88.5413 18.5568 83.8904 18.5568 77.2575H4.5568ZM6.99977 79.9735C6.06415 79.9735 4.5568 79.1585 4.5568 77.2575H18.5568C18.5568 70.6246 12.9692 65.9737 7.00023 65.9735L6.99977 79.9735ZM0 66.9758V72.9735H14V66.9758H0ZM4.5568 62.6918C4.5568 60.7908 6.06415 59.9759 6.99977 59.9758L7.00023 73.9758C12.9692 73.9756 18.5568 69.3247 18.5568 62.6918H4.5568ZM6.99977 65.4078C6.06415 65.4078 4.5568 64.5928 4.5568 62.6918H18.5568C18.5568 56.0589 12.9692 51.408 7.00023 51.4078L6.99977 65.4078ZM0 52.4103V58.4078H14V52.4103H0ZM4.5568 48.1263C4.5568 46.2253 6.06415 45.4103 6.99977 45.4103L7.00023 59.4103C12.9692 59.4101 18.5568 54.7592 18.5568 48.1263H4.5568ZM6.99977 50.8423C6.06415 50.8423 4.5568 50.0273 4.5568 48.1263H18.5568C18.5568 41.4934 12.9692 36.8425 7.00023 36.8423L6.99977 50.8423ZM0 37.8448V43.8423H14V37.8448H0ZM4.5568 33.5608C4.5568 31.6598 6.06415 30.8449 6.99977 30.8448L7.00023 44.8448C12.9692 44.8446 18.5568 40.1937 18.5568 33.5608H4.5568ZM6.99977 36.2769C6.06415 36.2768 4.5568 35.4619 4.5568 33.5608H18.5568C18.5568 26.928 12.9692 22.2771 7.00023 22.2769L6.99977 36.2769ZM0 27.2158V29.2769H14V27.2158H0ZM23.2544 3.90953C19.5703 11.3968 12.8857 17.473 4.50126 20.677L9.49874 33.7547C21.0403 29.3442 30.5046 20.8852 35.8161 10.0905L23.2544 3.90953Z" fill="url(#paint0_linear_619_192)" mask="url(#path-1-outside-1_619_192)"/>
<path fill-rule="evenodd" clip-rule="evenodd" d="M39.6574 14H261.507C265.755 22.339 273.484 28.9172 283 32.1976L283 33.7242C280.693 33.7242 278.823 35.4225 278.823 37.5174C278.823 39.6122 280.693 41.3105 283 41.3105V46.6207C280.693 46.6207 278.823 48.319 278.823 50.4138C278.823 52.5087 280.693 54.207 283 54.207V59.5173C280.693 59.5173 278.823 61.2156 278.823 63.3105C278.823 65.4053 280.693 67.1036 283 67.1036V72.4141C280.693 72.4141 278.823 74.1123 278.823 76.2072C278.823 78.3021 280.693 80.0003 283 80.0003V85.3107C280.693 85.3107 278.823 87.0089 278.823 89.1038C278.823 91.1987 280.693 92.8969 283 92.8969V98.2072C280.693 98.2072 278.823 99.9054 278.823 102C278.823 104.095 280.693 105.793 283 105.793L283 106.562C273.197 109.941 265.291 116.82 261.133 125.518H40.0319C35.9923 117.068 28.4164 110.335 19 106.86V105.793C21.3069 105.793 23.1771 104.095 23.1771 102C23.1771 99.9054 21.3069 98.2072 19 98.2072V92.8969C21.3069 92.8968 23.1771 91.1986 23.1771 89.1038C23.1771 87.0089 21.3069 85.3107 19 85.3107V80.0003C21.3069 80.0002 23.1771 78.302 23.1771 76.2072C23.1771 74.1123 21.3069 72.4141 19 72.4141V67.1036C21.3069 67.1035 23.1771 65.4053 23.1771 63.3105C23.1771 61.2156 21.3069 59.5174 19 59.5173V54.207C21.3069 54.2069 23.1771 52.5087 23.1771 50.4138C23.1771 48.319 21.3069 46.6208 19 46.6207V41.3105C21.3069 41.3104 23.1771 39.6122 23.1771 37.5174C23.1771 35.4225 21.3069 33.7243 19 33.7242V31.8995C28.1329 28.5285 35.5344 22.0937 39.6574 14Z" fill="#FEFEFE"/>
<path d="M261.507 14L262.176 13.6596L261.967 13.25H261.507V14ZM39.6574 14V13.25H39.1978L38.9892 13.6596L39.6574 14ZM283 32.1976L283.75 32.1977L283.75 31.6629L283.244 31.4886L283 32.1976ZM283 33.7242V34.4742H283.75L283.75 33.7243L283 33.7242ZM283 41.3105H283.75V40.5605H283V41.3105ZM283 46.6207V47.3707H283.75V46.6207H283ZM283 54.207H283.75V53.457H283V54.207ZM283 59.5173V60.2673H283.75V59.5173H283ZM283 67.1036H283.75V66.3536H283V67.1036ZM283 72.4141V73.1641H283.75V72.4141H283ZM283 80.0003H283.75V79.2503H283V80.0003ZM283 85.3107V86.0607H283.75V85.3107H283ZM283 92.8969H283.75V92.1469H283V92.8969ZM283 98.2072V98.9572H283.75V98.2072H283ZM283 105.793L283.75 105.793L283.75 105.043H283V105.793ZM283 106.562L283.244 107.271L283.75 107.096L283.75 106.561L283 106.562ZM261.133 125.518V126.268H261.606L261.809 125.841L261.133 125.518ZM40.0319 125.518L39.3552 125.841L39.5591 126.268H40.0319V125.518ZM19 106.86H18.25V107.382L18.7403 107.563L19 106.86ZM19 105.793L19 105.043L18.25 105.043V105.793H19ZM19 98.2072H18.25V98.9571L19 98.9572L19 98.2072ZM19 92.8969L19 92.1469L18.25 92.1469V92.8969H19ZM19 85.3107H18.25V86.0606L19 86.0607L19 85.3107ZM19 80.0003L19 79.2503L18.25 79.2503V80.0003H19ZM19 72.4141H18.25V73.164L19 73.1641L19 72.4141ZM19 67.1036L19 66.3536L18.25 66.3536V67.1036H19ZM19 59.5173H18.25V60.2673L19 60.2673L19 59.5173ZM19 54.207L19 53.457L18.25 53.457V54.207H19ZM19 46.6207H18.25V47.3707L19 47.3707L19 46.6207ZM19 41.3105L19 40.5605L18.25 40.5605V41.3105H19ZM19 33.7242H18.25V34.4742L19 34.4742L19 33.7242ZM19 31.8995L18.7403 31.1959L18.25 31.3769V31.8995H19ZM261.507 13.25H39.6574V14.75H261.507V13.25ZM283.244 31.4886C273.899 28.267 266.329 21.8136 262.176 13.6596L260.839 14.3404C265.181 22.8645 273.068 29.5674 282.756 32.9067L283.244 31.4886ZM283.75 33.7243L283.75 32.1977L282.25 32.1976L282.25 33.7242L283.75 33.7243ZM279.573 37.5174C279.573 35.9031 281.037 34.4742 283 34.4742V32.9742C280.348 32.9742 278.073 34.9418 278.073 37.5174H279.573ZM283 40.5605C281.037 40.5605 279.573 39.1316 279.573 37.5174H278.073C278.073 40.0929 280.348 42.0605 283 42.0605V40.5605ZM283.75 46.6207V41.3105H282.25V46.6207H283.75ZM279.573 50.4138C279.573 48.7996 281.037 47.3707 283 47.3707V45.8707C280.348 45.8707 278.073 47.8383 278.073 50.4138H279.573ZM283 53.457C281.037 53.457 279.573 52.0281 279.573 50.4138H278.073C278.073 52.9894 280.348 54.957 283 54.957V53.457ZM283.75 59.5173V54.207H282.25V59.5173H283.75ZM279.573 63.3105C279.573 61.6962 281.037 60.2673 283 60.2673V58.7673C280.348 58.7673 278.073 60.7349 278.073 63.3105H279.573ZM283 66.3536C281.037 66.3536 279.573 64.9247 279.573 63.3105H278.073C278.073 65.886 280.348 67.8536 283 67.8536V66.3536ZM283.75 72.4141V67.1036H282.25V72.4141H283.75ZM279.573 76.2072C279.573 74.5929 281.037 73.1641 283 73.1641V71.6641C280.348 71.6641 278.073 73.6317 278.073 76.2072H279.573ZM283 79.2503C281.037 79.2503 279.573 77.8214 279.573 76.2072H278.073C278.073 78.7827 280.348 80.7503 283 80.7503V79.2503ZM283.75 85.3107V80.0003H282.25V85.3107H283.75ZM279.573 89.1038C279.573 87.4895 281.037 86.0607 283 86.0607V84.5607C280.348 84.5607 278.073 86.5283 278.073 89.1038H279.573ZM283 92.1469C281.037 92.1469 279.573 90.718 279.573 89.1038H278.073C278.073 91.6793 280.348 93.6469 283 93.6469V92.1469ZM283.75 98.2072V92.8969H282.25V98.2072H283.75ZM279.573 102C279.573 100.386 281.037 98.9572 283 98.9572V97.4572C280.348 97.4572 278.073 99.4247 278.073 102H279.573ZM283 105.043C281.037 105.043 279.573 103.615 279.573 102H278.073C278.073 104.576 280.348 106.543 283 106.543V105.043ZM283.75 106.561L283.75 105.793L282.25 105.794L282.25 106.562L283.75 106.561ZM261.809 125.841C265.875 117.337 273.617 110.589 283.244 107.271L282.756 105.852C272.777 109.292 264.707 116.302 260.456 125.194L261.809 125.841ZM40.0319 126.268H261.133V124.768H40.0319V126.268ZM18.7403 107.563C27.9872 110.976 35.406 117.58 39.3552 125.841L40.7085 125.194C36.5787 116.556 28.8455 109.694 19.2597 106.156L18.7403 107.563ZM18.25 105.793V106.86H19.75V105.793H18.25ZM22.4271 102C22.4271 103.614 20.9624 105.043 19 105.043L19 106.543C21.6515 106.543 23.9271 104.576 23.9271 102H22.4271ZM19 98.9572C20.9624 98.9572 22.4271 100.386 22.4271 102H23.9271C23.9271 99.4248 21.6515 97.4572 19 97.4572L19 98.9572ZM18.25 92.8969V98.2072H19.75V92.8969H18.25ZM22.4271 89.1038C22.4271 90.718 20.9624 92.1468 19 92.1469L19 93.6469C21.6515 93.6468 23.9271 91.6793 23.9271 89.1038H22.4271ZM19 86.0607C20.9624 86.0607 22.4271 87.4896 22.4271 89.1038H23.9271C23.9271 86.5283 21.6515 84.5607 19 84.5607L19 86.0607ZM18.25 80.0003V85.3107H19.75V80.0003H18.25ZM22.4271 76.2072C22.4271 77.8214 20.9624 79.2502 19 79.2503L19 80.7503C21.6515 80.7502 23.9271 78.7827 23.9271 76.2072H22.4271ZM19 73.1641C20.9624 73.1641 22.4271 74.593 22.4271 76.2072H23.9271C23.9271 73.6317 21.6515 71.6641 19 71.6641L19 73.1641ZM18.25 67.1036V72.4141H19.75V67.1036H18.25ZM22.4271 63.3105C22.4271 64.9247 20.9624 66.3535 19 66.3536L19 67.8536C21.6515 67.8535 23.9271 65.8859 23.9271 63.3105H22.4271ZM19 60.2673C20.9624 60.2674 22.4271 61.6963 22.4271 63.3105H23.9271C23.9271 60.735 21.6515 58.7674 19 58.7673L19 60.2673ZM18.25 54.207V59.5173H19.75V54.207H18.25ZM22.4271 50.4138C22.4271 52.028 20.9624 53.4569 19 53.457L19 54.957C21.6515 54.9569 23.9271 52.9893 23.9271 50.4138H22.4271ZM19 47.3707C20.9624 47.3708 22.4271 48.7996 22.4271 50.4138H23.9271C23.9271 47.8384 21.6515 45.8708 19 45.8707L19 47.3707ZM18.25 41.3105V46.6207H19.75V41.3105H18.25ZM22.4271 37.5174C22.4271 39.1316 20.9624 40.5604 19 40.5605L19 42.0605C21.6515 42.0604 23.9271 40.0928 23.9271 37.5174H22.4271ZM19 34.4742C20.9624 34.4743 22.4271 35.9032 22.4271 37.5174H23.9271C23.9271 34.9419 21.6515 32.9743 19 32.9742L19 34.4742ZM18.25 31.8995V33.7242H19.75V31.8995H18.25ZM38.9892 13.6596C34.9577 21.5736 27.7086 27.8857 18.7403 31.1959L19.2597 32.6031C28.5571 29.1714 36.1112 22.6137 40.3257 14.3404L38.9892 13.6596Z" fill="#AAAAFF"/>
<line x1="45.75" y1="14.75" x2="45.75" y2="125.25" stroke="#AAAAFF" stroke-width="1.5" stroke-linecap="round"/>
<defs>
<linearGradient id="paint0_linear_619_192" x1="-45" y1="-30" x2="339" y2="166" gradientUnits="userSpaceOnUse">
<stop stop-color="#7070FF"/>
<stop offset="1" stop-color="#26265C"/>
</linearGradient>
</defs>
</svg>
