<svg width="356" height="51" viewBox="0 0 356 51" fill="none" xmlns="http://www.w3.org/2000/svg">
<rect width="356" height="51" rx="5" fill="#FD855F"/>
<path d="M139.832 24.0795C139.738 23.7727 139.607 23.4981 139.44 23.2557C139.277 23.0095 139.081 22.7992 138.849 22.625C138.622 22.4508 138.361 22.3201 138.065 22.233C137.77 22.142 137.448 22.0966 137.099 22.0966C136.474 22.0966 135.918 22.2538 135.429 22.5682C134.94 22.8826 134.556 23.3447 134.276 23.9545C133.999 24.5606 133.861 25.2992 133.861 26.1705C133.861 27.0492 133.999 27.7936 134.276 28.4034C134.552 29.0133 134.937 29.4773 135.429 29.7955C135.921 30.1098 136.493 30.267 137.145 30.267C137.736 30.267 138.247 30.1534 138.679 29.9261C139.115 29.6989 139.45 29.3769 139.685 28.9602C139.92 28.5398 140.037 28.0473 140.037 27.483L140.514 27.5568H137.355V25.9091H142.077V27.3068C142.077 28.303 141.865 29.1648 141.44 29.892C141.016 30.6193 140.433 31.1799 139.69 31.5739C138.948 31.964 138.096 32.1591 137.134 32.1591C136.062 32.1591 135.12 31.9186 134.31 31.4375C133.503 30.9527 132.872 30.2652 132.418 29.375C131.967 28.4811 131.742 27.4205 131.742 26.1932C131.742 25.2538 131.874 24.4148 132.139 23.6761C132.408 22.9375 132.783 22.3106 133.264 21.7955C133.745 21.2765 134.31 20.8826 134.957 20.6136C135.605 20.3409 136.31 20.2045 137.071 20.2045C137.715 20.2045 138.315 20.2992 138.872 20.4886C139.429 20.6742 139.923 20.9394 140.355 21.2841C140.791 21.6288 141.149 22.0379 141.429 22.5114C141.709 22.9848 141.893 23.5076 141.98 24.0795H139.832ZM144.024 32V23.2727H145.99V24.7557H146.092C146.274 24.2557 146.575 23.8655 146.996 23.5852C147.416 23.3011 147.918 23.1591 148.501 23.1591C149.092 23.1591 149.59 23.303 149.996 23.5909C150.405 23.875 150.693 24.2633 150.859 24.7557H150.95C151.143 24.2708 151.469 23.8845 151.928 23.5966C152.39 23.3049 152.937 23.1591 153.57 23.1591C154.373 23.1591 155.028 23.4129 155.536 23.9205C156.043 24.428 156.297 25.1686 156.297 26.142V32H154.234V26.4602C154.234 25.9186 154.09 25.5227 153.803 25.2727C153.515 25.0189 153.162 24.892 152.746 24.892C152.25 24.892 151.861 25.0473 151.581 25.358C151.304 25.6648 151.166 26.0644 151.166 26.5568V32H149.149V26.375C149.149 25.9242 149.013 25.5644 148.74 25.2955C148.471 25.0265 148.119 24.892 147.683 24.892C147.388 24.892 147.119 24.9678 146.876 25.1193C146.634 25.267 146.441 25.4773 146.297 25.75C146.153 26.0189 146.081 26.3333 146.081 26.6932V32H144.024ZM160.895 32.1761C160.342 32.1761 159.844 32.0777 159.401 31.8807C158.961 31.6799 158.613 31.3845 158.355 30.9943C158.101 30.6042 157.974 30.1231 157.974 29.5511C157.974 29.0587 158.065 28.6515 158.247 28.3295C158.429 28.0076 158.677 27.75 158.992 27.5568C159.306 27.3636 159.66 27.2178 160.054 27.1193C160.452 27.017 160.863 26.9432 161.287 26.8977C161.798 26.8447 162.213 26.7973 162.531 26.7557C162.849 26.7102 163.081 26.642 163.224 26.5511C163.372 26.4564 163.446 26.3106 163.446 26.1136V26.0795C163.446 25.6515 163.319 25.3201 163.065 25.0852C162.812 24.8504 162.446 24.733 161.969 24.733C161.465 24.733 161.065 24.8428 160.77 25.0625C160.478 25.2822 160.281 25.5417 160.179 25.8409L158.259 25.5682C158.41 25.0379 158.66 24.5947 159.009 24.2386C159.357 23.8788 159.783 23.6098 160.287 23.4318C160.791 23.25 161.348 23.1591 161.957 23.1591C162.378 23.1591 162.796 23.2083 163.213 23.3068C163.63 23.4053 164.01 23.5682 164.355 23.7955C164.7 24.0189 164.976 24.3239 165.185 24.7102C165.397 25.0966 165.503 25.5795 165.503 26.1591V32H163.526V30.8011H163.457C163.332 31.0436 163.156 31.2708 162.929 31.483C162.706 31.6913 162.423 31.8598 162.082 31.9886C161.745 32.1136 161.349 32.1761 160.895 32.1761ZM161.429 30.6648C161.842 30.6648 162.2 30.5833 162.503 30.4205C162.806 30.2538 163.039 30.0341 163.202 29.7614C163.368 29.4886 163.452 29.1913 163.452 28.8693V27.8409C163.387 27.8939 163.277 27.9432 163.122 27.9886C162.971 28.0341 162.8 28.0739 162.611 28.108C162.421 28.142 162.234 28.1723 162.048 28.1989C161.863 28.2254 161.702 28.2481 161.565 28.267C161.259 28.3087 160.984 28.3769 160.742 28.4716C160.499 28.5663 160.308 28.6989 160.168 28.8693C160.027 29.036 159.957 29.2519 159.957 29.517C159.957 29.8958 160.096 30.1818 160.372 30.375C160.649 30.5682 161.001 30.6648 161.429 30.6648ZM167.571 32V23.2727H169.628V32H167.571ZM168.605 22.0341C168.279 22.0341 167.999 21.9261 167.764 21.7102C167.529 21.4905 167.412 21.2273 167.412 20.9205C167.412 20.6098 167.529 20.3466 167.764 20.1307C167.999 19.911 168.279 19.8011 168.605 19.8011C168.935 19.8011 169.215 19.911 169.446 20.1307C169.681 20.3466 169.798 20.6098 169.798 20.9205C169.798 21.2273 169.681 21.4905 169.446 21.7102C169.215 21.9261 168.935 22.0341 168.605 22.0341ZM173.8 20.3636V32H171.743V20.3636H173.8ZM183.943 32V20.3636H186.051V30.233H191.176V32H183.943ZM196.722 32.1705C195.869 32.1705 195.131 31.983 194.506 31.608C193.881 31.233 193.396 30.7083 193.051 30.0341C192.71 29.3598 192.54 28.572 192.54 27.6705C192.54 26.7689 192.71 25.9792 193.051 25.3011C193.396 24.6231 193.881 24.0966 194.506 23.7216C195.131 23.3466 195.869 23.1591 196.722 23.1591C197.574 23.1591 198.313 23.3466 198.938 23.7216C199.563 24.0966 200.045 24.6231 200.386 25.3011C200.731 25.9792 200.903 26.7689 200.903 27.6705C200.903 28.572 200.731 29.3598 200.386 30.0341C200.045 30.7083 199.563 31.233 198.938 31.608C198.313 31.983 197.574 32.1705 196.722 32.1705ZM196.733 30.5227C197.195 30.5227 197.581 30.3958 197.892 30.142C198.203 29.8845 198.434 29.5398 198.585 29.108C198.741 28.6761 198.818 28.1951 198.818 27.6648C198.818 27.1307 198.741 26.6477 198.585 26.2159C198.434 25.7803 198.203 25.4337 197.892 25.1761C197.581 24.9186 197.195 24.7898 196.733 24.7898C196.26 24.7898 195.866 24.9186 195.551 25.1761C195.241 25.4337 195.008 25.7803 194.852 26.2159C194.701 26.6477 194.625 27.1307 194.625 27.6648C194.625 28.1951 194.701 28.6761 194.852 29.108C195.008 29.5398 195.241 29.8845 195.551 30.142C195.866 30.3958 196.26 30.5227 196.733 30.5227ZM206.445 35.4545C205.706 35.4545 205.072 35.3542 204.541 35.1534C204.011 34.9564 203.585 34.6913 203.263 34.358C202.941 34.0246 202.717 33.6553 202.592 33.25L204.445 32.8011C204.528 32.9716 204.649 33.1402 204.808 33.3068C204.967 33.4773 205.181 33.6174 205.45 33.7273C205.723 33.8409 206.066 33.8977 206.479 33.8977C207.062 33.8977 207.545 33.7557 207.928 33.4716C208.31 33.1913 208.501 32.7292 208.501 32.0852V30.4318H208.399C208.293 30.6439 208.138 30.8617 207.933 31.0852C207.733 31.3087 207.465 31.4962 207.132 31.6477C206.803 31.7992 206.388 31.875 205.888 31.875C205.217 31.875 204.609 31.7178 204.064 31.4034C203.522 31.0852 203.09 30.6117 202.768 29.983C202.45 29.3504 202.291 28.5587 202.291 27.608C202.291 26.6496 202.45 25.8409 202.768 25.1818C203.09 24.5189 203.524 24.017 204.07 23.6761C204.615 23.3314 205.223 23.1591 205.893 23.1591C206.405 23.1591 206.825 23.2462 207.155 23.4205C207.488 23.5909 207.753 23.7973 207.95 24.0398C208.147 24.2784 208.297 24.5038 208.399 24.7159H208.513V23.2727H210.541V32.142C210.541 32.8883 210.363 33.5057 210.007 33.9943C209.651 34.483 209.164 34.8485 208.547 35.0909C207.929 35.3333 207.229 35.4545 206.445 35.4545ZM206.462 30.2614C206.897 30.2614 207.268 30.1553 207.575 29.9432C207.882 29.7311 208.115 29.4261 208.274 29.0284C208.433 28.6307 208.513 28.1534 208.513 27.5966C208.513 27.0473 208.433 26.5663 208.274 26.1534C208.119 25.7405 207.888 25.4205 207.581 25.1932C207.278 24.9621 206.905 24.8466 206.462 24.8466C206.003 24.8466 205.621 24.9659 205.314 25.2045C205.007 25.4432 204.776 25.7708 204.621 26.1875C204.465 26.6004 204.388 27.0701 204.388 27.5966C204.388 28.1307 204.465 28.5985 204.621 29C204.78 29.3977 205.013 29.7083 205.32 29.9318C205.63 30.1515 206.011 30.2614 206.462 30.2614ZM218.817 20.3636V32H216.709V20.3636H218.817ZM223.065 26.8864V32H221.009V23.2727H222.974V24.7557H223.077C223.277 24.267 223.598 23.8788 224.037 23.5909C224.48 23.303 225.027 23.1591 225.679 23.1591C226.281 23.1591 226.806 23.2879 227.253 23.5455C227.704 23.803 228.052 24.1761 228.298 24.6648C228.548 25.1534 228.671 25.7462 228.668 26.4432V32H226.611V26.7614C226.611 26.178 226.459 25.7216 226.156 25.392C225.857 25.0625 225.442 24.8977 224.912 24.8977C224.552 24.8977 224.232 24.9773 223.952 25.1364C223.675 25.2917 223.457 25.517 223.298 25.8125C223.143 26.108 223.065 26.4659 223.065 26.8864Z" fill="#FEFEFE"/>
</svg>
