<svg width="109" height="30" viewBox="0 0 109 30" fill="none" xmlns="http://www.w3.org/2000/svg">
<path d="M10.4417 7.68328C10.9037 6.26143 11.1347 5.5505 11.4817 5.35976C11.7817 5.19484 12.1452 5.19484 12.4452 5.35976C12.7921 5.5505 13.0231 6.26143 13.4851 7.68328L14.2901 10.1609C14.4193 10.5583 14.4838 10.757 14.6054 10.9039C14.7128 11.0337 14.8512 11.1343 15.0078 11.1963C15.1852 11.2665 15.394 11.2665 15.8118 11.2665H18.417C19.912 11.2665 20.6595 11.2665 20.9482 11.5375C21.1977 11.7719 21.31 12.1176 21.2459 12.4539C21.1717 12.8428 20.567 13.2822 19.3575 14.1609L17.2498 15.6922C16.9118 15.9378 16.7428 16.0606 16.6406 16.2216C16.5504 16.3639 16.4975 16.5266 16.4869 16.6947C16.4749 16.8851 16.5395 17.0837 16.6686 17.4811L17.4736 19.9587C17.9356 21.3806 18.1666 22.0915 17.998 22.4498C17.8523 22.7595 17.5582 22.9732 17.2186 23.0161C16.8257 23.0657 16.221 22.6263 15.0115 21.7476L12.9039 20.2163C12.5659 19.9707 12.3969 19.848 12.2121 19.8005C12.049 19.7586 11.8779 19.7586 11.7147 19.8005C11.53 19.848 11.361 19.9707 11.023 20.2163L8.91533 21.7476C7.70583 22.6263 7.10108 23.0657 6.70828 23.0161C6.36863 22.9732 6.07454 22.7595 5.92878 22.4498C5.7602 22.0915 5.9912 21.3806 6.45319 19.9587L7.25823 17.4811C7.38733 17.0837 7.45188 16.8851 7.43991 16.6947C7.42933 16.5266 7.37646 16.3639 7.28621 16.2216C7.18399 16.0606 7.01499 15.9378 6.67699 15.6922L4.56937 14.1609C3.35987 13.2822 2.75512 12.8428 2.68093 12.4539C2.61678 12.1176 2.72911 11.7719 2.97867 11.5375C3.26729 11.2665 4.0148 11.2665 5.50983 11.2665H8.11499C8.53278 11.2665 8.74168 11.2665 8.91904 11.1963C9.07565 11.1343 9.21406 11.0337 9.32143 10.9039C9.44303 10.757 9.50758 10.5583 9.63668 10.1609L10.4417 7.68328Z" fill="#D9D9D9"/>
<path d="M31.71 7.68328C32.172 6.26143 32.403 5.5505 32.75 5.35976C33.05 5.19484 33.4135 5.19484 33.7135 5.35976C34.0604 5.5505 34.2914 6.26143 34.7534 7.68328L35.5585 10.1609C35.6876 10.5583 35.7521 10.757 35.8737 10.9039C35.9811 11.0337 36.1195 11.1343 36.2761 11.1963C36.4535 11.2665 36.6624 11.2665 37.0801 11.2665H39.6853C41.1803 11.2665 41.9279 11.2665 42.2165 11.5375C42.466 11.7719 42.5784 12.1176 42.5142 12.4539C42.44 12.8428 41.8353 13.2822 40.6258 14.1609L38.5181 15.6922C38.1801 15.9378 38.0111 16.0606 37.9089 16.2216C37.8187 16.3639 37.7658 16.5266 37.7552 16.6947C37.7433 16.8851 37.8078 17.0837 37.9369 17.4811L38.742 19.9587C39.2039 21.3806 39.4349 22.0915 39.2664 22.4498C39.1206 22.7595 38.8265 22.9732 38.4869 23.0161C38.0941 23.0657 37.4893 22.6263 36.2798 21.7476L34.1722 20.2163C33.8342 19.9707 33.6652 19.848 33.4804 19.8005C33.3173 19.7586 33.1462 19.7586 32.983 19.8005C32.7983 19.848 32.6293 19.9707 32.2913 20.2163L30.1836 21.7476C28.9741 22.6263 28.3694 23.0657 27.9766 23.0161C27.6369 22.9732 27.3429 22.7595 27.1971 22.4498C27.0285 22.0915 27.2595 21.3806 27.7215 19.9587L28.5265 17.4811C28.6556 17.0837 28.7202 16.8851 28.7082 16.6947C28.6976 16.5266 28.6448 16.3639 28.5545 16.2216C28.4523 16.0606 28.2833 15.9378 27.9453 15.6922L25.8377 14.1609C24.6282 13.2822 24.0234 12.8428 23.9492 12.4539C23.8851 12.1176 23.9974 11.7719 24.247 11.5375C24.5356 11.2665 25.2831 11.2665 26.7781 11.2665H29.3833C29.8011 11.2665 30.01 11.2665 30.1874 11.1963C30.344 11.1343 30.4824 11.0337 30.5897 10.9039C30.7113 10.757 30.7759 10.5583 30.905 10.1609L31.71 7.68328Z" fill="#D9D9D9"/>
<path d="M95.5148 7.68328C95.9768 6.26143 96.2078 5.5505 96.5548 5.35976C96.8548 5.19484 97.2183 5.19484 97.5183 5.35976C97.8652 5.5505 98.0962 6.26143 98.5582 7.68328L99.3633 10.1609C99.4924 10.5583 99.5569 10.757 99.6785 10.9039C99.7859 11.0337 99.9243 11.1343 100.081 11.1963C100.258 11.2665 100.467 11.2665 100.885 11.2665H103.49C104.985 11.2665 105.733 11.2665 106.021 11.5375C106.271 11.7719 106.383 12.1176 106.319 12.4539C106.245 12.8428 105.64 13.2822 104.431 14.1609L102.323 15.6922C101.985 15.9378 101.816 16.0606 101.714 16.2216C101.623 16.3639 101.571 16.5266 101.56 16.6947C101.548 16.8851 101.613 17.0837 101.742 17.4811L102.547 19.9587C103.009 21.3806 103.24 22.0915 103.071 22.4498C102.925 22.7595 102.631 22.9732 102.292 23.0161C101.899 23.0657 101.294 22.6263 100.085 21.7476L97.977 20.2163C97.639 19.9707 97.47 19.848 97.2852 19.8005C97.1221 19.7586 96.951 19.7586 96.7878 19.8005C96.6031 19.848 96.4341 19.9707 96.0961 20.2163L93.9885 21.7476C92.779 22.6263 92.1742 23.0657 91.7814 23.0161C91.4418 22.9732 91.1477 22.7595 91.0019 22.4498C90.8333 22.0915 91.0643 21.3806 91.5263 19.9587L92.3313 17.4811C92.4605 17.0837 92.525 16.8851 92.513 16.6947C92.5024 16.5266 92.4496 16.3639 92.3593 16.2216C92.2571 16.0606 92.0881 15.9378 91.7501 15.6922L89.6425 14.1609C88.433 13.2822 87.8282 12.8428 87.754 12.4539C87.6899 12.1176 87.8022 11.7719 88.0518 11.5375C88.3404 11.2665 89.0879 11.2665 90.5829 11.2665H93.1881C93.6059 11.2665 93.8148 11.2665 93.9922 11.1963C94.1488 11.1343 94.2872 11.0337 94.3946 10.9039C94.5161 10.757 94.5807 10.5583 94.7098 10.1609L95.5148 7.68328Z" fill="#D9D9D9"/>
<path d="M10.4417 7.68328C10.9037 6.26143 11.1347 5.5505 11.4817 5.35976C11.7817 5.19484 12.1452 5.19484 12.4452 5.35976C12.7921 5.5505 13.0231 6.26143 13.4851 7.68328L14.2901 10.1609C14.4193 10.5583 14.4838 10.757 14.6054 10.9039C14.7128 11.0337 14.8512 11.1343 15.0078 11.1963C15.1852 11.2665 15.394 11.2665 15.8118 11.2665H18.417C19.912 11.2665 20.6595 11.2665 20.9482 11.5375C21.1977 11.7719 21.31 12.1176 21.2459 12.4539C21.1717 12.8428 20.567 13.2822 19.3575 14.1609L17.2498 15.6922C16.9118 15.9378 16.7428 16.0606 16.6406 16.2216C16.5504 16.3639 16.4975 16.5266 16.4869 16.6947C16.4749 16.8851 16.5395 17.0837 16.6686 17.4811L17.4736 19.9587C17.9356 21.3806 18.1666 22.0915 17.998 22.4498C17.8523 22.7595 17.5582 22.9732 17.2186 23.0161C16.8257 23.0657 16.221 22.6263 15.0115 21.7476L12.9039 20.2163C12.5659 19.9707 12.3969 19.848 12.2121 19.8005C12.049 19.7586 11.8779 19.7586 11.7147 19.8005C11.53 19.848 11.361 19.9707 11.023 20.2163L8.91533 21.7476C7.70583 22.6263 7.10108 23.0657 6.70828 23.0161C6.36863 22.9732 6.07454 22.7595 5.92878 22.4498C5.7602 22.0915 5.9912 21.3806 6.45319 19.9587L7.25823 17.4811C7.38733 17.0837 7.45188 16.8851 7.43991 16.6947C7.42933 16.5266 7.37646 16.3639 7.28621 16.2216C7.18399 16.0606 7.01499 15.9378 6.67699 15.6922L4.56937 14.1609C3.35987 13.2822 2.75512 12.8428 2.68093 12.4539C2.61678 12.1176 2.72911 11.7719 2.97867 11.5375C3.26729 11.2665 4.0148 11.2665 5.50983 11.2665H8.11499C8.53278 11.2665 8.74168 11.2665 8.91904 11.1963C9.07565 11.1343 9.21406 11.0337 9.32143 10.9039C9.44303 10.757 9.50758 10.5583 9.63668 10.1609L10.4417 7.68328Z" fill="#FDE45F"/>
<path d="M31.71 7.68328C32.172 6.26143 32.403 5.5505 32.75 5.35976C33.05 5.19484 33.4135 5.19484 33.7135 5.35976C34.0604 5.5505 34.2914 6.26143 34.7534 7.68328L35.5585 10.1609C35.6876 10.5583 35.7521 10.757 35.8737 10.9039C35.9811 11.0337 36.1195 11.1343 36.2761 11.1963C36.4535 11.2665 36.6624 11.2665 37.0801 11.2665H39.6853C41.1803 11.2665 41.9279 11.2665 42.2165 11.5375C42.466 11.7719 42.5784 12.1176 42.5142 12.4539C42.44 12.8428 41.8353 13.2822 40.6258 14.1609L38.5181 15.6922C38.1801 15.9378 38.0111 16.0606 37.9089 16.2216C37.8187 16.3639 37.7658 16.5266 37.7552 16.6947C37.7433 16.8851 37.8078 17.0837 37.9369 17.4811L38.742 19.9587C39.2039 21.3806 39.4349 22.0915 39.2664 22.4498C39.1206 22.7595 38.8265 22.9732 38.4869 23.0161C38.0941 23.0657 37.4893 22.6263 36.2798 21.7476L34.1722 20.2163C33.8342 19.9707 33.6652 19.848 33.4804 19.8005C33.3173 19.7586 33.1462 19.7586 32.983 19.8005C32.7983 19.848 32.6293 19.9707 32.2913 20.2163L30.1836 21.7476C28.9741 22.6263 28.3694 23.0657 27.9766 23.0161C27.6369 22.9732 27.3429 22.7595 27.1971 22.4498C27.0285 22.0915 27.2595 21.3806 27.7215 19.9587L28.5265 17.4811C28.6556 17.0837 28.7202 16.8851 28.7082 16.6947C28.6976 16.5266 28.6448 16.3639 28.5545 16.2216C28.4523 16.0606 28.2833 15.9378 27.9453 15.6922L25.8377 14.1609C24.6282 13.2822 24.0234 12.8428 23.9492 12.4539C23.8851 12.1176 23.9974 11.7719 24.247 11.5375C24.5356 11.2665 25.2831 11.2665 26.7781 11.2665H29.3833C29.8011 11.2665 30.01 11.2665 30.1874 11.1963C30.344 11.1343 30.4824 11.0337 30.5897 10.9039C30.7113 10.757 30.7759 10.5583 30.905 10.1609L31.71 7.68328Z" fill="#FDE45F"/>
<path d="M74.4417 7.68328C74.9037 6.26143 75.1347 5.5505 75.4817 5.35976C75.7817 5.19484 76.1452 5.19484 76.4452 5.35976C76.7921 5.5505 77.0231 6.26143 77.4851 7.68328L78.2901 10.1609C78.4193 10.5583 78.4838 10.757 78.6054 10.9039C78.7128 11.0337 78.8512 11.1343 79.0078 11.1963C79.1852 11.2665 79.394 11.2665 79.8118 11.2665H82.417C83.912 11.2665 84.6595 11.2665 84.9482 11.5375C85.1977 11.7719 85.31 12.1176 85.2459 12.4539C85.1717 12.8428 84.567 13.2822 83.3575 14.1609L81.2498 15.6922C80.9118 15.9378 80.7428 16.0606 80.6406 16.2216C80.5504 16.3639 80.4975 16.5266 80.4869 16.6947C80.4749 16.8851 80.5395 17.0837 80.6686 17.4811L81.4736 19.9587C81.9356 21.3806 82.1666 22.0915 81.998 22.4498C81.8523 22.7595 81.5582 22.9732 81.2186 23.0161C80.8257 23.0657 80.221 22.6263 79.0115 21.7476L76.9039 20.2163C76.5659 19.9707 76.3969 19.848 76.2121 19.8005C76.049 19.7586 75.8779 19.7586 75.7147 19.8005C75.53 19.848 75.361 19.9707 75.023 20.2163L72.9153 21.7476C71.7058 22.6263 71.1011 23.0657 70.7083 23.0161C70.3686 22.9732 70.0745 22.7595 69.9288 22.4498C69.7602 22.0915 69.9912 21.3806 70.4532 19.9587L71.2582 17.4811C71.3873 17.0837 71.4519 16.8851 71.4399 16.6947C71.4293 16.5266 71.3765 16.3639 71.2862 16.2216C71.184 16.0606 71.015 15.9378 70.677 15.6922L68.5694 14.1609C67.3599 13.2822 66.7551 12.8428 66.6809 12.4539C66.6168 12.1176 66.7291 11.7719 66.9787 11.5375C67.2673 11.2665 68.0148 11.2665 69.5098 11.2665H72.115C72.5328 11.2665 72.7417 11.2665 72.919 11.1963C73.0757 11.1343 73.2141 11.0337 73.3214 10.9039C73.443 10.757 73.5076 10.5583 73.6367 10.1609L74.4417 7.68328Z" fill="#D9D9D9"/>
<path d="M52.9417 7.68328C53.4037 6.26143 53.6347 5.5505 53.9817 5.35976C54.2817 5.19484 54.6452 5.19484 54.9452 5.35976C55.2921 5.5505 55.5231 6.26143 55.9851 7.68328L56.7901 10.1609C56.9193 10.5583 56.9838 10.757 57.1054 10.9039C57.2128 11.0337 57.3512 11.1343 57.5078 11.1963C57.6852 11.2665 57.894 11.2665 58.3118 11.2665H60.917C62.412 11.2665 63.1595 11.2665 63.4482 11.5375C63.6977 11.7719 63.81 12.1176 63.7459 12.4539C63.6717 12.8428 63.067 13.2822 61.8575 14.1609L59.7498 15.6922C59.4118 15.9378 59.2428 16.0606 59.1406 16.2216C59.0504 16.3639 58.9975 16.5266 58.9869 16.6947C58.9749 16.8851 59.0395 17.0837 59.1686 17.4811L59.9736 19.9587C60.4356 21.3806 60.6666 22.0915 60.498 22.4498C60.3523 22.7595 60.0582 22.9732 59.7186 23.0161C59.3257 23.0657 58.721 22.6263 57.5115 21.7476L55.4039 20.2163C55.0659 19.9707 54.8969 19.848 54.7121 19.8005C54.549 19.7586 54.3779 19.7586 54.2147 19.8005C54.03 19.848 53.861 19.9707 53.523 20.2163L51.4153 21.7476C50.2058 22.6263 49.6011 23.0657 49.2083 23.0161C48.8686 22.9732 48.5745 22.7595 48.4288 22.4498C48.2602 22.0915 48.4912 21.3806 48.9532 19.9587L49.7582 17.4811C49.8873 17.0837 49.9519 16.8851 49.9399 16.6947C49.9293 16.5266 49.8765 16.3639 49.7862 16.2216C49.684 16.0606 49.515 15.9378 49.177 15.6922L47.0694 14.1609C45.8599 13.2822 45.2551 12.8428 45.1809 12.4539C45.1168 12.1176 45.2291 11.7719 45.4787 11.5375C45.7673 11.2665 46.5148 11.2665 48.0098 11.2665H50.615C51.0328 11.2665 51.2417 11.2665 51.419 11.1963C51.5757 11.1343 51.7141 11.0337 51.8214 10.9039C51.943 10.757 52.0076 10.5583 52.1367 10.1609L52.9417 7.68328Z" fill="#D9D9D9"/>
</svg>
