<svg width="114" height="29" viewBox="0 0 114 29" fill="none" xmlns="http://www.w3.org/2000/svg">
<rect width="114" height="29" rx="2.5" fill="#26265C"/>
<path d="M19.994 11.872V13.049H22.766V11.872H19.994ZM19.994 15.029V16.206H22.766V15.029H19.994ZM18.234 10.497C16.705 10.497 15.605 11.905 15.605 14.127C15.605 16.371 16.705 17.779 18.234 17.779C19.752 17.779 20.863 16.371 20.863 14.127C20.863 11.905 19.752 10.497 18.234 10.497ZM18.234 11.828C18.982 11.828 19.477 12.631 19.477 14.127C19.477 15.645 18.982 16.459 18.234 16.459C17.497 16.459 16.991 15.645 16.991 14.127C16.991 12.631 17.497 11.828 18.234 11.828ZM22.535 9.782V20.001H23.987V9.782H22.535ZM32.8521 9.793V16.173H34.2381V9.793H32.8521ZM31.6091 12.301V13.489H33.2371V12.301H31.6091ZM30.7401 9.991V15.843H32.1041V9.991H30.7401ZM25.5151 10.838V11.96H30.4541V10.838H25.5151ZM28.0011 12.29C26.7251 12.29 25.8011 13.016 25.8011 14.072C25.8011 15.128 26.7251 15.843 28.0011 15.843C29.2771 15.843 30.2011 15.128 30.2011 14.072C30.2011 13.016 29.2771 12.29 28.0011 12.29ZM28.0011 13.335C28.5291 13.335 28.8921 13.599 28.8921 14.072C28.8921 14.545 28.5291 14.809 28.0011 14.809C27.4621 14.809 27.0991 14.545 27.0991 14.072C27.0991 13.599 27.4621 13.335 28.0011 13.335ZM27.2641 9.892V11.608H28.7051V9.892H27.2641ZM30.7951 16.283C28.6061 16.283 27.2861 16.943 27.2861 18.131C27.2861 19.308 28.6061 19.979 30.7951 19.979C32.9731 19.979 34.2931 19.308 34.2931 18.131C34.2931 16.943 32.9731 16.283 30.7951 16.283ZM30.7951 17.372C32.1481 17.372 32.8301 17.603 32.8301 18.131C32.8301 18.648 32.1481 18.89 30.7951 18.89C29.4311 18.89 28.7491 18.648 28.7491 18.131C28.7491 17.603 29.4311 17.372 30.7951 17.372ZM38.1313 11.399V12.543C38.1313 14.27 37.3063 16.151 35.6013 16.91L36.4263 18.065C38.3403 17.196 39.2973 14.897 39.2973 12.543V11.399H38.1313ZM38.4613 11.399V12.543C38.4613 14.809 39.4073 16.976 41.3433 17.812L42.1353 16.657C40.4303 15.953 39.6163 14.193 39.6163 12.543V11.399H38.4613ZM36.0083 10.772V11.971H41.7173V10.772H36.0083ZM42.6633 9.793V19.979H44.1373V9.793H42.6633ZM45.8084 17.669V18.857H55.0264V17.669H45.8084ZM49.6694 15.744V18.153H51.1324V15.744H49.6694ZM46.8424 10.453V11.608H52.5404V12.697H46.8644V15.557H48.3164V13.841H53.9924V10.453H46.8424ZM46.8644 14.974V16.151H54.2234V14.974H46.8644ZM63.8481 11.278V12.444H66.3561V11.278H63.8481ZM65.7071 9.793V14.963H67.1701V9.793H65.7071ZM60.4381 15.392V16.514H65.7181V17.075H60.4601V19.407H61.9011V18.131H67.1701V15.392H60.4381ZM60.4601 18.736V19.869H67.4561V18.736H60.4601ZM60.9771 10.123V10.849C60.9771 12.147 60.2621 13.39 58.5681 13.896L59.3161 15.051C61.2631 14.435 62.1651 12.774 62.1651 10.849V10.123H60.9771ZM61.2631 10.123V10.849C61.2631 12.675 62.1321 14.248 63.9911 14.853L64.7391 13.72C63.1331 13.236 62.4511 12.059 62.4511 10.849V10.123H61.2631ZM74.2862 12.257V13.445H76.2222V12.257H74.2862ZM75.8262 9.793V15.843H77.2892V9.793H75.8262ZM73.8352 16.063C71.6792 16.063 70.3482 16.8 70.3482 18.032C70.3482 19.275 71.6792 19.99 73.8352 19.99C75.9912 19.99 77.3222 19.275 77.3222 18.032C77.3222 16.8 75.9912 16.063 73.8352 16.063ZM73.8352 17.174C75.1662 17.174 75.8702 17.449 75.8702 18.032C75.8702 18.604 75.1662 18.879 73.8352 18.879C72.5152 18.879 71.8112 18.604 71.8112 18.032C71.8112 17.449 72.5152 17.174 73.8352 17.174ZM71.1182 10.816V11.454C71.1182 12.763 70.3922 14.116 68.7092 14.688L69.4572 15.843C71.4042 15.183 72.3062 13.401 72.3062 11.454V10.816H71.1182ZM71.4262 10.816V11.454C71.4262 13.269 72.2952 14.963 74.1872 15.59L74.9022 14.435C73.2962 13.896 72.6032 12.653 72.6032 11.454V10.816H71.4262ZM69.1052 10.409V11.575H74.5832V10.409H69.1052ZM85.4174 9.793V19.979H86.8694V9.793H85.4174ZM86.5394 13.764V14.985H88.3434V13.764H86.5394ZM78.8394 11.3V12.466H84.7684V11.3H78.8394ZM81.8204 13.038C80.3354 13.038 79.2354 14.05 79.2354 15.469C79.2354 16.888 80.3354 17.9 81.8204 17.9C83.3054 17.9 84.4054 16.888 84.4054 15.469C84.4054 14.05 83.3054 13.038 81.8204 13.038ZM81.8204 14.226C82.5134 14.226 83.0084 14.688 83.0084 15.469C83.0084 16.25 82.5134 16.712 81.8204 16.712C81.1274 16.712 80.6324 16.25 80.6324 15.469C80.6324 14.688 81.1274 14.226 81.8204 14.226ZM81.0834 9.958V11.74H82.5464V9.958H81.0834ZM96.0205 9.793V19.979H97.4945V9.793H96.0205ZM93.0175 10.849V11.113C93.0175 13.841 91.9615 15.689 89.0355 17.097L89.7945 18.263C93.4135 16.514 94.4695 13.962 94.4695 10.849H93.0175ZM89.5745 10.849V12.004H93.7105V10.849H89.5745Z" fill="white"/>
</svg>
