<svg width="101" height="26" viewBox="0 0 101 26" fill="none" xmlns="http://www.w3.org/2000/svg">
<rect width="101" height="25.5275" rx="12.7637" fill="#7070FF"/>
<path d="M26.7851 10.52V11.59H29.3051V10.52H26.7851ZM26.7851 13.39V14.46H29.3051V13.39H26.7851ZM25.1851 9.27C23.7951 9.27 22.7951 10.55 22.7951 12.57C22.7951 14.61 23.7951 15.89 25.1851 15.89C26.5651 15.89 27.5751 14.61 27.5751 12.57C27.5751 10.55 26.5651 9.27 25.1851 9.27ZM25.1851 10.48C25.8651 10.48 26.3151 11.21 26.3151 12.57C26.3151 13.95 25.8651 14.69 25.1851 14.69C24.5151 14.69 24.0551 13.95 24.0551 12.57C24.0551 11.21 24.5151 10.48 25.1851 10.48ZM29.0951 8.62V17.91H30.4151V8.62H29.0951ZM38.4743 8.63V14.43H39.7343V8.63H38.4743ZM37.3443 10.91V11.99H38.8243V10.91H37.3443ZM36.5543 8.81V14.13H37.7943V8.81H36.5543ZM31.8043 9.58V10.6H36.2943V9.58H31.8043ZM34.0643 10.9C32.9043 10.9 32.0643 11.56 32.0643 12.52C32.0643 13.48 32.9043 14.13 34.0643 14.13C35.2243 14.13 36.0643 13.48 36.0643 12.52C36.0643 11.56 35.2243 10.9 34.0643 10.9ZM34.0643 11.85C34.5443 11.85 34.8743 12.09 34.8743 12.52C34.8743 12.95 34.5443 13.19 34.0643 13.19C33.5743 13.19 33.2443 12.95 33.2443 12.52C33.2443 12.09 33.5743 11.85 34.0643 11.85ZM33.3943 8.72V10.28H34.7043V8.72H33.3943ZM36.6043 14.53C34.6143 14.53 33.4143 15.13 33.4143 16.21C33.4143 17.28 34.6143 17.89 36.6043 17.89C38.5843 17.89 39.7843 17.28 39.7843 16.21C39.7843 15.13 38.5843 14.53 36.6043 14.53ZM36.6043 15.52C37.8343 15.52 38.4543 15.73 38.4543 16.21C38.4543 16.68 37.8343 16.9 36.6043 16.9C35.3643 16.9 34.7443 16.68 34.7443 16.21C34.7443 15.73 35.3643 15.52 36.6043 15.52ZM45.468 12.38V13.78H46.798V12.38H45.468ZM46.118 9C44.778 9 43.808 9.77 43.808 10.89C43.808 11.99 44.778 12.76 46.118 12.76C47.458 12.76 48.428 11.99 48.428 10.89C48.428 9.77 47.458 9 46.118 9ZM46.118 10C46.758 10 47.188 10.32 47.188 10.89C47.188 11.45 46.758 11.77 46.118 11.77C45.488 11.77 45.048 11.45 45.048 10.89C45.048 10.32 45.488 10 46.118 10ZM49.378 8.64V15.7H50.708V8.64H49.378ZM50.238 11.54V12.63H51.868V11.54H50.238ZM44.528 16.66V17.73H51.018V16.66H44.528ZM44.528 15.09V17.12H45.868V15.09H44.528ZM43.478 14.5C45.008 14.5 47.108 14.47 48.978 14.12L48.888 13.17C47.068 13.43 44.898 13.44 43.328 13.44L43.478 14.5ZM54.6872 14.03V16.21H55.9872V14.03H54.6872ZM57.6172 14.02V16.21H58.9172V14.02H57.6172ZM52.5672 15.79V16.87H60.9472V15.79H52.5672ZM53.5072 9.23V10.28H58.6872V11.26H53.5272V13.87H54.8472V12.3H60.0072V9.23H53.5072ZM53.5272 13.31V14.38H60.2172V13.31H53.5272ZM67.6964 8.63V17.89H69.0164V8.63H67.6964ZM68.7164 12.24V13.35H70.3564V12.24H68.7164ZM61.7164 10V11.06H67.1064V10H61.7164ZM64.4264 11.58C63.0764 11.58 62.0764 12.5 62.0764 13.79C62.0764 15.08 63.0764 16 64.4264 16C65.7764 16 66.7764 15.08 66.7764 13.79C66.7764 12.5 65.7764 11.58 64.4264 11.58ZM64.4264 12.66C65.0564 12.66 65.5064 13.08 65.5064 13.79C65.5064 14.5 65.0564 14.92 64.4264 14.92C63.7964 14.92 63.3464 14.5 63.3464 13.79C63.3464 13.08 63.7964 12.66 64.4264 12.66ZM63.7564 8.78V10.4H65.0864V8.78H63.7564ZM77.3357 8.63V17.89H78.6757V8.63H77.3357ZM74.6057 9.59V9.83C74.6057 12.31 73.6457 13.99 70.9857 15.27L71.6757 16.33C74.9657 14.74 75.9257 12.42 75.9257 9.59H74.6057ZM71.4757 9.59V10.64H75.2357V9.59H71.4757Z" fill="#FEFEFE"/>
</svg>
