<svg xmlns="http://www.w3.org/2000/svg" width="24.055" height="24" viewBox="0 0 24.055 24">
  <g id="알림버튼" transform="translate(1.031 1)">
    <rect id="Rectangle_479" data-name="Rectangle 479" width="12.082" height="12.082" fill="none"/>
    <path id="Path_1" data-name="Path 1" d="M20.707,19.25H13.8a2.764,2.764,0,0,1-5.528,0H1.358a1.326,1.326,0,0,1-1.244-.962,1.463,1.463,0,0,1,.415-1.513,5.526,5.526,0,0,0,2.211-4.4V8.25a8.293,8.293,0,0,1,16.585,0v4.125a5.526,5.526,0,0,0,2.211,4.4,1.3,1.3,0,0,1,.415,1.513A1.326,1.326,0,0,1,20.707,19.25Z" transform="translate(-0.063)" fill="none" stroke="#25255b" stroke-width="2" fill-rule="evenodd"/>
  </g>
</svg>
