<svg width="185" height="140" viewBox="0 0 185 140" fill="none" xmlns="http://www.w3.org/2000/svg">
<g clip-path="url(#clip0_497_18)">
<mask id="mask0_497_18" style="mask-type:alpha" maskUnits="userSpaceOnUse" x="0" y="0" width="185" height="140">
<path d="M0 5.61497C0 2.51391 3.62219 0 8.09038 0H176.91C181.378 0 185 2.51391 185 5.61497V134.385C185 137.486 181.378 140 176.91 140H8.09038C3.62219 140 0 137.486 0 134.385V5.61497Z" fill="#26265C"/>
</mask>
<g mask="url(#mask0_497_18)">
<rect x="-18" y="-17" width="221" height="174" fill="#D9D9D9"/>
</g>
<path d="M96.6827 44.0773C97.102 43.3487 98.203 43.3747 98.5805 44.1257C100.314 47.5736 101.602 48.8903 104.861 50.491C105.629 50.8684 105.66 52.0034 104.917 52.4285C103.69 53.1306 102.153 54.1138 101.169 55.1167C100.234 56.0706 99.3128 57.5385 98.6515 58.7118C98.2379 59.4456 97.1092 59.4491 96.6932 58.7167C96.0034 57.5024 95.036 55.9688 94.0749 55.0076C93.1174 54.0502 91.592 53.0866 90.3799 52.3973C89.6453 51.9796 89.6514 50.8442 90.3885 50.4308C91.5621 49.7727 93.0237 48.855 93.9657 47.913C94.944 46.9348 95.9612 45.331 96.6827 44.0773Z" fill="#FEFEFE"/>
<path d="M79.9213 65.7754C79.5563 65.567 79.5695 65.0161 79.9456 64.8285C81.854 63.8765 82.5563 63.1883 83.4344 61.3819C83.6215 60.9971 84.188 60.9823 84.399 61.3545C84.7754 62.0185 85.3166 62.8751 85.869 63.4169C86.3946 63.9322 87.2127 64.4396 87.8478 64.7943C88.2156 64.9997 88.2171 65.563 87.8502 65.7697C87.1936 66.1394 86.3397 66.6718 85.8108 67.2007C85.2838 67.7277 84.7533 68.5774 84.3837 69.2331C84.1763 69.6011 83.6096 69.5981 83.4044 69.2287C83.0514 68.593 82.5461 67.778 82.027 67.2589C81.4896 66.7214 80.598 66.1619 79.9213 65.7754Z" fill="#FEFEFE"/>
<rect x="68" y="32" width="49" height="49" rx="16" stroke="#FEFEFE" stroke-width="2"/>
<path d="M56.1324 97.2727V106H54.3427L50.8697 100.963H50.8143V106H48.7049V97.2727H50.5202L53.9549 102.301H54.0273V97.2727H56.1324ZM65.936 101.636C65.936 102.597 65.7514 103.411 65.382 104.078C65.0127 104.746 64.5127 105.253 63.882 105.599C63.2542 105.946 62.5496 106.119 61.7684 106.119C60.9843 106.119 60.2783 105.945 59.6505 105.595C59.0227 105.246 58.5241 104.739 58.1548 104.074C57.7883 103.406 57.605 102.594 57.605 101.636C57.605 100.676 57.7883 99.8622 58.1548 99.1946C58.5241 98.527 59.0227 98.0199 59.6505 97.6733C60.2783 97.3267 60.9843 97.1534 61.7684 97.1534C62.5496 97.1534 63.2542 97.3267 63.882 97.6733C64.5127 98.0199 65.0127 98.527 65.382 99.1946C65.7514 99.8622 65.936 100.676 65.936 101.636ZM63.7798 101.636C63.7798 101.068 63.6988 100.588 63.5369 100.196C63.3778 99.804 63.1477 99.5071 62.8465 99.3054C62.5482 99.1037 62.1889 99.0028 61.7684 99.0028C61.3508 99.0028 60.9914 99.1037 60.6903 99.3054C60.3891 99.5071 60.1576 99.804 59.9957 100.196C59.8366 100.588 59.757 101.068 59.757 101.636C59.757 102.205 59.8366 102.685 59.9957 103.077C60.1576 103.469 60.3891 103.766 60.6903 103.967C60.9914 104.169 61.3508 104.27 61.7684 104.27C62.1889 104.27 62.5482 104.169 62.8465 103.967C63.1477 103.766 63.3778 103.469 63.5369 103.077C63.6988 102.685 63.7798 102.205 63.7798 101.636ZM72.335 97.2727V106H70.2257V97.2727H72.335ZM73.8993 97.2727H76.5115L78.7274 102.676H78.8297L81.0456 97.2727H83.6578V106H81.6038V100.639H81.5314L79.4348 105.945H78.1223L76.0257 100.609H75.9532V106H73.8993V97.2727ZM87.1013 106H84.8342L87.7788 97.2727H90.5871L93.5317 106H91.2646L89.2149 99.4716H89.1467L87.1013 106ZM86.7987 102.565H91.5373V104.168H86.7987V102.565ZM100.028 100.124C99.9801 99.9446 99.9091 99.7869 99.8153 99.6506C99.7216 99.5114 99.6065 99.3935 99.4702 99.2969C99.3338 99.2003 99.1776 99.1278 99.0014 99.0795C98.8253 99.0284 98.6321 99.0028 98.4219 99.0028C97.9986 99.0028 97.6321 99.1051 97.3224 99.3097C97.0156 99.5142 96.7784 99.8125 96.6108 100.205C96.4432 100.594 96.3594 101.067 96.3594 101.624C96.3594 102.183 96.4403 102.661 96.6023 103.055C96.7642 103.45 96.9986 103.751 97.3054 103.959C97.6122 104.166 97.9844 104.27 98.4219 104.27C98.8082 104.27 99.1349 104.207 99.402 104.082C99.6719 103.955 99.8764 103.774 100.016 103.541C100.155 103.308 100.224 103.034 100.224 102.719L100.616 102.766H98.4943V101.227H102.257V102.382C102.257 103.163 102.091 103.832 101.759 104.389C101.429 104.946 100.974 105.374 100.395 105.672C99.8182 105.97 99.1548 106.119 98.4048 106.119C97.5724 106.119 96.8409 105.939 96.2102 105.578C95.5795 105.217 95.0881 104.703 94.7358 104.036C94.3835 103.365 94.2074 102.57 94.2074 101.649C94.2074 100.933 94.3139 100.298 94.527 99.7443C94.7401 99.1875 95.0369 98.7159 95.4176 98.3295C95.8011 97.9432 96.2443 97.6506 96.7472 97.4517C97.2528 97.2528 97.7969 97.1534 98.3793 97.1534C98.8849 97.1534 99.3551 97.2259 99.7898 97.3707C100.227 97.5156 100.614 97.7202 100.949 97.9844C101.287 98.2486 101.561 98.5625 101.771 98.9261C101.982 99.2898 102.112 99.6889 102.163 100.124H100.028ZM103.74 106V97.2727H109.826V98.9858H105.85V100.776H109.515V102.493H105.85V104.287H109.826V106H103.74ZM114.205 106V97.2727H120.162V98.9858H116.314V100.776H119.783V102.493H116.314V106H114.205ZM123.574 97.2727V106H121.464V97.2727H123.574ZM125.138 106V97.2727H127.247V104.287H130.878V106H125.138ZM132.21 106V97.2727H138.295V98.9858H134.319V100.776H137.984V102.493H134.319V104.287H138.295V106H132.21Z" fill="#FEFEFE"/>
</g>
<defs>
<clipPath id="clip0_497_18">
<rect width="185" height="140" fill="white"/>
</clipPath>
</defs>
</svg>
