<svg width="22" height="19" viewBox="0 0 22 19" fill="none" xmlns="http://www.w3.org/2000/svg">
<path fill-rule="evenodd" clip-rule="evenodd" d="M10.7452 1C9.16736 1 7.77844 2.04026 7.33465 3.55439C7.14799 4.19124 6.63551 4.76325 5.97187 4.76325H5C2.79086 4.76325 1 6.55412 1 8.76325V14.143C1 16.3522 2.79086 18.143 5 18.143H17C19.2091 18.143 21 16.3522 21 14.143V8.76325C21 6.55412 19.2091 4.76325 17 4.76325H16.0281C15.3645 4.76325 14.852 4.19124 14.6653 3.55439C14.2216 2.04026 12.8326 1 11.2548 1H10.7452ZM9.3338 3.50878C9.3338 3.27786 9.521 3.09066 9.75192 3.09066H12.249C12.4799 3.09066 12.6671 3.27786 12.6671 3.50878C12.6671 3.7397 12.4799 3.92689 12.249 3.92689H9.75192C9.521 3.92689 9.3338 3.7397 9.3338 3.50878ZM11 16.3921C13.7614 16.3921 16 14.1457 16 11.3747C16 8.60364 13.7614 6.35726 11 6.35726C8.23858 6.35726 6 8.60364 6 11.3747C6 14.1457 8.23858 16.3921 11 16.3921Z" fill="white"/>
<path d="M7.33465 3.55439L6.56695 3.32938V3.32938L7.33465 3.55439ZM14.6653 3.55439L13.8976 3.77941V3.77941L14.6653 3.55439ZM8.10235 3.77941C8.44625 2.6061 9.52252 1.8 10.7452 1.8V0.2C8.81219 0.2 7.11063 1.47442 6.56695 3.32938L8.10235 3.77941ZM5.97187 5.56325C7.13379 5.56325 7.86287 4.5965 8.10235 3.7794L6.56695 3.32938C6.50879 3.52781 6.40227 3.7026 6.28123 3.81755C6.16486 3.92806 6.05999 3.96325 5.97187 3.96325V5.56325ZM5 5.56325H5.97187V3.96325H5V5.56325ZM1.8 8.76325C1.8 6.99594 3.23269 5.56325 5 5.56325V3.96325C2.34903 3.96325 0.2 6.11229 0.2 8.76325H1.8ZM1.8 14.143V8.76325H0.2V14.143H1.8ZM5 17.3431C3.23269 17.3431 1.8 15.9104 1.8 14.143H0.2C0.2 16.794 2.34903 18.943 5 18.943V17.3431ZM17 17.3431H5V18.943H17V17.3431ZM20.2 14.143C20.2 15.9104 18.7673 17.3431 17 17.3431V18.943C19.651 18.943 21.8 16.794 21.8 14.143H20.2ZM20.2 8.76325V14.143H21.8V8.76325H20.2ZM17 5.56325C18.7673 5.56325 20.2 6.99594 20.2 8.76325H21.8C21.8 6.11229 19.651 3.96325 17 3.96325V5.56325ZM16.0281 5.56325H17V3.96325H16.0281V5.56325ZM13.8976 3.77941C14.1371 4.5965 14.8662 5.56325 16.0281 5.56325V3.96325C15.94 3.96325 15.8351 3.92806 15.7188 3.81755C15.5977 3.7026 15.4912 3.52781 15.4331 3.32938L13.8976 3.77941ZM11.2548 1.8C12.4775 1.8 13.5538 2.6061 13.8976 3.77941L15.4331 3.32938C14.8894 1.47442 13.1878 0.2 11.2548 0.2V1.8ZM10.7452 1.8H11.2548V0.2H10.7452V1.8ZM9.75192 2.29066C9.07917 2.29066 8.5338 2.83603 8.5338 3.50878H10.1338C10.1338 3.71968 9.96282 3.89066 9.75192 3.89066V2.29066ZM12.249 2.29066H9.75192V3.89066H12.249V2.29066ZM13.4671 3.50878C13.4671 2.83603 12.9218 2.29066 12.249 2.29066V3.89066C12.0381 3.89066 11.8671 3.71968 11.8671 3.50878H13.4671ZM12.249 4.72689C12.9218 4.72689 13.4671 4.18152 13.4671 3.50878H11.8671C11.8671 3.29787 12.0381 3.12689 12.249 3.12689V4.72689ZM9.75192 4.72689H12.249V3.12689H9.75192V4.72689ZM8.5338 3.50878C8.5338 4.18152 9.07917 4.72689 9.75192 4.72689V3.12689C9.96282 3.12689 10.1338 3.29787 10.1338 3.50878H8.5338ZM15.2 11.3747C15.2 13.7065 13.317 15.5921 11 15.5921V17.1921C14.2059 17.1921 16.8 14.5849 16.8 11.3747H15.2ZM11 7.15726C13.317 7.15726 15.2 9.04284 15.2 11.3747H16.8C16.8 8.16443 14.2059 5.55726 11 5.55726V7.15726ZM6.8 11.3747C6.8 9.04284 8.68303 7.15726 11 7.15726V5.55726C7.79413 5.55726 5.2 8.16443 5.2 11.3747H6.8ZM11 15.5921C8.68303 15.5921 6.8 13.7065 6.8 11.3747H5.2C5.2 14.5849 7.79413 17.1921 11 17.1921V15.5921Z" fill="#7070FF"/>
<ellipse cx="11" cy="11.4529" rx="2.5" ry="2.50871" fill="white" stroke="#7070FF" stroke-width="1.6"/>
</svg>
