<svg width="336" height="167" viewBox="0 0 336 167" fill="none" xmlns="http://www.w3.org/2000/svg">
<g filter="url(#filter0_ddd_141_988)">
<rect x="10" y="10" width="316" height="147" rx="5" fill="#FEFEFE"/>
</g>
<mask id="path-2-outside-1_141_988" maskUnits="userSpaceOnUse" x="23" y="20" width="291" height="128" fill="black">
<rect fill="white" x="23" y="20" width="291" height="128"/>
<path fill-rule="evenodd" clip-rule="evenodd" d="M46.5352 21H288.553C293.187 30.4182 301.618 37.8476 312 41.5526L312 43.2769C309.483 43.2769 307.443 45.1949 307.443 47.5608C307.443 49.9268 309.483 51.8448 312 51.8448V57.8423C309.483 57.8423 307.443 59.7603 307.443 62.1263C307.443 64.4923 309.483 66.4103 312 66.4103V72.4078C309.483 72.4078 307.443 74.3258 307.443 76.6918C307.443 79.0578 309.483 80.9758 312 80.9758V86.9735C309.483 86.9735 307.443 88.8915 307.443 91.2575C307.443 93.6235 309.483 95.5415 312 95.5415V101.539C309.483 101.539 307.443 103.457 307.443 105.823C307.443 108.189 309.483 110.107 312 110.107V116.105C309.483 116.105 307.443 118.023 307.443 120.389C307.443 122.755 309.483 124.673 312 124.673L312 125.54C301.306 129.357 292.681 137.125 288.145 146.949H46.9438C42.537 137.406 34.2724 129.802 24 125.877V124.673C26.5167 124.673 28.5568 122.755 28.5568 120.389C28.5568 118.023 26.5167 116.105 24 116.105V110.107C26.5167 110.107 28.5568 108.189 28.5568 105.823C28.5568 103.457 26.5167 101.539 24 101.539V95.5415C26.5167 95.5414 28.5568 93.6234 28.5568 91.2575C28.5568 88.8916 26.5167 86.9736 24 86.9735V80.9758C26.5167 80.9757 28.5568 79.0578 28.5568 76.6918C28.5568 74.3259 26.5167 72.4079 24 72.4078V66.4103C26.5167 66.4102 28.5568 64.4922 28.5568 62.1263C28.5568 59.7603 26.5167 57.8424 24 57.8423V51.8448C26.5167 51.8448 28.5568 49.9268 28.5568 47.5608C28.5568 45.1949 26.5167 43.2769 24 43.2769V41.2158C33.963 37.4086 42.0374 30.141 46.5352 21Z"/>
</mask>
<path fill-rule="evenodd" clip-rule="evenodd" d="M46.5352 21H288.553C293.187 30.4182 301.618 37.8476 312 41.5526L312 43.2769C309.483 43.2769 307.443 45.1949 307.443 47.5608C307.443 49.9268 309.483 51.8448 312 51.8448V57.8423C309.483 57.8423 307.443 59.7603 307.443 62.1263C307.443 64.4923 309.483 66.4103 312 66.4103V72.4078C309.483 72.4078 307.443 74.3258 307.443 76.6918C307.443 79.0578 309.483 80.9758 312 80.9758V86.9735C309.483 86.9735 307.443 88.8915 307.443 91.2575C307.443 93.6235 309.483 95.5415 312 95.5415V101.539C309.483 101.539 307.443 103.457 307.443 105.823C307.443 108.189 309.483 110.107 312 110.107V116.105C309.483 116.105 307.443 118.023 307.443 120.389C307.443 122.755 309.483 124.673 312 124.673L312 125.54C301.306 129.357 292.681 137.125 288.145 146.949H46.9438C42.537 137.406 34.2724 129.802 24 125.877V124.673C26.5167 124.673 28.5568 122.755 28.5568 120.389C28.5568 118.023 26.5167 116.105 24 116.105V110.107C26.5167 110.107 28.5568 108.189 28.5568 105.823C28.5568 103.457 26.5167 101.539 24 101.539V95.5415C26.5167 95.5414 28.5568 93.6234 28.5568 91.2575C28.5568 88.8916 26.5167 86.9736 24 86.9735V80.9758C26.5167 80.9757 28.5568 79.0578 28.5568 76.6918C28.5568 74.3259 26.5167 72.4079 24 72.4078V66.4103C26.5167 66.4102 28.5568 64.4922 28.5568 62.1263C28.5568 59.7603 26.5167 57.8424 24 57.8423V51.8448C26.5167 51.8448 28.5568 49.9268 28.5568 47.5608C28.5568 45.1949 26.5167 43.2769 24 43.2769V41.2158C33.963 37.4086 42.0374 30.141 46.5352 21Z" fill="#FEFEFE"/>
<path d="M288.553 21L289.451 20.5585L289.176 20H288.553V21ZM46.5352 21V20H45.9128L45.638 20.5585L46.5352 21ZM312 41.5526L313 41.5527L313 40.8477L312.336 40.6108L312 41.5526ZM312 43.2769V44.2769H313L313 43.2769L312 43.2769ZM312 51.8448H313V50.8448H312V51.8448ZM312 57.8423V58.8423H313V57.8423H312ZM312 66.4103H313V65.4103H312V66.4103ZM312 72.4078V73.4078H313V72.4078H312ZM312 80.9758H313V79.9758H312V80.9758ZM312 86.9735V87.9735H313V86.9735H312ZM312 95.5415H313V94.5415H312V95.5415ZM312 101.539V102.539H313V101.539H312ZM312 110.107H313V109.107H312V110.107ZM312 116.105V117.105H313V116.105H312ZM312 124.673L313 124.672L313 123.673H312V124.673ZM312 125.54L312.336 126.482L313 126.245L313 125.54L312 125.54ZM288.145 146.949V147.949H288.784L289.053 147.369L288.145 146.949ZM46.9438 146.949L46.0359 147.369L46.3041 147.949H46.9438V146.949ZM24 125.877H23V126.565L23.643 126.811L24 125.877ZM24 124.673L24 123.673L23 123.673V124.673H24ZM24 116.105H23V117.105L24 117.105L24 116.105ZM24 110.107L24 109.107L23 109.107V110.107H24ZM24 101.539H23V102.539L24 102.539L24 101.539ZM24 95.5415L24 94.5415L23 94.5415V95.5415H24ZM24 86.9735H23V87.9735L24 87.9735L24 86.9735ZM24 80.9758L24 79.9758L23 79.9759V80.9758H24ZM24 72.4078H23V73.4078L24 73.4078L24 72.4078ZM24 66.4103L24 65.4103L23 65.4103V66.4103H24ZM24 57.8423H23V58.8423L24 58.8423L24 57.8423ZM24 51.8448L24 50.8448L23 50.8449V51.8448H24ZM24 43.2769H23V44.2768L24 44.2769L24 43.2769ZM24 41.2158L23.643 40.2817L23 40.5274V41.2158H24ZM288.553 20H46.5352V22H288.553V20ZM312.336 40.6108C302.189 36.9895 293.965 29.7334 289.451 20.5585L287.656 21.4415C292.41 31.103 301.048 38.7058 311.664 42.4944L312.336 40.6108ZM313 43.2769L313 41.5527L311 41.5525L311 43.2768L313 43.2769ZM308.443 47.5608C308.443 45.8044 309.976 44.2769 312 44.2769V42.2769C308.99 42.2769 306.443 44.5853 306.443 47.5608H308.443ZM312 50.8448C309.976 50.8448 308.443 49.3173 308.443 47.5608H306.443C306.443 50.5364 308.99 52.8448 312 52.8448V50.8448ZM313 57.8423V51.8448H311V57.8423H313ZM308.443 62.1263C308.443 60.3699 309.976 58.8423 312 58.8423V56.8423C308.99 56.8423 306.443 59.1507 306.443 62.1263H308.443ZM312 65.4103C309.976 65.4103 308.443 63.8827 308.443 62.1263H306.443C306.443 65.1018 308.99 67.4103 312 67.4103V65.4103ZM313 72.4078V66.4103H311V72.4078H313ZM308.443 76.6918C308.443 74.9354 309.976 73.4078 312 73.4078V71.4078C308.99 71.4078 306.443 73.7163 306.443 76.6918H308.443ZM312 79.9758C309.976 79.9758 308.443 78.4482 308.443 76.6918H306.443C306.443 79.6674 308.99 81.9758 312 81.9758V79.9758ZM313 86.9735V80.9758H311V86.9735H313ZM308.443 91.2575C308.443 89.5011 309.976 87.9735 312 87.9735V85.9735C308.99 85.9735 306.443 88.2819 306.443 91.2575H308.443ZM312 94.5415C309.976 94.5415 308.443 93.0139 308.443 91.2575H306.443C306.443 94.2331 308.99 96.5415 312 96.5415V94.5415ZM313 101.539V95.5415H311V101.539H313ZM308.443 105.823C308.443 104.067 309.976 102.539 312 102.539V100.539C308.99 100.539 306.443 102.847 306.443 105.823H308.443ZM312 109.107C309.976 109.107 308.443 107.579 308.443 105.823H306.443C306.443 108.799 308.99 111.107 312 111.107V109.107ZM313 116.105V110.107H311V116.105H313ZM308.443 120.389C308.443 118.632 309.976 117.105 312 117.105V115.105C308.99 115.105 306.443 117.413 306.443 120.389H308.443ZM312 123.673C309.976 123.673 308.443 122.145 308.443 120.389H306.443C306.443 123.364 308.99 125.673 312 125.673V123.673ZM313 125.54L313 124.672L311 124.673L311 125.54L313 125.54ZM289.053 147.369C293.471 137.8 301.883 130.212 312.336 126.482L311.664 124.598C300.728 128.501 291.891 136.451 287.237 146.53L289.053 147.369ZM46.9438 147.949H288.145V145.949H46.9438V147.949ZM23.643 126.811C33.6831 130.648 41.7436 138.073 46.0359 147.369L47.8517 146.53C43.3304 136.739 34.8616 128.957 24.357 124.943L23.643 126.811ZM23 124.673V125.877H25V124.673H23ZM27.5568 120.389C27.5568 122.145 26.0234 123.673 24 123.673L24 125.673C27.0099 125.673 29.5568 123.364 29.5568 120.389H27.5568ZM24 117.105C26.0234 117.105 27.5568 118.632 27.5568 120.389H29.5568C29.5568 117.413 27.0099 115.105 24 115.105L24 117.105ZM23 110.107V116.105H25V110.107H23ZM27.5568 105.823C27.5568 107.579 26.0234 109.107 24 109.107L24 111.107C27.0099 111.107 29.5568 108.799 29.5568 105.823H27.5568ZM24 102.539C26.0234 102.539 27.5568 104.067 27.5568 105.823H29.5568C29.5568 102.848 27.0099 100.539 24 100.539L24 102.539ZM23 95.5415V101.539H25V95.5415H23ZM27.5568 91.2575C27.5568 93.0139 26.0234 94.5414 24 94.5415L24 96.5415C27.0099 96.5414 29.5568 94.233 29.5568 91.2575H27.5568ZM24 87.9735C26.0234 87.9736 27.5568 89.5011 27.5568 91.2575H29.5568C29.5568 88.282 27.0099 85.9736 24 85.9735L24 87.9735ZM23 80.9758V86.9735H25V80.9758H23ZM27.5568 76.6918C27.5568 78.4482 26.0234 79.9758 24 79.9758L24 81.9758C27.0099 81.9757 29.5568 79.6673 29.5568 76.6918H27.5568ZM24 73.4078C26.0234 73.4079 27.5568 74.9355 27.5568 76.6918H29.5568C29.5568 73.7163 27.0099 71.4079 24 71.4078L24 73.4078ZM23 66.4103V72.4078H25V66.4103H23ZM27.5568 62.1263C27.5568 63.8826 26.0234 65.4102 24 65.4103L24 67.4103C27.0099 67.4102 29.5568 65.1018 29.5568 62.1263H27.5568ZM24 58.8423C26.0234 58.8424 27.5568 60.3699 27.5568 62.1263H29.5568C29.5568 59.1508 27.0099 56.8424 24 56.8423L24 58.8423ZM23 51.8448V57.8423H25V51.8448H23ZM27.5568 47.5608C27.5568 49.3172 26.0234 50.8448 24 50.8448L24 52.8448C27.0099 52.8447 29.5568 50.5363 29.5568 47.5608H27.5568ZM24 44.2769C26.0234 44.2769 27.5568 45.8045 27.5568 47.5608H29.5568C29.5568 44.5854 27.0099 42.277 24 42.2769L24 44.2769ZM23 41.2158V43.2769H25V41.2158H23ZM45.638 20.5585C41.2564 29.4633 33.3806 36.5606 23.643 40.2817L24.357 42.1499C34.5455 38.2565 42.8185 30.8187 47.4325 21.4415L45.638 20.5585Z" fill="#AFABAB" fill-opacity="0.6" mask="url(#path-2-outside-1_141_988)"/>
<defs>
<filter id="filter0_ddd_141_988" x="0" y="0" width="336" height="167" filterUnits="userSpaceOnUse" color-interpolation-filters="sRGB">
<feFlood flood-opacity="0" result="BackgroundImageFix"/>
<feColorMatrix in="SourceAlpha" type="matrix" values="0 0 0 0 0 0 0 0 0 0 0 0 0 0 0 0 0 0 127 0" result="hardAlpha"/>
<feOffset/>
<feGaussianBlur stdDeviation="2.5"/>
<feComposite in2="hardAlpha" operator="out"/>
<feColorMatrix type="matrix" values="0 0 0 0 0.816667 0 0 0 0 0.816667 0 0 0 0 0.816667 0 0 0 0.25 0"/>
<feBlend mode="normal" in2="BackgroundImageFix" result="effect1_dropShadow_141_988"/>
<feColorMatrix in="SourceAlpha" type="matrix" values="0 0 0 0 0 0 0 0 0 0 0 0 0 0 0 0 0 0 127 0" result="hardAlpha"/>
<feOffset/>
<feGaussianBlur stdDeviation="2.5"/>
<feComposite in2="hardAlpha" operator="out"/>
<feColorMatrix type="matrix" values="0 0 0 0 0.741667 0 0 0 0 0.741667 0 0 0 0 0.741667 0 0 0 0.25 0"/>
<feBlend mode="normal" in2="effect1_dropShadow_141_988" result="effect2_dropShadow_141_988"/>
<feColorMatrix in="SourceAlpha" type="matrix" values="0 0 0 0 0 0 0 0 0 0 0 0 0 0 0 0 0 0 127 0" result="hardAlpha"/>
<feOffset/>
<feGaussianBlur stdDeviation="5"/>
<feComposite in2="hardAlpha" operator="out"/>
<feColorMatrix type="matrix" values="0 0 0 0 0.894118 0 0 0 0 0.894118 0 0 0 0 0.909804 0 0 0 1 0"/>
<feBlend mode="normal" in2="effect2_dropShadow_141_988" result="effect3_dropShadow_141_988"/>
<feBlend mode="normal" in="SourceGraphic" in2="effect3_dropShadow_141_988" result="shape"/>
</filter>
</defs>
</svg>
