<svg width="87" height="34" viewBox="0 0 87 34" fill="none" xmlns="http://www.w3.org/2000/svg">
<g filter="url(#filter0_d_1315_282)">
<g filter="url(#filter1_b_1315_282)">
<rect x="4" y="4" width="79" height="26" rx="13" fill="white" fill-opacity="0.46"/>
<path d="M22.5004 21.1367H23.0375C26.6459 21.1367 28.9604 19.6865 30.098 16.6934L29.0043 16.2246C28.0424 18.5732 26.4652 19.7109 23.8676 19.8916V13.5879H22.5004V21.1367ZM31.798 20.082L32.3742 21.1758C33.7414 20.5557 34.9914 19.7354 36.051 18.7832C37.0227 19.457 37.843 20.2139 38.7219 21.2246L39.6301 20.3457C38.7756 19.3691 37.8967 18.5781 36.9396 17.9092C37.7404 17.0449 38.3898 16.0977 38.8391 15.1211V13.9395H32.2961V15.1211H37.4133C36.3049 17.1377 34.3615 18.8564 31.798 20.082ZM49.1523 18.9688L49.5527 17.7578C47.7852 17.1572 45.8369 16.5957 44.084 16.2002V13.3926H42.7461V21.5273H44.084V17.4893C45.6465 17.8652 47.3994 18.3682 49.1523 18.9688ZM52.4344 20.1602L52.6395 21.3125C56.9217 21.1367 59.1092 19.6279 59.1141 16.8398V16.3027H51.4285V17.4453H57.7566C57.4539 19.1787 55.7889 20.0283 52.4344 20.1602ZM52.0926 15.0039H58.5672V13.8613H52.0926V15.0039ZM61.7418 19.9453L61.9371 21.1953C66.1949 20.8242 68.568 18.8467 69.2516 15.082L68.0406 14.8086C67.3668 18.0361 65.4576 19.5938 61.7418 19.9453ZM61.4098 14.8672C62.484 15.2773 63.5387 15.7754 64.5641 16.3711L65.2086 15.2383C64.1588 14.623 63.1041 14.1201 62.0055 13.7246L61.4098 14.8672Z" fill="#FEFEFE"/>
</g>
<path fill-rule="evenodd" clip-rule="evenodd" d="M13.8322 21.0999C15.8419 21.0999 17.4711 19.4708 17.4711 17.4611C17.4711 15.4514 15.8419 13.8222 13.8322 13.8222C11.8225 13.8222 10.1934 15.4514 10.1934 17.4611C10.1934 19.4708 11.8225 21.0999 13.8322 21.0999ZM13.8318 18.3709C14.3342 18.3709 14.7415 17.9636 14.7415 17.4612C14.7415 16.9587 14.3342 16.5514 13.8318 16.5514C13.3294 16.5514 12.9221 16.9587 12.9221 17.4612C12.9221 17.9636 13.3294 18.3709 13.8318 18.3709Z" fill="#D0A359"/>
<path d="M17.194 16.0685C17.3308 16.3988 17.6725 16.7597 17.6455 17.3015C17.6415 17.381 17.6139 17.4448 17.5711 17.4922C17.3173 17.7733 16.7891 17.5367 16.4298 17.6565L16.0445 17.7849C15.7929 17.8688 15.5183 17.8493 15.281 17.7307L14.8379 17.5091C14.7755 17.4779 14.725 17.4274 14.6938 17.365V17.365C14.5287 17.0348 14.2494 16.7851 13.9176 16.6541C13.6103 16.5328 13.3068 16.7628 13.2023 17.0763L13.1467 17.2429C13.0283 17.5981 12.6227 17.7661 12.2878 17.5987V17.5987C12.1146 17.512 11.9107 17.512 11.7375 17.5987L11.5502 17.6923C11.2686 17.8331 10.9373 17.8331 10.6557 17.6923L10.3383 17.5336C10.2422 17.4856 10.149 17.4259 10.0902 17.336C9.82013 16.9226 10.2186 16.5071 10.4702 16.0685C10.6531 15.6271 10.9211 15.2259 11.259 14.888C11.5969 14.5501 11.9981 14.2821 12.4396 14.0992C12.8811 13.9163 13.3543 13.8222 13.8321 13.8222C14.31 13.8222 14.7832 13.9163 15.2246 14.0992C15.6661 14.2821 16.0673 14.5501 16.4052 14.888C16.7431 15.2259 17.0111 15.6271 17.194 16.0685Z" fill="#FDC15F"/>
<line x1="11.8158" y1="14.8026" x2="11.1726" y2="15.4459" stroke="#FEFEFE" stroke-width="0.2"/>
<line x1="12.229" y1="15.6547" x2="12.1116" y2="16.5568" stroke="#FEFEFE" stroke-width="0.2"/>
<line x1="10.9447" y1="16.5901" x2="11.5306" y2="17.2861" stroke="#FEFEFE" stroke-width="0.2"/>
<line x1="16.5813" y1="17.3125" x2="16.6803" y2="16.4082" stroke="#FEFEFE" stroke-width="0.2"/>
<line x1="15.7251" y1="16.9061" x2="15.2521" y2="16.129" stroke="#FEFEFE" stroke-width="0.2"/>
<line x1="16.1408" y1="15.3726" x2="15.2483" y2="15.1966" stroke="#FEFEFE" stroke-width="0.2"/>
<line x1="12.9613" y1="16.5632" x2="13.5443" y2="15.8649" stroke="#FEFEFE" stroke-width="0.2"/>
<line x1="14.5496" y1="14.7746" x2="14.0967" y2="15.5636" stroke="#FEFEFE" stroke-width="0.2"/>
<line x1="13.5023" y1="14.8019" x2="13.0473" y2="14.0141" stroke="#FEFEFE" stroke-width="0.2"/>
</g>
<defs>
<filter id="filter0_d_1315_282" x="0" y="0" width="87" height="34" filterUnits="userSpaceOnUse" color-interpolation-filters="sRGB">
<feFlood flood-opacity="0" result="BackgroundImageFix"/>
<feColorMatrix in="SourceAlpha" type="matrix" values="0 0 0 0 0 0 0 0 0 0 0 0 0 0 0 0 0 0 127 0" result="hardAlpha"/>
<feOffset/>
<feGaussianBlur stdDeviation="2"/>
<feComposite in2="hardAlpha" operator="out"/>
<feColorMatrix type="matrix" values="0 0 0 0 0 0 0 0 0 0 0 0 0 0 0 0 0 0 0.25 0"/>
<feBlend mode="normal" in2="BackgroundImageFix" result="effect1_dropShadow_1315_282"/>
<feBlend mode="normal" in="SourceGraphic" in2="effect1_dropShadow_1315_282" result="shape"/>
</filter>
<filter id="filter1_b_1315_282" x="0" y="0" width="87" height="34" filterUnits="userSpaceOnUse" color-interpolation-filters="sRGB">
<feFlood flood-opacity="0" result="BackgroundImageFix"/>
<feGaussianBlur in="BackgroundImageFix" stdDeviation="2"/>
<feComposite in2="SourceAlpha" operator="in" result="effect1_backgroundBlur_1315_282"/>
<feBlend mode="normal" in="SourceGraphic" in2="effect1_backgroundBlur_1315_282" result="shape"/>
</filter>
</defs>
</svg>
