<svg width="356" height="51" viewBox="0 0 356 51" fill="none" xmlns="http://www.w3.org/2000/svg">
<rect width="356" height="51" rx="5" fill="#FEFEFE"/>
<path d="M134.273 32H132.023L136.12 20.3636H138.722L142.825 32H140.575L137.467 22.75H137.376L134.273 32ZM134.347 27.4375H140.484V29.1307H134.347V27.4375ZM144.266 35.2727V23.2727H146.289V24.7159H146.408C146.514 24.5038 146.664 24.2784 146.857 24.0398C147.05 23.7973 147.312 23.5909 147.641 23.4205C147.971 23.2462 148.391 23.1591 148.903 23.1591C149.577 23.1591 150.185 23.3314 150.727 23.6761C151.272 24.017 151.704 24.5227 152.022 25.1932C152.344 25.8598 152.505 26.678 152.505 27.6477C152.505 28.6061 152.348 29.4205 152.033 30.0909C151.719 30.7614 151.291 31.2727 150.749 31.625C150.208 31.9773 149.594 32.1534 148.908 32.1534C148.408 32.1534 147.994 32.0701 147.664 31.9034C147.335 31.7367 147.069 31.536 146.869 31.3011C146.672 31.0625 146.518 30.8371 146.408 30.625H146.323V35.2727H144.266ZM146.283 27.6364C146.283 28.2008 146.363 28.6951 146.522 29.1193C146.685 29.5436 146.918 29.875 147.221 30.1136C147.528 30.3485 147.899 30.4659 148.335 30.4659C148.789 30.4659 149.17 30.3447 149.477 30.1023C149.783 29.8561 150.014 29.5208 150.17 29.0966C150.329 28.6686 150.408 28.1818 150.408 27.6364C150.408 27.0947 150.331 26.6136 150.175 26.1932C150.02 25.7727 149.789 25.4432 149.482 25.2045C149.175 24.9659 148.793 24.8466 148.335 24.8466C147.895 24.8466 147.522 24.9621 147.215 25.1932C146.908 25.4242 146.675 25.7481 146.516 26.1648C146.361 26.5814 146.283 27.072 146.283 27.6364ZM154.266 35.2727V23.2727H156.289V24.7159H156.408C156.514 24.5038 156.664 24.2784 156.857 24.0398C157.05 23.7973 157.312 23.5909 157.641 23.4205C157.971 23.2462 158.391 23.1591 158.903 23.1591C159.577 23.1591 160.185 23.3314 160.727 23.6761C161.272 24.017 161.704 24.5227 162.022 25.1932C162.344 25.8598 162.505 26.678 162.505 27.6477C162.505 28.6061 162.348 29.4205 162.033 30.0909C161.719 30.7614 161.291 31.2727 160.749 31.625C160.208 31.9773 159.594 32.1534 158.908 32.1534C158.408 32.1534 157.994 32.0701 157.664 31.9034C157.335 31.7367 157.069 31.536 156.869 31.3011C156.672 31.0625 156.518 30.8371 156.408 30.625H156.323V35.2727H154.266ZM156.283 27.6364C156.283 28.2008 156.363 28.6951 156.522 29.1193C156.685 29.5436 156.918 29.875 157.221 30.1136C157.528 30.3485 157.899 30.4659 158.335 30.4659C158.789 30.4659 159.17 30.3447 159.477 30.1023C159.783 29.8561 160.014 29.5208 160.17 29.0966C160.329 28.6686 160.408 28.1818 160.408 27.6364C160.408 27.0947 160.331 26.6136 160.175 26.1932C160.02 25.7727 159.789 25.4432 159.482 25.2045C159.175 24.9659 158.793 24.8466 158.335 24.8466C157.895 24.8466 157.522 24.9621 157.215 25.1932C156.908 25.4242 156.675 25.7481 156.516 26.1648C156.361 26.5814 156.283 27.072 156.283 27.6364ZM166.323 20.3636V32H164.266V20.3636H166.323ZM172.302 32.1705C171.427 32.1705 170.671 31.9886 170.035 31.625C169.402 31.2576 168.916 30.7386 168.575 30.0682C168.234 29.3939 168.063 28.6004 168.063 27.6875C168.063 26.7898 168.234 26.0019 168.575 25.3239C168.919 24.642 169.4 24.1117 170.018 23.733C170.635 23.3504 171.361 23.1591 172.194 23.1591C172.732 23.1591 173.239 23.2462 173.717 23.4205C174.198 23.5909 174.622 23.8561 174.989 24.2159C175.361 24.5758 175.652 25.0341 175.864 25.5909C176.077 26.1439 176.183 26.803 176.183 27.5682V28.1989H169.029V26.8125H174.211C174.207 26.4186 174.122 26.0682 173.955 25.7614C173.789 25.4508 173.556 25.2064 173.256 25.0284C172.961 24.8504 172.616 24.7614 172.222 24.7614C171.802 24.7614 171.433 24.8636 171.114 25.0682C170.796 25.2689 170.548 25.5341 170.37 25.8636C170.196 26.1894 170.107 26.5473 170.103 26.9375V28.1477C170.103 28.6553 170.196 29.0909 170.381 29.4545C170.567 29.8144 170.826 30.0909 171.16 30.2841C171.493 30.4735 171.883 30.5682 172.33 30.5682C172.63 30.5682 172.9 30.5265 173.143 30.4432C173.385 30.3561 173.595 30.2292 173.773 30.0625C173.951 29.8958 174.086 29.6894 174.177 29.4432L176.097 29.6591C175.976 30.1667 175.745 30.6098 175.404 30.9886C175.067 31.3636 174.635 31.6553 174.109 31.8636C173.582 32.0682 172.98 32.1705 172.302 32.1705ZM181.491 30.064V31.792H194.899V30.064H181.491ZM187.107 27.264V30.768H189.235V27.264H187.107ZM182.995 19.568V21.248H191.283V22.832H183.027V26.992H185.139V24.496H193.395V19.568H182.995ZM183.027 26.144V27.856H193.731V26.144H183.027ZM197.569 19.968V21.648H206.961V19.968H197.569ZM196.209 29.76V31.488H209.601V29.76H196.209ZM205.841 19.968V21.728C205.841 23.728 205.841 25.84 205.297 28.688L207.425 28.864C207.953 25.824 207.953 23.808 207.953 21.728V19.968H205.841ZM221.088 18.624V29.264H223.232V18.624H221.088ZM213.36 31.472V33.168H223.6V31.472H213.36ZM213.36 28.192V32.16H215.488V28.192H213.36ZM215.168 19.552C212.896 19.552 211.136 21.12 211.136 23.312C211.136 25.488 212.896 27.072 215.168 27.072C217.44 27.072 219.184 25.488 219.184 23.312C219.184 21.12 217.44 19.552 215.168 19.552ZM215.168 21.392C216.256 21.392 217.104 22.096 217.104 23.312C217.104 24.512 216.256 25.216 215.168 25.216C214.064 25.216 213.216 24.512 213.216 23.312C213.216 22.096 214.064 21.392 215.168 21.392Z" fill="black"/>
</svg>
