<svg width="82" height="35" viewBox="0 0 82 35" fill="none" xmlns="http://www.w3.org/2000/svg">
<g filter="url(#filter0_d_1125_192)">
<g filter="url(#filter1_b_1125_192)">
<rect x="4" y="4" width="74" height="27" rx="13.5" fill="white" fill-opacity="0.46"/>
<circle cx="15.6572" cy="17.6572" r="2.65715" fill="#FFF48E"/>
</g>
<path d="M21.0926 15.1406H23.2605V21H24.7156V15.1406H26.8836V13.9297H21.0926V15.1406ZM27.6559 21H29.1012V17.9824C29.0963 17.333 29.5797 16.8789 30.234 16.8789C30.4342 16.8789 30.7125 16.9131 30.8492 16.957V15.668C30.7223 15.6387 30.5367 15.6191 30.3902 15.6191C29.7945 15.6191 29.3014 15.9658 29.1109 16.6152H29.0523V15.6973H27.6559V21ZM34.2387 21.1074C35.5473 21.1025 36.4262 20.4678 36.6312 19.4863H35.2543C35.1127 19.8037 34.7611 20.0186 34.268 20.0234C33.5209 20.0186 33.0473 19.5254 33.0473 18.7246H36.6703V18.3145C36.6703 16.5078 35.5717 15.6289 34.1801 15.6289C32.6273 15.6289 31.6166 16.7373 31.6215 18.373C31.6166 20.0527 32.6127 21.1025 34.2387 21.1074ZM33.0473 17.8164C33.0766 17.2061 33.5453 16.708 34.2094 16.7129C34.8539 16.708 35.2982 17.1719 35.3031 17.8164H33.0473ZM39.4738 17.9336C39.4738 17.2354 39.8889 16.8301 40.4895 16.8301C41.09 16.8301 41.4416 17.2207 41.4465 17.875V21H42.882V17.6211C42.8869 16.3857 42.1643 15.6289 41.0559 15.6289C40.2697 15.6289 39.7033 16.0146 39.4641 16.625H39.4055V15.6973H38.0285V21H39.4738V17.9336ZM46.4082 21.0879C47.2725 21.0879 47.7119 20.5898 47.9121 20.1504H47.9805V21H49.4062V13.9297H47.9609V16.5859H47.9121C47.7217 16.1562 47.2969 15.6289 46.4082 15.6289C45.2363 15.6289 44.25 16.5371 44.25 18.3535C44.25 20.126 45.1973 21.0879 46.4082 21.0879ZM45.7344 18.3438C45.7295 17.4209 46.1201 16.7812 46.8574 16.7812C47.585 16.7812 47.9902 17.3916 47.9902 18.3438C47.9902 19.3008 47.5801 19.9307 46.8574 19.9355C46.125 19.9307 45.7295 19.2812 45.7344 18.3438ZM51.0184 21H52.4637V15.6973H51.0184V21ZM50.95 14.2715C50.95 14.6719 51.3064 15.0039 51.741 15.0039C52.1707 15.0039 52.5271 14.6719 52.5223 14.2715C52.5271 13.8613 52.1707 13.5342 51.741 13.5293C51.3064 13.5342 50.95 13.8613 50.95 14.2715ZM55.482 17.9336C55.482 17.2354 55.8971 16.8301 56.4977 16.8301C57.0982 16.8301 57.4498 17.2207 57.4547 17.875V21H58.8902V17.6211C58.8951 16.3857 58.1725 15.6289 57.0641 15.6289C56.2779 15.6289 55.7115 16.0146 55.4723 16.625H55.4137V15.6973H54.0367V21H55.482V17.9336ZM62.8461 23.0996C64.3549 23.0996 65.4193 22.4111 65.4242 21.0586V15.6973H63.9887V16.5859H63.9301C63.7348 16.1562 63.3051 15.6289 62.4164 15.6289C61.2445 15.6289 60.2582 16.5225 60.2582 18.3145C60.2582 20.082 61.2201 20.9268 62.4164 20.9219C63.2709 20.9268 63.7396 20.4922 63.9301 20.0625H63.9984V21.0293C63.9936 21.7666 63.5443 22.0547 62.8754 22.0547C62.2992 22.0547 61.8988 21.8643 61.8207 21.4395H60.3949C60.4779 22.4404 61.3812 23.0996 62.8461 23.0996ZM61.7426 18.334C61.7377 17.4209 62.1283 16.7812 62.8656 16.7812C63.5932 16.7812 63.9984 17.3916 63.9984 18.334C63.9984 19.2764 63.5883 19.833 62.8656 19.8379C62.1332 19.833 61.7377 19.252 61.7426 18.334Z" fill="#FEFEFE"/>
</g>
<defs>
<filter id="filter0_d_1125_192" x="0" y="0" width="82" height="35" filterUnits="userSpaceOnUse" color-interpolation-filters="sRGB">
<feFlood flood-opacity="0" result="BackgroundImageFix"/>
<feColorMatrix in="SourceAlpha" type="matrix" values="0 0 0 0 0 0 0 0 0 0 0 0 0 0 0 0 0 0 127 0" result="hardAlpha"/>
<feOffset/>
<feGaussianBlur stdDeviation="2"/>
<feComposite in2="hardAlpha" operator="out"/>
<feColorMatrix type="matrix" values="0 0 0 0 0 0 0 0 0 0 0 0 0 0 0 0 0 0 0.25 0"/>
<feBlend mode="normal" in2="BackgroundImageFix" result="effect1_dropShadow_1125_192"/>
<feBlend mode="normal" in="SourceGraphic" in2="effect1_dropShadow_1125_192" result="shape"/>
</filter>
<filter id="filter1_b_1125_192" x="0" y="0" width="82" height="35" filterUnits="userSpaceOnUse" color-interpolation-filters="sRGB">
<feFlood flood-opacity="0" result="BackgroundImageFix"/>
<feGaussianBlur in="BackgroundImage" stdDeviation="2"/>
<feComposite in2="SourceAlpha" operator="in" result="effect1_backgroundBlur_1125_192"/>
<feBlend mode="normal" in="SourceGraphic" in2="effect1_backgroundBlur_1125_192" result="shape"/>
</filter>
</defs>
</svg>
