<svg width="80" height="35" viewBox="0 0 80 35" fill="none" xmlns="http://www.w3.org/2000/svg">
<g filter="url(#filter0_d_1060_199)">
<g filter="url(#filter1_b_1060_199)">
<g filter="url(#filter2_b_1060_199)">
<rect x="4" y="4" width="72" height="27" rx="13.5" fill="white" fill-opacity="0.46"/>
</g>
<path d="M27.9163 20.209L28.1702 21.332C29.8694 21.293 31.0071 20.2871 31.0023 18.832C31.0071 17.2939 29.723 16.4053 27.4964 16.4004C27.3792 16.4004 27.262 16.4053 27.1448 16.4102V15.3359H29.2933V14.2715H27.1448V13.2168H25.9241V14.2715H23.4925V15.3359H25.9241V16.5664C24.2591 16.9375 23.18 17.8945 23.18 19.1348C23.18 20.3311 24.2054 21.2002 25.6214 21.1953C26.6761 21.2002 27.14 20.7021 27.1448 19.5645V17.499C27.2425 17.4941 27.3401 17.4941 27.4378 17.4941C28.8929 17.4893 29.7278 17.9971 29.723 18.8809C29.7278 19.6719 29.0394 20.1797 27.9163 20.209ZM24.3909 19.1152C24.3958 18.4902 24.9915 17.9629 25.9241 17.6943V19.4766C25.929 19.9404 25.8069 20.0869 25.4456 20.082C24.8499 20.0869 24.3958 19.667 24.3909 19.1152ZM29.5569 14.1836C30.0892 14.8428 30.5091 15.5801 30.8265 16.332L31.8909 15.8633C31.5345 15.0088 31.1341 14.3203 30.5921 13.6367L29.5569 14.1836ZM34.8214 20.3457L35.0265 21.4688C37.5802 21.3467 39.0401 20.165 39.0401 18.2559C39.0401 17.8164 38.9571 17.4453 38.7862 17.1133V15.2285H41.3741V14.2129H38.7862V13.1777H37.4972V14.2129H33.0538V15.2285H37.4972V15.8145C37.2189 15.6729 36.9357 15.6045 36.589 15.5996C35.3146 15.6045 34.4308 16.3809 34.4308 17.5332C34.4308 18.6904 35.2462 19.4521 36.5011 19.457C36.9405 19.4521 37.3653 19.335 37.6876 19.1396C37.3898 19.7842 36.2521 20.2725 34.8214 20.3457ZM35.6905 17.5332C35.6954 16.9473 36.0909 16.5713 36.6866 16.5664C37.2775 16.5713 37.6681 16.9521 37.6632 17.5332C37.6681 18.1387 37.2286 18.4902 36.6671 18.4902C36.0812 18.4902 35.6954 18.0996 35.6905 17.5332ZM44.6464 20.3457L44.8515 21.4688C47.4052 21.3467 48.8651 20.165 48.8651 18.2559C48.8651 17.8164 48.7821 17.4453 48.6112 17.1133V15.2285H51.1991V14.2129H48.6112V13.1777H47.3222V14.2129H42.8788V15.2285H47.3222V15.8145C47.0439 15.6729 46.7607 15.6045 46.414 15.5996C45.1396 15.6045 44.2558 16.3809 44.2558 17.5332C44.2558 18.6904 45.0712 19.4521 46.3261 19.457C46.7655 19.4521 47.1903 19.335 47.5126 19.1396C47.2148 19.7842 46.0771 20.2725 44.6464 20.3457ZM45.5155 17.5332C45.5204 16.9473 45.9159 16.5713 46.5116 16.5664C47.1025 16.5713 47.4931 16.9521 47.4882 17.5332C47.4931 18.1387 47.0536 18.4902 46.4921 18.4902C45.9062 18.4902 45.5204 18.0996 45.5155 17.5332ZM57.6257 20.2188L57.9382 21.3418C59.8376 21.0977 61.0583 19.7598 61.0632 17.9238C61.0583 16.5371 60.3698 15.4824 59.2028 14.9209C59.3591 14.4424 59.5007 13.9395 59.6374 13.4121L58.4558 13.168C58.3288 13.6465 58.197 14.1152 58.0505 14.5596C57.7331 14.5059 57.4011 14.4766 57.0495 14.4766C56.4392 14.4766 55.8776 14.5645 55.3698 14.7305C55.2722 14.335 55.1745 13.9297 55.0769 13.5098L53.8659 13.7832C53.988 14.3057 54.115 14.8086 54.2419 15.2969C53.2507 16.0049 52.6696 17.1426 52.6745 18.5488C52.6696 20.0381 53.3581 20.9609 54.4714 20.9609C56.0339 20.9609 57.6208 19.1152 58.7976 16.0635C59.486 16.4443 59.8718 17.0889 59.8718 17.9238C59.8718 19.1543 59.0173 20.0332 57.6257 20.2188ZM53.8171 18.4902C53.8171 17.6748 54.0905 17.001 54.5886 16.5225C54.8718 17.4746 55.1794 18.3975 55.531 19.335C55.2087 19.6377 54.8962 19.7988 54.6081 19.7988C54.1101 19.8037 53.8171 19.3154 53.8171 18.4902ZM55.6775 15.873C56.0778 15.7412 56.5417 15.668 57.0495 15.668C57.2546 15.668 57.4548 15.6826 57.6403 15.7021C57.2595 16.6885 56.8396 17.5479 56.4148 18.2217C56.1462 17.4551 55.9021 16.6836 55.6775 15.873Z" fill="#FEFEFE"/>
</g>
<circle cx="15.5143" cy="17.6572" r="2.65715" fill="#FFF48E"/>
</g>
<defs>
<filter id="filter0_d_1060_199" x="0" y="0" width="80" height="35" filterUnits="userSpaceOnUse" color-interpolation-filters="sRGB">
<feFlood flood-opacity="0" result="BackgroundImageFix"/>
<feColorMatrix in="SourceAlpha" type="matrix" values="0 0 0 0 0 0 0 0 0 0 0 0 0 0 0 0 0 0 127 0" result="hardAlpha"/>
<feOffset/>
<feGaussianBlur stdDeviation="2"/>
<feComposite in2="hardAlpha" operator="out"/>
<feColorMatrix type="matrix" values="0 0 0 0 0 0 0 0 0 0 0 0 0 0 0 0 0 0 0.25 0"/>
<feBlend mode="normal" in2="BackgroundImageFix" result="effect1_dropShadow_1060_199"/>
<feBlend mode="normal" in="SourceGraphic" in2="effect1_dropShadow_1060_199" result="shape"/>
</filter>
<filter id="filter1_b_1060_199" x="0" y="0" width="80" height="35" filterUnits="userSpaceOnUse" color-interpolation-filters="sRGB">
<feFlood flood-opacity="0" result="BackgroundImageFix"/>
<feGaussianBlur in="BackgroundImage" stdDeviation="2"/>
<feComposite in2="SourceAlpha" operator="in" result="effect1_backgroundBlur_1060_199"/>
<feBlend mode="normal" in="SourceGraphic" in2="effect1_backgroundBlur_1060_199" result="shape"/>
</filter>
<filter id="filter2_b_1060_199" x="0" y="0" width="80" height="35" filterUnits="userSpaceOnUse" color-interpolation-filters="sRGB">
<feFlood flood-opacity="0" result="BackgroundImageFix"/>
<feGaussianBlur in="BackgroundImage" stdDeviation="2"/>
<feComposite in2="SourceAlpha" operator="in" result="effect1_backgroundBlur_1060_199"/>
<feBlend mode="normal" in="SourceGraphic" in2="effect1_backgroundBlur_1060_199" result="shape"/>
</filter>
</defs>
</svg>
