<svg width="350" height="64" viewBox="0 0 350 64" fill="none" xmlns="http://www.w3.org/2000/svg">
<mask id="path-1-inside-1_127_597" fill="white">
<path d="M0 0.615479H350V59.0001C350 61.7615 347.761 64.0001 345 64.0001H4.99999C2.23857 64.0001 0 61.7615 0 59.0001V0.615479Z"/>
</mask>
<path d="M0 0.615479H350V59.0001C350 61.7615 347.761 64.0001 345 64.0001H4.99999C2.23857 64.0001 0 61.7615 0 59.0001V0.615479Z" fill="#26265C"/>
<path d="M0 -0.384521H350V1.61548H0V-0.384521ZM350 64.0001H0H350ZM0 64.0001V0.615479V64.0001ZM350 0.615479V64.0001V0.615479Z" fill="#E4E4FF" mask="url(#path-1-inside-1_127_597)"/>
<path d="M163.031 32.7587V35.1527H165.425V32.7587H163.031ZM170.087 25.1627V36.5027H172.481V25.1627H170.087ZM171.635 29.9147V31.8767H174.569V29.9147H171.635ZM159.323 36.1787C162.239 36.1607 166.055 36.1247 169.529 35.5307L169.349 33.8927C165.983 34.3067 162.041 34.3247 159.053 34.3247L159.323 36.1787ZM161.177 37.1687V39.0047H170.087V41.8127H172.481V37.1687H161.177ZM159.485 26.3687V28.0787H168.935V26.3687H159.485ZM164.219 28.4747C161.753 28.4747 160.151 29.4287 160.151 30.9587C160.151 32.4887 161.753 33.4427 164.219 33.4427C166.667 33.4427 168.269 32.4887 168.269 30.9587C168.269 29.4287 166.667 28.4747 164.219 28.4747ZM164.219 30.0407C165.335 30.0407 166.001 30.3287 166.001 30.9587C166.001 31.5527 165.335 31.8767 164.219 31.8767C163.085 31.8767 162.419 31.5527 162.419 30.9587C162.419 30.3287 163.085 30.0407 164.219 30.0407ZM163.031 25.0187V27.1427H165.425V25.0187H163.031ZM187.078 25.1627V37.1327H189.49V25.1627H187.078ZM178.384 39.6167V41.5247H189.904V39.6167H178.384ZM178.384 35.9267V40.3907H180.778V35.9267H178.384ZM180.418 26.2067C177.862 26.2067 175.882 27.9707 175.882 30.4367C175.882 32.8847 177.862 34.6667 180.418 34.6667C182.974 34.6667 184.936 32.8847 184.936 30.4367C184.936 27.9707 182.974 26.2067 180.418 26.2067ZM180.418 28.2767C181.642 28.2767 182.596 29.0687 182.596 30.4367C182.596 31.7867 181.642 32.5787 180.418 32.5787C179.176 32.5787 178.222 31.7867 178.222 30.4367C178.222 29.0687 179.176 28.2767 180.418 28.2767Z" fill="#FEFEFE"/>
</svg>
