<svg width="69" height="34" viewBox="0 0 69 34" fill="none" xmlns="http://www.w3.org/2000/svg">
<g filter="url(#filter0_d_1315_205)">
<g filter="url(#filter1_b_1315_205)">
<rect x="4" y="4" width="61" height="26" rx="13" fill="white" fill-opacity="0.46"/>
<path d="M21.9281 21H23.393V18.0703H26.2836V16.8594H23.393V15.1406H26.5863V13.9297H21.9281V21ZM29.966 21.1074C31.5725 21.1025 32.5686 20.0039 32.5734 18.3633C32.5686 16.7275 31.5725 15.6289 29.966 15.6289C28.3645 15.6289 27.3635 16.7275 27.3684 18.3633C27.3635 20.0039 28.3645 21.1025 29.966 21.1074ZM28.8332 18.3633C28.8332 17.4307 29.2189 16.7324 29.9758 16.7324C30.7131 16.7324 31.1037 17.4307 31.0988 18.3633C31.1037 19.291 30.7131 19.9795 29.9758 19.9844C29.2189 19.9795 28.8332 19.291 28.8332 18.3633ZM36.3145 21.1074C37.9209 21.1025 38.917 20.0039 38.9219 18.3633C38.917 16.7275 37.9209 15.6289 36.3145 15.6289C34.7129 15.6289 33.7119 16.7275 33.7168 18.3633C33.7119 20.0039 34.7129 21.1025 36.3145 21.1074ZM35.1816 18.3633C35.1816 17.4307 35.5674 16.7324 36.3242 16.7324C37.0615 16.7324 37.4521 17.4307 37.4473 18.3633C37.4521 19.291 37.0615 19.9795 36.3242 19.9844C35.5674 19.9795 35.1816 19.291 35.1816 18.3633ZM42.2332 21.0879C43.0975 21.0879 43.5369 20.5898 43.7371 20.1504H43.8055V21H45.2313V13.9297H43.7859V16.5859H43.7371C43.5467 16.1562 43.1219 15.6289 42.2332 15.6289C41.0613 15.6289 40.075 16.5371 40.075 18.3535C40.075 20.126 41.0223 21.0879 42.2332 21.0879ZM41.5594 18.3438C41.5545 17.4209 41.9451 16.7812 42.6824 16.7812C43.41 16.7812 43.8152 17.3916 43.8152 18.3438C43.8152 19.3008 43.4051 19.9307 42.6824 19.9355C41.95 19.9307 41.5545 19.2812 41.5594 18.3438ZM49.8707 17.2695H51.2281C51.15 16.2637 50.3199 15.6289 48.982 15.6289C47.6148 15.6289 46.7408 16.2637 46.7457 17.2793C46.7408 18.0654 47.2584 18.583 48.2691 18.7832L49.148 18.959C49.6461 19.0615 49.8707 19.2324 49.8707 19.5059C49.8707 19.8477 49.5191 20.0576 48.9918 20.0625C48.4596 20.0576 48.1227 19.8428 48.0543 19.4277H46.5992C46.7213 20.4629 47.5611 21.1025 48.9918 21.1074C50.4029 21.1025 51.3404 20.4043 51.3453 19.3594C51.3404 18.5977 50.8424 18.1387 49.8121 17.9238L48.8648 17.7285C48.3619 17.626 48.1764 17.4404 48.1812 17.2012C48.1764 16.8789 48.5328 16.6592 49.0016 16.6543C49.485 16.6592 49.8072 16.8984 49.8707 17.2695Z" fill="#FEFEFE"/>
</g>
<path fill-rule="evenodd" clip-rule="evenodd" d="M13.8322 21.0999C15.8419 21.0999 17.4711 19.4708 17.4711 17.4611C17.4711 15.4514 15.8419 13.8222 13.8322 13.8222C11.8225 13.8222 10.1934 15.4514 10.1934 17.4611C10.1934 19.4708 11.8225 21.0999 13.8322 21.0999ZM13.8318 18.3709C14.3342 18.3709 14.7415 17.9636 14.7415 17.4612C14.7415 16.9587 14.3342 16.5514 13.8318 16.5514C13.3294 16.5514 12.9221 16.9587 12.9221 17.4612C12.9221 17.9636 13.3294 18.3709 13.8318 18.3709Z" fill="#D0A359"/>
<path d="M17.194 16.0685C17.3308 16.3988 17.6725 16.7597 17.6455 17.3015C17.6415 17.381 17.6139 17.4448 17.5711 17.4922C17.3173 17.7733 16.7891 17.5367 16.4298 17.6565L16.0445 17.7849C15.7929 17.8688 15.5183 17.8493 15.281 17.7307L14.8379 17.5091C14.7755 17.4779 14.725 17.4274 14.6938 17.365V17.365C14.5287 17.0348 14.2494 16.7851 13.9176 16.6541C13.6103 16.5328 13.3068 16.7628 13.2023 17.0763L13.1467 17.2429C13.0283 17.5981 12.6227 17.7661 12.2878 17.5987V17.5987C12.1146 17.512 11.9107 17.512 11.7375 17.5987L11.5502 17.6923C11.2686 17.8331 10.9373 17.8331 10.6557 17.6923L10.3383 17.5336C10.2422 17.4856 10.149 17.4259 10.0902 17.336C9.82013 16.9226 10.2186 16.5071 10.4702 16.0685C10.6531 15.6271 10.9211 15.2259 11.259 14.888C11.5969 14.5501 11.9981 14.2821 12.4396 14.0992C12.8811 13.9163 13.3543 13.8222 13.8321 13.8222C14.31 13.8222 14.7832 13.9163 15.2246 14.0992C15.6661 14.2821 16.0673 14.5501 16.4052 14.888C16.7431 15.2259 17.0111 15.6271 17.194 16.0685Z" fill="#FDC15F"/>
<line x1="11.8168" y1="14.8026" x2="11.1735" y2="15.4459" stroke="#FEFEFE" stroke-width="0.2"/>
<line x1="12.229" y1="15.6547" x2="12.1116" y2="16.5568" stroke="#FEFEFE" stroke-width="0.2"/>
<line x1="10.9452" y1="16.5901" x2="11.531" y2="17.2861" stroke="#FEFEFE" stroke-width="0.2"/>
<line x1="16.5808" y1="17.3125" x2="16.6799" y2="16.4082" stroke="#FEFEFE" stroke-width="0.2"/>
<line x1="15.7256" y1="16.9061" x2="15.2526" y2="16.129" stroke="#FEFEFE" stroke-width="0.2"/>
<line x1="16.1413" y1="15.3726" x2="15.2488" y2="15.1966" stroke="#FEFEFE" stroke-width="0.2"/>
<line x1="12.9613" y1="16.5632" x2="13.5443" y2="15.8649" stroke="#FEFEFE" stroke-width="0.2"/>
<line x1="14.5496" y1="14.7746" x2="14.0967" y2="15.5636" stroke="#FEFEFE" stroke-width="0.2"/>
<line x1="13.5028" y1="14.8019" x2="13.0478" y2="14.0141" stroke="#FEFEFE" stroke-width="0.2"/>
</g>
<defs>
<filter id="filter0_d_1315_205" x="0" y="0" width="69" height="34" filterUnits="userSpaceOnUse" color-interpolation-filters="sRGB">
<feFlood flood-opacity="0" result="BackgroundImageFix"/>
<feColorMatrix in="SourceAlpha" type="matrix" values="0 0 0 0 0 0 0 0 0 0 0 0 0 0 0 0 0 0 127 0" result="hardAlpha"/>
<feOffset/>
<feGaussianBlur stdDeviation="2"/>
<feComposite in2="hardAlpha" operator="out"/>
<feColorMatrix type="matrix" values="0 0 0 0 0 0 0 0 0 0 0 0 0 0 0 0 0 0 0.25 0"/>
<feBlend mode="normal" in2="BackgroundImageFix" result="effect1_dropShadow_1315_205"/>
<feBlend mode="normal" in="SourceGraphic" in2="effect1_dropShadow_1315_205" result="shape"/>
</filter>
<filter id="filter1_b_1315_205" x="0" y="0" width="69" height="34" filterUnits="userSpaceOnUse" color-interpolation-filters="sRGB">
<feFlood flood-opacity="0" result="BackgroundImageFix"/>
<feGaussianBlur in="BackgroundImageFix" stdDeviation="2"/>
<feComposite in2="SourceAlpha" operator="in" result="effect1_backgroundBlur_1315_205"/>
<feBlend mode="normal" in="SourceGraphic" in2="effect1_backgroundBlur_1315_205" result="shape"/>
</filter>
</defs>
</svg>
