<svg width="180" height="256" viewBox="0 0 180 256" fill="none" xmlns="http://www.w3.org/2000/svg">
<rect x="0.5" y="0.5" width="179" height="255" rx="5.5" fill="#FEFEFE" fill-opacity="0.9" stroke="#E4E4FF"/>
<path d="M49.9739 82.772V83.465C49.9739 84.73 49.2589 86.039 47.5539 86.578L48.2909 87.733C50.2599 87.106 51.1729 85.368 51.1729 83.465V82.772H49.9739ZM50.2599 82.772V83.454C50.2599 85.258 51.1619 86.919 53.0979 87.513L53.8019 86.358C52.1519 85.841 51.4589 84.642 51.4589 83.454V82.772H50.2599ZM47.9389 82.387V83.542H53.4499V82.387H47.9389ZM54.2859 81.793V87.689H55.7489V81.793H54.2859ZM55.3419 84.092V85.28H57.1019V84.092H55.3419ZM49.1269 88.096V91.869H55.7489V88.096H49.1269ZM54.3189 89.24V90.714H50.5679V89.24H54.3189ZM58.8721 82.244V83.41H65.3291V82.244H58.8721ZM57.7501 85.907V87.073H66.9681V85.907H57.7501ZM64.4491 82.244V83.058C64.4491 83.927 64.4491 84.862 64.1301 86.182L65.5821 86.204C65.8901 84.884 65.8901 83.938 65.8901 83.058V82.244H64.4491ZM58.8281 88.14V91.869H65.8461V88.14H58.8281ZM64.4051 89.273V90.714H60.2581V89.273H64.4051ZM68.6392 84.906V86.072H73.6332V84.906H68.6392ZM70.3882 85.654V87.601H71.8512V85.654H70.3882ZM68.6392 82.409V85.39H70.1022V83.575H73.5672V82.409H68.6392ZM74.7662 81.782V89.449H76.2402V81.782H74.7662ZM69.3432 90.637V91.803H76.5152V90.637H69.3432ZM69.3432 88.91V91.077H70.8062V88.91H69.3432ZM67.9792 88.305C69.8492 88.305 72.1372 88.261 74.2602 87.953L74.1612 86.908C72.1152 87.128 69.7282 87.15 67.8032 87.15L67.9792 88.305ZM87.3939 81.782V92.001H88.8569V81.782H87.3939ZM80.9259 88.437V89.625H81.8279C83.6869 89.625 85.1829 89.57 86.8329 89.273L86.6899 88.096C85.0729 88.371 83.6319 88.437 81.8279 88.437H80.9259ZM80.9149 82.651V83.817H84.2259V85.434H80.9259V88.877H82.4109V86.589H85.7219V82.651H80.9149ZM92.442 87.744V91.979H93.916V87.744H92.442ZM96.083 87.744V91.979H97.557V87.744H96.083ZM90.385 87.568V88.734H99.614V87.568H90.385ZM91.441 82.167V86.611H98.525V82.167H97.073V83.278H92.893V82.167H91.441ZM92.893 84.433H97.073V85.434H92.893V84.433ZM107.39 81.793V87.271H108.864V81.793H107.39ZM102.088 87.711V91.869H108.864V87.711H107.412V88.657H103.529V87.711H102.088ZM103.529 89.779H107.412V90.703H103.529V89.779ZM103.32 82.211C101.736 82.211 100.548 83.212 100.548 84.62C100.548 86.028 101.736 87.029 103.32 87.029C104.904 87.029 106.081 86.028 106.081 84.62C106.081 83.212 104.904 82.211 103.32 82.211ZM103.32 83.421C104.09 83.421 104.651 83.872 104.651 84.62C104.651 85.379 104.09 85.819 103.32 85.819C102.539 85.819 101.978 85.379 101.978 84.62C101.978 83.872 102.539 83.421 103.32 83.421ZM117.454 81.793V91.979H118.917V81.793H117.454ZM110.942 82.761V89.086H112.394V82.761H110.942ZM110.942 88.228V89.471H111.844C113.395 89.471 115.078 89.361 116.827 88.998L116.662 87.788C114.979 88.118 113.329 88.228 111.844 88.228H110.942ZM126.924 81.782V92.001H128.398V81.782H126.924ZM128.068 85.555V86.754H129.872V85.555H128.068ZM120.808 88.338V89.548H121.666C123.437 89.548 124.834 89.504 126.374 89.229L126.231 88.019C124.735 88.283 123.382 88.338 121.666 88.338H120.808ZM120.808 82.728V88.921H122.26V83.905H125.56V82.728H120.808ZM35.1802 110.109C34.6593 110.109 34.1932 110.012 33.7817 109.816C33.3703 109.618 33.0434 109.348 32.8013 109.004C32.5617 108.66 32.4341 108.267 32.4184 107.824H33.8247C33.8507 108.152 33.9927 108.421 34.2505 108.629C34.5083 108.835 34.8182 108.937 35.1802 108.937C35.464 108.937 35.7166 108.872 35.938 108.742C36.1593 108.612 36.3338 108.431 36.4614 108.199C36.589 107.967 36.6515 107.703 36.6489 107.406C36.6515 107.104 36.5877 106.836 36.4575 106.602C36.3273 106.367 36.1489 106.184 35.9223 106.051C35.6958 105.915 35.4354 105.848 35.1411 105.848C34.9015 105.845 34.6658 105.889 34.4341 105.98C34.2023 106.072 34.0187 106.191 33.8833 106.34L32.5747 106.125L32.9927 102H37.6333V103.211H34.1919L33.9614 105.332H34.0083C34.1567 105.158 34.3664 105.013 34.6372 104.898C34.908 104.781 35.2049 104.723 35.5278 104.723C36.0122 104.723 36.4445 104.837 36.8247 105.066C37.2049 105.293 37.5044 105.605 37.7231 106.004C37.9419 106.402 38.0513 106.858 38.0513 107.371C38.0513 107.9 37.9289 108.371 37.6841 108.785C37.4419 109.197 37.1046 109.521 36.6723 109.758C36.2427 109.992 35.7453 110.109 35.1802 110.109ZM42.2069 110.152C41.5636 110.152 41.0116 109.99 40.5506 109.664C40.0923 109.336 39.7394 108.863 39.492 108.246C39.2472 107.626 39.1248 106.88 39.1248 106.008C39.1274 105.135 39.2511 104.393 39.4959 103.781C39.7433 103.167 40.0962 102.698 40.5545 102.375C41.0155 102.052 41.5662 101.891 42.2069 101.891C42.8475 101.891 43.3983 102.052 43.8592 102.375C44.3202 102.698 44.673 103.167 44.9178 103.781C45.1652 104.396 45.2889 105.138 45.2889 106.008C45.2889 106.883 45.1652 107.63 44.9178 108.25C44.673 108.867 44.3202 109.339 43.8592 109.664C43.4009 109.99 42.8501 110.152 42.2069 110.152ZM42.2069 108.93C42.7069 108.93 43.1014 108.684 43.3905 108.191C43.6821 107.697 43.828 106.969 43.828 106.008C43.828 105.372 43.7616 104.839 43.6288 104.406C43.4959 103.974 43.3084 103.648 43.0662 103.43C42.8241 103.208 42.5376 103.098 42.2069 103.098C41.7095 103.098 41.3162 103.345 41.0272 103.84C40.7381 104.332 40.5923 105.055 40.5897 106.008C40.5871 106.646 40.6509 107.182 40.7811 107.617C40.9139 108.052 41.1014 108.38 41.3436 108.602C41.5858 108.82 41.8735 108.93 42.2069 108.93ZM49.4338 110.152C48.7906 110.152 48.2385 109.99 47.7775 109.664C47.3192 109.336 46.9663 108.863 46.7189 108.246C46.4742 107.626 46.3518 106.88 46.3518 106.008C46.3544 105.135 46.4781 104.393 46.7229 103.781C46.9702 103.167 47.3231 102.698 47.7814 102.375C48.2424 102.052 48.7932 101.891 49.4338 101.891C50.0744 101.891 50.6252 102.052 51.0861 102.375C51.5471 102.698 51.8999 103.167 52.1447 103.781C52.3921 104.396 52.5158 105.138 52.5158 106.008C52.5158 106.883 52.3921 107.63 52.1447 108.25C51.8999 108.867 51.5471 109.339 51.0861 109.664C50.6278 109.99 50.077 110.152 49.4338 110.152ZM49.4338 108.93C49.9338 108.93 50.3283 108.684 50.6174 108.191C50.909 107.697 51.0549 106.969 51.0549 106.008C51.0549 105.372 50.9885 104.839 50.8557 104.406C50.7229 103.974 50.5354 103.648 50.2932 103.43C50.051 103.208 49.7645 103.098 49.4338 103.098C48.9364 103.098 48.5432 103.345 48.2541 103.84C47.965 104.332 47.8192 105.055 47.8166 106.008C47.814 106.646 47.8778 107.182 48.008 107.617C48.1408 108.052 48.3283 108.38 48.5705 108.602C48.8127 108.82 49.1005 108.93 49.4338 108.93ZM56.3592 101.75V108.504H61.2323V101.75H56.3592ZM59.7913 102.894V107.349H57.8003V102.894H59.7913ZM62.5633 100.793V110.979H64.0373V100.793H62.5633ZM63.7073 104.632V105.842H65.5113V104.632H63.7073ZM68.9314 101.09C67.3804 101.09 66.2144 102.058 66.2144 103.422C66.2144 104.775 67.3804 105.743 68.9314 105.743C70.4824 105.743 71.6484 104.775 71.6484 103.422C71.6484 102.058 70.4824 101.09 68.9314 101.09ZM68.9314 102.278C69.6794 102.278 70.2294 102.696 70.2294 103.422C70.2294 104.148 69.6794 104.566 68.9314 104.566C68.1834 104.566 67.6224 104.148 67.6224 103.422C67.6224 102.696 68.1834 102.278 68.9314 102.278ZM73.0564 100.793V105.886H74.5304V100.793H73.0564ZM67.7324 106.304V107.437H73.0784V108.042H67.7544V110.33H69.1844V109.098H74.5304V106.304H67.7324ZM67.7544 109.736V110.869H74.7834V109.736H67.7544ZM83.0875 100.782V111.001H84.5505V100.782H83.0875ZM76.6195 107.437V108.625H77.5215C79.3805 108.625 80.8765 108.57 82.5265 108.273L82.3835 107.096C80.7665 107.371 79.3255 107.437 77.5215 107.437H76.6195ZM76.6085 101.651V102.817H79.9195V104.434H76.6195V107.877H78.1045V105.589H81.4155V101.651H76.6085ZM88.5317 102.399V103.543C88.5317 105.27 87.7067 107.151 86.0017 107.91L86.8267 109.065C88.7407 108.196 89.6977 105.897 89.6977 103.543V102.399H88.5317ZM88.8617 102.399V103.543C88.8617 105.809 89.8077 107.976 91.7437 108.812L92.5357 107.657C90.8307 106.953 90.0167 105.193 90.0167 103.543V102.399H88.8617ZM86.4087 101.772V102.971H92.1177V101.772H86.4087ZM93.0637 100.793V110.979H94.5377V100.793H93.0637ZM96.0878 105.358V106.425H105.317V105.358H96.0878ZM97.1218 106.931V107.921H102.776V108.427H97.1438V110.22H98.5958V109.351H104.217V106.931H97.1218ZM97.1438 109.912V110.902H104.503V109.912H97.1438ZM97.2208 100.969V101.948H102.754V102.454H97.2318V104.203H98.6838V103.367H104.195V100.969H97.2208ZM97.2318 103.895V104.885H104.382V103.895H97.2318ZM111.003 101.574V103.059C111.003 104.951 110.222 106.909 108.506 107.712L109.386 108.889C111.311 107.943 112.191 105.578 112.191 103.059V101.574H111.003ZM111.3 101.574V103.059C111.3 105.501 112.103 107.767 113.94 108.702L114.82 107.536C113.192 106.744 112.466 104.885 112.466 103.059V101.574H111.3ZM115.227 100.793V110.979H116.701V100.793H115.227ZM116.371 104.709V105.93H118.175V104.709H116.371ZM120.793 104.203V106.073H122.256V104.203H120.793ZM124.379 104.203V106.073H125.831V104.203H124.379ZM118.725 105.622V106.777H127.932V105.622H118.725ZM123.312 107.294C121.101 107.294 119.77 107.954 119.77 109.131C119.77 110.319 121.101 110.979 123.312 110.979C125.512 110.979 126.843 110.319 126.843 109.131C126.843 107.954 125.512 107.294 123.312 107.294ZM123.312 108.394C124.676 108.394 125.369 108.625 125.369 109.131C125.369 109.648 124.676 109.879 123.312 109.879C121.948 109.879 121.255 109.648 121.255 109.131C121.255 108.625 121.948 108.394 123.312 108.394ZM123.334 100.936C121.079 100.936 119.649 101.684 119.649 102.905C119.649 104.115 121.079 104.841 123.334 104.841C125.578 104.841 127.019 104.115 127.019 102.905C127.019 101.684 125.578 100.936 123.334 100.936ZM123.334 102.058C124.731 102.058 125.512 102.333 125.512 102.905C125.512 103.466 124.731 103.741 123.334 103.741C121.937 103.741 121.156 103.466 121.156 102.905C121.156 102.333 121.937 102.058 123.334 102.058ZM135.268 100.793V110.979H136.72V100.793H135.268ZM136.39 104.764V105.985H138.194V104.764H136.39ZM128.69 102.3V103.466H134.619V102.3H128.69ZM131.671 104.038C130.186 104.038 129.086 105.05 129.086 106.469C129.086 107.888 130.186 108.9 131.671 108.9C133.156 108.9 134.256 107.888 134.256 106.469C134.256 105.05 133.156 104.038 131.671 104.038ZM131.671 105.226C132.364 105.226 132.859 105.688 132.859 106.469C132.859 107.25 132.364 107.712 131.671 107.712C130.978 107.712 130.483 107.25 130.483 106.469C130.483 105.688 130.978 105.226 131.671 105.226ZM130.934 100.958V102.74H132.397V100.958H130.934ZM143.297 102.872V104.049H146.069V102.872H143.297ZM143.297 106.029V107.206H146.069V106.029H143.297ZM141.537 101.497C140.008 101.497 138.908 102.905 138.908 105.127C138.908 107.371 140.008 108.779 141.537 108.779C143.055 108.779 144.166 107.371 144.166 105.127C144.166 102.905 143.055 101.497 141.537 101.497ZM141.537 102.828C142.285 102.828 142.78 103.631 142.78 105.127C142.78 106.645 142.285 107.459 141.537 107.459C140.8 107.459 140.294 106.645 140.294 105.127C140.294 103.631 140.8 102.828 141.537 102.828ZM145.838 100.782V111.001H147.29V100.782H145.838ZM38.1068 113.782V124.001H39.5698V113.782H38.1068ZM31.6388 120.437V121.625H32.5408C34.3998 121.625 35.8958 121.57 37.5458 121.273L37.4028 120.096C35.7858 120.371 34.3448 120.437 32.5408 120.437H31.6388ZM31.6278 114.651V115.817H34.9388V117.434H31.6388V120.877H33.1238V118.589H36.4348V114.651H31.6278ZM43.1549 119.744V123.979H44.6289V119.744H43.1549ZM46.7959 119.744V123.979H48.2699V119.744H46.7959ZM41.0979 119.568V120.734H50.3269V119.568H41.0979ZM42.1539 114.167V118.611H49.2379V114.167H47.7859V115.278H43.6059V114.167H42.1539ZM43.6059 116.433H47.7859V117.434H43.6059V116.433ZM51.1071 118.358V119.425H60.3361V118.358H51.1071ZM52.1411 119.931V120.921H57.7951V121.427H52.1631V123.22H53.6151V122.351H59.2361V119.931H52.1411ZM52.1631 122.912V123.902H59.5221V122.912H52.1631ZM52.2401 113.969V114.948H57.7731V115.454H52.2511V117.203H53.7031V116.367H59.2141V113.969H52.2401ZM52.2511 116.895V117.885H59.4011V116.895H52.2511ZM66.0447 118.446V119.909H67.5077V118.446H66.0447ZM70.3567 113.804V120.734H71.8197V113.804H70.3567ZM71.3027 116.708V117.907H73.0957V116.708H71.3027ZM63.7787 120.536C65.5607 120.525 67.8927 120.503 70.0157 120.14L69.9057 119.139C67.8487 119.392 65.4397 119.403 63.6137 119.403L63.7787 120.536ZM64.9117 121.141V122.263H70.3567V123.979H71.8197V121.141H64.9117ZM63.8777 114.541V115.586H69.6527V114.541H63.8777ZM66.7707 115.828C65.2637 115.828 64.2847 116.411 64.2847 117.346C64.2847 118.281 65.2637 118.864 66.7707 118.864C68.2667 118.864 69.2457 118.281 69.2457 117.346C69.2457 116.411 68.2667 115.828 66.7707 115.828ZM66.7707 116.785C67.4527 116.785 67.8597 116.961 67.8597 117.346C67.8597 117.709 67.4527 117.907 66.7707 117.907C66.0777 117.907 65.6707 117.709 65.6707 117.346C65.6707 116.961 66.0777 116.785 66.7707 116.785ZM66.0447 113.716V115.014H67.5077V113.716H66.0447ZM80.7398 113.804V121.119H82.2138V113.804H80.7398ZM75.4268 122.637V123.803H82.4668V122.637H75.4268ZM75.4268 120.382V123.11H76.8898V120.382H75.4268ZM76.6698 114.442C75.1078 114.442 73.8978 115.52 73.8978 117.027C73.8978 118.523 75.1078 119.612 76.6698 119.612C78.2318 119.612 79.4308 118.523 79.4308 117.027C79.4308 115.52 78.2318 114.442 76.6698 114.442ZM76.6698 115.707C77.4178 115.707 78.0008 116.191 78.0008 117.027C78.0008 117.852 77.4178 118.336 76.6698 118.336C75.9108 118.336 75.3278 117.852 75.3278 117.027C75.3278 116.191 75.9108 115.707 76.6698 115.707ZM90.287 113.793V123.979H91.739V113.793H90.287ZM91.409 117.764V118.985H93.213V117.764H91.409ZM83.709 115.3V116.466H89.638V115.3H83.709ZM86.69 117.038C85.205 117.038 84.105 118.05 84.105 119.469C84.105 120.888 85.205 121.9 86.69 121.9C88.175 121.9 89.275 120.888 89.275 119.469C89.275 118.05 88.175 117.038 86.69 117.038ZM86.69 118.226C87.383 118.226 87.878 118.688 87.878 119.469C87.878 120.25 87.383 120.712 86.69 120.712C85.997 120.712 85.502 120.25 85.502 119.469C85.502 118.688 85.997 118.226 86.69 118.226ZM85.953 113.958V115.74H87.416V113.958H85.953ZM96.2481 114.574V116.059C96.2481 118.039 95.4121 119.997 93.6411 120.767L94.5101 121.977C96.5341 121.042 97.4361 118.677 97.4361 116.059V114.574H96.2481ZM96.5341 114.574V116.059C96.5341 118.567 97.4361 120.833 99.4051 121.735L100.263 120.558C98.5251 119.81 97.7221 117.94 97.7221 116.059V114.574H96.5341ZM100.747 113.782V124.001H102.221V113.782H100.747ZM106.763 114.486V115.014C106.763 116.741 105.894 117.973 103.771 118.809L104.486 119.876C107.093 118.798 108.237 117.06 108.237 114.486H106.763ZM104.299 114.486V115.663H107.335V114.486H104.299ZM111.064 113.793V119.579H112.45V113.793H111.064ZM107.049 116.444V117.599H109.205V116.444H107.049ZM108.996 113.991V119.447H110.36V113.991H108.996ZM106.125 119.898V120.349C106.125 121.35 105.553 122.373 104.222 122.835L104.937 123.902C106.532 123.319 107.214 121.9 107.214 120.349V119.898H106.125ZM106.488 119.898V120.349C106.488 121.856 107.071 123.385 108.688 123.99L109.282 122.923C108.028 122.395 107.533 121.35 107.533 120.349V119.898H106.488ZM109.821 119.898V120.349C109.821 121.251 109.326 122.351 108.072 122.923L108.688 123.99C110.272 123.363 110.866 121.768 110.866 120.349V119.898H109.821ZM110.162 119.898V120.349C110.162 121.966 110.833 123.341 112.45 123.902L113.154 122.835C111.823 122.417 111.262 121.416 111.262 120.349V119.898H110.162ZM114.858 119.898V123.869H121.832V119.898H120.38V120.756H116.299V119.898H114.858ZM116.299 121.845H120.38V122.725H116.299V121.845ZM113.78 118.237V119.392H122.987V118.237H113.78ZM117.641 113.903V114.211C117.641 115.245 116.53 116.378 114.231 116.653L114.748 117.786C117.377 117.445 118.895 115.982 118.895 114.211V113.903H117.641ZM117.883 113.903V114.211C117.883 115.971 119.39 117.445 122.019 117.786L122.536 116.653C120.248 116.378 119.137 115.234 119.137 114.211V113.903H117.883ZM130.841 113.793V123.979H132.304V113.793H130.841ZM124.329 114.761V121.086H125.781V114.761H124.329ZM124.329 120.228V121.471H125.231C126.782 121.471 128.465 121.361 130.214 120.998L130.049 119.788C128.366 120.118 126.716 120.228 125.231 120.228H124.329ZM140.432 113.793V123.979H141.895V113.793H140.432ZM141.444 117.775V118.985H143.215V117.775H141.444ZM135.438 114.827V115.003C135.438 117.588 135.163 119.282 133.59 121.02L134.734 121.845C136.538 119.821 136.802 117.654 136.802 114.827H135.438ZM134.041 114.827V116.015H136.01V114.827H134.041ZM138.243 114.827V114.992C138.243 117.775 137.99 119.733 136.45 121.68L137.594 122.494C139.365 120.283 139.607 117.786 139.607 114.827H138.243ZM137.143 114.827V116.015H138.848V114.827H137.143ZM145.446 120.648V120.547C145.449 120.076 145.493 119.701 145.579 119.422C145.667 119.143 145.792 118.919 145.954 118.75C146.115 118.578 146.312 118.421 146.544 118.277C146.702 118.178 146.844 118.07 146.969 117.953C147.097 117.833 147.197 117.701 147.27 117.555C147.343 117.406 147.38 117.241 147.38 117.059C147.38 116.853 147.331 116.674 147.235 116.523C147.139 116.372 147.008 116.255 146.844 116.172C146.683 116.089 146.502 116.047 146.301 116.047C146.117 116.047 145.941 116.087 145.774 116.168C145.61 116.246 145.473 116.366 145.364 116.527C145.257 116.686 145.197 116.888 145.184 117.133H143.794C143.807 116.638 143.926 116.224 144.153 115.891C144.382 115.557 144.684 115.307 145.059 115.141C145.437 114.974 145.854 114.891 146.309 114.891C146.807 114.891 147.244 114.978 147.622 115.152C148.002 115.327 148.298 115.576 148.508 115.898C148.722 116.219 148.829 116.599 148.829 117.039C148.829 117.336 148.781 117.602 148.684 117.836C148.59 118.07 148.456 118.279 148.282 118.461C148.107 118.643 147.9 118.806 147.661 118.949C147.45 119.079 147.277 119.215 147.141 119.355C147.008 119.496 146.909 119.661 146.844 119.852C146.782 120.039 146.749 120.271 146.747 120.547V120.648H145.446ZM146.126 123.086C145.891 123.086 145.689 123.003 145.52 122.836C145.351 122.669 145.266 122.466 145.266 122.227C145.266 121.992 145.351 121.792 145.52 121.625C145.689 121.458 145.891 121.375 146.126 121.375C146.357 121.375 146.558 121.458 146.727 121.625C146.899 121.792 146.985 121.992 146.985 122.227C146.985 122.385 146.945 122.53 146.864 122.66C146.786 122.79 146.682 122.895 146.551 122.973C146.424 123.048 146.282 123.086 146.126 123.086Z" fill="#7070FF"/>
</svg>
