<svg width="390" height="64" viewBox="0 0 390 64" fill="none" xmlns="http://www.w3.org/2000/svg">
<rect width="390" height="64" rx="7" fill="#7070FF"/>
<path d="M338.597 21.8392C339.019 21.112 340.121 21.1381 340.501 21.8879C342.087 25.0152 343.297 26.2533 346.249 27.7194C347.015 28.1001 347.047 29.2352 346.306 29.6633C345.17 30.3199 343.783 31.2178 342.885 32.1332C342.032 33.0033 341.191 34.3277 340.573 35.4143C340.156 36.1465 339.027 36.1498 338.608 35.4189C337.963 34.2928 337.079 32.9082 336.202 32.0303C335.327 31.1561 333.95 30.2765 332.827 29.632C332.094 29.2115 332.1 28.075 332.835 27.6586C333.922 27.0435 335.24 26.2059 336.099 25.3468C336.993 24.4526 337.922 23.0034 338.597 21.8392Z" fill="#FDC15F"/>
<path d="M322.92 42.204C322.556 41.9944 322.569 41.4439 322.944 41.2552C324.682 40.3823 325.343 39.7349 326.149 38.0929C326.338 37.7087 326.905 37.6933 327.118 38.0648C327.471 38.6818 327.966 39.4568 328.471 39.9522C328.951 40.4233 329.691 40.8873 330.282 41.2198C330.649 41.4265 330.651 41.9907 330.284 42.1987C329.673 42.5454 328.9 43.0326 328.416 43.5167C327.934 43.999 327.449 44.768 327.102 45.3777C326.893 45.7451 326.326 45.7419 326.119 45.3733C325.788 44.7829 325.326 44.046 324.852 43.5716C324.359 43.0789 323.551 42.5666 322.92 42.204Z" fill="#FFF48E"/>
<path d="M50.9788 30.1132C51.4041 29.3881 52.5067 29.4159 52.8906 30.1637C54.2941 32.8976 55.4047 34.0352 57.9819 35.336C58.7459 35.7217 58.7769 36.8568 58.0384 37.2893C57.0171 37.8874 55.8127 38.6802 55.0207 39.4878C54.2682 40.2552 53.5262 41.4047 52.9636 42.3808C52.543 43.1106 51.4113 43.1135 50.9885 42.3849C50.4005 41.3715 49.6205 40.1682 48.8452 39.3928C48.0734 38.621 46.8774 37.8446 45.8668 37.2575C45.1361 36.833 45.142 35.6944 45.8748 35.2736C46.8499 34.7137 47.9929 33.9745 48.7502 33.2173C49.5417 32.4257 50.3626 31.1636 50.9788 30.1132Z" fill="#FFF48E"/>
<path d="M60.72 24.7554C60.3566 24.5442 60.37 23.9932 60.7447 23.8028C62.2709 23.0274 62.8806 22.4316 63.5979 20.9913C63.7887 20.6082 64.3563 20.5922 64.5707 20.9625C64.8936 21.52 65.3325 22.1961 65.78 22.6349C66.2053 23.0519 66.8507 23.463 67.3837 23.7668C67.7495 23.9754 67.7513 24.5405 67.3861 24.7502C66.8335 25.0675 66.1585 25.4993 65.7293 25.9285C65.3019 26.3559 64.8719 27.0271 64.555 27.5783C64.3444 27.9446 63.7759 27.9414 63.5673 27.5739C63.2649 27.0411 62.8555 26.399 62.4357 25.9792C61.9983 25.5418 61.2915 25.0876 60.72 24.7554Z" fill="#FEFEFE"/>
<path d="M104.176 24.608V32.96H106.304V24.608H104.176ZM105.728 27.728V29.456H108.272V27.728H105.728ZM96.656 33.632V39.264H106.304V33.632H96.656ZM104.224 35.296V37.584H98.752V35.296H104.224ZM95.232 25.312V31.376H97.36V25.312H95.232ZM95.232 30.464V32.208H96.48C98.576 32.208 100.848 32.08 103.264 31.584L103.024 29.872C100.688 30.32 98.496 30.464 96.48 30.464H95.232ZM109.359 32.16V33.856H122.751V32.16H109.359ZM110.975 37.472V39.168H121.247V37.472H110.975ZM110.975 34.848V38.016H113.103V34.848H110.975ZM116.063 25.04C112.831 25.04 110.703 26.208 110.703 28.096C110.703 29.984 112.831 31.152 116.063 31.152C119.279 31.152 121.423 29.984 121.423 28.096C121.423 26.208 119.279 25.04 116.063 25.04ZM116.063 26.736C118.063 26.736 119.231 27.2 119.231 28.096C119.231 29.008 118.063 29.456 116.063 29.456C114.063 29.456 112.895 29.008 112.895 28.096C112.895 27.2 114.063 26.736 116.063 26.736ZM128.494 26V35.824H135.582V26H128.494ZM133.486 27.664V34.144H130.59V27.664H133.486ZM137.518 24.608V39.424H139.662V24.608H137.518ZM139.182 30.192V31.952H141.806V30.192H139.182ZM146.941 25.04C144.685 25.04 142.989 26.448 142.989 28.432C142.989 30.4 144.685 31.808 146.941 31.808C149.197 31.808 150.893 30.4 150.893 28.432C150.893 26.448 149.197 25.04 146.941 25.04ZM146.941 26.768C148.029 26.768 148.829 27.376 148.829 28.432C148.829 29.488 148.029 30.096 146.941 30.096C145.853 30.096 145.037 29.488 145.037 28.432C145.037 27.376 145.853 26.768 146.941 26.768ZM152.941 24.608V32.016H155.085V24.608H152.941ZM145.197 32.624V34.272H152.973V35.152H145.229V38.48H147.309V36.688H155.085V32.624H145.197ZM145.229 37.616V39.264H155.453V37.616H145.229ZM167.692 24.592V39.456H169.82V24.592H167.692ZM158.284 34.272V36H159.596C162.3 36 164.476 35.92 166.876 35.488L166.668 33.776C164.316 34.176 162.22 34.272 159.596 34.272H158.284ZM158.268 25.856V27.552H163.084V29.904H158.284V34.912H160.444V31.584H165.26V25.856H158.268ZM175.771 26.944V28.608C175.771 31.12 174.571 33.856 172.09 34.96L173.291 36.64C176.075 35.376 177.467 32.032 177.467 28.608V26.944H175.771ZM176.251 26.944V28.608C176.251 31.904 177.627 35.056 180.443 36.272L181.595 34.592C179.115 33.568 177.931 31.008 177.931 28.608V26.944H176.251ZM172.683 26.032V27.776H180.987V26.032H172.683ZM182.363 24.608V39.424H184.507V24.608H182.363ZM208.449 38.125C208.104 38.125 207.809 38.0038 207.562 37.7614C207.316 37.5189 207.195 37.2235 207.199 36.875C207.195 36.5341 207.316 36.2424 207.562 36C207.809 35.7576 208.104 35.6364 208.449 35.6364C208.782 35.6364 209.072 35.7576 209.318 36C209.568 36.2424 209.695 36.5341 209.699 36.875C209.695 37.1061 209.634 37.3163 209.517 37.5057C209.403 37.6951 209.252 37.8466 209.062 37.9602C208.877 38.0701 208.672 38.125 208.449 38.125ZM208.449 31.8977C208.104 31.8977 207.809 31.7765 207.562 31.5341C207.316 31.2879 207.195 30.9924 207.199 30.6477C207.195 30.3068 207.316 30.0152 207.562 29.7727C207.809 29.5265 208.104 29.4034 208.449 29.4034C208.782 29.4034 209.072 29.5265 209.318 29.7727C209.568 30.0152 209.695 30.3068 209.699 30.6477C209.695 30.875 209.634 31.0833 209.517 31.2727C209.403 31.4621 209.252 31.6136 209.062 31.7273C208.877 31.8409 208.672 31.8977 208.449 31.8977Z" fill="#E4E4FF"/>
</svg>
