<svg width="356" height="51" viewBox="0 0 356 51" fill="none" xmlns="http://www.w3.org/2000/svg">
<rect width="356" height="51" rx="5" fill="#FDE45F"/>
<path d="M111.781 32V20.3636H113.888V25.7102H114.031L118.57 20.3636H121.144L116.644 25.5852L121.184 32H118.65L115.178 27.0114L113.888 28.5341V32H111.781ZM125.029 32.1761C124.476 32.1761 123.978 32.0777 123.535 31.8807C123.095 31.6799 122.747 31.3845 122.489 30.9943C122.236 30.6042 122.109 30.1231 122.109 29.5511C122.109 29.0587 122.2 28.6515 122.381 28.3295C122.563 28.0076 122.811 27.75 123.126 27.5568C123.44 27.3636 123.794 27.2178 124.188 27.1193C124.586 27.017 124.997 26.9432 125.421 26.8977C125.933 26.8447 126.347 26.7973 126.665 26.7557C126.984 26.7102 127.215 26.642 127.359 26.5511C127.506 26.4564 127.58 26.3106 127.58 26.1136V26.0795C127.58 25.6515 127.453 25.3201 127.2 25.0852C126.946 24.8504 126.58 24.733 126.103 24.733C125.599 24.733 125.2 24.8428 124.904 25.0625C124.612 25.2822 124.415 25.5417 124.313 25.8409L122.393 25.5682C122.544 25.0379 122.794 24.5947 123.143 24.2386C123.491 23.8788 123.917 23.6098 124.421 23.4318C124.925 23.25 125.482 23.1591 126.092 23.1591C126.512 23.1591 126.931 23.2083 127.347 23.3068C127.764 23.4053 128.145 23.5682 128.489 23.7955C128.834 24.0189 129.111 24.3239 129.319 24.7102C129.531 25.0966 129.637 25.5795 129.637 26.1591V32H127.66V30.8011H127.592C127.467 31.0436 127.29 31.2708 127.063 31.483C126.84 31.6913 126.558 31.8598 126.217 31.9886C125.879 32.1136 125.484 32.1761 125.029 32.1761ZM125.563 30.6648C125.976 30.6648 126.334 30.5833 126.637 30.4205C126.94 30.2538 127.173 30.0341 127.336 29.7614C127.503 29.4886 127.586 29.1913 127.586 28.8693V27.8409C127.522 27.8939 127.412 27.9432 127.256 27.9886C127.105 28.0341 126.934 28.0739 126.745 28.108C126.556 28.142 126.368 28.1723 126.183 28.1989C125.997 28.2254 125.836 28.2481 125.7 28.267C125.393 28.3087 125.118 28.3769 124.876 28.4716C124.633 28.5663 124.442 28.6989 124.302 28.8693C124.162 29.036 124.092 29.2519 124.092 29.517C124.092 29.8958 124.23 30.1818 124.506 30.375C124.783 30.5682 125.135 30.6648 125.563 30.6648ZM133.58 29.2614L133.575 26.7784H133.904L137.04 23.2727H139.444L135.586 27.5682H135.16L133.58 29.2614ZM131.705 32V20.3636H133.762V32H131.705ZM137.183 32L134.342 28.0284L135.728 26.5795L139.643 32H137.183ZM143.326 32.1761C142.773 32.1761 142.275 32.0777 141.832 31.8807C141.392 31.6799 141.044 31.3845 140.786 30.9943C140.532 30.6042 140.406 30.1231 140.406 29.5511C140.406 29.0587 140.496 28.6515 140.678 28.3295C140.86 28.0076 141.108 27.75 141.423 27.5568C141.737 27.3636 142.091 27.2178 142.485 27.1193C142.883 27.017 143.294 26.9432 143.718 26.8977C144.229 26.8447 144.644 26.7973 144.962 26.7557C145.281 26.7102 145.512 26.642 145.656 26.5511C145.803 26.4564 145.877 26.3106 145.877 26.1136V26.0795C145.877 25.6515 145.75 25.3201 145.496 25.0852C145.243 24.8504 144.877 24.733 144.4 24.733C143.896 24.733 143.496 24.8428 143.201 25.0625C142.909 25.2822 142.712 25.5417 142.61 25.8409L140.69 25.5682C140.841 25.0379 141.091 24.5947 141.44 24.2386C141.788 23.8788 142.214 23.6098 142.718 23.4318C143.222 23.25 143.779 23.1591 144.388 23.1591C144.809 23.1591 145.228 23.2083 145.644 23.3068C146.061 23.4053 146.442 23.5682 146.786 23.7955C147.131 24.0189 147.407 24.3239 147.616 24.7102C147.828 25.0966 147.934 25.5795 147.934 26.1591V32H145.957V30.8011H145.888C145.763 31.0436 145.587 31.2708 145.36 31.483C145.137 31.6913 144.854 31.8598 144.513 31.9886C144.176 32.1136 143.781 32.1761 143.326 32.1761ZM143.86 30.6648C144.273 30.6648 144.631 30.5833 144.934 30.4205C145.237 30.2538 145.47 30.0341 145.633 29.7614C145.799 29.4886 145.883 29.1913 145.883 28.8693V27.8409C145.818 27.8939 145.709 27.9432 145.553 27.9886C145.402 28.0341 145.231 28.0739 145.042 28.108C144.853 28.142 144.665 28.1723 144.479 28.1989C144.294 28.2254 144.133 28.2481 143.996 28.267C143.69 28.3087 143.415 28.3769 143.173 28.4716C142.93 28.5663 142.739 28.6989 142.599 28.8693C142.459 29.036 142.388 29.2519 142.388 29.517C142.388 29.8958 142.527 30.1818 142.803 30.375C143.08 30.5682 143.432 30.6648 143.86 30.6648ZM153.809 32.1705C152.957 32.1705 152.218 31.983 151.593 31.608C150.968 31.233 150.483 30.7083 150.138 30.0341C149.798 29.3598 149.627 28.572 149.627 27.6705C149.627 26.7689 149.798 25.9792 150.138 25.3011C150.483 24.6231 150.968 24.0966 151.593 23.7216C152.218 23.3466 152.957 23.1591 153.809 23.1591C154.661 23.1591 155.4 23.3466 156.025 23.7216C156.65 24.0966 157.133 24.6231 157.474 25.3011C157.818 25.9792 157.991 26.7689 157.991 27.6705C157.991 28.572 157.818 29.3598 157.474 30.0341C157.133 30.7083 156.65 31.233 156.025 31.608C155.4 31.983 154.661 32.1705 153.809 32.1705ZM153.82 30.5227C154.282 30.5227 154.669 30.3958 154.979 30.142C155.29 29.8845 155.521 29.5398 155.673 29.108C155.828 28.6761 155.906 28.1951 155.906 27.6648C155.906 27.1307 155.828 26.6477 155.673 26.2159C155.521 25.7803 155.29 25.4337 154.979 25.1761C154.669 24.9186 154.282 24.7898 153.82 24.7898C153.347 24.7898 152.953 24.9186 152.638 25.1761C152.328 25.4337 152.095 25.7803 151.94 26.2159C151.788 26.6477 151.712 27.1307 151.712 27.6648C151.712 28.1951 151.788 28.6761 151.94 29.108C152.095 29.5398 152.328 29.8845 152.638 30.142C152.953 30.3958 153.347 30.5227 153.82 30.5227ZM163.285 22.1307V20.3636H172.569V22.1307H168.972V32H166.881V22.1307H163.285ZM175.592 32.1761C175.039 32.1761 174.54 32.0777 174.097 31.8807C173.658 31.6799 173.309 31.3845 173.052 30.9943C172.798 30.6042 172.671 30.1231 172.671 29.5511C172.671 29.0587 172.762 28.6515 172.944 28.3295C173.126 28.0076 173.374 27.75 173.688 27.5568C174.003 27.3636 174.357 27.2178 174.751 27.1193C175.148 27.017 175.559 26.9432 175.984 26.8977C176.495 26.8447 176.91 26.7973 177.228 26.7557C177.546 26.7102 177.777 26.642 177.921 26.5511C178.069 26.4564 178.143 26.3106 178.143 26.1136V26.0795C178.143 25.6515 178.016 25.3201 177.762 25.0852C177.508 24.8504 177.143 24.733 176.665 24.733C176.162 24.733 175.762 24.8428 175.467 25.0625C175.175 25.2822 174.978 25.5417 174.876 25.8409L172.955 25.5682C173.107 25.0379 173.357 24.5947 173.705 24.2386C174.054 23.8788 174.48 23.6098 174.984 23.4318C175.487 23.25 176.044 23.1591 176.654 23.1591C177.075 23.1591 177.493 23.2083 177.91 23.3068C178.326 23.4053 178.707 23.5682 179.052 23.7955C179.397 24.0189 179.673 24.3239 179.881 24.7102C180.094 25.0966 180.2 25.5795 180.2 26.1591V32H178.222V30.8011H178.154C178.029 31.0436 177.853 31.2708 177.626 31.483C177.402 31.6913 177.12 31.8598 176.779 31.9886C176.442 32.1136 176.046 32.1761 175.592 32.1761ZM176.126 30.6648C176.539 30.6648 176.897 30.5833 177.2 30.4205C177.503 30.2538 177.736 30.0341 177.898 29.7614C178.065 29.4886 178.148 29.1913 178.148 28.8693V27.8409C178.084 27.8939 177.974 27.9432 177.819 27.9886C177.667 28.0341 177.497 28.0739 177.308 28.108C177.118 28.142 176.931 28.1723 176.745 28.1989C176.559 28.2254 176.398 28.2481 176.262 28.267C175.955 28.3087 175.681 28.3769 175.438 28.4716C175.196 28.5663 175.004 28.6989 174.864 28.8693C174.724 29.036 174.654 29.2519 174.654 29.517C174.654 29.8958 174.792 30.1818 175.069 30.375C175.345 30.5682 175.698 30.6648 176.126 30.6648ZM184.325 20.3636V32H182.268V20.3636H184.325ZM188.315 29.2614L188.309 26.7784H188.638L191.775 23.2727H194.178L190.32 27.5682H189.894L188.315 29.2614ZM186.44 32V20.3636H188.496V32H186.44ZM191.917 32L189.076 28.0284L190.462 26.5795L194.377 32H191.917ZM199.609 32V20.3636H201.717V30.233H206.842V32H199.609ZM212.387 32.1705C211.535 32.1705 210.796 31.983 210.171 31.608C209.546 31.233 209.061 30.7083 208.717 30.0341C208.376 29.3598 208.205 28.572 208.205 27.6705C208.205 26.7689 208.376 25.9792 208.717 25.3011C209.061 24.6231 209.546 24.0966 210.171 23.7216C210.796 23.3466 211.535 23.1591 212.387 23.1591C213.239 23.1591 213.978 23.3466 214.603 23.7216C215.228 24.0966 215.711 24.6231 216.052 25.3011C216.397 25.9792 216.569 26.7689 216.569 27.6705C216.569 28.572 216.397 29.3598 216.052 30.0341C215.711 30.7083 215.228 31.233 214.603 31.608C213.978 31.983 213.239 32.1705 212.387 32.1705ZM212.398 30.5227C212.861 30.5227 213.247 30.3958 213.558 30.142C213.868 29.8845 214.099 29.5398 214.251 29.108C214.406 28.6761 214.484 28.1951 214.484 27.6648C214.484 27.1307 214.406 26.6477 214.251 26.2159C214.099 25.7803 213.868 25.4337 213.558 25.1761C213.247 24.9186 212.861 24.7898 212.398 24.7898C211.925 24.7898 211.531 24.9186 211.217 25.1761C210.906 25.4337 210.673 25.7803 210.518 26.2159C210.366 26.6477 210.29 27.1307 210.29 27.6648C210.29 28.1951 210.366 28.6761 210.518 29.108C210.673 29.5398 210.906 29.8845 211.217 30.142C211.531 30.3958 211.925 30.5227 212.398 30.5227ZM222.11 35.4545C221.371 35.4545 220.737 35.3542 220.207 35.1534C219.676 34.9564 219.25 34.6913 218.928 34.358C218.606 34.0246 218.383 33.6553 218.258 33.25L220.11 32.8011C220.193 32.9716 220.315 33.1402 220.474 33.3068C220.633 33.4773 220.847 33.6174 221.116 33.7273C221.388 33.8409 221.731 33.8977 222.144 33.8977C222.728 33.8977 223.21 33.7557 223.593 33.4716C223.976 33.1913 224.167 32.7292 224.167 32.0852V30.4318H224.065C223.959 30.6439 223.803 30.8617 223.599 31.0852C223.398 31.3087 223.131 31.4962 222.798 31.6477C222.468 31.7992 222.053 31.875 221.553 31.875C220.883 31.875 220.275 31.7178 219.729 31.4034C219.188 31.0852 218.756 30.6117 218.434 29.983C218.116 29.3504 217.957 28.5587 217.957 27.608C217.957 26.6496 218.116 25.8409 218.434 25.1818C218.756 24.5189 219.19 24.017 219.735 23.6761C220.281 23.3314 220.888 23.1591 221.559 23.1591C222.07 23.1591 222.491 23.2462 222.82 23.4205C223.154 23.5909 223.419 23.7973 223.616 24.0398C223.813 24.2784 223.962 24.5038 224.065 24.7159H224.178V23.2727H226.207V32.142C226.207 32.8883 226.029 33.5057 225.673 33.9943C225.317 34.483 224.83 34.8485 224.212 35.0909C223.595 35.3333 222.894 35.4545 222.11 35.4545ZM222.127 30.2614C222.563 30.2614 222.934 30.1553 223.241 29.9432C223.548 29.7311 223.781 29.4261 223.94 29.0284C224.099 28.6307 224.178 28.1534 224.178 27.5966C224.178 27.0473 224.099 26.5663 223.94 26.1534C223.784 25.7405 223.553 25.4205 223.246 25.1932C222.943 24.9621 222.57 24.8466 222.127 24.8466C221.669 24.8466 221.286 24.9659 220.979 25.2045C220.673 25.4432 220.442 25.7708 220.286 26.1875C220.131 26.6004 220.053 27.0701 220.053 27.5966C220.053 28.1307 220.131 28.5985 220.286 29C220.445 29.3977 220.678 29.7083 220.985 29.9318C221.296 30.1515 221.676 30.2614 222.127 30.2614ZM234.482 20.3636V32H232.374V20.3636H234.482ZM238.731 26.8864V32H236.674V23.2727H238.64V24.7557H238.742C238.943 24.267 239.263 23.8788 239.702 23.5909C240.146 23.303 240.693 23.1591 241.344 23.1591C241.947 23.1591 242.471 23.2879 242.918 23.5455C243.369 23.803 243.718 24.1761 243.964 24.6648C244.214 25.1534 244.337 25.7462 244.333 26.4432V32H242.276V26.7614C242.276 26.178 242.125 25.7216 241.822 25.392C241.522 25.0625 241.108 24.8977 240.577 24.8977C240.218 24.8977 239.897 24.9773 239.617 25.1364C239.341 25.2917 239.123 25.517 238.964 25.8125C238.808 26.108 238.731 26.4659 238.731 26.8864Z" fill="black"/>
</svg>
