<svg width="336" height="141" viewBox="0 0 336 141" fill="none" xmlns="http://www.w3.org/2000/svg">
<g filter="url(#filter0_ddd_141_808)">
<rect x="10" y="10" width="316" height="121" rx="5" fill="#FEFEFE"/>
</g>
<mask id="path-2-outside-1_141_808" maskUnits="userSpaceOnUse" x="23" y="18.0544" width="291" height="106" fill="black">
<rect fill="white" x="23" y="18.0544" width="291" height="106"/>
<path fill-rule="evenodd" clip-rule="evenodd" d="M46.5351 19.0544H288.553C293.188 26.8068 301.619 32.9221 312 35.9718L312 37.3911C309.483 37.3911 307.443 38.9699 307.443 40.9174C307.443 42.8649 309.483 44.4437 312 44.4437V49.3804C309.483 49.3804 307.443 50.9591 307.443 52.9067C307.443 54.8542 309.483 56.4329 312 56.4329V61.3697C309.483 61.3697 307.443 62.9485 307.443 64.896C307.443 66.8435 309.483 68.4223 312 68.4223V73.3592C309.483 73.3592 307.443 74.938 307.443 76.8855C307.443 78.833 309.483 80.4118 312 80.4118V85.3484C309.483 85.3484 307.443 86.9272 307.443 88.8747C307.443 90.8222 309.483 92.401 312 92.401V97.3378C309.483 97.3378 307.443 98.9166 307.443 100.864C307.443 102.812 309.483 104.39 312 104.39L312 105.104C301.306 108.246 292.681 114.641 288.145 122.727H46.9438C42.537 114.872 34.2724 108.613 24 105.381V104.39C26.5167 104.39 28.5568 102.812 28.5568 100.864C28.5568 98.9166 26.5167 97.3379 24 97.3378V92.401C26.5167 92.4009 28.5568 90.8222 28.5568 88.8747C28.5568 86.9273 26.5167 85.3485 24 85.3484V80.4118C26.5167 80.4117 28.5568 78.8329 28.5568 76.8855C28.5568 74.938 26.5167 73.3593 24 73.3592V68.4223C26.5167 68.4222 28.5568 66.8435 28.5568 64.896C28.5568 62.9485 26.5167 61.3698 24 61.3697V56.4329C26.5167 56.4329 28.5568 54.8541 28.5568 52.9067C28.5568 50.9592 26.5167 49.3804 24 49.3804V44.4437C26.5167 44.4436 28.5568 42.8649 28.5568 40.9174C28.5568 38.9699 26.5167 37.3912 24 37.3911V35.6946C33.963 32.5607 42.0373 26.5786 46.5351 19.0544Z"/>
</mask>
<path fill-rule="evenodd" clip-rule="evenodd" d="M46.5351 19.0544H288.553C293.188 26.8068 301.619 32.9221 312 35.9718L312 37.3911C309.483 37.3911 307.443 38.9699 307.443 40.9174C307.443 42.8649 309.483 44.4437 312 44.4437V49.3804C309.483 49.3804 307.443 50.9591 307.443 52.9067C307.443 54.8542 309.483 56.4329 312 56.4329V61.3697C309.483 61.3697 307.443 62.9485 307.443 64.896C307.443 66.8435 309.483 68.4223 312 68.4223V73.3592C309.483 73.3592 307.443 74.938 307.443 76.8855C307.443 78.833 309.483 80.4118 312 80.4118V85.3484C309.483 85.3484 307.443 86.9272 307.443 88.8747C307.443 90.8222 309.483 92.401 312 92.401V97.3378C309.483 97.3378 307.443 98.9166 307.443 100.864C307.443 102.812 309.483 104.39 312 104.39L312 105.104C301.306 108.246 292.681 114.641 288.145 122.727H46.9438C42.537 114.872 34.2724 108.613 24 105.381V104.39C26.5167 104.39 28.5568 102.812 28.5568 100.864C28.5568 98.9166 26.5167 97.3379 24 97.3378V92.401C26.5167 92.4009 28.5568 90.8222 28.5568 88.8747C28.5568 86.9273 26.5167 85.3485 24 85.3484V80.4118C26.5167 80.4117 28.5568 78.8329 28.5568 76.8855C28.5568 74.938 26.5167 73.3593 24 73.3592V68.4223C26.5167 68.4222 28.5568 66.8435 28.5568 64.896C28.5568 62.9485 26.5167 61.3698 24 61.3697V56.4329C26.5167 56.4329 28.5568 54.8541 28.5568 52.9067C28.5568 50.9592 26.5167 49.3804 24 49.3804V44.4437C26.5167 44.4436 28.5568 42.8649 28.5568 40.9174C28.5568 38.9699 26.5167 37.3912 24 37.3911V35.6946C33.963 32.5607 42.0373 26.5786 46.5351 19.0544Z" fill="#FEFEFE"/>
<path d="M288.553 19.0544L289.412 18.5413L289.121 18.0544H288.553V19.0544ZM46.5351 19.0544V18.0544H45.9679L45.6768 18.5414L46.5351 19.0544ZM312 35.9718L313 35.9719L313 35.2233L312.282 35.0123L312 35.9718ZM312 37.3911V38.3911H313L313 37.3912L312 37.3911ZM312 44.4437H313V43.4437H312V44.4437ZM312 49.3804V50.3804H313V49.3804H312ZM312 56.4329H313V55.4329H312V56.4329ZM312 61.3697V62.3697H313V61.3697H312ZM312 68.4223H313V67.4223H312V68.4223ZM312 73.3592V74.3592H313V73.3592H312ZM312 80.4118H313V79.4118H312V80.4118ZM312 85.3484V86.3484H313V85.3484H312ZM312 92.401H313V91.401H312V92.401ZM312 97.3378V98.3378H313V97.3378H312ZM312 104.39L313 104.39L313 103.39H312V104.39ZM312 105.104L312.282 106.064L313 105.853L313 105.104L312 105.104ZM288.145 122.727V123.727H288.73L289.017 123.216L288.145 122.727ZM46.9438 122.727L46.0716 123.216L46.3582 123.727H46.9438V122.727ZM24 105.381H23V106.115L23.6999 106.335L24 105.381ZM24 104.39L24 103.39L23 103.39V104.39H24ZM24 97.3378H23V98.3378L24 98.3378L24 97.3378ZM24 92.401L24 91.401L23 91.401V92.401H24ZM24 85.3484H23V86.3484L24 86.3484L24 85.3484ZM24 80.4118L24 79.4118L23 79.4118V80.4118H24ZM24 73.3592H23V74.3592L24 74.3592L24 73.3592ZM24 68.4223L24 67.4223L23 67.4223V68.4223H24ZM24 61.3697H23V62.3697L24 62.3697L24 61.3697ZM24 56.4329L24 55.4329L23 55.433V56.4329H24ZM24 49.3804H23V50.3804L24 50.3804L24 49.3804ZM24 44.4437L24 43.4437L23 43.4437V44.4437H24ZM24 37.3911H23V38.3911L24 38.3911L24 37.3911ZM24 35.6946L23.6999 34.7407L23 34.9609V35.6946H24ZM288.553 18.0544H46.5351V20.0544H288.553V18.0544ZM312.282 35.0123C302.094 32.0196 293.893 26.0386 289.412 18.5413L287.695 19.5675C292.482 27.5749 301.143 33.8246 311.718 36.9312L312.282 35.0123ZM313 37.3912L313 35.9719L311 35.9717L311 37.391L313 37.3912ZM308.443 40.9174C308.443 39.7455 309.782 38.3911 312 38.3911V36.3911C309.184 36.3911 306.443 38.1943 306.443 40.9174H308.443ZM312 43.4437C309.782 43.4437 308.443 42.0893 308.443 40.9174H306.443C306.443 43.6406 309.184 45.4437 312 45.4437V43.4437ZM313 49.3804V44.4437H311V49.3804H313ZM308.443 52.9067C308.443 51.7348 309.782 50.3804 312 50.3804V48.3804C309.184 48.3804 306.443 50.1835 306.443 52.9067H308.443ZM312 55.4329C309.782 55.4329 308.443 54.0785 308.443 52.9067H306.443C306.443 55.6298 309.184 57.4329 312 57.4329V55.4329ZM313 61.3697V56.4329H311V61.3697H313ZM308.443 64.896C308.443 63.7241 309.782 62.3697 312 62.3697V60.3697C309.184 60.3697 306.443 62.1729 306.443 64.896H308.443ZM312 67.4223C309.782 67.4223 308.443 66.0679 308.443 64.896H306.443C306.443 67.6192 309.184 69.4223 312 69.4223V67.4223ZM313 73.3592V68.4223H311V73.3592H313ZM308.443 76.8855C308.443 75.7136 309.782 74.3592 312 74.3592V72.3592C309.184 72.3592 306.443 74.1623 306.443 76.8855H308.443ZM312 79.4118C309.782 79.4118 308.443 78.0573 308.443 76.8855H306.443C306.443 79.6086 309.184 81.4118 312 81.4118V79.4118ZM313 85.3484V80.4118H311V85.3484H313ZM308.443 88.8747C308.443 87.7029 309.782 86.3484 312 86.3484V84.3484C309.184 84.3484 306.443 86.1516 306.443 88.8747H308.443ZM312 91.401C309.782 91.401 308.443 90.0466 308.443 88.8747H306.443C306.443 91.5979 309.184 93.401 312 93.401V91.401ZM313 97.3378V92.401H311V97.3378H313ZM308.443 100.864C308.443 99.6922 309.782 98.3378 312 98.3378V96.3378C309.184 96.3378 306.443 98.1409 306.443 100.864H308.443ZM312 103.39C309.782 103.39 308.443 102.036 308.443 100.864H306.443C306.443 103.587 309.184 105.39 312 105.39V103.39ZM313 105.104L313 104.39L311 104.391L311 105.105L313 105.104ZM289.017 123.216C293.401 115.401 301.786 109.147 312.282 106.064L311.718 104.145C300.825 107.345 291.961 113.881 287.273 122.238L289.017 123.216ZM46.9438 123.727H288.145V121.727H46.9438V123.727ZM23.6999 106.335C33.7788 109.506 41.8127 115.624 46.0716 123.216L47.8159 122.238C43.2614 114.119 34.7659 107.72 24.3001 104.428L23.6999 106.335ZM23 104.39V105.381H25V104.39H23ZM27.5568 100.864C27.5568 102.036 26.218 103.39 24 103.39L24 105.39C26.8153 105.39 29.5568 103.587 29.5568 100.864H27.5568ZM24 98.3378C26.218 98.3379 27.5568 99.6922 27.5568 100.864H29.5568C29.5568 98.141 26.8153 96.3379 24 96.3378L24 98.3378ZM23 92.401V97.3378H25V92.401H23ZM27.5568 88.8747C27.5568 90.0466 26.218 91.4009 24 91.401L24 93.401C26.8153 93.4009 29.5568 91.5978 29.5568 88.8747H27.5568ZM24 86.3484C26.218 86.3485 27.5568 87.7029 27.5568 88.8747H29.5568C29.5568 86.1516 26.8153 84.3485 24 84.3484L24 86.3484ZM23 80.4118V85.3484H25V80.4118H23ZM27.5568 76.8855C27.5568 78.0573 26.218 79.4117 24 79.4118L24 81.4118C26.8153 81.4117 29.5568 79.6086 29.5568 76.8855H27.5568ZM24 74.3592C26.218 74.3593 27.5568 75.7136 27.5568 76.8855H29.5568C29.5568 74.1624 26.8153 72.3593 24 72.3592L24 74.3592ZM23 68.4223V73.3592H25V68.4223H23ZM27.5568 64.896C27.5568 66.0679 26.218 67.4222 24 67.4223L24 69.4223C26.8153 69.4222 29.5568 67.6191 29.5568 64.896H27.5568ZM24 62.3697C26.218 62.3698 27.5568 63.7242 27.5568 64.896H29.5568C29.5568 62.1729 26.8153 60.3698 24 60.3697L24 62.3697ZM23 56.4329V61.3697H25V56.4329H23ZM27.5568 52.9067C27.5568 54.0785 26.218 55.4329 24 55.4329L24 57.4329C26.8153 57.4329 29.5568 55.6297 29.5568 52.9067H27.5568ZM24 50.3804C26.218 50.3804 27.5568 51.7348 27.5568 52.9067H29.5568C29.5568 50.1836 26.8153 48.3805 24 48.3804L24 50.3804ZM23 44.4437V49.3804H25V44.4437H23ZM27.5568 40.9174C27.5568 42.0893 26.218 43.4436 24 43.4437L24 45.4437C26.8153 45.4436 29.5568 43.6405 29.5568 40.9174H27.5568ZM24 38.3911C26.218 38.3912 27.5568 39.7456 27.5568 40.9174H29.5568C29.5568 38.1943 26.8153 36.3912 24 36.3911L24 38.3911ZM23 35.6946V37.3911H25V35.6946H23ZM45.6768 18.5414C41.3272 25.8177 33.4743 31.6661 23.6999 34.7407L24.3001 36.6485C34.4516 33.4553 42.7475 27.3396 47.3935 19.5675L45.6768 18.5414Z" fill="#AFABAB" fill-opacity="0.6" mask="url(#path-2-outside-1_141_808)"/>
<mask id="mask0_141_808" style="mask-type:alpha" maskUnits="userSpaceOnUse" x="10" y="10" width="316" height="121">
<rect x="10" y="10" width="316" height="121" rx="5" fill="#FEFEFE"/>
<mask id="path-5-outside-2_141_808" maskUnits="userSpaceOnUse" x="23" y="18.0544" width="291" height="106" fill="black">
<rect fill="white" x="23" y="18.0544" width="291" height="106"/>
<path fill-rule="evenodd" clip-rule="evenodd" d="M46.5351 19.0544H288.553C293.188 26.8068 301.619 32.9221 312 35.9718L312 37.3911C309.483 37.3911 307.443 38.9699 307.443 40.9174C307.443 42.8649 309.483 44.4437 312 44.4437V49.3804C309.483 49.3804 307.443 50.9591 307.443 52.9067C307.443 54.8542 309.483 56.4329 312 56.4329V61.3697C309.483 61.3697 307.443 62.9485 307.443 64.896C307.443 66.8435 309.483 68.4223 312 68.4223V73.3592C309.483 73.3592 307.443 74.938 307.443 76.8855C307.443 78.833 309.483 80.4118 312 80.4118V85.3484C309.483 85.3484 307.443 86.9272 307.443 88.8747C307.443 90.8222 309.483 92.401 312 92.401V97.3378C309.483 97.3378 307.443 98.9166 307.443 100.864C307.443 102.812 309.483 104.39 312 104.39L312 105.104C301.306 108.246 292.681 114.641 288.145 122.727H46.9438C42.537 114.872 34.2724 108.613 24 105.381V104.39C26.5167 104.39 28.5568 102.812 28.5568 100.864C28.5568 98.9166 26.5167 97.3379 24 97.3378V92.401C26.5167 92.4009 28.5568 90.8222 28.5568 88.8747C28.5568 86.9273 26.5167 85.3485 24 85.3484V80.4118C26.5167 80.4117 28.5568 78.8329 28.5568 76.8855C28.5568 74.938 26.5167 73.3593 24 73.3592V68.4223C26.5167 68.4222 28.5568 66.8435 28.5568 64.896C28.5568 62.9485 26.5167 61.3698 24 61.3697V56.4329C26.5167 56.4329 28.5568 54.8541 28.5568 52.9067C28.5568 50.9592 26.5167 49.3804 24 49.3804V44.4437C26.5167 44.4436 28.5568 42.8649 28.5568 40.9174C28.5568 38.9699 26.5167 37.3912 24 37.3911V35.6946C33.963 32.5607 42.0373 26.5786 46.5351 19.0544Z"/>
</mask>
<path fill-rule="evenodd" clip-rule="evenodd" d="M46.5351 19.0544H288.553C293.188 26.8068 301.619 32.9221 312 35.9718L312 37.3911C309.483 37.3911 307.443 38.9699 307.443 40.9174C307.443 42.8649 309.483 44.4437 312 44.4437V49.3804C309.483 49.3804 307.443 50.9591 307.443 52.9067C307.443 54.8542 309.483 56.4329 312 56.4329V61.3697C309.483 61.3697 307.443 62.9485 307.443 64.896C307.443 66.8435 309.483 68.4223 312 68.4223V73.3592C309.483 73.3592 307.443 74.938 307.443 76.8855C307.443 78.833 309.483 80.4118 312 80.4118V85.3484C309.483 85.3484 307.443 86.9272 307.443 88.8747C307.443 90.8222 309.483 92.401 312 92.401V97.3378C309.483 97.3378 307.443 98.9166 307.443 100.864C307.443 102.812 309.483 104.39 312 104.39L312 105.104C301.306 108.246 292.681 114.641 288.145 122.727H46.9438C42.537 114.872 34.2724 108.613 24 105.381V104.39C26.5167 104.39 28.5568 102.812 28.5568 100.864C28.5568 98.9166 26.5167 97.3379 24 97.3378V92.401C26.5167 92.4009 28.5568 90.8222 28.5568 88.8747C28.5568 86.9273 26.5167 85.3485 24 85.3484V80.4118C26.5167 80.4117 28.5568 78.8329 28.5568 76.8855C28.5568 74.938 26.5167 73.3593 24 73.3592V68.4223C26.5167 68.4222 28.5568 66.8435 28.5568 64.896C28.5568 62.9485 26.5167 61.3698 24 61.3697V56.4329C26.5167 56.4329 28.5568 54.8541 28.5568 52.9067C28.5568 50.9592 26.5167 49.3804 24 49.3804V44.4437C26.5167 44.4436 28.5568 42.8649 28.5568 40.9174C28.5568 38.9699 26.5167 37.3912 24 37.3911V35.6946C33.963 32.5607 42.0373 26.5786 46.5351 19.0544Z" fill="#FEFEFE"/>
<path d="M288.553 19.0544L289.412 18.5413L289.121 18.0544H288.553V19.0544ZM46.5351 19.0544V18.0544H45.9679L45.6768 18.5414L46.5351 19.0544ZM312 35.9718L313 35.9719L313 35.2233L312.282 35.0123L312 35.9718ZM312 37.3911V38.3911H313L313 37.3912L312 37.3911ZM312 44.4437H313V43.4437H312V44.4437ZM312 49.3804V50.3804H313V49.3804H312ZM312 56.4329H313V55.4329H312V56.4329ZM312 61.3697V62.3697H313V61.3697H312ZM312 68.4223H313V67.4223H312V68.4223ZM312 73.3592V74.3592H313V73.3592H312ZM312 80.4118H313V79.4118H312V80.4118ZM312 85.3484V86.3484H313V85.3484H312ZM312 92.401H313V91.401H312V92.401ZM312 97.3378V98.3378H313V97.3378H312ZM312 104.39L313 104.39L313 103.39H312V104.39ZM312 105.104L312.282 106.064L313 105.853L313 105.104L312 105.104ZM288.145 122.727V123.727H288.73L289.017 123.216L288.145 122.727ZM46.9438 122.727L46.0716 123.216L46.3582 123.727H46.9438V122.727ZM24 105.381H23V106.115L23.6999 106.335L24 105.381ZM24 104.39L24 103.39L23 103.39V104.39H24ZM24 97.3378H23V98.3378L24 98.3378L24 97.3378ZM24 92.401L24 91.401L23 91.401V92.401H24ZM24 85.3484H23V86.3484L24 86.3484L24 85.3484ZM24 80.4118L24 79.4118L23 79.4118V80.4118H24ZM24 73.3592H23V74.3592L24 74.3592L24 73.3592ZM24 68.4223L24 67.4223L23 67.4223V68.4223H24ZM24 61.3697H23V62.3697L24 62.3697L24 61.3697ZM24 56.4329L24 55.4329L23 55.433V56.4329H24ZM24 49.3804H23V50.3804L24 50.3804L24 49.3804ZM24 44.4437L24 43.4437L23 43.4437V44.4437H24ZM24 37.3911H23V38.3911L24 38.3911L24 37.3911ZM24 35.6946L23.6999 34.7407L23 34.9609V35.6946H24ZM288.553 18.0544H46.5351V20.0544H288.553V18.0544ZM312.282 35.0123C302.094 32.0196 293.893 26.0386 289.412 18.5413L287.695 19.5675C292.482 27.5749 301.143 33.8246 311.718 36.9312L312.282 35.0123ZM313 37.3912L313 35.9719L311 35.9717L311 37.391L313 37.3912ZM308.443 40.9174C308.443 39.7455 309.782 38.3911 312 38.3911V36.3911C309.184 36.3911 306.443 38.1943 306.443 40.9174H308.443ZM312 43.4437C309.782 43.4437 308.443 42.0893 308.443 40.9174H306.443C306.443 43.6406 309.184 45.4437 312 45.4437V43.4437ZM313 49.3804V44.4437H311V49.3804H313ZM308.443 52.9067C308.443 51.7348 309.782 50.3804 312 50.3804V48.3804C309.184 48.3804 306.443 50.1835 306.443 52.9067H308.443ZM312 55.4329C309.782 55.4329 308.443 54.0785 308.443 52.9067H306.443C306.443 55.6298 309.184 57.4329 312 57.4329V55.4329ZM313 61.3697V56.4329H311V61.3697H313ZM308.443 64.896C308.443 63.7241 309.782 62.3697 312 62.3697V60.3697C309.184 60.3697 306.443 62.1729 306.443 64.896H308.443ZM312 67.4223C309.782 67.4223 308.443 66.0679 308.443 64.896H306.443C306.443 67.6192 309.184 69.4223 312 69.4223V67.4223ZM313 73.3592V68.4223H311V73.3592H313ZM308.443 76.8855C308.443 75.7136 309.782 74.3592 312 74.3592V72.3592C309.184 72.3592 306.443 74.1623 306.443 76.8855H308.443ZM312 79.4118C309.782 79.4118 308.443 78.0573 308.443 76.8855H306.443C306.443 79.6086 309.184 81.4118 312 81.4118V79.4118ZM313 85.3484V80.4118H311V85.3484H313ZM308.443 88.8747C308.443 87.7029 309.782 86.3484 312 86.3484V84.3484C309.184 84.3484 306.443 86.1516 306.443 88.8747H308.443ZM312 91.401C309.782 91.401 308.443 90.0466 308.443 88.8747H306.443C306.443 91.5979 309.184 93.401 312 93.401V91.401ZM313 97.3378V92.401H311V97.3378H313ZM308.443 100.864C308.443 99.6922 309.782 98.3378 312 98.3378V96.3378C309.184 96.3378 306.443 98.1409 306.443 100.864H308.443ZM312 103.39C309.782 103.39 308.443 102.036 308.443 100.864H306.443C306.443 103.587 309.184 105.39 312 105.39V103.39ZM313 105.104L313 104.39L311 104.391L311 105.105L313 105.104ZM289.017 123.216C293.401 115.401 301.786 109.147 312.282 106.064L311.718 104.145C300.825 107.345 291.961 113.881 287.273 122.238L289.017 123.216ZM46.9438 123.727H288.145V121.727H46.9438V123.727ZM23.6999 106.335C33.7788 109.506 41.8127 115.624 46.0716 123.216L47.8159 122.238C43.2614 114.119 34.7659 107.72 24.3001 104.428L23.6999 106.335ZM23 104.39V105.381H25V104.39H23ZM27.5568 100.864C27.5568 102.036 26.218 103.39 24 103.39L24 105.39C26.8153 105.39 29.5568 103.587 29.5568 100.864H27.5568ZM24 98.3378C26.218 98.3379 27.5568 99.6922 27.5568 100.864H29.5568C29.5568 98.141 26.8153 96.3379 24 96.3378L24 98.3378ZM23 92.401V97.3378H25V92.401H23ZM27.5568 88.8747C27.5568 90.0466 26.218 91.4009 24 91.401L24 93.401C26.8153 93.4009 29.5568 91.5978 29.5568 88.8747H27.5568ZM24 86.3484C26.218 86.3485 27.5568 87.7029 27.5568 88.8747H29.5568C29.5568 86.1516 26.8153 84.3485 24 84.3484L24 86.3484ZM23 80.4118V85.3484H25V80.4118H23ZM27.5568 76.8855C27.5568 78.0573 26.218 79.4117 24 79.4118L24 81.4118C26.8153 81.4117 29.5568 79.6086 29.5568 76.8855H27.5568ZM24 74.3592C26.218 74.3593 27.5568 75.7136 27.5568 76.8855H29.5568C29.5568 74.1624 26.8153 72.3593 24 72.3592L24 74.3592ZM23 68.4223V73.3592H25V68.4223H23ZM27.5568 64.896C27.5568 66.0679 26.218 67.4222 24 67.4223L24 69.4223C26.8153 69.4222 29.5568 67.6191 29.5568 64.896H27.5568ZM24 62.3697C26.218 62.3698 27.5568 63.7242 27.5568 64.896H29.5568C29.5568 62.1729 26.8153 60.3698 24 60.3697L24 62.3697ZM23 56.4329V61.3697H25V56.4329H23ZM27.5568 52.9067C27.5568 54.0785 26.218 55.4329 24 55.4329L24 57.4329C26.8153 57.4329 29.5568 55.6297 29.5568 52.9067H27.5568ZM24 50.3804C26.218 50.3804 27.5568 51.7348 27.5568 52.9067H29.5568C29.5568 50.1836 26.8153 48.3805 24 48.3804L24 50.3804ZM23 44.4437V49.3804H25V44.4437H23ZM27.5568 40.9174C27.5568 42.0893 26.218 43.4436 24 43.4437L24 45.4437C26.8153 45.4436 29.5568 43.6405 29.5568 40.9174H27.5568ZM24 38.3911C26.218 38.3912 27.5568 39.7456 27.5568 40.9174H29.5568C29.5568 38.1943 26.8153 36.3912 24 36.3911L24 38.3911ZM23 35.6946V37.3911H25V35.6946H23ZM45.6768 18.5414C41.3272 25.8177 33.4743 31.6661 23.6999 34.7407L24.3001 36.6485C34.4516 33.4553 42.7475 27.3396 47.3935 19.5675L45.6768 18.5414Z" fill="#AFABAB" fill-opacity="0.6" mask="url(#path-5-outside-2_141_808)"/>
</mask>
<g mask="url(#mask0_141_808)">
<path d="M257.221 131.67C257.702 132.164 258.111 132.499 258.448 132.673C258.785 132.805 259.135 132.821 259.497 132.72C259.859 132.619 260.382 132.382 261.066 132.01L261.405 132.81L255.792 138.269L255.22 138.197L255.102 137.559C254.987 136.709 254.753 135.974 254.401 135.354C254.049 134.691 253.455 133.951 252.618 133.133L244.178 124.455C243.655 123.918 243.256 123.615 242.982 123.548C242.707 123.438 242.43 123.519 242.151 123.791L241.796 124.136C241.065 124.847 240.736 125.606 240.81 126.413C240.862 127.199 241.249 128.35 241.971 129.866L241.106 130.268L237.184 126.236L237.224 125.631L237.894 125.545C238.574 125.427 239.506 124.793 240.689 123.643L246.593 117.902C247.775 116.751 248.435 115.838 248.572 115.161L248.677 114.494L249.314 114.439L253.236 118.471L252.778 119.356C251.219 118.571 250.058 118.151 249.295 118.098C248.532 118.003 247.796 118.3 247.087 118.99L246.667 119.398C246.388 119.67 246.288 119.955 246.369 120.253C246.45 120.509 246.752 120.906 247.275 121.443L257.221 131.67ZM278.706 113.851C278.831 115.528 278.27 116.974 277.022 118.187C276.248 118.94 275.468 119.364 274.681 119.459C273.896 119.512 272.923 119.265 271.764 118.718L268.068 116.789C267.288 116.418 266.686 116.187 266.263 116.096C265.819 115.984 265.341 116.03 264.829 116.235L263.999 116.478L263.749 116.093C263.942 115.947 264.179 115.738 264.458 115.466C264.716 115.215 264.889 115.027 264.975 114.901C265.645 113.998 265.914 113.026 265.78 111.984C265.646 110.943 265.118 109.949 264.198 109.003C263.09 107.863 261.942 107.221 260.756 107.077C259.549 106.912 258.505 107.258 257.623 108.116C256.655 109.057 256.611 109.979 257.489 110.882L266.242 119.883C267.058 120.721 267.782 121.336 268.413 121.727C269.044 122.075 269.783 122.319 270.63 122.458L271.265 122.594L271.32 123.167L265.707 128.627L264.916 128.265C265.308 127.592 265.559 127.076 265.67 126.717C265.76 126.336 265.733 125.986 265.589 125.665C265.445 125.345 265.133 124.938 264.651 124.443L256.306 115.862C255.574 115.109 254.955 114.602 254.45 114.34C253.945 114.036 253.352 113.964 252.671 114.125L252.064 114.275L251.785 113.731C252.243 112.867 252.925 111.869 253.832 110.736C254.739 109.56 255.601 108.575 256.419 107.781C258.462 105.794 260.472 104.633 262.45 104.3C264.427 103.967 266.106 104.51 267.487 105.93C268.449 106.919 268.984 108.115 269.092 109.516C269.2 110.876 268.885 112.165 268.147 113.386C269.256 112.977 270.358 113.034 271.454 113.559L275.658 115.622C276.332 115.971 276.916 115.905 277.411 115.424C277.798 115.047 278.028 114.488 278.102 113.747L278.706 113.851ZM289.697 99.6454C290.498 100.038 291.205 100.292 291.819 100.407C292.412 100.5 293.176 100.489 294.111 100.375L294.134 100.98L288.295 106.659L287.537 106.266L287.895 105.667C288.113 105.245 288.214 104.897 288.196 104.621C288.179 104.302 288.035 104.003 287.763 103.724C287.596 103.552 287.049 103.226 286.122 102.746L283.626 101.47L278.625 106.333L279.152 107.391C279.77 108.672 280.32 109.56 280.801 110.055C281.261 110.528 281.766 110.875 282.314 111.094L282.917 111.262L282.94 111.867L279.391 115.318L278.601 114.957L278.959 114.357C279.329 113.705 279.517 113.124 279.525 112.615C279.511 112.084 279.287 111.36 278.855 110.442L272.921 97.7571C272.549 97.073 272.258 96.6234 272.049 96.4084C271.589 95.9352 270.921 95.9365 270.044 96.4123L269.595 96.6606L269.256 95.8603L273.644 91.5935L289.697 99.6454ZM282.425 100.881L273.862 96.4654L278.07 105.116L282.425 100.881ZM292.958 73.5001C292.839 74.4531 292.817 75.2272 292.894 75.8223C292.97 76.4174 293.194 77.0994 293.565 77.8683L301.329 93.9833L298.522 96.7128L282.565 88.5667C281.764 88.1737 281.067 87.9306 280.475 87.8375C279.903 87.7235 279.15 87.7236 278.215 87.8379L278.128 87.232L283.999 81.522L284.758 81.9145L284.432 82.4827C284.171 82.9034 284.06 83.2625 284.098 83.5601C284.116 83.8361 284.271 84.1247 284.564 84.4258C284.773 84.6408 285.183 84.9117 285.793 85.2385L298.463 91.8112L292.308 79.0282C291.998 78.4087 291.729 77.9806 291.499 77.744C291.248 77.486 290.974 77.3549 290.677 77.3507C290.38 77.3042 290.029 77.3947 289.623 77.6225L288.822 77.9614L288.483 77.1611L292.355 73.3962L292.958 73.5001ZM299.373 74.7939C298.536 73.9337 297.813 73.319 297.203 72.9498C296.593 72.5807 295.864 72.3266 295.018 72.1875L294.414 72.0836L294.327 71.4778L301.457 64.5442C302.64 63.3938 303.299 62.4801 303.436 61.8031L303.541 61.1363L304.146 61.1129L308.067 65.1454L307.642 65.9987C306.125 65.2138 304.964 64.7945 304.159 64.7409C303.375 64.6663 302.639 64.9637 301.951 65.633L300.499 67.0448C299.94 67.5886 299.679 68.0517 299.716 68.4341C299.732 68.795 300.064 69.3088 300.713 69.9755L305.168 74.5564L307.491 72.2975C308.136 71.67 308.546 71.1453 308.722 70.7235C308.919 70.2807 308.904 69.7926 308.678 69.259L308.401 68.6505L309.071 68.5007L312.585 72.1138L312.126 73.0621L311.307 72.4779C310.782 72.1099 310.242 72.0282 309.687 72.2326C309.133 72.437 308.425 72.9576 307.565 73.7942L305.952 75.3629L310.69 80.2341C311.317 80.8793 311.832 81.2153 312.235 81.2421C312.617 81.2474 313.141 80.9259 313.808 80.2775L315.388 78.7402C316.034 78.1127 316.319 77.3954 316.246 76.5882C316.194 75.7601 315.796 74.6195 315.052 73.1665L315.949 72.7335L319.714 76.6046L319.642 77.2401C319.131 77.3178 318.641 77.502 318.17 77.7924C317.72 78.1044 317.151 78.595 316.463 79.2643L308.366 87.1391L307.575 86.7781C307.967 86.1046 308.218 85.5884 308.329 85.2292C308.419 84.8486 308.392 84.4982 308.248 84.178C308.104 83.8577 307.791 83.4503 307.31 82.9556L299.373 74.7939ZM312.572 61.8321C311.819 61.0579 311.222 60.5086 310.781 60.1842C310.319 59.8383 309.855 59.6197 309.389 59.5284C308.924 59.437 308.298 59.4177 307.513 59.4704L307.395 58.7687L313.008 53.3097L313.736 53.6062C313.513 54.3668 313.399 54.9593 313.393 55.3835C313.387 55.8077 313.498 56.223 313.726 56.6292C313.975 57.0146 314.434 57.5513 315.104 58.2396L323.857 67.24C324.526 67.9282 325.062 68.2857 325.465 68.3125C325.868 68.3394 326.402 68.0286 327.069 67.3802L328.295 66.188C328.919 65.5814 329.215 64.8961 329.183 64.1319C329.13 63.3462 328.722 62.1736 327.959 60.6143L328.824 60.2127L332.589 64.0838L332.548 64.6879C332.06 64.7447 331.601 64.8975 331.174 65.1461C330.767 65.4162 330.219 65.8859 329.531 66.5553L321.595 74.2732L320.837 73.8808C321.228 73.2073 321.479 72.691 321.59 72.3319C321.681 71.9513 321.654 71.6009 321.51 71.2807C321.365 70.9604 321.053 70.553 320.572 70.0583L312.572 61.8321Z" fill="#AFABAB" fill-opacity="0.6"/>
</g>
<g style="mix-blend-mode:lighten">
<rect x="214" y="10" width="112" height="121" rx="27" fill="#0029FF"/>
</g>
<defs>
<filter id="filter0_ddd_141_808" x="0" y="0" width="336" height="141" filterUnits="userSpaceOnUse" color-interpolation-filters="sRGB">
<feFlood flood-opacity="0" result="BackgroundImageFix"/>
<feColorMatrix in="SourceAlpha" type="matrix" values="0 0 0 0 0 0 0 0 0 0 0 0 0 0 0 0 0 0 127 0" result="hardAlpha"/>
<feOffset/>
<feGaussianBlur stdDeviation="2.5"/>
<feComposite in2="hardAlpha" operator="out"/>
<feColorMatrix type="matrix" values="0 0 0 0 0.816667 0 0 0 0 0.816667 0 0 0 0 0.816667 0 0 0 0.25 0"/>
<feBlend mode="normal" in2="BackgroundImageFix" result="effect1_dropShadow_141_808"/>
<feColorMatrix in="SourceAlpha" type="matrix" values="0 0 0 0 0 0 0 0 0 0 0 0 0 0 0 0 0 0 127 0" result="hardAlpha"/>
<feOffset/>
<feGaussianBlur stdDeviation="2.5"/>
<feComposite in2="hardAlpha" operator="out"/>
<feColorMatrix type="matrix" values="0 0 0 0 0.741667 0 0 0 0 0.741667 0 0 0 0 0.741667 0 0 0 0.25 0"/>
<feBlend mode="normal" in2="effect1_dropShadow_141_808" result="effect2_dropShadow_141_808"/>
<feColorMatrix in="SourceAlpha" type="matrix" values="0 0 0 0 0 0 0 0 0 0 0 0 0 0 0 0 0 0 127 0" result="hardAlpha"/>
<feOffset/>
<feGaussianBlur stdDeviation="5"/>
<feComposite in2="hardAlpha" operator="out"/>
<feColorMatrix type="matrix" values="0 0 0 0 0.894118 0 0 0 0 0.894118 0 0 0 0 0.909804 0 0 0 1 0"/>
<feBlend mode="normal" in2="effect2_dropShadow_141_808" result="effect3_dropShadow_141_808"/>
<feBlend mode="normal" in="SourceGraphic" in2="effect3_dropShadow_141_808" result="shape"/>
</filter>
</defs>
</svg>
