<svg width="311" height="54" viewBox="0 0 311 54" fill="none" xmlns="http://www.w3.org/2000/svg">
<rect width="311" height="54" rx="7" fill="#FEFEFE"/>
<path d="M88.84 22.08V23.715H94.78V22.08H88.84ZM88.345 26.655V34.335H90.04V26.655H88.345ZM88.735 20.25C88.33 22.065 87.52 23.775 86.38 24.84C86.8 25.08 87.535 25.65 87.85 25.965C89.035 24.72 89.995 22.74 90.52 20.595L88.735 20.25ZM91.975 25.8L90.43 26.01C90.94 29.715 91.84 32.7 94.03 34.305C94.285 33.84 94.84 33.135 95.245 32.805C93.295 31.545 92.395 28.845 91.975 25.8ZM93.925 26.505C93.31 27.255 92.215 28.245 91.45 28.815L92.5 29.835C93.295 29.295 94.36 28.425 95.185 27.63L93.925 26.505ZM81.115 22.545V24.21H87.34V22.545H81.115ZM83.44 25.68V27.315H85.885V25.68H83.44ZM83.38 20.265V23.085H85.105V20.265H83.38ZM85.3 25.68V26.01C85.24 30.63 85.165 32.19 84.955 32.55C84.835 32.715 84.715 32.775 84.52 32.775C84.28 32.775 83.89 32.76 83.425 32.7C83.665 33.15 83.83 33.825 83.86 34.305C84.46 34.32 85.045 34.32 85.42 34.245C85.825 34.17 86.11 34.035 86.395 33.615C86.77 33.06 86.845 31.26 86.92 26.385C86.92 26.175 86.92 25.68 86.92 25.68H85.3ZM82.645 23.61V26.55C82.645 28.56 82.435 31.11 80.77 33.3C81.22 33.585 81.805 34.035 82.105 34.395C83.965 31.965 84.22 29.025 84.22 26.565V23.61H82.645ZM93.115 23.865C91.795 24.915 89.095 26.01 86.965 26.445C87.355 26.835 87.79 27.48 88.03 27.945C90.145 27.3 92.905 26.04 94.42 24.81L93.115 23.865ZM102.19 21.12V22.83H109.525V21.12H102.19ZM106 25.785V32.22C106 32.445 105.91 32.505 105.625 32.52C105.355 32.52 104.365 32.52 103.51 32.475C103.75 33 103.99 33.78 104.05 34.305C105.4 34.305 106.345 34.29 106.99 34.02C107.65 33.735 107.845 33.225 107.845 32.265V25.785H106ZM101.545 25.275V26.985H109.915V25.275H101.545ZM98.185 27.045V34.365H99.985V25.56L99.76 25.47L98.185 27.045ZM99.88 23.535C98.89 25.23 97.255 26.97 95.725 28.05C96.085 28.41 96.7 29.22 96.955 29.595C98.56 28.275 100.405 26.175 101.59 24.18L99.88 23.535ZM99.31 20.265C98.575 21.315 97.135 22.665 95.89 23.475C96.19 23.835 96.655 24.54 96.895 24.945C98.32 23.955 99.94 22.395 101.035 20.97L99.31 20.265ZM117.79 20.97L115.81 20.805C115.765 21.57 115.57 22.485 115.27 23.295C114.64 24.945 113.485 26.565 111.565 28.335L113.17 29.535C113.68 28.875 114.1 28.335 114.55 27.885C115.12 27.345 116.065 26.85 116.89 26.85C117.52 26.85 118.12 27.165 118.12 28.125C118.135 28.935 118.105 30.21 118.045 30.915H119.845C119.83 29.97 119.785 28.335 119.785 27.525C119.785 26.13 118.84 25.395 117.595 25.395C117.085 25.395 116.29 25.5 115.885 25.68C116.305 25.08 116.74 24.225 117.055 23.49C117.475 22.41 117.67 21.525 117.79 20.97ZM112.135 22.365V24.105C112.96 24.18 114.055 24.21 114.67 24.21C116.5 24.21 119.515 24.075 121.63 23.775L121.645 22.035C119.47 22.425 116.755 22.53 114.775 22.53C114.01 22.53 112.9 22.47 112.135 22.365ZM124.015 26.625L123.28 24.87C122.71 25.155 122.185 25.395 121.6 25.65C120.7 26.07 119.755 26.43 118.375 27.15C116.575 28.05 114.43 29.28 114.43 31.365C114.43 33.3 116.185 33.885 118.525 33.885C119.95 33.885 121.78 33.75 122.785 33.615L122.845 31.68C121.525 31.95 119.845 32.115 118.57 32.115C117.115 32.115 116.395 31.89 116.395 31.065C116.395 30.24 117.13 29.595 118.495 28.89C119.905 28.17 121.255 27.63 122.23 27.255C122.74 27.06 123.55 26.76 124.015 26.625ZM130.96 22.29C131.2 23.505 132.655 31.065 132.88 32.415C132.985 32.865 133.015 33.375 133.09 33.93L135.25 33.555C135.115 33.06 134.98 32.52 134.875 32.085C134.56 30.555 133.075 22.965 132.925 21.975C132.865 21.615 132.805 21.105 132.775 20.82L130.645 21.165C130.765 21.51 130.87 21.87 130.96 22.29ZM126.865 24.21L127.27 26.28C127.78 26.145 128.17 26.055 128.635 25.965C129.76 25.77 134.92 24.945 136.51 24.69C136.96 24.63 137.575 24.54 137.905 24.525L137.53 22.545C137.17 22.65 136.6 22.785 136.135 22.86C134.785 23.13 129.535 23.94 128.26 24.09C127.78 24.15 127.33 24.18 126.865 24.21ZM126.88 28.605L127.3 30.615C127.63 30.525 128.155 30.435 128.8 30.315C130.285 30.03 135.685 29.145 137.59 28.86C138.145 28.77 138.76 28.665 139.165 28.635L138.775 26.655C138.37 26.76 137.815 26.895 137.23 27C135.505 27.33 130.03 28.215 128.425 28.44C127.96 28.515 127.27 28.59 126.88 28.605ZM146.5 23.475L144.475 23.955C144.64 24.27 144.805 24.645 144.91 25.02C145.39 26.58 146.755 31.935 147.13 33.24C147.25 33.66 147.34 34.155 147.4 34.56L149.425 34.05C149.32 33.75 149.11 33.09 149.035 32.82C148.66 31.575 147.25 26.415 146.74 24.615C146.65 24.225 146.545 23.835 146.5 23.475ZM153.7 25.8L152.485 24.945C152.29 25.035 151.99 25.125 151.735 25.185C150.67 25.425 144.67 26.565 143.86 26.685C143.365 26.775 142.945 26.82 142.48 26.865L142.945 28.65C144.175 28.38 150.28 27.105 151.06 26.97C150.655 27.705 149.62 28.965 148.84 29.655L150.505 30.48C151.555 29.37 153.055 27.105 153.7 25.8ZM159.115 21.6L157.69 23.115C158.785 23.865 160.675 25.5 161.455 26.34L162.985 24.78C162.1 23.865 160.15 22.305 159.115 21.6ZM157.225 31.59L158.5 33.57C160.6 33.21 162.535 32.385 164.065 31.47C166.48 30.015 168.475 27.945 169.6 25.905L168.445 23.805C167.485 25.83 165.535 28.11 162.97 29.64C161.515 30.495 159.58 31.26 157.225 31.59ZM174.73 31.005C174.73 32.79 175.225 33.6 178.63 33.6C180.25 33.6 182.05 33.465 183.28 33.285L183.355 31.245C181.87 31.545 180.19 31.74 178.615 31.74C176.98 31.74 176.71 31.425 176.71 30.48C176.71 28.815 176.71 24.69 176.71 22.89C176.71 22.38 176.77 21.615 176.845 21.165H174.61C174.685 21.615 174.73 22.38 174.73 22.89C174.73 24.705 174.73 29.775 174.73 31.005ZM184.165 24.42L182.725 23.295C182.455 23.445 182.08 23.55 181.66 23.655C180.295 23.985 173.245 25.365 171.205 25.605L171.565 27.57C173.47 27.15 180.4 25.77 181.315 25.59C180.895 26.37 179.92 27.75 178.93 28.635L180.58 29.61C181.66 28.545 183.025 26.49 183.685 25.23C183.82 24.975 184.03 24.63 184.165 24.42ZM193.03 32.67L194.29 33.705C194.44 33.6 194.62 33.435 194.935 33.27C196.63 32.415 198.775 30.795 200.02 29.175L198.88 27.51C197.86 28.965 196.39 30.15 195.16 30.675C195.16 29.76 195.16 24.045 195.16 22.845C195.16 22.17 195.265 21.57 195.265 21.54H193.045C193.045 21.57 193.15 22.155 193.15 22.83C193.15 24.045 193.15 30.78 193.15 31.575C193.15 31.98 193.105 32.385 193.03 32.67ZM186.085 32.46L187.915 33.675C189.205 32.535 190.135 31.05 190.6 29.37C190.99 27.855 191.035 24.69 191.035 22.905C191.035 22.29 191.14 21.615 191.14 21.555H188.935C189.025 21.93 189.085 22.32 189.085 22.935C189.085 24.735 189.07 27.585 188.635 28.86C188.23 30.15 187.42 31.53 186.085 32.46ZM210.295 20.91H208.12C208.15 21.105 208.21 21.615 208.255 22.215C208.315 23.01 208.315 25.89 208.315 26.82L210.19 27.45C210.175 26.25 210.145 23.19 210.19 22.2C210.205 21.96 210.25 21.165 210.295 20.91ZM201.805 22.785L201.85 24.585C204.115 24.465 207.1 24.345 209.83 24.345C212.035 24.345 213.565 24.39 214.495 24.435L214.525 22.665C213.685 22.65 211.405 22.665 209.875 22.665C208 22.665 204.04 22.785 201.805 22.785ZM209.935 27.225L208.525 26.835C209.005 28.62 208.39 29.22 207.685 29.22C207.07 29.22 206.515 28.785 206.515 28.11C206.515 27.315 207.1 26.91 207.685 26.91C208.345 26.91 208.87 27.375 208.87 28.35C208.87 30.975 206.875 31.98 204.325 32.535L205.915 34.125C209.575 33.09 210.73 30.615 210.73 28.65C210.73 26.79 209.695 25.335 207.715 25.335C206.095 25.335 204.715 26.445 204.715 28.14C204.715 29.97 206.155 30.885 207.31 30.885C209.035 30.885 209.935 29.67 209.935 27.225ZM218.8 21.585L218.86 23.535C219.205 23.475 219.67 23.445 220.075 23.415C220.885 23.355 222.955 23.28 223.72 23.25C222.985 23.91 221.41 25.17 220.57 25.86C219.7 26.595 217.885 28.125 216.82 28.965L218.185 30.375C219.79 28.56 221.275 27.33 223.585 27.33C225.34 27.33 226.69 28.245 226.69 29.61C226.69 31.215 225.4 32.175 222.865 32.175C221.95 32.175 221.335 31.8 221.335 31.245C221.335 30.855 221.71 30.51 222.265 30.51C223.15 30.51 223.72 31.26 223.75 32.34L225.505 32.115C225.46 30.465 224.32 29.085 222.265 29.085C220.675 29.085 219.565 30.195 219.565 31.41C219.565 32.925 221.14 33.87 223.225 33.87C226.855 33.87 228.655 31.995 228.655 29.625C228.655 27.45 226.72 25.86 224.17 25.86C223.705 25.86 223.255 25.89 222.745 26.025C223.705 25.275 225.28 23.955 226.09 23.385C226.42 23.13 226.78 22.92 227.125 22.695L226.165 21.345C225.985 21.405 225.64 21.465 225.01 21.51C224.155 21.585 220.96 21.66 220.15 21.66C219.73 21.66 219.22 21.63 218.8 21.585Z" fill="#7070FF"/>
</svg>
