<svg width="336" height="141" viewBox="0 0 336 141" fill="none" xmlns="http://www.w3.org/2000/svg">
<g filter="url(#filter0_ddd_141_756)">
<rect x="10" y="10" width="316" height="121" rx="5" fill="#FEFEFE"/>
</g>
<mask id="path-2-outside-1_141_756" maskUnits="userSpaceOnUse" x="23" y="18.0544" width="291" height="106" fill="black">
<rect fill="white" x="23" y="18.0544" width="291" height="106"/>
<path fill-rule="evenodd" clip-rule="evenodd" d="M46.5351 19.0544H288.553C293.188 26.8067 301.619 32.922 312 35.9717L312 37.3911C309.483 37.3911 307.443 38.9699 307.443 40.9174C307.443 42.8649 309.483 44.4437 312 44.4437V49.3804C309.483 49.3804 307.443 50.9591 307.443 52.9067C307.443 54.8542 309.483 56.4329 312 56.4329V61.3698C309.483 61.3698 307.443 62.9485 307.443 64.896C307.443 66.8435 309.483 68.4223 312 68.4223V73.3593C309.483 73.3593 307.443 74.938 307.443 76.8855C307.443 78.833 309.483 80.4118 312 80.4118V85.3484C309.483 85.3484 307.443 86.9272 307.443 88.8747C307.443 90.8222 309.483 92.4009 312 92.4009V97.3378C309.483 97.3378 307.443 98.9165 307.443 100.864C307.443 102.812 309.483 104.39 312 104.39L312 105.104C301.306 108.246 292.681 114.641 288.145 122.727H46.9438C42.5371 114.872 34.2724 108.613 24 105.381V104.39C26.5167 104.39 28.5568 102.812 28.5568 100.864C28.5568 98.9166 26.5167 97.3378 24 97.3378V92.4009C26.5167 92.4009 28.5568 90.8221 28.5568 88.8747C28.5568 86.9272 26.5167 85.3485 24 85.3484V80.4118C26.5167 80.4117 28.5568 78.833 28.5568 76.8855C28.5568 74.9381 26.5167 73.3593 24 73.3593V68.4223C26.5167 68.4222 28.5568 66.8435 28.5568 64.896C28.5568 62.9486 26.5167 61.3698 24 61.3698V56.4329C26.5167 56.4329 28.5568 54.8541 28.5568 52.9067C28.5568 50.9592 26.5167 49.3804 24 49.3804V44.4437C26.5167 44.4436 28.5568 42.8649 28.5568 40.9174C28.5568 38.9699 26.5167 37.3912 24 37.3911V35.6946C33.963 32.5607 42.0373 26.5786 46.5351 19.0544Z"/>
</mask>
<path fill-rule="evenodd" clip-rule="evenodd" d="M46.5351 19.0544H288.553C293.188 26.8067 301.619 32.922 312 35.9717L312 37.3911C309.483 37.3911 307.443 38.9699 307.443 40.9174C307.443 42.8649 309.483 44.4437 312 44.4437V49.3804C309.483 49.3804 307.443 50.9591 307.443 52.9067C307.443 54.8542 309.483 56.4329 312 56.4329V61.3698C309.483 61.3698 307.443 62.9485 307.443 64.896C307.443 66.8435 309.483 68.4223 312 68.4223V73.3593C309.483 73.3593 307.443 74.938 307.443 76.8855C307.443 78.833 309.483 80.4118 312 80.4118V85.3484C309.483 85.3484 307.443 86.9272 307.443 88.8747C307.443 90.8222 309.483 92.4009 312 92.4009V97.3378C309.483 97.3378 307.443 98.9165 307.443 100.864C307.443 102.812 309.483 104.39 312 104.39L312 105.104C301.306 108.246 292.681 114.641 288.145 122.727H46.9438C42.5371 114.872 34.2724 108.613 24 105.381V104.39C26.5167 104.39 28.5568 102.812 28.5568 100.864C28.5568 98.9166 26.5167 97.3378 24 97.3378V92.4009C26.5167 92.4009 28.5568 90.8221 28.5568 88.8747C28.5568 86.9272 26.5167 85.3485 24 85.3484V80.4118C26.5167 80.4117 28.5568 78.833 28.5568 76.8855C28.5568 74.9381 26.5167 73.3593 24 73.3593V68.4223C26.5167 68.4222 28.5568 66.8435 28.5568 64.896C28.5568 62.9486 26.5167 61.3698 24 61.3698V56.4329C26.5167 56.4329 28.5568 54.8541 28.5568 52.9067C28.5568 50.9592 26.5167 49.3804 24 49.3804V44.4437C26.5167 44.4436 28.5568 42.8649 28.5568 40.9174C28.5568 38.9699 26.5167 37.3912 24 37.3911V35.6946C33.963 32.5607 42.0373 26.5786 46.5351 19.0544Z" fill="#FEFEFE"/>
<path d="M288.553 19.0544L289.412 18.5413L289.121 18.0544H288.553V19.0544ZM46.5351 19.0544V18.0544H45.9678L45.6768 18.5413L46.5351 19.0544ZM312 35.9717L313 35.9718L313 35.2233L312.282 35.0123L312 35.9717ZM312 37.3911V38.3911H313L313 37.3912L312 37.3911ZM312 44.4437H313V43.4437H312V44.4437ZM312 49.3804V50.3804H313V49.3804H312ZM312 56.4329H313V55.4329H312V56.4329ZM312 61.3698V62.3698H313V61.3698H312ZM312 68.4223H313V67.4223H312V68.4223ZM312 73.3593V74.3593H313V73.3593H312ZM312 80.4118H313V79.4118H312V80.4118ZM312 85.3484V86.3484H313V85.3484H312ZM312 92.4009H313V91.4009H312V92.4009ZM312 97.3378V98.3378H313V97.3378H312ZM312 104.39L313 104.39L313 103.39H312V104.39ZM312 105.104L312.282 106.064L313 105.853L313 105.104L312 105.104ZM288.145 122.727V123.727H288.73L289.017 123.216L288.145 122.727ZM46.9438 122.727L46.0717 123.216L46.3582 123.727H46.9438V122.727ZM24 105.381H23V106.115L23.6999 106.335L24 105.381ZM24 104.39L24 103.39L23 103.39V104.39H24ZM24 97.3378H23V98.3377L24 98.3378L24 97.3378ZM24 92.4009L24 91.4009L23 91.401V92.4009H24ZM24 85.3484H23V86.3484L24 86.3484L24 85.3484ZM24 80.4118L24 79.4118L23 79.4118V80.4118H24ZM24 73.3593H23V74.3592L24 74.3593L24 73.3593ZM24 68.4223L24 67.4223L23 67.4223V68.4223H24ZM24 61.3698H23V62.3697L24 62.3698L24 61.3698ZM24 56.4329L24 55.4329L23 55.433V56.4329H24ZM24 49.3804H23V50.3803L24 50.3804L24 49.3804ZM24 44.4437L24 43.4437L23 43.4437V44.4437H24ZM24 37.3911H23V38.3911L24 38.3911L24 37.3911ZM24 35.6946L23.6999 34.7406L23 34.9608V35.6946H24ZM288.553 18.0544H46.5351V20.0544H288.553V18.0544ZM312.282 35.0123C302.094 32.0196 293.894 26.0386 289.412 18.5413L287.695 19.5675C292.482 27.5749 301.143 33.8245 311.718 36.9312L312.282 35.0123ZM313 37.3912L313 35.9718L311 35.9716L311 37.391L313 37.3912ZM308.443 40.9174C308.443 39.7455 309.782 38.3911 312 38.3911V36.3911C309.184 36.3911 306.443 38.1942 306.443 40.9174H308.443ZM312 43.4437C309.782 43.4437 308.443 42.0893 308.443 40.9174H306.443C306.443 43.6405 309.184 45.4437 312 45.4437V43.4437ZM313 49.3804V44.4437H311V49.3804H313ZM308.443 52.9067C308.443 51.7348 309.782 50.3804 312 50.3804V48.3804C309.184 48.3804 306.443 50.1835 306.443 52.9067H308.443ZM312 55.4329C309.782 55.4329 308.443 54.0785 308.443 52.9067H306.443C306.443 55.6298 309.184 57.4329 312 57.4329V55.4329ZM313 61.3698V56.4329H311V61.3698H313ZM308.443 64.896C308.443 63.7242 309.782 62.3698 312 62.3698V60.3698C309.184 60.3698 306.443 62.1729 306.443 64.896H308.443ZM312 67.4223C309.782 67.4223 308.443 66.0679 308.443 64.896H306.443C306.443 67.6192 309.184 69.4223 312 69.4223V67.4223ZM313 73.3593V68.4223H311V73.3593H313ZM308.443 76.8855C308.443 75.7137 309.782 74.3593 312 74.3593V72.3593C309.184 72.3593 306.443 74.1624 306.443 76.8855H308.443ZM312 79.4118C309.782 79.4118 308.443 78.0574 308.443 76.8855H306.443C306.443 79.6087 309.184 81.4118 312 81.4118V79.4118ZM313 85.3484V80.4118H311V85.3484H313ZM308.443 88.8747C308.443 87.7028 309.782 86.3484 312 86.3484V84.3484C309.184 84.3484 306.443 86.1515 306.443 88.8747H308.443ZM312 91.4009C309.782 91.4009 308.443 90.0465 308.443 88.8747H306.443C306.443 91.5978 309.184 93.4009 312 93.4009V91.4009ZM313 97.3378V92.4009H311V97.3378H313ZM308.443 100.864C308.443 99.6922 309.782 98.3378 312 98.3378V96.3378C309.184 96.3378 306.443 98.1409 306.443 100.864H308.443ZM312 103.39C309.782 103.39 308.443 102.036 308.443 100.864H306.443C306.443 103.587 309.184 105.39 312 105.39V103.39ZM313 105.104L313 104.39L311 104.391L311 105.104L313 105.104ZM289.017 123.216C293.401 115.401 301.786 109.147 312.282 106.064L311.718 104.145C300.825 107.345 291.961 113.881 287.273 122.238L289.017 123.216ZM46.9438 123.727H288.145V121.727H46.9438V123.727ZM23.6999 106.335C33.7788 109.506 41.8127 115.624 46.0717 123.216L47.8159 122.238C43.2614 114.119 34.766 107.72 24.3001 104.428L23.6999 106.335ZM23 104.39V105.381H25V104.39H23ZM27.5568 100.864C27.5568 102.036 26.218 103.39 24 103.39L24 105.39C26.8153 105.39 29.5568 103.587 29.5568 100.864H27.5568ZM24 98.3378C26.218 98.3378 27.5568 99.6922 27.5568 100.864H29.5568C29.5568 98.141 26.8153 96.3378 24 96.3378L24 98.3378ZM23 92.4009V97.3378H25V92.4009H23ZM27.5568 88.8747C27.5568 90.0465 26.218 91.4009 24 91.4009L24 93.4009C26.8153 93.4009 29.5568 91.5978 29.5568 88.8747H27.5568ZM24 86.3484C26.218 86.3484 27.5568 87.7028 27.5568 88.8747H29.5568C29.5568 86.1516 26.8153 84.3485 24 84.3484L24 86.3484ZM23 80.4118V85.3484H25V80.4118H23ZM27.5568 76.8855C27.5568 78.0574 26.218 79.4118 24 79.4118L24 81.4118C26.8153 81.4117 29.5568 79.6086 29.5568 76.8855H27.5568ZM24 74.3593C26.218 74.3593 27.5568 75.7137 27.5568 76.8855H29.5568C29.5568 74.1624 26.8153 72.3593 24 72.3593L24 74.3593ZM23 68.4223V73.3593H25V68.4223H23ZM27.5568 64.896C27.5568 66.0679 26.218 67.4222 24 67.4223L24 69.4223C26.8153 69.4222 29.5568 67.6191 29.5568 64.896H27.5568ZM24 62.3698C26.218 62.3698 27.5568 63.7242 27.5568 64.896H29.5568C29.5568 62.1729 26.8153 60.3698 24 60.3698L24 62.3698ZM23 56.4329V61.3698H25V56.4329H23ZM27.5568 52.9067C27.5568 54.0785 26.218 55.4329 24 55.4329L24 57.4329C26.8153 57.4329 29.5568 55.6297 29.5568 52.9067H27.5568ZM24 50.3804C26.218 50.3804 27.5568 51.7348 27.5568 52.9067H29.5568C29.5568 50.1836 26.8153 48.3804 24 48.3804L24 50.3804ZM23 44.4437V49.3804H25V44.4437H23ZM27.5568 40.9174C27.5568 42.0892 26.218 43.4436 24 43.4437L24 45.4437C26.8153 45.4436 29.5568 43.6405 29.5568 40.9174H27.5568ZM24 38.3911C26.218 38.3912 27.5568 39.7456 27.5568 40.9174H29.5568C29.5568 38.1943 26.8153 36.3912 24 36.3911L24 38.3911ZM23 35.6946V37.3911H25V35.6946H23ZM45.6768 18.5413C41.3271 25.8177 33.4743 31.6661 23.6999 34.7406L24.3001 36.6485C34.4516 33.4553 42.7475 27.3395 47.3934 19.5675L45.6768 18.5413Z" fill="#AFABAB" fill-opacity="0.6" mask="url(#path-2-outside-1_141_756)"/>
<mask id="mask0_141_756" style="mask-type:alpha" maskUnits="userSpaceOnUse" x="10" y="10" width="316" height="121">
<rect x="10" y="10" width="316" height="121" rx="5" fill="#FEFEFE"/>
<mask id="path-5-outside-2_141_756" maskUnits="userSpaceOnUse" x="23" y="18.0544" width="291" height="106" fill="black">
<rect fill="white" x="23" y="18.0544" width="291" height="106"/>
<path fill-rule="evenodd" clip-rule="evenodd" d="M46.5351 19.0544H288.553C293.188 26.8067 301.619 32.922 312 35.9717L312 37.3911C309.483 37.3911 307.443 38.9699 307.443 40.9174C307.443 42.8649 309.483 44.4437 312 44.4437V49.3804C309.483 49.3804 307.443 50.9591 307.443 52.9067C307.443 54.8542 309.483 56.4329 312 56.4329V61.3698C309.483 61.3698 307.443 62.9485 307.443 64.896C307.443 66.8435 309.483 68.4223 312 68.4223V73.3593C309.483 73.3593 307.443 74.938 307.443 76.8855C307.443 78.833 309.483 80.4118 312 80.4118V85.3484C309.483 85.3484 307.443 86.9272 307.443 88.8747C307.443 90.8222 309.483 92.4009 312 92.4009V97.3378C309.483 97.3378 307.443 98.9165 307.443 100.864C307.443 102.812 309.483 104.39 312 104.39L312 105.104C301.306 108.246 292.681 114.641 288.145 122.727H46.9438C42.5371 114.872 34.2724 108.613 24 105.381V104.39C26.5167 104.39 28.5568 102.812 28.5568 100.864C28.5568 98.9166 26.5167 97.3378 24 97.3378V92.4009C26.5167 92.4009 28.5568 90.8221 28.5568 88.8747C28.5568 86.9272 26.5167 85.3485 24 85.3484V80.4118C26.5167 80.4117 28.5568 78.833 28.5568 76.8855C28.5568 74.9381 26.5167 73.3593 24 73.3593V68.4223C26.5167 68.4222 28.5568 66.8435 28.5568 64.896C28.5568 62.9486 26.5167 61.3698 24 61.3698V56.4329C26.5167 56.4329 28.5568 54.8541 28.5568 52.9067C28.5568 50.9592 26.5167 49.3804 24 49.3804V44.4437C26.5167 44.4436 28.5568 42.8649 28.5568 40.9174C28.5568 38.9699 26.5167 37.3912 24 37.3911V35.6946C33.963 32.5607 42.0373 26.5786 46.5351 19.0544Z"/>
</mask>
<path fill-rule="evenodd" clip-rule="evenodd" d="M46.5351 19.0544H288.553C293.188 26.8067 301.619 32.922 312 35.9717L312 37.3911C309.483 37.3911 307.443 38.9699 307.443 40.9174C307.443 42.8649 309.483 44.4437 312 44.4437V49.3804C309.483 49.3804 307.443 50.9591 307.443 52.9067C307.443 54.8542 309.483 56.4329 312 56.4329V61.3698C309.483 61.3698 307.443 62.9485 307.443 64.896C307.443 66.8435 309.483 68.4223 312 68.4223V73.3593C309.483 73.3593 307.443 74.938 307.443 76.8855C307.443 78.833 309.483 80.4118 312 80.4118V85.3484C309.483 85.3484 307.443 86.9272 307.443 88.8747C307.443 90.8222 309.483 92.4009 312 92.4009V97.3378C309.483 97.3378 307.443 98.9165 307.443 100.864C307.443 102.812 309.483 104.39 312 104.39L312 105.104C301.306 108.246 292.681 114.641 288.145 122.727H46.9438C42.5371 114.872 34.2724 108.613 24 105.381V104.39C26.5167 104.39 28.5568 102.812 28.5568 100.864C28.5568 98.9166 26.5167 97.3378 24 97.3378V92.4009C26.5167 92.4009 28.5568 90.8221 28.5568 88.8747C28.5568 86.9272 26.5167 85.3485 24 85.3484V80.4118C26.5167 80.4117 28.5568 78.833 28.5568 76.8855C28.5568 74.9381 26.5167 73.3593 24 73.3593V68.4223C26.5167 68.4222 28.5568 66.8435 28.5568 64.896C28.5568 62.9486 26.5167 61.3698 24 61.3698V56.4329C26.5167 56.4329 28.5568 54.8541 28.5568 52.9067C28.5568 50.9592 26.5167 49.3804 24 49.3804V44.4437C26.5167 44.4436 28.5568 42.8649 28.5568 40.9174C28.5568 38.9699 26.5167 37.3912 24 37.3911V35.6946C33.963 32.5607 42.0373 26.5786 46.5351 19.0544Z" fill="#FEFEFE"/>
<path d="M288.553 19.0544L289.412 18.5413L289.121 18.0544H288.553V19.0544ZM46.5351 19.0544V18.0544H45.9678L45.6768 18.5413L46.5351 19.0544ZM312 35.9717L313 35.9718L313 35.2233L312.282 35.0123L312 35.9717ZM312 37.3911V38.3911H313L313 37.3912L312 37.3911ZM312 44.4437H313V43.4437H312V44.4437ZM312 49.3804V50.3804H313V49.3804H312ZM312 56.4329H313V55.4329H312V56.4329ZM312 61.3698V62.3698H313V61.3698H312ZM312 68.4223H313V67.4223H312V68.4223ZM312 73.3593V74.3593H313V73.3593H312ZM312 80.4118H313V79.4118H312V80.4118ZM312 85.3484V86.3484H313V85.3484H312ZM312 92.4009H313V91.4009H312V92.4009ZM312 97.3378V98.3378H313V97.3378H312ZM312 104.39L313 104.39L313 103.39H312V104.39ZM312 105.104L312.282 106.064L313 105.853L313 105.104L312 105.104ZM288.145 122.727V123.727H288.73L289.017 123.216L288.145 122.727ZM46.9438 122.727L46.0717 123.216L46.3582 123.727H46.9438V122.727ZM24 105.381H23V106.115L23.6999 106.335L24 105.381ZM24 104.39L24 103.39L23 103.39V104.39H24ZM24 97.3378H23V98.3377L24 98.3378L24 97.3378ZM24 92.4009L24 91.4009L23 91.401V92.4009H24ZM24 85.3484H23V86.3484L24 86.3484L24 85.3484ZM24 80.4118L24 79.4118L23 79.4118V80.4118H24ZM24 73.3593H23V74.3592L24 74.3593L24 73.3593ZM24 68.4223L24 67.4223L23 67.4223V68.4223H24ZM24 61.3698H23V62.3697L24 62.3698L24 61.3698ZM24 56.4329L24 55.4329L23 55.433V56.4329H24ZM24 49.3804H23V50.3803L24 50.3804L24 49.3804ZM24 44.4437L24 43.4437L23 43.4437V44.4437H24ZM24 37.3911H23V38.3911L24 38.3911L24 37.3911ZM24 35.6946L23.6999 34.7406L23 34.9608V35.6946H24ZM288.553 18.0544H46.5351V20.0544H288.553V18.0544ZM312.282 35.0123C302.094 32.0196 293.894 26.0386 289.412 18.5413L287.695 19.5675C292.482 27.5749 301.143 33.8245 311.718 36.9312L312.282 35.0123ZM313 37.3912L313 35.9718L311 35.9716L311 37.391L313 37.3912ZM308.443 40.9174C308.443 39.7455 309.782 38.3911 312 38.3911V36.3911C309.184 36.3911 306.443 38.1942 306.443 40.9174H308.443ZM312 43.4437C309.782 43.4437 308.443 42.0893 308.443 40.9174H306.443C306.443 43.6405 309.184 45.4437 312 45.4437V43.4437ZM313 49.3804V44.4437H311V49.3804H313ZM308.443 52.9067C308.443 51.7348 309.782 50.3804 312 50.3804V48.3804C309.184 48.3804 306.443 50.1835 306.443 52.9067H308.443ZM312 55.4329C309.782 55.4329 308.443 54.0785 308.443 52.9067H306.443C306.443 55.6298 309.184 57.4329 312 57.4329V55.4329ZM313 61.3698V56.4329H311V61.3698H313ZM308.443 64.896C308.443 63.7242 309.782 62.3698 312 62.3698V60.3698C309.184 60.3698 306.443 62.1729 306.443 64.896H308.443ZM312 67.4223C309.782 67.4223 308.443 66.0679 308.443 64.896H306.443C306.443 67.6192 309.184 69.4223 312 69.4223V67.4223ZM313 73.3593V68.4223H311V73.3593H313ZM308.443 76.8855C308.443 75.7137 309.782 74.3593 312 74.3593V72.3593C309.184 72.3593 306.443 74.1624 306.443 76.8855H308.443ZM312 79.4118C309.782 79.4118 308.443 78.0574 308.443 76.8855H306.443C306.443 79.6087 309.184 81.4118 312 81.4118V79.4118ZM313 85.3484V80.4118H311V85.3484H313ZM308.443 88.8747C308.443 87.7028 309.782 86.3484 312 86.3484V84.3484C309.184 84.3484 306.443 86.1515 306.443 88.8747H308.443ZM312 91.4009C309.782 91.4009 308.443 90.0465 308.443 88.8747H306.443C306.443 91.5978 309.184 93.4009 312 93.4009V91.4009ZM313 97.3378V92.4009H311V97.3378H313ZM308.443 100.864C308.443 99.6922 309.782 98.3378 312 98.3378V96.3378C309.184 96.3378 306.443 98.1409 306.443 100.864H308.443ZM312 103.39C309.782 103.39 308.443 102.036 308.443 100.864H306.443C306.443 103.587 309.184 105.39 312 105.39V103.39ZM313 105.104L313 104.39L311 104.391L311 105.104L313 105.104ZM289.017 123.216C293.401 115.401 301.786 109.147 312.282 106.064L311.718 104.145C300.825 107.345 291.961 113.881 287.273 122.238L289.017 123.216ZM46.9438 123.727H288.145V121.727H46.9438V123.727ZM23.6999 106.335C33.7788 109.506 41.8127 115.624 46.0717 123.216L47.8159 122.238C43.2614 114.119 34.766 107.72 24.3001 104.428L23.6999 106.335ZM23 104.39V105.381H25V104.39H23ZM27.5568 100.864C27.5568 102.036 26.218 103.39 24 103.39L24 105.39C26.8153 105.39 29.5568 103.587 29.5568 100.864H27.5568ZM24 98.3378C26.218 98.3378 27.5568 99.6922 27.5568 100.864H29.5568C29.5568 98.141 26.8153 96.3378 24 96.3378L24 98.3378ZM23 92.4009V97.3378H25V92.4009H23ZM27.5568 88.8747C27.5568 90.0465 26.218 91.4009 24 91.4009L24 93.4009C26.8153 93.4009 29.5568 91.5978 29.5568 88.8747H27.5568ZM24 86.3484C26.218 86.3484 27.5568 87.7028 27.5568 88.8747H29.5568C29.5568 86.1516 26.8153 84.3485 24 84.3484L24 86.3484ZM23 80.4118V85.3484H25V80.4118H23ZM27.5568 76.8855C27.5568 78.0574 26.218 79.4118 24 79.4118L24 81.4118C26.8153 81.4117 29.5568 79.6086 29.5568 76.8855H27.5568ZM24 74.3593C26.218 74.3593 27.5568 75.7137 27.5568 76.8855H29.5568C29.5568 74.1624 26.8153 72.3593 24 72.3593L24 74.3593ZM23 68.4223V73.3593H25V68.4223H23ZM27.5568 64.896C27.5568 66.0679 26.218 67.4222 24 67.4223L24 69.4223C26.8153 69.4222 29.5568 67.6191 29.5568 64.896H27.5568ZM24 62.3698C26.218 62.3698 27.5568 63.7242 27.5568 64.896H29.5568C29.5568 62.1729 26.8153 60.3698 24 60.3698L24 62.3698ZM23 56.4329V61.3698H25V56.4329H23ZM27.5568 52.9067C27.5568 54.0785 26.218 55.4329 24 55.4329L24 57.4329C26.8153 57.4329 29.5568 55.6297 29.5568 52.9067H27.5568ZM24 50.3804C26.218 50.3804 27.5568 51.7348 27.5568 52.9067H29.5568C29.5568 50.1836 26.8153 48.3804 24 48.3804L24 50.3804ZM23 44.4437V49.3804H25V44.4437H23ZM27.5568 40.9174C27.5568 42.0892 26.218 43.4436 24 43.4437L24 45.4437C26.8153 45.4436 29.5568 43.6405 29.5568 40.9174H27.5568ZM24 38.3911C26.218 38.3912 27.5568 39.7456 27.5568 40.9174H29.5568C29.5568 38.1943 26.8153 36.3912 24 36.3911L24 38.3911ZM23 35.6946V37.3911H25V35.6946H23ZM45.6768 18.5413C41.3271 25.8177 33.4743 31.6661 23.6999 34.7406L24.3001 36.6485C34.4516 33.4553 42.7475 27.3395 47.3934 19.5675L45.6768 18.5413Z" fill="#AFABAB" fill-opacity="0.6" mask="url(#path-5-outside-2_141_756)"/>
</mask>
<g mask="url(#mask0_141_756)">
<path d="M260.221 128.67C260.702 129.164 261.111 129.499 261.448 129.673C261.785 129.805 262.135 129.821 262.497 129.72C262.859 129.619 263.382 129.382 264.066 129.01L264.405 129.81L258.792 135.269L258.22 135.197L258.102 134.559C257.987 133.709 257.753 132.974 257.401 132.354C257.049 131.691 256.455 130.951 255.618 130.133L247.178 121.455C246.655 120.918 246.256 120.615 245.982 120.548C245.707 120.438 245.43 120.519 245.151 120.791L244.796 121.136C244.065 121.847 243.736 122.606 243.81 123.413C243.862 124.199 244.249 125.35 244.971 126.866L244.106 127.268L240.184 123.236L240.224 122.631L240.894 122.545C241.574 122.427 242.506 121.793 243.689 120.643L249.593 114.902C250.775 113.751 251.435 112.838 251.572 112.161L251.677 111.494L252.314 111.439L256.236 115.471L255.778 116.356C254.219 115.571 253.058 115.151 252.295 115.098C251.532 115.003 250.796 115.3 250.087 115.99L249.667 116.398C249.388 116.67 249.288 116.955 249.369 117.253C249.45 117.509 249.752 117.906 250.275 118.443L260.221 128.67ZM281.706 110.851C281.831 112.528 281.27 113.974 280.022 115.187C279.248 115.94 278.468 116.364 277.681 116.459C276.896 116.512 275.923 116.265 274.764 115.718L271.068 113.789C270.288 113.418 269.686 113.187 269.263 113.096C268.819 112.984 268.341 113.03 267.829 113.235L266.999 113.478L266.749 113.093C266.942 112.947 267.179 112.738 267.458 112.466C267.716 112.215 267.889 112.027 267.975 111.901C268.645 110.998 268.914 110.026 268.78 108.984C268.646 107.943 268.118 106.949 267.198 106.003C266.09 104.863 264.942 104.221 263.756 104.077C262.549 103.912 261.505 104.258 260.623 105.116C259.655 106.057 259.611 106.979 260.489 107.882L269.242 116.883C270.058 117.721 270.782 118.336 271.413 118.727C272.044 119.075 272.783 119.319 273.63 119.458L274.265 119.594L274.32 120.167L268.707 125.627L267.916 125.265C268.308 124.592 268.559 124.076 268.67 123.717C268.76 123.336 268.733 122.986 268.589 122.665C268.445 122.345 268.133 121.938 267.651 121.443L259.306 112.862C258.574 112.109 257.955 111.602 257.45 111.34C256.945 111.036 256.352 110.964 255.671 111.125L255.064 111.275L254.785 110.731C255.243 109.867 255.925 108.869 256.832 107.736C257.739 106.56 258.601 105.575 259.419 104.781C261.462 102.794 263.472 101.633 265.45 101.3C267.427 100.967 269.106 101.51 270.487 102.93C271.449 103.919 271.984 105.115 272.092 106.516C272.2 107.876 271.885 109.165 271.147 110.386C272.256 109.977 273.358 110.034 274.454 110.559L278.658 112.622C279.332 112.971 279.916 112.905 280.411 112.424C280.798 112.047 281.028 111.488 281.102 110.747L281.706 110.851ZM292.697 96.6454C293.498 97.0385 294.205 97.2923 294.819 97.4069C295.412 97.5 296.176 97.4894 297.111 97.3752L297.134 97.9801L291.295 103.659L290.537 103.266L290.895 102.667C291.113 102.245 291.214 101.897 291.196 101.621C291.179 101.302 291.035 101.003 290.763 100.724C290.596 100.552 290.049 100.226 289.122 99.7461L286.626 98.4703L281.625 103.333L282.152 104.391C282.77 105.672 283.32 106.56 283.801 107.055C284.261 107.528 284.766 107.875 285.314 108.094L285.917 108.262L285.94 108.867L282.391 112.318L281.601 111.957L281.959 111.357C282.329 110.705 282.517 110.124 282.525 109.615C282.511 109.084 282.287 108.36 281.855 107.442L275.921 94.7571C275.549 94.073 275.258 93.6234 275.049 93.4084C274.589 92.9352 273.921 92.9365 273.044 93.4123L272.595 93.6606L272.256 92.8603L276.644 88.5935L292.697 96.6454ZM285.425 97.8807L276.862 93.4654L281.07 102.116L285.425 97.8807ZM295.958 70.5001C295.839 71.4531 295.817 72.2272 295.894 72.8223C295.97 73.4174 296.194 74.0994 296.565 74.8683L304.329 90.9833L301.522 93.7128L285.565 85.5667C284.764 85.1737 284.067 84.9306 283.475 84.8375C282.903 84.7235 282.15 84.7236 281.215 84.8379L281.128 84.232L286.999 78.522L287.758 78.9145L287.432 79.4827C287.171 79.9034 287.06 80.2625 287.098 80.5601C287.116 80.8361 287.271 81.1247 287.564 81.4258C287.773 81.6408 288.183 81.9117 288.793 82.2385L301.463 88.8112L295.308 76.0282C294.998 75.4087 294.729 74.9806 294.499 74.744C294.248 74.486 293.974 74.3549 293.677 74.3507C293.38 74.3042 293.029 74.3947 292.623 74.6225L291.822 74.9614L291.483 74.1611L295.355 70.3962L295.958 70.5001ZM302.373 71.7939C301.536 70.9337 300.813 70.319 300.203 69.9498C299.593 69.5807 298.864 69.3266 298.018 69.1875L297.414 69.0836L297.327 68.4778L304.457 61.5442C305.64 60.3938 306.299 59.4801 306.436 58.8031L306.541 58.1363L307.146 58.1129L311.067 62.1454L310.642 62.9987C309.125 62.2138 307.964 61.7945 307.159 61.7409C306.375 61.6663 305.639 61.9637 304.951 62.633L303.499 64.0448C302.94 64.5886 302.679 65.0517 302.716 65.4341C302.732 65.795 303.064 66.3088 303.713 66.9755L308.168 71.5564L310.491 69.2975C311.136 68.67 311.546 68.1453 311.722 67.7235C311.919 67.2807 311.904 66.7926 311.678 66.259L311.401 65.6505L312.071 65.5007L315.585 69.1138L315.126 70.0621L314.307 69.4779C313.782 69.1099 313.242 69.0282 312.687 69.2326C312.133 69.437 311.425 69.9576 310.565 70.7942L308.952 72.3629L313.69 77.2341C314.317 77.8793 314.832 78.2153 315.235 78.2421C315.617 78.2474 316.141 77.9259 316.808 77.2775L318.388 75.7402C319.034 75.1127 319.319 74.3954 319.246 73.5882C319.194 72.7601 318.796 71.6195 318.052 70.1665L318.949 69.7335L322.714 73.6046L322.642 74.2401C322.131 74.3178 321.641 74.502 321.17 74.7924C320.72 75.1044 320.151 75.595 319.463 76.2643L311.366 84.1391L310.575 83.7781C310.967 83.1046 311.218 82.5884 311.329 82.2292C311.419 81.8486 311.392 81.4982 311.248 81.178C311.104 80.8577 310.791 80.4503 310.31 79.9556L302.373 71.7939ZM315.572 58.8321C314.819 58.0579 314.222 57.5086 313.781 57.1842C313.319 56.8383 312.855 56.6197 312.389 56.5284C311.924 56.437 311.298 56.4177 310.513 56.4704L310.395 55.7687L316.008 50.3097L316.736 50.6062C316.513 51.3668 316.399 51.9593 316.393 52.3835C316.387 52.8077 316.498 53.223 316.726 53.6292C316.975 54.0146 317.434 54.5513 318.104 55.2396L326.857 64.24C327.526 64.9282 328.062 65.2857 328.465 65.3125C328.868 65.3394 329.402 65.0286 330.069 64.3802L331.295 63.188C331.919 62.5814 332.215 61.8961 332.183 61.1319C332.13 60.3462 331.722 59.1736 330.959 57.6143L331.824 57.2127L335.589 61.0838L335.548 61.6879C335.06 61.7447 334.601 61.8975 334.174 62.1461C333.767 62.4162 333.219 62.8859 332.531 63.5553L324.595 71.2732L323.837 70.8808C324.228 70.2073 324.479 69.691 324.59 69.3319C324.681 68.9513 324.654 68.6009 324.51 68.2807C324.365 67.9604 324.053 67.553 323.572 67.0583L315.572 58.8321Z" fill="#AFABAB" fill-opacity="0.6"/>
</g>
<defs>
<filter id="filter0_ddd_141_756" x="0" y="0" width="336" height="141" filterUnits="userSpaceOnUse" color-interpolation-filters="sRGB">
<feFlood flood-opacity="0" result="BackgroundImageFix"/>
<feColorMatrix in="SourceAlpha" type="matrix" values="0 0 0 0 0 0 0 0 0 0 0 0 0 0 0 0 0 0 127 0" result="hardAlpha"/>
<feOffset/>
<feGaussianBlur stdDeviation="2.5"/>
<feComposite in2="hardAlpha" operator="out"/>
<feColorMatrix type="matrix" values="0 0 0 0 0.816667 0 0 0 0 0.816667 0 0 0 0 0.816667 0 0 0 0.25 0"/>
<feBlend mode="normal" in2="BackgroundImageFix" result="effect1_dropShadow_141_756"/>
<feColorMatrix in="SourceAlpha" type="matrix" values="0 0 0 0 0 0 0 0 0 0 0 0 0 0 0 0 0 0 127 0" result="hardAlpha"/>
<feOffset/>
<feGaussianBlur stdDeviation="2.5"/>
<feComposite in2="hardAlpha" operator="out"/>
<feColorMatrix type="matrix" values="0 0 0 0 0.741667 0 0 0 0 0.741667 0 0 0 0 0.741667 0 0 0 0.25 0"/>
<feBlend mode="normal" in2="effect1_dropShadow_141_756" result="effect2_dropShadow_141_756"/>
<feColorMatrix in="SourceAlpha" type="matrix" values="0 0 0 0 0 0 0 0 0 0 0 0 0 0 0 0 0 0 127 0" result="hardAlpha"/>
<feOffset/>
<feGaussianBlur stdDeviation="5"/>
<feComposite in2="hardAlpha" operator="out"/>
<feColorMatrix type="matrix" values="0 0 0 0 0.894118 0 0 0 0 0.894118 0 0 0 0 0.909804 0 0 0 1 0"/>
<feBlend mode="normal" in2="effect2_dropShadow_141_756" result="effect3_dropShadow_141_756"/>
<feBlend mode="normal" in="SourceGraphic" in2="effect3_dropShadow_141_756" result="shape"/>
</filter>
</defs>
</svg>
