<svg width="356" height="51" viewBox="0 0 356 51" fill="none" xmlns="http://www.w3.org/2000/svg">
<rect width="356" height="51" rx="5" fill="#FD855F"/>
<path d="M131.286 24.0795C131.191 23.7727 131.06 23.4981 130.893 23.2557C130.731 23.0095 130.534 22.7992 130.303 22.625C130.075 22.4508 129.814 22.3201 129.518 22.233C129.223 22.142 128.901 22.0966 128.553 22.0966C127.928 22.0966 127.371 22.2538 126.882 22.5682C126.393 22.8826 126.009 23.3447 125.729 23.9545C125.452 24.5606 125.314 25.2992 125.314 26.1705C125.314 27.0492 125.452 27.7936 125.729 28.4034C126.005 29.0133 126.39 29.4773 126.882 29.7955C127.375 30.1098 127.947 30.267 128.598 30.267C129.189 30.267 129.7 30.1534 130.132 29.9261C130.568 29.6989 130.903 29.3769 131.138 28.9602C131.373 28.5398 131.49 28.0473 131.49 27.483L131.967 27.5568H128.808V25.9091H133.53V27.3068C133.53 28.303 133.318 29.1648 132.893 29.892C132.469 30.6193 131.886 31.1799 131.143 31.5739C130.401 31.964 129.549 32.1591 128.587 32.1591C127.515 32.1591 126.573 31.9186 125.763 31.4375C124.956 30.9527 124.325 30.2652 123.871 29.375C123.42 28.4811 123.195 27.4205 123.195 26.1932C123.195 25.2538 123.327 24.4148 123.592 23.6761C123.861 22.9375 124.236 22.3106 124.717 21.7955C125.198 21.2765 125.763 20.8826 126.411 20.6136C127.058 20.3409 127.763 20.2045 128.524 20.2045C129.168 20.2045 129.768 20.2992 130.325 20.4886C130.882 20.6742 131.376 20.9394 131.808 21.2841C132.244 21.6288 132.602 22.0379 132.882 22.5114C133.162 22.9848 133.346 23.5076 133.433 24.0795H131.286ZM135.477 32V23.2727H137.443V24.7557H137.545C137.727 24.2557 138.028 23.8655 138.449 23.5852C138.869 23.3011 139.371 23.1591 139.955 23.1591C140.545 23.1591 141.044 23.303 141.449 23.5909C141.858 23.875 142.146 24.2633 142.313 24.7557H142.403C142.597 24.2708 142.922 23.8845 143.381 23.5966C143.843 23.3049 144.39 23.1591 145.023 23.1591C145.826 23.1591 146.481 23.4129 146.989 23.9205C147.496 24.428 147.75 25.1686 147.75 26.142V32H145.688V26.4602C145.688 25.9186 145.544 25.5227 145.256 25.2727C144.968 25.0189 144.616 24.892 144.199 24.892C143.703 24.892 143.314 25.0473 143.034 25.358C142.758 25.6648 142.619 26.0644 142.619 26.5568V32H140.602V26.375C140.602 25.9242 140.466 25.5644 140.193 25.2955C139.924 25.0265 139.572 24.892 139.136 24.892C138.841 24.892 138.572 24.9678 138.33 25.1193C138.087 25.267 137.894 25.4773 137.75 25.75C137.606 26.0189 137.534 26.3333 137.534 26.6932V32H135.477ZM152.348 32.1761C151.795 32.1761 151.297 32.0777 150.854 31.8807C150.414 31.6799 150.066 31.3845 149.808 30.9943C149.554 30.6042 149.428 30.1231 149.428 29.5511C149.428 29.0587 149.518 28.6515 149.7 28.3295C149.882 28.0076 150.13 27.75 150.445 27.5568C150.759 27.3636 151.113 27.2178 151.507 27.1193C151.905 27.017 152.316 26.9432 152.74 26.8977C153.251 26.8447 153.666 26.7973 153.984 26.7557C154.303 26.7102 154.534 26.642 154.678 26.5511C154.825 26.4564 154.899 26.3106 154.899 26.1136V26.0795C154.899 25.6515 154.772 25.3201 154.518 25.0852C154.265 24.8504 153.899 24.733 153.422 24.733C152.918 24.733 152.518 24.8428 152.223 25.0625C151.931 25.2822 151.734 25.5417 151.632 25.8409L149.712 25.5682C149.863 25.0379 150.113 24.5947 150.462 24.2386C150.81 23.8788 151.236 23.6098 151.74 23.4318C152.244 23.25 152.801 23.1591 153.411 23.1591C153.831 23.1591 154.25 23.2083 154.666 23.3068C155.083 23.4053 155.464 23.5682 155.808 23.7955C156.153 24.0189 156.429 24.3239 156.638 24.7102C156.85 25.0966 156.956 25.5795 156.956 26.1591V32H154.979V30.8011H154.911C154.786 31.0436 154.609 31.2708 154.382 31.483C154.159 31.6913 153.876 31.8598 153.536 31.9886C153.198 32.1136 152.803 32.1761 152.348 32.1761ZM152.882 30.6648C153.295 30.6648 153.653 30.5833 153.956 30.4205C154.259 30.2538 154.492 30.0341 154.655 29.7614C154.822 29.4886 154.905 29.1913 154.905 28.8693V27.8409C154.84 27.8939 154.731 27.9432 154.575 27.9886C154.424 28.0341 154.253 28.0739 154.064 28.108C153.875 28.142 153.687 28.1723 153.501 28.1989C153.316 28.2254 153.155 28.2481 153.018 28.267C152.712 28.3087 152.437 28.3769 152.195 28.4716C151.952 28.5663 151.761 28.6989 151.621 28.8693C151.481 29.036 151.411 29.2519 151.411 29.517C151.411 29.8958 151.549 30.1818 151.825 30.375C152.102 30.5682 152.454 30.6648 152.882 30.6648ZM159.024 32V23.2727H161.081V32H159.024ZM160.058 22.0341C159.733 22.0341 159.452 21.9261 159.217 21.7102C158.983 21.4905 158.865 21.2273 158.865 20.9205C158.865 20.6098 158.983 20.3466 159.217 20.1307C159.452 19.911 159.733 19.8011 160.058 19.8011C160.388 19.8011 160.668 19.911 160.899 20.1307C161.134 20.3466 161.251 20.6098 161.251 20.9205C161.251 21.2273 161.134 21.4905 160.899 21.7102C160.668 21.9261 160.388 22.0341 160.058 22.0341ZM165.253 20.3636V32H163.196V20.3636H165.253ZM176.265 20.656C176.281 21.12 176.281 21.76 176.281 22.224C176.281 23.152 176.281 29.072 176.281 30.032C176.281 30.8 176.249 32.208 176.249 32.288H178.441C178.441 32.208 178.425 30.864 178.425 30.096C178.425 29.152 178.425 22.736 178.425 22.736H186.169C186.169 22.736 186.169 29.168 186.169 30.096C186.169 30.976 186.121 32.224 186.121 32.288H188.345C188.329 32.224 188.313 30.688 188.313 30.064C188.313 29.088 188.313 23.2 188.313 22.224C188.313 21.728 188.313 21.152 188.345 20.672C187.753 20.688 187.161 20.688 186.761 20.688C185.609 20.688 179.113 20.688 177.945 20.688C177.513 20.688 176.905 20.672 176.265 20.656ZM186.953 29.376H177.337V31.408H186.953V29.376ZM202.713 18.896L201.433 19.424C201.865 20.032 202.361 20.992 202.697 21.648L203.977 21.088C203.673 20.496 203.113 19.488 202.713 18.896ZM204.601 18.176L203.337 18.704C203.769 19.296 204.281 20.24 204.617 20.896L205.897 20.352C205.609 19.792 205.017 18.784 204.601 18.176ZM204.137 22.416L202.505 21.408C202.137 21.536 201.609 21.6 201.113 21.6C200.601 21.6 197.257 21.6 196.537 21.6L195.801 23.424H201.193C200.937 24.608 200.009 26.528 198.921 27.776C197.529 29.36 195.753 30.752 192.473 31.744L194.361 33.424C197.369 32.24 199.305 30.768 200.825 28.912C202.265 27.136 203.177 24.992 203.609 23.568C203.737 23.168 203.961 22.736 204.137 22.416ZM198.921 19.888L196.585 19.12C196.441 19.664 196.105 20.416 195.865 20.8C195.065 22.176 193.673 24.24 190.857 25.952L192.665 27.28C194.953 25.712 196.873 23.456 197.945 21.52C198.137 21.184 198.553 20.448 198.921 19.888ZM207.241 25.792L208.233 27.808C210.761 27.056 213.353 25.856 215.161 24.784C217.049 23.648 219.001 22.144 220.457 20.672L218.729 19.04C217.689 20.304 215.865 21.904 214.233 22.912C212.441 24.016 210.105 25.056 207.241 25.792ZM213.897 23.952V30.624C213.897 31.328 213.833 32.336 213.769 32.72H216.313C216.201 32.32 216.169 31.328 216.169 30.624V23.408L213.897 23.952ZM226.105 19.84L224.585 21.456C225.753 22.256 227.769 24 228.601 24.896L230.233 23.232C229.289 22.256 227.209 20.592 226.105 19.84ZM224.089 30.496L225.449 32.608C227.689 32.224 229.753 31.344 231.385 30.368C233.961 28.816 236.089 26.608 237.289 24.432L236.057 22.192C235.033 24.352 232.953 26.784 230.217 28.416C228.665 29.328 226.601 30.144 224.089 30.496Z" fill="#FEFEFE"/>
</svg>
