<svg width="82" height="18" viewBox="0 0 82 18" fill="none" xmlns="http://www.w3.org/2000/svg">
<path d="M7.47831 4.68328C7.9403 3.26143 8.17129 2.5505 8.51825 2.35976C8.81824 2.19484 9.18176 2.19484 9.48175 2.35976C9.82871 2.5505 10.0597 3.26143 10.5217 4.68328L10.6614 5.11327C10.7905 5.51062 10.8551 5.70929 10.9767 5.85627C11.084 5.98606 11.2224 6.08662 11.379 6.14862C11.5564 6.21885 11.7653 6.21885 12.1831 6.21885H12.6352C14.1302 6.21885 14.8778 6.21885 15.1664 6.48988C15.4159 6.72423 15.5283 7.06995 15.4641 7.40623C15.3899 7.79514 14.7852 8.23452 13.5757 9.11328L13.2099 9.37902C12.8719 9.62459 12.7029 9.74738 12.6007 9.90844C12.5104 10.0507 12.4576 10.2134 12.447 10.3815C12.435 10.5719 12.4996 10.7705 12.6287 11.1679L12.7684 11.5979C13.2304 13.0197 13.4614 13.7307 13.2928 14.0889C13.147 14.3987 12.8529 14.6123 12.5133 14.6552C12.1205 14.7049 11.5157 14.2655 10.3062 13.3867L9.94046 13.121C9.60246 12.8754 9.43346 12.7526 9.24869 12.7052C9.08554 12.6633 8.91446 12.6633 8.75131 12.7052C8.56654 12.7526 8.39754 12.8754 8.05954 13.121L7.69377 13.3867C6.48427 14.2655 5.87952 14.7049 5.48671 14.6552C5.14707 14.6123 4.85298 14.3987 4.70722 14.0889C4.53864 13.7307 4.76963 13.0197 5.23162 11.5979L5.37134 11.1679C5.50044 10.7705 5.56499 10.5719 5.55301 10.3815C5.54244 10.2134 5.48957 10.0507 5.39932 9.90844C5.2971 9.74738 5.1281 9.62459 4.7901 9.37902L4.42433 9.11328C3.21483 8.23452 2.61008 7.79514 2.53589 7.40623C2.47174 7.06995 2.58407 6.72423 2.83363 6.48988C3.12225 6.21885 3.86976 6.21885 5.36479 6.21885H5.81691C6.2347 6.21885 6.44359 6.21885 6.62096 6.14862C6.77757 6.08662 6.91598 5.98606 7.02334 5.85627C7.14494 5.70929 7.20949 5.51062 7.3386 5.11327L7.47831 4.68328Z" fill="#D9D9D9"/>
<path d="M23.4783 4.68328C23.9403 3.26143 24.1713 2.5505 24.5182 2.35976C24.8182 2.19484 25.1818 2.19484 25.4818 2.35976C25.8287 2.5505 26.0597 3.26143 26.5217 4.68328L26.6614 5.11327C26.7905 5.51062 26.8551 5.70929 26.9767 5.85627C27.084 5.98606 27.2224 6.08662 27.379 6.14862C27.5564 6.21885 27.7653 6.21885 28.1831 6.21885H28.6352C30.1302 6.21885 30.8778 6.21885 31.1664 6.48988C31.4159 6.72423 31.5283 7.06995 31.4641 7.40623C31.3899 7.79514 30.7852 8.23452 29.5757 9.11328L29.2099 9.37902C28.8719 9.62459 28.7029 9.74738 28.6007 9.90844C28.5104 10.0507 28.4576 10.2134 28.447 10.3815C28.435 10.5719 28.4996 10.7705 28.6287 11.1679L28.7684 11.5979C29.2304 13.0197 29.4614 13.7307 29.2928 14.0889C29.147 14.3987 28.8529 14.6123 28.5133 14.6552C28.1205 14.7049 27.5157 14.2655 26.3062 13.3867L25.9405 13.121C25.6025 12.8754 25.4335 12.7526 25.2487 12.7052C25.0855 12.6633 24.9145 12.6633 24.7513 12.7052C24.5665 12.7526 24.3975 12.8754 24.0595 13.121L23.6938 13.3867C22.4843 14.2655 21.8795 14.7049 21.4867 14.6552C21.1471 14.6123 20.853 14.3987 20.7072 14.0889C20.5386 13.7307 20.7696 13.0197 21.2316 11.5979L21.3713 11.1679C21.5004 10.7705 21.565 10.5719 21.553 10.3815C21.5424 10.2134 21.4896 10.0507 21.3993 9.90844C21.2971 9.74738 21.1281 9.62459 20.7901 9.37902L20.4243 9.11328C19.2148 8.23452 18.6101 7.79514 18.5359 7.40623C18.4717 7.06995 18.5841 6.72423 18.8336 6.48988C19.1222 6.21885 19.8698 6.21885 21.3648 6.21885H21.8169C22.2347 6.21885 22.4436 6.21885 22.621 6.14862C22.7776 6.08662 22.916 5.98606 23.0233 5.85627C23.1449 5.70929 23.2095 5.51062 23.3386 5.11327L23.4783 4.68328Z" fill="#D9D9D9"/>
<path d="M39.4783 4.68328C39.9403 3.26143 40.1713 2.5505 40.5182 2.35976C40.8182 2.19484 41.1818 2.19484 41.4818 2.35976C41.8287 2.5505 42.0597 3.26143 42.5217 4.68328L42.6614 5.11327C42.7905 5.51062 42.8551 5.70929 42.9767 5.85627C43.084 5.98606 43.2224 6.08662 43.379 6.14862C43.5564 6.21885 43.7653 6.21885 44.1831 6.21885H44.6352C46.1302 6.21885 46.8778 6.21885 47.1664 6.48988C47.4159 6.72423 47.5283 7.06995 47.4641 7.40623C47.3899 7.79514 46.7852 8.23452 45.5757 9.11328L45.2099 9.37902C44.8719 9.62459 44.7029 9.74738 44.6007 9.90844C44.5104 10.0507 44.4576 10.2134 44.447 10.3815C44.435 10.5719 44.4996 10.7705 44.6287 11.1679L44.7684 11.5979C45.2304 13.0197 45.4614 13.7307 45.2928 14.0889C45.147 14.3987 44.8529 14.6123 44.5133 14.6552C44.1205 14.7049 43.5157 14.2655 42.3062 13.3867L41.9405 13.121C41.6025 12.8754 41.4335 12.7526 41.2487 12.7052C41.0855 12.6633 40.9145 12.6633 40.7513 12.7052C40.5665 12.7526 40.3975 12.8754 40.0595 13.121L39.6938 13.3867C38.4843 14.2655 37.8795 14.7049 37.4867 14.6552C37.1471 14.6123 36.853 14.3987 36.7072 14.0889C36.5386 13.7307 36.7696 13.0197 37.2316 11.5979L37.3713 11.1679C37.5004 10.7705 37.565 10.5719 37.553 10.3815C37.5424 10.2134 37.4896 10.0507 37.3993 9.90844C37.2971 9.74738 37.1281 9.62459 36.7901 9.37902L36.4243 9.11328C35.2148 8.23452 34.6101 7.79514 34.5359 7.40623C34.4717 7.06995 34.5841 6.72423 34.8336 6.48988C35.1222 6.21885 35.8698 6.21885 37.3648 6.21885H37.8169C38.2347 6.21885 38.4436 6.21885 38.621 6.14862C38.7776 6.08662 38.916 5.98606 39.0233 5.85627C39.1449 5.70929 39.2095 5.51062 39.3386 5.11327L39.4783 4.68328Z" fill="#D9D9D9"/>
<path d="M7.47831 4.68328C7.9403 3.26143 8.17129 2.5505 8.51825 2.35976C8.81824 2.19484 9.18176 2.19484 9.48175 2.35976C9.82871 2.5505 10.0597 3.26143 10.5217 4.68328L10.6614 5.11327C10.7905 5.51062 10.8551 5.70929 10.9767 5.85627C11.084 5.98606 11.2224 6.08662 11.379 6.14862C11.5564 6.21885 11.7653 6.21885 12.1831 6.21885H12.6352C14.1302 6.21885 14.8778 6.21885 15.1664 6.48988C15.4159 6.72423 15.5283 7.06995 15.4641 7.40623C15.3899 7.79514 14.7852 8.23452 13.5757 9.11328L13.2099 9.37902C12.8719 9.62459 12.7029 9.74738 12.6007 9.90844C12.5104 10.0507 12.4576 10.2134 12.447 10.3815C12.435 10.5719 12.4996 10.7705 12.6287 11.1679L12.7684 11.5979C13.2304 13.0197 13.4614 13.7307 13.2928 14.0889C13.147 14.3987 12.8529 14.6123 12.5133 14.6552C12.1205 14.7049 11.5157 14.2655 10.3062 13.3867L9.94046 13.121C9.60246 12.8754 9.43346 12.7526 9.24869 12.7052C9.08554 12.6633 8.91446 12.6633 8.75131 12.7052C8.56654 12.7526 8.39754 12.8754 8.05954 13.121L7.69377 13.3867C6.48427 14.2655 5.87952 14.7049 5.48671 14.6552C5.14707 14.6123 4.85298 14.3987 4.70722 14.0889C4.53864 13.7307 4.76963 13.0197 5.23162 11.5979L5.37134 11.1679C5.50044 10.7705 5.56499 10.5719 5.55301 10.3815C5.54244 10.2134 5.48957 10.0507 5.39932 9.90844C5.2971 9.74738 5.1281 9.62459 4.7901 9.37902L4.42433 9.11328C3.21483 8.23452 2.61008 7.79514 2.53589 7.40623C2.47174 7.06995 2.58407 6.72423 2.83363 6.48988C3.12225 6.21885 3.86976 6.21885 5.36479 6.21885H5.81691C6.2347 6.21885 6.44359 6.21885 6.62096 6.14862C6.77757 6.08662 6.91598 5.98606 7.02334 5.85627C7.14494 5.70929 7.20949 5.51062 7.3386 5.11327L7.47831 4.68328Z" fill="#FDE45F"/>
<path d="M23.4783 4.68328C23.9403 3.26143 24.1713 2.5505 24.5182 2.35976C24.8182 2.19484 25.1818 2.19484 25.4818 2.35976C25.8287 2.5505 26.0597 3.26143 26.5217 4.68328L26.6614 5.11327C26.7905 5.51062 26.8551 5.70929 26.9767 5.85627C27.084 5.98606 27.2224 6.08662 27.379 6.14862C27.5564 6.21885 27.7653 6.21885 28.1831 6.21885H28.6352C30.1302 6.21885 30.8778 6.21885 31.1664 6.48988C31.4159 6.72423 31.5283 7.06995 31.4641 7.40623C31.3899 7.79514 30.7852 8.23452 29.5757 9.11328L29.2099 9.37902C28.8719 9.62459 28.7029 9.74738 28.6007 9.90844C28.5104 10.0507 28.4576 10.2134 28.447 10.3815C28.435 10.5719 28.4996 10.7705 28.6287 11.1679L28.7684 11.5979C29.2304 13.0197 29.4614 13.7307 29.2928 14.0889C29.147 14.3987 28.8529 14.6123 28.5133 14.6552C28.1205 14.7049 27.5157 14.2655 26.3062 13.3867L25.9405 13.121C25.6025 12.8754 25.4335 12.7526 25.2487 12.7052C25.0855 12.6633 24.9145 12.6633 24.7513 12.7052C24.5665 12.7526 24.3975 12.8754 24.0595 13.121L23.6938 13.3867C22.4843 14.2655 21.8795 14.7049 21.4867 14.6552C21.1471 14.6123 20.853 14.3987 20.7072 14.0889C20.5386 13.7307 20.7696 13.0197 21.2316 11.5979L21.3713 11.1679C21.5004 10.7705 21.565 10.5719 21.553 10.3815C21.5424 10.2134 21.4896 10.0507 21.3993 9.90844C21.2971 9.74738 21.1281 9.62459 20.7901 9.37902L20.4243 9.11328C19.2148 8.23452 18.6101 7.79514 18.5359 7.40623C18.4717 7.06995 18.5841 6.72423 18.8336 6.48988C19.1222 6.21885 19.8698 6.21885 21.3648 6.21885H21.8169C22.2347 6.21885 22.4436 6.21885 22.621 6.14862C22.7776 6.08662 22.916 5.98606 23.0233 5.85627C23.1449 5.70929 23.2095 5.51062 23.3386 5.11327L23.4783 4.68328Z" fill="#FDE45F"/>
<path d="M39.4783 4.68328C39.9403 3.26143 40.1713 2.5505 40.5182 2.35976C40.8182 2.19484 41.1818 2.19484 41.4818 2.35976C41.8287 2.5505 42.0597 3.26143 42.5217 4.68328L42.6614 5.11327C42.7905 5.51062 42.8551 5.70929 42.9767 5.85627C43.084 5.98606 43.2224 6.08662 43.379 6.14862C43.5564 6.21885 43.7653 6.21885 44.1831 6.21885H44.6352C46.1302 6.21885 46.8778 6.21885 47.1664 6.48988C47.4159 6.72423 47.5283 7.06995 47.4641 7.40623C47.3899 7.79514 46.7852 8.23452 45.5757 9.11328L45.2099 9.37902C44.8719 9.62459 44.7029 9.74738 44.6007 9.90844C44.5104 10.0507 44.4576 10.2134 44.447 10.3815C44.435 10.5719 44.4996 10.7705 44.6287 11.1679L44.7684 11.5979C45.2304 13.0197 45.4614 13.7307 45.2928 14.0889C45.147 14.3987 44.8529 14.6123 44.5133 14.6552C44.1205 14.7049 43.5157 14.2655 42.3062 13.3867L41.9405 13.121C41.6025 12.8754 41.4335 12.7526 41.2487 12.7052C41.0855 12.6633 40.9145 12.6633 40.7513 12.7052C40.5665 12.7526 40.3975 12.8754 40.0595 13.121L39.6938 13.3867C38.4843 14.2655 37.8795 14.7049 37.4867 14.6552C37.1471 14.6123 36.853 14.3987 36.7072 14.0889C36.5386 13.7307 36.7696 13.0197 37.2316 11.5979L37.3713 11.1679C37.5004 10.7705 37.565 10.5719 37.553 10.3815C37.5424 10.2134 37.4896 10.0507 37.3993 9.90844C37.2971 9.74738 37.1281 9.62459 36.7901 9.37902L36.4243 9.11328C35.2148 8.23452 34.6101 7.79514 34.5359 7.40623C34.4717 7.06995 34.5841 6.72423 34.8336 6.48988C35.1222 6.21885 35.8698 6.21885 37.3648 6.21885H37.8169C38.2347 6.21885 38.4436 6.21885 38.621 6.14862C38.7776 6.08662 38.916 5.98606 39.0233 5.85627C39.1449 5.70929 39.2095 5.51062 39.3386 5.11327L39.4783 4.68328Z" fill="#FDE45F"/>
<path d="M72.5595 2.5V5.5V7.46885V10.0623V11V12.4377L71.2533 13.3867C70.0438 14.2655 69.439 14.7049 69.0462 14.6552C68.7066 14.6123 68.4125 14.3987 68.2667 14.0889C68.0981 13.7307 68.3291 13.0197 68.7911 11.5979L68.9308 11.1679C69.0599 10.7705 69.1245 10.5719 69.1125 10.3815C69.1019 10.2134 69.0491 10.0507 68.9588 9.90844C68.8566 9.74738 68.6876 9.62459 68.3496 9.37902L67.9838 9.11328C66.7743 8.23452 66.1696 7.79514 66.0954 7.40623C66.0312 7.06995 66.1436 6.72423 66.3931 6.48988C66.6818 6.21885 67.4293 6.21885 68.9243 6.21885H69.3764C69.7942 6.21885 70.0031 6.21885 70.1805 6.14862C70.3371 6.08662 70.4755 5.98606 70.5829 5.85627C70.7044 5.70929 70.769 5.51062 70.8981 5.11327L71.4962 3.27254C71.5215 3.19465 71.5342 3.1557 71.5482 3.12136C71.6918 2.77041 72.0215 2.53085 72.3997 2.50275C72.4367 2.5 72.4776 2.5 72.5595 2.5V2.5Z" fill="#FDE45F"/>
<path d="M72.5596 2.5V5.5V7.46885V10.0623V11V12.4377L73.8659 13.3867C75.0754 14.2655 75.6801 14.7049 76.0729 14.6552C76.4126 14.6123 76.7067 14.3987 76.8524 14.0889C77.021 13.7307 76.79 13.0197 76.328 11.5979L76.1883 11.1679C76.0592 10.7705 75.9946 10.5719 76.0066 10.3815C76.0172 10.2134 76.0701 10.0507 76.1603 9.90844C76.2625 9.74738 76.4315 9.62459 76.7695 9.37902L77.1353 9.11328C78.3448 8.23452 78.9496 7.79514 79.0237 7.40623C79.0879 7.06995 78.9756 6.72423 78.726 6.48988C78.4374 6.21885 77.6899 6.21885 76.1948 6.21885H75.7427C75.3249 6.21885 75.116 6.21885 74.9387 6.14862C74.7821 6.08662 74.6437 5.98606 74.5363 5.85627C74.4147 5.70929 74.3501 5.51062 74.221 5.11327L73.6229 3.27254C73.5976 3.19465 73.585 3.1557 73.5709 3.12136C73.4274 2.77041 73.0976 2.53085 72.7195 2.50275C72.6825 2.5 72.6415 2.5 72.5596 2.5V2.5Z" fill="#D9D9D9"/>
<path d="M55.4783 4.68328C55.9403 3.26143 56.1713 2.5505 56.5182 2.35976C56.8182 2.19484 57.1818 2.19484 57.4818 2.35976C57.8287 2.5505 58.0597 3.26143 58.5217 4.68328L58.6614 5.11327C58.7905 5.51062 58.8551 5.70929 58.9767 5.85627C59.084 5.98606 59.2224 6.08662 59.379 6.14862C59.5564 6.21885 59.7653 6.21885 60.1831 6.21885H60.6352C62.1302 6.21885 62.8778 6.21885 63.1664 6.48988C63.4159 6.72423 63.5283 7.06995 63.4641 7.40623C63.3899 7.79514 62.7852 8.23452 61.5757 9.11328L61.2099 9.37902C60.8719 9.62459 60.7029 9.74738 60.6007 9.90844C60.5104 10.0507 60.4576 10.2134 60.447 10.3815C60.435 10.5719 60.4996 10.7705 60.6287 11.1679L60.7684 11.5979C61.2304 13.0197 61.4614 13.7307 61.2928 14.0889C61.147 14.3987 60.8529 14.6123 60.5133 14.6552C60.1205 14.7049 59.5157 14.2655 58.3062 13.3867L57.9405 13.121C57.6025 12.8754 57.4335 12.7526 57.2487 12.7052C57.0855 12.6633 56.9145 12.6633 56.7513 12.7052C56.5665 12.7526 56.3975 12.8754 56.0595 13.121L55.6938 13.3867C54.4843 14.2655 53.8795 14.7049 53.4867 14.6552C53.1471 14.6123 52.853 14.3987 52.7072 14.0889C52.5386 13.7307 52.7696 13.0197 53.2316 11.5979L53.3713 11.1679C53.5004 10.7705 53.565 10.5719 53.553 10.3815C53.5424 10.2134 53.4896 10.0507 53.3993 9.90844C53.2971 9.74738 53.1281 9.62459 52.7901 9.37902L52.4243 9.11328C51.2148 8.23452 50.6101 7.79514 50.5359 7.40623C50.4717 7.06995 50.5841 6.72423 50.8336 6.48988C51.1222 6.21885 51.8698 6.21885 53.3648 6.21885H53.8169C54.2347 6.21885 54.4436 6.21885 54.621 6.14862C54.7776 6.08662 54.916 5.98606 55.0233 5.85627C55.1449 5.70929 55.2095 5.51062 55.3386 5.11327L55.4783 4.68328Z" fill="#FDE45F"/>
</svg>
