<svg width="30" height="30" viewBox="0 0 30 30" fill="none" xmlns="http://www.w3.org/2000/svg">
<path fill-rule="evenodd" clip-rule="evenodd" d="M11.3492 11.674C12.8165 10.2067 14.2688 7.99417 15.3448 6.17749C16.558 8.51352 17.728 10.3149 19.2244 11.8254C20.7101 13.325 22.436 14.456 24.6417 15.5813C23.7994 16.0786 22.8758 16.6583 21.9793 17.291C22.3635 17.9228 22.7492 18.4371 23.1881 18.8856C24.555 17.9265 26.0221 17.0728 27.1517 16.4569C27.9031 16.0472 27.8743 14.9167 27.0992 14.554C21.2345 11.8093 19.3366 9.88183 16.3491 3.71504C15.9826 2.95853 14.8839 2.9304 14.4772 3.6661C13.4128 5.59169 11.6344 8.56039 9.935 10.2598C8.27821 11.9166 5.54062 13.5228 3.70869 14.5C2.96305 14.8977 2.95645 16.024 3.69894 16.4276C5.57829 17.4491 8.42231 19.1367 10.0973 20.8117C11.7767 22.491 13.4686 25.3453 14.4893 27.2245C14.8913 27.9647 16.0113 27.9605 16.4102 27.2185C16.8343 26.4296 17.3762 25.4701 17.9873 24.4995C17.9175 24.4222 17.8475 24.3483 17.7776 24.2784C17.412 23.9128 16.9384 23.546 16.4403 23.2046C16.0809 23.7662 15.7465 24.3217 15.4448 24.8432C14.4068 23.0609 12.988 20.8739 11.5116 19.3975C10.0388 17.9247 7.85926 16.5094 6.07989 15.4724C7.80467 14.4788 9.89869 13.1245 11.3492 11.674Z" fill="#26265C"/>
<path d="M21.0149 16.5962C21.5978 17.7043 22.1496 18.5402 22.8345 19.2392C23.521 19.9398 24.3197 20.4808 25.3686 21.0275C25.7802 21.2421 25.8002 21.8878 25.4005 22.1276C24.5442 22.6417 23.5512 23.3111 22.8638 24.0121C22.2113 24.6774 21.5857 25.6245 21.1027 26.4424C20.8668 26.8419 20.2057 26.8418 19.9706 26.4457C19.4655 25.5949 18.8067 24.6005 18.1311 23.9249C17.459 23.2528 16.4717 22.5975 15.6243 22.0937C15.4375 21.9826 15.3262 21.7693 15.3273 21.5235C15.3284 21.2776 15.442 21.0632 15.6306 20.9521C16.4468 20.4712 17.3892 19.8468 18.0473 19.1887C18.7383 18.4978 19.4311 17.4536 19.9603 16.57C20.1931 16.1812 20.8064 16.1998 21.0149 16.5962Z" fill="#26265C" stroke="#FEFEFE"/>
</svg>
