<svg width="29" height="25" viewBox="0 0 29 25" fill="none" xmlns="http://www.w3.org/2000/svg">
<circle cx="6.525" cy="6.525" r="5.525" stroke="#AFABAB" stroke-width="2"/>
<circle cx="22.4747" cy="6.525" r="5.525" stroke="#AFABAB" stroke-width="2"/>
<mask id="path-3-inside-1_28_110" fill="white">
<path fill-rule="evenodd" clip-rule="evenodd" d="M10.8 5.79993C8.03862 5.79993 5.80004 8.03851 5.80004 10.7999V10.9499C5.80004 11.7308 5.97903 12.4698 6.29821 13.1282C5.07315 14.3262 4.3501 15.8028 4.3501 17.4C4.3501 21.404 8.89441 24.65 14.5001 24.65C20.1058 24.65 24.6501 21.404 24.6501 17.4C24.6501 15.8028 23.927 14.3262 22.7019 13.1281C23.0211 12.4697 23.2 11.7307 23.2 10.9499V10.7999C23.2 8.0385 20.9615 5.79993 18.2 5.79993H10.8Z"/>
</mask>
<path fill-rule="evenodd" clip-rule="evenodd" d="M10.8 5.79993C8.03862 5.79993 5.80004 8.03851 5.80004 10.7999V10.9499C5.80004 11.7308 5.97903 12.4698 6.29821 13.1282C5.07315 14.3262 4.3501 15.8028 4.3501 17.4C4.3501 21.404 8.89441 24.65 14.5001 24.65C20.1058 24.65 24.6501 21.404 24.6501 17.4C24.6501 15.8028 23.927 14.3262 22.7019 13.1281C23.0211 12.4697 23.2 11.7307 23.2 10.9499V10.7999C23.2 8.0385 20.9615 5.79993 18.2 5.79993H10.8Z" fill="white"/>
<path d="M6.29821 13.1282L7.69656 14.5581L8.72597 13.5514L8.0979 12.2558L6.29821 13.1282ZM22.7019 13.1281L20.9022 12.2558L20.2742 13.5514L21.3036 14.5581L22.7019 13.1281ZM7.80004 10.7999C7.80004 9.14307 9.14319 7.79993 10.8 7.79993V3.79993C6.93404 3.79993 3.80004 6.93394 3.80004 10.7999H7.80004ZM7.80004 10.9499V10.7999H3.80004V10.9499H7.80004ZM8.0979 12.2558C7.90768 11.8634 7.80004 11.4221 7.80004 10.9499H3.80004C3.80004 12.0395 4.05037 13.0762 4.49852 14.0006L8.0979 12.2558ZM6.3501 17.4C6.3501 16.4426 6.77701 15.4574 7.69656 14.5581L4.89986 11.6983C3.3693 13.1951 2.3501 15.163 2.3501 17.4H6.3501ZM14.5001 22.65C12.066 22.65 9.94591 21.9422 8.48544 20.899C7.02113 19.8531 6.3501 18.5885 6.3501 17.4H2.3501C2.3501 20.2155 3.95122 22.5759 6.16049 24.154C8.3736 25.7348 11.3285 26.65 14.5001 26.65V22.65ZM22.6501 17.4C22.6501 18.5885 21.9791 19.8531 20.5148 20.899C19.0543 21.9422 16.9342 22.65 14.5001 22.65V26.65C17.6717 26.65 20.6266 25.7348 22.8397 24.154C25.049 22.5759 26.6501 20.2155 26.6501 17.4H22.6501ZM21.3036 14.5581C22.2232 15.4573 22.6501 16.4425 22.6501 17.4H26.6501C26.6501 15.163 25.6309 13.195 24.1002 11.6982L21.3036 14.5581ZM21.2 10.9499C21.2 11.422 21.0924 11.8634 20.9022 12.2558L24.5016 14.0005C24.9497 13.0761 25.2 12.0394 25.2 10.9499H21.2ZM21.2 10.7999V10.9499H25.2V10.7999H21.2ZM18.2 7.79993C19.8569 7.79993 21.2 9.14307 21.2 10.7999H25.2C25.2 6.93393 22.066 3.79993 18.2 3.79993V7.79993ZM10.8 7.79993H18.2V3.79993H10.8V7.79993Z" fill="#AFABAB" mask="url(#path-3-inside-1_28_110)"/>
<ellipse cx="14.5002" cy="15.7083" rx="2.41667" ry="1.20833" fill="#AFABAB"/>
</svg>
