<svg width="88" height="34" viewBox="0 0 88 34" fill="none" xmlns="http://www.w3.org/2000/svg">
<g filter="url(#filter0_d_1307_262)">
<g filter="url(#filter1_b_1307_262)">
<rect x="4" y="4" width="80" height="26" rx="13" fill="white" fill-opacity="0.46"/>
<path d="M26.3545 14.1836V13.5391H25.0264V14.1836C25.0166 15.4727 23.8594 16.8691 21.8818 17.2207L22.4189 18.2559C23.957 17.9434 25.1094 17.0645 25.6953 15.9365C26.2715 17.0742 27.4189 17.9482 28.9717 18.2559L29.5186 17.2207C27.5068 16.8789 26.3496 15.4873 26.3545 14.1836ZM21.6768 20.8047H29.8115V19.7793H21.6768V20.8047ZM38.9041 19.8672H35.4275V18.2656H38.1814V17.2891H36.9705V14.75H38.2205V13.7539H31.4041V14.75H32.6346V17.2891H31.4432V18.2656H34.1873V19.8672H30.7693V20.9121H38.9041V19.8672ZM33.8846 17.2891V14.75H35.74V17.2891H33.8846ZM47.9967 19.8574H39.8619V20.8633H47.9967V19.8574ZM40.1451 17.6895L40.6139 18.6855C42.1861 18.4463 43.3238 17.7285 43.9146 16.7617C44.5055 17.7285 45.6432 18.4463 47.2252 18.6855L47.7037 17.6895C45.6871 17.416 44.6666 16.332 44.5689 15.2578H47.2838V14.252H44.5396V13.1484H43.2994V14.252H40.565V15.2578H43.2799C43.1725 16.332 42.1568 17.416 40.1451 17.6895ZM52.3139 13.5977H51.0639L48.7885 22.0645H50.0287L52.3139 13.5977ZM56.5139 13.9004H53.3596V14.8867H55.3127V16.2832H53.3693V19.8184H53.9943C55.1125 19.8086 56.1086 19.7891 57.2756 19.5742L57.1682 18.5586C56.2453 18.7295 55.4299 18.7734 54.5607 18.7832V17.2695H56.5139V13.9004ZM56.885 17.0547H57.7932V21.4688H58.9553V13.1777H57.7932V16.0488H56.885V17.0547ZM59.6193 21.8984H60.801V13.0117H59.6193V21.8984ZM69.7178 13.0117H68.4678V16.1074H66.876V17.123H68.4678V21.918H69.7178V13.0117ZM62.0713 19.2617L62.8135 20.248C63.8486 19.7354 64.5566 18.7295 64.9424 17.5186C65.3232 18.6514 66.0166 19.584 67.0518 20.0625L67.7842 19.0762C66.2852 18.4316 65.5625 16.8008 65.5674 15.2383V14.8672H67.4131V13.8711H62.4424V14.8672H64.2881V15.2383C64.2881 16.8838 63.5605 18.5781 62.0713 19.2617Z" fill="#FEFEFE"/>
</g>
<path fill-rule="evenodd" clip-rule="evenodd" d="M14.0498 21.1992C15.0346 21.1488 15.9217 20.7289 16.5753 20.0753C15.8736 19.3735 15.4991 18.4685 15.4516 17.5498H14.0498V21.1992ZM14.0498 17.1498H15.4516C15.4991 16.231 15.8737 15.3259 16.5755 14.6241C15.9219 13.9704 15.0347 13.5504 14.0498 13.5V17.1498ZM13.6498 13.5L13.6498 17.1498H12.2614C12.2139 16.231 11.8393 15.3259 11.1375 14.6241L11.1306 14.6172C11.7836 13.9674 12.6682 13.5501 13.6498 13.5ZM13.6498 17.5498L13.6498 21.1992C12.6683 21.1491 11.7838 20.7319 11.1308 20.0822L11.1375 20.0755C11.8393 19.3737 12.2139 18.4686 12.2614 17.5498H13.6498ZM16.8436 19.7778C16.2293 19.1562 15.8989 18.3597 15.8522 17.5498H17.6992C17.6561 18.3923 17.3425 19.1633 16.8436 19.7778ZM15.8522 17.1498H17.6992C17.6562 16.3073 17.3427 15.5362 16.8437 14.9216C16.2294 15.5432 15.8989 16.3399 15.8522 17.1498ZM10 17.1498H11.8608C11.8139 16.3365 11.4809 15.5367 10.8617 14.914C10.3592 15.5298 10.0432 16.3038 10 17.1498ZM11.8608 17.5498H10C10.0433 18.3958 10.3593 19.1697 10.8619 19.7854C11.4809 19.1628 11.8139 18.363 11.8608 17.5498Z" fill="#5ACEFF"/>
</g>
<defs>
<filter id="filter0_d_1307_262" x="0" y="0" width="88" height="34" filterUnits="userSpaceOnUse" color-interpolation-filters="sRGB">
<feFlood flood-opacity="0" result="BackgroundImageFix"/>
<feColorMatrix in="SourceAlpha" type="matrix" values="0 0 0 0 0 0 0 0 0 0 0 0 0 0 0 0 0 0 127 0" result="hardAlpha"/>
<feOffset/>
<feGaussianBlur stdDeviation="2"/>
<feComposite in2="hardAlpha" operator="out"/>
<feColorMatrix type="matrix" values="0 0 0 0 0 0 0 0 0 0 0 0 0 0 0 0 0 0 0.25 0"/>
<feBlend mode="normal" in2="BackgroundImageFix" result="effect1_dropShadow_1307_262"/>
<feBlend mode="normal" in="SourceGraphic" in2="effect1_dropShadow_1307_262" result="shape"/>
</filter>
<filter id="filter1_b_1307_262" x="0" y="0" width="88" height="34" filterUnits="userSpaceOnUse" color-interpolation-filters="sRGB">
<feFlood flood-opacity="0" result="BackgroundImageFix"/>
<feGaussianBlur in="BackgroundImageFix" stdDeviation="2"/>
<feComposite in2="SourceAlpha" operator="in" result="effect1_backgroundBlur_1307_262"/>
<feBlend mode="normal" in="SourceGraphic" in2="effect1_backgroundBlur_1307_262" result="shape"/>
</filter>
</defs>
</svg>
