<svg width="295" height="89" viewBox="0 0 295 89" fill="none" xmlns="http://www.w3.org/2000/svg">
<path d="M8.3833 5.63774C8.32648 5.06482 8.08264 4.61975 7.65177 4.30251C7.2209 3.98528 6.63614 3.82666 5.89751 3.82666C5.39561 3.82666 4.97184 3.89768 4.6262 4.03973C4.28055 4.17704 4.0154 4.3688 3.83074 4.61501C3.65082 4.86123 3.56086 5.14058 3.56086 5.45308C3.55139 5.7135 3.60584 5.94077 3.72421 6.1349C3.84732 6.32903 4.0154 6.49712 4.22847 6.63916C4.44154 6.77647 4.68775 6.89721 4.96711 7.00138C5.24646 7.10081 5.54476 7.18604 5.86199 7.25706L7.16881 7.56956C7.80328 7.7116 8.38567 7.901 8.91597 8.13774C9.44627 8.37448 9.90556 8.66568 10.2938 9.01132C10.6821 9.35696 10.9827 9.76416 11.1958 10.2329C11.4136 10.7017 11.5249 11.2391 11.5296 11.8451C11.5249 12.7353 11.2976 13.5071 10.8478 14.1605C10.4027 14.8091 9.75877 15.3134 8.91597 15.6733C8.0779 16.0284 7.06701 16.2059 5.8833 16.2059C4.70906 16.2059 3.68633 16.026 2.81512 15.6661C1.94864 15.3063 1.27156 14.7736 0.783869 14.0681C0.300914 13.3579 0.0476001 12.4796 0.0239258 11.4332H2.99978C3.03292 11.9209 3.1726 12.3281 3.41881 12.6548C3.66976 12.9768 4.00357 13.2206 4.42023 13.3863C4.84163 13.5473 5.31749 13.6278 5.84779 13.6278C6.36862 13.6278 6.8208 13.552 7.20432 13.4005C7.59258 13.249 7.89324 13.0383 8.10631 12.7684C8.31938 12.4985 8.42591 12.1884 8.42591 11.838C8.42591 11.5113 8.32885 11.2367 8.13472 11.0142C7.94533 10.7916 7.66597 10.6022 7.29665 10.446C6.93207 10.2897 6.48463 10.1477 5.95432 10.0198L4.37052 9.62212C3.14419 9.32382 2.17591 8.85744 1.46569 8.22297C0.75546 7.5885 0.402714 6.73386 0.407449 5.65905C0.402714 4.77836 0.637089 4.00895 1.11057 3.35081C1.58879 2.69266 2.24457 2.17893 3.0779 1.80962C3.91124 1.4403 4.85821 1.25564 5.91881 1.25564C6.99836 1.25564 7.94059 1.4403 8.74552 1.80962C9.55518 2.17893 10.1849 2.69266 10.6347 3.35081C11.0845 4.00895 11.3165 4.77126 11.3307 5.63774H8.3833Z" fill="#FEFEFE"/>
<path d="M16.5669 9.69314V16H13.5413V1.4545H16.4817V7.01558H16.6095C16.8557 6.37164 17.2534 5.86738 17.8027 5.5028C18.3519 5.13348 19.0409 4.94882 19.8695 4.94882C20.627 4.94882 21.2875 5.11454 21.851 5.44598C22.4192 5.77268 22.8595 6.2438 23.172 6.85933C23.4892 7.47013 23.6455 8.20166 23.6408 9.05393V16H20.6152V9.59371C20.6199 8.92136 20.4495 8.39816 20.1038 8.0241C19.7629 7.65005 19.2847 7.46302 18.6692 7.46302C18.2572 7.46302 17.8927 7.55062 17.5754 7.72581C17.2629 7.901 17.0167 8.15668 16.8368 8.49285C16.6616 8.82429 16.5716 9.22439 16.5669 9.69314Z" fill="#FEFEFE"/>
<path d="M26.0218 16V5.09087H29.0474V16H26.0218ZM27.5417 3.68462C27.0919 3.68462 26.706 3.53547 26.384 3.23717C26.0668 2.93414 25.9082 2.57193 25.9082 2.15052C25.9082 1.73386 26.0668 1.37638 26.384 1.07808C26.706 0.775051 27.0919 0.623535 27.5417 0.623535C27.9915 0.623535 28.375 0.775051 28.6922 1.07808C29.0142 1.37638 29.1752 1.73386 29.1752 2.15052C29.1752 2.57193 29.0142 2.93414 28.6922 3.23717C28.375 3.53547 27.9915 3.68462 27.5417 3.68462Z" fill="#FEFEFE"/>
<path d="M34.4966 9.69314V16H31.471V5.09087H34.3545V7.01558H34.4824C34.7239 6.38111 35.1287 5.87922 35.6969 5.5099C36.265 5.13585 36.954 4.94882 37.7636 4.94882C38.5212 4.94882 39.1817 5.11454 39.7452 5.44598C40.3086 5.77742 40.7466 6.2509 41.0591 6.86643C41.3716 7.47723 41.5278 8.2064 41.5278 9.05393V16H38.5023V9.59371C38.507 8.92609 38.3365 8.40526 37.9909 8.03121C37.6453 7.65242 37.1694 7.46302 36.5633 7.46302C36.1561 7.46302 35.7963 7.55062 35.4838 7.72581C35.176 7.901 34.9346 8.15668 34.7594 8.49285C34.5889 8.82429 34.5013 9.22439 34.4966 9.69314Z" fill="#FEFEFE"/>
<path d="M48.884 16.213C47.7619 16.213 46.7959 15.9858 45.9863 15.5312C45.1814 15.0719 44.5611 14.4233 44.1255 13.5852C43.6899 12.7424 43.4721 11.7457 43.4721 10.5951C43.4721 9.47297 43.6899 8.48812 44.1255 7.64058C44.5611 6.79304 45.1743 6.13253 45.965 5.65905C46.7604 5.18556 47.6932 4.94882 48.7633 4.94882C49.483 4.94882 50.153 5.06482 50.7732 5.29683C51.3982 5.5241 51.9427 5.86738 52.4067 6.32666C52.8755 6.78594 53.2401 7.36359 53.5005 8.05962C53.7609 8.7509 53.8911 9.56056 53.8911 10.4886V11.3196H44.6795V9.44456H51.0431C51.0431 9.00895 50.9484 8.62306 50.759 8.28689C50.5696 7.95071 50.3068 7.68793 49.9707 7.49854C49.6392 7.30441 49.2533 7.20734 48.813 7.20734C48.3537 7.20734 47.9465 7.31388 47.5914 7.52694C47.241 7.73528 46.9664 8.017 46.7675 8.37212C46.5687 8.72249 46.4669 9.11312 46.4621 9.54399V11.3267C46.4621 11.8664 46.5616 12.3328 46.7604 12.7258C46.964 13.1188 47.2505 13.4218 47.6198 13.6349C47.9891 13.848 48.4271 13.9545 48.9337 13.9545C49.2699 13.9545 49.5777 13.9072 49.857 13.8125C50.1364 13.7178 50.3755 13.5757 50.5744 13.3863C50.7732 13.1969 50.9247 12.9649 51.0289 12.6903L53.8272 12.875C53.6851 13.5473 53.394 14.1344 52.9536 14.6363C52.518 15.1335 51.9546 15.5217 51.2633 15.8011C50.5767 16.0757 49.7836 16.213 48.884 16.213Z" fill="#FEFEFE"/>
<path d="M66.297 5.09087V7.36359H59.7274V5.09087H66.297ZM61.2189 2.47723H64.2445V12.6477C64.2445 12.927 64.2871 13.1448 64.3723 13.3011C64.4575 13.4526 64.5759 13.5591 64.7274 13.6207C64.8837 13.6822 65.0636 13.713 65.2672 13.713C65.4092 13.713 65.5513 13.7012 65.6933 13.6775C65.8354 13.6491 65.9443 13.6278 66.02 13.6136L66.4959 15.865C66.3444 15.9124 66.1313 15.9668 65.8567 16.0284C65.582 16.0947 65.2482 16.1349 64.8552 16.1491C64.1261 16.1775 63.4869 16.0804 62.9376 15.8579C62.3931 15.6354 61.9694 15.2897 61.6663 14.821C61.3633 14.3522 61.2141 13.7604 61.2189 13.0454V2.47723Z" fill="#FEFEFE"/>
<path d="M71.5278 9.69314V16H68.5023V1.4545H71.4426V7.01558H71.5704C71.8167 6.37164 72.2144 5.86738 72.7636 5.5028C73.3129 5.13348 74.0018 4.94882 74.8304 4.94882C75.588 4.94882 76.2485 5.11454 76.8119 5.44598C77.3801 5.77268 77.8204 6.2438 78.1329 6.85933C78.4502 7.47013 78.6064 8.20166 78.6017 9.05393V16H75.5761V9.59371C75.5809 8.92136 75.4104 8.39816 75.0648 8.0241C74.7239 7.65005 74.2456 7.46302 73.6301 7.46302C73.2182 7.46302 72.8536 7.55062 72.5364 7.72581C72.2239 7.901 71.9776 8.15668 71.7977 8.49285C71.6225 8.82429 71.5326 9.22439 71.5278 9.69314Z" fill="#FEFEFE"/>
<path d="M85.9543 16.213C84.8322 16.213 83.8663 15.9858 83.0566 15.5312C82.2517 15.0719 81.6314 14.4233 81.1958 13.5852C80.7602 12.7424 80.5424 11.7457 80.5424 10.5951C80.5424 9.47297 80.7602 8.48812 81.1958 7.64058C81.6314 6.79304 82.2446 6.13253 83.0353 5.65905C83.8307 5.18556 84.7635 4.94882 85.8336 4.94882C86.5533 4.94882 87.2233 5.06482 87.8435 5.29683C88.4685 5.5241 89.013 5.86738 89.4771 6.32666C89.9458 6.78594 90.3104 7.36359 90.5708 8.05962C90.8312 8.7509 90.9614 9.56056 90.9614 10.4886V11.3196H81.7498V9.44456H88.1134C88.1134 9.00895 88.0187 8.62306 87.8293 8.28689C87.6399 7.95071 87.3771 7.68793 87.041 7.49854C86.7095 7.30441 86.3236 7.20734 85.8833 7.20734C85.424 7.20734 85.0168 7.31388 84.6617 7.52694C84.3113 7.73528 84.0367 8.017 83.8378 8.37212C83.639 8.72249 83.5372 9.11312 83.5324 9.54399V11.3267C83.5324 11.8664 83.6319 12.3328 83.8307 12.7258C84.0343 13.1188 84.3208 13.4218 84.6901 13.6349C85.0594 13.848 85.4974 13.9545 86.004 13.9545C86.3402 13.9545 86.648 13.9072 86.9273 13.8125C87.2067 13.7178 87.4458 13.5757 87.6447 13.3863C87.8435 13.1969 87.995 12.9649 88.0992 12.6903L90.8975 12.875C90.7555 13.5473 90.4643 14.1344 90.0239 14.6363C89.5883 15.1335 89.0249 15.5217 88.3336 15.8011C87.647 16.0757 86.8539 16.213 85.9543 16.213Z" fill="#FEFEFE"/>
<path d="M97.5648 16V5.09087H100.448V7.01558H100.576C100.803 6.37638 101.182 5.87211 101.712 5.5028C102.243 5.13348 102.877 4.94882 103.616 4.94882C104.364 4.94882 105.001 5.13585 105.526 5.5099C106.052 5.87922 106.402 6.38111 106.578 7.01558H106.691C106.914 6.39058 107.316 5.89105 107.899 5.517C108.486 5.13821 109.179 4.94882 109.98 4.94882C110.998 4.94882 111.824 5.27316 112.458 5.92183C113.097 6.56577 113.417 7.4796 113.417 8.66331V16H110.399V9.2599C110.399 8.65384 110.238 8.19929 109.916 7.89626C109.594 7.59323 109.191 7.44172 108.708 7.44172C108.159 7.44172 107.73 7.61691 107.423 7.96729C107.115 8.31293 106.961 8.76984 106.961 9.33802V16H104.028V9.19598C104.028 8.66094 103.874 8.2348 103.566 7.91757C103.263 7.60034 102.863 7.44172 102.366 7.44172C102.03 7.44172 101.727 7.52695 101.457 7.6974C101.192 7.86312 100.981 8.09749 100.825 8.40052C100.668 8.69882 100.59 9.0492 100.59 9.45166V16H97.5648Z" fill="#FEFEFE"/>
<path d="M118.918 16.2059C118.222 16.2059 117.601 16.0852 117.057 15.8437C116.512 15.5975 116.082 15.2353 115.764 14.7571C115.452 14.2741 115.296 13.6728 115.296 12.9531C115.296 12.347 115.407 11.838 115.629 11.4261C115.852 11.0142 116.155 10.6827 116.538 10.4318C116.922 10.1808 117.358 9.99143 117.845 9.86359C118.338 9.73575 118.854 9.64579 119.394 9.59371C120.028 9.52742 120.539 9.46587 120.928 9.40905C121.316 9.34749 121.598 9.25753 121.773 9.13916C121.948 9.02079 122.036 8.8456 122.036 8.61359V8.57098C122.036 8.12117 121.894 7.77316 121.61 7.52694C121.33 7.28073 120.932 7.15763 120.416 7.15763C119.872 7.15763 119.439 7.27837 119.117 7.51984C118.795 7.75659 118.582 8.05488 118.477 8.41473L115.679 8.18746C115.821 7.52458 116.101 6.95166 116.517 6.46871C116.934 5.98102 117.471 5.60696 118.129 5.34655C118.792 5.0814 119.559 4.94882 120.431 4.94882C121.037 4.94882 121.617 5.01984 122.171 5.16189C122.729 5.30393 123.224 5.5241 123.655 5.8224C124.091 6.12069 124.434 6.50422 124.685 6.97297C124.936 7.43698 125.061 7.99333 125.061 8.642V16H122.192V14.4872H122.107C121.931 14.8281 121.697 15.1287 121.404 15.3892C121.11 15.6448 120.757 15.8461 120.345 15.9929C119.933 16.1349 119.458 16.2059 118.918 16.2059ZM119.784 14.1179C120.229 14.1179 120.622 14.0303 120.963 13.8551C121.304 13.6751 121.572 13.4337 121.766 13.1306C121.96 12.8276 122.057 12.4843 122.057 12.1008V10.9431C121.962 11.0047 121.832 11.0615 121.666 11.1136C121.505 11.1609 121.323 11.2059 121.119 11.2485C120.916 11.2864 120.712 11.3219 120.509 11.3551C120.305 11.3835 120.12 11.4095 119.955 11.4332C119.6 11.4853 119.289 11.5681 119.024 11.6818C118.759 11.7954 118.553 11.9493 118.406 12.1434C118.26 12.3328 118.186 12.5696 118.186 12.8536C118.186 13.2656 118.335 13.5804 118.634 13.7983C118.937 14.0113 119.32 14.1179 119.784 14.1179Z" fill="#FEFEFE"/>
<path d="M127.409 20.0909V5.09087H130.391V6.92325H130.526C130.659 6.62969 130.851 6.3314 131.102 6.02837C131.357 5.7206 131.689 5.46492 132.096 5.26132C132.508 5.05299 133.019 4.94882 133.63 4.94882C134.426 4.94882 135.159 5.15715 135.832 5.57382C136.504 5.98575 137.042 6.60838 137.444 7.44172C137.846 8.27032 138.048 9.30962 138.048 10.5596C138.048 11.7765 137.851 12.8039 137.458 13.642C137.07 14.4753 136.54 15.1074 135.867 15.5383C135.2 15.9644 134.452 16.1775 133.623 16.1775C133.036 16.1775 132.536 16.0804 132.124 15.8863C131.717 15.6922 131.383 15.4483 131.123 15.1548C130.863 14.8565 130.664 14.5558 130.526 14.2528H130.434V20.0909H127.409ZM130.37 10.5454C130.37 11.1941 130.46 11.7599 130.64 12.2429C130.82 12.7258 131.08 13.1022 131.421 13.3721C131.762 13.6373 132.177 13.7698 132.664 13.7698C133.157 13.7698 133.573 13.6349 133.914 13.365C134.255 13.0904 134.513 12.7116 134.688 12.2286C134.868 11.741 134.958 11.1799 134.958 10.5454C134.958 9.91568 134.871 9.3617 134.695 8.88348C134.52 8.40526 134.262 8.03121 133.921 7.76132C133.58 7.49143 133.161 7.35649 132.664 7.35649C132.172 7.35649 131.755 7.4867 131.414 7.74712C131.078 8.00753 130.82 8.37685 130.64 8.85507C130.46 9.33329 130.37 9.89674 130.37 10.5454Z" fill="#FEFEFE"/>
<path d="M146.846 16L143.877 5.09087H146.938L148.628 12.4204H148.728L150.489 5.09087H153.493L155.283 12.3778H155.375L157.037 5.09087H160.091L157.13 16H153.927L152.052 9.13916H151.917L150.042 16H146.846Z" fill="#FEFEFE"/>
<path d="M161.705 16V5.09087H164.731V16H161.705ZM163.225 3.68462C162.775 3.68462 162.39 3.53547 162.068 3.23717C161.75 2.93414 161.592 2.57193 161.592 2.15052C161.592 1.73386 161.75 1.37638 162.068 1.07808C162.39 0.775051 162.775 0.623535 163.225 0.623535C163.675 0.623535 164.059 0.775051 164.376 1.07808C164.698 1.37638 164.859 1.73386 164.859 2.15052C164.859 2.57193 164.698 2.93414 164.376 3.23717C164.059 3.53547 163.675 3.68462 163.225 3.68462Z" fill="#FEFEFE"/>
<path d="M172.957 5.09087V7.36359H166.388V5.09087H172.957ZM167.879 2.47723H170.905V12.6477C170.905 12.927 170.947 13.1448 171.032 13.3011C171.118 13.4526 171.236 13.5591 171.388 13.6207C171.544 13.6822 171.724 13.713 171.927 13.713C172.069 13.713 172.211 13.7012 172.353 13.6775C172.496 13.6491 172.604 13.6278 172.68 13.6136L173.156 15.865C173.005 15.9124 172.791 15.9668 172.517 16.0284C172.242 16.0947 171.908 16.1349 171.515 16.1491C170.786 16.1775 170.147 16.0804 169.598 15.8579C169.053 15.6354 168.63 15.2897 168.326 14.821C168.023 14.3522 167.874 13.7604 167.879 13.0454V2.47723Z" fill="#FEFEFE"/>
<path d="M178.188 9.69314V16H175.162V1.4545H178.103V7.01558H178.231C178.477 6.37164 178.875 5.86738 179.424 5.5028C179.973 5.13348 180.662 4.94882 181.491 4.94882C182.248 4.94882 182.909 5.11454 183.472 5.44598C184.04 5.77268 184.481 6.2438 184.793 6.85933C185.11 7.47013 185.267 8.20166 185.262 9.05393V16H182.236V9.59371C182.241 8.92136 182.071 8.39816 181.725 8.0241C181.384 7.65005 180.906 7.46302 180.29 7.46302C179.878 7.46302 179.514 7.55062 179.197 7.72581C178.884 7.901 178.638 8.15668 178.458 8.49285C178.283 8.82429 178.193 9.22439 178.188 9.69314Z" fill="#FEFEFE"/>
<path d="M194.14 20.0909C193.756 20.0909 193.396 20.0601 193.06 19.9985C192.729 19.9417 192.454 19.8683 192.236 19.7784L192.918 17.5198C193.273 17.6287 193.593 17.6879 193.877 17.6974C194.166 17.7069 194.414 17.6406 194.623 17.4985C194.836 17.3565 195.009 17.115 195.141 16.7741L195.319 16.3125L191.405 5.09087H194.587L196.846 13.1022H196.959L199.239 5.09087H202.442L198.202 17.1789C197.999 17.7661 197.722 18.2774 197.371 18.713C197.026 19.1534 196.588 19.4919 196.057 19.7286C195.527 19.9701 194.888 20.0909 194.14 20.0909Z" fill="#FEFEFE"/>
<path d="M208.568 16.213C207.465 16.213 206.511 15.9786 205.706 15.5099C204.906 15.0364 204.288 14.3783 203.852 13.5355C203.416 12.6879 203.199 11.7054 203.199 10.588C203.199 9.46113 203.416 8.47628 203.852 7.63348C204.288 6.78594 204.906 6.1278 205.706 5.65905C206.511 5.18556 207.465 4.94882 208.568 4.94882C209.671 4.94882 210.623 5.18556 211.423 5.65905C212.228 6.1278 212.848 6.78594 213.284 7.63348C213.719 8.47628 213.937 9.46113 213.937 10.588C213.937 11.7054 213.719 12.6879 213.284 13.5355C212.848 14.3783 212.228 15.0364 211.423 15.5099C210.623 15.9786 209.671 16.213 208.568 16.213ZM208.582 13.8693C209.084 13.8693 209.503 13.7272 209.839 13.4431C210.175 13.1543 210.429 12.7613 210.599 12.2642C210.774 11.767 210.862 11.2012 210.862 10.5667C210.862 9.93225 210.774 9.36643 210.599 8.86927C210.429 8.37211 210.175 7.97912 209.839 7.6903C209.503 7.40147 209.084 7.25706 208.582 7.25706C208.076 7.25706 207.649 7.40147 207.304 7.6903C206.963 7.97912 206.705 8.37211 206.53 8.86927C206.359 9.36643 206.274 9.93225 206.274 10.5667C206.274 11.2012 206.359 11.767 206.53 12.2642C206.705 12.7613 206.963 13.1543 207.304 13.4431C207.649 13.7272 208.076 13.8693 208.582 13.8693Z" fill="#FEFEFE"/>
<path d="M222.9 11.3551V5.09087H225.926V16H223.021V14.0184H222.907C222.661 14.6576 222.252 15.1714 221.679 15.5596C221.111 15.9479 220.417 16.142 219.598 16.142C218.869 16.142 218.227 15.9763 217.673 15.6448C217.119 15.3134 216.686 14.8423 216.373 14.2315C216.066 13.6207 215.909 12.8892 215.905 12.0369V5.09087H218.93V11.4971C218.935 12.1411 219.108 12.6501 219.449 13.0241C219.79 13.3982 220.246 13.5852 220.819 13.5852C221.184 13.5852 221.525 13.5023 221.842 13.3366C222.159 13.1661 222.415 12.9152 222.609 12.5838C222.808 12.2523 222.905 11.8428 222.9 11.3551Z" fill="#FEFEFE"/>
<path d="M228.346 16V5.09087H231.279V6.99427H231.393C231.592 6.31719 231.926 5.80583 232.394 5.46018C232.863 5.1098 233.403 4.93462 234.014 4.93462C234.165 4.93462 234.328 4.94408 234.504 4.96302C234.679 4.98196 234.833 5.00801 234.965 5.04115V7.72581C234.823 7.68319 234.627 7.64532 234.376 7.61217C234.125 7.57903 233.895 7.56246 233.687 7.56246C233.242 7.56246 232.844 7.65952 232.494 7.85365C232.148 8.04304 231.873 8.30819 231.67 8.6491C231.471 8.99001 231.372 9.38301 231.372 9.82808V16H228.346Z" fill="#FEFEFE"/>
<path d="M246.961 5.09087V7.36359H240.391V5.09087H246.961ZM241.883 2.47723H244.909V12.6477C244.909 12.927 244.951 13.1448 245.036 13.3011C245.122 13.4526 245.24 13.5591 245.391 13.6207C245.548 13.6822 245.728 13.713 245.931 13.713C246.073 13.713 246.215 13.7012 246.357 13.6775C246.499 13.6491 246.608 13.6278 246.684 13.6136L247.16 15.865C247.008 15.9124 246.795 15.9668 246.521 16.0284C246.246 16.0947 245.912 16.1349 245.519 16.1491C244.79 16.1775 244.151 16.0804 243.602 15.8579C243.057 15.6354 242.633 15.2897 242.33 14.821C242.027 14.3522 241.878 13.7604 241.883 13.0454V2.47723Z" fill="#FEFEFE"/>
<path d="M248.932 16V5.09087H251.865V6.99427H251.979C252.178 6.31719 252.511 5.80583 252.98 5.46018C253.449 5.1098 253.989 4.93462 254.6 4.93462C254.751 4.93462 254.914 4.94408 255.09 4.96302C255.265 4.98196 255.419 5.00801 255.551 5.04115V7.72581C255.409 7.68319 255.213 7.64532 254.962 7.61217C254.711 7.57903 254.481 7.56246 254.273 7.56246C253.828 7.56246 253.43 7.65952 253.08 7.85365C252.734 8.04304 252.459 8.30819 252.256 8.6491C252.057 8.99001 251.958 9.38301 251.958 9.82808V16H248.932Z" fill="#FEFEFE"/>
<path d="M259.914 16.2059C259.218 16.2059 258.598 16.0852 258.053 15.8437C257.509 15.5975 257.078 15.2353 256.76 14.7571C256.448 14.2741 256.292 13.6728 256.292 12.9531C256.292 12.347 256.403 11.838 256.625 11.4261C256.848 11.0142 257.151 10.6827 257.535 10.4318C257.918 10.1808 258.354 9.99143 258.841 9.86359C259.334 9.73575 259.85 9.64579 260.39 9.59371C261.024 9.52742 261.536 9.46587 261.924 9.40905C262.312 9.34749 262.594 9.25753 262.769 9.13916C262.944 9.02079 263.032 8.8456 263.032 8.61359V8.57098C263.032 8.12117 262.89 7.77316 262.606 7.52694C262.326 7.28073 261.929 7.15763 261.412 7.15763C260.868 7.15763 260.435 7.27837 260.113 7.51984C259.791 7.75659 259.578 8.05488 259.474 8.41473L256.675 8.18746C256.817 7.52458 257.097 6.95166 257.513 6.46871C257.93 5.98102 258.467 5.60696 259.125 5.34655C259.788 5.0814 260.555 4.94882 261.427 4.94882C262.033 4.94882 262.613 5.01984 263.167 5.16189C263.725 5.30393 264.22 5.5241 264.651 5.8224C265.087 6.12069 265.43 6.50422 265.681 6.97297C265.932 7.43698 266.057 7.99333 266.057 8.642V16H263.188V14.4872H263.103C262.928 14.8281 262.693 15.1287 262.4 15.3892C262.106 15.6448 261.753 15.8461 261.341 15.9929C260.929 16.1349 260.454 16.2059 259.914 16.2059ZM260.78 14.1179C261.225 14.1179 261.618 14.0303 261.959 13.8551C262.3 13.6751 262.568 13.4337 262.762 13.1306C262.956 12.8276 263.053 12.4843 263.053 12.1008V10.9431C262.958 11.0047 262.828 11.0615 262.662 11.1136C262.501 11.1609 262.319 11.2059 262.116 11.2485C261.912 11.2864 261.708 11.3219 261.505 11.3551C261.301 11.3835 261.116 11.4095 260.951 11.4332C260.596 11.4853 260.286 11.5681 260.02 11.6818C259.755 11.7954 259.549 11.9493 259.402 12.1434C259.256 12.3328 259.182 12.5696 259.182 12.8536C259.182 13.2656 259.331 13.5804 259.63 13.7983C259.933 14.0113 260.316 14.1179 260.78 14.1179Z" fill="#FEFEFE"/>
<path d="M278.184 5.09087L274.371 16H270.961L267.147 5.09087H270.344L272.609 12.8963H272.723L274.981 5.09087H278.184Z" fill="#FEFEFE"/>
<path d="M284.353 16.213C283.231 16.213 282.265 15.9858 281.455 15.5312C280.65 15.0719 280.03 14.4233 279.594 13.5852C279.159 12.7424 278.941 11.7457 278.941 10.5951C278.941 9.47297 279.159 8.48812 279.594 7.64058C280.03 6.79304 280.643 6.13253 281.434 5.65905C282.229 5.18556 283.162 4.94882 284.232 4.94882C284.952 4.94882 285.622 5.06482 286.242 5.29683C286.867 5.5241 287.411 5.86738 287.875 6.32666C288.344 6.78594 288.709 7.36359 288.969 8.05962C289.23 8.7509 289.36 9.56056 289.36 10.4886V11.3196H280.148V9.44456H286.512C286.512 9.00895 286.417 8.62306 286.228 8.28689C286.038 7.95071 285.776 7.68793 285.439 7.49854C285.108 7.30441 284.722 7.20734 284.282 7.20734C283.822 7.20734 283.415 7.31388 283.06 7.52694C282.71 7.73528 282.435 8.017 282.236 8.37212C282.037 8.72249 281.936 9.11312 281.931 9.54399V11.3267C281.931 11.8664 282.03 12.3328 282.229 12.7258C282.433 13.1188 282.719 13.4218 283.089 13.6349C283.458 13.848 283.896 13.9545 284.402 13.9545C284.739 13.9545 285.046 13.9072 285.326 13.8125C285.605 13.7178 285.844 13.5757 286.043 13.3863C286.242 13.1969 286.393 12.9649 286.498 12.6903L289.296 12.875C289.154 13.5473 288.863 14.1344 288.422 14.6363C287.987 15.1335 287.423 15.5217 286.732 15.8011C286.045 16.0757 285.252 16.213 284.353 16.213Z" fill="#FEFEFE"/>
<path d="M294.36 1.4545V16H291.334V1.4545H294.36Z" fill="#FEFEFE"/>
<path d="M79.9311 77V42.0909H88.3686V70.1477H102.891V77H79.9311ZM115.279 77H106.211L117.989 42.0909H129.222L141.001 77H131.933L123.734 50.8864H123.461L115.279 77ZM114.069 63.2614H133.023V69.6705H114.069V63.2614ZM144.759 42.0909H155.208L164.072 63.7045H164.481L173.344 42.0909H183.793V77H175.577V55.5568H175.288L166.901 76.7784H161.651L153.265 55.4375H152.975V77H144.759V42.0909ZM189.056 77V42.0909H203.477C206.09 42.0909 208.346 42.6023 210.244 43.625C212.153 44.6364 213.624 46.0511 214.658 47.8693C215.692 49.6761 216.21 51.7784 216.21 54.1761C216.21 56.5852 215.681 58.6932 214.624 60.5C213.579 62.2955 212.085 63.6875 210.141 64.6761C208.198 65.6648 205.891 66.1591 203.221 66.1591H194.323V59.5114H201.653C202.925 59.5114 203.988 59.2898 204.84 58.8466C205.704 58.4034 206.357 57.7841 206.8 56.9886C207.244 56.1818 207.465 55.2443 207.465 54.1761C207.465 53.0966 207.244 52.1648 206.8 51.3807C206.357 50.5852 205.704 49.9716 204.84 49.5398C203.977 49.108 202.914 48.892 201.653 48.892H197.494V77H189.056ZM223.415 77.4943C222.188 77.4943 221.137 77.0625 220.262 76.1989C219.398 75.3352 218.972 74.2898 218.984 73.0625C218.972 71.858 219.398 70.8295 220.262 69.9773C221.137 69.1136 222.188 68.6818 223.415 68.6818C224.575 68.6818 225.597 69.1136 226.484 69.9773C227.381 70.8295 227.836 71.858 227.847 73.0625C227.836 73.8807 227.62 74.625 227.2 75.2955C226.79 75.9659 226.251 76.5 225.58 76.8977C224.921 77.2955 224.2 77.4943 223.415 77.4943Z" fill="#FFF48E"/>
<path d="M222.619 61.8435C223.033 61.1119 224.134 61.1391 224.506 61.8926C226.641 66.2103 228.134 67.7315 232.225 69.698C232.996 70.0688 233.027 71.202 232.281 71.6206C230.821 72.4395 228.866 73.6564 227.647 74.8998C226.487 76.0828 225.345 77.9496 224.573 79.3469C224.166 80.0841 223.041 80.0881 222.631 79.3524C221.827 77.9101 220.629 75.9629 219.44 74.7735C218.254 73.5879 216.316 72.3943 214.875 71.5903C214.137 71.1785 214.144 70.0467 214.885 69.6399C216.284 68.8715 218.144 67.7349 219.313 66.566C220.521 65.3586 221.779 63.3276 222.619 61.8435Z" fill="#FFF48E"/>
</svg>
