<svg width="290" height="92" viewBox="0 0 290 92" fill="none" xmlns="http://www.w3.org/2000/svg">
<path d="M12.8084 2.26V12.94H15.4884V2.26H12.8084ZM14.7084 6.64V8.8H17.9084V6.64H14.7084ZM9.40836 13.28C5.58836 13.28 3.12836 14.7 3.12836 17.04C3.12836 19.4 5.58836 20.8 9.40836 20.8C13.2084 20.8 15.6684 19.4 15.6684 17.04C15.6684 14.7 13.2084 13.28 9.40836 13.28ZM9.40836 15.4C11.7484 15.4 13.0484 15.92 13.0484 17.04C13.0484 18.14 11.7484 18.68 9.40836 18.68C7.04836 18.68 5.74836 18.14 5.74836 17.04C5.74836 15.92 7.04836 15.4 9.40836 15.4ZM1.50836 9.86V11.98H3.04836C7.22836 11.98 9.36836 11.9 11.6284 11.4L11.3684 9.28C9.14836 9.76 7.12836 9.86 3.04836 9.86H1.50836ZM1.50836 3.5V11.3H4.14836V5.62H9.78836V3.5H1.50836ZM31.9868 2.28V15.78H34.6668V2.28H31.9868ZM22.3268 18.34V20.46H35.1268V18.34H22.3268ZM22.3268 14.48V19.44H24.9868V14.48H22.3268ZM23.6068 3.28V5.08C23.6068 7.54 22.3068 10.12 19.2068 11.18L20.5468 13.3C24.1468 12.04 25.8068 8.7 25.8068 5.08V3.28H23.6068ZM24.1468 3.28V5.08C24.1468 8.66 25.7668 11.8 29.2668 12.98L30.6268 10.86C27.5868 9.88 26.3268 7.5 26.3268 5.08V3.28H24.1468ZM43.6252 3.48C40.7252 3.48 38.5052 5.38 38.5052 8.04C38.5052 10.72 40.7252 12.62 43.6252 12.62C46.5452 12.62 48.7252 10.72 48.7252 8.04C48.7252 5.38 46.5452 3.48 43.6252 3.48ZM43.6252 5.76C45.0452 5.76 46.1252 6.6 46.1252 8.04C46.1252 9.5 45.0452 10.34 43.6252 10.34C42.2052 10.34 41.1252 9.5 41.1252 8.04C41.1252 6.6 42.2052 5.76 43.6252 5.76ZM50.4652 2.24V20.82H53.1252V2.24H50.4652ZM38.0652 17.06C41.2652 17.06 45.6252 17.02 49.6452 16.22L49.4452 14.3C45.5452 14.88 41.0052 14.92 37.7452 14.92L38.0652 17.06ZM68.9726 6.04V8.18H74.0126V6.04H68.9726ZM68.9726 11.78V13.92H74.0126V11.78H68.9726ZM65.7726 3.54C62.9926 3.54 60.9926 6.1 60.9926 10.14C60.9926 14.22 62.9926 16.78 65.7726 16.78C68.5326 16.78 70.5526 14.22 70.5526 10.14C70.5526 6.1 68.5326 3.54 65.7726 3.54ZM65.7726 5.96C67.1326 5.96 68.0326 7.42 68.0326 10.14C68.0326 12.9 67.1326 14.38 65.7726 14.38C64.4326 14.38 63.5126 12.9 63.5126 10.14C63.5126 7.42 64.4326 5.96 65.7726 5.96ZM73.5926 2.24V20.82H76.2326V2.24H73.5926ZM92.351 2.26V13.86H94.871V2.26H92.351ZM90.091 6.82V8.98H93.051V6.82H90.091ZM88.511 2.62V13.26H90.991V2.62H88.511ZM79.011 4.16V6.2H87.991V4.16H79.011ZM83.531 6.8C81.211 6.8 79.531 8.12 79.531 10.04C79.531 11.96 81.211 13.26 83.531 13.26C85.851 13.26 87.531 11.96 87.531 10.04C87.531 8.12 85.851 6.8 83.531 6.8ZM83.531 8.7C84.491 8.7 85.151 9.18 85.151 10.04C85.151 10.9 84.491 11.38 83.531 11.38C82.551 11.38 81.891 10.9 81.891 10.04C81.891 9.18 82.551 8.7 83.531 8.7ZM82.191 2.44V5.56H84.811V2.44H82.191ZM88.611 14.06C84.631 14.06 82.231 15.26 82.231 17.42C82.231 19.56 84.631 20.78 88.611 20.78C92.571 20.78 94.971 19.56 94.971 17.42C94.971 15.26 92.571 14.06 88.611 14.06ZM88.611 16.04C91.071 16.04 92.311 16.46 92.311 17.42C92.311 18.36 91.071 18.8 88.611 18.8C86.131 18.8 84.891 18.36 84.891 17.42C84.891 16.46 86.131 16.04 88.611 16.04ZM105.869 3.18C101.969 3.18 98.9495 5.32 98.9495 8.54C98.9495 11.78 101.969 13.9 105.869 13.9C109.769 13.9 112.789 11.78 112.789 8.54C112.789 5.32 109.769 3.18 105.869 3.18ZM105.869 5.34C108.389 5.34 110.189 6.54 110.189 8.54C110.189 10.52 108.389 11.72 105.869 11.72C103.349 11.72 101.549 10.52 101.549 8.54C101.549 6.54 103.349 5.34 105.869 5.34ZM97.5095 16.38V18.56H114.269V16.38H97.5095ZM115.908 16.58V18.74H132.668V16.58H115.908ZM122.928 13.08V17.46H125.588V13.08H122.928ZM117.788 3.46V5.56H128.148V7.54H117.828V12.74H120.468V9.62H130.788V3.46H117.788ZM117.828 11.68V13.82H131.208V11.68H117.828ZM143.375 5.18V7.26C143.375 10.4 141.875 13.82 138.775 15.2L140.275 17.3C143.755 15.72 145.495 11.54 145.495 7.26V5.18H143.375ZM143.975 5.18V7.26C143.975 11.38 145.695 15.32 149.215 16.84L150.655 14.74C147.555 13.46 146.075 10.26 146.075 7.26V5.18H143.975ZM139.515 4.04V6.22H149.895V4.04H139.515ZM151.615 2.26V20.78H154.295V2.26H151.615ZM159.274 10.52V12.64H172.294V10.52H159.274ZM157.334 16.52V18.7H174.094V16.52H157.334ZM164.354 11.48V17.22H167.014V11.48H164.354ZM159.274 3.52V11.44H161.934V5.66H172.154V3.52H159.274ZM175.712 10.56V12.5H192.492V10.56H175.712ZM177.592 13.42V15.22H187.872V16.14H177.632V19.4H180.272V17.82H190.492V13.42H177.592ZM177.632 18.84V20.64H191.012V18.84H177.632ZM177.772 2.58V4.36H187.832V5.28H177.792V8.46H180.432V6.94H190.452V2.58H177.772ZM177.792 7.9V9.7H190.792V7.9H177.792ZM199.279 3.18V11.44H208.179V3.18H205.539V5.46H201.919V3.18H199.279ZM201.919 7.44H205.539V9.36H201.919V7.44ZM210.659 2.26V12.08H213.319V2.26H210.659ZM212.239 5.96V8.12H215.759V5.96H212.239ZM200.419 18.66V20.6H201.639C205.279 20.6 206.539 20.56 208.019 20.2L207.759 18.28C206.359 18.62 205.139 18.66 201.639 18.66H200.419ZM200.399 12.86V14.8H204.039V15.78H200.419V20.1H202.999V17.6H206.599V12.86H200.399ZM207.359 12.86V14.94H210.699V20.68H213.319V12.86H207.359ZM217.178 5V7.12H227.798V5H217.178ZM222.518 8.16C219.958 8.16 218.058 10 218.058 12.58C218.058 15.16 219.958 17 222.518 17C225.058 17 226.978 15.16 226.978 12.58C226.978 10 225.058 8.16 222.518 8.16ZM222.518 10.38C223.718 10.38 224.558 11.2 224.558 12.58C224.558 13.96 223.718 14.76 222.518 14.76C221.318 14.76 220.458 13.96 220.458 12.58C220.458 11.2 221.318 10.38 222.518 10.38ZM221.178 2.52V6.76H223.858V2.52H221.178ZM230.038 2.26V20.78H232.678V2.26H230.038ZM227.518 8.38V10.54H232.118V8.38H227.518ZM227.558 12.96V15.1H232.158V12.96H227.558ZM242.396 4.32V4.86C242.396 6.76 240.436 8.84 236.356 9.34L237.336 11.42C242.036 10.78 244.696 8.12 244.696 4.86V4.32H242.396ZM243.156 4.32V4.86C243.156 8.12 245.816 10.78 250.536 11.42L251.496 9.34C247.416 8.84 245.456 6.76 245.456 4.86V4.32H243.156ZM242.536 14V20.8H245.176V14H242.536ZM235.556 12.48V14.6H252.296V12.48H235.556ZM237.036 3.2V5.3H250.776V3.2H237.036ZM261.235 8.48V10.64H264.295V8.48H261.235ZM257.275 3.86V6.98C257.275 10.12 256.315 13.42 253.595 15.1L255.195 17.1C258.155 15.28 259.315 11.18 259.315 6.98V3.86H257.275ZM257.855 3.86V6.86C257.855 10.86 258.775 14.86 261.715 16.68L263.155 14.6C260.635 12.96 259.855 9.88 259.855 6.86V3.86H257.855ZM267.315 2.26V20.78H269.855V2.26H267.315ZM263.555 2.54V19.94H266.035V2.54H263.555ZM276.033 11.66V16.86H278.673V11.66H276.033ZM282.753 11.66V16.86H285.413V11.66H282.753ZM272.353 16.48V18.64H289.113V16.48H272.353ZM280.713 3.16C276.713 3.16 273.793 5.12 273.793 8.14C273.793 11.16 276.713 13.1 280.713 13.1C284.693 13.1 287.633 11.16 287.633 8.14C287.633 5.12 284.693 3.16 280.713 3.16ZM280.713 5.24C283.293 5.24 285.013 6.3 285.013 8.14C285.013 9.96 283.293 11.04 280.713 11.04C278.133 11.04 276.413 9.96 276.413 8.14C276.413 6.3 278.133 5.24 280.713 5.24Z" fill="#FEFEFE"/>
<path d="M74.9311 80V45.0909H83.3686V73.1477H97.8913V80H74.9311ZM110.279 80H101.211L112.989 45.0909H124.222L136.001 80H126.933L118.734 53.8864H118.461L110.279 80ZM109.069 66.2614H128.023V72.6705H109.069V66.2614ZM139.759 45.0909H150.208L159.072 66.7045H159.481L168.344 45.0909H178.793V80H170.577V58.5568H170.288L161.901 79.7784H156.651L148.265 58.4375H147.975V80H139.759V45.0909ZM184.056 80V45.0909H198.477C201.09 45.0909 203.346 45.6023 205.244 46.625C207.153 47.6364 208.624 49.0511 209.658 50.8693C210.692 52.6761 211.21 54.7784 211.21 57.1761C211.21 59.5852 210.681 61.6932 209.624 63.5C208.579 65.2955 207.085 66.6875 205.141 67.6761C203.198 68.6648 200.891 69.1591 198.221 69.1591H189.323V62.5114H196.653C197.925 62.5114 198.988 62.2898 199.84 61.8466C200.704 61.4034 201.357 60.7841 201.8 59.9886C202.244 59.1818 202.465 58.2443 202.465 57.1761C202.465 56.0966 202.244 55.1648 201.8 54.3807C201.357 53.5852 200.704 52.9716 199.84 52.5398C198.977 52.108 197.914 51.892 196.653 51.892H192.494V80H184.056ZM218.415 80.4943C217.188 80.4943 216.137 80.0625 215.262 79.1989C214.398 78.3352 213.972 77.2898 213.984 76.0625C213.972 74.858 214.398 73.8295 215.262 72.9773C216.137 72.1136 217.188 71.6818 218.415 71.6818C219.575 71.6818 220.597 72.1136 221.484 72.9773C222.381 73.8295 222.836 74.858 222.847 76.0625C222.836 76.8807 222.62 77.625 222.2 78.2955C221.79 78.9659 221.251 79.5 220.58 79.8977C219.921 80.2955 219.2 80.4943 218.415 80.4943Z" fill="#FFF48E"/>
<path d="M217.619 64.8435C218.033 64.1119 219.134 64.1391 219.506 64.8926C221.641 69.2103 223.134 70.7315 227.225 72.698C227.996 73.0688 228.027 74.202 227.281 74.6206C225.821 75.4395 223.866 76.6564 222.647 77.8998C221.487 79.0828 220.345 80.9496 219.573 82.3469C219.166 83.0841 218.041 83.0881 217.631 82.3524C216.827 80.9101 215.629 78.9629 214.44 77.7735C213.254 76.5879 211.316 75.3943 209.875 74.5903C209.137 74.1785 209.144 73.0467 209.885 72.6399C211.284 71.8715 213.144 70.7349 214.313 69.566C215.521 68.3586 216.779 66.3276 217.619 64.8435Z" fill="#FFF48E"/>
</svg>
