<svg width="311" height="54" viewBox="0 0 311 54" fill="none" xmlns="http://www.w3.org/2000/svg">
<rect width="311" height="54" rx="7" fill="#7070FF"/>
<path d="M133.253 23.28V24.885H137.033V23.28H133.253ZM133.253 27.585V29.19H137.033V27.585H133.253ZM130.853 21.405C128.768 21.405 127.268 23.325 127.268 26.355C127.268 29.415 128.768 31.335 130.853 31.335C132.923 31.335 134.438 29.415 134.438 26.355C134.438 23.325 132.923 21.405 130.853 21.405ZM130.853 23.22C131.873 23.22 132.548 24.315 132.548 26.355C132.548 28.425 131.873 29.535 130.853 29.535C129.848 29.535 129.158 28.425 129.158 26.355C129.158 24.315 129.848 23.22 130.853 23.22ZM136.718 20.43V34.365H138.698V20.43H136.718ZM150.787 20.445V29.145H152.677V20.445H150.787ZM149.092 23.865V25.485H151.312V23.865H149.092ZM147.907 20.715V28.695H149.767V20.715H147.907ZM140.782 21.87V23.4H147.517V21.87H140.782ZM144.172 23.85C142.432 23.85 141.172 24.84 141.172 26.28C141.172 27.72 142.432 28.695 144.172 28.695C145.912 28.695 147.172 27.72 147.172 26.28C147.172 24.84 145.912 23.85 144.172 23.85ZM144.172 25.275C144.892 25.275 145.387 25.635 145.387 26.28C145.387 26.925 144.892 27.285 144.172 27.285C143.437 27.285 142.942 26.925 142.942 26.28C142.942 25.635 143.437 25.275 144.172 25.275ZM143.167 20.58V22.92H145.132V20.58H143.167ZM147.982 29.295C144.997 29.295 143.197 30.195 143.197 31.815C143.197 33.42 144.997 34.335 147.982 34.335C150.952 34.335 152.752 33.42 152.752 31.815C152.752 30.195 150.952 29.295 147.982 29.295ZM147.982 30.78C149.827 30.78 150.757 31.095 150.757 31.815C150.757 32.52 149.827 32.85 147.982 32.85C146.122 32.85 145.192 32.52 145.192 31.815C145.192 31.095 146.122 30.78 147.982 30.78ZM161.527 26.07V28.17H163.522V26.07H161.527ZM162.502 21C160.492 21 159.037 22.155 159.037 23.835C159.037 25.485 160.492 26.64 162.502 26.64C164.512 26.64 165.967 25.485 165.967 23.835C165.967 22.155 164.512 21 162.502 21ZM162.502 22.5C163.462 22.5 164.107 22.98 164.107 23.835C164.107 24.675 163.462 25.155 162.502 25.155C161.557 25.155 160.897 24.675 160.897 23.835C160.897 22.98 161.557 22.5 162.502 22.5ZM167.392 20.46V31.05H169.387V20.46H167.392ZM168.682 24.81V26.445H171.127V24.81H168.682ZM160.117 32.49V34.095H169.852V32.49H160.117ZM160.117 30.135V33.18H162.127V30.135H160.117ZM158.542 29.25C160.837 29.25 163.987 29.205 166.792 28.68L166.657 27.255C163.927 27.645 160.672 27.66 158.317 27.66L158.542 29.25ZM175.355 28.545V31.815H177.305V28.545H175.355ZM179.75 28.53V31.815H181.7V28.53H179.75ZM172.175 31.185V32.805H184.745V31.185H172.175ZM173.585 21.345V22.92H181.355V24.39H173.615V28.305H175.595V25.95H183.335V21.345H173.585ZM173.615 27.465V29.07H183.65V27.465H173.615Z" fill="#FEFEFE"/>
</svg>
