<svg width="83" height="30" viewBox="0 0 83 30" fill="none" xmlns="http://www.w3.org/2000/svg">
<rect x="0.75" y="0.75" width="81.5" height="28.5" rx="14.25" fill="#FEFEFE" stroke="#FEFEFE" stroke-width="1.5"/>
<path d="M27.9721 10.2727H29.9068L32.4977 16.5966H32.6L35.1909 10.2727H37.1255V19H35.6085V13.0043H35.5275L33.1156 18.9744H31.9821L29.5701 12.9915H29.4892V19H27.9721V10.2727ZM41.6341 19.1278C40.9949 19.1278 40.4409 18.9872 39.9721 18.706C39.5034 18.4247 39.1397 18.0312 38.8812 17.5256C38.6255 17.0199 38.4977 16.429 38.4977 15.7528C38.4977 15.0767 38.6255 14.4844 38.8812 13.9759C39.1397 13.4673 39.5034 13.0724 39.9721 12.7912C40.4409 12.5099 40.9949 12.3693 41.6341 12.3693C42.2733 12.3693 42.8272 12.5099 43.296 12.7912C43.7647 13.0724 44.127 13.4673 44.3826 13.9759C44.6412 14.4844 44.7704 15.0767 44.7704 15.7528C44.7704 16.429 44.6412 17.0199 44.3826 17.5256C44.127 18.0312 43.7647 18.4247 43.296 18.706C42.8272 18.9872 42.2733 19.1278 41.6341 19.1278ZM41.6426 17.892C41.9892 17.892 42.2789 17.7969 42.5119 17.6065C42.7449 17.4134 42.9181 17.1548 43.0318 16.831C43.1483 16.5071 43.2065 16.1463 43.2065 15.7486C43.2065 15.348 43.1483 14.9858 43.0318 14.6619C42.9181 14.3352 42.7449 14.0753 42.5119 13.8821C42.2789 13.6889 41.9892 13.5923 41.6426 13.5923C41.2875 13.5923 40.992 13.6889 40.7562 13.8821C40.5233 14.0753 40.3485 14.3352 40.2321 14.6619C40.1184 14.9858 40.0616 15.348 40.0616 15.7486C40.0616 16.1463 40.1184 16.5071 40.2321 16.831C40.3485 17.1548 40.5233 17.4134 40.7562 17.6065C40.992 17.7969 41.2875 17.892 41.6426 17.892ZM46.0797 19V12.4545H47.5755V13.5455H47.6436C47.763 13.1676 47.9675 12.8764 48.2573 12.6719C48.5499 12.4645 48.8837 12.3608 49.2587 12.3608C49.3439 12.3608 49.4391 12.3651 49.5442 12.3736C49.6522 12.3793 49.7417 12.3892 49.8127 12.4034V13.8224C49.7473 13.7997 49.6436 13.7798 49.5016 13.7628C49.3624 13.7429 49.2275 13.733 49.0968 13.733C48.8155 13.733 48.5627 13.794 48.3382 13.9162C48.1167 14.0355 47.9419 14.2017 47.8141 14.4148C47.6863 14.6278 47.6223 14.8736 47.6223 15.152V19H46.0797ZM53.4657 19.1278C52.8095 19.1278 52.2427 18.9915 51.7654 18.7188C51.291 18.4432 50.926 18.054 50.6703 17.5511C50.4146 17.0455 50.2868 16.4503 50.2868 15.7656C50.2868 15.0923 50.4146 14.5014 50.6703 13.9929C50.9288 13.4815 51.2896 13.0838 51.7527 12.7997C52.2157 12.5128 52.7598 12.3693 53.3848 12.3693C53.7882 12.3693 54.1689 12.4347 54.5268 12.5653C54.8876 12.6932 55.2058 12.892 55.4814 13.1619C55.7598 13.4318 55.9785 13.7756 56.1376 14.1932C56.2967 14.608 56.3762 15.1023 56.3762 15.6761V16.1491H51.0112V15.1094H54.8975C54.8947 14.8139 54.8308 14.5511 54.7058 14.321C54.5808 14.0881 54.4061 13.9048 54.1816 13.7713C53.96 13.6378 53.7015 13.571 53.4061 13.571C53.0907 13.571 52.8137 13.6477 52.5751 13.8011C52.3365 13.9517 52.1504 14.1506 52.0169 14.3977C51.8862 14.642 51.8194 14.9105 51.8166 15.2031V16.1108C51.8166 16.4915 51.8862 16.8182 52.0254 17.0909C52.1646 17.3608 52.3592 17.5682 52.6092 17.7131C52.8592 17.8551 53.1518 17.9261 53.487 17.9261C53.7115 17.9261 53.9146 17.8949 54.0964 17.8324C54.2782 17.767 54.4359 17.6719 54.5694 17.5469C54.7029 17.4219 54.8038 17.267 54.872 17.0824L56.3123 17.2443C56.2214 17.625 56.0481 17.9574 55.7924 18.2415C55.5396 18.5227 55.2157 18.7415 54.8208 18.8977C54.426 19.0511 53.9743 19.1278 53.4657 19.1278Z" fill="#7070FF"/>
</svg>
