<svg width="14" height="14" viewBox="0 0 14 14" fill="none" xmlns="http://www.w3.org/2000/svg">
<g filter="url(#filter0_d_615_193)">
<path d="M1.31148 1.99765C1.1924 1.59456 1.588 1.21583 1.98437 1.35562C6.27958 2.87045 7.93405 2.88138 11.9778 1.38843C12.3793 1.24022 12.7888 1.62769 12.6646 2.03719C12.2783 3.31112 11.6983 5.50438 11.7143 7.14286C11.7295 8.7043 12.2961 10.7876 12.672 12.0026C12.7964 12.4049 12.4039 12.8001 12.001 12.6775C10.7492 12.2967 8.57703 11.7143 7 11.7143C5.42618 11.7143 3.2597 12.2943 2.00671 12.6752C1.60244 12.7981 1.20878 12.3996 1.33514 11.9964C1.71609 10.7808 2.28571 8.70248 2.28571 7.14286C2.28571 5.5506 1.692 3.28573 1.31148 1.99765Z" fill="#FEFEFE"/>
<path d="M3.28571 7.14286C3.28571 5.73638 2.8765 3.91981 2.51969 2.59598C4.26798 3.17433 5.66512 3.49465 7.07164 3.49993C8.46999 3.50518 9.81147 3.19903 11.4507 2.63808C11.0949 3.94074 10.7003 5.71113 10.7143 7.15262C10.7279 8.53893 11.1254 10.2397 11.4757 11.4831C10.1891 11.1255 8.41126 10.7143 7 10.7143C5.59178 10.7143 3.81873 11.1237 2.53304 11.4807C2.88688 10.2366 3.28571 8.53403 3.28571 7.14286Z" stroke="#1DD185" stroke-width="2"/>
</g>
<defs>
<filter id="filter0_d_615_193" x="0.290039" y="0.325989" width="13.4053" height="13.3743" filterUnits="userSpaceOnUse" color-interpolation-filters="sRGB">
<feFlood flood-opacity="0" result="BackgroundImageFix"/>
<feColorMatrix in="SourceAlpha" type="matrix" values="0 0 0 0 0 0 0 0 0 0 0 0 0 0 0 0 0 0 127 0" result="hardAlpha"/>
<feOffset/>
<feGaussianBlur stdDeviation="0.5"/>
<feComposite in2="hardAlpha" operator="out"/>
<feColorMatrix type="matrix" values="0 0 0 0 0.112865 0 0 0 0 0.820833 0 0 0 0 0.523486 0 0 0 1 0"/>
<feBlend mode="normal" in2="BackgroundImageFix" result="effect1_dropShadow_615_193"/>
<feBlend mode="normal" in="SourceGraphic" in2="effect1_dropShadow_615_193" result="shape"/>
</filter>
</defs>
</svg>
