<svg width="40" height="40" viewBox="0 0 40 40" fill="none" xmlns="http://www.w3.org/2000/svg">
<rect width="40" height="40" rx="16" fill="#FEFEFE"/>
<path fill-rule="evenodd" clip-rule="evenodd" d="M25.7041 24.8081L23.4605 23.8073C22.7574 23.4937 22.6575 22.5367 23.2806 22.0847L28.7002 18.1528C29.3233 17.7007 30.202 18.0927 30.282 18.8583L30.9773 25.5177C31.0573 26.2834 30.2784 26.8484 29.5754 26.5349L27.9288 25.8004C27.8233 25.9442 27.7136 26.0855 27.6 26.224C26.143 27.9992 24.1156 29.2144 21.8632 29.6625C19.6107 30.1105 17.2726 29.7637 15.2472 28.6811C13.2218 27.5985 11.6345 25.8471 10.7556 23.7254C9.87676 21.6036 9.76078 19.2428 10.4274 17.0451C11.0941 14.8474 12.5021 12.9489 14.4117 11.673C16.3212 10.397 18.6141 9.82271 20.8996 10.0478C22.7913 10.2341 24.5811 10.9586 26.0626 12.1236C26.5755 12.5269 26.5717 13.2815 26.1103 13.7429C25.6489 14.2043 24.9053 14.1953 24.3777 13.8114C23.2946 13.023 22.0152 12.5321 20.668 12.3994C18.9265 12.2279 17.1794 12.6655 15.7245 13.6377C14.2695 14.6099 13.1966 16.0565 12.6886 17.731C12.1807 19.4055 12.2691 21.2044 12.9387 22.8211C13.6084 24.4378 14.8179 25.7723 16.3611 26.5971C17.9044 27.422 19.6859 27.6863 21.4022 27.3449C23.083 27.0106 24.5994 26.1156 25.7041 24.8081Z" fill="#26265C"/>
</svg>
