<svg width="209" height="63" viewBox="0 0 209 63" fill="none" xmlns="http://www.w3.org/2000/svg">
<mask id="path-1-inside-1_291_18" fill="white">
<path d="M209 0H34V63H204C206.761 63 209 60.7614 209 58V0Z"/>
</mask>
<path d="M209 0H34V63H204C206.761 63 209 60.7614 209 58V0Z" fill="#FEFEFE"/>
<path d="M209 -1H34V1H209V-1ZM34 63H209H34ZM209 63V0V63ZM34 0V63V0Z" fill="#26265C" mask="url(#path-1-inside-1_291_18)"/>
<path d="M105.553 27.102V27.3C105.553 28.74 104.419 30.108 101.845 30.576L102.799 32.43C106.003 31.782 107.479 29.766 107.479 27.3V27.102H105.553ZM106.039 27.102V27.3C106.039 29.658 107.515 31.584 110.665 32.178L111.601 30.342C109.081 29.892 107.965 28.65 107.965 27.3V27.102H106.039ZM102.295 25.59V27.426H111.205V25.59H102.295ZM105.553 23.97V26.904H107.965V23.97H105.553ZM105.535 33.402V40.098H107.929V33.402H105.535ZM112.825 23.934V40.602H115.201V23.934H112.825ZM101.593 35.076C104.563 35.076 108.433 35.022 112.033 34.374L111.871 32.646C108.379 33.114 104.329 33.132 101.305 33.132L101.593 35.076ZM117.648 36.696V38.658H132.732V36.696H117.648ZM123.912 32.988V37.218H126.288V32.988H123.912ZM123.822 24.852V26.058C123.822 28.362 121.788 30.918 117.99 31.53L118.98 33.528C123.336 32.736 125.91 29.604 125.91 26.058V24.852H123.822ZM124.29 24.852V26.058C124.29 29.658 126.864 32.718 131.238 33.528L132.228 31.53C128.412 30.918 126.378 28.416 126.378 26.058V24.852H124.29Z" fill="#26265C"/>
</svg>
