<svg width="69" height="34" viewBox="0 0 69 34" fill="none" xmlns="http://www.w3.org/2000/svg">
<g filter="url(#filter0_d_1307_270)">
<g filter="url(#filter1_b_1307_270)">
<rect x="4" y="4" width="61" height="26" rx="13" fill="white" fill-opacity="0.46"/>
<path d="M28.5057 18.6855H25.9373V17.9531H29.3748V16.957H21.2693V17.9531H24.6971V18.6855H22.1385V19.6621H23.3494V20.7656H22.0604V21.7617H28.6033V20.7656H27.3143V19.6621H28.5057V18.6855ZM21.6697 15.5508L22.1189 16.5176C23.6326 16.3223 24.7508 15.6875 25.327 14.8232C25.8934 15.6826 27.0066 16.3223 28.535 16.5176L28.9744 15.5508C26.9871 15.3213 25.9666 14.3105 25.9666 13.3926V13.0996H24.6873V13.3926C24.6775 14.3301 23.6521 15.3115 21.6697 15.5508ZM24.5799 20.7656V19.6621H26.0936V20.7656H24.5799ZM33.7213 13.5977H32.4713L30.1959 22.0645H31.4361L33.7213 13.5977ZM38.5268 18.5488C36.598 18.5488 35.3578 19.1641 35.3627 20.2285C35.3578 21.2783 36.598 21.9033 38.5268 21.8984C40.4701 21.9033 41.6908 21.2783 41.7006 20.2285C41.6908 19.1641 40.4701 18.5488 38.5268 18.5488ZM34.5424 17.9824H42.6088V16.9766H38.8002V15.4238H37.5697V16.9766H34.5424V17.9824ZM35.4506 14.3887H40.4115C40.4018 14.9941 40.3773 15.5947 40.1771 16.4004L41.3979 16.5176C41.6566 15.6045 41.6566 14.8428 41.6518 14.1348V13.4121H35.4506V14.3887ZM36.6029 20.2285C36.598 19.7354 37.3012 19.4717 38.5268 19.4766C39.7523 19.4717 40.4604 19.7354 40.4604 20.2285C40.4604 20.707 39.7523 20.9512 38.5268 20.9512C37.3012 20.9512 36.598 20.707 36.6029 20.2285ZM51.1447 13.0215H49.8947V18.1777H48.1955V19.0273H49.8947V19.7305H51.1447V13.0215ZM43.5861 16.957L43.7326 17.9434C44.4064 17.9434 45.1633 17.9385 45.9592 17.9092V19.0859H44.7189V21.7422H51.34V20.7461H45.9592V19.5254H47.2092V17.8359C47.927 17.7822 48.6545 17.6992 49.3576 17.582L49.2893 16.6934C47.4094 16.9229 45.2121 16.9473 43.5861 16.957ZM44.2404 14.916C44.2404 15.8682 45.1535 16.4834 46.4768 16.4785C47.7658 16.4834 48.6887 15.8682 48.6936 14.916C48.6887 13.9688 47.7658 13.3193 46.4768 13.3242C45.1535 13.3193 44.2404 13.9688 44.2404 14.916ZM45.4221 14.916C45.4172 14.4766 45.842 14.2324 46.4768 14.2324C47.0725 14.2324 47.5021 14.4766 47.5119 14.916C47.5021 15.3457 47.0725 15.585 46.4768 15.5801C45.842 15.585 45.4172 15.3457 45.4221 14.916Z" fill="#FEFEFE"/>
</g>
<path fill-rule="evenodd" clip-rule="evenodd" d="M15 19.3293C16.1652 18.9175 17 17.8062 17 16.5C17 14.8431 15.6569 13.5 14 13.5C12.3431 13.5 11 14.8431 11 16.5C11 17.8062 11.8348 18.9175 13 19.3293V17.5C13 16.9477 13.4477 16.5 14 16.5C14.5523 16.5 15 16.9477 15 17.5V19.3293ZM14.6 19.44V17.5C14.6 17.1686 14.3314 16.9 14 16.9C13.6686 16.9 13.4 17.1686 13.4 17.5V19.44C13.5939 19.4793 13.7945 19.5 14 19.5C14.2055 19.5 14.4061 19.4793 14.6 19.44Z" fill="#1DD185"/>
<path fill-rule="evenodd" clip-rule="evenodd" d="M13.9999 18.5H13.3999V21.5H13.9999V18.5ZM14.6 18.5H14V21.5H14.6V18.5Z" fill="#1DD185"/>
</g>
<defs>
<filter id="filter0_d_1307_270" x="0" y="0" width="69" height="34" filterUnits="userSpaceOnUse" color-interpolation-filters="sRGB">
<feFlood flood-opacity="0" result="BackgroundImageFix"/>
<feColorMatrix in="SourceAlpha" type="matrix" values="0 0 0 0 0 0 0 0 0 0 0 0 0 0 0 0 0 0 127 0" result="hardAlpha"/>
<feOffset/>
<feGaussianBlur stdDeviation="2"/>
<feComposite in2="hardAlpha" operator="out"/>
<feColorMatrix type="matrix" values="0 0 0 0 0 0 0 0 0 0 0 0 0 0 0 0 0 0 0.25 0"/>
<feBlend mode="normal" in2="BackgroundImageFix" result="effect1_dropShadow_1307_270"/>
<feBlend mode="normal" in="SourceGraphic" in2="effect1_dropShadow_1307_270" result="shape"/>
</filter>
<filter id="filter1_b_1307_270" x="0" y="0" width="69" height="34" filterUnits="userSpaceOnUse" color-interpolation-filters="sRGB">
<feFlood flood-opacity="0" result="BackgroundImageFix"/>
<feGaussianBlur in="BackgroundImageFix" stdDeviation="2"/>
<feComposite in2="SourceAlpha" operator="in" result="effect1_backgroundBlur_1307_270"/>
<feBlend mode="normal" in="SourceGraphic" in2="effect1_backgroundBlur_1307_270" result="shape"/>
</filter>
</defs>
</svg>
