<svg width="52" height="56" viewBox="0 0 52 56" fill="none" xmlns="http://www.w3.org/2000/svg">
<path d="M24.3548 4.17952C24.8121 3.40298 26.0272 3.4418 26.4336 4.23008C27.8025 6.88466 29.0696 8.84316 30.6611 10.4635C32.2563 12.0876 34.1297 13.3236 36.6451 14.6008C37.4618 15.0156 37.5049 16.2914 36.7059 16.7615C34.7215 17.9291 32.3283 19.5049 30.7123 21.1528C29.1771 22.7182 27.7026 25.002 26.6044 26.8986C26.1433 27.6949 24.8375 27.695 24.3772 26.9051C23.2309 24.9379 21.6806 22.5456 20.0957 20.9607C18.518 19.383 16.1407 17.8399 14.1794 16.6955C13.3879 16.2337 13.3878 14.9147 14.1918 14.4508C16.0866 13.3575 18.3614 11.8863 19.9105 10.3372C21.5267 8.72102 23.1556 6.21573 24.3548 4.17952Z" fill="#7070FF" stroke="#7070FF" stroke-width="2"/>
<path d="M9.576 41.0712V54.0772H11.438V41.0712H9.576ZM7.308 45.6072V47.1052H10.01V45.6072H7.308ZM3.556 43.1292V44.2772C3.556 46.6852 2.534 49.1632 0.364 50.1852L1.456 51.6552C3.878 50.4652 5.026 47.4412 5.026 44.2772V43.1292H3.556ZM3.99 43.1292V44.2772C3.99 47.3432 5.11 50.2412 7.546 51.3892L8.624 49.9332C6.454 48.9532 5.446 46.5592 5.446 44.2772V43.1292H3.99ZM0.896 42.3312V43.8292H8.106V42.3312H0.896ZM16.3229 42.5272V43.3392C16.3229 44.9912 15.4129 46.6852 13.2569 47.3992L14.1809 48.8692C16.6869 48.0432 17.8489 45.8172 17.8489 43.3392V42.5272H16.3229ZM16.7009 42.5272V43.3392C16.7009 45.6492 17.8209 47.6792 20.2849 48.4212L21.1669 46.9652C19.0809 46.3352 18.2129 44.8512 18.2129 43.3392V42.5272H16.7009ZM13.7469 41.9532V43.4372H20.7469V41.9532H13.7469ZM21.7829 41.0852V48.7712H23.6449V41.0852H21.7829ZM23.1269 44.0672V45.5932H25.3669V44.0672H23.1269ZM19.4169 49.0092C16.7149 49.0092 15.0209 49.9472 15.0209 51.5292C15.0209 53.1112 16.7149 54.0492 19.4169 54.0492C22.1049 54.0492 23.7989 53.1112 23.7989 51.5292C23.7989 49.9472 22.1049 49.0092 19.4169 49.0092ZM19.4169 50.4652C21.0689 50.4652 21.9509 50.8012 21.9509 51.5292C21.9509 52.2572 21.0689 52.6212 19.4169 52.6212C17.7649 52.6212 16.8689 52.2572 16.8689 51.5292C16.8689 50.8012 17.7649 50.4652 19.4169 50.4652ZM34.6338 41.0852V54.0492H36.4818V41.0852H34.6338ZM36.0618 46.1392V47.6932H38.3578V46.1392H36.0618ZM26.2618 43.0032V44.4872H33.8078V43.0032H26.2618ZM30.0558 45.2152C28.1658 45.2152 26.7658 46.5032 26.7658 48.3092C26.7658 50.1152 28.1658 51.4032 30.0558 51.4032C31.9458 51.4032 33.3458 50.1152 33.3458 48.3092C33.3458 46.5032 31.9458 45.2152 30.0558 45.2152ZM30.0558 46.7272C30.9378 46.7272 31.5678 47.3152 31.5678 48.3092C31.5678 49.3032 30.9378 49.8912 30.0558 49.8912C29.1738 49.8912 28.5438 49.3032 28.5438 48.3092C28.5438 47.3152 29.1738 46.7272 30.0558 46.7272ZM29.1178 41.2952V43.5632H30.9798V41.2952H29.1178ZM48.1287 41.0852V54.0492H50.0047V41.0852H48.1287ZM44.3067 42.4292V42.7652C44.3067 46.2372 42.9627 48.5892 39.2387 50.3812L40.2047 51.8652C44.8107 49.6392 46.1547 46.3912 46.1547 42.4292H44.3067ZM39.9247 42.4292V43.8992H45.1887V42.4292H39.9247Z" fill="#7070FF"/>
</svg>
