<svg width="96" height="70" viewBox="0 0 96 70" fill="none" xmlns="http://www.w3.org/2000/svg">
<g filter="url(#filter0_d_677_195)">
<path fill-rule="evenodd" clip-rule="evenodd" d="M91.7992 27.3795C91.5451 27.4076 91.2868 27.422 91.0251 27.422C87.1772 27.422 84.0579 24.3027 84.0579 20.4549C84.0579 20.1932 84.0724 19.9349 84.1005 19.6808H25.1812C25.2092 19.9349 25.2237 20.1932 25.2237 20.4549C25.2237 24.3027 22.1044 27.422 18.2565 27.422C17.9949 27.422 17.7367 27.4076 17.4827 27.3796V55.3333C17.7367 55.3052 17.9949 55.2908 18.2565 55.2908C22.1044 55.2908 25.2237 58.4101 25.2237 62.258C25.2237 62.5197 25.2092 62.7779 25.1811 63.0321H84.1005C84.0724 62.7779 84.0579 62.5197 84.0579 62.258C84.0579 58.4101 87.1772 55.2908 91.0251 55.2908C91.2868 55.2908 91.5451 55.3052 91.7992 55.3333V27.3795Z" fill="url(#paint0_linear_677_195)"/>
<g filter="url(#filter1_d_677_195)">
<path d="M82.2125 10.8755C82.0963 10.4421 81.6296 10.2089 81.1962 10.325V10.325C77.1662 11.4048 73.0239 9.01327 71.9441 4.98327V4.98327C71.8279 4.54973 71.3923 4.26196 70.9588 4.37813L10.8759 20.4773C10.4423 20.5935 10.2089 21.0606 10.3251 21.4942V21.4942C11.4049 25.5242 9.01333 29.6665 4.98333 30.7463V30.7463C4.54988 30.8625 4.26218 31.298 4.37832 31.7314L11.7877 59.3837C11.9038 59.817 12.3706 60.0503 12.8039 59.9341V59.9341C16.8339 58.8543 20.9762 61.2459 22.0561 65.2759V65.2759C22.1722 65.7093 22.6076 65.9969 23.041 65.8808L83.1241 49.7815C83.5576 49.6654 83.7909 49.1985 83.6748 48.765V48.765C82.5949 44.735 84.9865 40.5927 89.0165 39.5128V39.5128C89.4501 39.3966 89.7379 38.961 89.6218 38.5274L82.2125 10.8755Z" fill="#FEFEFE"/>
<path d="M12.4899 22.1154L70.38 6.60377C72.0142 10.6682 76.2375 13.1066 80.5745 12.4899L87.3961 37.9486C83.3315 39.5828 80.893 43.8064 81.5099 48.1435L23.6201 63.6551C21.9858 59.5908 17.7626 57.1525 13.4257 57.7693L6.60401 32.3104C10.6685 30.6761 13.1069 26.4525 12.4899 22.1154Z" stroke="url(#paint1_linear_677_195)" stroke-width="4"/>
</g>
<mask id="path-4-inside-1_677_195" fill="white">
<path fill-rule="evenodd" clip-rule="evenodd" d="M67.5365 12.4751L17.7895 25.8048C17.8635 25.9859 17.9267 26.1731 17.9784 26.366C18.7383 29.202 16.7206 32.2068 13.4717 33.0774C13.2508 33.1365 13.0299 33.1843 12.8098 33.2211L18.3303 53.8239C18.5394 53.7457 18.7546 53.6767 18.9755 53.6175C22.2244 52.7469 25.4742 54.3403 26.2341 57.1763C26.2858 57.3692 26.3246 57.5628 26.3511 57.7565L76.0989 44.4266C76.0249 44.2457 75.9618 44.0586 75.9101 43.8657C75.1502 41.0297 77.1679 38.0249 80.4168 37.1544C80.6375 37.0952 80.8583 37.0474 81.0783 37.0107L75.5577 16.4075C75.3485 16.4858 75.1331 16.5549 74.9121 16.6141C71.6632 17.4847 68.4134 15.8913 67.6535 13.0553C67.6018 12.8624 67.563 12.6688 67.5365 12.4751Z"/>
</mask>
<path fill-rule="evenodd" clip-rule="evenodd" d="M67.5365 12.4751L17.7895 25.8048C17.8635 25.9859 17.9267 26.1731 17.9784 26.366C18.7383 29.202 16.7206 32.2068 13.4717 33.0774C13.2508 33.1365 13.0299 33.1843 12.8098 33.2211L18.3303 53.8239C18.5394 53.7457 18.7546 53.6767 18.9755 53.6175C22.2244 52.7469 25.4742 54.3403 26.2341 57.1763C26.2858 57.3692 26.3246 57.5628 26.3511 57.7565L76.0989 44.4266C76.0249 44.2457 75.9618 44.0586 75.9101 43.8657C75.1502 41.0297 77.1679 38.0249 80.4168 37.1544C80.6375 37.0952 80.8583 37.0474 81.0783 37.0107L75.5577 16.4075C75.3485 16.4858 75.1331 16.5549 74.9121 16.6141C71.6632 17.4847 68.4134 15.8913 67.6535 13.0553C67.6018 12.8624 67.563 12.6688 67.5365 12.4751Z" fill="#FEFEFE"/>
<path d="M17.7895 25.8048L17.3754 24.2593L15.6217 24.7292L16.3083 26.4099L17.7895 25.8048ZM67.5365 12.4751L69.1218 12.2584L68.8759 10.4598L67.1224 10.9296L67.5365 12.4751ZM12.8098 33.2211L12.546 31.643L10.8084 31.9335L11.2643 33.6352L12.8098 33.2211ZM18.3303 53.8239L16.7848 54.238L17.2408 55.9398L18.891 55.3225L18.3303 53.8239ZM26.3511 57.7565L24.7658 57.9732L25.0116 59.7719L26.7652 59.302L26.3511 57.7565ZM76.0989 44.4266L76.513 45.9721L78.2665 45.5023L77.5801 43.8217L76.0989 44.4266ZM81.0783 37.0107L81.3422 38.5888L83.0798 38.2982L82.6238 36.5966L81.0783 37.0107ZM75.5577 16.4075L77.1032 15.9934L76.6472 14.2915L74.997 14.909L75.5577 16.4075ZM18.2036 27.3503L67.9506 14.0206L67.1224 10.9296L17.3754 24.2593L18.2036 27.3503ZM19.5239 25.9519C19.4547 25.6937 19.37 25.4428 19.2707 25.1997L16.3083 26.4099C16.3569 26.5289 16.3987 26.6524 16.4329 26.7801L19.5239 25.9519ZM13.8858 34.6228C17.7843 33.5782 20.5635 29.8321 19.5239 25.9519L16.4329 26.7801C16.913 28.572 15.6569 30.8354 13.0576 31.5319L13.8858 34.6228ZM13.0736 34.7992C13.3443 34.754 13.6153 34.6953 13.8858 34.6228L13.0576 31.5319C12.8863 31.5778 12.7156 31.6147 12.546 31.643L13.0736 34.7992ZM19.8758 53.4098L14.3553 32.807L11.2643 33.6352L16.7848 54.238L19.8758 53.4098ZM18.891 55.3225C19.052 55.2623 19.2183 55.2089 19.3896 55.163L18.5614 52.072C18.2909 52.1445 18.0268 52.2292 17.7697 52.3254L18.891 55.3225ZM19.3896 55.163C21.9889 54.4665 24.2085 55.7985 24.6886 57.5904L27.7796 56.7622C26.7399 52.8821 22.4599 51.0274 18.5614 52.072L19.3896 55.163ZM24.6886 57.5904C24.7228 57.7181 24.7484 57.8458 24.7658 57.9732L27.9363 57.5399C27.9008 57.2798 27.8487 57.0202 27.7796 56.7622L24.6886 57.5904ZM75.6848 42.8812L25.9369 56.2111L26.7652 59.302L76.513 45.9721L75.6848 42.8812ZM74.3646 44.2798C74.4337 44.5378 74.5184 44.7887 74.6177 45.0316L77.5801 43.8217C77.5315 43.7027 77.4898 43.5793 77.4556 43.4516L74.3646 44.2798ZM80.0027 35.6089C76.1042 36.6535 73.3249 40.3997 74.3646 44.2798L77.4556 43.4516C76.9754 41.6597 78.2316 39.3963 80.8309 38.6999L80.0027 35.6089ZM80.8145 35.4326C80.5439 35.4778 80.273 35.5365 80.0027 35.6089L80.8309 38.6999C81.0021 38.654 81.1727 38.6171 81.3422 38.5888L80.8145 35.4326ZM74.0122 16.8216L79.5328 37.4248L82.6238 36.5966L77.1032 15.9934L74.0122 16.8216ZM75.3262 18.1596C75.5969 18.0871 75.8612 18.0023 76.1185 17.906L74.997 14.909C74.8359 14.9692 74.6694 15.0227 74.498 15.0686L75.3262 18.1596ZM66.108 13.4694C67.1477 17.3495 71.4277 19.2042 75.3262 18.1596L74.498 15.0686C71.8987 15.7651 69.6791 14.4331 69.199 12.6411L66.108 13.4694ZM65.9513 12.6918C65.9868 12.9518 66.0389 13.2114 66.108 13.4694L69.199 12.6411C69.1648 12.5135 69.1392 12.3858 69.1218 12.2584L65.9513 12.6918Z" fill="url(#paint2_linear_677_195)" mask="url(#path-4-inside-1_677_195)"/>
<path d="M21.9373 39.0415L24.8574 38.2139L27.0941 46.1062L29.054 45.5508L26.8173 37.6585L29.7375 36.8309L29.2752 35.1998L21.475 37.4104L21.9373 39.0415ZM33.1975 44.3765L35.1706 43.8173L34.2125 40.4368L35.7186 40.0099L38.4985 42.8742L40.682 42.2554L37.6069 39.1266C38.5598 38.3521 38.8899 37.2354 38.5208 35.9332C37.9859 34.0456 36.398 33.1812 34.2342 33.7944L30.4985 34.8531L33.1975 44.3765ZM33.7577 38.832L32.9301 35.9119L34.3244 35.5167C35.497 35.1915 36.2164 35.5489 36.482 36.511C36.7588 37.4628 36.3227 38.1051 35.152 38.4369L33.7577 38.832ZM43.2996 41.5135L43.394 39.1137L46.8403 38.137L48.1797 40.1305L50.2975 39.5303L44.3101 30.9389L41.7714 31.6584L41.1687 42.1174L43.2996 41.5135ZM43.4577 37.433L43.6155 33.452L43.6812 33.4334L45.9043 36.7396L43.4577 37.433ZM49.177 29.5596L46.9671 30.1859L52.9677 38.7735L55.5064 38.0541L56.0959 27.5987L53.9124 28.2176L53.6419 36.1383L53.5498 36.1644L49.177 29.5596ZM59.8735 36.8164L66.2794 35.001L65.8171 33.3699L61.3843 34.6262L60.7282 32.3111L64.819 31.1517L64.3568 29.5207L60.2659 30.68L59.6098 28.3649L64.0295 27.1124L63.5673 25.4813L57.1745 27.2931L59.8735 36.8164ZM67.8052 34.5685L73.8823 32.8463L73.42 31.2152L69.316 32.3783L67.0793 24.486L65.1063 25.0452L67.8052 34.5685Z" fill="#26265C"/>
</g>
<defs>
<filter id="filter0_d_677_195" x="0.352539" y="0.352295" width="95.4468" height="69.5543" filterUnits="userSpaceOnUse" color-interpolation-filters="sRGB">
<feFlood flood-opacity="0" result="BackgroundImageFix"/>
<feColorMatrix in="SourceAlpha" type="matrix" values="0 0 0 0 0 0 0 0 0 0 0 0 0 0 0 0 0 0 127 0" result="hardAlpha"/>
<feOffset/>
<feGaussianBlur stdDeviation="2"/>
<feComposite in2="hardAlpha" operator="out"/>
<feColorMatrix type="matrix" values="0 0 0 0 0.14902 0 0 0 0 0.14902 0 0 0 0 0.360784 0 0 0 0.25 0"/>
<feBlend mode="normal" in2="BackgroundImageFix" result="effect1_dropShadow_677_195"/>
<feBlend mode="normal" in="SourceGraphic" in2="effect1_dropShadow_677_195" result="shape"/>
</filter>
<filter id="filter1_d_677_195" x="3.35254" y="3.35229" width="87.2952" height="63.5543" filterUnits="userSpaceOnUse" color-interpolation-filters="sRGB">
<feFlood flood-opacity="0" result="BackgroundImageFix"/>
<feColorMatrix in="SourceAlpha" type="matrix" values="0 0 0 0 0 0 0 0 0 0 0 0 0 0 0 0 0 0 127 0" result="hardAlpha"/>
<feOffset/>
<feGaussianBlur stdDeviation="0.5"/>
<feComposite in2="hardAlpha" operator="out"/>
<feColorMatrix type="matrix" values="0 0 0 0 0.996078 0 0 0 0 0.996078 0 0 0 0 0.996078 0 0 0 1 0"/>
<feBlend mode="normal" in2="BackgroundImageFix" result="effect1_dropShadow_677_195"/>
<feBlend mode="normal" in="SourceGraphic" in2="effect1_dropShadow_677_195" result="shape"/>
</filter>
<linearGradient id="paint0_linear_677_195" x1="54.6409" y1="19.6808" x2="54.6409" y2="63.0321" gradientUnits="userSpaceOnUse">
<stop stop-color="#26265C"/>
<stop offset="0.472917" stop-color="#26265C"/>
</linearGradient>
<linearGradient id="paint1_linear_677_195" x1="40.9171" y1="12.4278" x2="53.0829" y2="57.8311" gradientUnits="userSpaceOnUse">
<stop stop-color="#5050B8"/>
<stop offset="1" stop-color="#26265C"/>
</linearGradient>
<linearGradient id="paint2_linear_677_195" x1="42.6633" y1="19.1399" x2="51.2248" y2="51.0916" gradientUnits="userSpaceOnUse">
<stop stop-color="#7070FF"/>
<stop offset="0.0001" stop-color="#5454C1"/>
<stop offset="1" stop-color="#26265C"/>
</linearGradient>
</defs>
</svg>
