<svg width="52" height="58" viewBox="0 0 52 58" fill="none" xmlns="http://www.w3.org/2000/svg">
<path d="M1.12 44.4292V45.8992H11.676V44.4292H1.12ZM0.574 51.4712V52.9692H12.306V51.4712H0.574ZM5.488 52.7872V56.0632H7.35V52.7872H5.488ZM6.426 46.4032C3.626 46.4032 1.974 47.1872 1.974 48.6292C1.974 50.0572 3.626 50.8552 6.426 50.8552C9.212 50.8552 10.864 50.0572 10.864 48.6292C10.864 47.1872 9.212 46.4032 6.426 46.4032ZM6.426 47.7892C8.12 47.7892 8.946 48.0412 8.946 48.6292C8.946 49.2172 8.12 49.4692 6.426 49.4692C4.732 49.4692 3.906 49.2172 3.906 48.6292C3.906 48.0412 4.732 47.7892 6.426 47.7892ZM5.488 43.0712V45.4092H7.35V43.0712H5.488ZM22.3709 43.0852V56.0492H24.2469V43.0852H22.3709ZM18.5489 44.4292V44.7652C18.5489 48.2372 17.2049 50.5892 13.4809 52.3812L14.4469 53.8652C19.0529 51.6392 20.3969 48.3912 20.3969 44.4292H18.5489ZM14.1669 44.4292V45.8992H19.4309V44.4292H14.1669ZM28.6698 44.0092V45.4792C28.6698 46.9912 27.9978 48.6152 26.2478 49.3852L27.1998 50.7572C29.2718 49.8612 30.0838 47.7052 30.0838 45.4792V44.0092H28.6698ZM29.1178 44.0092V45.4792C29.1178 47.6772 29.9018 50.0152 32.1698 50.9532L32.9678 49.4692C31.1618 48.6572 30.5318 46.9632 30.5318 45.4792V44.0092H29.1178ZM33.8218 44.0092V45.4792C33.8218 46.9912 33.1778 48.6712 31.3858 49.4692L32.1698 50.9532C34.4378 50.0292 35.2218 47.7052 35.2218 45.4792V44.0092H33.8218ZM34.2838 44.0092V45.4792C34.2838 47.7612 35.0818 49.8752 37.1538 50.7572L38.1198 49.3852C36.3558 48.6292 35.6978 47.0472 35.6978 45.4792V44.0092H34.2838ZM26.3178 52.9412V54.4532H38.0498V52.9412H26.3178ZM48.1287 43.0852V56.0492H50.0047V43.0852H48.1287ZM44.3067 44.4292V44.7652C44.3067 48.2372 42.9627 50.5892 39.2387 52.3812L40.2047 53.8652C44.8107 51.6392 46.1547 48.3912 46.1547 44.4292H44.3067ZM39.9247 44.4292V45.8992H45.1887V44.4292H39.9247Z" fill="#FDC15F"/>
<path d="M22.4077 9.67558C22.8755 8.23571 23.2073 7.21719 23.5052 6.50603C23.6528 6.15357 23.7754 5.91826 23.879 5.76404C23.9658 5.63465 24.0157 5.59806 24.0206 5.59456C24.3193 5.43133 24.6807 5.43133 24.9794 5.59456C24.9843 5.59806 25.0342 5.63465 25.121 5.76404C25.2246 5.91826 25.3472 6.15357 25.4948 6.50603C25.7927 7.21719 26.1245 8.23572 26.5923 9.67558L26.984 10.8811C26.9992 10.9278 27.0142 10.9742 27.0291 11.0202C27.2408 11.6753 27.4267 12.2501 27.7951 12.6955L28.5656 12.058L27.7951 12.6955C28.1172 13.0848 28.5324 13.3865 29.0022 13.5725L29.3703 12.6427L29.0022 13.5725C29.5396 13.7853 30.1438 13.7844 30.8322 13.7833C30.8805 13.7833 30.9293 13.7832 30.9784 13.7832H32.246C33.7599 13.7832 34.8311 13.784 35.5995 13.8475C35.9804 13.879 36.242 13.9229 36.4207 13.9737C36.5705 14.0163 36.6208 14.0524 36.6256 14.056C36.8732 14.2897 36.9849 14.6334 36.922 14.968C36.9201 14.9738 36.9007 15.0325 36.8045 15.155C36.6898 15.3011 36.5039 15.4905 36.2144 15.7398C35.63 16.2428 34.7639 16.8731 33.5391 17.763L32.5136 18.508C32.4739 18.5369 32.4344 18.5655 32.3953 18.5939C31.8377 18.9977 31.3484 19.3521 31.0387 19.8401C30.7679 20.2667 30.6093 20.7549 30.5776 21.2592C30.5413 21.836 30.7289 22.4103 30.9426 23.0648C30.9576 23.1107 30.9727 23.157 30.9879 23.2038L31.3796 24.4093C31.8474 25.8491 32.1777 26.8682 32.3547 27.6186C32.4424 27.9905 32.4816 28.2529 32.4884 28.4386C32.4942 28.5943 32.4754 28.6532 32.4735 28.6589C32.3277 28.9666 32.0354 29.179 31.6978 29.2225C31.6918 29.2226 31.6299 29.2223 31.4836 29.1686C31.3092 29.1047 31.0717 28.9864 30.7451 28.7881C30.0861 28.3878 29.219 27.7588 27.9941 26.8689L26.9687 26.1239C26.9289 26.095 26.8895 26.0663 26.8505 26.0379C26.2941 25.6323 25.8059 25.2765 25.2461 25.1328C24.7566 25.0071 24.2434 25.0071 23.7539 25.1328C23.1941 25.2765 22.7059 25.6324 22.1495 26.0379C22.1104 26.0663 22.0711 26.095 22.0313 26.1239L21.0059 26.8689C19.781 27.7588 18.9139 28.3878 18.2549 28.7881C17.9283 28.9864 17.6908 29.1047 17.5164 29.1686C17.37 29.2223 17.3082 29.2226 17.3022 29.2225C16.9646 29.179 16.6723 28.9666 16.5265 28.6589C16.5246 28.6532 16.5058 28.5942 16.5116 28.4386C16.5185 28.2529 16.5576 27.9905 16.6453 27.6186C16.8223 26.8682 17.1526 25.8491 17.6204 24.4093L18.0121 23.2038C18.0273 23.157 18.0424 23.1107 18.0574 23.0648C18.2711 22.4103 18.4587 21.836 18.4224 21.2592C18.3907 20.7549 18.2321 20.2667 17.9613 19.8401C17.6516 19.3521 17.1623 18.9977 16.6048 18.5939C16.5656 18.5655 16.5261 18.5369 16.4864 18.508L15.4609 17.763C14.2361 16.8731 13.37 16.2428 12.7856 15.7398C12.4961 15.4905 12.3102 15.3011 12.1955 15.155C12.0993 15.0324 12.0799 14.9737 12.078 14.968C12.0151 14.6334 12.1268 14.2897 12.3744 14.056C12.3792 14.0524 12.4295 14.0163 12.5793 13.9737C12.758 13.9229 13.0196 13.879 13.4005 13.8475C14.1689 13.784 15.2401 13.7832 16.754 13.7832H18.0216C18.0707 13.7832 18.1195 13.7833 18.1678 13.7833C18.8562 13.7844 19.4604 13.7853 19.9978 13.5725L19.6297 12.6427L19.9978 13.5725C20.4676 13.3865 20.8828 13.0848 21.2049 12.6955C21.5733 12.2501 21.7592 11.6753 21.9709 11.0202C21.9858 10.9742 22.0008 10.9278 22.016 10.8811L22.4077 9.67558Z" fill="#FDE45F" stroke="#FDC15F" stroke-width="2"/>
</svg>
