<svg width="315" height="87" viewBox="0 0 315 87" fill="none" xmlns="http://www.w3.org/2000/svg">
<path d="M1.12 23.4V25.88H18.92V23.4H1.12ZM11.38 24.4L8.96 24.96C10.48 30.46 12.98 34.6 17.56 36.74C17.96 36.04 18.76 35 19.36 34.46C15.12 32.78 12.58 28.98 11.38 24.4ZM8.62 18.02C8.56 23.44 8.92 31.04 0.72 34.7C1.42 35.22 2.16 36.08 2.54 36.74C11.12 32.6 11.16 24.12 11.26 18.02H8.62ZM23.9 18V23.98H26.24V18H23.9ZM23.9 28.96V36.76H26.24V28.96H23.9ZM23.42 27.46H26.68V28.62H23.42V27.46ZM23.42 24.8H26.68V25.96H23.42V24.8ZM21.3 23.1V30.32H28.88V23.1H21.3ZM20.82 19.84V21.94H29.26V19.84H20.82ZM20.64 31.46V33.58H29.32V31.46H20.64ZM30.24 19.5V21.22H35.84V22.92H37.92V19.5H30.24ZM29.3 22.36V24.2H39.4V22.36H29.3ZM29.26 32.66V34.5H39.44V32.66H29.26ZM32.36 18C32.14 19.6 31.78 21.64 31.46 22.96H33.68C33.96 21.72 34.34 19.76 34.58 18.18L32.36 18ZM32.34 26.38H36.12V27.58H32.34V26.38ZM30.12 24.84V29.12H38.44V24.84H30.12ZM33.9 28.64V36.78H36.12V28.64H33.9ZM30.3 29.9V33.66H32.3V31.52H38.7V29.9H30.3ZM49.84 25.12C50.22 31.32 52.88 36.82 56.42 36.82C58.24 36.82 59.1 36.1 59.44 32.72C58.78 32.52 57.9 32.04 57.36 31.54C57.24 33.58 57.04 34.42 56.54 34.44C54.8 34.46 52.58 30.02 52.3 25.12H49.84ZM44.26 27.52V29.76H58.98V27.52H44.26ZM40.88 33.96L41.4 36.46C43.98 36.12 47.54 35.66 50.86 35.18L50.78 32.82C47.26 33.26 43.4 33.72 40.88 33.96ZM43 18.94V34.88H45.48V18.94H43ZM44.2 18.94V21.16H55.12V23.32H44.2V25.54H57.56V18.94H44.2ZM64.96 22.08V24.18H74.82V22.08H64.96ZM65.48 26.08V28.1H74.4V26.08H65.48ZM64.74 30.48V32.44H75.16V30.48H64.74ZM68.76 22.74V31.52H70.98V22.74H68.76ZM71.62 28.74C72.2 29.36 72.88 30.24 73.2 30.8L74.8 29.9C74.46 29.36 73.74 28.52 73.14 27.94L71.62 28.74ZM61.52 18.8V36.78H63.96V21H75.84V36.78H78.42V18.8H61.52ZM62.84 33.58V35.78H77.02V33.58H62.84ZM87.1 19.94V21.76H95.84V26.14H87V27.96H98.08V19.94H87.1ZM91.06 18V36.78H93.52V18H91.06ZM86.02 22.9V24.94H99.32V22.9H86.02ZM85.9 32.06V34.06H99.08V32.06H85.9ZM86.88 29.02V30.9H98.32V29.02H86.88ZM81.68 20.04C82.78 20.82 84.4 21.98 85.14 22.68L86.66 20.78C85.84 20.1 84.2 19.04 83.12 18.36L81.68 20.04ZM80.48 25.14C81.6 25.9 83.24 27.02 84 27.68L85.42 25.78C84.58 25.14 82.9 24.1 81.84 23.44L80.48 25.14ZM81.02 34.88L83.1 36.4C84.16 34.46 85.24 32.2 86.14 30.1L84.28 28.58C83.26 30.9 81.96 33.36 81.02 34.88ZM107.28 22.86V25.26H115.54V22.86H107.28ZM106.52 30.6C109.26 31.86 112.58 33.94 114.08 35.56L115.74 33.28C114.1 31.66 110.68 29.74 108 28.62L106.52 30.6ZM107.82 19.04C106.8 22.64 104.64 27.18 101.64 29.86C102.32 30.16 103.38 30.78 103.94 31.2C106.88 28.34 109.1 23.7 110.48 19.64L107.82 19.04ZM114.54 22.86V23.46C113.88 25.6 112.18 28.88 110.4 31.06C111.06 31.38 112.02 32.02 112.56 32.48C114.46 30.04 116.4 26.58 117.38 23.74L115.56 22.76L115.1 22.86H114.54ZM126.14 20.52V22.68H139.26V20.52H126.14ZM128.16 27.3V29.32H137.06V27.3H128.16ZM128.16 30.6V32.62H137.06V30.6H128.16ZM131.54 18V36.78H133.82V18H131.54ZM127 23.92V36.76H129.24V26.06H137.1V23.92H127ZM136.2 23.92V34.34C136.2 34.56 136.12 34.62 135.9 34.64C135.68 34.64 135 34.64 134.36 34.6C134.62 35.2 134.9 36.16 134.96 36.76C136.18 36.78 137.06 36.74 137.7 36.38C138.32 36 138.48 35.4 138.48 34.36V23.92H136.2ZM134.46 19.36C135.32 19.82 136.54 20.58 137.2 21.04L138.54 19.48C137.86 19.04 136.68 18.4 135.76 17.96L134.46 19.36ZM121.42 19.88C122.58 20.52 124.22 21.48 125 22.06L126.4 20.1C125.54 19.56 123.86 18.7 122.76 18.14L121.42 19.88ZM120.54 25.32C121.7 25.94 123.38 26.86 124.18 27.42L125.56 25.42C124.7 24.9 123 24.06 121.86 23.56L120.54 25.32ZM120.98 35.08L123.1 36.54C124.2 34.56 125.34 32.24 126.3 30.08L124.44 28.62C123.36 30.98 121.96 33.52 120.98 35.08ZM147.28 22.86V25.26H155.54V22.86H147.28ZM146.52 30.6C149.26 31.86 152.58 33.94 154.08 35.56L155.74 33.28C154.1 31.66 150.68 29.74 148 28.62L146.52 30.6ZM147.82 19.04C146.8 22.64 144.64 27.18 141.64 29.86C142.32 30.16 143.38 30.78 143.94 31.2C146.88 28.34 149.1 23.7 150.48 19.64L147.82 19.04ZM154.54 22.86V23.46C153.88 25.6 152.18 28.88 150.4 31.06C151.06 31.38 152.02 32.02 152.56 32.48C154.46 30.04 156.4 26.58 157.38 23.74L155.56 22.76L155.1 22.86H154.54ZM8.68 52.14V53.78H15.7V52.14H8.68ZM8.66 49.3V51.12H14.94V54.84H8.66V56.68H17.22V49.3H8.66ZM5.74 60.38L6.1 62.56C8.04 62.24 10.6 61.82 13 61.4L12.86 59.38C10.28 59.76 7.58 60.16 5.74 60.38ZM13.28 55.62L11.28 55.94C12.38 59.62 14.34 61.86 18.18 62.84C18.48 62.22 19.08 61.32 19.58 60.86C16.1 60.22 14.16 58.4 13.28 55.62ZM17.5 56.3C16.64 57.14 15.14 58.26 14.08 58.9L15.32 60.1C16.44 59.5 17.9 58.56 19.1 57.66L17.5 56.3ZM7.48 49.3V61.06L9.7 60.68V49.3H7.48ZM4.84 46.06V48.22H19.18V46.06H4.84ZM3.54 46.06V52.1C3.54 54.94 3.32 58.64 0.86 61.14C1.34 61.46 2.26 62.3 2.58 62.76C5.38 59.98 5.82 55.32 5.82 52.12V46.06H3.54ZM9.68 44.02V47.54H12.22V44.02H9.68ZM0.46 48.56C1.06 49.78 1.64 51.38 1.82 52.38L3.66 51.4C3.48 50.4 2.84 48.86 2.2 47.7L0.46 48.56ZM0.28 55.4L0.98 57.66C2.14 57 3.38 56.26 4.54 55.52L3.98 53.64C2.6 54.34 1.24 55 0.28 55.4ZM23.5 46.76H25.78V49.46H23.5V46.76ZM21.52 44.76V51.46H27.86V44.76H21.52ZM24 50.54V59.72H26.02V50.54H24ZM32.52 44.18V48.76H34.92V44.18H32.52ZM21.36 52.84V60.28H23.22V52.84H21.36ZM20.44 59.5L20.88 61.68C22.94 61.18 25.66 60.52 28.2 59.86L27.98 57.84C25.24 58.48 22.36 59.14 20.44 59.5ZM24.88 53.64V55.68H27.96V53.64H24.88ZM28.34 47.14V49.44H39.28V47.14H28.34ZM34.14 48.7V60.2C34.14 60.46 34.06 60.52 33.78 60.54C33.52 60.54 32.7 60.54 31.88 60.52C32.18 61.18 32.46 62.18 32.52 62.82C33.88 62.82 34.82 62.76 35.5 62.38C36.18 62 36.36 61.36 36.36 60.24V48.7H34.14ZM29.02 51.32C28.74 53.36 28.16 55.42 27.26 56.74C27.72 56.98 28.6 57.54 28.98 57.84C29.92 56.36 30.64 54.02 31.04 51.68L29.02 51.32ZM35.94 51.82C36.76 53.68 37.5 56.16 37.68 57.76L39.68 56.94C39.44 55.32 38.7 52.92 37.8 51.08L35.94 51.82ZM31.18 48.02V52.6C31.18 55.38 30.72 58.72 27.2 61.26C27.76 61.68 28.48 62.32 28.86 62.8C32.68 59.98 33.22 56.08 33.22 52.62V48.02H31.18ZM49.72 44.96L47.08 44.74C47.02 45.76 46.76 46.98 46.36 48.06C45.52 50.26 43.98 52.42 41.42 54.78L43.56 56.38C44.24 55.5 44.8 54.78 45.4 54.18C46.16 53.46 47.42 52.8 48.52 52.8C49.36 52.8 50.16 53.22 50.16 54.5C50.18 55.58 50.14 57.28 50.06 58.22H52.46C52.44 56.96 52.38 54.78 52.38 53.7C52.38 51.84 51.12 50.86 49.46 50.86C48.78 50.86 47.72 51 47.18 51.24C47.74 50.44 48.32 49.3 48.74 48.32C49.3 46.88 49.56 45.7 49.72 44.96ZM42.18 46.82V49.14C43.28 49.24 44.74 49.28 45.56 49.28C48 49.28 52.02 49.1 54.84 48.7L54.86 46.38C51.96 46.9 48.34 47.04 45.7 47.04C44.68 47.04 43.2 46.96 42.18 46.82ZM58.02 52.5L57.04 50.16C56.28 50.54 55.58 50.86 54.8 51.2C53.6 51.76 52.34 52.24 50.5 53.2C48.1 54.4 45.24 56.04 45.24 58.82C45.24 61.4 47.58 62.18 50.7 62.18C52.6 62.18 55.04 62 56.38 61.82L56.46 59.24C54.7 59.6 52.46 59.82 50.76 59.82C48.82 59.82 47.86 59.52 47.86 58.42C47.86 57.32 48.84 56.46 50.66 55.52C52.54 54.56 54.34 53.84 55.64 53.34C56.32 53.08 57.4 52.68 58.02 52.5ZM62.64 45.12V47.28H66.16V55.2H62.64V57.4H68.38V45.12H62.64ZM62.66 50.12V52.26H67.04V50.12H62.66ZM71.2 44.82V47.04H77.34V44.82H71.2ZM71.2 49.6V51.76H77.34V49.6H71.2ZM71.16 54.34V56.48H77.32V54.34H71.16ZM61.36 45.12V59.14H63.58V45.12H61.36ZM76.44 44.82V60.02C76.44 60.38 76.32 60.5 75.96 60.5C75.62 60.5 74.4 60.52 73.32 60.46C73.66 61.08 74.04 62.12 74.14 62.78C75.84 62.78 76.98 62.72 77.78 62.34C78.56 61.96 78.82 61.3 78.82 60.06V44.82H76.44ZM69.76 44.82V52.06C69.76 55.12 69.46 58.88 66.08 61.34C66.6 61.66 67.52 62.48 67.88 62.96C71.58 60.24 72.12 55.54 72.12 52.08V44.82H69.76ZM86.66 44.9L86.04 47.32C87.6 47.72 92.04 48.64 94.08 48.92L94.68 46.46C92.92 46.28 88.56 45.5 86.66 44.9ZM86.8 48.92L84.1 48.56C83.98 51.04 83.5 54.96 83.1 56.92L85.42 57.48C85.58 57.08 85.8 56.76 86.16 56.34C87.42 54.82 89.44 53.98 91.7 53.98C93.46 53.98 94.68 54.92 94.68 56.22C94.68 58.78 91.52 60.24 85.5 59.4L86.28 62.02C94.58 62.74 97.48 59.94 97.48 56.28C97.48 53.86 95.44 51.7 91.94 51.7C89.84 51.7 87.84 52.3 86.04 53.62C86.18 52.46 86.52 50.04 86.8 48.92ZM109.22 45.22L106.26 44.9C106.28 46.4 106.06 48.1 105.68 49.9C105.12 52.42 103.62 57.7 101.24 60.9L103.86 61.94C105.94 58.56 107.56 52.86 108.22 50.04C108.42 49.02 108.68 47.78 108.86 46.88C108.98 46.38 109.1 45.74 109.22 45.22ZM116.12 47.08L113.72 48.1C115.16 49.88 116.58 53.48 117.1 55.72L119.64 54.54C119.02 52.62 117.34 48.82 116.12 47.08ZM101.12 49.32L101.36 52.02C101.96 51.92 103 51.78 103.58 51.7C104.68 51.56 108.12 51.12 109.32 51.12C110.56 51.12 111.26 51.36 111.26 52.96C111.26 54.92 111 57.36 110.44 58.48C110.12 59.14 109.62 59.34 108.94 59.34C108.42 59.34 107.28 59.14 106.5 58.92L106.92 61.56C107.62 61.72 108.56 61.84 109.34 61.84C110.84 61.84 111.94 61.4 112.62 60C113.46 58.28 113.74 55.04 113.74 52.68C113.74 49.78 112.24 48.84 110.14 48.84C108.64 48.84 104.86 49.28 103.26 49.32C102.52 49.34 101.84 49.36 101.12 49.32ZM128.94 47.02L128.96 49.58C131.46 49.82 135.1 49.82 137.54 49.58V47C135.4 47.26 131.4 47.36 128.94 47.02ZM130.54 55.56L128.26 55.36C128.02 56.38 127.9 57.16 127.9 57.96C127.9 60 129.56 61.24 133 61.24C135.26 61.24 136.88 61.1 138.18 60.84L138.12 58.14C136.38 58.52 134.9 58.68 133.12 58.68C131.08 58.68 130.3 58.14 130.3 57.24C130.3 56.72 130.38 56.24 130.54 55.56ZM125.86 45.68L123.06 45.46C123.04 46.1 122.94 46.86 122.86 47.4C122.64 48.96 122.04 52.32 122.04 55.34C122.04 58.06 122.42 60.5 122.82 61.86L125.12 61.72C125.1 61.44 125.1 61.1 125.08 60.88C125.08 60.68 125.14 60.24 125.2 59.94C125.4 58.88 126.06 56.72 126.64 55.04L125.4 54.06C125.1 54.74 124.78 55.42 124.48 56.1C124.42 55.7 124.4 55.2 124.4 54.8C124.4 52.8 125.1 48.8 125.38 47.48C125.46 47.12 125.72 46.1 125.86 45.68ZM147.42 45.14L144.2 45.12C144.36 45.9 144.44 46.86 144.44 47.82C144.44 49.54 144.26 54.78 144.26 57.46C144.26 60.88 146.36 62.32 149.64 62.32C154.2 62.32 157.04 59.66 158.34 57.74L156.52 55.52C155.06 57.7 152.98 59.6 149.68 59.6C148.12 59.6 146.92 58.94 146.92 56.92C146.92 54.44 147.06 49.98 147.16 47.82C147.2 47.02 147.3 45.98 147.42 45.14ZM160.815 47.26L161.075 50C163.395 49.48 167.475 49.06 169.355 48.86C167.995 49.88 166.375 52.14 166.375 55.02C166.375 59.36 170.335 61.62 174.535 61.88L175.455 59.14C172.075 58.96 168.995 57.78 168.995 54.48C168.995 52.12 170.815 49.52 173.215 48.88C174.295 48.64 176.015 48.62 177.095 48.62L177.075 46.04C175.655 46.1 173.475 46.22 171.415 46.4C167.735 46.72 164.455 47 162.775 47.16C162.395 47.2 161.595 47.24 160.815 47.26ZM183.655 45.88L183.755 48.44C184.275 48.38 184.975 48.3 185.395 48.28C186.295 48.22 188.035 48.16 188.835 48.14C188.235 49.38 187.415 51.34 186.715 52.92C185.995 54.5 185.275 56.34 184.615 57.32C184.235 57.82 183.975 58 183.575 58C183.095 58 182.715 57.66 182.715 57C182.715 55.54 184.395 53.96 187.315 53.96C191.435 53.96 194.955 56.24 197.415 58.42L198.575 55.64C196.475 54.2 192.395 51.72 187.735 51.72C183.455 51.72 180.395 54.18 180.395 57.38C180.395 59.42 181.715 60.62 183.455 60.62C184.835 60.62 185.775 60.08 186.575 58.86C187.395 57.6 188.355 55.22 189.155 53.38C190.055 51.3 191.135 48.72 191.815 47.58C191.975 47.32 192.215 47.06 192.475 46.76L190.895 45.5C190.535 45.64 190.015 45.76 189.515 45.8C188.595 45.88 186.475 45.96 185.315 45.96C184.895 45.96 184.195 45.92 183.655 45.88ZM196.815 50.6L194.195 50.3C194.275 50.92 194.255 51.72 194.215 52.5C194.035 54.84 193.435 58.58 188.495 60.7L190.635 62.44C195.415 59.96 196.535 56.28 196.815 50.6ZM200.815 47.26L201.075 50C203.395 49.48 207.475 49.06 209.355 48.86C207.995 49.88 206.375 52.14 206.375 55.02C206.375 59.36 210.335 61.62 214.535 61.88L215.455 59.14C212.075 58.96 208.995 57.78 208.995 54.48C208.995 52.12 210.815 49.52 213.215 48.88C214.295 48.64 216.015 48.62 217.095 48.62L217.075 46.04C215.655 46.1 213.475 46.22 211.415 46.4C207.735 46.72 204.455 47 202.775 47.16C202.395 47.2 201.595 47.24 200.815 47.26ZM233.469 46.6L231.129 44.52C230.809 45 230.169 45.66 229.589 46.22C228.249 47.54 225.489 49.76 223.929 51.04C221.929 52.7 221.769 53.78 223.749 55.48C225.589 57.02 228.529 59.54 229.729 60.8C230.329 61.4 230.929 62.02 231.489 62.66L233.809 60.5C231.769 58.52 227.969 55.54 226.469 54.28C225.389 53.34 225.369 53.1 226.429 52.2C227.769 51.04 230.409 49 231.709 47.96C232.169 47.58 232.829 47.06 233.469 46.6ZM247.649 45.28L244.589 45.04C244.649 45.5 244.629 46.32 244.529 47.06C244.389 48.26 243.929 50.44 243.409 52.32C242.669 55.12 241.149 59.32 239.949 61.32L242.749 62.26C243.849 59.9 245.189 55.8 245.909 53C246.449 50.98 246.929 48.52 247.209 47.16C247.309 46.72 247.509 45.82 247.649 45.28ZM242.549 48.26C241.729 48.26 241.069 48.24 240.029 48.12L240.109 50.6C240.809 50.64 241.549 50.68 242.529 50.68C244.789 50.68 247.929 50.36 250.409 49.78V47.28C247.809 47.9 244.989 48.26 242.549 48.26ZM248.829 51.34V53.68C250.089 53.52 251.309 53.46 252.709 53.46C253.909 53.46 255.129 53.58 256.149 53.7L256.189 51.3C255.029 51.18 253.829 51.12 252.689 51.12C251.369 51.12 249.949 51.22 248.829 51.34ZM249.909 56.36L247.529 56.12C247.349 56.92 247.189 57.88 247.189 58.8C247.189 60.82 248.989 62 252.369 62C253.969 62 255.309 61.84 256.429 61.7L256.529 59.14C255.109 59.4 253.709 59.56 252.389 59.56C250.229 59.56 249.649 58.9 249.649 58.02C249.649 57.58 249.769 56.92 249.909 56.36ZM254.049 45.86L252.469 46.5C253.009 47.28 253.629 48.46 254.049 49.28L255.649 48.6C255.269 47.86 254.569 46.58 254.049 45.86ZM256.429 44.94L254.849 45.6C255.389 46.36 256.049 47.52 256.449 48.36L258.049 47.68C257.689 46.96 256.949 45.7 256.429 44.94ZM268.909 46.82C269.149 47.48 269.429 48.4 269.869 49.5C270.489 51.16 271.369 52.84 272.089 54.02C271.469 53.96 270.149 53.86 269.169 53.76L268.969 55.88C270.649 56.02 273.189 56.28 274.309 56.5L275.529 54.72C275.169 54.3 274.809 53.88 274.469 53.38C273.809 52.46 272.869 50.74 272.249 49.06C271.769 47.78 271.289 46.2 270.989 44.66L268.289 44.98C268.529 45.64 268.769 46.36 268.909 46.82ZM261.629 47.76L261.669 50.3C265.769 50.64 268.929 50.56 271.589 50.24C273.189 50.06 274.909 49.76 276.229 49.38L275.929 46.88C274.349 47.36 272.589 47.7 270.809 47.92C268.409 48.18 265.369 48.2 261.629 47.76ZM265.649 54.56L263.149 53.98C262.469 55.34 262.089 56.48 262.089 57.7C262.089 60.6 264.649 62.18 268.749 62.18C271.169 62.18 272.969 61.92 274.109 61.72L274.249 59.18C272.849 59.46 271.089 59.68 268.909 59.68C266.169 59.66 264.669 58.96 264.669 57.26C264.669 56.4 264.989 55.52 265.649 54.56ZM283.969 46.72L280.889 46.68C281.029 47.3 281.049 48.16 281.049 48.7C281.049 49.92 281.069 52.28 281.269 54.12C281.829 59.48 283.729 61.44 285.949 61.44C287.549 61.44 288.789 60.24 290.129 56.74L288.109 54.32C287.729 55.9 286.949 58.26 285.989 58.26C284.729 58.26 284.129 56.28 283.849 53.4C283.729 51.94 283.729 50.46 283.729 49.16C283.729 48.6 283.829 47.42 283.969 46.72ZM293.969 47.16L291.429 48C293.609 50.48 294.689 55.32 294.989 58.56L297.629 57.52C297.409 54.46 295.869 49.46 293.969 47.16Z" fill="#FEFEFE"/>
<path d="M291.619 66.8435C292.033 66.1119 293.134 66.1391 293.507 66.8926C295.642 71.2103 297.134 72.7315 301.225 74.698C301.997 75.0688 302.028 76.202 301.281 76.6206C299.821 77.4395 297.867 78.6564 296.647 79.8998C295.487 81.0828 294.346 82.9496 293.573 84.3469C293.166 85.0841 292.041 85.0881 291.631 84.3524C290.827 82.9101 289.629 80.9629 288.44 79.7735C287.254 78.5879 285.316 77.3943 283.875 76.5903C283.137 76.1785 283.144 75.0467 283.885 74.6399C285.284 73.8715 287.145 72.7349 288.314 71.566C289.521 70.3586 290.78 68.3276 291.619 66.8435Z" fill="#FFF48E"/>
<path d="M303.923 60.1493C303.556 59.9433 303.569 59.3935 303.946 59.2081C306.321 58.0412 307.13 57.2467 308.204 54.9948C308.388 54.6086 308.954 54.5928 309.162 54.9668C309.599 55.7514 310.265 56.8337 310.947 57.5019C311.595 58.1379 312.629 58.7634 313.38 59.1752C313.749 59.3777 313.751 59.9395 313.382 60.1434C312.608 60.5721 311.53 61.2279 310.879 61.8792C310.23 62.5285 309.576 63.6013 309.147 64.3753C308.943 64.745 308.378 64.7421 308.175 64.371C307.766 63.6185 307.143 62.5875 306.502 61.9465C305.841 61.2861 304.719 60.5968 303.923 60.1493Z" fill="#FEFEFE"/>
<path d="M187.619 1.84349C188.033 1.1119 189.134 1.13909 189.507 1.89261C191.642 6.21032 193.134 7.73147 197.225 9.69801C197.997 10.0688 198.028 11.202 197.281 11.6206C195.821 12.4395 193.867 13.6564 192.647 14.8998C191.487 16.0828 190.346 17.9496 189.573 19.3469C189.166 20.0841 188.041 20.0881 187.631 19.3524C186.827 17.9101 185.629 15.9629 184.44 14.7735C183.254 13.5879 181.316 12.3943 179.875 11.5903C179.137 11.1785 179.144 10.0467 179.885 9.63993C181.284 8.87155 183.145 7.73494 184.314 6.56599C185.521 5.35865 186.78 3.32759 187.619 1.84349Z" fill="#FDC15F"/>
<path d="M167.923 27.1493C167.556 26.9433 167.569 26.3935 167.946 26.2081C170.321 25.0412 171.13 24.2467 172.204 21.9948C172.388 21.6086 172.954 21.5928 173.162 21.9668C173.599 22.7514 174.265 23.8337 174.947 24.5019C175.595 25.1379 176.629 25.7634 177.38 26.1752C177.749 26.3777 177.751 26.9395 177.382 27.1434C176.608 27.5721 175.53 28.2279 174.879 28.8792C174.23 29.5285 173.576 30.6013 173.147 31.3753C172.943 31.745 172.378 31.7421 172.175 31.371C171.766 30.6185 171.143 29.5875 170.502 28.9465C169.841 28.2861 168.719 27.5968 167.923 27.1493Z" fill="#FFF48E"/>
</svg>
