<svg width="132" height="29" viewBox="0 0 132 29" fill="none" xmlns="http://www.w3.org/2000/svg">
<rect width="132" height="29" rx="2.5" fill="#AFABAB"/>
<path d="M36.3303 11.872V13.049H39.1023V11.872H36.3303ZM36.3303 15.029V16.206H39.1023V15.029H36.3303ZM34.5703 10.497C33.0413 10.497 31.9413 11.905 31.9413 14.127C31.9413 16.371 33.0413 17.779 34.5703 17.779C36.0883 17.779 37.1993 16.371 37.1993 14.127C37.1993 11.905 36.0883 10.497 34.5703 10.497ZM34.5703 11.828C35.3183 11.828 35.8133 12.631 35.8133 14.127C35.8133 15.645 35.3183 16.459 34.5703 16.459C33.8333 16.459 33.3273 15.645 33.3273 14.127C33.3273 12.631 33.8333 11.828 34.5703 11.828ZM38.8713 9.782V20.001H40.3233V9.782H38.8713ZM48.5834 9.793V16.173H49.9694V9.793H48.5834ZM47.3404 12.301V13.489H48.9684V12.301H47.3404ZM46.4714 9.991V15.843H47.8354V9.991H46.4714ZM41.2464 10.838V11.96H46.1854V10.838H41.2464ZM43.7324 12.29C42.4564 12.29 41.5324 13.016 41.5324 14.072C41.5324 15.128 42.4564 15.843 43.7324 15.843C45.0084 15.843 45.9324 15.128 45.9324 14.072C45.9324 13.016 45.0084 12.29 43.7324 12.29ZM43.7324 13.335C44.2604 13.335 44.6234 13.599 44.6234 14.072C44.6234 14.545 44.2604 14.809 43.7324 14.809C43.1934 14.809 42.8304 14.545 42.8304 14.072C42.8304 13.599 43.1934 13.335 43.7324 13.335ZM42.9954 9.892V11.608H44.4364V9.892H42.9954ZM46.5264 16.283C44.3374 16.283 43.0174 16.943 43.0174 18.131C43.0174 19.308 44.3374 19.979 46.5264 19.979C48.7044 19.979 50.0244 19.308 50.0244 18.131C50.0244 16.943 48.7044 16.283 46.5264 16.283ZM46.5264 17.372C47.8794 17.372 48.5614 17.603 48.5614 18.131C48.5614 18.648 47.8794 18.89 46.5264 18.89C45.1624 18.89 44.4804 18.648 44.4804 18.131C44.4804 17.603 45.1624 17.372 46.5264 17.372ZM53.2575 11.399V12.543C53.2575 14.27 52.4325 16.151 50.7275 16.91L51.5525 18.065C53.4665 17.196 54.4235 14.897 54.4235 12.543V11.399H53.2575ZM53.5875 11.399V12.543C53.5875 14.809 54.5335 16.976 56.4695 17.812L57.2615 16.657C55.5565 15.953 54.7425 14.193 54.7425 12.543V11.399H53.5875ZM51.1345 10.772V11.971H56.8435V10.772H51.1345ZM57.7895 9.793V19.979H59.2635V9.793H57.7895ZM64.3887 13.544V14.721H66.0607V13.544H64.3887ZM67.6777 9.793V19.979H69.0747V9.793H67.6777ZM65.5987 9.947V19.517H66.9737V9.947H65.5987ZM62.6067 10.508C61.2647 10.508 60.4067 11.905 60.4067 14.204C60.4067 16.514 61.2647 17.911 62.6067 17.911C63.9597 17.911 64.8287 16.514 64.8287 14.204C64.8287 11.905 63.9597 10.508 62.6067 10.508ZM62.6067 11.883C63.1787 11.883 63.4977 12.653 63.4977 14.204C63.4977 15.766 63.1787 16.525 62.6067 16.525C62.0567 16.525 61.7377 15.766 61.7377 14.204C61.7377 12.653 62.0567 11.883 62.6067 11.883ZM74.9698 12.972V14.149H77.6538V12.972H74.9698ZM72.1978 10.574V12.048C72.1978 13.984 71.4278 15.953 69.6898 16.756L70.6028 17.933C72.5168 16.976 73.3858 14.611 73.3858 12.048V10.574H72.1978ZM72.5058 10.574V12.048C72.5058 14.589 73.3088 16.833 75.2228 17.757L76.0918 16.591C74.4088 15.843 73.6718 13.984 73.6718 12.048V10.574H72.5058ZM76.9278 9.782V20.001H78.3798V9.782H76.9278ZM84.0995 11.729V11.85C84.0995 12.73 83.4065 13.566 81.8335 13.852L82.4165 14.985C84.3745 14.589 85.2765 13.357 85.2765 11.85V11.729H84.0995ZM84.3965 11.729V11.85C84.3965 13.291 85.2985 14.468 87.2235 14.831L87.7955 13.709C86.2555 13.434 85.5735 12.675 85.5735 11.85V11.729H84.3965ZM82.1085 10.805V11.927H87.5535V10.805H82.1085ZM84.0995 9.815V11.608H85.5735V9.815H84.0995ZM84.0885 15.579V19.671H85.5515V15.579H84.0885ZM88.5435 9.793V19.979H89.9955V9.793H88.5435ZM81.6795 16.602C83.4945 16.602 85.8595 16.569 88.0595 16.173L87.9605 15.117C85.8265 15.403 83.3515 15.414 81.5035 15.414L81.6795 16.602ZM90.9956 17.592V18.791H100.214V17.592H90.9956ZM94.8236 15.326V17.911H96.2756V15.326H94.8236ZM94.7686 10.354V11.091C94.7686 12.499 93.5256 14.061 91.2046 14.435L91.8096 15.656C94.4716 15.172 96.0446 13.258 96.0446 11.091V10.354H94.7686ZM95.0546 10.354V11.091C95.0546 13.291 96.6276 15.161 99.3006 15.656L99.9056 14.435C97.5736 14.061 96.3306 12.532 96.3306 11.091V10.354H95.0546Z" fill="white"/>
</svg>
