<svg width="30" height="26" viewBox="0 0 30 26" fill="none" xmlns="http://www.w3.org/2000/svg">
<ellipse cx="15" cy="15.6341" rx="3.5" ry="3.5122" stroke="#26265C" stroke-width="2"/>
<path d="M10.074 3.87495L11.0337 4.15621V4.15621L10.074 3.87495ZM9.50213 5.82617L8.5425 5.5449V5.54491L9.50213 5.82617ZM20.4979 5.82617L21.4575 5.54491V5.5449L20.4979 5.82617ZM19.926 3.87494L18.9663 4.15621L19.926 3.87494ZM11.0337 4.15621C11.4083 2.87811 12.5807 2 13.9126 2V0C11.6928 0 9.73875 1.46351 9.1144 3.59368L11.0337 4.15621ZM10.4618 6.10743L11.0337 4.15621L9.1144 3.59368L8.5425 5.5449L10.4618 6.10743ZM8.9443 7.26831C9.71403 7.26831 10.2817 6.7219 10.4618 6.10743L8.5425 5.54491C8.5748 5.43471 8.70006 5.26831 8.9443 5.26831V7.26831ZM5 7.26831H8.9443V5.26831H5V7.26831ZM2 10.2683C2 8.61146 3.34315 7.26831 5 7.26831V5.26831C2.23858 5.26831 0 7.50689 0 10.2683H2ZM2 21V10.2683H0V21H2ZM5 24C3.34315 24 2 22.6569 2 21H0C0 23.7614 2.23858 26 5 26V24ZM25 24H5V26H25V24ZM28 21C28 22.6569 26.6569 24 25 24V26C27.7614 26 30 23.7614 30 21H28ZM28 10.2683V21H30V10.2683H28ZM25 7.26831C26.6569 7.26831 28 8.61146 28 10.2683H30C30 7.50689 27.7614 5.26831 25 5.26831V7.26831ZM21.0557 7.26831H25V5.26831H21.0557V7.26831ZM19.5382 6.10743C19.7183 6.7219 20.286 7.26831 21.0557 7.26831V5.26831C21.2999 5.26831 21.4252 5.4347 21.4575 5.54491L19.5382 6.10743ZM18.9663 4.15621L19.5382 6.10743L21.4575 5.5449L20.8856 3.59368L18.9663 4.15621ZM16.0874 2C17.4193 2 18.5917 2.8781 18.9663 4.15621L20.8856 3.59368C20.2613 1.46351 18.3072 0 16.0874 0V2ZM13.9126 2H16.0874V0H13.9126V2ZM13.2519 2.92676C12.3763 2.92676 11.6665 3.63655 11.6665 4.51212H13.6665C13.6665 4.74112 13.4809 4.92676 13.2519 4.92676V2.92676ZM16.7478 2.92676H13.2519V4.92676H16.7478V2.92676ZM18.3332 4.51212C18.3332 3.63655 17.6234 2.92676 16.7478 2.92676V4.92676C16.5188 4.92676 16.3332 4.74112 16.3332 4.51212H18.3332ZM16.7478 6.09749C17.6234 6.09749 18.3332 5.3877 18.3332 4.51212H16.3332C16.3332 4.28313 16.5188 4.09749 16.7478 4.09749V6.09749ZM13.2519 6.09749H16.7478V4.09749H13.2519V6.09749ZM11.6665 4.51212C11.6665 5.3877 12.3763 6.09749 13.2519 6.09749V4.09749C13.4809 4.09749 13.6665 4.28313 13.6665 4.51212H11.6665ZM21 15.5244C21 18.8549 18.3104 21.5488 15 21.5488V23.5488C19.4216 23.5488 23 19.9529 23 15.5244H21ZM15 9.5C18.3104 9.5 21 12.1939 21 15.5244H23C23 11.0959 19.4216 7.5 15 7.5V9.5ZM9 15.5244C9 12.1939 11.6896 9.5 15 9.5V7.5C10.5784 7.5 7 11.0959 7 15.5244H9ZM15 21.5488C11.6896 21.5488 9 18.8549 9 15.5244H7C7 19.9529 10.5784 23.5488 15 23.5488V21.5488Z" fill="#26265C"/>
<ellipse cx="15" cy="15.6341" rx="3.5" ry="3.5122" stroke="#26265C" stroke-width="2"/>
</svg>
