<svg width="132" height="29" viewBox="0 0 132 29" fill="none" xmlns="http://www.w3.org/2000/svg">
<rect width="132" height="29" rx="2.5" fill="#26265C"/>
<path d="M29.1534 11.872V13.049H31.9254V11.872H29.1534ZM29.1534 15.029V16.206H31.9254V15.029H29.1534ZM27.3934 10.497C25.8644 10.497 24.7644 11.905 24.7644 14.127C24.7644 16.371 25.8644 17.779 27.3934 17.779C28.9114 17.779 30.0224 16.371 30.0224 14.127C30.0224 11.905 28.9114 10.497 27.3934 10.497ZM27.3934 11.828C28.1414 11.828 28.6364 12.631 28.6364 14.127C28.6364 15.645 28.1414 16.459 27.3934 16.459C26.6564 16.459 26.1504 15.645 26.1504 14.127C26.1504 12.631 26.6564 11.828 27.3934 11.828ZM31.6944 9.782V20.001H33.1464V9.782H31.6944ZM42.0116 9.793V16.173H43.3976V9.793H42.0116ZM40.7686 12.301V13.489H42.3966V12.301H40.7686ZM39.8996 9.991V15.843H41.2636V9.991H39.8996ZM34.6746 10.838V11.96H39.6136V10.838H34.6746ZM37.1606 12.29C35.8846 12.29 34.9606 13.016 34.9606 14.072C34.9606 15.128 35.8846 15.843 37.1606 15.843C38.4366 15.843 39.3606 15.128 39.3606 14.072C39.3606 13.016 38.4366 12.29 37.1606 12.29ZM37.1606 13.335C37.6886 13.335 38.0516 13.599 38.0516 14.072C38.0516 14.545 37.6886 14.809 37.1606 14.809C36.6216 14.809 36.2586 14.545 36.2586 14.072C36.2586 13.599 36.6216 13.335 37.1606 13.335ZM36.4236 9.892V11.608H37.8646V9.892H36.4236ZM39.9546 16.283C37.7656 16.283 36.4456 16.943 36.4456 18.131C36.4456 19.308 37.7656 19.979 39.9546 19.979C42.1326 19.979 43.4526 19.308 43.4526 18.131C43.4526 16.943 42.1326 16.283 39.9546 16.283ZM39.9546 17.372C41.3076 17.372 41.9896 17.603 41.9896 18.131C41.9896 18.648 41.3076 18.89 39.9546 18.89C38.5906 18.89 37.9086 18.648 37.9086 18.131C37.9086 17.603 38.5906 17.372 39.9546 17.372ZM47.2907 11.399V12.543C47.2907 14.27 46.4657 16.151 44.7607 16.91L45.5857 18.065C47.4997 17.196 48.4567 14.897 48.4567 12.543V11.399H47.2907ZM47.6207 11.399V12.543C47.6207 14.809 48.5667 16.976 50.5027 17.812L51.2947 16.657C49.5897 15.953 48.7757 14.193 48.7757 12.543V11.399H47.6207ZM45.1677 10.772V11.971H50.8767V10.772H45.1677ZM51.8227 9.793V19.979H53.2967V9.793H51.8227ZM54.9678 17.669V18.857H64.1858V17.669H54.9678ZM58.8288 15.744V18.153H60.2918V15.744H58.8288ZM56.0018 10.453V11.608H61.6998V12.697H56.0238V15.557H57.4758V13.841H63.1518V10.453H56.0018ZM56.0238 14.974V16.151H63.3828V14.974H56.0238ZM73.0075 11.278V12.444H75.5155V11.278H73.0075ZM74.8665 9.793V14.963H76.3295V9.793H74.8665ZM69.5975 15.392V16.514H74.8775V17.075H69.6195V19.407H71.0605V18.131H76.3295V15.392H69.5975ZM69.6195 18.736V19.869H76.6155V18.736H69.6195ZM70.1365 10.123V10.849C70.1365 12.147 69.4215 13.39 67.7275 13.896L68.4755 15.051C70.4225 14.435 71.3245 12.774 71.3245 10.849V10.123H70.1365ZM70.4225 10.123V10.849C70.4225 12.675 71.2915 14.248 73.1505 14.853L73.8985 13.72C72.2925 13.236 71.6105 12.059 71.6105 10.849V10.123H70.4225ZM83.4456 12.257V13.445H85.3816V12.257H83.4456ZM84.9856 9.793V15.843H86.4486V9.793H84.9856ZM82.9946 16.063C80.8386 16.063 79.5076 16.8 79.5076 18.032C79.5076 19.275 80.8386 19.99 82.9946 19.99C85.1506 19.99 86.4816 19.275 86.4816 18.032C86.4816 16.8 85.1506 16.063 82.9946 16.063ZM82.9946 17.174C84.3256 17.174 85.0296 17.449 85.0296 18.032C85.0296 18.604 84.3256 18.879 82.9946 18.879C81.6746 18.879 80.9706 18.604 80.9706 18.032C80.9706 17.449 81.6746 17.174 82.9946 17.174ZM80.2776 10.816V11.454C80.2776 12.763 79.5516 14.116 77.8686 14.688L78.6166 15.843C80.5636 15.183 81.4656 13.401 81.4656 11.454V10.816H80.2776ZM80.5856 10.816V11.454C80.5856 13.269 81.4546 14.963 83.3466 15.59L84.0616 14.435C82.4556 13.896 81.7626 12.653 81.7626 11.454V10.816H80.5856ZM78.2646 10.409V11.575H83.7426V10.409H78.2646ZM94.5768 9.793V19.979H96.0288V9.793H94.5768ZM95.6988 13.764V14.985H97.5028V13.764H95.6988ZM87.9988 11.3V12.466H93.9278V11.3H87.9988ZM90.9798 13.038C89.4948 13.038 88.3948 14.05 88.3948 15.469C88.3948 16.888 89.4948 17.9 90.9798 17.9C92.4648 17.9 93.5648 16.888 93.5648 15.469C93.5648 14.05 92.4648 13.038 90.9798 13.038ZM90.9798 14.226C91.6728 14.226 92.1678 14.688 92.1678 15.469C92.1678 16.25 91.6728 16.712 90.9798 16.712C90.2868 16.712 89.7918 16.25 89.7918 15.469C89.7918 14.688 90.2868 14.226 90.9798 14.226ZM90.2428 9.958V11.74H91.7058V9.958H90.2428ZM105.18 9.793V19.979H106.654V9.793H105.18ZM102.177 10.849V11.113C102.177 13.841 101.121 15.689 98.1949 17.097L98.9539 18.263C102.573 16.514 103.629 13.962 103.629 10.849H102.177ZM98.7339 10.849V12.004H102.87V10.849H98.7339Z" fill="white"/>
</svg>
