<svg width="67" height="23" viewBox="0 0 67 23" fill="none" xmlns="http://www.w3.org/2000/svg">
<rect x="0.75" y="0.75" width="65.5" height="21.4429" rx="10.7215" fill="#FEFEFE" stroke="#AAAAFF" stroke-width="1.5"/>
<path d="M20.436 6.804V14.229H21.91V6.804H20.436ZM15.123 15.637V16.803H22.163V15.637H15.123ZM15.123 13.514V16.242H16.586V13.514H15.123ZM15.827 7.354V8.344C15.827 9.697 15.112 11.116 13.407 11.699L14.144 12.865C16.124 12.172 17.037 10.335 17.037 8.344V7.354H15.827ZM16.124 7.354V8.344C16.124 10.313 17.015 12.04 18.94 12.689L19.688 11.523C18.016 10.984 17.323 9.675 17.323 8.344V7.354H16.124ZM24.5051 7.651V8.828H30.9621V7.651H24.5051ZM23.5701 14.57V15.758H32.7771V14.57H23.5701ZM26.8261 11.072V15.153H28.2891V11.072H26.8261ZM30.4341 7.651V8.63C30.4341 9.851 30.4341 11.325 30.0271 13.349L31.4901 13.514C31.8971 11.336 31.8971 9.906 31.8971 8.63V7.651H30.4341ZM40.2123 6.793V16.979H41.6643V6.793H40.2123ZM41.3343 10.764V11.985H43.1383V10.764H41.3343ZM33.6343 8.3V9.466H39.5633V8.3H33.6343ZM36.6153 10.038C35.1303 10.038 34.0303 11.05 34.0303 12.469C34.0303 13.888 35.1303 14.9 36.6153 14.9C38.1003 14.9 39.2003 13.888 39.2003 12.469C39.2003 11.05 38.1003 10.038 36.6153 10.038ZM36.6153 11.226C37.3083 11.226 37.8033 11.688 37.8033 12.469C37.8033 13.25 37.3083 13.712 36.6153 13.712C35.9223 13.712 35.4273 13.25 35.4273 12.469C35.4273 11.688 35.9223 11.226 36.6153 11.226ZM35.8783 6.958V8.74H37.3413V6.958H35.8783ZM50.8154 6.793V16.979H52.2894V6.793H50.8154ZM47.8124 7.849V8.113C47.8124 10.841 46.7564 12.689 43.8304 14.097L44.5894 15.263C48.2084 13.514 49.2644 10.962 49.2644 7.849H47.8124ZM44.3694 7.849V9.004H48.5054V7.849H44.3694Z" fill="#AAAAFF"/>
</svg>
