<svg width="18" height="23" viewBox="0 0 18 23" fill="none" xmlns="http://www.w3.org/2000/svg">
<line x1="1" y1="22" x2="17" y2="22" stroke="#26265C" stroke-width="2" stroke-linecap="round"/>
<path d="M8 21L8 22L10 22L10 21L8 21ZM9.70711 0.292892C9.31658 -0.0976314 8.68342 -0.0976315 8.29289 0.292892L1.92893 6.65685C1.53841 7.04738 1.53841 7.68054 1.92893 8.07107C2.31946 8.46159 2.95262 8.46159 3.34315 8.07107L9 2.41421L14.6569 8.07107C15.0474 8.46159 15.6805 8.46159 16.0711 8.07107C16.4616 7.68054 16.4616 7.04738 16.0711 6.65685L9.70711 0.292892ZM10 21L10 1L8 1L8 21L10 21Z" fill="#26265C"/>
</svg>
