<svg width="356" height="51" viewBox="0 0 356 51" fill="none" xmlns="http://www.w3.org/2000/svg">
<rect width="356" height="51" rx="5" fill="#FD855F"/>
<path d="M141.207 24.0795C141.113 23.7727 140.982 23.4981 140.815 23.2557C140.652 23.0095 140.456 22.7992 140.224 22.625C139.997 22.4508 139.736 22.3201 139.44 22.233C139.145 22.142 138.823 22.0966 138.474 22.0966C137.849 22.0966 137.293 22.2538 136.804 22.5682C136.315 22.8826 135.931 23.3447 135.651 23.9545C135.374 24.5606 135.236 25.2992 135.236 26.1705C135.236 27.0492 135.374 27.7936 135.651 28.4034C135.927 29.0133 136.312 29.4773 136.804 29.7955C137.296 30.1098 137.868 30.267 138.52 30.267C139.111 30.267 139.622 30.1534 140.054 29.9261C140.49 29.6989 140.825 29.3769 141.06 28.9602C141.295 28.5398 141.412 28.0473 141.412 27.483L141.889 27.5568H138.73V25.9091H143.452V27.3068C143.452 28.303 143.24 29.1648 142.815 29.892C142.391 30.6193 141.808 31.1799 141.065 31.5739C140.323 31.964 139.471 32.1591 138.509 32.1591C137.437 32.1591 136.495 31.9186 135.685 31.4375C134.878 30.9527 134.247 30.2652 133.793 29.375C133.342 28.4811 133.117 27.4205 133.117 26.1932C133.117 25.2538 133.249 24.4148 133.514 23.6761C133.783 22.9375 134.158 22.3106 134.639 21.7955C135.12 21.2765 135.685 20.8826 136.332 20.6136C136.98 20.3409 137.685 20.2045 138.446 20.2045C139.09 20.2045 139.69 20.2992 140.247 20.4886C140.804 20.6742 141.298 20.9394 141.73 21.2841C142.166 21.6288 142.524 22.0379 142.804 22.5114C143.084 22.9848 143.268 23.5076 143.355 24.0795H141.207ZM145.399 32V23.2727H147.365V24.7557H147.467C147.649 24.2557 147.95 23.8655 148.371 23.5852C148.791 23.3011 149.293 23.1591 149.876 23.1591C150.467 23.1591 150.965 23.303 151.371 23.5909C151.78 23.875 152.068 24.2633 152.234 24.7557H152.325C152.518 24.2708 152.844 23.8845 153.303 23.5966C153.765 23.3049 154.312 23.1591 154.945 23.1591C155.748 23.1591 156.403 23.4129 156.911 23.9205C157.418 24.428 157.672 25.1686 157.672 26.142V32H155.609V26.4602C155.609 25.9186 155.465 25.5227 155.178 25.2727C154.89 25.0189 154.537 24.892 154.121 24.892C153.625 24.892 153.236 25.0473 152.956 25.358C152.679 25.6648 152.541 26.0644 152.541 26.5568V32H150.524V26.375C150.524 25.9242 150.388 25.5644 150.115 25.2955C149.846 25.0265 149.494 24.892 149.058 24.892C148.763 24.892 148.494 24.9678 148.251 25.1193C148.009 25.267 147.816 25.4773 147.672 25.75C147.528 26.0189 147.456 26.3333 147.456 26.6932V32H145.399ZM162.27 32.1761C161.717 32.1761 161.219 32.0777 160.776 31.8807C160.336 31.6799 159.988 31.3845 159.73 30.9943C159.476 30.6042 159.349 30.1231 159.349 29.5511C159.349 29.0587 159.44 28.6515 159.622 28.3295C159.804 28.0076 160.052 27.75 160.367 27.5568C160.681 27.3636 161.035 27.2178 161.429 27.1193C161.827 27.017 162.238 26.9432 162.662 26.8977C163.173 26.8447 163.588 26.7973 163.906 26.7557C164.224 26.7102 164.456 26.642 164.599 26.5511C164.747 26.4564 164.821 26.3106 164.821 26.1136V26.0795C164.821 25.6515 164.694 25.3201 164.44 25.0852C164.187 24.8504 163.821 24.733 163.344 24.733C162.84 24.733 162.44 24.8428 162.145 25.0625C161.853 25.2822 161.656 25.5417 161.554 25.8409L159.634 25.5682C159.785 25.0379 160.035 24.5947 160.384 24.2386C160.732 23.8788 161.158 23.6098 161.662 23.4318C162.166 23.25 162.723 23.1591 163.332 23.1591C163.753 23.1591 164.171 23.2083 164.588 23.3068C165.005 23.4053 165.385 23.5682 165.73 23.7955C166.075 24.0189 166.351 24.3239 166.56 24.7102C166.772 25.0966 166.878 25.5795 166.878 26.1591V32H164.901V30.8011H164.832C164.707 31.0436 164.531 31.2708 164.304 31.483C164.081 31.6913 163.798 31.8598 163.457 31.9886C163.12 32.1136 162.724 32.1761 162.27 32.1761ZM162.804 30.6648C163.217 30.6648 163.575 30.5833 163.878 30.4205C164.181 30.2538 164.414 30.0341 164.577 29.7614C164.743 29.4886 164.827 29.1913 164.827 28.8693V27.8409C164.762 27.8939 164.652 27.9432 164.497 27.9886C164.346 28.0341 164.175 28.0739 163.986 28.108C163.796 28.142 163.609 28.1723 163.423 28.1989C163.238 28.2254 163.077 28.2481 162.94 28.267C162.634 28.3087 162.359 28.3769 162.117 28.4716C161.874 28.5663 161.683 28.6989 161.543 28.8693C161.402 29.036 161.332 29.2519 161.332 29.517C161.332 29.8958 161.471 30.1818 161.747 30.375C162.024 30.5682 162.376 30.6648 162.804 30.6648ZM168.946 32V23.2727H171.003V32H168.946ZM169.98 22.0341C169.654 22.0341 169.374 21.9261 169.139 21.7102C168.904 21.4905 168.787 21.2273 168.787 20.9205C168.787 20.6098 168.904 20.3466 169.139 20.1307C169.374 19.911 169.654 19.8011 169.98 19.8011C170.31 19.8011 170.59 19.911 170.821 20.1307C171.056 20.3466 171.173 20.6098 171.173 20.9205C171.173 21.2273 171.056 21.4905 170.821 21.7102C170.59 21.9261 170.31 22.0341 169.98 22.0341ZM175.175 20.3636V32H173.118V20.3636H175.175ZM180.858 30.064V31.792H194.266V30.064H180.858ZM186.474 27.264V30.768H188.602V27.264H186.474ZM182.362 19.568V21.248H190.65V22.832H182.394V26.992H184.506V24.496H192.762V19.568H182.362ZM182.394 26.144V27.856H193.098V26.144H182.394ZM196.936 19.968V21.648H206.328V19.968H196.936ZM195.576 29.76V31.488H208.968V29.76H195.576ZM205.208 19.968V21.728C205.208 23.728 205.208 25.84 204.664 28.688L206.792 28.864C207.32 25.824 207.32 23.808 207.32 21.728V19.968H205.208ZM220.455 18.624V29.264H222.599V18.624H220.455ZM212.727 31.472V33.168H222.967V31.472H212.727ZM212.727 28.192V32.16H214.855V28.192H212.727ZM214.535 19.552C212.263 19.552 210.503 21.12 210.503 23.312C210.503 25.488 212.263 27.072 214.535 27.072C216.807 27.072 218.551 25.488 218.551 23.312C218.551 21.12 216.807 19.552 214.535 19.552ZM214.535 21.392C215.623 21.392 216.471 22.096 216.471 23.312C216.471 24.512 215.623 25.216 214.535 25.216C213.431 25.216 212.583 24.512 212.583 23.312C212.583 22.096 213.431 21.392 214.535 21.392Z" fill="#FEFEFE"/>
</svg>
