<svg width="185" height="140" viewBox="0 0 185 140" fill="none" xmlns="http://www.w3.org/2000/svg">
<mask id="mask0_497_18" style="mask-type:alpha" maskUnits="userSpaceOnUse" x="0" y="0" width="185" height="140">
<path d="M0 5.61497C0 2.51391 3.62219 0 8.09038 0H176.91C181.378 0 185 2.51391 185 5.61497V134.385C185 137.486 181.378 140 176.91 140H8.09038C3.62219 140 0 137.486 0 134.385V5.61497Z" fill="#26265C"/>
</mask>
<g mask="url(#mask0_497_18)">
<rect x="-18" y="-17" width="221" height="174" fill="#D9D9D9"/>
</g>
<path d="M96.6827 44.0773C97.102 43.3487 98.203 43.3747 98.5805 44.1257C100.314 47.5736 101.602 48.8903 104.861 50.491C105.629 50.8684 105.66 52.0034 104.917 52.4285C103.69 53.1306 102.153 54.1138 101.169 55.1167C100.234 56.0706 99.3128 57.5385 98.6515 58.7118C98.2379 59.4456 97.1092 59.4491 96.6932 58.7167C96.0034 57.5024 95.036 55.9688 94.0749 55.0076C93.1174 54.0502 91.592 53.0866 90.3799 52.3973C89.6453 51.9796 89.6514 50.8442 90.3885 50.4308C91.5621 49.7727 93.0237 48.855 93.9657 47.913C94.944 46.9348 95.9612 45.331 96.6827 44.0773Z" fill="#FEFEFE"/>
<path d="M79.9213 65.7754C79.5563 65.567 79.5695 65.0161 79.9456 64.8285C81.854 63.8765 82.5563 63.1883 83.4344 61.3819C83.6215 60.9971 84.188 60.9823 84.399 61.3545C84.7754 62.0185 85.3166 62.8751 85.869 63.4169C86.3946 63.9322 87.2127 64.4396 87.8478 64.7943C88.2156 64.9997 88.2171 65.563 87.8502 65.7697C87.1936 66.1394 86.3397 66.6718 85.8108 67.2007C85.2838 67.7277 84.7533 68.5774 84.3837 69.2331C84.1763 69.6011 83.6096 69.5981 83.4044 69.2287C83.0514 68.593 82.5461 67.778 82.027 67.2589C81.4896 66.7214 80.598 66.1619 79.9213 65.7754Z" fill="#FEFEFE"/>
<rect x="68" y="32" width="49" height="49" rx="16" stroke="#FEFEFE" stroke-width="2"/>
<path d="M70.1133 95.944V107.092H71.7213V95.944H70.1133ZM65.7333 96.724C64.0533 96.724 62.8173 98.26 62.8173 100.684C62.8173 103.132 64.0533 104.668 65.7333 104.668C67.4133 104.668 68.6493 103.132 68.6493 100.684C68.6493 98.26 67.4133 96.724 65.7333 96.724ZM65.7333 98.176C66.5613 98.176 67.1133 99.052 67.1133 100.684C67.1133 102.34 66.5613 103.228 65.7333 103.228C64.9053 103.228 64.3413 102.34 64.3413 100.684C64.3413 99.052 64.9053 98.176 65.7333 98.176ZM74.9243 96.952V104.428H80.2643V96.952H74.9243ZM78.7043 98.2V103.168H76.4963V98.2H78.7043ZM81.9923 95.944V107.092H83.6003V95.944H81.9923ZM88.9274 97.708V98.956C88.9274 100.84 88.0274 102.892 86.1674 103.72L87.0674 104.98C89.1554 104.032 90.1994 101.524 90.1994 98.956V97.708H88.9274ZM89.2874 97.708V98.956C89.2874 101.428 90.3194 103.792 92.4314 104.704L93.2954 103.444C91.4354 102.676 90.5474 100.756 90.5474 98.956V97.708H89.2874ZM86.6114 97.024V98.332H92.8394V97.024H86.6114ZM93.8714 95.956V107.068H95.4794V95.956H93.8714ZM102.773 102.46V106.948H106.829V102.46H105.353V103.552H104.249V102.46H102.773ZM104.249 104.704H105.353V105.748H104.249V104.704ZM108.545 102.376V103.204C108.545 104.248 108.005 105.316 106.673 105.868L107.453 107.056C109.097 106.42 109.757 104.836 109.757 103.204V102.376H108.545ZM108.917 102.376V103.204C108.917 104.956 109.541 106.456 111.221 107.056L112.013 105.868C110.657 105.412 110.129 104.356 110.129 103.204V102.376H108.917ZM107.165 98.332V99.628H109.949V98.332H107.165ZM104.621 96.376C102.941 96.376 101.681 97.456 101.681 98.992C101.681 100.528 102.941 101.62 104.621 101.62C106.289 101.62 107.549 100.528 107.549 98.992C107.549 97.456 106.289 96.376 104.621 96.376ZM104.621 97.684C105.437 97.684 106.025 98.176 106.025 98.992C106.025 99.808 105.437 100.312 104.621 100.312C103.805 100.312 103.205 99.808 103.205 98.992C103.205 98.176 103.805 97.684 104.621 97.684ZM109.253 95.956V101.836H110.849V95.956H109.253ZM118.456 96.16C116.008 96.16 114.436 96.988 114.436 98.332C114.436 99.676 116.008 100.492 118.456 100.492C120.904 100.492 122.476 99.676 122.476 98.332C122.476 96.988 120.904 96.16 118.456 96.16ZM118.456 97.396C119.968 97.396 120.832 97.696 120.832 98.332C120.832 98.956 119.968 99.268 118.456 99.268C116.932 99.268 116.08 98.956 116.08 98.332C116.08 97.696 116.932 97.396 118.456 97.396ZM114.592 103.156V106.948H122.272V103.156H114.592ZM120.712 104.416V105.688H116.164V104.416H120.712ZM113.428 101.128V102.388H123.472V101.128H113.428Z" fill="#FEFEFE"/>
</svg>
