<svg width="27" height="27" viewBox="0 0 27 27" fill="none" xmlns="http://www.w3.org/2000/svg">
<path d="M12.3548 2.17952C12.8121 1.40298 14.0272 1.4418 14.4336 2.23008C15.8025 4.88466 17.0696 6.84316 18.6611 8.4635C20.2563 10.0876 22.1297 11.3236 24.6451 12.6008C25.4618 13.0156 25.5049 14.2914 24.7059 14.7615C22.7215 15.9291 20.3283 17.5049 18.7123 19.1528C17.1771 20.7182 15.7026 23.002 14.6044 24.8986C14.1433 25.6949 12.8375 25.695 12.3772 24.9051C11.2309 22.9379 9.68065 20.5456 8.09568 18.9607C6.51802 17.383 4.14068 15.8399 2.17937 14.6955C1.38788 14.2337 1.38781 12.9147 2.19178 12.4508C4.08664 11.3575 6.36145 9.88627 7.91049 8.33723C9.5267 6.72102 11.1556 4.21573 12.3548 2.17952Z" stroke="#26265C" stroke-width="2"/>
</svg>
