<svg width="75" height="31" viewBox="0 0 75 31" fill="none" xmlns="http://www.w3.org/2000/svg">
<g filter="url(#filter0_b_632_213)">
<rect width="75" height="30.4837" rx="15" fill="#3333F1" fill-opacity="0.4"/>
<path d="M20.6836 9.786V14.378H29.4896V9.786H20.6836ZM27.6556 11.242V12.922H22.5036V11.242H27.6556ZM19.2416 15.596V17.066H30.9596V15.596H19.2416ZM24.1556 14.042V16.016H26.0176V14.042H24.1556ZM20.5436 18.004V19.474H27.6836V22.246H29.5456V18.004H20.5436ZM35.1165 10.57V11.396C35.1165 13.02 34.1925 14.728 32.0505 15.428L32.9885 16.898C35.4805 16.086 36.6285 13.832 36.6285 11.396V10.57H35.1165ZM35.5085 10.57V11.396C35.5085 13.692 36.6145 15.848 39.0225 16.646L39.9325 15.19C37.8885 14.504 37.0065 12.908 37.0065 11.396V10.57H35.5085ZM39.1765 12.376V13.888H41.6405V12.376H39.1765ZM32.5545 9.996V11.466H39.5265V9.996H32.5545ZM34.1365 17.584V19.068H41.1085V22.246H42.9705V17.584H34.1365ZM41.1085 9.282V16.996H42.9705V9.282H41.1085ZM48.1215 11.326V12.782C48.1215 14.98 47.0715 17.374 44.9015 18.34L45.9515 19.81C48.3875 18.704 49.6055 15.778 49.6055 12.782V11.326H48.1215ZM48.5415 11.326V12.782C48.5415 15.666 49.7455 18.424 52.2095 19.488L53.2175 18.018C51.0475 17.122 50.0115 14.882 50.0115 12.782V11.326H48.5415ZM45.4195 10.528V12.054H52.6855V10.528H45.4195ZM53.8895 9.282V22.246H55.7655V9.282H53.8895Z" fill="#FEFEFE"/>
</g>
<circle cx="11" cy="16" r="3" fill="#2E29FF"/>
<defs>
<filter id="filter0_b_632_213" x="-4" y="-4" width="83" height="38.4838" filterUnits="userSpaceOnUse" color-interpolation-filters="sRGB">
<feFlood flood-opacity="0" result="BackgroundImageFix"/>
<feGaussianBlur in="BackgroundImage" stdDeviation="2"/>
<feComposite in2="SourceAlpha" operator="in" result="effect1_backgroundBlur_632_213"/>
<feBlend mode="normal" in="SourceGraphic" in2="effect1_backgroundBlur_632_213" result="shape"/>
</filter>
</defs>
</svg>
