<svg width="59" height="34" viewBox="0 0 59 34" fill="none" xmlns="http://www.w3.org/2000/svg">
<g filter="url(#filter0_d_1315_316)">
<g filter="url(#filter1_b_1315_316)">
<rect x="4" y="4" width="51" height="26" rx="13" fill="white" fill-opacity="0.46"/>
<path d="M22.815 15.55V16.64H29.755V15.55H22.815ZM21.705 17.43V18.54H30.825V17.43H21.705ZM22.105 20.49L22.205 21.72C24.065 21.63 26.825 21.47 29.375 21.3L29.415 20.18C26.815 20.31 23.935 20.44 22.105 20.49ZM27.175 19.14C28.115 19.99 29.155 21.18 29.565 22L30.685 21.36C30.215 20.51 29.135 19.37 28.205 18.58L27.175 19.14ZM24.365 18.01C24.135 18.83 23.675 19.93 23.275 20.64L24.345 21.01C24.775 20.35 25.305 19.33 25.765 18.4L24.365 18.01ZM21.815 13.32V14.42H30.715V13.32H21.815ZM23.915 12.51V15.23H25.105V12.51H23.915ZM27.415 12.51V15.23H28.615V12.51H27.415ZM34.875 16.71C34.815 17.94 34.685 19.2 34.325 20C34.555 20.13 34.955 20.41 35.125 20.56C35.535 19.65 35.735 18.24 35.835 16.85L34.875 16.71ZM34.785 14.64V15.74H38.525V14.64H34.785ZM36.115 12.66V21.74H37.235V12.66H36.115ZM37.415 16.9C37.605 17.85 37.775 19.08 37.815 19.89L38.735 19.71C38.685 18.89 38.505 17.69 38.295 16.73L37.415 16.9ZM38.875 13.05V14.1H41.265V13.05H38.875ZM38.625 15.88V16.95H41.415V15.88H38.625ZM37.305 13.11C37.555 13.55 37.835 14.14 37.945 14.51L38.775 14.14C38.655 13.77 38.355 13.2 38.085 12.78L37.305 13.11ZM39.495 16.18V20.59C39.495 20.71 39.455 20.74 39.325 20.75C39.195 20.75 38.775 20.75 38.375 20.73C38.525 21.07 38.665 21.56 38.695 21.89C39.365 21.89 39.845 21.87 40.195 21.69C40.555 21.5 40.635 21.17 40.635 20.61V16.18H39.495ZM33.635 12.51C33.295 13.15 32.595 13.95 31.945 14.43C32.135 14.65 32.425 15.08 32.565 15.33C33.345 14.73 34.185 13.78 34.715 12.91L33.635 12.51ZM33.095 16.8V21.9H34.195V15.91L34.035 15.86L33.095 16.8ZM33.865 14.62C33.405 15.67 32.625 16.7 31.835 17.37C32.045 17.63 32.365 18.22 32.485 18.47C33.405 17.62 34.355 16.27 34.935 14.99L33.865 14.62Z" fill="#FEFEFE"/>
</g>
<path fill-rule="evenodd" clip-rule="evenodd" d="M16.8573 15.208L16.6479 16.2548C16.6493 16.2712 16.65 16.2877 16.65 16.3044C16.65 16.622 16.3926 16.8794 16.075 16.8794C15.7574 16.8794 15.5 16.622 15.5 16.3044C15.5 15.9869 15.7574 15.7294 16.075 15.7294C16.206 15.7294 16.3268 15.7733 16.4235 15.847L16.6128 14.9006C16.5775 14.861 16.5414 14.8223 16.5044 14.7844C16.5414 14.8223 16.5775 14.861 16.6128 14.9006L16.8529 13.7L17.15 13.7294V14.5223C17.15 14.9353 17.3141 15.3313 17.6061 15.6234L17.3939 15.8355C17.1533 15.5949 16.9855 15.295 16.9048 14.9702L16.8573 15.2076C17.2621 15.7786 17.5 16.4763 17.5 17.2294C17.5 16.5275 17.289 15.8418 16.8943 15.2614C16.8821 15.2435 16.8698 15.2257 16.8573 15.208ZM15.5 17.2294H17.5C17.5 19.1624 15.933 20.7294 14 20.7294C12.067 20.7294 10.5 19.1624 10.5 17.2294C10.5 15.2964 12.067 13.7294 14 13.7294C14.9401 13.7294 15.7936 14.1001 16.4224 14.7031C16.0963 14.3905 15.7112 14.1423 15.2868 13.9746L14.5516 15.8341C14.3809 15.7666 14.1948 15.7294 14 15.7294C13.1716 15.7294 12.5 16.401 12.5 17.2294C12.5 18.0579 13.1716 18.7294 14 18.7294C14.8284 18.7294 15.5 18.0579 15.5 17.2294ZM15.1 17.2294H15.5C15.5 16.5958 15.1071 16.0539 14.5516 15.8341L14.4045 16.2062C14.2793 16.1567 14.1428 16.1294 14 16.1294C13.3925 16.1294 12.9 16.6219 12.9 17.2294C12.9 17.8369 13.3925 18.3294 14 18.3294C14.6075 18.3294 15.1 17.8369 15.1 17.2294ZM14.5 17.2294H15.1C15.1 16.7648 14.8119 16.3674 14.4045 16.2062L14.1839 16.7643C14.127 16.7418 14.0649 16.7294 14 16.7294C13.7239 16.7294 13.5 16.9533 13.5 17.2294C13.5 17.5056 13.7239 17.7294 14 17.7294C14.2761 17.7294 14.5 17.5056 14.5 17.2294ZM14.5 17.2294H14L14.1839 16.7643C14.369 16.8376 14.5 17.0182 14.5 17.2294Z" fill="#5959FF"/>
</g>
<defs>
<filter id="filter0_d_1315_316" x="0" y="0" width="59" height="34" filterUnits="userSpaceOnUse" color-interpolation-filters="sRGB">
<feFlood flood-opacity="0" result="BackgroundImageFix"/>
<feColorMatrix in="SourceAlpha" type="matrix" values="0 0 0 0 0 0 0 0 0 0 0 0 0 0 0 0 0 0 127 0" result="hardAlpha"/>
<feOffset/>
<feGaussianBlur stdDeviation="2"/>
<feComposite in2="hardAlpha" operator="out"/>
<feColorMatrix type="matrix" values="0 0 0 0 0 0 0 0 0 0 0 0 0 0 0 0 0 0 0.25 0"/>
<feBlend mode="normal" in2="BackgroundImageFix" result="effect1_dropShadow_1315_316"/>
<feBlend mode="normal" in="SourceGraphic" in2="effect1_dropShadow_1315_316" result="shape"/>
</filter>
<filter id="filter1_b_1315_316" x="0" y="0" width="59" height="34" filterUnits="userSpaceOnUse" color-interpolation-filters="sRGB">
<feFlood flood-opacity="0" result="BackgroundImageFix"/>
<feGaussianBlur in="BackgroundImageFix" stdDeviation="2"/>
<feComposite in2="SourceAlpha" operator="in" result="effect1_backgroundBlur_1315_316"/>
<feBlend mode="normal" in="SourceGraphic" in2="effect1_backgroundBlur_1315_316" result="shape"/>
</filter>
</defs>
</svg>
