<svg width="75" height="31" viewBox="0 0 75 31" fill="none" xmlns="http://www.w3.org/2000/svg">
<g filter="url(#filter0_b_632_212)">
<rect width="75" height="30.4837" rx="15" fill="#3333F1" fill-opacity="0.4"/>
<path d="M30.678 17.584V22.26H32.526V17.584H30.678ZM25.764 17.038V18.55H37.482V17.038H25.764ZM30.664 11.606V11.914C30.664 13.118 29.278 14.588 26.352 14.924L26.996 16.38C30.426 15.974 32.302 14.084 32.302 11.914V11.606H30.664ZM30.902 11.606V11.914C30.902 14.028 32.778 15.988 36.194 16.38L36.852 14.924C33.94 14.588 32.54 13.09 32.54 11.914V11.606H30.902ZM26.814 10.766V12.236H36.418V10.766H26.814ZM30.678 9.31V11.27H32.526V9.31H30.678ZM41.5409 11.816V12.32C41.5409 13.888 40.6449 15.456 38.5449 16.114L39.4409 17.57C41.9049 16.8 43.0529 14.686 43.0529 12.32V11.816H41.5409ZM41.8769 11.816V12.32C41.8769 14.588 43.0669 16.632 45.5169 17.36L46.4129 15.904C44.3129 15.274 43.4029 13.776 43.4029 12.32V11.816H41.8769ZM38.9929 10.808V12.264H45.9509V10.808H38.9929ZM41.5409 9.38V11.354H43.4029V9.38H41.5409ZM45.5449 13.048V14.574H48.5549V13.048H45.5449ZM47.6169 9.296V18.886H49.4789V9.296H47.6169ZM40.9249 20.538V22.022H49.7729V20.538H40.9249ZM40.9249 18.088V21.518H42.7869V18.088H40.9249Z" fill="#FEFEFE"/>
</g>
<circle cx="13" cy="16" r="3" fill="#FDC15F"/>
<defs>
<filter id="filter0_b_632_212" x="-4" y="-4" width="83" height="38.4838" filterUnits="userSpaceOnUse" color-interpolation-filters="sRGB">
<feFlood flood-opacity="0" result="BackgroundImageFix"/>
<feGaussianBlur in="BackgroundImage" stdDeviation="2"/>
<feComposite in2="SourceAlpha" operator="in" result="effect1_backgroundBlur_632_212"/>
<feBlend mode="normal" in="SourceGraphic" in2="effect1_backgroundBlur_632_212" result="shape"/>
</filter>
</defs>
</svg>
