<svg width="31" height="29" viewBox="0 0 31 29" fill="none" xmlns="http://www.w3.org/2000/svg">
<rect width="31" height="29" rx="2.5" fill="#26265C"/>
<path fill-rule="evenodd" clip-rule="evenodd" d="M19.7426 8.75736C17.3995 6.41421 13.6005 6.41421 11.2574 8.75736C8.91421 11.1005 8.91421 14.8995 11.2574 17.2426L15.5 21.4853L19.7426 17.2426C22.0858 14.8995 22.0858 11.1005 19.7426 8.75736ZM15.5001 16.0911C17.1068 16.0911 18.4092 14.7886 18.4092 13.182C18.4092 11.5754 17.1068 10.2729 15.5001 10.2729C13.8935 10.2729 12.591 11.5754 12.591 13.182C12.591 14.7886 13.8935 16.0911 15.5001 16.0911Z" fill="#FEFEFE"/>
<path d="M11.2574 8.75736L11.6109 9.11091L11.2574 8.75736ZM19.7426 8.75736L20.0962 8.40381L19.7426 8.75736ZM11.2574 17.2426L11.6109 16.8891L11.2574 17.2426ZM15.5 21.4853L15.1464 21.8388L15.5 22.1924L15.8536 21.8388L15.5 21.4853ZM19.7426 17.2426L20.0962 17.5962L19.7426 17.2426ZM11.6109 9.11091C13.7588 6.96303 17.2412 6.96303 19.3891 9.11091L20.0962 8.40381C17.5578 5.8654 13.4422 5.8654 10.9038 8.40381L11.6109 9.11091ZM11.6109 16.8891C9.46303 14.7412 9.46303 11.2588 11.6109 9.11091L10.9038 8.40381C8.3654 10.9422 8.3654 15.0578 10.9038 17.5962L11.6109 16.8891ZM15.8536 21.1317L11.6109 16.8891L10.9038 17.5962L15.1464 21.8388L15.8536 21.1317ZM19.3891 16.8891L15.1464 21.1317L15.8536 21.8388L20.0962 17.5962L19.3891 16.8891ZM19.3891 9.11091C21.537 11.2588 21.537 14.7412 19.3891 16.8891L20.0962 17.5962C22.6346 15.0578 22.6346 10.9422 20.0962 8.40381L19.3891 9.11091ZM17.9092 13.182C17.9092 14.5125 16.8306 15.5911 15.5001 15.5911V16.5911C17.3829 16.5911 18.9092 15.0648 18.9092 13.182H17.9092ZM15.5001 10.7729C16.8306 10.7729 17.9092 11.8515 17.9092 13.182H18.9092C18.9092 11.2992 17.3829 9.77291 15.5001 9.77291V10.7729ZM13.091 13.182C13.091 11.8515 14.1696 10.7729 15.5001 10.7729V9.77291C13.6173 9.77291 12.091 11.2992 12.091 13.182H13.091ZM15.5001 15.5911C14.1696 15.5911 13.091 14.5125 13.091 13.182H12.091C12.091 15.0648 13.6173 16.5911 15.5001 16.5911V15.5911Z" fill="#FEFEFE"/>
</svg>
