<svg width="33" height="33" viewBox="0 0 33 33" fill="none" xmlns="http://www.w3.org/2000/svg">
<path d="M9.61915 12.8435C10.0332 12.1119 11.1338 12.1391 11.5064 12.8926C13.6414 17.2103 15.1336 18.7315 19.225 20.698C19.9964 21.0688 20.0274 22.202 19.2809 22.6206C17.8209 23.4395 15.8663 24.6564 14.6471 25.8998C13.4868 27.0828 12.3454 28.9496 11.5732 30.3469C11.1658 31.0841 10.0408 31.0881 9.63062 30.3524C8.82655 28.9101 7.62898 26.9629 6.43957 25.7735C5.25402 24.5879 3.31562 23.3943 1.87474 22.5903C1.13677 22.1785 1.1438 21.0467 1.88453 20.6399C3.28369 19.8715 5.14435 18.7349 6.3133 17.566C7.52064 16.3586 8.7793 14.3276 9.61915 12.8435Z" fill="#FFF48E"/>
<path d="M21.9227 6.14918C21.5563 5.94321 21.5688 5.39335 21.946 5.20797C24.3206 4.04109 25.1298 3.24659 26.2036 0.994696C26.3878 0.608446 26.954 0.592699 27.1621 0.966633C27.5987 1.75133 28.2652 2.83356 28.9465 3.50175C29.5951 4.13779 30.6289 4.76325 31.3801 5.17511C31.7494 5.3776 31.7507 5.93938 31.3822 6.14332C30.6077 6.57194 29.5305 7.2278 28.8792 7.87907C28.2299 8.52841 27.576 9.60122 27.1473 10.3752C26.9425 10.7448 26.3776 10.742 26.1755 10.3709C25.7656 9.61841 25.1429 8.58742 24.5019 7.94642C23.8414 7.28594 22.7187 6.59666 21.9227 6.14918Z" fill="#E4E4FF"/>
</svg>
