<svg width="234" height="62" viewBox="0 0 234 62" fill="none" xmlns="http://www.w3.org/2000/svg">
<path d="M14.18 14.26V32.78H16.7V14.26H14.18ZM11.7 21.38V23.52H14.78V21.38H11.7ZM10.04 14.58V31.9H12.5V14.58H10.04ZM1.32 26.42V28.6H2.62C5 28.6 6.96 28.54 9.2 28.1L9 25.94C6.8 26.34 4.9 26.42 2.62 26.42H1.32ZM1.32 16.4V27.46H3.96V18.54H8.16V16.4H1.32ZM31.1184 14.28V28.12H33.7784V14.28H31.1184ZM33.0184 19.92V22.1H36.2384V19.92H33.0184ZM19.1984 16.2V18.28H30.0984V16.2H19.1984ZM24.6584 18.94C21.9784 18.94 20.0984 20.4 20.0984 22.52C20.0984 24.64 21.9784 26.08 24.6584 26.08C27.3184 26.08 29.1984 24.64 29.1984 22.52C29.1984 20.4 27.3184 18.94 24.6584 18.94ZM24.6584 20.96C25.8384 20.96 26.6584 21.52 26.6584 22.52C26.6584 23.52 25.8384 24.06 24.6584 24.06C23.4784 24.06 22.6584 23.52 22.6584 22.52C22.6584 21.52 23.4784 20.96 24.6584 20.96ZM23.3184 14.24V17.22H25.9784V14.24H23.3184ZM21.8384 30.34V32.46H34.4384V30.34H21.8384ZM21.8384 27.08V31.26H24.4984V27.08H21.8384ZM38.5369 15.72V24.68H47.5169V15.72H38.5369ZM44.9169 17.82V22.58H41.1369V17.82H44.9169ZM50.3169 14.28V27.44H52.9969V14.28H50.3169ZM40.6569 30.26V32.4H53.4569V30.26H40.6569ZM40.6569 26.24V31.2H43.3169V26.24H40.6569ZM58.0553 15.04V17.16H69.7953V15.04H58.0553ZM56.0153 21.44V23.56H72.7753V21.44H56.0153ZM63.0353 22.94V26.82H65.6953V22.94H63.0353ZM68.1953 15.04V16.52C68.1953 18.08 68.1953 19.78 67.6153 22.16L70.2353 22.42C70.8153 19.98 70.8153 18.12 70.8153 16.52V15.04H68.1953ZM57.6953 26.16V28.26H68.1753V32.78H70.8353V26.16H57.6953ZM14.62 47.26V49.44H17.88V47.26H14.62ZM12.64 40.24V58.76H15.32V40.24H12.64ZM1.36 42.02V53.52H4.02V42.02H1.36ZM1.36 52.04V54.24H2.96C5.68 54.24 8.66 54.08 11.72 53.44L11.44 51.26C8.46 51.86 5.6 52.04 2.96 52.04H1.36ZM25.1584 41.48C22.2584 41.48 20.0384 43.38 20.0384 46.04C20.0384 48.72 22.2584 50.62 25.1584 50.62C28.0784 50.62 30.2584 48.72 30.2584 46.04C30.2584 43.38 28.0784 41.48 25.1584 41.48ZM25.1584 43.76C26.5784 43.76 27.6584 44.6 27.6584 46.04C27.6584 47.5 26.5784 48.34 25.1584 48.34C23.7384 48.34 22.6584 47.5 22.6584 46.04C22.6584 44.6 23.7384 43.76 25.1584 43.76ZM31.9984 40.24V58.82H34.6584V40.24H31.9984ZM19.5984 55.06C22.7984 55.06 27.1584 55.02 31.1784 54.22L30.9784 52.3C27.0784 52.88 22.5384 52.92 19.2784 52.92L19.5984 55.06ZM42.2258 50.84V52.88H58.9658V50.84H42.2258ZM44.2458 56.4V58.46H57.0858V56.4H44.2458ZM44.2458 53.86V57.66H46.9058V53.86H44.2458ZM43.0258 41.78V43.78H58.1058V41.78H43.0258ZM50.6058 44.34C46.6658 44.34 44.4058 45.32 44.4058 47.18C44.4058 49.02 46.6658 50.02 50.6058 50.02C54.5458 50.02 56.8058 49.02 56.8058 47.18C56.8058 45.32 54.5458 44.34 50.6058 44.34ZM50.6058 46.2C52.9858 46.2 54.0858 46.5 54.0858 47.18C54.0858 47.88 52.9858 48.16 50.6058 48.16C48.2058 48.16 47.1258 47.88 47.1258 47.18C47.1258 46.5 48.2058 46.2 50.6058 46.2ZM49.2658 40.18V43.04H51.9258V40.18H49.2658ZM64.9042 42.1V43.28C64.9042 45.6 63.5842 48.04 60.5242 49.04L61.8642 51.14C65.4242 49.98 67.0642 46.76 67.0642 43.28V42.1H64.9042ZM65.4642 42.1V43.28C65.4642 46.56 67.0442 49.64 70.4842 50.78L71.7842 48.7C68.8642 47.72 67.6042 45.44 67.6042 43.28V42.1H65.4642ZM70.7042 44.68V46.84H74.2242V44.68H70.7042ZM61.2442 41.28V43.38H71.2042V41.28H61.2442ZM63.5042 52.12V54.24H73.4642V58.78H76.1242V52.12H63.5042ZM73.4642 40.26V51.28H76.1242V40.26H73.4642ZM87.4027 40.52C83.1627 40.52 80.7027 41.64 80.7027 43.68C80.7027 45.72 83.1627 46.84 87.4027 46.84C91.6227 46.84 94.1027 45.72 94.1027 43.68C94.1027 41.64 91.6227 40.52 87.4027 40.52ZM87.4027 42.46C90.0827 42.46 91.3427 42.86 91.3427 43.68C91.3427 44.54 90.0827 44.9 87.4027 44.9C84.7227 44.9 83.4627 44.54 83.4627 43.68C83.4627 42.86 84.7227 42.46 87.4027 42.46ZM79.0227 47.7V49.8H95.7627V47.7H79.0227ZM80.9427 50.84V52.82H91.1227V53.76H80.9627V57.24H83.5827V55.6H93.7427V50.84H80.9427ZM80.9627 56.66V58.66H94.2227V56.66H80.9627Z" fill="#FEFEFE"/>
<path d="M87.8947 25.58C84.0347 25.58 81.6147 26.92 81.6147 29.18C81.6147 31.46 84.0347 32.8 87.8947 32.8C91.7347 32.8 94.1547 31.46 94.1547 29.18C94.1547 26.92 91.7347 25.58 87.8947 25.58ZM87.8947 27.66C90.2547 27.66 91.5147 28.14 91.5147 29.18C91.5147 30.24 90.2547 30.74 87.8947 30.74C85.5347 30.74 84.2547 30.24 84.2547 29.18C84.2547 28.14 85.5347 27.66 87.8947 27.66ZM91.2747 14.26V25.16H93.9347V14.26H91.2747ZM93.1947 18.56V20.76H96.3947V18.56H93.1947ZM79.8947 15.44V24.14H88.7947V15.44H86.1547V17.72H82.5347V15.44H79.8947ZM82.5347 19.78H86.1547V22.06H82.5347V19.78ZM106.293 25.58C102.433 25.58 100.013 26.92 100.013 29.18C100.013 31.46 102.433 32.8 106.293 32.8C110.133 32.8 112.553 31.46 112.553 29.18C112.553 26.92 110.133 25.58 106.293 25.58ZM106.293 27.66C108.653 27.66 109.913 28.14 109.913 29.18C109.913 30.24 108.653 30.74 106.293 30.74C103.933 30.74 102.653 30.24 102.653 29.18C102.653 28.14 103.933 27.66 106.293 27.66ZM109.673 14.26V25.16H112.333V14.26H109.673ZM111.593 18.56V20.76H114.793V18.56H111.593ZM98.2931 15.44V24.14H107.193V15.44H104.553V17.72H100.933V15.44H98.2931ZM100.933 19.78H104.553V22.06H100.933V19.78ZM116.192 22.76V24.86H132.872V22.76H116.192ZM117.912 26.44V28.54H128.072V32.78H130.732V26.44H117.912ZM118.072 15.16V17.26H129.792V15.16H118.072ZM122.372 19.3V23.12H125.012V19.3H122.372ZM128.252 15.16V16.48C128.252 17.84 128.252 19.38 127.792 21.54L130.432 21.78C130.892 19.58 130.892 17.86 130.892 16.48V15.16H128.252ZM134.59 22.76V24.86H151.27V22.76H134.59ZM136.31 26.44V28.54H146.47V32.78H149.13V26.44H136.31ZM136.47 15.16V17.26H148.19V15.16H136.47ZM140.77 19.3V23.12H143.41V19.3H140.77ZM146.65 15.16V16.48C146.65 17.84 146.65 19.38 146.19 21.54L148.83 21.78C149.29 19.58 149.29 17.86 149.29 16.48V15.16H146.65Z" fill="#FDC15F"/>
<path d="M102.59 41.18V49.44H111.49V41.18H108.85V43.46H105.23V41.18H102.59ZM105.23 45.44H108.85V47.36H105.23V45.44ZM113.97 40.26V50.08H116.63V40.26H113.97ZM115.55 43.96V46.12H119.07V43.96H115.55ZM103.73 56.66V58.6H104.95C108.59 58.6 109.85 58.56 111.33 58.2L111.07 56.28C109.67 56.62 108.45 56.66 104.95 56.66H103.73ZM103.71 50.86V52.8H107.35V53.78H103.73V58.1H106.31V55.6H109.91V50.86H103.71ZM110.67 50.86V52.94H114.01V58.68H116.63V50.86H110.67ZM120.488 43V45.12H131.108V43H120.488ZM125.828 46.16C123.268 46.16 121.368 48 121.368 50.58C121.368 53.16 123.268 55 125.828 55C128.368 55 130.288 53.16 130.288 50.58C130.288 48 128.368 46.16 125.828 46.16ZM125.828 48.38C127.028 48.38 127.868 49.2 127.868 50.58C127.868 51.96 127.028 52.76 125.828 52.76C124.628 52.76 123.768 51.96 123.768 50.58C123.768 49.2 124.628 48.38 125.828 48.38ZM124.488 40.52V44.76H127.168V40.52H124.488ZM133.348 40.26V58.78H135.988V40.26H133.348ZM130.828 46.38V48.54H135.428V46.38H130.828ZM130.868 50.96V53.1H135.468V50.96H130.868ZM138.867 54.48V56.64H155.627V54.48H138.867ZM145.887 50.52V55H148.547V50.52H145.887ZM140.627 41.44V51.08H153.807V41.44H151.167V44.28H143.267V41.44H140.627ZM143.267 46.36H151.167V48.96H143.267V46.36ZM164.545 46.48V48.64H167.605V46.48H164.545ZM160.585 41.86V44.98C160.585 48.12 159.625 51.42 156.905 53.1L158.505 55.1C161.465 53.28 162.625 49.18 162.625 44.98V41.86H160.585ZM161.165 41.86V44.86C161.165 48.86 162.085 52.86 165.025 54.68L166.465 52.6C163.945 50.96 163.165 47.88 163.165 44.86V41.86H161.165ZM170.625 40.26V58.78H173.165V40.26H170.625ZM166.865 40.54V57.94H169.345V40.54H166.865ZM179.344 49.66V54.86H181.984V49.66H179.344ZM186.064 49.66V54.86H188.724V49.66H186.064ZM175.664 54.48V56.64H192.424V54.48H175.664ZM184.024 41.16C180.024 41.16 177.104 43.12 177.104 46.14C177.104 49.16 180.024 51.1 184.024 51.1C188.004 51.1 190.944 49.16 190.944 46.14C190.944 43.12 188.004 41.16 184.024 41.16ZM184.024 43.24C186.604 43.24 188.324 44.3 188.324 46.14C188.324 47.96 186.604 49.04 184.024 49.04C181.444 49.04 179.724 47.96 179.724 46.14C179.724 44.3 181.444 43.24 184.024 43.24Z" fill="#FFF48E"/>
<path d="M210.619 37.8435C211.033 37.1119 212.134 37.1391 212.507 37.8926C214.642 42.2103 216.134 43.7315 220.225 45.698C220.997 46.0688 221.028 47.202 220.281 47.6206C218.821 48.4395 216.867 49.6564 215.647 50.8998C214.487 52.0828 213.346 53.9496 212.573 55.3469C212.166 56.0841 211.041 56.0881 210.631 55.3524C209.827 53.9101 208.629 51.9629 207.44 50.7735C206.254 49.5879 204.316 48.3943 202.875 47.5903C202.137 47.1785 202.144 46.0467 202.885 45.6399C204.284 44.8715 206.145 43.7349 207.314 42.566C208.521 41.3586 209.78 39.3276 210.619 37.8435Z" fill="#FFF48E"/>
<path d="M222.923 31.1493C222.556 30.9433 222.569 30.3935 222.946 30.2081C225.321 29.0412 226.13 28.2467 227.204 25.9948C227.388 25.6086 227.954 25.5928 228.162 25.9668C228.599 26.7514 229.265 27.8337 229.947 28.5019C230.595 29.1379 231.629 29.7634 232.38 30.1752C232.749 30.3777 232.751 30.9395 232.382 31.1434C231.608 31.5721 230.53 32.2279 229.879 32.8792C229.23 33.5285 228.576 34.6013 228.147 35.3753C227.943 35.745 227.378 35.7421 227.175 35.371C226.766 34.6185 226.143 33.5875 225.502 32.9465C224.841 32.2861 223.719 31.5968 222.923 31.1493Z" fill="#FEFEFE"/>
<path d="M179.619 1.84349C180.033 1.1119 181.134 1.13909 181.507 1.89261C183.642 6.21032 185.134 7.73147 189.225 9.69801C189.997 10.0688 190.028 11.202 189.281 11.6206C187.821 12.4395 185.867 13.6564 184.647 14.8998C183.487 16.0828 182.346 17.9496 181.573 19.3469C181.166 20.0841 180.041 20.0881 179.631 19.3524C178.827 17.9101 177.629 15.9629 176.44 14.7735C175.254 13.5879 173.316 12.3943 171.875 11.5903C171.137 11.1785 171.144 10.0467 171.885 9.63993C173.284 8.87155 175.145 7.73494 176.314 6.56599C177.521 5.35865 178.78 3.32759 179.619 1.84349Z" fill="#FDC15F"/>
<path d="M159.923 27.1493C159.556 26.9433 159.569 26.3935 159.946 26.2081C162.321 25.0412 163.13 24.2467 164.204 21.9948C164.388 21.6086 164.954 21.5928 165.162 21.9668C165.599 22.7514 166.265 23.8337 166.947 24.5019C167.595 25.1379 168.629 25.7634 169.38 26.1752C169.749 26.3777 169.751 26.9395 169.382 27.1434C168.608 27.5721 167.53 28.2279 166.879 28.8792C166.23 29.5285 165.576 30.6013 165.147 31.3753C164.943 31.745 164.378 31.7421 164.175 31.371C163.766 30.6185 163.143 29.5875 162.502 28.9465C161.841 28.2861 160.719 27.5968 159.923 27.1493Z" fill="#FFF48E"/>
</svg>
