<svg width="25" height="28" viewBox="0 0 25 28" fill="none" xmlns="http://www.w3.org/2000/svg">
<path fill-rule="evenodd" clip-rule="evenodd" d="M19.9551 1.95839C19.9551 0.876801 19.0783 5.36442e-07 17.9967 4.76837e-07L6.95848 0C5.87689 0 5.00009 0.8768 5.00009 1.95839C5.00009 2.01823 5.00277 2.07745 5.00803 2.13593C5.00271 2.19472 5 2.25425 5 2.31443V7.29941C5 7.31072 5.0001 7.322 5.00029 7.33325H5C2.23858 7.33325 0 9.57183 0 12.3333V22.6458C0 25.4072 2.23858 27.6458 5 27.6458H20C22.7614 27.6458 25 25.4072 25 22.6458V12.3333C25 9.57183 22.7614 7.33325 20 7.33325H19.955C19.9551 7.322 19.9552 7.31072 19.9552 7.29941V2.31443C19.9552 2.25407 19.9525 2.19435 19.9472 2.13539C19.9524 2.07709 19.9551 2.01805 19.9551 1.95839ZM16.0387 7.33325C16.0386 7.322 16.0385 7.31072 16.0385 7.29941V3.91678L8.91678 3.91678V7.29941C8.91678 7.31072 8.91668 7.322 8.91649 7.33325H16.0387ZM13.3414 19.6137C14.3765 19.182 15.1042 18.1603 15.1042 16.9686C15.1042 15.3866 13.8216 14.104 12.2396 14.104C10.6575 14.104 9.375 15.3866 9.375 16.9686C9.375 18.1603 10.1026 19.182 11.1378 19.6137V22.3589C11.1378 22.9112 11.5856 23.3589 12.1378 23.3589H12.3414C12.8936 23.3589 13.3414 22.9112 13.3414 22.3589V19.6137Z" fill="#7070FF"/>
</svg>
