<svg width="205" height="63" viewBox="0 0 205 63" fill="none" xmlns="http://www.w3.org/2000/svg">
<mask id="path-1-inside-1_291_17" fill="white">
<path d="M0 0H175V63H5C2.23858 63 0 60.7614 0 58V0Z"/>
</mask>
<path d="M0 0H175V63H5C2.23858 63 0 60.7614 0 58V0Z" fill="#26265C"/>
<path d="M0 -1H175V1H0V-1ZM175 63H0H175ZM0 63V0V63ZM175 0V63V0Z" fill="#26265C" mask="url(#path-1-inside-1_291_17)"/>
<path d="M78.6774 28.326V30.234H82.0614V28.326H78.6774ZM78.5874 32.484V34.392H81.9894V32.484H78.5874ZM84.3294 23.934V40.602H86.6154V23.934H84.3294ZM80.8914 24.294V39.864H83.1234V24.294H80.8914ZM77.1294 25.896V26.382C77.1294 30.414 75.7794 33.186 72.0174 35.472L73.3674 37.146C78.0114 34.41 79.4334 30.63 79.4334 25.896H77.1294ZM72.9714 25.896V27.804H77.9394V25.896H72.9714ZM88.63 32.016V33.924H103.714V32.016H88.63ZM94.948 29.856V32.844H97.324V29.856H94.948ZM94.912 24.222V24.726C94.912 26.598 93.13 28.506 89.386 28.956L90.268 30.828C94.516 30.216 96.964 27.804 96.964 24.726V24.222H94.912ZM95.308 24.222V24.726C95.308 27.876 97.756 30.198 102.004 30.828L102.886 28.956C99.106 28.506 97.36 26.67 97.36 24.726V24.222H95.308ZM90.304 35.094V36.966H99.484V40.602H101.878V35.094H90.304Z" fill="#FEFEFE"/>
</svg>
