<svg width="15" height="13" viewBox="0 0 15 13" fill="none" xmlns="http://www.w3.org/2000/svg">
<mask id="path-1-inside-1_1184_154" fill="white">
<path fill-rule="evenodd" clip-rule="evenodd" d="M13.016 1.10225C11.5463 -0.367419 9.16349 -0.367416 7.69382 1.10226L7.00144 1.79463L6.37731 1.17049C4.91841 -0.288404 2.55307 -0.288405 1.09417 1.17049C-0.364726 2.62939 -0.364723 4.99473 1.09417 6.45363L5.64869 11.0081C5.74663 11.1219 5.84952 11.2328 5.95736 11.3406L7.02856 12.4118L13.016 6.4244C14.4856 4.95473 14.4856 2.57192 13.016 1.10225Z"/>
</mask>
<path fill-rule="evenodd" clip-rule="evenodd" d="M13.016 1.10225C11.5463 -0.367419 9.16349 -0.367416 7.69382 1.10226L7.00144 1.79463L6.37731 1.17049C4.91841 -0.288404 2.55307 -0.288405 1.09417 1.17049C-0.364726 2.62939 -0.364723 4.99473 1.09417 6.45363L5.64869 11.0081C5.74663 11.1219 5.84952 11.2328 5.95736 11.3406L7.02856 12.4118L13.016 6.4244C14.4856 4.95473 14.4856 2.57192 13.016 1.10225Z" fill="#F0F0FF"/>
<path d="M7.69382 1.10226L8.40093 1.80936L8.40093 1.80936L7.69382 1.10226ZM7.00144 1.79463L6.29434 2.50174L7.00144 3.20885L7.70855 2.50174L7.00144 1.79463ZM6.37731 1.17049L7.08441 0.463386L7.08441 0.463386L6.37731 1.17049ZM1.09417 1.17049L0.387065 0.463385L1.09417 1.17049ZM1.09417 6.45363L0.387067 7.16073L1.09417 6.45363ZM5.64869 11.0081L6.40642 10.3556L6.38212 10.3274L6.3558 10.301L5.64869 11.0081ZM5.95736 11.3406L6.66447 10.6335L6.66447 10.6335L5.95736 11.3406ZM7.02856 12.4118L6.32145 13.1189L7.02856 13.826L7.73566 13.1189L7.02856 12.4118ZM13.016 6.4244L12.3089 5.7173L12.3089 5.7173L13.016 6.4244ZM8.40093 1.80936C9.48008 0.730214 11.2297 0.730213 12.3089 1.80936L13.7231 0.395145C11.8629 -1.46505 8.84691 -1.46505 6.98671 0.395148L8.40093 1.80936ZM7.70855 2.50174L8.40093 1.80936L6.98671 0.395148L6.29434 1.08753L7.70855 2.50174ZM5.6702 1.8776L6.29434 2.50174L7.70855 1.08753L7.08441 0.463386L5.6702 1.8776ZM1.80128 1.8776C2.86965 0.809226 4.60183 0.809227 5.6702 1.8776L7.08441 0.463386C5.23499 -1.38604 2.23649 -1.38604 0.387065 0.463385L1.80128 1.8776ZM1.80128 5.74652C0.732907 4.67815 0.732906 2.94597 1.80128 1.8776L0.387065 0.463385C-1.46236 2.31281 -1.46235 5.31131 0.387067 7.16073L1.80128 5.74652ZM6.3558 10.301L1.80128 5.74652L0.387067 7.16073L4.94159 11.7153L6.3558 10.301ZM6.66447 10.6335C6.57418 10.5432 6.48818 10.4505 6.40642 10.3556L4.89097 11.6607C5.00508 11.7932 5.12485 11.9223 5.25025 12.0477L6.66447 10.6335ZM7.73566 11.7047L6.66447 10.6335L5.25025 12.0477L6.32145 13.1189L7.73566 11.7047ZM12.3089 5.7173L6.32145 11.7047L7.73566 13.1189L13.7231 7.13151L12.3089 5.7173ZM12.3089 1.80936C13.388 2.88851 13.388 4.63815 12.3089 5.7173L13.7231 7.13151C15.5833 5.27131 15.5833 2.25534 13.7231 0.395145L12.3089 1.80936Z" fill="#7070FF" mask="url(#path-1-inside-1_1184_154)"/>
</svg>
