<svg width="356" height="51" viewBox="0 0 356 51" fill="none" xmlns="http://www.w3.org/2000/svg">
<rect width="356" height="51" rx="5" fill="#FDE45F"/>
<path d="M103.234 32V20.3636H105.342V25.7102H105.484L110.023 20.3636H112.597L108.097 25.5852L112.637 32H110.103L106.631 27.0114L105.342 28.5341V32H103.234ZM116.482 32.1761C115.929 32.1761 115.431 32.0777 114.988 31.8807C114.549 31.6799 114.2 31.3845 113.942 30.9943C113.689 30.6042 113.562 30.1231 113.562 29.5511C113.562 29.0587 113.653 28.6515 113.835 28.3295C114.016 28.0076 114.264 27.75 114.579 27.5568C114.893 27.3636 115.247 27.2178 115.641 27.1193C116.039 27.017 116.45 26.9432 116.874 26.8977C117.386 26.8447 117.8 26.7973 118.119 26.7557C118.437 26.7102 118.668 26.642 118.812 26.5511C118.96 26.4564 119.033 26.3106 119.033 26.1136V26.0795C119.033 25.6515 118.906 25.3201 118.653 25.0852C118.399 24.8504 118.033 24.733 117.556 24.733C117.052 24.733 116.653 24.8428 116.357 25.0625C116.066 25.2822 115.869 25.5417 115.766 25.8409L113.846 25.5682C113.997 25.0379 114.247 24.5947 114.596 24.2386C114.944 23.8788 115.371 23.6098 115.874 23.4318C116.378 23.25 116.935 23.1591 117.545 23.1591C117.965 23.1591 118.384 23.2083 118.8 23.3068C119.217 23.4053 119.598 23.5682 119.942 23.7955C120.287 24.0189 120.564 24.3239 120.772 24.7102C120.984 25.0966 121.09 25.5795 121.09 26.1591V32H119.113V30.8011H119.045C118.92 31.0436 118.744 31.2708 118.516 31.483C118.293 31.6913 118.011 31.8598 117.67 31.9886C117.333 32.1136 116.937 32.1761 116.482 32.1761ZM117.016 30.6648C117.429 30.6648 117.787 30.5833 118.09 30.4205C118.393 30.2538 118.626 30.0341 118.789 29.7614C118.956 29.4886 119.039 29.1913 119.039 28.8693V27.8409C118.975 27.8939 118.865 27.9432 118.71 27.9886C118.558 28.0341 118.388 28.0739 118.198 28.108C118.009 28.142 117.821 28.1723 117.636 28.1989C117.45 28.2254 117.289 28.2481 117.153 28.267C116.846 28.3087 116.571 28.3769 116.329 28.4716C116.086 28.5663 115.895 28.6989 115.755 28.8693C115.615 29.036 115.545 29.2519 115.545 29.517C115.545 29.8958 115.683 30.1818 115.96 30.375C116.236 30.5682 116.588 30.6648 117.016 30.6648ZM125.033 29.2614L125.028 26.7784H125.357L128.494 23.2727H130.897L127.039 27.5682H126.613L125.033 29.2614ZM123.158 32V20.3636H125.215V32H123.158ZM128.636 32L125.795 28.0284L127.181 26.5795L131.096 32H128.636ZM134.779 32.1761C134.226 32.1761 133.728 32.0777 133.285 31.8807C132.845 31.6799 132.497 31.3845 132.239 30.9943C131.986 30.6042 131.859 30.1231 131.859 29.5511C131.859 29.0587 131.95 28.6515 132.131 28.3295C132.313 28.0076 132.561 27.75 132.876 27.5568C133.19 27.3636 133.544 27.2178 133.938 27.1193C134.336 27.017 134.747 26.9432 135.171 26.8977C135.683 26.8447 136.097 26.7973 136.415 26.7557C136.734 26.7102 136.965 26.642 137.109 26.5511C137.256 26.4564 137.33 26.3106 137.33 26.1136V26.0795C137.33 25.6515 137.203 25.3201 136.95 25.0852C136.696 24.8504 136.33 24.733 135.853 24.733C135.349 24.733 134.95 24.8428 134.654 25.0625C134.362 25.2822 134.165 25.5417 134.063 25.8409L132.143 25.5682C132.294 25.0379 132.544 24.5947 132.893 24.2386C133.241 23.8788 133.667 23.6098 134.171 23.4318C134.675 23.25 135.232 23.1591 135.842 23.1591C136.262 23.1591 136.681 23.2083 137.097 23.3068C137.514 23.4053 137.895 23.5682 138.239 23.7955C138.584 24.0189 138.861 24.3239 139.069 24.7102C139.281 25.0966 139.387 25.5795 139.387 26.1591V32H137.41V30.8011H137.342C137.217 31.0436 137.04 31.2708 136.813 31.483C136.59 31.6913 136.308 31.8598 135.967 31.9886C135.629 32.1136 135.234 32.1761 134.779 32.1761ZM135.313 30.6648C135.726 30.6648 136.084 30.5833 136.387 30.4205C136.69 30.2538 136.923 30.0341 137.086 29.7614C137.253 29.4886 137.336 29.1913 137.336 28.8693V27.8409C137.272 27.8939 137.162 27.9432 137.006 27.9886C136.855 28.0341 136.684 28.0739 136.495 28.108C136.306 28.142 136.118 28.1723 135.933 28.1989C135.747 28.2254 135.586 28.2481 135.45 28.267C135.143 28.3087 134.868 28.3769 134.626 28.4716C134.383 28.5663 134.192 28.6989 134.052 28.8693C133.912 29.036 133.842 29.2519 133.842 29.517C133.842 29.8958 133.98 30.1818 134.256 30.375C134.533 30.5682 134.885 30.6648 135.313 30.6648ZM145.262 32.1705C144.41 32.1705 143.671 31.983 143.046 31.608C142.421 31.233 141.936 30.7083 141.592 30.0341C141.251 29.3598 141.08 28.572 141.08 27.6705C141.08 26.7689 141.251 25.9792 141.592 25.3011C141.936 24.6231 142.421 24.0966 143.046 23.7216C143.671 23.3466 144.41 23.1591 145.262 23.1591C146.114 23.1591 146.853 23.3466 147.478 23.7216C148.103 24.0966 148.586 24.6231 148.927 25.3011C149.272 25.9792 149.444 26.7689 149.444 27.6705C149.444 28.572 149.272 29.3598 148.927 30.0341C148.586 30.7083 148.103 31.233 147.478 31.608C146.853 31.983 146.114 32.1705 145.262 32.1705ZM145.273 30.5227C145.736 30.5227 146.122 30.3958 146.433 30.142C146.743 29.8845 146.974 29.5398 147.126 29.108C147.281 28.6761 147.359 28.1951 147.359 27.6648C147.359 27.1307 147.281 26.6477 147.126 26.2159C146.974 25.7803 146.743 25.4337 146.433 25.1761C146.122 24.9186 145.736 24.7898 145.273 24.7898C144.8 24.7898 144.406 24.9186 144.092 25.1761C143.781 25.4337 143.548 25.7803 143.393 26.2159C143.241 26.6477 143.165 27.1307 143.165 27.6648C143.165 28.1951 143.241 28.6761 143.393 29.108C143.548 29.5398 143.781 29.8845 144.092 30.142C144.406 30.3958 144.8 30.5227 145.273 30.5227ZM154.738 22.1307V20.3636H164.022V22.1307H160.425V32H158.335V22.1307H154.738ZM167.045 32.1761C166.492 32.1761 165.994 32.0777 165.55 31.8807C165.111 31.6799 164.763 31.3845 164.505 30.9943C164.251 30.6042 164.124 30.1231 164.124 29.5511C164.124 29.0587 164.215 28.6515 164.397 28.3295C164.579 28.0076 164.827 27.75 165.141 27.5568C165.456 27.3636 165.81 27.2178 166.204 27.1193C166.602 27.017 167.013 26.9432 167.437 26.8977C167.948 26.8447 168.363 26.7973 168.681 26.7557C168.999 26.7102 169.23 26.642 169.374 26.5511C169.522 26.4564 169.596 26.3106 169.596 26.1136V26.0795C169.596 25.6515 169.469 25.3201 169.215 25.0852C168.961 24.8504 168.596 24.733 168.119 24.733C167.615 24.733 167.215 24.8428 166.92 25.0625C166.628 25.2822 166.431 25.5417 166.329 25.8409L164.408 25.5682C164.56 25.0379 164.81 24.5947 165.158 24.2386C165.507 23.8788 165.933 23.6098 166.437 23.4318C166.941 23.25 167.497 23.1591 168.107 23.1591C168.528 23.1591 168.946 23.2083 169.363 23.3068C169.78 23.4053 170.16 23.5682 170.505 23.7955C170.85 24.0189 171.126 24.3239 171.335 24.7102C171.547 25.0966 171.653 25.5795 171.653 26.1591V32H169.675V30.8011H169.607C169.482 31.0436 169.306 31.2708 169.079 31.483C168.855 31.6913 168.573 31.8598 168.232 31.9886C167.895 32.1136 167.499 32.1761 167.045 32.1761ZM167.579 30.6648C167.992 30.6648 168.35 30.5833 168.653 30.4205C168.956 30.2538 169.189 30.0341 169.352 29.7614C169.518 29.4886 169.602 29.1913 169.602 28.8693V27.8409C169.537 27.8939 169.427 27.9432 169.272 27.9886C169.121 28.0341 168.95 28.0739 168.761 28.108C168.571 28.142 168.384 28.1723 168.198 28.1989C168.013 28.2254 167.852 28.2481 167.715 28.267C167.408 28.3087 167.134 28.3769 166.891 28.4716C166.649 28.5663 166.458 28.6989 166.317 28.8693C166.177 29.036 166.107 29.2519 166.107 29.517C166.107 29.8958 166.246 30.1818 166.522 30.375C166.799 30.5682 167.151 30.6648 167.579 30.6648ZM175.778 20.3636V32H173.721V20.3636H175.778ZM179.768 29.2614L179.762 26.7784H180.092L183.228 23.2727H185.631L181.773 27.5682H181.347L179.768 29.2614ZM177.893 32V20.3636H179.95V32H177.893ZM183.37 32L180.529 28.0284L181.915 26.5795L185.83 32H183.37ZM191.93 20.656C191.946 21.12 191.946 21.76 191.946 22.224C191.946 23.152 191.946 29.072 191.946 30.032C191.946 30.8 191.914 32.208 191.914 32.288H194.106C194.106 32.208 194.09 30.864 194.09 30.096C194.09 29.152 194.09 22.736 194.09 22.736H201.834C201.834 22.736 201.834 29.168 201.834 30.096C201.834 30.976 201.786 32.224 201.786 32.288H204.01C203.994 32.224 203.978 30.688 203.978 30.064C203.978 29.088 203.978 23.2 203.978 22.224C203.978 21.728 203.978 21.152 204.01 20.672C203.418 20.688 202.826 20.688 202.426 20.688C201.274 20.688 194.778 20.688 193.61 20.688C193.178 20.688 192.57 20.672 191.93 20.656ZM202.618 29.376H193.002V31.408H202.618V29.376ZM218.378 18.896L217.098 19.424C217.53 20.032 218.026 20.992 218.362 21.648L219.642 21.088C219.338 20.496 218.778 19.488 218.378 18.896ZM220.266 18.176L219.002 18.704C219.434 19.296 219.946 20.24 220.282 20.896L221.562 20.352C221.274 19.792 220.682 18.784 220.266 18.176ZM219.802 22.416L218.17 21.408C217.802 21.536 217.274 21.6 216.778 21.6C216.266 21.6 212.922 21.6 212.202 21.6L211.466 23.424H216.858C216.602 24.608 215.674 26.528 214.586 27.776C213.194 29.36 211.418 30.752 208.138 31.744L210.026 33.424C213.034 32.24 214.97 30.768 216.49 28.912C217.93 27.136 218.842 24.992 219.274 23.568C219.402 23.168 219.626 22.736 219.802 22.416ZM214.586 19.888L212.25 19.12C212.106 19.664 211.77 20.416 211.53 20.8C210.73 22.176 209.338 24.24 206.522 25.952L208.33 27.28C210.618 25.712 212.538 23.456 213.61 21.52C213.802 21.184 214.218 20.448 214.586 19.888ZM222.906 25.792L223.898 27.808C226.426 27.056 229.018 25.856 230.826 24.784C232.714 23.648 234.666 22.144 236.122 20.672L234.394 19.04C233.354 20.304 231.53 21.904 229.898 22.912C228.106 24.016 225.77 25.056 222.906 25.792ZM229.562 23.952V30.624C229.562 31.328 229.498 32.336 229.434 32.72H231.978C231.866 32.32 231.834 31.328 231.834 30.624V23.408L229.562 23.952ZM241.77 19.84L240.25 21.456C241.418 22.256 243.434 24 244.266 24.896L245.898 23.232C244.954 22.256 242.874 20.592 241.77 19.84ZM239.754 30.496L241.114 32.608C243.354 32.224 245.418 31.344 247.05 30.368C249.626 28.816 251.754 26.608 252.954 24.432L251.722 22.192C250.698 24.352 248.618 26.784 245.882 28.416C244.33 29.328 242.266 30.144 239.754 30.496Z" fill="black"/>
</svg>
