<svg width="370" height="60" viewBox="0 0 370 60" fill="none" xmlns="http://www.w3.org/2000/svg">
<rect width="370" height="60" rx="5" fill="#7070FF"/>
<path d="M138.832 22.771V38.513H140.991V22.771H138.832ZM136.775 28.84V30.642H139.393V28.84H136.775ZM135.313 23.043V37.765H137.421V23.043H135.313ZM128.122 24.505V33.6H130.383V24.505H128.122ZM128.122 32.75V34.688H129.21C130.808 34.688 132.61 34.603 134.667 34.229L134.446 32.291C132.491 32.665 130.723 32.75 129.21 32.75H128.122ZM154.121 25.984V27.803H158.405V25.984H154.121ZM154.121 30.863V32.682H158.405V30.863H154.121ZM151.401 23.859C149.038 23.859 147.338 26.035 147.338 29.469C147.338 32.937 149.038 35.113 151.401 35.113C153.747 35.113 155.464 32.937 155.464 29.469C155.464 26.035 153.747 23.859 151.401 23.859ZM151.401 25.916C152.557 25.916 153.322 27.157 153.322 29.469C153.322 31.815 152.557 33.073 151.401 33.073C150.262 33.073 149.48 31.815 149.48 29.469C149.48 27.157 150.262 25.916 151.401 25.916ZM158.048 22.754V38.547H160.292V22.754H158.048ZM173.993 22.771V32.631H176.135V22.771H173.993ZM172.072 26.647V28.483H174.588V26.647H172.072ZM170.729 23.077V32.121H172.837V23.077H170.729ZM162.654 24.386V26.12H170.287V24.386H162.654ZM166.496 26.63C164.524 26.63 163.096 27.752 163.096 29.384C163.096 31.016 164.524 32.121 166.496 32.121C168.468 32.121 169.896 31.016 169.896 29.384C169.896 27.752 168.468 26.63 166.496 26.63ZM166.496 28.245C167.312 28.245 167.873 28.653 167.873 29.384C167.873 30.115 167.312 30.523 166.496 30.523C165.663 30.523 165.102 30.115 165.102 29.384C165.102 28.653 165.663 28.245 166.496 28.245ZM165.357 22.924V25.576H167.584V22.924H165.357ZM170.814 32.801C167.431 32.801 165.391 33.821 165.391 35.657C165.391 37.476 167.431 38.513 170.814 38.513C174.18 38.513 176.22 37.476 176.22 35.657C176.22 33.821 174.18 32.801 170.814 32.801ZM170.814 34.484C172.905 34.484 173.959 34.841 173.959 35.657C173.959 36.456 172.905 36.83 170.814 36.83C168.706 36.83 167.652 36.456 167.652 35.657C167.652 34.841 168.706 34.484 170.814 34.484ZM182.152 25.253V27.021C182.152 29.69 180.877 32.597 178.242 33.77L179.517 35.555C182.475 34.212 183.954 30.659 183.954 27.021V25.253H182.152ZM182.662 25.253V27.021C182.662 30.523 184.124 33.872 187.116 35.164L188.34 33.379C185.705 32.291 184.447 29.571 184.447 27.021V25.253H182.662ZM178.871 24.284V26.137H187.694V24.284H178.871ZM189.156 22.771V38.513H191.434V22.771H189.156ZM194.016 34.943V36.779H208.262V34.943H194.016ZM199.983 31.968V35.691H202.244V31.968H199.983ZM195.614 23.791V25.576H204.42V27.259H195.648V31.679H197.892V29.027H206.664V23.791H195.614ZM195.648 30.778V32.597H207.021V30.778H195.648ZM219.557 32.852V38.53H221.801V32.852H219.557ZM213.59 32.189V34.025H227.819V32.189H213.59ZM219.54 25.593V25.967C219.54 27.429 217.857 29.214 214.304 29.622L215.086 31.39C219.251 30.897 221.529 28.602 221.529 25.967V25.593H219.54ZM219.829 25.593V25.967C219.829 28.534 222.107 30.914 226.255 31.39L227.054 29.622C223.518 29.214 221.818 27.395 221.818 25.967V25.593H219.829ZM214.865 24.573V26.358H226.527V24.573H214.865ZM219.557 22.805V25.185H221.801V22.805H219.557ZM239.275 22.754V38.496H241.553V22.754H239.275ZM240.958 28.772V30.625H243.729V28.772H240.958ZM235.144 24.386V24.777C235.144 29.044 233.189 31.934 229.058 34.076L230.316 35.793C235.552 33.158 237.354 29.112 237.354 24.386H235.144ZM229.925 24.386V26.205H236.3V24.386H229.925Z" fill="#FEFEFE"/>
</svg>
