<svg width="212" height="238" viewBox="0 0 212 238" fill="none" xmlns="http://www.w3.org/2000/svg">
<path fill-rule="evenodd" clip-rule="evenodd" d="M211.957 105.979C211.957 157.338 175.424 200.164 126.927 209.887L113.294 233.5C109.83 239.5 101.17 239.5 97.7058 233.5L83.9438 209.664C35.9887 199.522 0 156.953 0 105.979C0 47.4483 47.4483 0 105.979 0C164.509 0 211.957 47.4483 211.957 105.979ZM105.5 203C159.348 203 203 159.348 203 105.5C203 51.6522 159.348 8 105.5 8C51.6522 8 8 51.6522 8 105.5C8 159.348 51.6522 203 105.5 203Z" fill="#FDC15F"/>
</svg>
