<svg width="185" height="140" viewBox="0 0 185 140" fill="none" xmlns="http://www.w3.org/2000/svg">
<g clip-path="url(#clip0_497_18)">
<mask id="mask0_497_18" style="mask-type:alpha" maskUnits="userSpaceOnUse" x="0" y="0" width="185" height="140">
<path d="M0 5.61497C0 2.51391 3.62219 0 8.09038 0H176.91C181.378 0 185 2.51391 185 5.61497V134.385C185 137.486 181.378 140 176.91 140H8.09038C3.62219 140 0 137.486 0 134.385V5.61497Z" fill="#26265C"/>
</mask>
<g mask="url(#mask0_497_18)">
<rect x="-18" y="-17" width="221" height="174" fill="#D9D9D9"/>
</g>
<path d="M96.6827 44.0773C97.102 43.3487 98.203 43.3747 98.5805 44.1257C100.314 47.5736 101.602 48.8903 104.861 50.491C105.629 50.8684 105.66 52.0034 104.917 52.4285C103.69 53.1306 102.153 54.1138 101.169 55.1167C100.234 56.0706 99.3128 57.5385 98.6515 58.7118C98.2379 59.4456 97.1092 59.4491 96.6932 58.7167C96.0034 57.5024 95.036 55.9688 94.0749 55.0076C93.1174 54.0502 91.592 53.0866 90.3799 52.3973C89.6453 51.9796 89.6514 50.8442 90.3885 50.4308C91.5621 49.7727 93.0237 48.855 93.9657 47.913C94.944 46.9348 95.9612 45.331 96.6827 44.0773Z" fill="#FEFEFE"/>
<path d="M79.9213 65.7754C79.5563 65.567 79.5695 65.0161 79.9456 64.8285C81.854 63.8765 82.5563 63.1883 83.4344 61.3819C83.6215 60.9971 84.188 60.9823 84.399 61.3545C84.7754 62.0185 85.3166 62.8751 85.869 63.4169C86.3946 63.9322 87.2127 64.4396 87.8478 64.7943C88.2156 64.9997 88.2171 65.563 87.8502 65.7697C87.1936 66.1394 86.3397 66.6718 85.8108 67.2007C85.2838 67.7277 84.7533 68.5774 84.3837 69.2331C84.1763 69.6011 83.6096 69.5981 83.4044 69.2287C83.0514 68.593 82.5461 67.778 82.027 67.2589C81.4896 66.7214 80.598 66.1619 79.9213 65.7754Z" fill="#FEFEFE"/>
<rect x="68" y="32" width="49" height="49" rx="16" stroke="#FEFEFE" stroke-width="2"/>
<path d="M70.904 105.016V106.372H79.328V105.016H70.904ZM69.74 96.532V97.876H80.552V96.532H69.74ZM70.112 98.668V107.08H71.504V98.668H70.112ZM78.776 98.668V107.068H80.18V98.668H78.776ZM74.36 96.916V99.376H75.824V96.916H74.36ZM74.48 99.388V103.864H75.716V99.388H74.48ZM73.448 102.124H76.76V103.144H73.448V102.124ZM73.448 100.012H76.76V101.02H73.448V100.012ZM72.26 98.836V104.32H77.996V98.836H72.26ZM86.9 95.812C86.444 96.712 85.628 97.768 84.488 98.572C84.824 98.74 85.292 99.1 85.532 99.388C86.732 98.404 87.596 97.24 88.244 96.064L86.9 95.812ZM87.272 96.544L86.444 97.588H89.948V96.544H87.272ZM86.66 99.208H91.208V100.12H86.66V99.208ZM85.364 98.224V101.08H92.588V98.224H85.364ZM88.22 98.656V100.564H89.504V98.656H88.22ZM88.436 100.216C87.608 101.008 86.096 101.692 84.728 102.088C84.968 102.304 85.34 102.784 85.508 103.024C86.9 102.508 88.532 101.632 89.516 100.648L88.436 100.216ZM86.972 101.836C88.868 103.156 88.904 105.208 88.388 105.676C88.232 105.868 88.04 105.904 87.788 105.904C87.548 105.904 87.236 105.892 86.888 105.844C87.104 106.204 87.2 106.732 87.212 107.068C87.512 107.092 87.824 107.092 88.064 107.092C88.592 107.068 88.964 106.972 89.336 106.6C90.32 105.76 90.296 102.868 87.92 101.26L86.972 101.836ZM88.208 102.04C87.464 102.7 85.952 103.456 84.8 103.78C85.04 104.02 85.304 104.416 85.448 104.692C86.636 104.212 88.16 103.336 89 102.58L88.208 102.04ZM88.796 103.264C87.908 104.188 86.072 105.196 84.608 105.652C84.884 105.904 85.184 106.348 85.352 106.66C86.84 106.06 88.688 104.92 89.696 103.9L88.796 103.264ZM92.048 101.32C91.616 101.8 90.872 102.448 90.344 102.808L91.16 103.588C91.7 103.252 92.432 102.7 93.008 102.184L92.048 101.32ZM90.356 100.456L89.192 100.66C89.684 103.288 90.56 105.46 92.24 106.612C92.444 106.252 92.864 105.736 93.164 105.484C91.628 104.572 90.764 102.628 90.356 100.456ZM89.516 96.544V96.772C89.324 97.228 88.904 97.912 88.532 98.32C88.76 98.512 89.132 98.92 89.312 99.172C89.852 98.644 90.488 97.804 90.92 97.072L90.08 96.46L89.816 96.544H89.516ZM83.888 95.836C83.372 97.588 82.484 99.352 81.512 100.48C81.74 100.864 82.088 101.68 82.208 102.04C83.432 100.6 84.536 98.32 85.22 96.22L83.888 95.836ZM82.94 99.124V107.068H84.308V97.828L84.272 97.804L82.94 99.124ZM94.604 98.14L94.712 99.544C95.228 99.568 95.732 99.58 96.212 99.58C97.748 99.592 99.476 99.28 100.508 98.992L100.472 97.6C99.308 97.972 97.688 98.224 96.2 98.224C95.768 98.224 95.12 98.2 94.604 98.14ZM99.272 96.34L97.616 96.184C97.58 97.108 97.316 98.224 97.028 99.088C96.56 100.384 95.48 102.484 94.4 103.804L95.852 104.548C96.872 103.132 97.952 100.9 98.504 99.172C98.828 98.152 99.116 96.976 99.272 96.34ZM102.092 100.084H100.58C100.64 101.344 100.772 103.552 100.772 104.272C100.772 104.944 100.508 105.4 99.692 105.4C99.032 105.4 98.648 105.088 98.648 104.644C98.648 104.224 99.104 103.924 99.8 103.924C101.612 103.924 102.98 105.16 103.844 105.964L104.636 104.668C103.64 103.768 101.984 102.712 99.884 102.712C98.216 102.712 97.232 103.624 97.232 104.788C97.232 106.108 98.408 106.78 99.896 106.78C101.612 106.78 102.212 105.904 102.212 104.788C102.212 104.116 102.104 102.328 102.08 101.62C102.068 101.092 102.056 100.588 102.092 100.084ZM104.156 100.72L105.008 99.448C104.384 99.004 102.908 98.2 102.044 97.828L101.264 99.004C102.092 99.376 103.46 100.156 104.156 100.72ZM110.312 96.484L108.38 96.472C108.476 96.94 108.524 97.516 108.524 98.092C108.524 99.124 108.416 102.268 108.416 103.876C108.416 105.928 109.676 106.792 111.644 106.792C114.38 106.792 116.084 105.196 116.864 104.044L115.772 102.712C114.896 104.02 113.648 105.16 111.668 105.16C110.732 105.16 110.012 104.764 110.012 103.552C110.012 102.064 110.096 99.388 110.156 98.092C110.18 97.612 110.24 96.988 110.312 96.484Z" fill="#FEFEFE"/>
</g>
<defs>
<clipPath id="clip0_497_18">
<rect width="185" height="140" fill="white"/>
</clipPath>
</defs>
</svg>
