<svg width="33" height="33" viewBox="0 0 33 33" fill="none" xmlns="http://www.w3.org/2000/svg">
<mask id="path-1-inside-1_1007_194" fill="white">
<path fill-rule="evenodd" clip-rule="evenodd" d="M12.0999 10.5557C9.33849 10.5557 7.09991 12.7942 7.09991 15.5557V16.2307C7.09991 16.9792 7.26441 17.6894 7.55924 18.3269C6.31003 19.5754 5.57495 21.1043 5.57495 22.7558C5.57495 26.967 10.3543 30.3808 16.25 30.3808C22.1456 30.3808 26.925 26.967 26.925 22.7558C26.925 21.1042 26.1899 19.5753 24.9406 18.3269C25.2354 17.6893 25.3999 16.9792 25.3999 16.2307V15.5557C25.3999 12.7942 23.1613 10.5557 20.3999 10.5557H12.0999Z"/>
</mask>
<path d="M7.55924 18.3269L8.97302 19.7416L9.96054 18.7547L9.37454 17.4875L7.55924 18.3269ZM24.9406 18.3269L23.1253 17.4874L22.5393 18.7546L23.5268 19.7415L24.9406 18.3269ZM9.09991 15.5557C9.09991 13.8988 10.4431 12.5557 12.0999 12.5557V8.55566C8.23392 8.55566 5.09991 11.6897 5.09991 15.5557H9.09991ZM9.09991 16.2307V15.5557H5.09991V16.2307H9.09991ZM9.37454 17.4875C9.19891 17.1077 9.09991 16.6835 9.09991 16.2307H5.09991C5.09991 17.275 5.32992 18.2711 5.74394 19.1664L9.37454 17.4875ZM7.57495 22.7558C7.57495 21.7326 8.02392 20.6901 8.97302 19.7416L6.14546 16.9123C4.59614 18.4606 3.57495 20.476 3.57495 22.7558H7.57495ZM16.25 28.3808C13.6709 28.3808 11.4195 27.6311 9.86406 26.52C8.30474 25.4062 7.57495 24.0478 7.57495 22.7558H3.57495C3.57495 25.6749 5.23484 28.129 7.53911 29.7749C9.84722 31.4236 12.9333 32.3808 16.25 32.3808V28.3808ZM24.925 22.7558C24.925 24.0478 24.1952 25.4062 22.6358 26.52C21.0804 27.6311 18.829 28.3808 16.25 28.3808V32.3808C19.5666 32.3808 22.6527 31.4236 24.9608 29.7749C27.2651 28.129 28.925 25.6749 28.925 22.7558H24.925ZM23.5268 19.7415C24.476 20.6901 24.925 21.7325 24.925 22.7558H28.925C28.925 20.4759 27.9037 18.4606 26.3544 16.9122L23.5268 19.7415ZM23.3999 16.2307C23.3999 16.6835 23.3009 17.1077 23.1253 17.4874L26.7559 19.1663C27.1699 18.271 27.3999 17.275 27.3999 16.2307H23.3999ZM23.3999 15.5557V16.2307H27.3999V15.5557H23.3999ZM20.3999 12.5557C22.0568 12.5557 23.3999 13.8988 23.3999 15.5557H27.3999C27.3999 11.6897 24.2659 8.55566 20.3999 8.55566V12.5557ZM12.0999 12.5557H20.3999V8.55566H12.0999V12.5557Z" fill="#26265C" mask="url(#path-1-inside-1_1007_194)"/>
<path fill-rule="evenodd" clip-rule="evenodd" d="M25.3998 16.1214C27.7232 15.7556 29.5 13.7445 29.5 11.3183C29.5 8.63283 27.323 6.45581 24.6375 6.45581C22.2115 6.45581 20.2004 8.23247 19.8345 10.5557H17.8169C18.1963 7.12452 21.1052 4.45581 24.6375 4.45581C28.4276 4.45581 31.5 7.52826 31.5 11.3183C31.5 14.9836 28.6265 17.9777 25.0094 18.1709C25.2608 17.5743 25.3998 16.9187 25.3998 16.2307V16.1214Z" fill="#26265C"/>
<path fill-rule="evenodd" clip-rule="evenodd" d="M12.6655 10.5557C12.2996 8.23247 10.2885 6.45581 7.8625 6.45581C5.17702 6.45581 3 8.63283 3 11.3183C3 13.7443 4.77666 15.7554 7.09985 16.1214V16.2307C7.09985 16.9187 7.23883 17.5743 7.49025 18.1709C3.87329 17.9775 1 14.9835 1 11.3183C1 7.52826 4.07245 4.45581 7.8625 4.45581C11.3948 4.45581 14.3037 7.12452 14.6831 10.5557H12.6655Z" fill="#26265C"/>
<ellipse cx="16.2497" cy="20.9766" rx="2.54167" ry="1.27083" fill="#26265C"/>
</svg>
