<svg width="30" height="30" viewBox="0 0 30 30" fill="none" xmlns="http://www.w3.org/2000/svg">
<path d="M7.5789 17.3682L8.07266 16.8747L7.77966 16.2411C7.57124 15.7904 7.45444 15.2878 7.45444 14.7552V14.1415C7.45444 12.1834 9.0418 10.5961 10.9999 10.5961H18.5454C20.5035 10.5961 22.0908 12.1834 22.0908 14.1415V14.7552C22.0908 15.2878 21.974 15.7904 21.7656 16.2411L21.4726 16.8747L21.9664 17.3681C22.952 18.3531 23.4772 19.4998 23.4772 20.6871C23.4772 22.1945 22.6235 23.6535 21.0536 24.7749C19.4856 25.8949 17.2681 26.6189 14.7727 26.6189C12.2772 26.6189 10.0598 25.8949 8.49175 24.7749C6.92181 23.6535 6.06812 22.1945 6.06812 20.6871C6.06812 19.4999 6.59331 18.3532 7.5789 17.3682Z" stroke="#26265C" stroke-width="2"/>
<path d="M23.0909 14.6559C25.203 14.3233 26.8183 12.495 26.8183 10.2894C26.8183 7.84807 24.8392 5.86896 22.3979 5.86896C20.1924 5.86896 18.3642 7.48411 18.0315 9.5961H16.1973C16.5422 6.47688 19.1867 4.05078 22.3979 4.05078C25.8434 4.05078 28.6365 6.84391 28.6365 10.2894C28.6365 13.6215 26.0242 16.3434 22.736 16.5191C22.9645 15.9767 23.0909 15.3807 23.0909 14.7552V14.6559Z" fill="#26265C"/>
<path d="M11.5142 9.5961C11.1815 7.48412 9.35329 5.86897 7.14782 5.86897C4.70647 5.86897 2.72736 7.84808 2.72736 10.2894C2.72736 12.4949 4.34251 14.3231 6.4545 14.6558V14.7552C6.4545 15.3807 6.58084 15.9767 6.8094 16.519C3.52126 16.3433 0.90918 13.6214 0.90918 10.2894C0.90918 6.84392 3.70231 4.05079 7.14782 4.05079C10.359 4.05079 13.0035 6.47689 13.3484 9.5961H11.5142Z" fill="#26265C"/>
<ellipse cx="14.7725" cy="19.0697" rx="2.31061" ry="1.1553" fill="#26265C"/>
</svg>
