<svg width="65" height="65" viewBox="0 0 65 65" fill="none" xmlns="http://www.w3.org/2000/svg">
<g filter="url(#filter0_d_695_259)">
<circle cx="32.5" cy="32.5" r="27.5" fill="#FEFEFE" fill-opacity="0.91" shape-rendering="crispEdges"/>
<circle cx="32.5" cy="32.5" r="27.2" stroke="#FEFEFE" stroke-width="0.6" shape-rendering="crispEdges"/>
</g>
<mask id="path-3-inside-1_695_259" fill="white">
<path fill-rule="evenodd" clip-rule="evenodd" d="M28.8 25.7999C26.0386 25.7999 23.8 28.0385 23.8 30.7999V30.9499C23.8 31.7308 23.979 32.4698 24.2982 33.1282C23.0732 34.3262 22.3501 35.8028 22.3501 37.4C22.3501 41.404 26.8944 44.65 32.5001 44.65C38.1058 44.65 42.6501 41.404 42.6501 37.4C42.6501 35.8028 41.927 34.3262 40.7019 33.1281C41.0211 32.4697 41.2 31.7307 41.2 30.9499V30.7999C41.2 28.0385 38.9615 25.7999 36.2 25.7999H28.8Z"/>
</mask>
<path d="M24.2982 33.1282L25.6966 34.5581L26.726 33.5514L26.0979 32.2558L24.2982 33.1282ZM40.7019 33.1281L38.9022 32.2558L38.2742 33.5514L39.3036 34.5581L40.7019 33.1281ZM25.8 30.7999C25.8 29.1431 27.1432 27.7999 28.8 27.7999V23.7999C24.934 23.7999 21.8 26.9339 21.8 30.7999H25.8ZM25.8 30.9499V30.7999H21.8V30.9499H25.8ZM26.0979 32.2558C25.9077 31.8634 25.8 31.4221 25.8 30.9499H21.8C21.8 32.0395 22.0504 33.0762 22.4985 34.0006L26.0979 32.2558ZM24.3501 37.4C24.3501 36.4426 24.777 35.4574 25.6966 34.5581L22.8999 31.6983C21.3693 33.1951 20.3501 35.163 20.3501 37.4H24.3501ZM32.5001 42.65C30.066 42.65 27.9459 41.9422 26.4854 40.899C25.0211 39.8531 24.3501 38.5885 24.3501 37.4H20.3501C20.3501 40.2155 21.9512 42.5759 24.1605 44.154C26.3736 45.7348 29.3285 46.65 32.5001 46.65V42.65ZM40.6501 37.4C40.6501 38.5885 39.9791 39.8531 38.5148 40.899C37.0543 41.9422 34.9342 42.65 32.5001 42.65V46.65C35.6717 46.65 38.6266 45.7348 40.8397 44.154C43.049 42.5759 44.6501 40.2155 44.6501 37.4H40.6501ZM39.3036 34.5581C40.2232 35.4573 40.6501 36.4425 40.6501 37.4H44.6501C44.6501 35.163 43.6309 33.195 42.1002 31.6982L39.3036 34.5581ZM39.2 30.9499C39.2 31.422 39.0924 31.8634 38.9022 32.2558L42.5016 34.0005C42.9497 33.0761 43.2 32.0394 43.2 30.9499H39.2ZM39.2 30.7999V30.9499H43.2V30.7999H39.2ZM36.2 27.7999C37.8569 27.7999 39.2 29.1431 39.2 30.7999H43.2C43.2 26.9339 40.066 23.7999 36.2 23.7999V27.7999ZM28.8 27.7999H36.2V23.7999H28.8V27.7999Z" fill="#26265C" mask="url(#path-3-inside-1_695_259)"/>
<path fill-rule="evenodd" clip-rule="evenodd" d="M41.1998 30.9922C43.3543 30.6453 44.9999 28.7773 44.9999 26.525C44.9999 24.0259 42.974 22 40.4749 22C38.2226 22 36.3547 23.6455 36.0077 25.7999H33.9897C34.3504 22.5375 37.1163 20 40.4749 20C44.0786 20 46.9999 22.9213 46.9999 26.525C46.9999 30.0394 44.2215 32.9049 40.7414 33.0447C41.0302 32.4195 41.1938 31.7247 41.1998 30.9922Z" fill="#26265C"/>
<path fill-rule="evenodd" clip-rule="evenodd" d="M28.9922 25.7999C28.6452 23.6455 26.7773 22 24.525 22C22.0259 22 20 24.0259 20 26.525C20 28.7774 21.6457 30.6454 23.8002 30.9923C23.8063 31.7247 23.9698 32.4195 24.2587 33.0447C20.7785 32.9049 18 30.0394 18 26.525C18 22.9213 20.9213 20 24.525 20C27.8836 20 30.6495 22.5375 31.0102 25.7999H28.9922Z" fill="#26265C"/>
<ellipse cx="32.4999" cy="35.7083" rx="2.41667" ry="1.20833" fill="#26265C"/>
<defs>
<filter id="filter0_d_695_259" x="0" y="0" width="65" height="65" filterUnits="userSpaceOnUse" color-interpolation-filters="sRGB">
<feFlood flood-opacity="0" result="BackgroundImageFix"/>
<feColorMatrix in="SourceAlpha" type="matrix" values="0 0 0 0 0 0 0 0 0 0 0 0 0 0 0 0 0 0 127 0" result="hardAlpha"/>
<feOffset/>
<feGaussianBlur stdDeviation="2.5"/>
<feComposite in2="hardAlpha" operator="out"/>
<feColorMatrix type="matrix" values="0 0 0 0 0.14902 0 0 0 0 0.14902 0 0 0 0 0.360784 0 0 0 0.2 0"/>
<feBlend mode="normal" in2="BackgroundImageFix" result="effect1_dropShadow_695_259"/>
<feBlend mode="normal" in="SourceGraphic" in2="effect1_dropShadow_695_259" result="shape"/>
</filter>
</defs>
</svg>
