<svg width="79" height="79" viewBox="0 0 79 79" fill="none" xmlns="http://www.w3.org/2000/svg">
<g filter="url(#filter0_d_632_215)">
<circle cx="39.5" cy="39.5" r="27.5" fill="#FEFEFE"/>
</g>
<mask id="path-2-inside-1_632_215" fill="white">
<path fill-rule="evenodd" clip-rule="evenodd" d="M35.9922 32.7999H35.8C33.0386 32.7999 30.8 35.0385 30.8 37.7999V37.9499C30.8 37.9641 30.8001 37.9782 30.8002 37.9923C28.6457 37.6454 27 35.7774 27 33.525C27 31.0259 29.0259 29 31.525 29C33.7773 29 35.6452 30.6455 35.9922 32.7999ZM38.0102 32.7999C37.6495 29.5375 34.8836 27 31.525 27C27.9213 27 25 29.9213 25 33.525C25 37.0394 27.7785 39.9049 31.2587 40.0447C31.2716 40.0727 31.2848 40.1005 31.2982 40.1282C30.0732 41.3262 29.3501 42.8028 29.3501 44.4C29.3501 48.404 33.8944 51.65 39.5001 51.65C45.1058 51.65 49.6501 48.404 49.6501 44.4C49.6501 42.8028 48.927 41.3262 47.7019 40.1281C47.7153 40.1005 47.7285 40.0726 47.7414 40.0447C51.2215 39.9049 54 37.0394 54 33.525C54 29.9213 51.0786 27 47.475 27C44.1164 27 41.3505 29.5375 40.9898 32.7999H38.0102ZM48.1999 37.9922C48.2 37.9782 48.2 37.964 48.2 37.9499V37.7999C48.2 35.0385 45.9615 32.7999 43.2 32.7999H43.0077C43.3547 30.6455 45.2227 29 47.475 29C49.974 29 52 31.0259 52 33.525C52 35.7773 50.3543 37.6453 48.1999 37.9922Z"/>
</mask>
<path d="M35.9922 32.7999V34.7999H38.3401L37.9668 32.4819L35.9922 32.7999ZM30.8002 37.9923L30.4823 39.9668L32.8198 40.3431L32.8001 37.9757L30.8002 37.9923ZM38.0102 32.7999L36.0223 33.0197L36.2191 34.7999H38.0102V32.7999ZM31.2587 40.0447L33.0742 39.2058L32.5612 38.0953L31.3389 38.0463L31.2587 40.0447ZM31.2982 40.1282L32.6966 41.5581L33.726 40.5514L33.0979 39.2558L31.2982 40.1282ZM47.7019 40.1281L45.9022 39.2557L45.2741 40.5514L46.3036 41.5581L47.7019 40.1281ZM47.7414 40.0447L47.6611 38.0463L46.4389 38.0954L45.9258 39.2059L47.7414 40.0447ZM40.9898 32.7999V34.7999H42.7809L42.9777 33.0197L40.9898 32.7999ZM48.1999 37.9922L46.1999 37.9757L46.1804 40.3432L48.5178 39.9668L48.1999 37.9922ZM43.0077 32.7999L41.0332 32.4819L40.6598 34.7999H43.0077V32.7999ZM35.9922 30.7999H35.8V34.7999H35.9922V30.7999ZM35.8 30.7999C31.934 30.7999 28.8 33.9339 28.8 37.7999H32.8C32.8 36.1431 34.1432 34.7999 35.8 34.7999V30.7999ZM28.8 37.7999V37.9499H32.8V37.7999H28.8ZM28.8 37.9499C28.8 37.9698 28.8001 37.9894 28.8003 38.0088L32.8001 37.9757C32.8001 37.9669 32.8 37.9583 32.8 37.9499H28.8ZM31.1181 36.0177C29.9175 35.8244 29 34.7799 29 33.525H25C25 36.7748 27.3739 39.4664 30.4823 39.9668L31.1181 36.0177ZM29 33.525C29 32.1305 30.1305 31 31.525 31V27C27.9213 27 25 29.9213 25 33.525H29ZM31.525 31C32.7799 31 33.8243 31.9174 34.0177 33.1179L37.9668 32.4819C37.4662 29.3737 34.7747 27 31.525 27V31ZM31.525 29C33.8528 29 35.7724 30.7594 36.0223 33.0197L39.9981 32.5802C39.5266 28.3156 35.9144 25 31.525 25V29ZM27 33.525C27 31.0259 29.0259 29 31.525 29V25C26.8168 25 23 28.8168 23 33.525H27ZM31.3389 38.0463C28.9269 37.9494 27 35.9618 27 33.525H23C23 38.1171 26.6301 41.8605 31.1784 42.0431L31.3389 38.0463ZM29.4431 40.8835C29.4612 40.9227 29.4797 40.9617 29.4985 41.0007L33.0979 39.2558C33.0899 39.2393 33.082 39.2226 33.0742 39.2058L29.4431 40.8835ZM29.8999 38.6983C28.3693 40.1951 27.3501 42.163 27.3501 44.4H31.3501C31.3501 43.4426 31.777 42.4574 32.6966 41.5581L29.8999 38.6983ZM27.3501 44.4C27.3501 47.2155 28.9512 49.5759 31.1605 51.154C33.3736 52.7348 36.3285 53.65 39.5001 53.65V49.65C37.066 49.65 34.9459 48.9422 33.4854 47.899C32.0211 46.8531 31.3501 45.5885 31.3501 44.4H27.3501ZM39.5001 53.65C42.6717 53.65 45.6266 52.7348 47.8397 51.154C50.049 49.5759 51.6501 47.2155 51.6501 44.4H47.6501C47.6501 45.5885 46.9791 46.8531 45.5148 47.899C44.0543 48.9422 41.9342 49.65 39.5001 49.65V53.65ZM51.6501 44.4C51.6501 42.163 50.6309 40.195 49.1002 38.6982L46.3036 41.5581C47.2232 42.4573 47.6501 43.4425 47.6501 44.4H51.6501ZM49.5016 41.0006C49.5204 40.9617 49.5389 40.9226 49.557 40.8835L45.9258 39.2059C45.9181 39.2226 45.9102 39.2392 45.9022 39.2557L49.5016 41.0006ZM52 33.525C52 35.9617 50.0731 37.9494 47.6611 38.0463L47.8217 42.043C52.3699 41.8604 56 38.1171 56 33.525H52ZM47.475 29C49.974 29 52 31.0259 52 33.525H56C56 28.8168 52.1832 25 47.475 25V29ZM42.9777 33.0197C43.2276 30.7594 45.1472 29 47.475 29V25C43.0856 25 39.4734 28.3156 39.0019 32.5802L42.9777 33.0197ZM40.9898 30.7999H38.0102V34.7999H40.9898V30.7999ZM50.1998 38.0088C50.2 37.9894 50.2 37.9698 50.2 37.9499H46.2C46.2 37.9583 46.2 37.9669 46.1999 37.9757L50.1998 38.0088ZM50.2 37.9499V37.7999H46.2V37.9499H50.2ZM50.2 37.7999C50.2 33.9339 47.066 30.7999 43.2 30.7999V34.7999C44.8569 34.7999 46.2 36.1431 46.2 37.7999H50.2ZM43.2 30.7999H43.0077V34.7999H43.2V30.7999ZM44.9823 33.1179C45.1756 31.9174 46.2201 31 47.475 31V27C44.2253 27 41.5338 29.3737 41.0332 32.4819L44.9823 33.1179ZM47.475 31C48.8695 31 50 32.1305 50 33.525H54C54 29.9213 51.0786 27 47.475 27V31ZM50 33.525C50 34.7799 49.0825 35.8244 47.8819 36.0177L48.5178 39.9668C51.6262 39.4663 54 36.7748 54 33.525H50Z" fill="#26265C" mask="url(#path-2-inside-1_632_215)"/>
<ellipse cx="39.4999" cy="42.7083" rx="2.41667" ry="1.20833" fill="#26265C"/>
<defs>
<filter id="filter0_d_632_215" x="0" y="0" width="79" height="79" filterUnits="userSpaceOnUse" color-interpolation-filters="sRGB">
<feFlood flood-opacity="0" result="BackgroundImageFix"/>
<feColorMatrix in="SourceAlpha" type="matrix" values="0 0 0 0 0 0 0 0 0 0 0 0 0 0 0 0 0 0 127 0" result="hardAlpha"/>
<feOffset/>
<feGaussianBlur stdDeviation="6"/>
<feComposite in2="hardAlpha" operator="out"/>
<feColorMatrix type="matrix" values="0 0 0 0 0.14902 0 0 0 0 0.14902 0 0 0 0 0.360784 0 0 0 0.2 0"/>
<feBlend mode="normal" in2="BackgroundImageFix" result="effect1_dropShadow_632_215"/>
<feBlend mode="normal" in="SourceGraphic" in2="effect1_dropShadow_632_215" result="shape"/>
</filter>
</defs>
</svg>
