<svg width="88" height="35" viewBox="0 0 88 35" fill="none" xmlns="http://www.w3.org/2000/svg">
<g filter="url(#filter0_d_1170_1052)">
<g filter="url(#filter1_b_1170_1052)">
<g filter="url(#filter2_b_1170_1052)">
<rect x="4" y="4" width="80" height="27" rx="13.5" fill="white" fill-opacity="0.46"/>
</g>
<path d="M26.1821 13.373C24.8735 13.3779 23.9409 14.1055 23.9458 15.1797C23.9409 16.0635 24.5952 16.7324 25.5767 16.9277V17.626C24.8198 17.6455 24.1021 17.6504 23.4868 17.6504L23.6138 18.6367C25.0982 18.6416 27.1343 18.5977 28.9653 18.2754L28.8677 17.3672C28.2183 17.46 27.5249 17.5234 26.8267 17.5674V16.918C27.7788 16.7129 28.4136 16.0488 28.4185 15.1797C28.4136 14.1055 27.481 13.3779 26.1821 13.373ZM24.6587 21.7324H30.9185V20.7363H25.9087V19.2031H24.6587V21.7324ZM25.1079 15.1797C25.0982 14.623 25.5523 14.3203 26.1821 14.3105C26.8169 14.3203 27.2466 14.623 27.2466 15.1797C27.2466 15.7217 26.8218 16.0342 26.1821 16.0391C25.5523 16.0342 25.0982 15.7217 25.1079 15.1797ZM29.3657 19.7988H30.6157V16.8496H31.7485V15.8145H30.6157V13.0215H29.3657V19.7988ZM40.7337 19.8867H38.7415V18.5293H40.0013V17.5234H34.7864V16.5371H39.7962V13.5879H33.5267V14.584H38.5657V15.541H33.5364V18.5293H34.679V19.8867H32.5989V20.9121H40.7337V19.8867ZM35.89 19.8867V18.5293H37.5208V19.8867H35.89ZM46.8771 15.7363H43.7325V14.5449H46.7989V13.5488H42.4825V16.7324H44.0353V17.6699C43.2296 17.6895 42.4435 17.6992 41.7306 17.6992L41.8966 18.6855C43.5421 18.6855 45.5489 18.6367 47.4337 18.373L47.3458 17.4844C46.6866 17.5527 45.9884 17.5967 45.2853 17.6309V16.7324H46.8771V15.7363ZM43.1075 21.7422H49.3966V20.7461H44.3673V19.1934H43.1075V21.7422ZM47.8927 19.7012H49.1622V13.002H47.8927V19.7012ZM55.99 13.6367C54.6423 13.6367 53.6755 14.8623 53.6853 16.8008C53.6755 18.7539 54.6423 19.9746 55.99 19.9746C56.8493 19.9746 57.5573 19.4668 57.9528 18.5879H59.8083V21.918H61.0388V13.0117H59.8083V14.8379H57.8601C57.4548 14.0713 56.7907 13.6367 55.99 13.6367ZM54.8767 16.8008C54.8718 15.4824 55.3259 14.7598 55.99 14.7598C56.6589 14.7598 57.1032 15.4824 57.1032 16.8008C57.1032 18.124 56.6589 18.8467 55.99 18.8418C55.3259 18.8467 54.8718 18.124 54.8767 16.8008ZM58.2067 15.8438H59.8083V17.5918H58.236C58.2751 17.3428 58.2946 17.0791 58.2946 16.8008C58.2946 16.459 58.2653 16.1367 58.2067 15.8438ZM70.2681 13.0117H69.0864V15.209H68.3735V13.1777H67.2114V18.2949H68.3735V16.2246H69.0864V18.5879H70.2681V13.0117ZM62.5825 14.8965H66.9478V13.9297H65.395V13.0898H64.1548V13.9297H62.5825V14.8965ZM62.856 16.7422C62.8511 17.665 63.6665 18.2803 64.7798 18.2852C65.9077 18.2803 66.7183 17.665 66.7232 16.7422C66.7183 15.8096 65.9077 15.1895 64.7798 15.1895C63.6665 15.1895 62.8511 15.8096 62.856 16.7422ZM63.9692 16.7422C63.9644 16.3271 64.2964 16.083 64.7798 16.0879C65.2632 16.083 65.5952 16.3271 65.6001 16.7422C65.5952 17.1523 65.2632 17.4014 64.7798 17.3965C64.2915 17.4014 63.9644 17.1523 63.9692 16.7422ZM64.1548 20.2871C64.1499 21.3125 65.3169 21.9033 67.231 21.8984C69.1499 21.9033 70.3071 21.3125 70.3169 20.2871C70.3071 19.2568 69.1499 18.6709 67.231 18.666C65.3169 18.6709 64.1499 19.2568 64.1548 20.2871ZM65.4048 20.2871C65.395 19.8184 66.0249 19.5986 67.231 19.6035C68.4419 19.5986 69.0571 19.8184 69.0571 20.2871C69.0571 20.7363 68.4419 20.9609 67.231 20.9609C66.0249 20.9609 65.395 20.7363 65.4048 20.2871Z" fill="#FEFEFE"/>
</g>
<circle cx="15.5143" cy="17.6572" r="2.65715" fill="#51CBFF"/>
</g>
<defs>
<filter id="filter0_d_1170_1052" x="0" y="0" width="88" height="35" filterUnits="userSpaceOnUse" color-interpolation-filters="sRGB">
<feFlood flood-opacity="0" result="BackgroundImageFix"/>
<feColorMatrix in="SourceAlpha" type="matrix" values="0 0 0 0 0 0 0 0 0 0 0 0 0 0 0 0 0 0 127 0" result="hardAlpha"/>
<feOffset/>
<feGaussianBlur stdDeviation="2"/>
<feComposite in2="hardAlpha" operator="out"/>
<feColorMatrix type="matrix" values="0 0 0 0 0 0 0 0 0 0 0 0 0 0 0 0 0 0 0.25 0"/>
<feBlend mode="normal" in2="BackgroundImageFix" result="effect1_dropShadow_1170_1052"/>
<feBlend mode="normal" in="SourceGraphic" in2="effect1_dropShadow_1170_1052" result="shape"/>
</filter>
<filter id="filter1_b_1170_1052" x="0" y="0" width="88" height="35" filterUnits="userSpaceOnUse" color-interpolation-filters="sRGB">
<feFlood flood-opacity="0" result="BackgroundImageFix"/>
<feGaussianBlur in="BackgroundImage" stdDeviation="2"/>
<feComposite in2="SourceAlpha" operator="in" result="effect1_backgroundBlur_1170_1052"/>
<feBlend mode="normal" in="SourceGraphic" in2="effect1_backgroundBlur_1170_1052" result="shape"/>
</filter>
<filter id="filter2_b_1170_1052" x="0" y="0" width="88" height="35" filterUnits="userSpaceOnUse" color-interpolation-filters="sRGB">
<feFlood flood-opacity="0" result="BackgroundImageFix"/>
<feGaussianBlur in="BackgroundImage" stdDeviation="2"/>
<feComposite in2="SourceAlpha" operator="in" result="effect1_backgroundBlur_1170_1052"/>
<feBlend mode="normal" in="SourceGraphic" in2="effect1_backgroundBlur_1170_1052" result="shape"/>
</filter>
</defs>
</svg>
