<svg width="105" height="35" viewBox="0 0 105 35" fill="none" xmlns="http://www.w3.org/2000/svg">
<g filter="url(#filter0_d_1125_182)">
<g filter="url(#filter1_b_1125_182)">
<g filter="url(#filter2_b_1125_182)">
<rect x="4" y="4" width="97" height="27" rx="13.5" fill="white" fill-opacity="0.46"/>
</g>
<path d="M25.31 21C27.4682 21 28.7719 19.667 28.767 17.4551C28.7719 15.2529 27.4682 13.9297 25.3393 13.9297H22.8197V21H25.31ZM24.2846 19.7402V15.1895H25.2611C26.599 15.1895 27.3021 15.8828 27.3021 17.4551C27.3021 19.042 26.599 19.7402 25.2514 19.7402H24.2846ZM32.7545 21.1074C34.0631 21.1025 34.942 20.4678 35.1471 19.4863H33.7701C33.6285 19.8037 33.277 20.0186 32.7838 20.0234C32.0367 20.0186 31.5631 19.5254 31.5631 18.7246H35.1861V18.3145C35.1861 16.5078 34.0875 15.6289 32.6959 15.6289C31.1432 15.6289 30.1324 16.7373 30.1373 18.373C30.1324 20.0527 31.1285 21.1025 32.7545 21.1074ZM31.5631 17.8164C31.5924 17.2061 32.0611 16.708 32.7252 16.7129C33.3697 16.708 33.8141 17.1719 33.8189 17.8164H31.5631ZM39.6717 17.2695H41.0291C40.951 16.2637 40.1209 15.6289 38.783 15.6289C37.4158 15.6289 36.5418 16.2637 36.5467 17.2793C36.5418 18.0654 37.0594 18.583 38.0701 18.7832L38.949 18.959C39.4471 19.0615 39.6717 19.2324 39.6717 19.5059C39.6717 19.8477 39.3201 20.0576 38.7928 20.0625C38.2605 20.0576 37.9236 19.8428 37.8553 19.4277H36.4002C36.5223 20.4629 37.3621 21.1025 38.7928 21.1074C40.2039 21.1025 41.1414 20.4043 41.1463 19.3594C41.1414 18.5977 40.6434 18.1387 39.6131 17.9238L38.6658 17.7285C38.1629 17.626 37.9773 17.4404 37.9822 17.2012C37.9773 16.8789 38.3338 16.6592 38.8025 16.6543C39.2859 16.6592 39.6082 16.8984 39.6717 17.2695ZM45.3779 15.6973H44.3818V14.4277H42.9365V15.6973H42.2041V16.7812H42.9365V19.5742C42.9268 20.6045 43.6396 21.0732 44.6846 21.0684C45.041 21.0732 45.2998 21.0439 45.4561 21.0195V19.877C45.2803 19.8916 45.0264 19.9062 44.8799 19.9062C44.5869 19.8965 44.377 19.7939 44.3818 19.3691V16.7812H45.3779V15.6973ZM46.8361 21H48.2814V15.6973H46.8361V21ZM46.7678 14.2715C46.7678 14.6719 47.1242 15.0039 47.5588 15.0039C47.9885 15.0039 48.3449 14.6719 48.34 14.2715C48.3449 13.8613 47.9885 13.5342 47.5588 13.5293C47.1242 13.5342 46.7678 13.8613 46.7678 14.2715ZM51.3998 17.9336C51.3998 17.2354 51.8148 16.8301 52.4154 16.8301C53.016 16.8301 53.3676 17.2207 53.3725 17.875V21H54.808V17.6211C54.8129 16.3857 54.0902 15.6289 52.9818 15.6289C52.1957 15.6289 51.6293 16.0146 51.39 16.625H51.3314V15.6973H49.9545V21H51.3998V17.9336ZM56.2271 19.5156C56.232 20.5654 56.9791 21.1025 57.9947 21.0977C58.7809 21.1025 59.2887 20.7559 59.5475 20.2676H59.5865V21H60.9537V17.4258C60.9586 16.1465 59.8648 15.6289 58.7076 15.6289C57.3014 15.6289 56.5006 16.3516 56.4127 17.2695H57.7896C57.8678 16.9082 58.1754 16.6885 58.6686 16.6836C59.2105 16.6885 59.5133 16.9424 59.5182 17.3867V17.8164C59.2936 17.8262 58.5807 17.8604 58.1998 17.8848C57.1793 17.9482 56.232 18.334 56.2271 19.5156ZM57.6139 19.4766C57.6139 19.0664 57.9312 18.8271 58.4342 18.7832C58.6783 18.7637 59.2984 18.7295 59.5182 18.7197V19.1055C59.523 19.667 59.0641 20.0967 58.4049 20.1016C57.941 20.0967 57.6139 19.8818 57.6139 19.4766ZM65.4002 15.6973H64.4041V14.4277H62.9588V15.6973H62.2264V16.7812H62.9588V19.5742C62.949 20.6045 63.6619 21.0732 64.7068 21.0684C65.0633 21.0732 65.3221 21.0439 65.4783 21.0195V19.877C65.3025 19.8916 65.0486 19.9062 64.9021 19.9062C64.6092 19.8965 64.3992 19.7939 64.4041 19.3691V16.7812H65.4002V15.6973ZM66.8584 21H68.3037V15.6973H66.8584V21ZM66.79 14.2715C66.79 14.6719 67.1465 15.0039 67.5811 15.0039C68.0107 15.0039 68.3672 14.6719 68.3623 14.2715C68.3672 13.8613 68.0107 13.5342 67.5811 13.5293C67.1465 13.5342 66.79 13.8613 66.79 14.2715ZM72.3596 21.1074C73.966 21.1025 74.9621 20.0039 74.967 18.3633C74.9621 16.7275 73.966 15.6289 72.3596 15.6289C70.758 15.6289 69.757 16.7275 69.7619 18.3633C69.757 20.0039 70.758 21.1025 72.3596 21.1074ZM71.2268 18.3633C71.2268 17.4307 71.6125 16.7324 72.3693 16.7324C73.1066 16.7324 73.4973 17.4307 73.4924 18.3633C73.4973 19.291 73.1066 19.9795 72.3693 19.9844C71.6125 19.9795 71.2268 19.291 71.2268 18.3633ZM77.8705 17.9336C77.8705 17.2354 78.2855 16.8301 78.8861 16.8301C79.4867 16.8301 79.8383 17.2207 79.8432 17.875V21H81.2787V17.6211C81.2836 16.3857 80.5609 15.6289 79.4525 15.6289C78.6664 15.6289 78.1 16.0146 77.8607 16.625H77.8021V15.6973H76.4252V21H77.8705V17.9336ZM85.9791 17.2695H87.3365C87.2584 16.2637 86.4283 15.6289 85.0904 15.6289C83.7232 15.6289 82.8492 16.2637 82.8541 17.2793C82.8492 18.0654 83.3668 18.583 84.3775 18.7832L85.2564 18.959C85.7545 19.0615 85.9791 19.2324 85.9791 19.5059C85.9791 19.8477 85.6275 20.0576 85.1002 20.0625C84.568 20.0576 84.231 19.8428 84.1627 19.4277H82.7076C82.8297 20.4629 83.6695 21.1025 85.1002 21.1074C86.5113 21.1025 87.4488 20.4043 87.4537 19.3594C87.4488 18.5977 86.9508 18.1387 85.9205 17.9238L84.9732 17.7285C84.4703 17.626 84.2848 17.4404 84.2896 17.2012C84.2848 16.8789 84.6412 16.6592 85.11 16.6543C85.5934 16.6592 85.9156 16.8984 85.9791 17.2695Z" fill="#FEFEFE"/>
</g>
<circle cx="15.5143" cy="17.6572" r="2.65715" fill="#1DD185"/>
</g>
<defs>
<filter id="filter0_d_1125_182" x="0" y="0" width="105" height="35" filterUnits="userSpaceOnUse" color-interpolation-filters="sRGB">
<feFlood flood-opacity="0" result="BackgroundImageFix"/>
<feColorMatrix in="SourceAlpha" type="matrix" values="0 0 0 0 0 0 0 0 0 0 0 0 0 0 0 0 0 0 127 0" result="hardAlpha"/>
<feOffset/>
<feGaussianBlur stdDeviation="2"/>
<feComposite in2="hardAlpha" operator="out"/>
<feColorMatrix type="matrix" values="0 0 0 0 0 0 0 0 0 0 0 0 0 0 0 0 0 0 0.25 0"/>
<feBlend mode="normal" in2="BackgroundImageFix" result="effect1_dropShadow_1125_182"/>
<feBlend mode="normal" in="SourceGraphic" in2="effect1_dropShadow_1125_182" result="shape"/>
</filter>
<filter id="filter1_b_1125_182" x="0" y="0" width="105" height="35" filterUnits="userSpaceOnUse" color-interpolation-filters="sRGB">
<feFlood flood-opacity="0" result="BackgroundImageFix"/>
<feGaussianBlur in="BackgroundImage" stdDeviation="2"/>
<feComposite in2="SourceAlpha" operator="in" result="effect1_backgroundBlur_1125_182"/>
<feBlend mode="normal" in="SourceGraphic" in2="effect1_backgroundBlur_1125_182" result="shape"/>
</filter>
<filter id="filter2_b_1125_182" x="0" y="0" width="105" height="35" filterUnits="userSpaceOnUse" color-interpolation-filters="sRGB">
<feFlood flood-opacity="0" result="BackgroundImageFix"/>
<feGaussianBlur in="BackgroundImage" stdDeviation="2"/>
<feComposite in2="SourceAlpha" operator="in" result="effect1_backgroundBlur_1125_182"/>
<feBlend mode="normal" in="SourceGraphic" in2="effect1_backgroundBlur_1125_182" result="shape"/>
</filter>
</defs>
</svg>
