<svg width="75" height="31" viewBox="0 0 75 31" fill="none" xmlns="http://www.w3.org/2000/svg">
<g filter="url(#filter0_b_632_214)">
<rect width="75" height="30.4837" rx="15" fill="#3333F1" fill-opacity="0.4"/>
<path d="M28.704 14.532V16.492H30.566V14.532H28.704ZM29.614 9.8C27.738 9.8 26.38 10.878 26.38 12.446C26.38 13.986 27.738 15.064 29.614 15.064C31.49 15.064 32.848 13.986 32.848 12.446C32.848 10.878 31.49 9.8 29.614 9.8ZM29.614 11.2C30.51 11.2 31.112 11.648 31.112 12.446C31.112 13.23 30.51 13.678 29.614 13.678C28.732 13.678 28.116 13.23 28.116 12.446C28.116 11.648 28.732 11.2 29.614 11.2ZM34.178 9.296V19.18H36.04V9.296H34.178ZM35.382 13.356V14.882H37.664V13.356H35.382ZM27.388 20.524V22.022H36.474V20.524H27.388ZM27.388 18.326V21.168H29.264V18.326H27.388ZM25.918 17.5C28.06 17.5 31 17.458 33.618 16.968L33.492 15.638C30.944 16.002 27.906 16.016 25.708 16.016L25.918 17.5ZM41.6109 16.842V19.894H43.4309V16.842H41.6109ZM45.7129 16.828V19.894H47.5329V16.828H45.7129ZM38.6429 19.306V20.818H50.3749V19.306H38.6429ZM39.9589 10.122V11.592H47.2109V12.964H39.9869V16.618H41.8349V14.42H49.0589V10.122H39.9589ZM39.9869 15.834V17.332H49.3529V15.834H39.9869Z" fill="#FEFEFE"/>
</g>
<circle cx="12" cy="16" r="3" fill="#1DD185"/>
<defs>
<filter id="filter0_b_632_214" x="-4" y="-4" width="83" height="38.4838" filterUnits="userSpaceOnUse" color-interpolation-filters="sRGB">
<feFlood flood-opacity="0" result="BackgroundImageFix"/>
<feGaussianBlur in="BackgroundImage" stdDeviation="2"/>
<feComposite in2="SourceAlpha" operator="in" result="effect1_backgroundBlur_632_214"/>
<feBlend mode="normal" in="SourceGraphic" in2="effect1_backgroundBlur_632_214" result="shape"/>
</filter>
</defs>
</svg>
