<svg width="80" height="35" viewBox="0 0 80 35" fill="none" xmlns="http://www.w3.org/2000/svg">
<g filter="url(#filter0_d_1060_193)">
<g filter="url(#filter1_b_1060_193)">
<g filter="url(#filter2_b_1060_193)">
<rect x="4" y="4" width="72" height="27" rx="13.5" fill="white" fill-opacity="0.46"/>
</g>
<path d="M31.1581 16.293H29.9862C30.2353 15.3066 30.2353 14.5303 30.2401 13.9102V13.3145H27.2812V14.3008H29.0243C29.0097 14.8428 28.9609 15.4629 28.7314 16.293H26.456C26.7734 15.1797 26.7734 14.3398 26.7734 13.7734V13.3145H23.8144V14.3008H25.5429C25.5234 14.8037 25.455 15.4482 25.2011 16.293H23.0526V17.2793H31.1581V16.293ZM24.039 21.8008H30.2694V20.8535H25.289V20.2676H29.9862V19.3789H25.289V18.8223H30.2109V17.8945H24.039V21.8008ZM33.7566 13.6074H32.5066V17.9434H33.2683C34.5427 17.9434 35.9294 17.8701 37.3796 17.5723L37.2429 16.5566C36.0075 16.8105 34.8405 16.8936 33.7566 16.9131V13.6074ZM33.4343 21.7422H39.489V20.7461H34.6941V18.8027H33.4343V21.7422ZM37.946 19.3984H39.196V16.5566H40.3972V15.5117H39.196V13.0215H37.946V19.3984ZM46.4437 13.6367C45.096 13.6367 44.1292 14.8623 44.139 16.8008C44.1292 18.7539 45.096 19.9746 46.4437 19.9746C47.303 19.9746 48.011 19.4668 48.4066 18.5879H50.262V21.918H51.4925V13.0117H50.262V14.8379H48.3138C47.9085 14.0713 47.2444 13.6367 46.4437 13.6367ZM45.3304 16.8008C45.3255 15.4824 45.7796 14.7598 46.4437 14.7598C47.1126 14.7598 47.5569 15.4824 47.5569 16.8008C47.5569 18.124 47.1126 18.8467 46.4437 18.8418C45.7796 18.8467 45.3255 18.124 45.3304 16.8008ZM48.6605 15.8438H50.262V17.5918H48.6898C48.7288 17.3428 48.7484 17.0791 48.7484 16.8008C48.7484 16.459 48.7191 16.1367 48.6605 15.8438ZM60.7218 13.0117H59.5401V15.209H58.8273V13.1777H57.6651V18.2949H58.8273V16.2246H59.5401V18.5879H60.7218V13.0117ZM53.0362 14.8965H57.4015V13.9297H55.8487V13.0898H54.6085V13.9297H53.0362V14.8965ZM53.3097 16.7422C53.3048 17.665 54.1202 18.2803 55.2335 18.2852C56.3614 18.2803 57.172 17.665 57.1769 16.7422C57.172 15.8096 56.3614 15.1895 55.2335 15.1895C54.1202 15.1895 53.3048 15.8096 53.3097 16.7422ZM54.423 16.7422C54.4181 16.3271 54.7501 16.083 55.2335 16.0879C55.7169 16.083 56.0489 16.3271 56.0538 16.7422C56.0489 17.1523 55.7169 17.4014 55.2335 17.3965C54.7452 17.4014 54.4181 17.1523 54.423 16.7422ZM54.6085 20.2871C54.6036 21.3125 55.7706 21.9033 57.6847 21.8984C59.6036 21.9033 60.7608 21.3125 60.7706 20.2871C60.7608 19.2568 59.6036 18.6709 57.6847 18.666C55.7706 18.6709 54.6036 19.2568 54.6085 20.2871ZM55.8585 20.2871C55.8487 19.8184 56.4786 19.5986 57.6847 19.6035C58.8956 19.5986 59.5108 19.8184 59.5108 20.2871C59.5108 20.7363 58.8956 20.9609 57.6847 20.9609C56.4786 20.9609 55.8487 20.7363 55.8585 20.2871Z" fill="#FEFEFE"/>
</g>
<circle cx="15.5143" cy="17.6572" r="2.65715" fill="#51CBFF"/>
</g>
<defs>
<filter id="filter0_d_1060_193" x="0" y="0" width="80" height="35" filterUnits="userSpaceOnUse" color-interpolation-filters="sRGB">
<feFlood flood-opacity="0" result="BackgroundImageFix"/>
<feColorMatrix in="SourceAlpha" type="matrix" values="0 0 0 0 0 0 0 0 0 0 0 0 0 0 0 0 0 0 127 0" result="hardAlpha"/>
<feOffset/>
<feGaussianBlur stdDeviation="2"/>
<feComposite in2="hardAlpha" operator="out"/>
<feColorMatrix type="matrix" values="0 0 0 0 0 0 0 0 0 0 0 0 0 0 0 0 0 0 0.25 0"/>
<feBlend mode="normal" in2="BackgroundImageFix" result="effect1_dropShadow_1060_193"/>
<feBlend mode="normal" in="SourceGraphic" in2="effect1_dropShadow_1060_193" result="shape"/>
</filter>
<filter id="filter1_b_1060_193" x="0" y="0" width="80" height="35" filterUnits="userSpaceOnUse" color-interpolation-filters="sRGB">
<feFlood flood-opacity="0" result="BackgroundImageFix"/>
<feGaussianBlur in="BackgroundImage" stdDeviation="2"/>
<feComposite in2="SourceAlpha" operator="in" result="effect1_backgroundBlur_1060_193"/>
<feBlend mode="normal" in="SourceGraphic" in2="effect1_backgroundBlur_1060_193" result="shape"/>
</filter>
<filter id="filter2_b_1060_193" x="0" y="0" width="80" height="35" filterUnits="userSpaceOnUse" color-interpolation-filters="sRGB">
<feFlood flood-opacity="0" result="BackgroundImageFix"/>
<feGaussianBlur in="BackgroundImage" stdDeviation="2"/>
<feComposite in2="SourceAlpha" operator="in" result="effect1_backgroundBlur_1060_193"/>
<feBlend mode="normal" in="SourceGraphic" in2="effect1_backgroundBlur_1060_193" result="shape"/>
</filter>
</defs>
</svg>
