<svg width="31" height="29" viewBox="0 0 31 29" fill="none" xmlns="http://www.w3.org/2000/svg">
<rect width="31" height="29" rx="2.5" fill="#26265C"/>
<path fill-rule="evenodd" clip-rule="evenodd" d="M19.7426 8.75725C17.3995 6.41411 13.6005 6.41411 11.2574 8.75725C8.91421 11.1004 8.91421 14.8994 11.2574 17.2425L15.5 21.4852L19.7426 17.2425C22.0858 14.8994 22.0858 11.1004 19.7426 8.75725ZM15.5001 16.091C17.1068 16.091 18.4092 14.7885 18.4092 13.1819C18.4092 11.5752 17.1068 10.2728 15.5001 10.2728C13.8935 10.2728 12.591 11.5752 12.591 13.1819C12.591 14.7885 13.8935 16.091 15.5001 16.091Z" fill="#FEFEFE"/>
<path d="M11.2574 8.75725L11.6109 9.11081L11.2574 8.75725ZM19.7426 8.75725L20.0962 8.4037L19.7426 8.75725ZM11.2574 17.2425L11.6109 16.889L11.2574 17.2425ZM15.5 21.4852L15.1464 21.8387L15.5 22.1923L15.8536 21.8387L15.5 21.4852ZM19.7426 17.2425L20.0962 17.5961L19.7426 17.2425ZM11.6109 9.11081C13.7588 6.96292 17.2412 6.96292 19.3891 9.11081L20.0962 8.4037C17.5578 5.86529 13.4422 5.86529 10.9038 8.4037L11.6109 9.11081ZM11.6109 16.889C9.46303 14.7411 9.46303 11.2587 11.6109 9.11081L10.9038 8.4037C8.3654 10.9421 8.3654 15.0577 10.9038 17.5961L11.6109 16.889ZM15.8536 21.1316L11.6109 16.889L10.9038 17.5961L15.1464 21.8387L15.8536 21.1316ZM19.3891 16.889L15.1464 21.1316L15.8536 21.8387L20.0962 17.5961L19.3891 16.889ZM19.3891 9.11081C21.537 11.2587 21.537 14.7411 19.3891 16.889L20.0962 17.5961C22.6346 15.0577 22.6346 10.9421 20.0962 8.4037L19.3891 9.11081ZM17.9092 13.1819C17.9092 14.5124 16.8306 15.591 15.5001 15.591V16.591C17.3829 16.591 18.9092 15.0647 18.9092 13.1819H17.9092ZM15.5001 10.7728C16.8306 10.7728 17.9092 11.8514 17.9092 13.1819H18.9092C18.9092 11.2991 17.3829 9.7728 15.5001 9.7728V10.7728ZM13.091 13.1819C13.091 11.8514 14.1696 10.7728 15.5001 10.7728V9.7728C13.6173 9.7728 12.091 11.2991 12.091 13.1819H13.091ZM15.5001 15.591C14.1696 15.591 13.091 14.5124 13.091 13.1819H12.091C12.091 15.0647 13.6173 16.591 15.5001 16.591V15.591Z" fill="#FEFEFE"/>
</svg>
