<svg width="300" height="62" viewBox="0 0 300 62" fill="none" xmlns="http://www.w3.org/2000/svg">
<path d="M10.96 29.86V32.02H17.34V29.86H10.96ZM9.76 24.42V32.8H12.04V26.58H16.24V32.72H18.62V24.42H9.76ZM8.48 20.62L8.72 22.94C11.2 22.76 14.64 22.5 17.86 22.24L17.88 20.1C14.48 20.32 10.86 20.52 8.48 20.62ZM14.78 18.1C16 19.86 17.24 22.18 17.66 23.68L19.74 22.58C19.26 21.06 17.94 18.82 16.68 17.14L14.78 18.1ZM11.96 14C11.52 16.28 10.62 19.36 9.8 21.34L11.82 21.86C12.72 19.98 13.8 17.06 14.62 14.5L11.96 14ZM0.76 18V20.22H7.24V18H0.76ZM3.46 14C2.78 17.98 1.62 23.28 0.7 26.42L2.66 27.48C3.64 23.88 4.88 18.5 5.72 14.26L3.46 14ZM1.9 26.12C4 27.5 6.54 29.6 7.66 31.1L9.1 29.18C7.94 27.68 5.3 25.74 3.2 24.44L1.9 26.12ZM6.36 18V18.44C5.98 24.76 4.2 29.18 0.8 30.96C1.28 31.42 1.92 32.3 2.24 32.88C6.22 30.42 8.14 26 8.6 18.2L7.18 17.94L6.76 18H6.36ZM33.98 15.32L31.2 15.06C31.22 15.54 31.16 16.38 31.06 16.96C30.64 19.42 29.48 23.1 27.94 25.36C26.9 26.94 25.8 28.22 24.76 28.22C24.06 28.22 23.64 27.6 23.64 26.62C23.64 24.98 24.56 23.02 26.12 21.92C27.52 20.9 29.14 20.14 31.22 20.14C34.1 20.14 35.96 22.02 35.96 24.74C35.96 27.24 34.24 29.48 29.84 29.86L31.36 32.18C35.54 31.54 38.56 29.1 38.56 24.86C38.56 20.7 35.6 17.92 31.48 17.92C29.34 17.92 27.32 18.42 25.18 19.8C22.84 21.3 21.3 24.16 21.3 26.84C21.3 29.42 22.82 30.82 24.48 30.82C26.32 30.82 27.6 29.78 29.44 27.46C31.36 25.04 32.66 20.88 33.5 17.34C33.62 16.86 33.8 15.88 33.98 15.32ZM25.54 15.98L22.9 16.82C23.26 17.54 23.5 18.18 23.72 18.88C24.64 21.84 25.84 25.04 27.06 26.82C27.7 27.84 28.3 28.6 29.08 29.48L31.12 27.86C30.18 26.98 29.24 25.72 28.56 24.64C27.64 23.2 26.58 20.14 25.96 17.9C25.8 17.32 25.64 16.66 25.54 15.98ZM44.4 15.78L44.48 18.38C44.94 18.3 45.56 18.26 46.1 18.22C47.18 18.14 49.94 18.04 50.96 18C49.98 18.88 47.88 20.56 46.76 21.48C45.6 22.46 43.18 24.5 41.76 25.62L43.58 27.5C45.72 25.08 47.7 23.44 50.78 23.44C53.12 23.44 54.92 24.66 54.92 26.48C54.92 28.62 53.2 29.9 49.82 29.9C48.6 29.9 47.78 29.4 47.78 28.66C47.78 28.14 48.28 27.68 49.02 27.68C50.2 27.68 50.96 28.68 51 30.12L53.34 29.82C53.28 27.62 51.76 25.78 49.02 25.78C46.9 25.78 45.42 27.26 45.42 28.88C45.42 30.9 47.52 32.16 50.3 32.16C55.14 32.16 57.54 29.66 57.54 26.5C57.54 23.6 54.96 21.48 51.56 21.48C50.94 21.48 50.34 21.52 49.66 21.7C50.94 20.7 53.04 18.94 54.12 18.18C54.56 17.84 55.04 17.56 55.5 17.26L54.22 15.46C53.98 15.54 53.52 15.62 52.68 15.68C51.54 15.78 47.28 15.88 46.2 15.88C45.64 15.88 44.96 15.84 44.4 15.78ZM60.9 16.98V19.16H79.1V16.98H60.9ZM63.26 23.8V25.56H68.46V23.8H63.26ZM63.26 26.86V28.64H68.46V26.86H63.26ZM71.64 20.74V28.94H73.86V20.74H71.64ZM67.62 20.54V30.4C67.62 30.64 67.54 30.72 67.28 30.72C67.04 30.74 66.22 30.74 65.48 30.7C65.78 31.26 66.12 32.14 66.24 32.74C67.48 32.74 68.4 32.72 69.06 32.36C69.74 32.02 69.94 31.46 69.94 30.44V20.54H67.62ZM75.66 20.2V30.14C75.66 30.42 75.56 30.5 75.24 30.5C74.9 30.52 73.86 30.52 72.84 30.46C73.18 31.08 73.56 32.1 73.68 32.74C75.16 32.76 76.24 32.68 77 32.32C77.8 31.96 78.02 31.34 78.02 30.18V20.2H75.66ZM63.66 14.8C64.36 15.6 65.1 16.74 65.38 17.46L67.8 16.6C67.46 15.84 66.66 14.78 65.94 14L63.66 14.8ZM73.92 13.96C73.48 15.04 72.66 16.5 71.98 17.44L74.14 18.18C74.84 17.3 75.72 16.02 76.54 14.74L73.92 13.96ZM62 20.54V32.68H64.26V22.54H68.3V20.54H62ZM88.94 17.02L88.96 19.58C91.46 19.82 95.1 19.82 97.54 19.58V17C95.4 17.26 91.4 17.36 88.94 17.02ZM90.54 25.56L88.26 25.36C88.02 26.38 87.9 27.16 87.9 27.96C87.9 30 89.56 31.24 93 31.24C95.26 31.24 96.88 31.1 98.18 30.84L98.12 28.14C96.38 28.52 94.9 28.68 93.12 28.68C91.08 28.68 90.3 28.14 90.3 27.24C90.3 26.72 90.38 26.24 90.54 25.56ZM85.86 15.68L83.06 15.46C83.04 16.1 82.94 16.86 82.86 17.4C82.64 18.96 82.04 22.32 82.04 25.34C82.04 28.06 82.42 30.5 82.82 31.86L85.12 31.72C85.1 31.44 85.1 31.1 85.08 30.88C85.08 30.68 85.14 30.24 85.2 29.94C85.4 28.88 86.06 26.72 86.64 25.04L85.4 24.06C85.1 24.74 84.78 25.42 84.48 26.1C84.42 25.7 84.4 25.2 84.4 24.8C84.4 22.8 85.1 18.8 85.38 17.48C85.46 17.12 85.72 16.1 85.86 15.68ZM9.92 40.92L7.32 40.84C7.34 41.2 7.3 41.66 7.26 42.06C7.04 44.04 6.68 46.98 6.68 49.6C6.68 52.54 7.26 55.5 7.86 57.3L10.16 56.62C9.5 54.6 8.92 52.36 8.92 49.2C8.92 46.72 9.26 43.84 9.64 41.98C9.72 41.66 9.8 41.3 9.92 40.92ZM6.34 43.12C5.12 43.12 3.38 42.96 2.66 42.86L2.72 45.16C3.66 45.2 5.22 45.3 6.28 45.3C9.3 45.3 13.5 45 16.24 44.5L16.22 42.2C13.16 42.94 10.14 43.12 6.34 43.12ZM14.98 46.06L12.52 45.46C12.5 45.9 12.36 46.76 12.22 47.18C11.42 49.94 10.06 51.72 8.6 53.06C7.38 54.2 6.04 54.86 5.1 54.86C4.44 54.86 4.18 54.52 4.18 53.86C4.18 52.52 5.6 50.6 7.6 49.66C8.58 49.22 10.02 48.7 11.84 48.7C14.54 48.7 16 50.14 16 51.84C16 53.82 14.42 55.76 10.56 56.18L11.9 58.3C16.8 57.54 18.48 54.8 18.48 51.96C18.48 48.84 15.72 46.68 11.98 46.68C10.48 46.68 8.84 46.98 7.52 47.46C4.34 48.62 1.82 51.56 1.82 54.38C1.82 56.42 3.04 57.3 4.5 57.3C6.24 57.3 7.98 56.42 9.28 55.46C11.18 54.06 13.24 51.36 14.38 47.76C14.52 47.34 14.82 46.42 14.98 46.06ZM21.64 43.9L21.82 46.24C22.68 46.28 23.52 46.3 24.32 46.3C26.88 46.32 29.76 45.8 31.48 45.32L31.42 43C29.48 43.62 26.78 44.04 24.3 44.04C23.58 44.04 22.5 44 21.64 43.9ZM29.42 40.9L26.66 40.64C26.6 42.18 26.16 44.04 25.68 45.48C24.9 47.64 23.1 51.14 21.3 53.34L23.72 54.58C25.42 52.22 27.22 48.5 28.14 45.62C28.68 43.92 29.16 41.96 29.42 40.9ZM34.12 47.14H31.6C31.7 49.24 31.92 52.92 31.92 54.12C31.92 55.24 31.48 56 30.12 56C29.02 56 28.38 55.48 28.38 54.74C28.38 54.04 29.14 53.54 30.3 53.54C33.32 53.54 35.6 55.6 37.04 56.94L38.36 54.78C36.7 53.28 33.94 51.52 30.44 51.52C27.66 51.52 26.02 53.04 26.02 54.98C26.02 57.18 27.98 58.3 30.46 58.3C33.32 58.3 34.32 56.84 34.32 54.98C34.32 53.86 34.14 50.88 34.1 49.7C34.08 48.82 34.06 47.98 34.12 47.14ZM37.56 48.2L38.98 46.08C37.94 45.34 35.48 44 34.04 43.38L32.74 45.34C34.12 45.96 36.4 47.26 37.56 48.2ZM49.46 41.04L46.4 40.8C46.46 41.28 46.44 42.1 46.34 42.84C46.2 44.02 45.74 46.22 45.24 48.1C44.48 50.9 42.96 55.08 41.78 57.1L44.56 58.04C45.66 55.66 47 51.58 47.72 48.78C48.26 46.74 48.76 44.3 49.04 42.94C49.14 42.5 49.32 41.6 49.46 41.04ZM44.36 44.04C43.54 44.04 42.88 44 41.84 43.88L41.92 46.38C42.62 46.42 43.36 46.46 44.34 46.46C46.6 46.46 49.74 46.12 52.22 45.54V43.04C49.62 43.66 46.8 44.04 44.36 44.04ZM50.64 47.1V49.44C51.9 49.28 53.14 49.22 54.52 49.22C55.72 49.22 56.94 49.36 57.96 49.48L58 47.08C56.84 46.96 55.64 46.9 54.5 46.9C53.2 46.9 51.76 46.98 50.64 47.1ZM51.72 52.12L49.34 51.9C49.18 52.68 49 53.64 49 54.58C49 56.6 50.8 57.74 54.18 57.74C55.78 57.74 57.12 57.62 58.24 57.46L58.34 54.92C56.92 55.18 55.54 55.32 54.2 55.32C52.04 55.32 51.46 54.66 51.46 53.78C51.46 53.34 51.58 52.7 51.72 52.12ZM71.82 43.3L69.08 43.22C68.88 45.32 68.44 47.62 67.86 49.5C67.02 52.2 66.26 53.48 65.4 53.48C64.64 53.48 63.84 52.5 63.84 50.48C63.84 47.96 66.16 44.5 70.4 44.5C73.86 44.5 75.82 46.74 75.82 49.88C75.82 52.82 73.82 54.64 71.28 55.26C70.74 55.38 70.18 55.48 69.4 55.58L70.92 57.94C75.96 57.16 78.54 54.18 78.54 49.98C78.54 45.6 75.4 42.16 70.46 42.16C65.28 42.16 61.26 46.12 61.26 50.72C61.26 54.1 63.1 56.56 65.34 56.56C67.52 56.56 69.24 54.08 70.44 50.04C71.14 47.68 71.54 45.34 71.82 43.3ZM81.64 43.9L81.82 46.24C82.68 46.28 83.52 46.3 84.32 46.3C86.88 46.32 89.76 45.8 91.48 45.32L91.42 43C89.48 43.62 86.78 44.04 84.3 44.04C83.58 44.04 82.5 44 81.64 43.9ZM89.42 40.9L86.66 40.64C86.6 42.18 86.16 44.04 85.68 45.48C84.9 47.64 83.1 51.14 81.3 53.34L83.72 54.58C85.42 52.22 87.22 48.5 88.14 45.62C88.68 43.92 89.16 41.96 89.42 40.9ZM94.12 47.14H91.6C91.7 49.24 91.92 52.92 91.92 54.12C91.92 55.24 91.48 56 90.12 56C89.02 56 88.38 55.48 88.38 54.74C88.38 54.04 89.14 53.54 90.3 53.54C93.32 53.54 95.6 55.6 97.04 56.94L98.36 54.78C96.7 53.28 93.94 51.52 90.44 51.52C87.66 51.52 86.02 53.04 86.02 54.98C86.02 57.18 87.98 58.3 90.46 58.3C93.32 58.3 94.32 56.84 94.32 54.98C94.32 53.86 94.14 50.88 94.1 49.7C94.08 48.82 94.06 47.98 94.12 47.14ZM97.56 48.2L98.98 46.08C97.94 45.34 95.48 44 94.04 43.38L92.74 45.34C94.12 45.96 96.4 47.26 97.56 48.2ZM111.94 40.84H109.22C109.3 41.22 109.34 41.84 109.34 42.2C109.34 43.34 109.32 45.88 109.32 47.8C109.32 49.74 109.54 53.32 109.54 54.52C109.54 55.68 108.82 55.98 107.76 55.98C106.38 55.98 105.68 55.52 105.68 54.76C105.68 54.06 106.46 53.52 107.86 53.52C111.28 53.52 114.18 55.46 116.08 57.26L117.52 55.02C115.86 53.62 112.58 51.46 108.18 51.46C105.12 51.46 103.26 52.88 103.26 54.9C103.26 57.02 104.94 58.24 108.14 58.24C110.76 58.24 112.06 56.92 112.06 55.2C112.06 53.62 111.74 50 111.74 47.8C111.74 46.12 111.76 43.28 111.8 42.26C111.82 41.74 111.88 41.24 111.94 40.84ZM103.64 42.7L103.68 45C105 45.16 107.32 45.34 108.6 45.34C111.6 45.34 114.78 45.1 116.82 44.82L116.84 42.54C113.92 43 111.3 43.14 108.58 43.14C107.36 43.14 105.06 42.94 103.64 42.7ZM103.52 47.02L103.56 49.38C104.88 49.54 107.14 49.64 108.32 49.64C112.12 49.64 114.3 49.52 117.06 49.2L117.08 46.84C114.62 47.16 112.04 47.4 108.34 47.4C107.28 47.4 104.84 47.26 103.52 47.02ZM126.24 40.8L125.84 43.12C128.24 43.5 131.96 43.94 134.06 44.12L134.38 41.76C132.32 41.64 128.48 41.22 126.24 40.8ZM135.1 47.14L133.62 45.48C133.42 45.56 132.86 45.68 132.5 45.72C130.82 45.92 126.3 46.12 125.34 46.14C124.62 46.14 123.9 46.12 123.44 46.08L123.66 48.84C124.08 48.76 124.7 48.66 125.4 48.6C126.54 48.5 128.92 48.3 130.32 48.26C128.5 50.18 124.42 54.24 123.38 55.28C122.84 55.8 122.36 56.22 122 56.54L124.36 58.18C125.74 56.44 127.24 54.8 127.94 54.1C128.42 53.6 128.84 53.28 129.24 53.28C129.66 53.28 130.08 53.54 130.3 54.26C130.46 54.76 130.68 55.7 130.9 56.3C131.38 57.58 132.42 58 134.3 58C135.34 58 137.4 57.86 138.22 57.72L138.4 55.1C137.38 55.3 136 55.44 134.48 55.44C133.7 55.44 133.26 55.14 133.06 54.52C132.9 53.98 132.68 53.22 132.5 52.7C132.22 51.94 131.86 51.5 131.3 51.34C131.06 51.24 130.7 51.18 130.52 51.18C131 50.68 132.88 48.94 133.78 48.16C134.14 47.86 134.56 47.5 135.1 47.14ZM149.72 40.96L147.08 40.74C147.02 41.76 146.76 42.98 146.36 44.06C145.52 46.26 143.98 48.42 141.42 50.78L143.56 52.38C144.24 51.5 144.8 50.78 145.4 50.18C146.16 49.46 147.42 48.8 148.52 48.8C149.36 48.8 150.16 49.22 150.16 50.5C150.18 51.58 150.14 53.28 150.06 54.22H152.46C152.44 52.96 152.38 50.78 152.38 49.7C152.38 47.84 151.12 46.86 149.46 46.86C148.78 46.86 147.72 47 147.18 47.24C147.74 46.44 148.32 45.3 148.74 44.32C149.3 42.88 149.56 41.7 149.72 40.96ZM142.18 42.82V45.14C143.28 45.24 144.74 45.28 145.56 45.28C148 45.28 152.02 45.1 154.84 44.7L154.86 42.38C151.96 42.9 148.34 43.04 145.7 43.04C144.68 43.04 143.2 42.96 142.18 42.82ZM158.02 48.5L157.04 46.16C156.28 46.54 155.58 46.86 154.8 47.2C153.6 47.76 152.34 48.24 150.5 49.2C148.1 50.4 145.24 52.04 145.24 54.82C145.24 57.4 147.58 58.18 150.7 58.18C152.6 58.18 155.04 58 156.38 57.82L156.46 55.24C154.7 55.6 152.46 55.82 150.76 55.82C148.82 55.82 147.86 55.52 147.86 54.42C147.86 53.32 148.84 52.46 150.66 51.52C152.54 50.56 154.34 49.84 155.64 49.34C156.32 49.08 157.4 48.68 158.02 48.5ZM163.28 42.66L163.42 44.94C166.46 45.24 169.22 45.22 171.28 45.06C173.02 44.94 174.76 44.6 176.2 44.2L175.88 41.92C174.22 42.44 172.58 42.76 170.76 42.88C168.64 43.04 166.2 43 163.28 42.66ZM162.92 46.84L163.06 49.2C166.66 49.44 170.56 49.38 173.08 49.1C174.7 48.92 176.18 48.64 177.38 48.34L176.98 45.98C175.82 46.32 174.32 46.72 172.16 46.9C169.76 47.14 166.52 47.2 162.92 46.84ZM169.6 43.22C169.86 44.18 170.06 44.9 170.56 46.32C171.06 47.78 171.8 49.52 172.86 51.3C172.28 51.24 171.18 51.14 170.34 51.06L170.14 52.98C171.6 53.14 173.78 53.38 174.9 53.62L176.1 51.78C175.74 51.44 175.48 51.14 175.2 50.74C174.28 49.34 173.3 47.28 172.82 45.88C172.3 44.34 171.8 42.58 171.56 40.66L168.88 40.96C169.16 41.74 169.4 42.48 169.6 43.22ZM166.76 51.5L164.28 51.02C163.8 51.96 163.38 52.94 163.4 54.24C163.46 57.08 165.94 58.26 169.92 58.26C171.56 58.26 173.4 58.12 174.8 57.9L174.94 55.36C173.5 55.64 171.8 55.78 169.92 55.78C167.26 55.78 165.86 55.18 165.86 53.7C165.86 52.84 166.28 52.16 166.76 51.5ZM193.98 41.32L191.2 41.06C191.22 41.54 191.16 42.38 191.06 42.96C190.64 45.42 189.48 49.1 187.94 51.36C186.9 52.94 185.8 54.22 184.76 54.22C184.06 54.22 183.64 53.6 183.64 52.62C183.64 50.98 184.56 49.02 186.12 47.92C187.52 46.9 189.14 46.14 191.22 46.14C194.1 46.14 195.96 48.02 195.96 50.74C195.96 53.24 194.24 55.48 189.84 55.86L191.36 58.18C195.54 57.54 198.56 55.1 198.56 50.86C198.56 46.7 195.6 43.92 191.48 43.92C189.34 43.92 187.32 44.42 185.18 45.8C182.84 47.3 181.3 50.16 181.3 52.84C181.3 55.42 182.82 56.82 184.48 56.82C186.32 56.82 187.6 55.78 189.44 53.46C191.36 51.04 192.66 46.88 193.5 43.34C193.62 42.86 193.8 41.88 193.98 41.32ZM185.54 41.98L182.9 42.82C183.26 43.54 183.5 44.18 183.72 44.88C184.64 47.84 185.84 51.04 187.06 52.82C187.7 53.84 188.3 54.6 189.08 55.48L191.12 53.86C190.18 52.98 189.24 51.72 188.56 50.64C187.64 49.2 186.58 46.14 185.96 43.9C185.8 43.32 185.64 42.66 185.54 41.98ZM201.42 43.26L201.68 46C204 45.48 208.08 45.06 209.96 44.86C208.6 45.88 206.98 48.14 206.98 51.02C206.98 55.36 210.94 57.62 215.14 57.88L216.06 55.14C212.68 54.96 209.6 53.78 209.6 50.48C209.6 48.12 211.42 45.52 213.82 44.88C214.9 44.64 216.62 44.62 217.7 44.62L217.68 42.04C216.26 42.1 214.08 42.22 212.02 42.4C208.34 42.72 205.06 43 203.38 43.16C203 43.2 202.2 43.24 201.42 43.26ZM234.075 42.6L231.735 40.52C231.415 41 230.775 41.66 230.195 42.22C228.855 43.54 226.095 45.76 224.535 47.04C222.535 48.7 222.375 49.78 224.355 51.48C226.195 53.02 229.135 55.54 230.335 56.8C230.935 57.4 231.535 58.02 232.095 58.66L234.415 56.5C232.375 54.52 228.575 51.54 227.075 50.28C225.995 49.34 225.975 49.1 227.035 48.2C228.375 47.04 231.015 45 232.315 43.96C232.775 43.58 233.435 43.06 234.075 42.6ZM248.255 41.28L245.195 41.04C245.255 41.5 245.235 42.32 245.135 43.06C244.995 44.26 244.535 46.44 244.015 48.32C243.275 51.12 241.755 55.32 240.555 57.32L243.355 58.26C244.455 55.9 245.795 51.8 246.515 49C247.055 46.98 247.535 44.52 247.815 43.16C247.915 42.72 248.115 41.82 248.255 41.28ZM243.155 44.26C242.335 44.26 241.675 44.24 240.635 44.12L240.715 46.6C241.415 46.64 242.155 46.68 243.135 46.68C245.395 46.68 248.535 46.36 251.015 45.78V43.28C248.415 43.9 245.595 44.26 243.155 44.26ZM249.435 47.34V49.68C250.695 49.52 251.915 49.46 253.315 49.46C254.515 49.46 255.735 49.58 256.755 49.7L256.795 47.3C255.635 47.18 254.435 47.12 253.295 47.12C251.975 47.12 250.555 47.22 249.435 47.34ZM250.515 52.36L248.135 52.12C247.955 52.92 247.795 53.88 247.795 54.8C247.795 56.82 249.595 58 252.975 58C254.575 58 255.915 57.84 257.035 57.7L257.135 55.14C255.715 55.4 254.315 55.56 252.995 55.56C250.835 55.56 250.255 54.9 250.255 54.02C250.255 53.58 250.375 52.92 250.515 52.36ZM254.655 41.86L253.075 42.5C253.615 43.28 254.235 44.46 254.655 45.28L256.255 44.6C255.875 43.86 255.175 42.58 254.655 41.86ZM257.035 40.94L255.455 41.6C255.995 42.36 256.655 43.52 257.055 44.36L258.655 43.68C258.295 42.96 257.555 41.7 257.035 40.94ZM269.515 42.82C269.755 43.48 270.035 44.4 270.475 45.5C271.095 47.16 271.975 48.84 272.695 50.02C272.075 49.96 270.755 49.86 269.775 49.76L269.575 51.88C271.255 52.02 273.795 52.28 274.915 52.5L276.135 50.72C275.775 50.3 275.415 49.88 275.075 49.38C274.415 48.46 273.475 46.74 272.855 45.06C272.375 43.78 271.895 42.2 271.595 40.66L268.895 40.98C269.135 41.64 269.375 42.36 269.515 42.82ZM262.235 43.76L262.275 46.3C266.375 46.64 269.535 46.56 272.195 46.24C273.795 46.06 275.515 45.76 276.835 45.38L276.535 42.88C274.955 43.36 273.195 43.7 271.415 43.92C269.015 44.18 265.975 44.2 262.235 43.76ZM266.255 50.56L263.755 49.98C263.075 51.34 262.695 52.48 262.695 53.7C262.695 56.6 265.255 58.18 269.355 58.18C271.775 58.18 273.575 57.92 274.715 57.72L274.855 55.18C273.455 55.46 271.695 55.68 269.515 55.68C266.775 55.66 265.275 54.96 265.275 53.26C265.275 52.4 265.595 51.52 266.255 50.56ZM284.575 42.72L281.495 42.68C281.635 43.3 281.655 44.16 281.655 44.7C281.655 45.92 281.675 48.28 281.875 50.12C282.435 55.48 284.335 57.44 286.555 57.44C288.155 57.44 289.395 56.24 290.735 52.74L288.715 50.32C288.335 51.9 287.555 54.26 286.595 54.26C285.335 54.26 284.735 52.28 284.455 49.4C284.335 47.94 284.335 46.46 284.335 45.16C284.335 44.6 284.435 43.42 284.575 42.72ZM294.575 43.16L292.035 44C294.215 46.48 295.295 51.32 295.595 54.56L298.235 53.52C298.015 50.46 296.475 45.46 294.575 43.16Z" fill="#FEFEFE"/>
<path d="M126.619 1.84349C127.033 1.1119 128.134 1.13909 128.506 1.89261C130.641 6.21032 132.134 7.73147 136.225 9.69801C136.996 10.0688 137.027 11.202 136.281 11.6206C134.821 12.4395 132.866 13.6564 131.647 14.8998C130.487 16.0828 129.345 17.9496 128.573 19.3469C128.166 20.0841 127.041 20.0881 126.631 19.3524C125.827 17.9101 124.629 15.9629 123.44 14.7735C122.254 13.5879 120.316 12.3943 118.875 11.5903C118.137 11.1785 118.144 10.0467 118.885 9.63993C120.284 8.87155 122.144 7.73494 123.313 6.56599C124.521 5.35865 125.779 3.32759 126.619 1.84349Z" fill="#FDC15F"/>
<path d="M106.923 27.1493C106.556 26.9433 106.569 26.3935 106.946 26.2081C109.321 25.0412 110.13 24.2467 111.204 21.9948C111.388 21.6086 111.954 21.5928 112.162 21.9668C112.599 22.7514 113.265 23.8337 113.947 24.5019C114.595 25.1379 115.629 25.7634 116.38 26.1752C116.749 26.3777 116.751 26.9395 116.382 27.1434C115.608 27.5721 114.53 28.2279 113.879 28.8792C113.23 29.5285 112.576 30.6013 112.147 31.3753C111.943 31.745 111.378 31.7421 111.175 31.371C110.766 30.6185 110.143 29.5875 109.502 28.9465C108.841 28.2861 107.719 27.5968 106.923 27.1493Z" fill="#FFF48E"/>
</svg>
