<svg width="370" height="60" viewBox="0 0 370 60" fill="none" xmlns="http://www.w3.org/2000/svg">
<rect width="370" height="60" rx="5" fill="#7070FF"/>
<path d="M132.979 24.386V25.372C132.979 27.344 131.874 29.384 129.239 30.234L130.412 31.985C133.421 31.016 134.832 28.347 134.832 25.372V24.386H132.979ZM133.438 24.386V25.372C133.438 28.194 134.798 30.761 137.739 31.713L138.895 29.962C136.345 29.146 135.274 27.225 135.274 25.372V24.386H133.438ZM129.851 23.689V25.491H138.351V23.689H129.851ZM139.609 22.771V32.257H141.87V22.771H139.609ZM141.241 26.579V28.432H143.961V26.579H141.241ZM131.364 32.937V34.756H139.609V38.513H141.87V32.937H131.364ZM148.771 23.587V24.998C148.771 27.157 147.666 29.282 144.98 30.149L146.153 31.968C149.247 30.931 150.658 28.16 150.658 24.998V23.587H148.771ZM149.247 23.587V24.896C149.247 27.956 150.505 30.489 153.412 31.492L154.585 29.724C152.086 28.925 151.066 26.987 151.066 24.896V23.587H149.247ZM156.03 22.771V31.985H158.291V22.771H156.03ZM152.953 32.393C149.621 32.393 147.564 33.532 147.564 35.453C147.564 37.391 149.621 38.513 152.953 38.513C156.285 38.513 158.342 37.391 158.342 35.453C158.342 33.532 156.285 32.393 152.953 32.393ZM152.953 34.144C155.01 34.144 156.098 34.569 156.098 35.453C156.098 36.337 155.01 36.779 152.953 36.779C150.913 36.779 149.825 36.337 149.825 35.453C149.825 34.569 150.913 34.144 152.953 34.144ZM153.157 25.627V27.463H156.353V25.627H153.157ZM167.878 22.992C164.274 22.992 162.183 23.944 162.183 25.678C162.183 27.412 164.274 28.364 167.878 28.364C171.465 28.364 173.573 27.412 173.573 25.678C173.573 23.944 171.465 22.992 167.878 22.992ZM167.878 24.641C170.156 24.641 171.227 24.981 171.227 25.678C171.227 26.409 170.156 26.715 167.878 26.715C165.6 26.715 164.529 26.409 164.529 25.678C164.529 24.981 165.6 24.641 167.878 24.641ZM160.755 29.095V30.88H174.984V29.095H160.755ZM162.387 31.764V33.447H171.04V34.246H162.404V37.204H164.631V35.81H173.267V31.764H162.387ZM162.404 36.711V38.411H173.675V36.711H162.404ZM183.915 29.146V31.526H186.176V29.146H183.915ZM185.02 23.4C182.742 23.4 181.093 24.709 181.093 26.613C181.093 28.483 182.742 29.792 185.02 29.792C187.298 29.792 188.947 28.483 188.947 26.613C188.947 24.709 187.298 23.4 185.02 23.4ZM185.02 25.1C186.108 25.1 186.839 25.644 186.839 26.613C186.839 27.565 186.108 28.109 185.02 28.109C183.949 28.109 183.201 27.565 183.201 26.613C183.201 25.644 183.949 25.1 185.02 25.1ZM190.562 22.788V34.79H192.823V22.788H190.562ZM192.024 27.718V29.571H194.795V27.718H192.024ZM182.317 36.422V38.241H193.35V36.422H182.317ZM182.317 33.753V37.204H184.595V33.753H182.317ZM180.532 32.75C183.133 32.75 186.703 32.699 189.882 32.104L189.729 30.489C186.635 30.931 182.946 30.948 180.277 30.948L180.532 32.75ZM199.588 31.951V35.657H201.798V31.951H199.588ZM204.569 31.934V35.657H206.779V31.934H204.569ZM195.984 34.943V36.779H210.23V34.943H195.984ZM197.582 23.791V25.576H206.388V27.242H197.616V31.679H199.86V29.01H208.632V23.791H197.582ZM197.616 30.727V32.546H208.989V30.727H197.616ZM221.703 22.771V38.513H223.947V22.771H221.703ZM223.437 28.908V30.795H226.225V28.908H223.437ZM211.537 25.1V26.902H220.7V25.1H211.537ZM216.144 27.786C213.849 27.786 212.149 29.35 212.149 31.543C212.149 33.736 213.849 35.3 216.144 35.3C218.439 35.3 220.139 33.736 220.139 31.543C220.139 29.35 218.439 27.786 216.144 27.786ZM216.144 29.622C217.215 29.622 217.98 30.336 217.98 31.543C217.98 32.75 217.215 33.464 216.144 33.464C215.073 33.464 214.308 32.75 214.308 31.543C214.308 30.336 215.073 29.622 216.144 29.622ZM215.005 23.026V25.78H217.266V23.026H215.005ZM238.09 22.771V38.513H240.368V22.771H238.09ZM233.449 24.403V24.811C233.449 29.027 231.817 31.883 227.295 34.059L228.468 35.861C234.061 33.158 235.693 29.214 235.693 24.403H233.449ZM228.128 24.403V26.188H234.52V24.403H228.128Z" fill="#FEFEFE"/>
</svg>
