<svg width="106" height="50" viewBox="0 0 106 50" fill="none" xmlns="http://www.w3.org/2000/svg">
<g filter="url(#filter0_d_138_97)">
<path fill-rule="evenodd" clip-rule="evenodd" d="M18.6129 5C12.1993 5 7 10.1993 7 16.6129C7 23.0265 12.1993 28.2258 18.6129 28.2258H86.7718C87.8789 32.2242 87.9699 37.1961 86.8875 40.9999L93.7241 26.346C96.9005 24.2737 99 20.6885 99 16.6129C99 10.1993 93.8007 5 87.3871 5H18.6129Z" fill="#FEFEFE"/>
</g>
<path d="M28.65 18.14V19.23H29.31C30.47 19.23 31.49 19.2 32.68 18.98L32.57 17.91C31.42 18.11 30.43 18.14 29.31 18.14H28.65ZM28.64 13.04V14.09H30.63V15.54H28.65V18.56H29.94V16.58H31.91V13.04H28.64ZM35.09 12.13V21.39H36.35V12.13H35.09ZM32.29 15.28V16.37H33.73V15.28H32.29ZM33.21 12.3V20.95H34.44V12.3H33.21ZM44.2292 12.14V16.9H45.4892V12.14H44.2292ZM42.3592 12.3V16.86H43.5992V12.3H42.3592ZM41.2492 14.07V15.12H42.7292V14.07H41.2492ZM39.1992 17.27V18.29H44.1692V18.8H39.2092V20.88H40.5492V19.76H45.4892V17.27H39.1992ZM39.2092 20.31V21.33H45.7892V20.31H39.2092ZM37.9192 12.64V16.61H41.5892V12.64H40.3492V13.64H39.1692V12.64H37.9192ZM39.1692 14.62H40.3492V15.6H39.1692V14.62ZM53.9589 14.17V15.24H56.2789V14.17H53.9589ZM51.8389 12.51C50.4389 12.51 49.3889 13.44 49.3889 14.72C49.3889 16.01 50.4389 16.93 51.8389 16.93C53.2289 16.93 54.2789 16.01 54.2789 14.72C54.2789 13.44 53.2289 12.51 51.8389 12.51ZM51.8389 13.62C52.5189 13.62 53.0089 14.03 53.0089 14.72C53.0089 15.41 52.5189 15.83 51.8389 15.83C51.1589 15.83 50.6589 15.41 50.6589 14.72C50.6589 14.03 51.1589 13.62 51.8389 13.62ZM55.6989 12.13V17.11H57.0289V12.13H55.6989ZM50.8789 17.51V21.29H57.0289V17.51H55.7089V18.39H52.1989V17.51H50.8789ZM52.1989 19.41H55.7089V20.23H52.1989V19.41ZM66.8786 12.12V21.38H68.2186V12.12H66.8786ZM67.8686 15.66V16.75H69.4986V15.66H67.8686ZM64.4486 13.08V13.31C64.4486 15.82 63.2986 17.52 60.8686 18.78L61.6086 19.79C64.6886 18.24 65.7486 15.86 65.7486 13.08H64.4486ZM61.3786 13.08V14.15H65.1286V13.08H61.3786ZM71.2178 14.43V15.49H77.6078V14.43H71.2178ZM71.2178 12.28V14.91H72.5378V12.28H71.2178ZM70.1678 16.28V17.34H78.5478V16.28H70.1678ZM74.3278 17.93C72.3278 17.93 71.1078 18.55 71.1078 19.65C71.1078 20.74 72.3278 21.37 74.3278 21.37C76.3278 21.37 77.5378 20.74 77.5378 19.65C77.5378 18.55 76.3278 17.93 74.3278 17.93ZM74.3278 18.95C75.5678 18.95 76.1978 19.17 76.1978 19.65C76.1978 20.12 75.5678 20.35 74.3278 20.35C73.0878 20.35 72.4578 20.12 72.4578 19.65C72.4578 19.17 73.0878 18.95 74.3278 18.95Z" fill="#AFABAB"/>
<defs>
<filter id="filter0_d_138_97" x="0" y="0" width="106" height="50" filterUnits="userSpaceOnUse" color-interpolation-filters="sRGB">
<feFlood flood-opacity="0" result="BackgroundImageFix"/>
<feColorMatrix in="SourceAlpha" type="matrix" values="0 0 0 0 0 0 0 0 0 0 0 0 0 0 0 0 0 0 127 0" result="hardAlpha"/>
<feOffset dy="2"/>
<feGaussianBlur stdDeviation="3.5"/>
<feComposite in2="hardAlpha" operator="out"/>
<feColorMatrix type="matrix" values="0 0 0 0 0 0 0 0 0 0 0 0 0 0 0 0 0 0 0.13 0"/>
<feBlend mode="normal" in2="BackgroundImageFix" result="effect1_dropShadow_138_97"/>
<feBlend mode="normal" in="SourceGraphic" in2="effect1_dropShadow_138_97" result="shape"/>
</filter>
</defs>
</svg>
