<svg width="72" height="34" viewBox="0 0 72 34" fill="none" xmlns="http://www.w3.org/2000/svg">
<g filter="url(#filter0_d_1315_227)">
<g filter="url(#filter1_b_1315_227)">
<rect x="4" y="4" width="64" height="26" rx="13" fill="white" fill-opacity="0.46"/>
<path d="M25.5811 15.9512H26.9873C26.9678 14.7012 25.9375 13.832 24.3701 13.832C22.8223 13.832 21.6895 14.6865 21.6943 15.9707C21.6943 17.0059 22.4268 17.6016 23.6182 17.8945L24.3896 18.0801C25.1611 18.2705 25.6006 18.4951 25.6006 18.9785C25.6006 19.5059 25.1025 19.8672 24.3311 19.8672C23.5498 19.8672 22.9834 19.5059 22.9346 18.793H21.5088C21.5527 20.3115 22.6416 21.1025 24.3506 21.0977C26.0742 21.1025 27.0801 20.2725 27.085 18.9785C27.0801 17.8018 26.1768 17.1865 24.9658 16.9082L24.3311 16.752C23.7207 16.6152 23.1934 16.3857 23.1982 15.873C23.2031 15.4043 23.6182 15.0625 24.3604 15.0625C25.0781 15.0625 25.5225 15.3896 25.5811 15.9512ZM28.4627 22.9922H29.908V20.1504H29.9471C30.1521 20.5898 30.5965 21.0879 31.4607 21.0879C32.6717 21.0879 33.6141 20.126 33.6092 18.3535C33.6141 16.5371 32.6326 15.6289 31.4607 15.6289C30.5672 15.6289 30.1473 16.1562 29.9471 16.5859H29.8885V15.6973H28.4627V22.9922ZM29.8787 18.3438C29.8738 17.3916 30.2791 16.7812 31.0018 16.7812C31.7488 16.7812 32.1395 17.4209 32.1346 18.3438C32.1395 19.2812 31.7391 19.9307 31.0018 19.9355C30.284 19.9307 29.8738 19.3008 29.8787 18.3438ZM37.3795 21.1074C38.9859 21.1025 39.982 20.0039 39.9869 18.3633C39.982 16.7275 38.9859 15.6289 37.3795 15.6289C35.7779 15.6289 34.777 16.7275 34.7818 18.3633C34.777 20.0039 35.7779 21.1025 37.3795 21.1074ZM36.2467 18.3633C36.2467 17.4307 36.6324 16.7324 37.3893 16.7324C38.1266 16.7324 38.5172 17.4307 38.5123 18.3633C38.5172 19.291 38.1266 19.9795 37.3893 19.9844C36.6324 19.9795 36.2467 19.291 36.2467 18.3633ZM41.3451 21H42.7904V17.9824C42.7855 17.333 43.2689 16.8789 43.9232 16.8789C44.1234 16.8789 44.4018 16.9131 44.5385 16.957V15.668C44.4115 15.6387 44.226 15.6191 44.0795 15.6191C43.4838 15.6191 42.9906 15.9658 42.8002 16.6152H42.7416V15.6973H41.3451V21ZM48.7482 15.6973H47.7521V14.4277H46.3068V15.6973H45.5744V16.7812H46.3068V19.5742C46.2971 20.6045 47.01 21.0732 48.0549 21.0684C48.4113 21.0732 48.6701 21.0439 48.8264 21.0195V19.877C48.6506 19.8916 48.3967 19.9062 48.2502 19.9062C47.9572 19.8965 47.7473 19.7939 47.7521 19.3691V16.7812H48.7482V15.6973ZM53.0557 17.2695H54.4131C54.335 16.2637 53.5049 15.6289 52.167 15.6289C50.7998 15.6289 49.9258 16.2637 49.9307 17.2793C49.9258 18.0654 50.4434 18.583 51.4541 18.7832L52.333 18.959C52.8311 19.0615 53.0557 19.2324 53.0557 19.5059C53.0557 19.8477 52.7041 20.0576 52.1768 20.0625C51.6445 20.0576 51.3076 19.8428 51.2393 19.4277H49.7842C49.9062 20.4629 50.7461 21.1025 52.1768 21.1074C53.5879 21.1025 54.5254 20.4043 54.5303 19.3594C54.5254 18.5977 54.0273 18.1387 52.9971 17.9238L52.0498 17.7285C51.5469 17.626 51.3613 17.4404 51.3662 17.2012C51.3613 16.8789 51.7178 16.6592 52.1865 16.6543C52.6699 16.6592 52.9922 16.8984 53.0557 17.2695Z" fill="#FEFEFE"/>
</g>
<path fill-rule="evenodd" clip-rule="evenodd" d="M14.0498 21.1992C15.0346 21.1488 15.9217 20.7289 16.5753 20.0753C15.8736 19.3735 15.4991 18.4685 15.4516 17.5498H14.0498V21.1992ZM14.0498 17.1498H15.4516C15.4991 16.231 15.8737 15.3259 16.5755 14.6241C15.9219 13.9704 15.0347 13.5504 14.0498 13.5V17.1498ZM13.6498 13.5L13.6498 17.1498H12.2614C12.2139 16.231 11.8393 15.3259 11.1375 14.6241L11.1306 14.6172C11.7836 13.9674 12.6682 13.5501 13.6498 13.5ZM13.6498 17.5498L13.6498 21.1992C12.6683 21.1491 11.7838 20.7319 11.1308 20.0822L11.1375 20.0755C11.8393 19.3737 12.2139 18.4686 12.2614 17.5498H13.6498ZM16.8436 19.7778C16.2293 19.1562 15.8989 18.3597 15.8522 17.5498H17.6992C17.6561 18.3923 17.3425 19.1633 16.8436 19.7778ZM15.8522 17.1498H17.6992C17.6562 16.3073 17.3427 15.5362 16.8437 14.9216C16.2294 15.5432 15.8989 16.3399 15.8522 17.1498ZM10 17.1498H11.8608C11.8139 16.3365 11.4809 15.5367 10.8617 14.914C10.3592 15.5298 10.0432 16.3038 10 17.1498ZM11.8608 17.5498H10C10.0433 18.3958 10.3593 19.1697 10.8619 19.7854C11.4809 19.1628 11.8139 18.363 11.8608 17.5498Z" fill="#5ACEFF"/>
</g>
<defs>
<filter id="filter0_d_1315_227" x="0" y="0" width="72" height="34" filterUnits="userSpaceOnUse" color-interpolation-filters="sRGB">
<feFlood flood-opacity="0" result="BackgroundImageFix"/>
<feColorMatrix in="SourceAlpha" type="matrix" values="0 0 0 0 0 0 0 0 0 0 0 0 0 0 0 0 0 0 127 0" result="hardAlpha"/>
<feOffset/>
<feGaussianBlur stdDeviation="2"/>
<feComposite in2="hardAlpha" operator="out"/>
<feColorMatrix type="matrix" values="0 0 0 0 0 0 0 0 0 0 0 0 0 0 0 0 0 0 0.25 0"/>
<feBlend mode="normal" in2="BackgroundImageFix" result="effect1_dropShadow_1315_227"/>
<feBlend mode="normal" in="SourceGraphic" in2="effect1_dropShadow_1315_227" result="shape"/>
</filter>
<filter id="filter1_b_1315_227" x="0" y="0" width="72" height="34" filterUnits="userSpaceOnUse" color-interpolation-filters="sRGB">
<feFlood flood-opacity="0" result="BackgroundImageFix"/>
<feGaussianBlur in="BackgroundImageFix" stdDeviation="2"/>
<feComposite in2="SourceAlpha" operator="in" result="effect1_backgroundBlur_1315_227"/>
<feBlend mode="normal" in="SourceGraphic" in2="effect1_backgroundBlur_1315_227" result="shape"/>
</filter>
</defs>
</svg>
