<svg width="79" height="34" viewBox="0 0 79 34" fill="none" xmlns="http://www.w3.org/2000/svg">
<g filter="url(#filter0_d_1307_266)">
<g filter="url(#filter1_b_1307_266)">
<rect x="4" y="4" width="71" height="26" rx="13" fill="white" fill-opacity="0.46"/>
<path d="M29.848 17.4062H21.7133V18.3926H25.268V19.9258H26.4984V18.3926H29.848V17.4062ZM22.6703 21.7422H28.9496V20.7461H23.9105V19.1543H22.6703V21.7422ZM22.7289 16.6738H28.8031V13.4023H22.7289V16.6738ZM23.9496 15.707V14.3691H27.5824V15.707H23.9496ZM37.925 13.0117H36.6652V21.8984H37.925V17.6602H39.0871V16.625H37.925V13.0117ZM30.7082 19.3887L30.8742 20.4043C32.3732 20.4092 34.4143 20.3945 36.3039 20.043L36.2258 19.1348C35.5666 19.2275 34.8586 19.2861 34.1555 19.3252V18.6074C35.093 18.4268 35.718 17.8213 35.7277 16.9961C35.718 16.0049 34.8098 15.3262 33.5402 15.3262C32.2463 15.3262 31.3479 16.0049 31.3527 16.9961C31.3479 17.8213 31.9631 18.4219 32.9055 18.6074V19.3691C32.1145 19.3887 31.3576 19.3887 30.7082 19.3887ZM30.884 14.9746H36.1574V13.998H34.1555V13.0605H32.9055V13.998H30.884V14.9746ZM32.5344 16.9961C32.5295 16.5371 32.9299 16.2783 33.5402 16.2734C34.1311 16.2783 34.5266 16.5371 34.5266 16.9961C34.5266 17.4648 34.1311 17.7188 33.5402 17.7188C32.9299 17.7188 32.5295 17.4648 32.5344 16.9961ZM43.2676 13.5977H42.0176L39.7422 22.0645H40.9824L43.2676 13.5977ZM51.7742 13.0117H50.5828V21.8984H51.7742V13.0117ZM44.1473 16.8594C44.1473 18.8564 44.9041 20.0918 46.0809 20.0918C46.8279 20.0918 47.409 19.5986 47.741 18.7344H48.7859V21.4883H49.9578V13.1387H48.7859V14.9844H47.7361C47.409 14.1299 46.823 13.6416 46.0809 13.6465C44.9041 13.6416 44.1473 14.8721 44.1473 16.8594ZM45.2801 16.8594C45.2703 15.4971 45.5584 14.8184 46.0809 14.8184C46.5936 14.8184 46.9061 15.4971 46.9109 16.8594C46.9061 18.2266 46.5936 18.9004 46.0809 18.8906C45.5584 18.9004 45.2703 18.2266 45.2801 16.8594ZM47.9852 15.9805H48.7859V17.7285H47.99C48.0242 17.46 48.0438 17.167 48.0438 16.8594C48.0438 16.5469 48.0242 16.2539 47.9852 15.9805ZM57.859 13.2461V13.0605H56.5797V13.2461C56.5699 14.1152 55.5543 14.9893 53.5621 15.1992L53.982 16.1367C55.5055 15.9658 56.6334 15.3848 57.2096 14.5693C57.7809 15.3848 58.9137 15.9658 60.4566 16.1367L60.8668 15.1992C58.8795 14.9893 57.859 14.1152 57.859 13.2461ZM53.1617 17.4844H56.5797V18.0703H54.0992V19.0176H59.0504V19.4863H54.109V21.8398H60.5152V20.9023H55.3297V20.3652H60.2809V18.0703H57.8297V17.4844H61.2672V16.5078H53.1617V17.4844Z" fill="#FEFEFE"/>
</g>
<path fill-rule="evenodd" clip-rule="evenodd" d="M16.8573 15.208L16.6479 16.2548C16.6493 16.2712 16.65 16.2877 16.65 16.3044C16.65 16.622 16.3926 16.8794 16.075 16.8794C15.7574 16.8794 15.5 16.622 15.5 16.3044C15.5 15.9869 15.7574 15.7294 16.075 15.7294C16.206 15.7294 16.3268 15.7733 16.4235 15.847L16.6128 14.9006C16.5775 14.861 16.5414 14.8223 16.5044 14.7844C16.5414 14.8223 16.5775 14.861 16.6128 14.9006L16.8529 13.7L17.15 13.7294V14.5223C17.15 14.9353 17.3141 15.3313 17.6061 15.6234L17.3939 15.8355C17.1533 15.5949 16.9855 15.295 16.9048 14.9702L16.8573 15.2076C17.2621 15.7786 17.5 16.4763 17.5 17.2294C17.5 16.5275 17.289 15.8418 16.8943 15.2614C16.8821 15.2435 16.8698 15.2257 16.8573 15.208ZM15.5 17.2294H17.5C17.5 19.1624 15.933 20.7294 14 20.7294C12.067 20.7294 10.5 19.1624 10.5 17.2294C10.5 15.2964 12.067 13.7294 14 13.7294C14.9401 13.7294 15.7936 14.1001 16.4224 14.7031C16.0963 14.3905 15.7112 14.1423 15.2868 13.9746L14.5516 15.8341C14.3809 15.7666 14.1948 15.7294 14 15.7294C13.1716 15.7294 12.5 16.401 12.5 17.2294C12.5 18.0579 13.1716 18.7294 14 18.7294C14.8284 18.7294 15.5 18.0579 15.5 17.2294ZM15.1 17.2294H15.5C15.5 16.5958 15.1071 16.0539 14.5516 15.8341L14.4045 16.2062C14.2793 16.1567 14.1428 16.1294 14 16.1294C13.3925 16.1294 12.9 16.6219 12.9 17.2294C12.9 17.8369 13.3925 18.3294 14 18.3294C14.6075 18.3294 15.1 17.8369 15.1 17.2294ZM14.5 17.2294H15.1C15.1 16.7648 14.8119 16.3674 14.4045 16.2062L14.1839 16.7643C14.127 16.7418 14.0649 16.7294 14 16.7294C13.7239 16.7294 13.5 16.9533 13.5 17.2294C13.5 17.5056 13.7239 17.7294 14 17.7294C14.2761 17.7294 14.5 17.5056 14.5 17.2294ZM14.5 17.2294H14L14.1839 16.7643C14.369 16.8376 14.5 17.0182 14.5 17.2294Z" fill="#5959FF"/>
</g>
<defs>
<filter id="filter0_d_1307_266" x="0" y="0" width="79" height="34" filterUnits="userSpaceOnUse" color-interpolation-filters="sRGB">
<feFlood flood-opacity="0" result="BackgroundImageFix"/>
<feColorMatrix in="SourceAlpha" type="matrix" values="0 0 0 0 0 0 0 0 0 0 0 0 0 0 0 0 0 0 127 0" result="hardAlpha"/>
<feOffset/>
<feGaussianBlur stdDeviation="2"/>
<feComposite in2="hardAlpha" operator="out"/>
<feColorMatrix type="matrix" values="0 0 0 0 0 0 0 0 0 0 0 0 0 0 0 0 0 0 0.25 0"/>
<feBlend mode="normal" in2="BackgroundImageFix" result="effect1_dropShadow_1307_266"/>
<feBlend mode="normal" in="SourceGraphic" in2="effect1_dropShadow_1307_266" result="shape"/>
</filter>
<filter id="filter1_b_1307_266" x="0" y="0" width="79" height="34" filterUnits="userSpaceOnUse" color-interpolation-filters="sRGB">
<feFlood flood-opacity="0" result="BackgroundImageFix"/>
<feGaussianBlur in="BackgroundImageFix" stdDeviation="2"/>
<feComposite in2="SourceAlpha" operator="in" result="effect1_backgroundBlur_1307_266"/>
<feBlend mode="normal" in="SourceGraphic" in2="effect1_backgroundBlur_1307_266" result="shape"/>
</filter>
</defs>
</svg>
