<svg width="311" height="54" viewBox="0 0 311 54" fill="none" xmlns="http://www.w3.org/2000/svg">
<rect width="311" height="54" rx="7" fill="#FEFEFE"/>
<path d="M119.553 23.28V24.885H123.333V23.28H119.553ZM119.553 27.585V29.19H123.333V27.585H119.553ZM117.153 21.405C115.068 21.405 113.568 23.325 113.568 26.355C113.568 29.415 115.068 31.335 117.153 31.335C119.223 31.335 120.738 29.415 120.738 26.355C120.738 23.325 119.223 21.405 117.153 21.405ZM117.153 23.22C118.173 23.22 118.848 24.315 118.848 26.355C118.848 28.425 118.173 29.535 117.153 29.535C116.148 29.535 115.458 28.425 115.458 26.355C115.458 24.315 116.148 23.22 117.153 23.22ZM123.018 20.43V34.365H124.998V20.43H123.018ZM137.087 20.445V29.145H138.977V20.445H137.087ZM135.392 23.865V25.485H137.612V23.865H135.392ZM134.207 20.715V28.695H136.067V20.715H134.207ZM127.082 21.87V23.4H133.817V21.87H127.082ZM130.472 23.85C128.732 23.85 127.472 24.84 127.472 26.28C127.472 27.72 128.732 28.695 130.472 28.695C132.212 28.695 133.472 27.72 133.472 26.28C133.472 24.84 132.212 23.85 130.472 23.85ZM130.472 25.275C131.192 25.275 131.687 25.635 131.687 26.28C131.687 26.925 131.192 27.285 130.472 27.285C129.737 27.285 129.242 26.925 129.242 26.28C129.242 25.635 129.737 25.275 130.472 25.275ZM129.467 20.58V22.92H131.432V20.58H129.467ZM134.282 29.295C131.297 29.295 129.497 30.195 129.497 31.815C129.497 33.42 131.297 34.335 134.282 34.335C137.252 34.335 139.052 33.42 139.052 31.815C139.052 30.195 137.252 29.295 134.282 29.295ZM134.282 30.78C136.127 30.78 137.057 31.095 137.057 31.815C137.057 32.52 136.127 32.85 134.282 32.85C132.422 32.85 131.492 32.52 131.492 31.815C131.492 31.095 132.422 30.78 134.282 30.78ZM148.247 23.085V23.25C148.247 24.45 147.302 25.59 145.157 25.98L145.952 27.525C148.622 26.985 149.852 25.305 149.852 23.25V23.085H148.247ZM148.652 23.085V23.25C148.652 25.215 149.882 26.82 152.507 27.315L153.287 25.785C151.187 25.41 150.257 24.375 150.257 23.25V23.085H148.652ZM145.532 21.825V23.355H152.957V21.825H145.532ZM148.247 20.475V22.92H150.257V20.475H148.247ZM148.232 28.335V33.915H150.227V28.335H148.232ZM154.307 20.445V34.335H156.287V20.445H154.307ZM144.947 29.73C147.422 29.73 150.647 29.685 153.647 29.145L153.512 27.705C150.602 28.095 147.227 28.11 144.707 28.11L144.947 29.73ZM158.475 31.08V32.715H171.045V31.08H158.475ZM163.695 27.99V31.515H165.675V27.99H163.695ZM163.62 21.21V22.215C163.62 24.135 161.925 26.265 158.76 26.775L159.585 28.44C163.215 27.78 165.36 25.17 165.36 22.215V21.21H163.62ZM164.01 21.21V22.215C164.01 25.215 166.155 27.765 169.8 28.44L170.625 26.775C167.445 26.265 165.75 24.18 165.75 22.215V21.21H164.01ZM181.169 20.445V34.335H183.149V20.445H181.169ZM182.699 25.86V27.525H185.159V25.86H182.699ZM172.199 22.5V24.09H180.284V22.5H172.199ZM176.264 24.87C174.239 24.87 172.739 26.25 172.739 28.185C172.739 30.12 174.239 31.5 176.264 31.5C178.289 31.5 179.789 30.12 179.789 28.185C179.789 26.25 178.289 24.87 176.264 24.87ZM176.264 26.49C177.209 26.49 177.884 27.12 177.884 28.185C177.884 29.25 177.209 29.88 176.264 29.88C175.319 29.88 174.644 29.25 174.644 28.185C174.644 27.12 175.319 26.49 176.264 26.49ZM175.259 20.67V23.1H177.254V20.67H175.259ZM195.628 20.445V34.335H197.638V20.445H195.628ZM191.533 21.885V22.245C191.533 25.965 190.093 28.485 186.103 30.405L187.138 31.995C192.073 29.61 193.513 26.13 193.513 21.885H191.533ZM186.838 21.885V23.46H192.478V21.885H186.838Z" fill="#7070FF"/>
</svg>
