<svg width="75" height="35" viewBox="0 0 75 35" fill="none" xmlns="http://www.w3.org/2000/svg">
<g filter="url(#filter0_d_1060_188)">
<g filter="url(#filter1_b_1060_188)">
<g filter="url(#filter2_b_1060_188)">
<rect x="4" y="4" width="66.4288" height="27" rx="13.5" fill="white" fill-opacity="0.46"/>
</g>
<path d="M25.9001 13.6367C24.5525 13.6367 23.5857 14.8623 23.5954 16.8008C23.5857 18.7539 24.5525 19.9746 25.9001 19.9746C26.7595 19.9746 27.4675 19.4668 27.863 18.5879H29.7185V21.918H30.9489V13.0117H29.7185V14.8379H27.7702C27.365 14.0713 26.7009 13.6367 25.9001 13.6367ZM24.7868 16.8008C24.7819 15.4824 25.236 14.7598 25.9001 14.7598C26.5691 14.7598 27.0134 15.4824 27.0134 16.8008C27.0134 18.124 26.5691 18.8467 25.9001 18.8418C25.236 18.8467 24.7819 18.124 24.7868 16.8008ZM28.1169 15.8438H29.7185V17.5918H28.1462C28.1853 17.3428 28.2048 17.0791 28.2048 16.8008C28.2048 16.459 28.1755 16.1367 28.1169 15.8438ZM40.2782 13.0117H39.0966V15.209H38.3837V13.1777H37.2216V18.2949H38.3837V16.2246H39.0966V18.5879H40.2782V13.0117ZM32.5927 14.8965H36.9579V13.9297H35.4052V13.0898H34.165V13.9297H32.5927V14.8965ZM32.8661 16.7422C32.8612 17.665 33.6767 18.2803 34.79 18.2852C35.9179 18.2803 36.7284 17.665 36.7333 16.7422C36.7284 15.8096 35.9179 15.1895 34.79 15.1895C33.6767 15.1895 32.8612 15.8096 32.8661 16.7422ZM33.9794 16.7422C33.9745 16.3271 34.3066 16.083 34.79 16.0879C35.2734 16.083 35.6054 16.3271 35.6103 16.7422C35.6054 17.1523 35.2734 17.4014 34.79 17.3965C34.3017 17.4014 33.9745 17.1523 33.9794 16.7422ZM34.165 20.2871C34.1601 21.3125 35.3271 21.9033 37.2411 21.8984C39.1601 21.9033 40.3173 21.3125 40.3271 20.2871C40.3173 19.2568 39.1601 18.6709 37.2411 18.666C35.3271 18.6709 34.1601 19.2568 34.165 20.2871ZM35.415 20.2871C35.4052 19.8184 36.0351 19.5986 37.2411 19.6035C38.4521 19.5986 39.0673 19.8184 39.0673 20.2871C39.0673 20.7363 38.4521 20.9609 37.2411 20.9609C36.0351 20.9609 35.4052 20.7363 35.415 20.2871ZM52.7943 17.0449H44.6888V18.0508H48.1165V18.7051C46.5394 18.8174 45.6165 19.374 45.6165 20.2969C45.6165 21.3271 46.7835 21.9033 48.7318 21.8984C50.6507 21.9033 51.8177 21.3271 51.8275 20.2969C51.8177 19.3789 50.8997 18.8223 49.3568 18.71V18.0508H52.7943V17.0449ZM45.0501 15.7363L45.4603 16.7129C47.1448 16.5566 48.263 15.917 48.7318 15.0576C49.2054 15.9219 50.3333 16.5518 52.013 16.7129L52.4525 15.7363C50.763 15.5898 49.8597 14.9893 49.6448 14.3691H52.0618V13.3926H45.431V14.3691H47.8284C47.6038 14.9844 46.6956 15.5898 45.0501 15.7363ZM46.886 20.2969C46.8812 19.8477 47.5013 19.6328 48.7318 19.623C49.9378 19.6328 50.5726 19.8477 50.5775 20.2969C50.5726 20.7266 49.9378 20.9609 48.7318 20.9609C47.5013 20.9609 46.8812 20.7266 46.886 20.2969Z" fill="#FEFEFE"/>
</g>
<circle cx="15.5143" cy="17.6572" r="2.65715" fill="#1DD185"/>
</g>
<defs>
<filter id="filter0_d_1060_188" x="0" y="0" width="74.4287" height="35" filterUnits="userSpaceOnUse" color-interpolation-filters="sRGB">
<feFlood flood-opacity="0" result="BackgroundImageFix"/>
<feColorMatrix in="SourceAlpha" type="matrix" values="0 0 0 0 0 0 0 0 0 0 0 0 0 0 0 0 0 0 127 0" result="hardAlpha"/>
<feOffset/>
<feGaussianBlur stdDeviation="2"/>
<feComposite in2="hardAlpha" operator="out"/>
<feColorMatrix type="matrix" values="0 0 0 0 0 0 0 0 0 0 0 0 0 0 0 0 0 0 0.25 0"/>
<feBlend mode="normal" in2="BackgroundImageFix" result="effect1_dropShadow_1060_188"/>
<feBlend mode="normal" in="SourceGraphic" in2="effect1_dropShadow_1060_188" result="shape"/>
</filter>
<filter id="filter1_b_1060_188" x="0" y="0" width="74.4287" height="35" filterUnits="userSpaceOnUse" color-interpolation-filters="sRGB">
<feFlood flood-opacity="0" result="BackgroundImageFix"/>
<feGaussianBlur in="BackgroundImage" stdDeviation="2"/>
<feComposite in2="SourceAlpha" operator="in" result="effect1_backgroundBlur_1060_188"/>
<feBlend mode="normal" in="SourceGraphic" in2="effect1_backgroundBlur_1060_188" result="shape"/>
</filter>
<filter id="filter2_b_1060_188" x="0" y="0" width="74.4287" height="35" filterUnits="userSpaceOnUse" color-interpolation-filters="sRGB">
<feFlood flood-opacity="0" result="BackgroundImageFix"/>
<feGaussianBlur in="BackgroundImage" stdDeviation="2"/>
<feComposite in2="SourceAlpha" operator="in" result="effect1_backgroundBlur_1060_188"/>
<feBlend mode="normal" in="SourceGraphic" in2="effect1_backgroundBlur_1060_188" result="shape"/>
</filter>
</defs>
</svg>
