<svg width="311" height="54" viewBox="0 0 311 54" fill="none" xmlns="http://www.w3.org/2000/svg">
<rect width="311" height="54" rx="7" fill="#7070FF"/>
<path d="M133.106 22.0909L135.945 30.6776H136.057L138.891 22.0909H141.064L137.218 33H134.778L130.938 22.0909H133.106ZM142.416 33V24.8182H144.344V33H142.416ZM143.385 23.657C143.08 23.657 142.817 23.5558 142.597 23.3533C142.377 23.1474 142.266 22.9006 142.266 22.6129C142.266 22.3217 142.377 22.0749 142.597 21.8725C142.817 21.6665 143.08 21.5636 143.385 21.5636C143.694 21.5636 143.957 21.6665 144.173 21.8725C144.394 22.0749 144.504 22.3217 144.504 22.6129C144.504 22.9006 144.394 23.1474 144.173 23.3533C143.957 23.5558 143.694 23.657 143.385 23.657ZM152.793 26.9808L151.036 27.1726C150.986 26.995 150.899 26.8281 150.775 26.6719C150.654 26.5156 150.49 26.3896 150.284 26.2937C150.078 26.1978 149.826 26.1499 149.528 26.1499C149.127 26.1499 148.789 26.2369 148.516 26.4109C148.246 26.5849 148.113 26.8104 148.116 27.0874C148.113 27.3253 148.2 27.5188 148.377 27.668C148.559 27.8171 148.857 27.9396 149.272 28.0355L150.668 28.3338C151.442 28.5007 152.017 28.7653 152.394 29.1275C152.774 29.4897 152.966 29.9638 152.969 30.5497C152.966 31.0646 152.815 31.5192 152.516 31.9134C152.222 32.304 151.811 32.6094 151.286 32.8295C150.76 33.0497 150.157 33.1598 149.475 33.1598C148.473 33.1598 147.667 32.9503 147.056 32.5312C146.446 32.1087 146.082 31.521 145.964 30.7681L147.845 30.587C147.93 30.9563 148.111 31.2351 148.388 31.4233C148.665 31.6115 149.026 31.7056 149.469 31.7056C149.928 31.7056 150.295 31.6115 150.572 31.4233C150.853 31.2351 150.993 31.0025 150.993 30.7255C150.993 30.4911 150.902 30.2976 150.721 30.1449C150.544 29.9922 150.267 29.875 149.89 29.7933L148.495 29.5004C147.71 29.337 147.129 29.0618 146.753 28.6747C146.376 28.2841 146.19 27.7905 146.194 27.1939C146.19 26.6896 146.327 26.2528 146.604 25.8835C146.884 25.5107 147.273 25.223 147.77 25.0206C148.271 24.8146 148.848 24.7116 149.501 24.7116C150.46 24.7116 151.215 24.9158 151.765 25.3242C152.319 25.7326 152.662 26.2848 152.793 26.9808ZM154.559 33V24.8182H156.487V33H154.559ZM155.529 23.657C155.223 23.657 154.96 23.5558 154.74 23.3533C154.52 23.1474 154.41 22.9006 154.41 22.6129C154.41 22.3217 154.52 22.0749 154.74 21.8725C154.96 21.6665 155.223 21.5636 155.529 21.5636C155.838 21.5636 156.1 21.6665 156.317 21.8725C156.537 22.0749 156.647 22.3217 156.647 22.6129C156.647 22.9006 156.537 23.1474 156.317 23.3533C156.1 23.5558 155.838 23.657 155.529 23.657ZM162.556 24.8182V26.3097H157.852V24.8182H162.556ZM159.014 22.858H160.942V30.5391C160.942 30.7983 160.981 30.9972 161.059 31.1357C161.141 31.2706 161.247 31.3629 161.379 31.4126C161.51 31.4624 161.656 31.4872 161.815 31.4872C161.936 31.4872 162.046 31.4783 162.146 31.4606C162.249 31.4428 162.327 31.4268 162.38 31.4126L162.705 32.9201C162.602 32.9556 162.455 32.9947 162.263 33.0373C162.075 33.0799 161.844 33.1048 161.57 33.1119C161.087 33.1261 160.652 33.0533 160.265 32.8935C159.878 32.7301 159.571 32.478 159.344 32.1371C159.12 31.7962 159.01 31.37 159.014 30.8587V22.858ZM167.703 33.1598C166.882 33.1598 166.174 32.9893 165.577 32.6484C164.984 32.304 164.528 31.8175 164.208 31.1889C163.889 30.5568 163.729 29.8129 163.729 28.957C163.729 28.1154 163.889 27.3768 164.208 26.7411C164.532 26.1019 164.983 25.6048 165.561 25.2496C166.14 24.891 166.82 24.7116 167.602 24.7116C168.106 24.7116 168.582 24.7933 169.029 24.9567C169.48 25.1165 169.878 25.3651 170.222 25.7024C170.57 26.0398 170.844 26.4695 171.043 26.9915C171.241 27.5099 171.341 28.1278 171.341 28.8452V29.4364H164.635V28.1367H169.493C169.489 27.7674 169.409 27.4389 169.253 27.1513C169.097 26.8601 168.878 26.631 168.598 26.4641C168.321 26.2972 167.998 26.2138 167.628 26.2138C167.234 26.2138 166.888 26.3097 166.589 26.5014C166.291 26.6896 166.059 26.9382 165.892 27.2472C165.728 27.5526 165.645 27.8881 165.641 28.2539V29.3885C165.641 29.8643 165.728 30.2727 165.902 30.6136C166.076 30.951 166.32 31.2102 166.632 31.3913C166.945 31.5689 167.31 31.6577 167.729 31.6577C168.01 31.6577 168.264 31.6186 168.491 31.5405C168.718 31.4588 168.915 31.3398 169.082 31.1836C169.249 31.0273 169.375 30.8338 169.461 30.603L171.261 30.8054C171.147 31.2812 170.931 31.6967 170.611 32.0518C170.295 32.4034 169.89 32.6768 169.397 32.8722C168.903 33.0639 168.338 33.1598 167.703 33.1598ZM176.008 33.1438C175.366 33.1438 174.79 32.9787 174.283 32.6484C173.775 32.3182 173.373 31.8388 173.079 31.2102C172.784 30.5817 172.637 29.8182 172.637 28.9197C172.637 28.0107 172.786 27.2436 173.084 26.6186C173.386 25.9901 173.793 25.516 174.304 25.1964C174.815 24.8732 175.385 24.7116 176.014 24.7116C176.493 24.7116 176.887 24.7933 177.196 24.9567C177.505 25.1165 177.75 25.31 177.931 25.5373C178.112 25.761 178.253 25.9723 178.352 26.1712H178.432V22.0909H180.366V33H178.469V31.7109H178.352C178.253 31.9098 178.109 32.1211 177.921 32.3448C177.733 32.565 177.484 32.7532 177.175 32.9094C176.866 33.0657 176.477 33.1438 176.008 33.1438ZM176.546 31.5618C176.955 31.5618 177.303 31.4517 177.59 31.2315C177.878 31.0078 178.097 30.6971 178.246 30.2994C178.395 29.9016 178.469 29.4382 178.469 28.9091C178.469 28.38 178.395 27.9201 178.246 27.5295C178.1 27.1388 177.883 26.8352 177.596 26.6186C177.312 26.402 176.962 26.2937 176.546 26.2937C176.117 26.2937 175.758 26.4055 175.47 26.6293C175.183 26.853 174.966 27.1619 174.821 27.5561C174.675 27.9503 174.602 28.4013 174.602 28.9091C174.602 29.4205 174.675 29.8768 174.821 30.2781C174.97 30.6758 175.188 30.9901 175.476 31.2209C175.767 31.4482 176.124 31.5618 176.546 31.5618Z" fill="#FEFEFE"/>
</svg>
