<svg width="40" height="40" viewBox="0 0 40 40" fill="none" xmlns="http://www.w3.org/2000/svg">
<path d="M22.5923 11.6756L22.984 12.8811C22.9992 12.9278 23.0142 12.9742 23.0291 13.0202C23.2408 13.6752 23.4267 14.2501 23.7951 14.6955C24.1172 15.0848 24.5324 15.3865 25.0022 15.5725C25.5396 15.7853 26.1438 15.7844 26.8322 15.7833C26.8805 15.7833 26.9293 15.7832 26.9784 15.7832H28.246C29.7599 15.7832 30.8311 15.784 31.5995 15.8475C31.9804 15.879 32.242 15.9229 32.4207 15.9737C32.5705 16.0163 32.6208 16.0524 32.6256 16.056C32.8732 16.2897 32.9849 16.6334 32.922 16.968C32.9201 16.9737 32.9007 17.0324 32.8045 17.155C32.6898 17.3011 32.5039 17.4905 32.2144 17.7398C31.63 18.2428 30.7639 18.8731 29.5391 19.763L28.5136 20.508C28.4739 20.5369 28.4344 20.5655 28.3953 20.5939C27.8377 20.9977 27.3484 21.3521 27.0387 21.8401C26.7679 22.2667 26.6093 22.7549 26.5776 23.2592C26.5413 23.836 26.7289 24.4103 26.9426 25.0648C26.9576 25.1107 26.9727 25.157 26.9879 25.2038L27.3796 26.4093C27.8474 27.8491 28.1777 28.8682 28.3547 29.6186C28.4424 29.9905 28.4816 30.2529 28.4884 30.4386C28.4942 30.5942 28.4754 30.6532 28.4735 30.6589C28.3277 30.9666 28.0354 31.179 27.6978 31.2225C27.6917 31.2226 27.6299 31.2222 27.4836 31.1686C27.3092 31.1047 27.0717 30.9864 26.7451 30.7881C26.0861 30.3878 25.219 29.7588 23.9941 28.8689L22.9687 28.1239C22.9289 28.095 22.8895 28.0663 22.8505 28.0379C22.2941 27.6323 21.8059 27.2765 21.2461 27.1328C20.7566 27.0071 20.2434 27.0071 19.7539 27.1328C19.1941 27.2765 18.7059 27.6323 18.1495 28.0379C18.1105 28.0663 18.0711 28.095 18.0313 28.1239L17.0059 28.8689C15.781 29.7588 14.9139 30.3878 14.2549 30.7881C13.9283 30.9864 13.6908 31.1047 13.5164 31.1686C13.3701 31.2223 13.3082 31.2226 13.3022 31.2225C12.9646 31.179 12.6723 30.9666 12.5265 30.6589C12.5246 30.6532 12.5058 30.5942 12.5116 30.4386C12.5185 30.2529 12.5576 29.9905 12.6453 29.6186C12.8223 28.8682 13.1526 27.8491 13.6204 26.4093L14.0121 25.2038C14.0273 25.157 14.0424 25.1107 14.0574 25.0648C14.2711 24.4103 14.4587 23.836 14.4224 23.2592C14.3907 22.7549 14.2321 22.2667 13.9613 21.8401C13.6516 21.3521 13.1623 20.9977 12.6047 20.5939C12.5656 20.5655 12.5261 20.5369 12.4864 20.508L11.4609 19.763C10.2361 18.8731 9.36996 18.2428 8.78564 17.7398C8.49605 17.4905 8.31015 17.3011 8.19547 17.155C8.09927 17.0324 8.07987 16.9737 8.07804 16.968C8.01513 16.6334 8.12678 16.2897 8.37435 16.056C8.37921 16.0525 8.42942 16.0164 8.57929 15.9737C8.75796 15.9229 9.01964 15.879 9.40046 15.8475C10.1689 15.784 11.2401 15.7832 12.754 15.7832H14.0216C14.0707 15.7832 14.1195 15.7833 14.1678 15.7833C14.8562 15.7844 15.4604 15.7853 15.9978 15.5725C16.4676 15.3865 16.8828 15.0848 17.2049 14.6955C17.5733 14.2501 17.7592 13.6753 17.9709 13.0202C17.9858 12.9742 18.0008 12.9278 18.016 12.8811L18.4077 11.6756C18.8755 10.2357 19.2073 9.21719 19.5052 8.50603C19.6528 8.15357 19.7754 7.91826 19.879 7.76404C19.9658 7.63465 20.0157 7.59806 20.0206 7.59456C20.3193 7.43133 20.6807 7.43133 20.9794 7.59456C20.9843 7.59806 21.0342 7.63465 21.121 7.76404C21.2246 7.91826 21.3472 8.15357 21.4948 8.50603C21.7927 9.21719 22.1245 10.2357 22.5923 11.6756Z" stroke="#26265C" stroke-width="2"/>
</svg>
