<svg width="81" height="36" viewBox="0 0 81 36" fill="none" xmlns="http://www.w3.org/2000/svg">
<g filter="url(#filter0_d_1060_188)">
<g filter="url(#filter1_b_1060_188)">
<rect x="4" y="4" width="72.3143" height="27.3143" rx="13.6572" fill="white" fill-opacity="0.46"/>
<circle cx="15.6572" cy="17.6572" r="2.65715" fill="#1DD185"/>
</g>
<path d="M27.0725 13.08V14.22H31.9625V13.08H27.0725ZM29.6125 16.19V20.48C29.6125 20.63 29.5525 20.67 29.3625 20.68C29.1825 20.68 28.5225 20.68 27.9525 20.65C28.1125 21 28.2725 21.52 28.3125 21.87C29.2125 21.87 29.8425 21.86 30.2725 21.68C30.7125 21.49 30.8425 21.15 30.8425 20.51V16.19H29.6125ZM26.6425 15.85V16.99H32.2225V15.85H26.6425ZM24.4025 17.03V21.91H25.6025V16.04L25.4525 15.98L24.4025 17.03ZM25.5325 14.69C24.8725 15.82 23.7825 16.98 22.7625 17.7C23.0025 17.94 23.4125 18.48 23.5825 18.73C24.6525 17.85 25.8825 16.45 26.6725 15.12L25.5325 14.69ZM25.1525 12.51C24.6625 13.21 23.7025 14.11 22.8725 14.65C23.0725 14.89 23.3825 15.36 23.5425 15.63C24.4925 14.97 25.5725 13.93 26.3025 12.98L25.1525 12.51ZM38.2699 21.3711C39.2465 21.3711 40.3012 21.249 41.2289 21.0391L41.0434 19.9258C40.1596 20.1309 39.0805 20.2578 38.182 20.2578C36.7221 20.2578 35.9164 19.9453 35.9066 19.3789C35.8969 19.0518 36.1508 18.71 36.6293 18.4316L35.5551 17.9531C34.9105 18.2998 34.5199 18.8955 34.5199 19.4863C34.5248 20.6582 35.9604 21.3711 38.2699 21.3711ZM34.1 17.4844L38.3871 17.377C38.5873 18.0508 38.8168 18.7051 39.0902 19.3398L40.3891 19.0664C40.1352 18.4805 39.9154 17.9141 39.7348 17.3428L41.6098 17.2988V16.2441L39.432 16.2979C39.3441 15.9609 39.2709 15.624 39.2074 15.2871L41.5121 15.2285V14.1738L39.0561 14.2373C39.0121 13.876 38.9828 13.5098 38.9633 13.1387L37.6742 13.207C37.6937 13.5635 37.7279 13.9199 37.767 14.2666L34.1879 14.3594V15.4141L37.9184 15.3213C37.9721 15.6582 38.0404 15.9951 38.1186 16.332L34.1 16.4297V17.4844ZM43.8785 21.2246L45.1578 21.459C45.7291 19.5303 46.193 17.5234 46.525 15.5117H50.4117V14.3887H46.6959C46.7496 14.0322 46.7936 13.6709 46.8375 13.3145L45.5582 13.2559C45.5094 13.6367 45.4557 14.0127 45.402 14.3887H43.7418V15.5117H45.2213C44.8795 17.4941 44.4303 19.3984 43.8785 21.2246ZM46.8961 19.5938C46.8961 20.6387 47.9996 21.2783 49.7477 21.2734C50.4312 21.2783 51.0221 21.2246 51.7203 21.0879L51.5836 19.9355C50.9146 20.0674 50.3287 20.126 49.7477 20.1211C48.8346 20.126 48.2389 19.8623 48.234 19.4668C48.2389 19.2324 48.4732 18.9492 48.9371 18.6465L47.8629 18.1484C47.1988 18.6465 46.8961 19.1006 46.8961 19.5938ZM47.2867 16.4492L47.3551 17.5723C48.8053 17.4209 50.2066 17.3525 51.6031 17.3574V16.2441C50.1822 16.2393 48.7613 16.3125 47.2867 16.4492ZM56.0105 21.1562C57.1824 21.1514 58.535 19.833 59.1551 18.1191L58.0125 17.5234C57.5633 18.7051 56.6648 19.7793 56.118 19.7793C55.5467 19.7793 55.0535 18.5586 55.0535 17.0254C55.0535 16.1904 55.2049 15.2676 55.5125 14.2129L54.243 14.0664C53.9158 15.2285 53.7547 16.2441 53.7547 17.1621C53.7547 19.4912 54.6922 21.1514 56.0105 21.1562ZM59.3992 14.252C60.1658 15.9268 60.6004 18.1045 60.6004 20.2383H61.8992C61.8992 17.8604 61.4451 15.6484 60.6004 13.9102L59.3992 14.252Z" fill="#FEFEFE"/>
</g>
<defs>
<filter id="filter0_d_1060_188" x="0" y="0" width="80.3142" height="35.3143" filterUnits="userSpaceOnUse" color-interpolation-filters="sRGB">
<feFlood flood-opacity="0" result="BackgroundImageFix"/>
<feColorMatrix in="SourceAlpha" type="matrix" values="0 0 0 0 0 0 0 0 0 0 0 0 0 0 0 0 0 0 127 0" result="hardAlpha"/>
<feOffset/>
<feGaussianBlur stdDeviation="2"/>
<feComposite in2="hardAlpha" operator="out"/>
<feColorMatrix type="matrix" values="0 0 0 0 0 0 0 0 0 0 0 0 0 0 0 0 0 0 0.25 0"/>
<feBlend mode="normal" in2="BackgroundImageFix" result="effect1_dropShadow_1060_188"/>
<feBlend mode="normal" in="SourceGraphic" in2="effect1_dropShadow_1060_188" result="shape"/>
</filter>
<filter id="filter1_b_1060_188" x="0" y="0" width="80.3142" height="35.3143" filterUnits="userSpaceOnUse" color-interpolation-filters="sRGB">
<feFlood flood-opacity="0" result="BackgroundImageFix"/>
<feGaussianBlur in="BackgroundImage" stdDeviation="2"/>
<feComposite in2="SourceAlpha" operator="in" result="effect1_backgroundBlur_1060_188"/>
<feBlend mode="normal" in="SourceGraphic" in2="effect1_backgroundBlur_1060_188" result="shape"/>
</filter>
</defs>
</svg>
