<svg width="14" height="13" viewBox="0 0 14 13" fill="none" xmlns="http://www.w3.org/2000/svg">
<path d="M5.47831 2.68328C5.9403 1.26143 6.17129 0.550501 6.51825 0.359761C6.81824 0.194837 7.18176 0.194837 7.48175 0.359761C7.82871 0.550501 8.0597 1.26143 8.52169 2.68328L8.6614 3.11327C8.79051 3.51062 8.85506 3.70929 8.97666 3.85627C9.08402 3.98606 9.22243 4.08662 9.37904 4.14862C9.55641 4.21885 9.7653 4.21885 10.1831 4.21885H10.6352C12.1302 4.21885 12.8778 4.21885 13.1664 4.48988C13.4159 4.72423 13.5283 5.06995 13.4641 5.40623C13.3899 5.79514 12.7852 6.23452 11.5757 7.11328L11.2099 7.37902C10.8719 7.62459 10.7029 7.74738 10.6007 7.90844C10.5104 8.05066 10.4576 8.21337 10.447 8.38148C10.435 8.57187 10.4996 8.77054 10.6287 9.16788L10.7684 9.59787C11.2304 11.0197 11.4614 11.7307 11.2928 12.0889C11.147 12.3987 10.8529 12.6123 10.5133 12.6552C10.1205 12.7049 9.51573 12.2655 8.30623 11.3867L7.94046 11.121C7.60246 10.8754 7.43346 10.7526 7.24869 10.7052C7.08554 10.6633 6.91446 10.6633 6.75131 10.7052C6.56654 10.7526 6.39754 10.8754 6.05954 11.121L5.69377 11.3867C4.48427 12.2655 3.87952 12.7049 3.48671 12.6552C3.14707 12.6123 2.85298 12.3987 2.70722 12.0889C2.53864 11.7307 2.76963 11.0197 3.23162 9.59787L3.37134 9.16788C3.50044 8.77054 3.56499 8.57187 3.55301 8.38148C3.54244 8.21337 3.48957 8.05066 3.39932 7.90844C3.2971 7.74738 3.1281 7.62459 2.7901 7.37902L2.42433 7.11328C1.21483 6.23452 0.610078 5.79514 0.535888 5.40623C0.47174 5.06995 0.584072 4.72423 0.833628 4.48988C1.12225 4.21885 1.86976 4.21885 3.36479 4.21885H3.81691C4.2347 4.21885 4.44359 4.21885 4.62096 4.14862C4.77757 4.08662 4.91598 3.98606 5.02334 3.85627C5.14494 3.70929 5.20949 3.51062 5.3386 3.11327L5.47831 2.68328Z" fill="#D9D9D9"/>
</svg>
