<svg width="26" height="26" viewBox="0 0 26 26" fill="none" xmlns="http://www.w3.org/2000/svg">
<path d="M12.7018 1.33144C12.7054 1.32496 12.7077 1.32272 12.708 1.32245L12.708 1.32244C12.7084 1.32204 12.7093 1.32121 12.7116 1.31998C12.7172 1.31696 12.731 1.31199 12.7511 1.31251C12.7711 1.31303 12.7843 1.31869 12.7893 1.32174C12.7913 1.32296 12.792 1.32368 12.7922 1.3239C12.7922 1.3239 12.7943 1.32603 12.7975 1.33275C14.3272 4.49266 15.6235 6.66916 17.3476 8.40921C19.0765 10.1541 21.1737 11.3981 24.1908 12.8086C24.1977 12.8119 24.1999 12.814 24.1999 12.814C24.2002 12.8143 24.2011 12.8151 24.2027 12.8177C24.2065 12.8239 24.2133 12.8397 24.2139 12.8635C24.2146 12.8874 24.2087 12.9047 24.2043 12.913C24.2024 12.9165 24.2009 12.9182 24.1999 12.9192C24.1992 12.92 24.1965 12.9226 24.1894 12.9265C22.2576 13.9785 19.2158 15.7851 17.3476 17.6901C15.5683 19.5045 13.8712 22.41 12.8774 24.2607C12.8725 24.2698 12.8685 24.2737 12.86 24.2784C12.848 24.2851 12.8257 24.2928 12.7961 24.2929C12.7665 24.293 12.7447 24.2855 12.7335 24.2793C12.7258 24.2751 12.7223 24.2719 12.7177 24.2632C11.6871 22.3638 9.90817 19.3394 8.08763 17.5188C6.27153 15.7027 3.25758 13.9281 1.35776 12.8967C1.34928 12.8921 1.34594 12.8886 1.34161 12.8807C1.33525 12.8691 1.32759 12.8465 1.32777 12.816C1.32796 12.7854 1.33591 12.7622 1.34298 12.7496C1.34805 12.7406 1.35235 12.7363 1.36154 12.7314C3.21737 11.7427 6.12396 10.0513 7.92331 8.25196C9.76211 6.41316 11.6291 3.27405 12.7018 1.33144Z" fill="#FEFEFE" stroke="#FEFEFE" stroke-width="2"/>
</svg>
