<svg width="77" height="34" viewBox="0 0 77 34" fill="none" xmlns="http://www.w3.org/2000/svg">
<g filter="url(#filter0_d_1315_304)">
<g filter="url(#filter1_b_1315_304)">
<rect x="4" y="4" width="69" height="26" rx="13" fill="white" fill-opacity="0.46"/>
<path d="M21.8855 20.082L22.4617 21.1758C23.8289 20.5557 25.0789 19.7354 26.1385 18.7832C27.1102 19.457 27.9305 20.2139 28.8094 21.2246L29.7176 20.3457C28.8631 19.3691 27.9842 18.5781 27.0271 17.9092C27.8279 17.0449 28.4773 16.0977 28.9266 15.1211V13.9395H22.3836V15.1211H27.5008C26.3924 17.1377 24.449 18.8564 21.8855 20.082ZM34.6891 21.3516C36.0221 21.3516 36.2955 21.0732 36.3004 19.7305V15.7852H39.6402V15.2676C39.9918 15.0283 40.2262 14.623 40.2262 14.1641C40.2262 13.4414 39.6354 12.8457 38.9078 12.8457C38.1803 12.8457 37.5895 13.4414 37.5895 14.1641C37.5895 14.3301 37.6188 14.4863 37.6725 14.6328H36.3004V13.2656H34.982V14.6328H31.3199V15.7852H34.982V19.5742C34.982 20.1748 34.9576 20.1943 34.3961 20.1895C34.1227 20.1943 33.6295 20.1553 33.1852 20.1016L33.1168 21.2344C33.649 21.293 34.3131 21.3516 34.6891 21.3516ZM31.0172 19.8574L32.1207 20.3945C32.7652 19.3057 33.2975 18.0654 33.6148 16.9961L32.443 16.6641C32.1305 17.7041 31.6178 18.8662 31.0172 19.8574ZM37.3551 17.0156C37.902 17.9824 38.4488 19.2617 38.8102 20.4043L39.982 20.0039C39.6305 18.8711 39.0934 17.626 38.4879 16.5859L37.3551 17.0156ZM38.3902 14.1641C38.3902 13.8809 38.6246 13.6514 38.9078 13.6465C39.191 13.6514 39.4205 13.8809 39.4254 14.1641C39.4205 14.4473 39.191 14.6816 38.9078 14.6816C38.8785 14.6816 38.8443 14.6768 38.815 14.6719L38.7027 14.6377C38.5221 14.5596 38.3902 14.374 38.3902 14.1641ZM41.8188 18.041H49.0063V16.8887H41.8188V18.041ZM52.3566 19.9355L52.591 21.1172C57.425 20.6826 59.2414 18.7246 59.2512 13.9199L57.9816 13.8613C57.967 18.0361 56.6145 19.5156 52.3566 19.9355ZM51.1848 14.3984C51.5119 15.3799 51.8146 16.5078 52.0441 17.6504L53.2551 17.3867C53.0109 16.1953 52.7131 15.0576 52.3957 14.125L51.1848 14.3984ZM53.802 14.0957C54.134 15.0869 54.4367 16.2539 54.6613 17.4355L55.882 17.1719C55.6477 15.9951 55.3352 14.7988 55.0129 13.8223L53.802 14.0957Z" fill="#FEFEFE"/>
</g>
<path fill-rule="evenodd" clip-rule="evenodd" d="M14.0498 21.1992C15.0346 21.1488 15.9217 20.7289 16.5753 20.0753C15.8736 19.3735 15.4991 18.4685 15.4516 17.5498H14.0498V21.1992ZM14.0498 17.1498H15.4516C15.4991 16.231 15.8737 15.3259 16.5755 14.6241C15.9219 13.9704 15.0347 13.5504 14.0498 13.5V17.1498ZM13.6498 13.5L13.6498 17.1498H12.2614C12.2139 16.231 11.8393 15.3259 11.1375 14.6241L11.1306 14.6172C11.7836 13.9674 12.6682 13.5501 13.6498 13.5ZM13.6498 17.5498L13.6498 21.1992C12.6683 21.1491 11.7838 20.7319 11.1308 20.0822L11.1375 20.0755C11.8393 19.3737 12.2139 18.4686 12.2614 17.5498H13.6498ZM16.8436 19.7778C16.2293 19.1562 15.8989 18.3597 15.8522 17.5498H17.6992C17.6561 18.3923 17.3425 19.1633 16.8436 19.7778ZM15.8522 17.1498H17.6992C17.6562 16.3073 17.3427 15.5362 16.8437 14.9216C16.2294 15.5432 15.8989 16.3399 15.8522 17.1498ZM10 17.1498H11.8608C11.8139 16.3365 11.4809 15.5367 10.8617 14.914C10.3592 15.5298 10.0432 16.3038 10 17.1498ZM11.8608 17.5498H10C10.0433 18.3958 10.3593 19.1697 10.8619 19.7854C11.4809 19.1628 11.8139 18.363 11.8608 17.5498Z" fill="#5ACEFF"/>
</g>
<defs>
<filter id="filter0_d_1315_304" x="0" y="0" width="77" height="34" filterUnits="userSpaceOnUse" color-interpolation-filters="sRGB">
<feFlood flood-opacity="0" result="BackgroundImageFix"/>
<feColorMatrix in="SourceAlpha" type="matrix" values="0 0 0 0 0 0 0 0 0 0 0 0 0 0 0 0 0 0 127 0" result="hardAlpha"/>
<feOffset/>
<feGaussianBlur stdDeviation="2"/>
<feComposite in2="hardAlpha" operator="out"/>
<feColorMatrix type="matrix" values="0 0 0 0 0 0 0 0 0 0 0 0 0 0 0 0 0 0 0.25 0"/>
<feBlend mode="normal" in2="BackgroundImageFix" result="effect1_dropShadow_1315_304"/>
<feBlend mode="normal" in="SourceGraphic" in2="effect1_dropShadow_1315_304" result="shape"/>
</filter>
<filter id="filter1_b_1315_304" x="0" y="0" width="77" height="34" filterUnits="userSpaceOnUse" color-interpolation-filters="sRGB">
<feFlood flood-opacity="0" result="BackgroundImageFix"/>
<feGaussianBlur in="BackgroundImageFix" stdDeviation="2"/>
<feComposite in2="SourceAlpha" operator="in" result="effect1_backgroundBlur_1315_304"/>
<feBlend mode="normal" in="SourceGraphic" in2="effect1_backgroundBlur_1315_304" result="shape"/>
</filter>
</defs>
</svg>
