<svg width="356" height="51" viewBox="0 0 356 51" fill="none" xmlns="http://www.w3.org/2000/svg">
<rect width="356" height="51" rx="5" fill="#FEFEFE"/>
<path d="M134.883 32H132.633L136.729 20.3636H139.332L143.434 32H141.184L138.076 22.75H137.985L134.883 32ZM134.957 27.4375H141.093V29.1307H134.957V27.4375ZM144.876 35.2727V23.2727H146.898V24.7159H147.018C147.124 24.5038 147.273 24.2784 147.467 24.0398C147.66 23.7973 147.921 23.5909 148.251 23.4205C148.58 23.2462 149.001 23.1591 149.512 23.1591C150.186 23.1591 150.794 23.3314 151.336 23.6761C151.881 24.017 152.313 24.5227 152.631 25.1932C152.953 25.8598 153.114 26.678 153.114 27.6477C153.114 28.6061 152.957 29.4205 152.643 30.0909C152.328 30.7614 151.9 31.2727 151.359 31.625C150.817 31.9773 150.203 32.1534 149.518 32.1534C149.018 32.1534 148.603 32.0701 148.273 31.9034C147.944 31.7367 147.679 31.536 147.478 31.3011C147.281 31.0625 147.128 30.8371 147.018 30.625H146.933V35.2727H144.876ZM146.893 27.6364C146.893 28.2008 146.972 28.6951 147.131 29.1193C147.294 29.5436 147.527 29.875 147.83 30.1136C148.137 30.3485 148.508 30.4659 148.944 30.4659C149.398 30.4659 149.779 30.3447 150.086 30.1023C150.393 29.8561 150.624 29.5208 150.779 29.0966C150.938 28.6686 151.018 28.1818 151.018 27.6364C151.018 27.0947 150.94 26.6136 150.785 26.1932C150.63 25.7727 150.398 25.4432 150.092 25.2045C149.785 24.9659 149.402 24.8466 148.944 24.8466C148.505 24.8466 148.131 24.9621 147.825 25.1932C147.518 25.4242 147.285 25.7481 147.126 26.1648C146.97 26.5814 146.893 27.072 146.893 27.6364ZM154.876 35.2727V23.2727H156.898V24.7159H157.018C157.124 24.5038 157.273 24.2784 157.467 24.0398C157.66 23.7973 157.921 23.5909 158.251 23.4205C158.58 23.2462 159.001 23.1591 159.512 23.1591C160.186 23.1591 160.794 23.3314 161.336 23.6761C161.881 24.017 162.313 24.5227 162.631 25.1932C162.953 25.8598 163.114 26.678 163.114 27.6477C163.114 28.6061 162.957 29.4205 162.643 30.0909C162.328 30.7614 161.9 31.2727 161.359 31.625C160.817 31.9773 160.203 32.1534 159.518 32.1534C159.018 32.1534 158.603 32.0701 158.273 31.9034C157.944 31.7367 157.679 31.536 157.478 31.3011C157.281 31.0625 157.128 30.8371 157.018 30.625H156.933V35.2727H154.876ZM156.893 27.6364C156.893 28.2008 156.972 28.6951 157.131 29.1193C157.294 29.5436 157.527 29.875 157.83 30.1136C158.137 30.3485 158.508 30.4659 158.944 30.4659C159.398 30.4659 159.779 30.3447 160.086 30.1023C160.393 29.8561 160.624 29.5208 160.779 29.0966C160.938 28.6686 161.018 28.1818 161.018 27.6364C161.018 27.0947 160.94 26.6136 160.785 26.1932C160.63 25.7727 160.398 25.4432 160.092 25.2045C159.785 24.9659 159.402 24.8466 158.944 24.8466C158.505 24.8466 158.131 24.9621 157.825 25.1932C157.518 25.4242 157.285 25.7481 157.126 26.1648C156.97 26.5814 156.893 27.072 156.893 27.6364ZM166.933 20.3636V32H164.876V20.3636H166.933ZM172.911 32.1705C172.036 32.1705 171.281 31.9886 170.644 31.625C170.012 31.2576 169.525 30.7386 169.184 30.0682C168.843 29.3939 168.673 28.6004 168.673 27.6875C168.673 26.7898 168.843 26.0019 169.184 25.3239C169.529 24.642 170.01 24.1117 170.627 23.733C171.245 23.3504 171.97 23.1591 172.803 23.1591C173.341 23.1591 173.849 23.2462 174.326 23.4205C174.807 23.5909 175.231 23.8561 175.599 24.2159C175.97 24.5758 176.262 25.0341 176.474 25.5909C176.686 26.1439 176.792 26.803 176.792 27.5682V28.1989H169.639V26.8125H174.82C174.817 26.4186 174.731 26.0682 174.565 25.7614C174.398 25.4508 174.165 25.2064 173.866 25.0284C173.57 24.8504 173.226 24.7614 172.832 24.7614C172.411 24.7614 172.042 24.8636 171.724 25.0682C171.406 25.2689 171.157 25.5341 170.979 25.8636C170.805 26.1894 170.716 26.5473 170.712 26.9375V28.1477C170.712 28.6553 170.805 29.0909 170.991 29.4545C171.176 29.8144 171.436 30.0909 171.769 30.2841C172.103 30.4735 172.493 30.5682 172.94 30.5682C173.239 30.5682 173.51 30.5265 173.752 30.4432C173.995 30.3561 174.205 30.2292 174.383 30.0625C174.561 29.8958 174.695 29.6894 174.786 29.4432L176.707 29.6591C176.585 30.1667 176.354 30.6098 176.014 30.9886C175.676 31.3636 175.245 31.6553 174.718 31.8636C174.192 32.0682 173.589 32.1705 172.911 32.1705ZM182.592 32V20.3636H184.7V30.233H189.825V32H182.592ZM195.37 32.1705C194.518 32.1705 193.779 31.983 193.154 31.608C192.529 31.233 192.044 30.7083 191.7 30.0341C191.359 29.3598 191.188 28.572 191.188 27.6705C191.188 26.7689 191.359 25.9792 191.7 25.3011C192.044 24.6231 192.529 24.0966 193.154 23.7216C193.779 23.3466 194.518 23.1591 195.37 23.1591C196.222 23.1591 196.961 23.3466 197.586 23.7216C198.211 24.0966 198.694 24.6231 199.035 25.3011C199.38 25.9792 199.552 26.7689 199.552 27.6705C199.552 28.572 199.38 29.3598 199.035 30.0341C198.694 30.7083 198.211 31.233 197.586 31.608C196.961 31.983 196.222 32.1705 195.37 32.1705ZM195.381 30.5227C195.844 30.5227 196.23 30.3958 196.541 30.142C196.851 29.8845 197.082 29.5398 197.234 29.108C197.389 28.6761 197.467 28.1951 197.467 27.6648C197.467 27.1307 197.389 26.6477 197.234 26.2159C197.082 25.7803 196.851 25.4337 196.541 25.1761C196.23 24.9186 195.844 24.7898 195.381 24.7898C194.908 24.7898 194.514 24.9186 194.2 25.1761C193.889 25.4337 193.656 25.7803 193.501 26.2159C193.349 26.6477 193.273 27.1307 193.273 27.6648C193.273 28.1951 193.349 28.6761 193.501 29.108C193.656 29.5398 193.889 29.8845 194.2 30.142C194.514 30.3958 194.908 30.5227 195.381 30.5227ZM205.093 35.4545C204.354 35.4545 203.72 35.3542 203.19 35.1534C202.659 34.9564 202.233 34.6913 201.911 34.358C201.589 34.0246 201.366 33.6553 201.241 33.25L203.093 32.8011C203.176 32.9716 203.298 33.1402 203.457 33.3068C203.616 33.4773 203.83 33.6174 204.099 33.7273C204.371 33.8409 204.714 33.8977 205.127 33.8977C205.71 33.8977 206.193 33.7557 206.576 33.4716C206.959 33.1913 207.15 32.7292 207.15 32.0852V30.4318H207.048C206.942 30.6439 206.786 30.8617 206.582 31.0852C206.381 31.3087 206.114 31.4962 205.781 31.6477C205.451 31.7992 205.036 31.875 204.536 31.875C203.866 31.875 203.258 31.7178 202.712 31.4034C202.171 31.0852 201.739 30.6117 201.417 29.983C201.099 29.3504 200.94 28.5587 200.94 27.608C200.94 26.6496 201.099 25.8409 201.417 25.1818C201.739 24.5189 202.173 24.017 202.718 23.6761C203.264 23.3314 203.871 23.1591 204.542 23.1591C205.053 23.1591 205.474 23.2462 205.803 23.4205C206.137 23.5909 206.402 23.7973 206.599 24.0398C206.796 24.2784 206.945 24.5038 207.048 24.7159H207.161V23.2727H209.19V32.142C209.19 32.8883 209.012 33.5057 208.656 33.9943C208.3 34.483 207.813 34.8485 207.195 35.0909C206.578 35.3333 205.877 35.4545 205.093 35.4545ZM205.11 30.2614C205.546 30.2614 205.917 30.1553 206.224 29.9432C206.531 29.7311 206.764 29.4261 206.923 29.0284C207.082 28.6307 207.161 28.1534 207.161 27.5966C207.161 27.0473 207.082 26.5663 206.923 26.1534C206.767 25.7405 206.536 25.4205 206.229 25.1932C205.926 24.9621 205.553 24.8466 205.11 24.8466C204.652 24.8466 204.269 24.9659 203.962 25.2045C203.656 25.4432 203.425 25.7708 203.269 26.1875C203.114 26.6004 203.036 27.0701 203.036 27.5966C203.036 28.1307 203.114 28.5985 203.269 29C203.428 29.3977 203.661 29.7083 203.968 29.9318C204.279 30.1515 204.659 30.2614 205.11 30.2614ZM217.465 20.3636V32H215.357V20.3636H217.465ZM221.714 26.8864V32H219.657V23.2727H221.623V24.7557H221.725C221.926 24.267 222.246 23.8788 222.685 23.5909C223.129 23.303 223.676 23.1591 224.327 23.1591C224.93 23.1591 225.454 23.2879 225.901 23.5455C226.352 23.803 226.701 24.1761 226.947 24.6648C227.197 25.1534 227.32 25.7462 227.316 26.4432V32H225.259V26.7614C225.259 26.178 225.108 25.7216 224.805 25.392C224.505 25.0625 224.091 24.8977 223.56 24.8977C223.201 24.8977 222.88 24.9773 222.6 25.1364C222.324 25.2917 222.106 25.517 221.947 25.8125C221.791 26.108 221.714 26.4659 221.714 26.8864Z" fill="black"/>
</svg>
