<svg width="17" height="18" viewBox="0 0 17 18" fill="none" xmlns="http://www.w3.org/2000/svg">
<path fill-rule="evenodd" clip-rule="evenodd" d="M13.5955 0.661902C14.3034 -0.144871 15.5313 -0.22501 16.3381 0.482906C17.1449 1.19082 17.225 2.41872 16.5171 3.22549L16.1556 3.63747C16.1902 3.85509 16.2073 4.07851 16.2053 4.3062L16.1959 5.38824V4.93846C16.1959 4.53717 16.1368 4.14967 16.0268 3.78421L14.1959 5.87083V8.40373L14.1692 8.43165L14.1915 5.87577L11.8256 8.57214C11.3055 9.16484 10.5048 9.36536 9.79656 9.14935C10.9545 10.7451 10.0412 13.1791 7.90959 13.4489L6.88283 13.5789L4.8868 13.8315L4.85336 11.8198L4.83616 10.785C4.80186 8.72184 6.9248 7.45653 8.66352 8.23091C8.27824 7.53395 8.34851 6.6416 8.90399 6.00855L11.5978 2.93858H9.53487L9.53498 2.93846H11.5979L13.2336 1.07438C12.9123 0.988332 12.5752 0.941274 12.2275 0.938585H12.5392C12.7961 0.938585 13.0474 0.962807 13.2908 1.00909L13.5955 0.661902ZM12.2275 0.938585H11.3043L9.53498 2.93846H4C2.89543 2.93846 2 3.83389 2 4.93846V13.7573C2 14.8618 2.89543 15.7573 4 15.7573H12.1959C13.3004 15.7573 14.1959 14.8618 14.1959 13.7573V8.40373L16.1878 6.31599L16.1959 5.38824V13.7573C16.1959 15.9664 14.405 17.7573 12.1959 17.7573H4C1.79086 17.7573 0 15.9664 0 13.7573V4.93846C0 2.72933 1.79086 0.938463 4 0.938463H12.1959L12.2275 0.938585ZM7.65925 11.4647L6.8494 11.5672L6.83583 10.751C6.82551 10.1302 7.54423 9.77901 8.02735 10.1688C8.52947 10.574 8.29946 11.3837 7.65925 11.4647Z" fill="#D9D9D9"/>
</svg>
