<svg width="264" height="52" viewBox="0 0 264 52" fill="none" xmlns="http://www.w3.org/2000/svg">
<path d="M1.43466 19V4.45455H7.00284C8.05398 4.45455 8.92756 4.62026 9.62358 4.9517C10.3243 5.27841 10.8475 5.72585 11.1932 6.29403C11.5436 6.86222 11.7188 7.50616 11.7188 8.22585C11.7188 8.81771 11.6051 9.32434 11.3778 9.74574C11.1506 10.1624 10.8452 10.5009 10.4616 10.7614C10.0781 11.0218 9.64962 11.2088 9.17614 11.3224V11.4645C9.69224 11.4929 10.187 11.6515 10.6605 11.9403C11.1387 12.2244 11.5294 12.6269 11.8324 13.1477C12.1354 13.6686 12.2869 14.2983 12.2869 15.0369C12.2869 15.7898 12.1046 16.4669 11.7401 17.0682C11.3755 17.6648 10.8262 18.1359 10.0923 18.4815C9.35843 18.8272 8.43513 19 7.32244 19H1.43466ZM4.0696 16.7983H6.90341C7.85985 16.7983 8.54877 16.616 8.97017 16.2514C9.39631 15.8821 9.60938 15.4086 9.60938 14.831C9.60938 14.4001 9.50284 14.0118 9.28977 13.6662C9.0767 13.3158 8.77367 13.0412 8.38068 12.8423C7.98769 12.6387 7.51894 12.5369 6.97443 12.5369H4.0696V16.7983ZM4.0696 10.6406H6.67614C7.13068 10.6406 7.54025 10.5578 7.90483 10.392C8.26941 10.2216 8.55587 9.98248 8.7642 9.67472C8.97727 9.36222 9.08381 8.9929 9.08381 8.56676C9.08381 8.00331 8.88494 7.5393 8.48722 7.17472C8.09422 6.81013 7.50947 6.62784 6.73295 6.62784H4.0696V10.6406ZM19.2951 19.2131C18.2013 19.2131 17.2567 18.9858 16.4613 18.5312C15.6706 18.072 15.0621 17.4233 14.636 16.5852C14.2099 15.7424 13.9968 14.7505 13.9968 13.6094C13.9968 12.4872 14.2099 11.5024 14.636 10.6548C15.0669 9.80256 15.6682 9.13968 16.44 8.66619C17.2118 8.18797 18.1185 7.94886 19.1602 7.94886C19.8325 7.94886 20.467 8.05777 21.0636 8.27557C21.6649 8.48864 22.1952 8.82008 22.6545 9.26989C23.1185 9.7197 23.4831 10.2926 23.7482 10.9886C24.0134 11.6799 24.146 12.5038 24.146 13.4602V14.2486H15.2042V12.5156H21.6815C21.6767 12.0232 21.5702 11.5852 21.3619 11.2017C21.1535 10.8134 20.8623 10.508 20.4883 10.2855C20.119 10.063 19.6881 9.9517 19.1957 9.9517C18.6701 9.9517 18.2085 10.0795 17.8107 10.3352C17.413 10.5862 17.1029 10.9176 16.8803 11.3295C16.6625 11.7367 16.5513 12.1842 16.5465 12.6719V14.1847C16.5465 14.8191 16.6625 15.3636 16.8945 15.8182C17.1265 16.268 17.4509 16.6136 17.8675 16.8551C18.2842 17.0919 18.7719 17.2102 19.3306 17.2102C19.7047 17.2102 20.0432 17.1581 20.3462 17.054C20.6493 16.9451 20.9121 16.7865 21.1346 16.5781C21.3571 16.3698 21.5252 16.1117 21.6388 15.804L24.0394 16.0739C23.8879 16.7083 23.5991 17.2623 23.1729 17.7358C22.7515 18.2045 22.2118 18.5691 21.5536 18.8295C20.8955 19.0852 20.1426 19.2131 19.2951 19.2131ZM31.8466 8.09091V10.0795H25.3977V8.09091H31.8466ZM27.0099 19V7.06108C27.0099 6.32718 27.1615 5.71638 27.4645 5.22869C27.7723 4.741 28.1842 4.37642 28.7003 4.13494C29.2164 3.89347 29.7893 3.77273 30.419 3.77273C30.8641 3.77273 31.2595 3.80824 31.6051 3.87926C31.9508 3.95028 32.2064 4.0142 32.3722 4.07102L31.8608 6.05966C31.7519 6.02651 31.6146 5.99337 31.4489 5.96023C31.2831 5.92235 31.0985 5.90341 30.8949 5.90341C30.4167 5.90341 30.0781 6.01941 29.8793 6.25142C29.6851 6.47869 29.5881 6.8054 29.5881 7.23153V19H27.0099ZM38.2085 19.2131C37.1431 19.2131 36.2198 18.9787 35.4386 18.5099C34.6573 18.0412 34.0513 17.3854 33.6204 16.5426C33.1942 15.6998 32.9812 14.715 32.9812 13.5881C32.9812 12.4612 33.1942 11.474 33.6204 10.6264C34.0513 9.77888 34.6573 9.12074 35.4386 8.65199C36.2198 8.18324 37.1431 7.94886 38.2085 7.94886C39.2738 7.94886 40.1971 8.18324 40.9783 8.65199C41.7596 9.12074 42.3633 9.77888 42.7894 10.6264C43.2203 11.474 43.4357 12.4612 43.4357 13.5881C43.4357 14.715 43.2203 15.6998 42.7894 16.5426C42.3633 17.3854 41.7596 18.0412 40.9783 18.5099C40.1971 18.9787 39.2738 19.2131 38.2085 19.2131ZM38.2227 17.1534C38.8003 17.1534 39.2833 16.9948 39.6715 16.6776C40.0598 16.3556 40.3486 15.9247 40.538 15.3849C40.7321 14.8452 40.8292 14.2438 40.8292 13.581C40.8292 12.9134 40.7321 12.3097 40.538 11.7699C40.3486 11.2254 40.0598 10.7921 39.6715 10.4702C39.2833 10.1482 38.8003 9.98722 38.2227 9.98722C37.6308 9.98722 37.1384 10.1482 36.7454 10.4702C36.3571 10.7921 36.0659 11.2254 35.8718 11.7699C35.6824 12.3097 35.5877 12.9134 35.5877 13.581C35.5877 14.2438 35.6824 14.8452 35.8718 15.3849C36.0659 15.9247 36.3571 16.3556 36.7454 16.6776C37.1384 16.9948 37.6308 17.1534 38.2227 17.1534ZM45.6179 19V8.09091H48.1108V9.90909H48.2244C48.4233 9.27936 48.7642 8.79403 49.2472 8.45312C49.7348 8.10748 50.2912 7.93466 50.9162 7.93466C51.0582 7.93466 51.2169 7.94176 51.392 7.95597C51.572 7.96544 51.7211 7.98201 51.8395 8.00568V10.3707C51.7306 10.3329 51.5578 10.2997 51.321 10.2713C51.089 10.2382 50.8641 10.2216 50.6463 10.2216C50.1776 10.2216 49.7562 10.3234 49.3821 10.527C49.0128 10.7259 48.7216 11.0028 48.5085 11.358C48.2955 11.7131 48.1889 12.1226 48.1889 12.5866V19H45.6179ZM57.9279 19.2131C56.8342 19.2131 55.8896 18.9858 55.0941 18.5312C54.3034 18.072 53.695 17.4233 53.2688 16.5852C52.8427 15.7424 52.6296 14.7505 52.6296 13.6094C52.6296 12.4872 52.8427 11.5024 53.2688 10.6548C53.6997 9.80256 54.301 9.13968 55.0728 8.66619C55.8446 8.18797 56.7513 7.94886 57.793 7.94886C58.4653 7.94886 59.0998 8.05777 59.6964 8.27557C60.2977 8.48864 60.828 8.82008 61.2873 9.26989C61.7513 9.7197 62.1159 10.2926 62.381 10.9886C62.6462 11.6799 62.7788 12.5038 62.7788 13.4602V14.2486H53.837V12.5156H60.3143C60.3095 12.0232 60.203 11.5852 59.9947 11.2017C59.7863 10.8134 59.4951 10.508 59.1211 10.2855C58.7518 10.063 58.3209 9.9517 57.8285 9.9517C57.3029 9.9517 56.8413 10.0795 56.4435 10.3352C56.0458 10.5862 55.7357 10.9176 55.5131 11.3295C55.2953 11.7367 55.1841 12.1842 55.1793 12.6719V14.1847C55.1793 14.8191 55.2953 15.3636 55.5273 15.8182C55.7594 16.268 56.0837 16.6136 56.5004 16.8551C56.917 17.0919 57.4047 17.2102 57.9634 17.2102C58.3375 17.2102 58.676 17.1581 58.979 17.054C59.2821 16.9451 59.5449 16.7865 59.7674 16.5781C59.9899 16.3698 60.158 16.1117 60.2717 15.804L62.6722 16.0739C62.5207 16.7083 62.2319 17.2623 61.8058 17.7358C61.3844 18.2045 60.8446 18.5691 60.1864 18.8295C59.5283 19.0852 58.7754 19.2131 57.9279 19.2131ZM72.1662 19L69.0838 8.09091H71.7045L73.6222 15.7614H73.7216L75.6818 8.09091H78.2741L80.2344 15.7188H80.3409L82.2301 8.09091H84.858L81.7685 19H79.0909L77.0455 11.6278H76.8963L74.8509 19H72.1662ZM91.1701 19.2131C90.0763 19.2131 89.1317 18.9858 88.3363 18.5312C87.5456 18.072 86.9371 17.4233 86.511 16.5852C86.0849 15.7424 85.8718 14.7505 85.8718 13.6094C85.8718 12.4872 86.0849 11.5024 86.511 10.6548C86.9419 9.80256 87.5432 9.13968 88.315 8.66619C89.0868 8.18797 89.9935 7.94886 91.0352 7.94886C91.7075 7.94886 92.342 8.05777 92.9386 8.27557C93.5399 8.48864 94.0702 8.82008 94.5295 9.26989C94.9935 9.7197 95.3581 10.2926 95.6232 10.9886C95.8884 11.6799 96.021 12.5038 96.021 13.4602V14.2486H87.0792V12.5156H93.5565C93.5517 12.0232 93.4452 11.5852 93.2369 11.2017C93.0285 10.8134 92.7373 10.508 92.3633 10.2855C91.994 10.063 91.5631 9.9517 91.0707 9.9517C90.5451 9.9517 90.0835 10.0795 89.6857 10.3352C89.288 10.5862 88.9779 10.9176 88.7553 11.3295C88.5375 11.7367 88.4263 12.1842 88.4215 12.6719V14.1847C88.4215 14.8191 88.5375 15.3636 88.7695 15.8182C89.0015 16.268 89.3259 16.6136 89.7425 16.8551C90.1592 17.0919 90.6469 17.2102 91.2056 17.2102C91.5797 17.2102 91.9182 17.1581 92.2212 17.054C92.5243 16.9451 92.7871 16.7865 93.0096 16.5781C93.2321 16.3698 93.4002 16.1117 93.5138 15.804L95.9144 16.0739C95.7629 16.7083 95.4741 17.2623 95.0479 17.7358C94.6265 18.2045 94.0868 18.5691 93.4286 18.8295C92.7705 19.0852 92.0176 19.2131 91.1701 19.2131ZM111.779 10.9744L109.435 11.2301C109.369 10.9934 109.253 10.7708 109.087 10.5625C108.926 10.3542 108.709 10.1861 108.434 10.0582C108.159 9.9304 107.823 9.86648 107.425 9.86648C106.89 9.86648 106.441 9.98248 106.076 10.2145C105.716 10.4465 105.539 10.7472 105.543 11.1165C105.539 11.4337 105.655 11.6918 105.891 11.8906C106.133 12.0895 106.531 12.2528 107.085 12.3807L108.945 12.7784C109.978 13.0009 110.745 13.3537 111.246 13.8366C111.753 14.3196 112.009 14.9517 112.013 15.733C112.009 16.4195 111.808 17.0256 111.41 17.5511C111.017 18.072 110.47 18.4792 109.769 18.7727C109.068 19.0663 108.263 19.2131 107.354 19.2131C106.019 19.2131 104.944 18.9337 104.13 18.375C103.316 17.8116 102.83 17.0279 102.674 16.0241L105.181 15.7827C105.295 16.2751 105.536 16.6468 105.906 16.8977C106.275 17.1487 106.755 17.2741 107.347 17.2741C107.958 17.2741 108.448 17.1487 108.817 16.8977C109.192 16.6468 109.379 16.3366 109.379 15.9673C109.379 15.6548 109.258 15.3968 109.016 15.1932C108.78 14.9896 108.41 14.8333 107.908 14.7244L106.048 14.3338C105.001 14.116 104.227 13.7491 103.725 13.233C103.223 12.7121 102.975 12.054 102.979 11.2585C102.975 10.5862 103.157 10.0038 103.526 9.51136C103.9 9.0142 104.419 8.63068 105.082 8.3608C105.749 8.08617 106.519 7.94886 107.39 7.94886C108.668 7.94886 109.674 8.22112 110.408 8.76562C111.147 9.31013 111.604 10.0464 111.779 10.9744ZM119.581 8.09091V10.0795H113.31V8.09091H119.581ZM114.858 5.47727H117.429V15.7188C117.429 16.0644 117.481 16.3295 117.585 16.5142C117.694 16.6941 117.836 16.8172 118.011 16.8835C118.187 16.9498 118.381 16.983 118.594 16.983C118.755 16.983 118.902 16.9711 119.034 16.9474C119.171 16.9238 119.276 16.9025 119.347 16.8835L119.78 18.8935C119.643 18.9408 119.446 18.9929 119.19 19.0497C118.939 19.1065 118.632 19.1397 118.267 19.1491C117.623 19.1681 117.043 19.071 116.527 18.858C116.011 18.6402 115.601 18.304 115.298 17.8494C115 17.3949 114.853 16.8267 114.858 16.1449V5.47727ZM124.87 19.2202C124.179 19.2202 123.556 19.0971 123.002 18.8509C122.453 18.5999 122.018 18.2306 121.696 17.7429C121.378 17.2552 121.22 16.6539 121.22 15.9389C121.22 15.3234 121.333 14.8144 121.561 14.4119C121.788 14.0095 122.098 13.6875 122.491 13.446C122.884 13.2045 123.327 13.0223 123.819 12.8991C124.316 12.7713 124.83 12.679 125.36 12.6222C126 12.5559 126.518 12.4967 126.916 12.4446C127.314 12.3878 127.602 12.3026 127.782 12.1889C127.967 12.0705 128.059 11.8883 128.059 11.642V11.5994C128.059 11.0644 127.901 10.6501 127.583 10.3565C127.266 10.063 126.809 9.91619 126.213 9.91619C125.583 9.91619 125.083 10.0535 124.714 10.3281C124.35 10.6027 124.103 10.9271 123.975 11.3011L121.575 10.9602C121.764 10.2973 122.077 9.74337 122.512 9.2983C122.948 8.84848 123.481 8.51231 124.11 8.28977C124.74 8.0625 125.436 7.94886 126.199 7.94886C126.724 7.94886 127.247 8.01042 127.768 8.13352C128.289 8.25663 128.765 8.46023 129.196 8.74432C129.627 9.02367 129.972 9.40483 130.233 9.88778C130.498 10.3707 130.63 10.9744 130.63 11.6989V19H128.159V17.5014H128.074C127.917 17.8045 127.697 18.0885 127.413 18.3537C127.134 18.6141 126.781 18.8248 126.355 18.9858C125.933 19.142 125.439 19.2202 124.87 19.2202ZM125.538 17.331C126.054 17.331 126.502 17.2292 126.88 17.0256C127.259 16.8172 127.55 16.5426 127.754 16.2017C127.962 15.8608 128.066 15.4891 128.066 15.0866V13.8011C127.986 13.8674 127.849 13.929 127.654 13.9858C127.465 14.0426 127.252 14.0923 127.015 14.1349C126.779 14.1776 126.544 14.2154 126.312 14.2486C126.08 14.2817 125.879 14.3101 125.708 14.3338C125.325 14.3859 124.982 14.4711 124.679 14.5895C124.376 14.7079 124.136 14.8736 123.961 15.0866C123.786 15.295 123.699 15.5649 123.699 15.8963C123.699 16.3698 123.871 16.7273 124.217 16.9688C124.563 17.2102 125.003 17.331 125.538 17.331ZM133.216 19V8.09091H135.708V9.90909H135.822C136.021 9.27936 136.362 8.79403 136.845 8.45312C137.333 8.10748 137.889 7.93466 138.514 7.93466C138.656 7.93466 138.815 7.94176 138.99 7.95597C139.17 7.96544 139.319 7.98201 139.437 8.00568V10.3707C139.328 10.3329 139.155 10.2997 138.919 10.2713C138.687 10.2382 138.462 10.2216 138.244 10.2216C137.775 10.2216 137.354 10.3234 136.98 10.527C136.61 10.7259 136.319 11.0028 136.106 11.358C135.893 11.7131 135.787 12.1226 135.787 12.5866V19H133.216ZM147.179 8.09091V10.0795H140.907V8.09091H147.179ZM142.456 5.47727H145.027V15.7188C145.027 16.0644 145.079 16.3295 145.183 16.5142C145.292 16.6941 145.434 16.8172 145.609 16.8835C145.784 16.9498 145.978 16.983 146.191 16.983C146.352 16.983 146.499 16.9711 146.632 16.9474C146.769 16.9238 146.873 16.9025 146.944 16.8835L147.377 18.8935C147.24 18.9408 147.044 18.9929 146.788 19.0497C146.537 19.1065 146.229 19.1397 145.865 19.1491C145.221 19.1681 144.641 19.071 144.125 18.858C143.609 18.6402 143.199 18.304 142.896 17.8494C142.598 17.3949 142.451 16.8267 142.456 16.1449V5.47727ZM152.347 17.0114L152.255 17.7926C152.189 18.3892 152.07 18.9953 151.9 19.6108C151.734 20.2311 151.559 20.8016 151.374 21.3224C151.19 21.8433 151.04 22.2528 150.927 22.5511H149.194C149.26 22.2623 149.35 21.8693 149.464 21.3722C149.582 20.875 149.696 20.3163 149.805 19.696C149.914 19.0758 149.987 18.446 150.025 17.8068L150.075 17.0114H152.347ZM3.89205 30.4545V45H1.32102V30.4545H3.89205ZM11.3654 45.2131C10.2717 45.2131 9.32706 44.9858 8.53161 44.5312C7.74089 44.072 7.13246 43.4233 6.70632 42.5852C6.28018 41.7424 6.06712 40.7505 6.06712 39.6094C6.06712 38.4872 6.28018 37.5024 6.70632 36.6548C7.13719 35.8026 7.73852 35.1397 8.5103 34.6662C9.28208 34.188 10.1888 33.9489 11.2305 33.9489C11.9028 33.9489 12.5373 34.0578 13.1339 34.2756C13.7352 34.4886 14.2655 34.8201 14.7248 35.2699C15.1888 35.7197 15.5534 36.2926 15.8185 36.9886C16.0837 37.6799 16.2163 38.5038 16.2163 39.4602V40.2486H7.2745V38.5156H13.7518C13.747 38.0232 13.6405 37.5852 13.4322 37.2017C13.2238 36.8134 12.9326 36.508 12.5586 36.2855C12.1893 36.063 11.7584 35.9517 11.266 35.9517C10.7404 35.9517 10.2788 36.0795 9.88104 36.3352C9.48331 36.5862 9.17318 36.9176 8.95064 37.3295C8.73284 37.7367 8.62157 38.1842 8.61683 38.6719V40.1847C8.61683 40.8191 8.73284 41.3636 8.96484 41.8182C9.19685 42.268 9.52119 42.6136 9.93786 42.8551C10.3545 43.0919 10.8422 43.2102 11.4009 43.2102C11.775 43.2102 12.1135 43.1581 12.4165 43.054C12.7196 42.9451 12.9824 42.7865 13.2049 42.5781C13.4274 42.3698 13.5955 42.1117 13.7092 41.804L16.1097 42.0739C15.9582 42.7083 15.6694 43.2623 15.2433 43.7358C14.8219 44.2045 14.2821 44.5691 13.6239 44.8295C12.9658 45.0852 12.2129 45.2131 11.3654 45.2131ZM23.8388 34.0909V36.0795H17.5675V34.0909H23.8388ZM19.1158 31.4773H21.6868V41.7188C21.6868 42.0644 21.7389 42.3295 21.843 42.5142C21.9519 42.6941 22.094 42.8172 22.2692 42.8835C22.4444 42.9498 22.6385 42.983 22.8516 42.983C23.0125 42.983 23.1593 42.9711 23.2919 42.9474C23.4292 42.9238 23.5334 42.9025 23.6044 42.8835L24.0376 44.8935C23.9003 44.9408 23.7038 44.9929 23.4482 45.0497C23.1972 45.1065 22.8894 45.1397 22.5249 45.1491C21.8809 45.1681 21.3009 45.071 20.7848 44.858C20.2687 44.6402 19.8591 44.304 19.5561 43.8494C19.2578 43.3949 19.111 42.8267 19.1158 42.1449V31.4773ZM30.9499 45V34.0909H33.4073V35.9446H33.5352C33.7624 35.3196 34.1388 34.8319 34.6644 34.4815C35.19 34.1264 35.8174 33.9489 36.5465 33.9489C37.2852 33.9489 37.9078 34.1288 38.4144 34.4886C38.9258 34.8437 39.2856 35.3291 39.494 35.9446H39.6076C39.8491 35.3385 40.2563 34.8556 40.8292 34.4957C41.4068 34.1312 42.091 33.9489 42.8817 33.9489C43.8855 33.9489 44.7047 34.2661 45.3391 34.9006C45.9736 35.535 46.2908 36.4607 46.2908 37.6776V45H43.7127V38.0753C43.7127 37.3982 43.5328 36.9034 43.1729 36.5909C42.8131 36.2737 42.3728 36.1151 41.8519 36.1151C41.2317 36.1151 40.7463 36.3092 40.396 36.6974C40.0503 37.081 39.8775 37.5805 39.8775 38.196V45H37.3562V37.9688C37.3562 37.4053 37.1857 36.9555 36.8448 36.6193C36.5086 36.2831 36.0683 36.1151 35.5238 36.1151C35.1545 36.1151 34.8183 36.2098 34.5153 36.3991C34.2122 36.5838 33.9708 36.8466 33.7908 37.1875C33.6109 37.5237 33.521 37.9167 33.521 38.3665V45H30.9499ZM53.7287 45.2131C52.6349 45.2131 51.6903 44.9858 50.8949 44.5312C50.1042 44.072 49.4957 43.4233 49.0696 42.5852C48.6435 41.7424 48.4304 40.7505 48.4304 39.6094C48.4304 38.4872 48.6435 37.5024 49.0696 36.6548C49.5005 35.8026 50.1018 35.1397 50.8736 34.6662C51.6454 34.188 52.5521 33.9489 53.5938 33.9489C54.2661 33.9489 54.9006 34.0578 55.4972 34.2756C56.0985 34.4886 56.6288 34.8201 57.0881 35.2699C57.5521 35.7197 57.9167 36.2926 58.1818 36.9886C58.447 37.6799 58.5795 38.5038 58.5795 39.4602V40.2486H49.6378V38.5156H56.1151C56.1103 38.0232 56.0038 37.5852 55.7955 37.2017C55.5871 36.8134 55.2959 36.508 54.9219 36.2855C54.5526 36.063 54.1217 35.9517 53.6293 35.9517C53.1037 35.9517 52.642 36.0795 52.2443 36.3352C51.8466 36.5862 51.5365 36.9176 51.3139 37.3295C51.0961 37.7367 50.9848 38.1842 50.9801 38.6719V40.1847C50.9801 40.8191 51.0961 41.3636 51.3281 41.8182C51.5601 42.268 51.8845 42.6136 52.3011 42.8551C52.7178 43.0919 53.2055 43.2102 53.7642 43.2102C54.1383 43.2102 54.4768 43.1581 54.7798 43.054C55.0829 42.9451 55.3456 42.7865 55.5682 42.5781C55.7907 42.3698 55.9588 42.1117 56.0724 41.804L58.473 42.0739C58.3215 42.7083 58.0327 43.2623 57.6065 43.7358C57.1851 44.2045 56.6454 44.5691 55.9872 44.8295C55.3291 45.0852 54.5762 45.2131 53.7287 45.2131ZM68.0593 41.5767L68.0522 38.473H68.4641L72.3846 34.0909H75.3888L70.5664 39.4602H70.0337L68.0593 41.5767ZM65.7156 45V30.4545H68.2866V45H65.7156ZM72.5621 45L69.011 40.0355L70.744 38.2244L75.6374 45H72.5621ZM79.6733 38.608V45H77.1023V34.0909H79.5597V35.9446H79.6875C79.9384 35.3338 80.3385 34.8485 80.8878 34.4886C81.4418 34.1288 82.1259 33.9489 82.9403 33.9489C83.6932 33.9489 84.349 34.1098 84.9077 34.4318C85.4711 34.7538 85.9067 35.2202 86.2145 35.831C86.527 36.4418 86.6809 37.1828 86.6761 38.054V45H84.1051V38.4517C84.1051 37.7225 83.9157 37.152 83.5369 36.7401C83.1629 36.3281 82.6444 36.1222 81.9815 36.1222C81.5317 36.1222 81.1316 36.2216 80.7812 36.4205C80.4356 36.6146 80.1634 36.8963 79.9645 37.2656C79.7704 37.6349 79.6733 38.0824 79.6733 38.608ZM94.0483 45.2131C92.983 45.2131 92.0597 44.9787 91.2784 44.5099C90.4972 44.0412 89.8911 43.3854 89.4602 42.5426C89.0341 41.6998 88.821 40.715 88.821 39.5881C88.821 38.4612 89.0341 37.474 89.4602 36.6264C89.8911 35.7789 90.4972 35.1207 91.2784 34.652C92.0597 34.1832 92.983 33.9489 94.0483 33.9489C95.1136 33.9489 96.0369 34.1832 96.8182 34.652C97.5994 35.1207 98.2031 35.7789 98.6293 36.6264C99.0601 37.474 99.2756 38.4612 99.2756 39.5881C99.2756 40.715 99.0601 41.6998 98.6293 42.5426C98.2031 43.3854 97.5994 44.0412 96.8182 44.5099C96.0369 44.9787 95.1136 45.2131 94.0483 45.2131ZM94.0625 43.1534C94.6402 43.1534 95.1231 42.9948 95.5114 42.6776C95.8996 42.3556 96.1884 41.9247 96.3778 41.3849C96.572 40.8452 96.669 40.2438 96.669 39.581C96.669 38.9134 96.572 38.3097 96.3778 37.7699C96.1884 37.2254 95.8996 36.7921 95.5114 36.4702C95.1231 36.1482 94.6402 35.9872 94.0625 35.9872C93.4706 35.9872 92.9782 36.1482 92.5852 36.4702C92.197 36.7921 91.9058 37.2254 91.7116 37.7699C91.5223 38.3097 91.4276 38.9134 91.4276 39.581C91.4276 40.2438 91.5223 40.8452 91.7116 41.3849C91.9058 41.9247 92.197 42.3556 92.5852 42.6776C92.9782 42.9948 93.4706 43.1534 94.0625 43.1534ZM103.397 45L100.314 34.0909H102.935L104.853 41.7614H104.952L106.912 34.0909H109.505L111.465 41.7188H111.571L113.461 34.0909H116.088L112.999 45H110.321L108.276 37.6278H108.127L106.081 45H103.397ZM124.442 49.0909C124.092 49.0909 123.768 49.0625 123.469 49.0057C123.176 48.9536 122.942 48.892 122.766 48.821L123.363 46.8182C123.737 46.9271 124.071 46.9792 124.364 46.9744C124.658 46.9697 124.916 46.8774 125.138 46.6974C125.366 46.5223 125.558 46.2287 125.714 45.8168L125.934 45.2273L121.978 34.0909H124.705L127.219 42.3295H127.333L129.854 34.0909H132.589L128.221 46.321C128.017 46.8987 127.747 47.3935 127.411 47.8054C127.075 48.2221 126.663 48.5393 126.175 48.7571C125.692 48.9796 125.115 49.0909 124.442 49.0909ZM138.755 45.2131C137.69 45.2131 136.767 44.9787 135.985 44.5099C135.204 44.0412 134.598 43.3854 134.167 42.5426C133.741 41.6998 133.528 40.715 133.528 39.5881C133.528 38.4612 133.741 37.474 134.167 36.6264C134.598 35.7789 135.204 35.1207 135.985 34.652C136.767 34.1832 137.69 33.9489 138.755 33.9489C139.821 33.9489 140.744 34.1832 141.525 34.652C142.306 35.1207 142.91 35.7789 143.336 36.6264C143.767 37.474 143.983 38.4612 143.983 39.5881C143.983 40.715 143.767 41.6998 143.336 42.5426C142.91 43.3854 142.306 44.0412 141.525 44.5099C140.744 44.9787 139.821 45.2131 138.755 45.2131ZM138.77 43.1534C139.347 43.1534 139.83 42.9948 140.218 42.6776C140.607 42.3556 140.895 41.9247 141.085 41.3849C141.279 40.8452 141.376 40.2438 141.376 39.581C141.376 38.9134 141.279 38.3097 141.085 37.7699C140.895 37.2254 140.607 36.7921 140.218 36.4702C139.83 36.1482 139.347 35.9872 138.77 35.9872C138.178 35.9872 137.685 36.1482 137.292 36.4702C136.904 36.7921 136.613 37.2254 136.419 37.7699C136.229 38.3097 136.135 38.9134 136.135 39.581C136.135 40.2438 136.229 40.8452 136.419 41.3849C136.613 41.9247 136.904 42.3556 137.292 42.6776C137.685 42.9948 138.178 43.1534 138.77 43.1534ZM153.118 40.4119V34.0909H155.689V45H153.196V43.0611H153.082C152.836 43.6719 152.431 44.1714 151.868 44.5597C151.309 44.9479 150.62 45.142 149.801 45.142C149.086 45.142 148.454 44.9834 147.905 44.6662C147.36 44.3442 146.934 43.8778 146.626 43.267C146.319 42.6515 146.165 41.9081 146.165 41.0369V34.0909H148.736V40.6392C148.736 41.3305 148.925 41.8797 149.304 42.2869C149.683 42.6941 150.18 42.8977 150.795 42.8977C151.174 42.8977 151.541 42.8054 151.896 42.6207C152.251 42.4361 152.543 42.1615 152.77 41.7969C153.002 41.4276 153.118 40.9659 153.118 40.4119ZM158.333 45V34.0909H160.826V35.9091H160.939C161.138 35.2794 161.479 34.794 161.962 34.4531C162.45 34.1075 163.006 33.9347 163.631 33.9347C163.773 33.9347 163.932 33.9418 164.107 33.956C164.287 33.9654 164.436 33.982 164.554 34.0057V36.3707C164.445 36.3329 164.273 36.2997 164.036 36.2713C163.804 36.2382 163.579 36.2216 163.361 36.2216C162.892 36.2216 162.471 36.3234 162.097 36.527C161.728 36.7259 161.436 37.0028 161.223 37.358C161.01 37.7131 160.904 38.1226 160.904 38.5866V45H158.333ZM173.794 38.608V45H171.223V34.0909H173.681V35.9446H173.809C174.06 35.3338 174.46 34.8485 175.009 34.4886C175.563 34.1288 176.247 33.9489 177.061 33.9489C177.814 33.9489 178.47 34.1098 179.029 34.4318C179.592 34.7538 180.028 35.2202 180.336 35.831C180.648 36.4418 180.802 37.1828 180.797 38.054V45H178.226V38.4517C178.226 37.7225 178.037 37.152 177.658 36.7401C177.284 36.3281 176.766 36.1222 176.103 36.1222C175.653 36.1222 175.253 36.2216 174.902 36.4205C174.557 36.6146 174.284 36.8963 174.086 37.2656C173.891 37.6349 173.794 38.0824 173.794 38.608ZM186.55 45.2202C185.859 45.2202 185.236 45.0971 184.682 44.8509C184.133 44.5999 183.697 44.2306 183.375 43.7429C183.058 43.2552 182.9 42.6539 182.9 41.9389C182.9 41.3234 183.013 40.8144 183.24 40.4119C183.468 40.0095 183.778 39.6875 184.171 39.446C184.564 39.2045 185.007 39.0223 185.499 38.8991C185.996 38.7713 186.51 38.679 187.04 38.6222C187.679 38.5559 188.198 38.4967 188.596 38.4446C188.993 38.3878 189.282 38.3026 189.462 38.1889C189.647 38.0705 189.739 37.8883 189.739 37.642V37.5994C189.739 37.0644 189.58 36.6501 189.263 36.3565C188.946 36.063 188.489 35.9162 187.892 35.9162C187.263 35.9162 186.763 36.0535 186.394 36.3281C186.029 36.6027 185.783 36.9271 185.655 37.3011L183.255 36.9602C183.444 36.2973 183.757 35.7434 184.192 35.2983C184.628 34.8485 185.16 34.5123 185.79 34.2898C186.42 34.0625 187.116 33.9489 187.878 33.9489C188.404 33.9489 188.927 34.0104 189.448 34.1335C189.969 34.2566 190.444 34.4602 190.875 34.7443C191.306 35.0237 191.652 35.4048 191.912 35.8878C192.177 36.3707 192.31 36.9744 192.31 37.6989V45H189.838V43.5014H189.753C189.597 43.8045 189.377 44.0885 189.093 44.3537C188.813 44.6141 188.461 44.8248 188.034 44.9858C187.613 45.142 187.118 45.2202 186.55 45.2202ZM187.218 43.331C187.734 43.331 188.181 43.2292 188.56 43.0256C188.939 42.8172 189.23 42.5426 189.434 42.2017C189.642 41.8608 189.746 41.4891 189.746 41.0866V39.8011C189.666 39.8674 189.528 39.929 189.334 39.9858C189.145 40.0426 188.932 40.0923 188.695 40.1349C188.458 40.1776 188.224 40.2154 187.992 40.2486C187.76 40.2817 187.559 40.3101 187.388 40.3338C187.005 40.3859 186.661 40.4711 186.358 40.5895C186.055 40.7079 185.816 40.8736 185.641 41.0866C185.466 41.295 185.378 41.5649 185.378 41.8963C185.378 42.3698 185.551 42.7273 185.897 42.9688C186.242 43.2102 186.683 43.331 187.218 43.331ZM194.895 45V34.0909H197.353V35.9446H197.48C197.708 35.3196 198.084 34.8319 198.61 34.4815C199.135 34.1264 199.763 33.9489 200.492 33.9489C201.23 33.9489 201.853 34.1288 202.36 34.4886C202.871 34.8437 203.231 35.3291 203.439 35.9446H203.553C203.794 35.3385 204.202 34.8556 204.775 34.4957C205.352 34.1312 206.036 33.9489 206.827 33.9489C207.831 33.9489 208.65 34.2661 209.284 34.9006C209.919 35.535 210.236 36.4607 210.236 37.6776V45H207.658V38.0753C207.658 37.3982 207.478 36.9034 207.118 36.5909C206.758 36.2737 206.318 36.1151 205.797 36.1151C205.177 36.1151 204.692 36.3092 204.341 36.6974C203.996 37.081 203.823 37.5805 203.823 38.196V45H201.301V37.9688C201.301 37.4053 201.131 36.9555 200.79 36.6193C200.454 36.2831 200.014 36.1151 199.469 36.1151C199.1 36.1151 198.764 36.2098 198.461 36.3991C198.158 36.5838 197.916 36.8466 197.736 37.1875C197.556 37.5237 197.466 37.9167 197.466 38.3665V45H194.895ZM217.674 45.2131C216.58 45.2131 215.636 44.9858 214.84 44.5312C214.049 44.072 213.441 43.4233 213.015 42.5852C212.589 41.7424 212.376 40.7505 212.376 39.6094C212.376 38.4872 212.589 37.5024 213.015 36.6548C213.446 35.8026 214.047 35.1397 214.819 34.6662C215.591 34.188 216.497 33.9489 217.539 33.9489C218.211 33.9489 218.846 34.0578 219.442 34.2756C220.044 34.4886 220.574 34.8201 221.033 35.2699C221.497 35.7197 221.862 36.2926 222.127 36.9886C222.392 37.6799 222.525 38.5038 222.525 39.4602V40.2486H213.583V38.5156H220.06C220.056 38.0232 219.949 37.5852 219.741 37.2017C219.532 36.8134 219.241 36.508 218.867 36.2855C218.498 36.063 218.067 35.9517 217.575 35.9517C217.049 35.9517 216.587 36.0795 216.19 36.3352C215.792 36.5862 215.482 36.9176 215.259 37.3295C215.041 37.7367 214.93 38.1842 214.925 38.6719V40.1847C214.925 40.8191 215.041 41.3636 215.273 41.8182C215.505 42.268 215.83 42.6136 216.246 42.8551C216.663 43.0919 217.151 43.2102 217.71 43.2102C218.084 43.2102 218.422 43.1581 218.725 43.054C219.028 42.9451 219.291 42.7865 219.513 42.5781C219.736 42.3698 219.904 42.1117 220.018 41.804L222.418 42.0739C222.267 42.7083 221.978 43.2623 221.552 43.7358C221.13 44.2045 220.591 44.5691 219.933 44.8295C219.274 45.0852 218.522 45.2131 217.674 45.2131Z" fill="#FEFEFE"/>
<path d="M240.619 31.8435C241.033 31.1119 242.134 31.1391 242.507 31.8926C244.642 36.2103 246.134 37.7315 250.225 39.698C250.997 40.0688 251.028 41.202 250.281 41.6206C248.821 42.4395 246.867 43.6564 245.647 44.8998C244.487 46.0828 243.346 47.9496 242.573 49.3469C242.166 50.0841 241.041 50.0881 240.631 49.3524C239.827 47.9101 238.629 45.9629 237.44 44.7735C236.254 43.5879 234.316 42.3943 232.875 41.5903C232.137 41.1785 232.144 40.0467 232.885 39.6399C234.284 38.8715 236.145 37.7349 237.314 36.566C238.521 35.3586 239.78 33.3276 240.619 31.8435Z" fill="#FFF48E"/>
<path d="M252.923 25.1493C252.556 24.9433 252.569 24.3935 252.946 24.2081C255.321 23.0412 256.13 22.2467 257.204 19.9948C257.388 19.6086 257.954 19.5928 258.162 19.9668C258.599 20.7514 259.265 21.8337 259.947 22.5019C260.595 23.1379 261.629 23.7634 262.38 24.1752C262.749 24.3777 262.751 24.9395 262.382 25.1434C261.608 25.5721 260.53 26.2279 259.879 26.8792C259.23 27.5285 258.576 28.6013 258.147 29.3753C257.943 29.745 257.378 29.7421 257.175 29.371C256.766 28.6185 256.143 27.5875 255.502 26.9465C254.841 26.2861 253.719 25.5968 252.923 25.1493Z" fill="#FEFEFE"/>
</svg>
