<svg width="80" height="35" viewBox="0 0 80 35" fill="none" xmlns="http://www.w3.org/2000/svg">
<g filter="url(#filter0_d_1170_1057)">
<g filter="url(#filter1_b_1170_1057)">
<g filter="url(#filter2_b_1170_1057)">
<rect x="4" y="4" width="72" height="27" rx="13.5" fill="white" fill-opacity="0.46"/>
</g>
<path d="M31.6894 13.0215H30.5077V15.1113H29.7362V13.1777H28.5741V18.1875H29.7362V16.1074H30.5077V18.2559H31.6894V13.0215ZM24.4042 14.5059H26.5917V15.2578H24.414V17.9531H25.0292C26.3476 17.9531 27.2216 17.9385 28.2616 17.7578L28.1542 16.7812C27.3144 16.9375 26.5868 16.9814 25.6151 16.9863V16.1855H27.7929V13.5391H24.4042V14.5059ZM25.6249 21.8008H31.6894V18.6172H25.6249V21.8008ZM26.8651 20.8047V19.6035H30.4589V20.8047H26.8651ZM41.28 19.8281H33.1452V20.8633H41.28V19.8281ZM33.78 14.7891H35.0105V17.4844H33.8191V18.4609H40.5573V17.4844H39.3464V14.7891H40.5964V13.793H33.78V14.7891ZM36.2605 17.4844V14.7891H38.1159V17.4844H36.2605ZM53.098 18.334H44.9925V19.3496H48.4202V21.9082H49.6507V19.3496H53.098V18.334ZM45.4026 16.8789L45.8519 17.8555C47.3704 17.6846 48.4642 17.0742 49.0452 16.2588C49.6214 17.0645 50.7103 17.6846 52.2191 17.8555L52.6683 16.8789C50.8275 16.6738 49.8265 15.7949 49.6898 15.0137H52.3558V14.0371H49.6507V13.0215H48.4202V14.0371H45.7249V15.0137H48.4007C48.2493 15.8047 47.2484 16.6738 45.4026 16.8789ZM57.3566 15.1016V15.0332H59.1534V14.0566H57.3761V13.0703H56.1163V14.0566H54.3292V15.0332H56.1163V15.1016C56.1163 16.1855 55.4718 17.2646 54.0265 17.6992L54.6319 18.6758C55.6622 18.3535 56.3653 17.6943 56.7608 16.8594C57.1612 17.6309 57.8644 18.2412 58.8605 18.5293L59.4562 17.5625C58.0108 17.123 57.3614 16.1025 57.3566 15.1016ZM55.6769 21.7422H61.7901V20.7461H56.9269V19.0469H55.6769V21.7422ZM58.8605 16.6152H60.3351V19.6133H61.5753V13.0215H60.3351V15.6094H58.8605V16.6152Z" fill="#FEFEFE"/>
</g>
<circle cx="15.5143" cy="17.6572" r="2.65715" fill="#FFF48E"/>
</g>
<defs>
<filter id="filter0_d_1170_1057" x="0" y="0" width="80" height="35" filterUnits="userSpaceOnUse" color-interpolation-filters="sRGB">
<feFlood flood-opacity="0" result="BackgroundImageFix"/>
<feColorMatrix in="SourceAlpha" type="matrix" values="0 0 0 0 0 0 0 0 0 0 0 0 0 0 0 0 0 0 127 0" result="hardAlpha"/>
<feOffset/>
<feGaussianBlur stdDeviation="2"/>
<feComposite in2="hardAlpha" operator="out"/>
<feColorMatrix type="matrix" values="0 0 0 0 0 0 0 0 0 0 0 0 0 0 0 0 0 0 0.25 0"/>
<feBlend mode="normal" in2="BackgroundImageFix" result="effect1_dropShadow_1170_1057"/>
<feBlend mode="normal" in="SourceGraphic" in2="effect1_dropShadow_1170_1057" result="shape"/>
</filter>
<filter id="filter1_b_1170_1057" x="0" y="0" width="80" height="35" filterUnits="userSpaceOnUse" color-interpolation-filters="sRGB">
<feFlood flood-opacity="0" result="BackgroundImageFix"/>
<feGaussianBlur in="BackgroundImage" stdDeviation="2"/>
<feComposite in2="SourceAlpha" operator="in" result="effect1_backgroundBlur_1170_1057"/>
<feBlend mode="normal" in="SourceGraphic" in2="effect1_backgroundBlur_1170_1057" result="shape"/>
</filter>
<filter id="filter2_b_1170_1057" x="0" y="0" width="80" height="35" filterUnits="userSpaceOnUse" color-interpolation-filters="sRGB">
<feFlood flood-opacity="0" result="BackgroundImageFix"/>
<feGaussianBlur in="BackgroundImage" stdDeviation="2"/>
<feComposite in2="SourceAlpha" operator="in" result="effect1_backgroundBlur_1170_1057"/>
<feBlend mode="normal" in="SourceGraphic" in2="effect1_backgroundBlur_1170_1057" result="shape"/>
</filter>
</defs>
</svg>
