<svg width="80" height="35" viewBox="0 0 80 35" fill="none" xmlns="http://www.w3.org/2000/svg">
<g filter="url(#filter0_d_1060_199)">
<g filter="url(#filter1_b_1060_199)">
<g filter="url(#filter2_b_1060_199)">
<rect x="4" y="4" width="72" height="27" rx="13.5" fill="white" fill-opacity="0.46"/>
</g>
<path d="M31.1581 18.334H23.0526V19.3496H26.4804V21.9082H27.7109V19.3496H31.1581V18.334ZM23.4628 16.8789L23.912 17.8555C25.4306 17.6846 26.5243 17.0742 27.1054 16.2588C27.6816 17.0645 28.7704 17.6846 30.2792 17.8555L30.7284 16.8789C28.8876 16.6738 27.8866 15.7949 27.7499 15.0137H30.4159V14.0371H27.7109V13.0215H26.4804V14.0371H23.7851V15.0137H26.4609C26.3095 15.8047 25.3085 16.6738 23.4628 16.8789ZM35.4167 15.1016V15.0332H37.2136V14.0566H35.4362V13.0703H34.1765V14.0566H32.3894V15.0332H34.1765V15.1016C34.1765 16.1855 33.5319 17.2646 32.0866 17.6992L32.6921 18.6758C33.7224 18.3535 34.4255 17.6943 34.821 16.8594C35.2214 17.6309 35.9245 18.2412 36.9206 18.5293L37.5163 17.5625C36.071 17.123 35.4216 16.1025 35.4167 15.1016ZM33.737 21.7422H39.8503V20.7461H34.987V19.0469H33.737V21.7422ZM36.9206 16.6152H38.3952V19.6133H39.6355V13.0215H38.3952V15.6094H36.9206V16.6152ZM46.4437 13.6367C45.096 13.6367 44.1292 14.8623 44.139 16.8008C44.1292 18.7539 45.096 19.9746 46.4437 19.9746C47.303 19.9746 48.011 19.4668 48.4066 18.5879H50.262V21.918H51.4925V13.0117H50.262V14.8379H48.3138C47.9085 14.0713 47.2444 13.6367 46.4437 13.6367ZM45.3304 16.8008C45.3255 15.4824 45.7796 14.7598 46.4437 14.7598C47.1126 14.7598 47.5569 15.4824 47.5569 16.8008C47.5569 18.124 47.1126 18.8467 46.4437 18.8418C45.7796 18.8467 45.3255 18.124 45.3304 16.8008ZM48.6605 15.8438H50.262V17.5918H48.6898C48.7288 17.3428 48.7484 17.0791 48.7484 16.8008C48.7484 16.459 48.7191 16.1367 48.6605 15.8438ZM60.7218 13.0117H59.5401V15.209H58.8273V13.1777H57.6651V18.2949H58.8273V16.2246H59.5401V18.5879H60.7218V13.0117ZM53.0362 14.8965H57.4015V13.9297H55.8487V13.0898H54.6085V13.9297H53.0362V14.8965ZM53.3097 16.7422C53.3048 17.665 54.1202 18.2803 55.2335 18.2852C56.3614 18.2803 57.172 17.665 57.1769 16.7422C57.172 15.8096 56.3614 15.1895 55.2335 15.1895C54.1202 15.1895 53.3048 15.8096 53.3097 16.7422ZM54.423 16.7422C54.4181 16.3271 54.7501 16.083 55.2335 16.0879C55.7169 16.083 56.0489 16.3271 56.0538 16.7422C56.0489 17.1523 55.7169 17.4014 55.2335 17.3965C54.7452 17.4014 54.4181 17.1523 54.423 16.7422ZM54.6085 20.2871C54.6036 21.3125 55.7706 21.9033 57.6847 21.8984C59.6036 21.9033 60.7608 21.3125 60.7706 20.2871C60.7608 19.2568 59.6036 18.6709 57.6847 18.666C55.7706 18.6709 54.6036 19.2568 54.6085 20.2871ZM55.8585 20.2871C55.8487 19.8184 56.4786 19.5986 57.6847 19.6035C58.8956 19.5986 59.5108 19.8184 59.5108 20.2871C59.5108 20.7363 58.8956 20.9609 57.6847 20.9609C56.4786 20.9609 55.8487 20.7363 55.8585 20.2871Z" fill="#FEFEFE"/>
</g>
<circle cx="15.5143" cy="17.6572" r="2.65715" fill="#FFF48E"/>
</g>
<defs>
<filter id="filter0_d_1060_199" x="0" y="0" width="80" height="35" filterUnits="userSpaceOnUse" color-interpolation-filters="sRGB">
<feFlood flood-opacity="0" result="BackgroundImageFix"/>
<feColorMatrix in="SourceAlpha" type="matrix" values="0 0 0 0 0 0 0 0 0 0 0 0 0 0 0 0 0 0 127 0" result="hardAlpha"/>
<feOffset/>
<feGaussianBlur stdDeviation="2"/>
<feComposite in2="hardAlpha" operator="out"/>
<feColorMatrix type="matrix" values="0 0 0 0 0 0 0 0 0 0 0 0 0 0 0 0 0 0 0.25 0"/>
<feBlend mode="normal" in2="BackgroundImageFix" result="effect1_dropShadow_1060_199"/>
<feBlend mode="normal" in="SourceGraphic" in2="effect1_dropShadow_1060_199" result="shape"/>
</filter>
<filter id="filter1_b_1060_199" x="0" y="0" width="80" height="35" filterUnits="userSpaceOnUse" color-interpolation-filters="sRGB">
<feFlood flood-opacity="0" result="BackgroundImageFix"/>
<feGaussianBlur in="BackgroundImage" stdDeviation="2"/>
<feComposite in2="SourceAlpha" operator="in" result="effect1_backgroundBlur_1060_199"/>
<feBlend mode="normal" in="SourceGraphic" in2="effect1_backgroundBlur_1060_199" result="shape"/>
</filter>
<filter id="filter2_b_1060_199" x="0" y="0" width="80" height="35" filterUnits="userSpaceOnUse" color-interpolation-filters="sRGB">
<feFlood flood-opacity="0" result="BackgroundImageFix"/>
<feGaussianBlur in="BackgroundImage" stdDeviation="2"/>
<feComposite in2="SourceAlpha" operator="in" result="effect1_backgroundBlur_1060_199"/>
<feBlend mode="normal" in="SourceGraphic" in2="effect1_backgroundBlur_1060_199" result="shape"/>
</filter>
</defs>
</svg>
