<svg width="370" height="60" viewBox="0 0 370 60" fill="none" xmlns="http://www.w3.org/2000/svg">
<rect width="370" height="60" rx="5" fill="#7070FF"/>
<path d="M155.546 27.395V29.231H164.369V27.395H155.546ZM152.384 30.455V32.376H167.616V30.455H152.384ZM156.498 31.985C156.243 34.314 155.784 35.895 151.891 36.762C152.35 37.187 152.877 38.037 153.081 38.581C157.569 37.391 158.385 35.147 158.708 31.985H156.498ZM160.884 31.662V35.844C160.884 37.68 161.36 38.275 163.349 38.275C163.74 38.275 165.134 38.275 165.525 38.275C167.14 38.275 167.684 37.629 167.888 35.147C167.361 35.011 166.477 34.688 166.069 34.365C166.001 36.15 165.899 36.439 165.338 36.439C165.015 36.439 163.91 36.439 163.638 36.439C163.043 36.439 162.941 36.354 162.941 35.81V31.662H160.884ZM158.861 22.584V25.661H161.037V22.584H158.861ZM152.69 24.216V28.262H154.764V26.137H165.1V28.262H167.293V24.216H152.69ZM176.014 28.381V36.116C176.014 36.405 175.878 36.507 175.504 36.507C175.113 36.507 173.719 36.507 172.512 36.456C172.835 37.017 173.226 37.935 173.345 38.53C174.977 38.53 176.201 38.496 177.034 38.19C177.884 37.884 178.173 37.323 178.173 36.167V28.381H176.014ZM170.2 23.757V25.763H182.083V23.757H170.2ZM181.318 23.757V24.25C180.468 25.542 178.462 27.582 176.694 28.704C177.102 29.027 177.765 29.707 178.088 30.149C180.179 28.84 182.423 26.681 183.953 24.811L182.355 23.621L181.862 23.757H181.318ZM196.601 23.298H194.136C194.17 23.519 194.238 24.097 194.289 24.777C194.357 25.678 194.357 28.942 194.357 29.996L196.482 30.71C196.465 29.35 196.431 25.882 196.482 24.76C196.499 24.488 196.55 23.587 196.601 23.298ZM186.979 25.423L187.03 27.463C189.597 27.327 192.98 27.191 196.074 27.191C198.573 27.191 200.307 27.242 201.361 27.293L201.395 25.287C200.443 25.27 197.859 25.287 196.125 25.287C194 25.287 189.512 25.423 186.979 25.423ZM196.193 30.455L194.595 30.013C195.139 32.036 194.442 32.716 193.643 32.716C192.946 32.716 192.317 32.223 192.317 31.458C192.317 30.557 192.98 30.098 193.643 30.098C194.391 30.098 194.986 30.625 194.986 31.73C194.986 34.705 192.725 35.844 189.835 36.473L191.637 38.275C195.785 37.102 197.094 34.297 197.094 32.07C197.094 29.962 195.921 28.313 193.677 28.313C191.841 28.313 190.277 29.571 190.277 31.492C190.277 33.566 191.909 34.603 193.218 34.603C195.173 34.603 196.193 33.226 196.193 30.455ZM206.24 24.063L206.308 26.273C206.699 26.205 207.226 26.171 207.685 26.137C208.603 26.069 210.949 25.984 211.816 25.95C210.983 26.698 209.198 28.126 208.246 28.908C207.26 29.741 205.203 31.475 203.996 32.427L205.543 34.025C207.362 31.968 209.045 30.574 211.663 30.574C213.652 30.574 215.182 31.611 215.182 33.158C215.182 34.977 213.72 36.065 210.847 36.065C209.81 36.065 209.113 35.64 209.113 35.011C209.113 34.569 209.538 34.178 210.167 34.178C211.17 34.178 211.816 35.028 211.85 36.252L213.839 35.997C213.788 34.127 212.496 32.563 210.167 32.563C208.365 32.563 207.107 33.821 207.107 35.198C207.107 36.915 208.892 37.986 211.255 37.986C215.369 37.986 217.409 35.861 217.409 33.175C217.409 30.71 215.216 28.908 212.326 28.908C211.799 28.908 211.289 28.942 210.711 29.095C211.799 28.245 213.584 26.749 214.502 26.103C214.876 25.814 215.284 25.576 215.675 25.321L214.587 23.791C214.383 23.859 213.992 23.927 213.278 23.978C212.309 24.063 208.688 24.148 207.77 24.148C207.294 24.148 206.716 24.114 206.24 24.063Z" fill="#FEFEFE"/>
</svg>
