<svg width="40" height="40" viewBox="0 0 40 40" fill="none" xmlns="http://www.w3.org/2000/svg">
<path d="M20.49 8.23008C21.8589 10.8847 23.126 12.8432 24.7175 14.4635C26.3127 16.0876 28.1861 17.3236 30.7015 18.6008C31.5182 19.0156 31.5613 20.2914 30.7623 20.7615C28.7779 21.9291 26.3847 23.5049 24.7686 25.1528C23.2335 26.7182 21.759 29.002 20.6608 30.8986C20.1997 31.6949 18.8939 31.695 18.4336 30.9051C17.2873 28.9379 15.737 26.5456 14.1521 24.9607C12.5744 23.383 10.1971 21.8399 8.23577 20.6955C7.44427 20.2337 7.44421 18.9147 8.24818 18.4508C10.143 17.3575 12.4178 15.8863 13.9669 14.3372C15.5831 12.721 17.212 10.2157 18.4112 8.17952C18.8685 7.40298 20.0836 7.4418 20.49 8.23008Z" stroke="#26265C" stroke-width="2"/>
</svg>
