<svg width="80" height="35" viewBox="0 0 80 35" fill="none" xmlns="http://www.w3.org/2000/svg">
<g filter="url(#filter0_d_1170_1052)">
<g filter="url(#filter1_b_1170_1052)">
<g filter="url(#filter2_b_1170_1052)">
<rect x="4" y="4" width="72" height="27" rx="13.5" fill="white" fill-opacity="0.46"/>
</g>
<path d="M25.5038 13.6367C24.1562 13.6367 23.1894 14.8623 23.1991 16.8008C23.1894 18.7539 24.1562 19.9746 25.5038 19.9746C26.3632 19.9746 27.0712 19.4668 27.4667 18.5879H29.3222V21.918H30.5526V13.0117H29.3222V14.8379H27.3739C26.9687 14.0713 26.3046 13.6367 25.5038 13.6367ZM24.3905 16.8008C24.3857 15.4824 24.8398 14.7598 25.5038 14.7598C26.1728 14.7598 26.6171 15.4824 26.6171 16.8008C26.6171 18.124 26.1728 18.8467 25.5038 18.8418C24.8398 18.8467 24.3857 18.124 24.3905 16.8008ZM27.7206 15.8438H29.3222V17.5918H27.7499C27.789 17.3428 27.8085 17.0791 27.8085 16.8008C27.8085 16.459 27.7792 16.1367 27.7206 15.8438ZM39.7819 13.0117H38.6003V15.209H37.8874V13.1777H36.7253V18.2949H37.8874V16.2246H38.6003V18.5879H39.7819V13.0117ZM32.0964 14.8965H36.4616V13.9297H34.9089V13.0898H33.6687V13.9297H32.0964V14.8965ZM32.3698 16.7422C32.365 17.665 33.1804 18.2803 34.2937 18.2852C35.4216 18.2803 36.2321 17.665 36.237 16.7422C36.2321 15.8096 35.4216 15.1895 34.2937 15.1895C33.1804 15.1895 32.365 15.8096 32.3698 16.7422ZM33.4831 16.7422C33.4782 16.3271 33.8103 16.083 34.2937 16.0879C34.7771 16.083 35.1091 16.3271 35.114 16.7422C35.1091 17.1523 34.7771 17.4014 34.2937 17.3965C33.8054 17.4014 33.4782 17.1523 33.4831 16.7422ZM33.6687 20.2871C33.6638 21.3125 34.8308 21.9033 36.7448 21.8984C38.6638 21.9033 39.821 21.3125 39.8308 20.2871C39.821 19.2568 38.6638 18.6709 36.7448 18.666C34.8308 18.6709 33.6638 19.2568 33.6687 20.2871ZM34.9187 20.2871C34.9089 19.8184 35.5388 19.5986 36.7448 19.6035C37.9558 19.5986 38.571 19.8184 38.571 20.2871C38.571 20.7363 37.9558 20.9609 36.7448 20.9609C35.5388 20.9609 34.9089 20.7363 34.9187 20.2871ZM51.4632 13.0117H50.2034V21.8984H51.4632V13.0117ZM44.0218 19.3789L44.6761 20.375C47.8499 18.876 48.7923 16.6348 48.7972 13.9395H44.5003V14.916H47.5276C47.3275 16.8887 46.3167 18.2949 44.0218 19.3789ZM61.2101 17.7773H57.7628V17.1328H60.3898V16.1758H55.3312V15.5898H60.2237V13.1777H54.0714V14.1445H58.9737V14.6914H54.0909V17.1328H56.5226V17.7773H53.0753V18.7734H61.2101V17.7773ZM53.9835 20.2578H59.0128V21.8594H60.2726V19.2812H53.9835V20.2578Z" fill="#FEFEFE"/>
</g>
<circle cx="15.5143" cy="17.6572" r="2.65715" fill="#51CBFF"/>
</g>
<defs>
<filter id="filter0_d_1170_1052" x="0" y="0" width="80" height="35" filterUnits="userSpaceOnUse" color-interpolation-filters="sRGB">
<feFlood flood-opacity="0" result="BackgroundImageFix"/>
<feColorMatrix in="SourceAlpha" type="matrix" values="0 0 0 0 0 0 0 0 0 0 0 0 0 0 0 0 0 0 127 0" result="hardAlpha"/>
<feOffset/>
<feGaussianBlur stdDeviation="2"/>
<feComposite in2="hardAlpha" operator="out"/>
<feColorMatrix type="matrix" values="0 0 0 0 0 0 0 0 0 0 0 0 0 0 0 0 0 0 0.25 0"/>
<feBlend mode="normal" in2="BackgroundImageFix" result="effect1_dropShadow_1170_1052"/>
<feBlend mode="normal" in="SourceGraphic" in2="effect1_dropShadow_1170_1052" result="shape"/>
</filter>
<filter id="filter1_b_1170_1052" x="0" y="0" width="80" height="35" filterUnits="userSpaceOnUse" color-interpolation-filters="sRGB">
<feFlood flood-opacity="0" result="BackgroundImageFix"/>
<feGaussianBlur in="BackgroundImage" stdDeviation="2"/>
<feComposite in2="SourceAlpha" operator="in" result="effect1_backgroundBlur_1170_1052"/>
<feBlend mode="normal" in="SourceGraphic" in2="effect1_backgroundBlur_1170_1052" result="shape"/>
</filter>
<filter id="filter2_b_1170_1052" x="0" y="0" width="80" height="35" filterUnits="userSpaceOnUse" color-interpolation-filters="sRGB">
<feFlood flood-opacity="0" result="BackgroundImageFix"/>
<feGaussianBlur in="BackgroundImage" stdDeviation="2"/>
<feComposite in2="SourceAlpha" operator="in" result="effect1_backgroundBlur_1170_1052"/>
<feBlend mode="normal" in="SourceGraphic" in2="effect1_backgroundBlur_1170_1052" result="shape"/>
</filter>
</defs>
</svg>
