<svg width="76" height="34" viewBox="0 0 76 34" fill="none" xmlns="http://www.w3.org/2000/svg">
<g filter="url(#filter0_d_1315_196)">
<g filter="url(#filter1_b_1315_196)">
<rect x="4" y="4" width="68" height="26" rx="13" fill="white" fill-opacity="0.46"/>
<path d="M22.0533 21H23.5182V18.0703H26.5846V21H28.0592V13.9297H26.5846V16.8594H23.5182V13.9297H22.0533V21ZM29.6713 21H31.1166V15.6973H29.6713V21ZM29.6029 14.2715C29.6029 14.6719 29.9594 15.0039 30.3939 15.0039C30.8236 15.0039 31.1801 14.6719 31.1752 14.2715C31.1801 13.8613 30.8236 13.5342 30.3939 13.5293C29.9594 13.5342 29.6029 13.8613 29.6029 14.2715ZM35.717 17.2695H37.0744C36.9963 16.2637 36.1662 15.6289 34.8283 15.6289C33.4611 15.6289 32.5871 16.2637 32.592 17.2793C32.5871 18.0654 33.1047 18.583 34.1154 18.7832L34.9943 18.959C35.4924 19.0615 35.717 19.2324 35.717 19.5059C35.717 19.8477 35.3654 20.0576 34.8381 20.0625C34.3059 20.0576 33.9689 19.8428 33.9006 19.4277H32.4455C32.5676 20.4629 33.4074 21.1025 34.8381 21.1074C36.2492 21.1025 37.1867 20.4043 37.1916 19.3594C37.1867 18.5977 36.6887 18.1387 35.6584 17.9238L34.7111 17.7285C34.2082 17.626 34.0227 17.4404 34.0275 17.2012C34.0227 16.8789 34.3791 16.6592 34.8479 16.6543C35.3312 16.6592 35.6535 16.8984 35.717 17.2695ZM41.3232 15.6973H40.3271V14.4277H38.8818V15.6973H38.1494V16.7812H38.8818V19.5742C38.8721 20.6045 39.585 21.0732 40.6299 21.0684C40.9863 21.0732 41.2451 21.0439 41.4014 21.0195V19.877C41.2256 19.8916 40.9717 19.9062 40.8252 19.9062C40.5322 19.8965 40.3223 19.7939 40.3271 19.3691V16.7812H41.3232V15.6973ZM45.0057 21.1074C46.6121 21.1025 47.6082 20.0039 47.6131 18.3633C47.6082 16.7275 46.6121 15.6289 45.0057 15.6289C43.4041 15.6289 42.4031 16.7275 42.408 18.3633C42.4031 20.0039 43.4041 21.1025 45.0057 21.1074ZM43.8729 18.3633C43.8729 17.4307 44.2586 16.7324 45.0154 16.7324C45.7527 16.7324 46.1434 17.4307 46.1385 18.3633C46.1434 19.291 45.7527 19.9795 45.0154 19.9844C44.2586 19.9795 43.8729 19.291 43.8729 18.3633ZM48.9713 21H50.4166V17.9824C50.4117 17.333 50.8951 16.8789 51.5494 16.8789C51.7496 16.8789 52.0279 16.9131 52.1646 16.957V15.668C52.0377 15.6387 51.8521 15.6191 51.7057 15.6191C51.11 15.6191 50.6168 15.9658 50.4264 16.6152H50.3678V15.6973H48.9713V21ZM54.3334 22.9922C55.4516 22.9873 56.0326 22.4404 56.3354 21.5859L58.4057 15.6973H56.8725L55.7494 19.6035H55.6908L54.5775 15.6973H53.0639L54.9682 21.1465L54.8803 21.3711C54.7045 21.8301 54.475 21.8594 54.1869 21.8594C54.0063 21.8594 53.7865 21.8545 53.601 21.8398V22.9629C53.7865 22.9824 54.0502 22.9873 54.3334 22.9922Z" fill="#FEFEFE"/>
</g>
<path fill-rule="evenodd" clip-rule="evenodd" d="M17.2984 17.2585C17.2995 17.2225 17.3 17.1863 17.3 17.15C17.3 15.1342 15.6658 13.5 13.65 13.5C11.8463 13.5 10.3481 14.8083 10.0528 16.5278C11.2459 15.8279 12.7873 16.0045 13.7914 17.0086C14.7383 17.9555 16.2341 18.0569 17.2984 17.2585ZM17.2472 17.7723C16.9518 19.4917 15.4537 20.8 13.65 20.8C11.6342 20.8 10 19.1658 10 17.15C10 17.1137 10.0005 17.0776 10.0016 17.0416C11.0659 16.2432 12.5617 16.3446 13.5086 17.2915C14.5127 18.2956 16.0541 18.4722 17.2472 17.7723Z" fill="url(#paint0_linear_1315_196)"/>
</g>
<defs>
<filter id="filter0_d_1315_196" x="0" y="0" width="76" height="34" filterUnits="userSpaceOnUse" color-interpolation-filters="sRGB">
<feFlood flood-opacity="0" result="BackgroundImageFix"/>
<feColorMatrix in="SourceAlpha" type="matrix" values="0 0 0 0 0 0 0 0 0 0 0 0 0 0 0 0 0 0 127 0" result="hardAlpha"/>
<feOffset/>
<feGaussianBlur stdDeviation="2"/>
<feComposite in2="hardAlpha" operator="out"/>
<feColorMatrix type="matrix" values="0 0 0 0 0 0 0 0 0 0 0 0 0 0 0 0 0 0 0.25 0"/>
<feBlend mode="normal" in2="BackgroundImageFix" result="effect1_dropShadow_1315_196"/>
<feBlend mode="normal" in="SourceGraphic" in2="effect1_dropShadow_1315_196" result="shape"/>
</filter>
<filter id="filter1_b_1315_196" x="0" y="0" width="76" height="34" filterUnits="userSpaceOnUse" color-interpolation-filters="sRGB">
<feFlood flood-opacity="0" result="BackgroundImageFix"/>
<feGaussianBlur in="BackgroundImageFix" stdDeviation="2"/>
<feComposite in2="SourceAlpha" operator="in" result="effect1_backgroundBlur_1315_196"/>
<feBlend mode="normal" in="SourceGraphic" in2="effect1_backgroundBlur_1315_196" result="shape"/>
</filter>
<linearGradient id="paint0_linear_1315_196" x1="13.65" y1="13.5" x2="13.65" y2="20.8" gradientUnits="userSpaceOnUse">
<stop stop-color="#E02222"/>
<stop offset="0.494792" stop-color="#833582"/>
<stop offset="0.494892" stop-color="#5B3DAA"/>
<stop offset="1" stop-color="#1D4AEA"/>
</linearGradient>
</defs>
</svg>
