<svg width="284" height="120" viewBox="0 0 284 120" fill="none" xmlns="http://www.w3.org/2000/svg">
<path d="M1 19.952C10.541 16.2598 18.3242 9.49758 22.8296 1H260.272C264.918 9.76265 273.049 16.68 283 20.2887V20.3097C280.503 20.7389 278.506 22.7456 278.506 25.3062C278.506 27.8667 280.503 29.8733 283 30.3026V34.1871C280.503 34.6164 278.506 36.623 278.506 39.1836C278.506 41.7442 280.503 43.7508 283 44.18V48.0647C280.503 48.4939 278.506 50.5006 278.506 53.0611C278.506 55.6217 280.503 57.6283 283 58.0576V61.9424C280.503 62.3716 278.506 64.3783 278.506 66.9388C278.506 69.4994 280.503 71.506 283 71.9353V75.8199C280.503 76.2492 278.506 78.2558 278.506 80.8164C278.506 83.377 280.503 85.3836 283 85.8128V89.6974C280.503 90.1266 278.506 92.1332 278.506 94.6938C278.506 96.828 279.893 98.5773 281.801 99.3493C272.095 103.186 264.238 110.21 259.852 119H23.2496C18.9265 110.338 11.2338 103.39 1.72196 99.5184C3.87079 98.8602 5.49352 97.0021 5.49352 94.6938C5.49352 92.1333 3.4967 90.1267 1 89.6974V85.8128C3.4967 85.3835 5.49352 83.3769 5.49352 80.8164C5.49352 78.2559 3.4967 76.2493 1 75.82V71.9352C3.4967 71.5059 5.49352 69.4994 5.49352 66.9388C5.49352 64.3783 3.4967 62.3717 1 61.9424V58.0576C3.4967 57.6282 5.49352 55.6217 5.49352 53.0611C5.49352 50.5006 3.4967 48.494 1 48.0647V44.18C3.4967 43.7507 5.49352 41.7441 5.49352 39.1836C5.49352 36.6231 3.4967 34.6165 1 34.1872V30.3026C3.4967 29.8733 5.49352 27.8667 5.49352 25.3062C5.49352 22.7456 3.4967 20.739 1 20.3097V19.952Z" stroke="#FEFEFE" stroke-width="2"/>
</svg>
