<svg width="158" height="58" viewBox="0 0 158 58" fill="none" xmlns="http://www.w3.org/2000/svg">
<path d="M2.93111 46V11.0909H11.3686V39.1477H25.8913V46H2.93111ZM38.2791 46H29.2109L40.9893 11.0909H52.2223L64.0007 46H54.9325L46.7337 19.8864H46.4609L38.2791 46ZM37.0689 32.2614H56.0234V38.6705H37.0689V32.2614ZM67.7592 11.0909H78.2081L87.0717 32.7045H87.4808L96.3445 11.0909H106.793V46H98.5774V24.5568H98.2876L89.9013 45.7784H84.6513L76.2649 24.4375H75.9751V46H67.7592V11.0909ZM112.056 46V11.0909H126.477C129.09 11.0909 131.346 11.6023 133.244 12.625C135.153 13.6364 136.624 15.0511 137.658 16.8693C138.692 18.6761 139.21 20.7784 139.21 23.1761C139.21 25.5852 138.681 27.6932 137.624 29.5C136.579 31.2955 135.085 32.6875 133.141 33.6761C131.198 34.6648 128.891 35.1591 126.221 35.1591H117.323V28.5114H124.653C125.925 28.5114 126.988 28.2898 127.84 27.8466C128.704 27.4034 129.357 26.7841 129.8 25.9886C130.244 25.1818 130.465 24.2443 130.465 23.1761C130.465 22.0966 130.244 21.1648 129.8 20.3807C129.357 19.5852 128.704 18.9716 127.84 18.5398C126.977 18.108 125.914 17.892 124.653 17.892H120.494V46H112.056ZM146.415 46.4943C145.188 46.4943 144.137 46.0625 143.262 45.1989C142.398 44.3352 141.972 43.2898 141.984 42.0625C141.972 40.858 142.398 39.8295 143.262 38.9773C144.137 38.1136 145.188 37.6818 146.415 37.6818C147.575 37.6818 148.597 38.1136 149.484 38.9773C150.381 39.8295 150.836 40.858 150.847 42.0625C150.836 42.8807 150.62 43.625 150.2 44.2955C149.79 44.9659 149.251 45.5 148.58 45.8977C147.921 46.2955 147.2 46.4943 146.415 46.4943Z" fill="#FFF48E"/>
<path d="M145.619 30.8435C146.033 30.1119 147.134 30.1391 147.506 30.8926C149.641 35.2103 151.134 36.7315 155.225 38.698C155.996 39.0688 156.027 40.202 155.281 40.6206C153.821 41.4395 151.866 42.6564 150.647 43.8998C149.487 45.0828 148.345 46.9496 147.573 48.3469C147.166 49.0841 146.041 49.0881 145.631 48.3524C144.827 46.9101 143.629 44.9629 142.44 43.7735C141.254 42.5879 139.316 41.3943 137.875 40.5903C137.137 40.1785 137.144 39.0467 137.885 38.6399C139.284 37.8715 141.144 36.7349 142.313 35.566C143.521 34.3586 144.779 32.3276 145.619 30.8435Z" fill="#FFF48E"/>
</svg>
