<svg width="130" height="61" viewBox="0 0 130 61" fill="none" xmlns="http://www.w3.org/2000/svg">
<mask id="path-1-outside-1_290_11" maskUnits="userSpaceOnUse" x="0" y="0" width="130" height="61" fill="black">
<rect fill="white" width="130" height="61"/>
<path d="M0 0H130V59H0V0Z"/>
</mask>
<path d="M130 57H0V61H130V57Z" fill="#AFABAB" mask="url(#path-1-outside-1_290_11)"/>
<path d="M30.016 27.608V29.848H32.144V27.608H30.016ZM31.056 22.2C28.912 22.2 27.36 23.432 27.36 25.224C27.36 26.984 28.912 28.216 31.056 28.216C33.2 28.216 34.752 26.984 34.752 25.224C34.752 23.432 33.2 22.2 31.056 22.2ZM31.056 23.8C32.08 23.8 32.768 24.312 32.768 25.224C32.768 26.12 32.08 26.632 31.056 26.632C30.048 26.632 29.344 26.12 29.344 25.224C29.344 24.312 30.048 23.8 31.056 23.8ZM36.272 21.624V32.92H38.4V21.624H36.272ZM37.648 26.264V28.008H40.256V26.264H37.648ZM28.512 34.456V36.168H38.896V34.456H28.512ZM28.512 31.944V35.192H30.656V31.944H28.512ZM26.832 31C29.28 31 32.64 30.952 35.632 30.392L35.488 28.872C32.576 29.288 29.104 29.304 26.592 29.304L26.832 31ZM44.7668 30.248V33.736H46.8468V30.248H44.7668ZM49.4548 30.232V33.736H51.5348V30.232H49.4548ZM41.3748 33.064V34.792H54.7828V33.064H41.3748ZM42.8788 22.568V24.248H51.1668V25.816H42.9108V29.992H45.0228V27.48H53.2788V22.568H42.8788ZM42.9108 29.096V30.808H53.6148V29.096H42.9108ZM57.3735 26.136V27.832H64.6375V26.136H57.3735ZM59.9175 27.224V30.056H62.0455V27.224H59.9175ZM57.3735 22.504V26.84H59.5015V24.2H64.5415V22.504H57.3735ZM66.2855 21.592V32.744H68.4295V21.592H66.2855ZM58.3975 34.472V36.168H68.8295V34.472H58.3975ZM58.3975 31.96V35.112H60.5255V31.96H58.3975ZM56.4135 31.08C59.1335 31.08 62.4615 31.016 65.5495 30.568L65.4055 29.048C62.4295 29.368 58.9575 29.4 56.1575 29.4L56.4135 31.08ZM81.389 24.632V26.344H85.421V24.632H81.389ZM81.389 29.224V30.936H85.421V29.224H81.389ZM78.829 22.632C76.605 22.632 75.005 24.68 75.005 27.912C75.005 31.176 76.605 33.224 78.829 33.224C81.037 33.224 82.653 31.176 82.653 27.912C82.653 24.68 81.037 22.632 78.829 22.632ZM78.829 24.568C79.917 24.568 80.637 25.736 80.637 27.912C80.637 30.12 79.917 31.304 78.829 31.304C77.757 31.304 77.021 30.12 77.021 27.912C77.021 25.736 77.757 24.568 78.829 24.568ZM85.085 21.592V36.456H87.197V21.592H85.085ZM100.092 21.608V30.888H102.108V21.608H100.092ZM98.2838 25.256V26.984H100.652V25.256H98.2838ZM97.0198 21.896V30.408H99.0038V21.896H97.0198ZM89.4198 23.128V24.76H96.6038V23.128H89.4198ZM93.0358 25.24C91.1798 25.24 89.8358 26.296 89.8358 27.832C89.8358 29.368 91.1798 30.408 93.0358 30.408C94.8918 30.408 96.2358 29.368 96.2358 27.832C96.2358 26.296 94.8918 25.24 93.0358 25.24ZM93.0358 26.76C93.8038 26.76 94.3318 27.144 94.3318 27.832C94.3318 28.52 93.8038 28.904 93.0358 28.904C92.2518 28.904 91.7238 28.52 91.7238 27.832C91.7238 27.144 92.2518 26.76 93.0358 26.76ZM91.9638 21.752V24.248H94.0598V21.752H91.9638ZM97.0998 31.048C93.9158 31.048 91.9958 32.008 91.9958 33.736C91.9958 35.448 93.9158 36.424 97.0998 36.424C100.268 36.424 102.188 35.448 102.188 33.736C102.188 32.008 100.268 31.048 97.0998 31.048ZM97.0998 32.632C99.0678 32.632 100.06 32.968 100.06 33.736C100.06 34.488 99.0678 34.84 97.0998 34.84C95.1158 34.84 94.1238 34.488 94.1238 33.736C94.1238 32.968 95.1158 32.632 97.0998 32.632Z" fill="#AFABAB"/>
</svg>
