<svg width="302" height="140" viewBox="0 0 302 140" fill="none" xmlns="http://www.w3.org/2000/svg">
<mask id="path-1-outside-1_619_60" maskUnits="userSpaceOnUse" x="0" y="0" width="303" height="140" fill="black">
<rect fill="white" width="303" height="140"/>
<path fill-rule="evenodd" clip-rule="evenodd" d="M29.5352 7H271.553C276.187 16.4182 284.618 23.8476 295 27.5526L295 29.2769C292.483 29.2769 290.443 31.1949 290.443 33.5608C290.443 35.9268 292.483 37.8448 295 37.8448V43.8423C292.483 43.8423 290.443 45.7603 290.443 48.1263C290.443 50.4923 292.483 52.4103 295 52.4103V58.4078C292.483 58.4078 290.443 60.3258 290.443 62.6918C290.443 65.0578 292.483 66.9758 295 66.9758V72.9735C292.483 72.9735 290.443 74.8915 290.443 77.2575C290.443 79.6235 292.483 81.5415 295 81.5415V87.5391C292.483 87.5391 290.443 89.4571 290.443 91.8231C290.443 94.189 292.483 96.107 295 96.107V102.105C292.483 102.105 290.443 104.023 290.443 106.389C290.443 108.755 292.483 110.673 295 110.673L295 111.54C284.306 115.357 275.681 123.125 271.145 132.949H29.9438C25.537 123.406 17.2724 115.802 7 111.877V110.673C9.51666 110.673 11.5568 108.755 11.5568 106.389C11.5568 104.023 9.51666 102.105 7 102.105V96.107C9.51666 96.107 11.5568 94.189 11.5568 91.8231C11.5568 89.4571 9.51666 87.5391 7 87.5391V81.5415C9.51666 81.5414 11.5568 79.6234 11.5568 77.2575C11.5568 74.8916 9.51666 72.9736 7 72.9735V66.9758C9.51666 66.9757 11.5568 65.0578 11.5568 62.6918C11.5568 60.3259 9.51666 58.4079 7 58.4078V52.4103C9.51666 52.4102 11.5568 50.4922 11.5568 48.1263C11.5568 45.7603 9.51666 43.8424 7 43.8423V37.8448C9.51666 37.8448 11.5568 35.9268 11.5568 33.5608C11.5568 31.1949 9.51666 29.2769 7 29.2769V27.2158C16.963 23.4086 25.0374 16.141 29.5352 7Z"/>
</mask>
<path fill-rule="evenodd" clip-rule="evenodd" d="M29.5352 7H271.553C276.187 16.4182 284.618 23.8476 295 27.5526L295 29.2769C292.483 29.2769 290.443 31.1949 290.443 33.5608C290.443 35.9268 292.483 37.8448 295 37.8448V43.8423C292.483 43.8423 290.443 45.7603 290.443 48.1263C290.443 50.4923 292.483 52.4103 295 52.4103V58.4078C292.483 58.4078 290.443 60.3258 290.443 62.6918C290.443 65.0578 292.483 66.9758 295 66.9758V72.9735C292.483 72.9735 290.443 74.8915 290.443 77.2575C290.443 79.6235 292.483 81.5415 295 81.5415V87.5391C292.483 87.5391 290.443 89.4571 290.443 91.8231C290.443 94.189 292.483 96.107 295 96.107V102.105C292.483 102.105 290.443 104.023 290.443 106.389C290.443 108.755 292.483 110.673 295 110.673L295 111.54C284.306 115.357 275.681 123.125 271.145 132.949H29.9438C25.537 123.406 17.2724 115.802 7 111.877V110.673C9.51666 110.673 11.5568 108.755 11.5568 106.389C11.5568 104.023 9.51666 102.105 7 102.105V96.107C9.51666 96.107 11.5568 94.189 11.5568 91.8231C11.5568 89.4571 9.51666 87.5391 7 87.5391V81.5415C9.51666 81.5414 11.5568 79.6234 11.5568 77.2575C11.5568 74.8916 9.51666 72.9736 7 72.9735V66.9758C9.51666 66.9757 11.5568 65.0578 11.5568 62.6918C11.5568 60.3259 9.51666 58.4079 7 58.4078V52.4103C9.51666 52.4102 11.5568 50.4922 11.5568 48.1263C11.5568 45.7603 9.51666 43.8424 7 43.8423V37.8448C9.51666 37.8448 11.5568 35.9268 11.5568 33.5608C11.5568 31.1949 9.51666 29.2769 7 29.2769V27.2158C16.963 23.4086 25.0374 16.141 29.5352 7Z" fill="#FEFEFE"/>
<path d="M271.553 7L277.834 3.90954L275.91 0H271.553V7ZM29.5352 7V0H25.1781L23.2544 3.90953L29.5352 7ZM295 27.5526L302 27.5532L302 22.6185L297.353 20.9599L295 27.5526ZM295 29.2769V36.2769H301.999L302 29.2775L295 29.2769ZM295 37.8448H302V30.8448H295V37.8448ZM295 43.8423V50.8423H302V43.8423H295ZM295 52.4103H302V45.4103H295V52.4103ZM295 58.4078V65.4078H302V58.4078H295ZM295 66.9758H302V59.9758H295V66.9758ZM295 72.9735V79.9735H302V72.9735H295ZM295 81.5415H302V74.5415H295V81.5415ZM295 87.5391V94.5391H302V87.5391H295ZM295 96.107H302V89.107H295V96.107ZM295 102.105V109.105H302V102.105H295ZM295 110.673L302 110.671L301.999 103.673H295V110.673ZM295 111.54L297.353 118.133L302.001 116.474L302 111.539L295 111.54ZM271.145 132.949V139.949H275.623L277.5 135.884L271.145 132.949ZM29.9438 132.949L23.5886 135.884L25.4659 139.949H29.9438V132.949ZM7 111.877H0V116.695L4.50126 118.416L7 111.877ZM7 110.673L6.99977 103.673L0 103.673V110.673H7ZM7 102.105H0V109.104L6.99977 109.105L7 102.105ZM7 96.107L6.99977 89.107L0 89.1073V96.107H7ZM7 87.5391H0V94.5388L6.99977 94.5391L7 87.5391ZM7 81.5415L6.99977 74.5415L0 74.5417V81.5415H7ZM7 72.9735H0V79.9733L6.99977 79.9735L7 72.9735ZM7 66.9758L6.99977 59.9758L0 59.9761V66.9758H7ZM7 58.4078H0V65.4076L6.99977 65.4078L7 58.4078ZM7 52.4103L6.99977 45.4103L0 45.4105V52.4103H7ZM7 43.8423H0V50.8421L6.99977 50.8423L7 43.8423ZM7 37.8448L6.99977 30.8448L0 30.8451V37.8448H7ZM7 29.2769H0V36.2766L6.99977 36.2769L7 29.2769ZM7 27.2158L4.50126 20.677L0 22.3971V27.2158H7ZM271.553 0H29.5352V14H271.553V0ZM297.353 20.9599C288.612 17.8404 281.63 11.6244 277.834 3.90954L265.272 10.0905C270.745 21.212 280.625 29.8548 292.647 34.1453L297.353 20.9599ZM302 29.2775L302 27.5532L288 27.552L288 29.2762L302 29.2775ZM297.443 33.5608C297.443 35.4619 295.935 36.2769 295 36.2769V22.2769C289.031 22.2769 283.443 26.9278 283.443 33.5608H297.443ZM295 30.8448C295.935 30.8448 297.443 31.6598 297.443 33.5608H283.443C283.443 40.1939 289.031 44.8448 295 44.8448V30.8448ZM302 43.8423V37.8448H288V43.8423H302ZM297.443 48.1263C297.443 50.0274 295.935 50.8423 295 50.8423V36.8423C289.031 36.8423 283.443 41.4932 283.443 48.1263H297.443ZM295 45.4103C295.935 45.4103 297.443 46.2252 297.443 48.1263H283.443C283.443 54.7593 289.031 59.4103 295 59.4103V45.4103ZM302 58.4078V52.4103H288V58.4078H302ZM297.443 62.6918C297.443 64.5929 295.935 65.4078 295 65.4078V51.4078C289.031 51.4078 283.443 56.0588 283.443 62.6918H297.443ZM295 59.9758C295.935 59.9758 297.443 60.7908 297.443 62.6918H283.443C283.443 69.3249 289.031 73.9758 295 73.9758V59.9758ZM302 72.9735V66.9758H288V72.9735H302ZM297.443 77.2575C297.443 79.1586 295.935 79.9735 295 79.9735V65.9735C289.031 65.9735 283.443 70.6244 283.443 77.2575H297.443ZM295 74.5415C295.935 74.5415 297.443 75.3564 297.443 77.2575H283.443C283.443 83.8905 289.031 88.5415 295 88.5415V74.5415ZM302 87.5391V81.5415H288V87.5391H302ZM297.443 91.8231C297.443 93.7241 295.935 94.5391 295 94.5391V80.5391C289.031 80.5391 283.443 85.19 283.443 91.8231H297.443ZM295 89.107C295.935 89.107 297.443 89.922 297.443 91.8231H283.443C283.443 98.4561 289.031 103.107 295 103.107V89.107ZM302 102.105V96.107H288V102.105H302ZM297.443 106.389C297.443 108.29 295.935 109.105 295 109.105V95.1046C289.031 95.1046 283.443 99.7556 283.443 106.389H297.443ZM295 103.673C295.935 103.673 297.443 104.488 297.443 106.389H283.443C283.443 113.022 289.031 117.673 295 117.673V103.673ZM302 111.539L302 110.671L288 110.674L288 111.541L302 111.539ZM277.5 135.884C281.212 127.846 288.347 121.347 297.353 118.133L292.647 104.947C280.264 109.366 270.15 118.405 264.789 130.015L277.5 135.884ZM29.9438 139.949H271.145V125.949H29.9438V139.949ZM4.50126 118.416C13.1475 121.72 19.9831 128.076 23.5886 135.884L36.2989 130.015C31.0909 118.736 21.3972 109.885 9.49874 105.338L4.50126 118.416ZM0 110.673V111.877H14V110.673H0ZM4.5568 106.389C4.5568 104.488 6.06415 103.673 6.99977 103.673L7.00023 117.673C12.9692 117.672 18.5568 113.021 18.5568 106.389H4.5568ZM6.99977 109.105C6.06415 109.105 4.5568 108.29 4.5568 106.389H18.5568C18.5568 99.7557 12.9692 95.1048 7.00023 95.1046L6.99977 109.105ZM0 96.107V102.105H14V96.107H0ZM4.5568 91.8231C4.5568 89.922 6.06415 89.1071 6.99977 89.107L7.00023 103.107C12.9692 103.107 18.5568 98.4559 18.5568 91.8231H4.5568ZM6.99977 94.5391C6.06415 94.539 4.5568 93.7241 4.5568 91.8231H18.5568C18.5568 85.1902 12.9692 80.5393 7.00023 80.5391L6.99977 94.5391ZM0 81.5415V87.5391H14V81.5415H0ZM4.5568 77.2575C4.5568 75.3565 6.06415 74.5415 6.99977 74.5415L7.00023 88.5415C12.9692 88.5413 18.5568 83.8904 18.5568 77.2575H4.5568ZM6.99977 79.9735C6.06415 79.9735 4.5568 79.1585 4.5568 77.2575H18.5568C18.5568 70.6246 12.9692 65.9737 7.00023 65.9735L6.99977 79.9735ZM0 66.9758V72.9735H14V66.9758H0ZM4.5568 62.6918C4.5568 60.7908 6.06415 59.9759 6.99977 59.9758L7.00023 73.9758C12.9692 73.9756 18.5568 69.3247 18.5568 62.6918H4.5568ZM6.99977 65.4078C6.06415 65.4078 4.5568 64.5928 4.5568 62.6918H18.5568C18.5568 56.0589 12.9692 51.408 7.00023 51.4078L6.99977 65.4078ZM0 52.4103V58.4078H14V52.4103H0ZM4.5568 48.1263C4.5568 46.2253 6.06415 45.4103 6.99977 45.4103L7.00023 59.4103C12.9692 59.4101 18.5568 54.7592 18.5568 48.1263H4.5568ZM6.99977 50.8423C6.06415 50.8423 4.5568 50.0273 4.5568 48.1263H18.5568C18.5568 41.4934 12.9692 36.8425 7.00023 36.8423L6.99977 50.8423ZM0 37.8448V43.8423H14V37.8448H0ZM4.5568 33.5608C4.5568 31.6598 6.06415 30.8449 6.99977 30.8448L7.00023 44.8448C12.9692 44.8446 18.5568 40.1937 18.5568 33.5608H4.5568ZM6.99977 36.2769C6.06415 36.2768 4.5568 35.4619 4.5568 33.5608H18.5568C18.5568 26.928 12.9692 22.2771 7.00023 22.2769L6.99977 36.2769ZM0 27.2158V29.2769H14V27.2158H0ZM23.2544 3.90953C19.5703 11.3968 12.8857 17.473 4.50126 20.677L9.49874 33.7547C21.0403 29.3442 30.5046 20.8852 35.8161 10.0905L23.2544 3.90953Z" fill="#26265C" mask="url(#path-1-outside-1_619_60)"/>
<path d="M191.431 125.603C190.478 124.623 189.755 123.484 189.264 122.187C188.773 120.856 188.512 119.52 188.48 118.179C188.448 116.804 188.644 115.491 189.069 114.241C189.494 112.957 190.163 111.872 191.075 110.985C191.969 110.115 192.875 109.669 193.792 109.648C194.709 109.627 195.569 110.029 196.372 110.855C196.757 111.251 197.073 111.697 197.321 112.192C197.569 112.654 197.741 113.123 197.836 113.6C197.948 114.06 197.976 114.501 197.919 114.925C197.846 115.331 197.688 115.651 197.448 115.886C197.241 116.086 196.967 116.235 196.627 116.332C196.286 116.396 195.947 116.391 195.609 116.318C195.741 114.148 195.388 112.632 194.552 111.772C194.066 111.273 193.626 111.216 193.23 111.601C192.886 111.935 192.615 112.517 192.417 113.346C192.218 114.175 192.138 115.09 192.175 116.092C192.238 117.638 192.566 119.11 193.157 120.51C193.749 121.876 194.58 123.11 195.651 124.211C197.007 125.604 198.128 126.138 199.015 125.811C199.24 125.525 199.465 125.155 199.692 124.7C199.919 124.245 200.139 123.73 200.35 123.156C200.545 122.565 200.724 121.939 200.886 121.28C201.065 120.603 201.21 119.926 201.321 119.249C201.44 119.234 201.576 119.253 201.728 119.306C201.88 119.359 201.998 119.428 202.081 119.514C202.14 120.16 202.148 120.839 202.104 121.551C202.06 122.263 201.974 122.967 201.845 123.661C201.7 124.338 201.522 124.963 201.31 125.537C201.132 126.112 200.922 126.567 200.68 126.903C200.062 127.404 199.353 127.742 198.553 127.917C197.77 128.11 196.954 128.15 196.107 128.036C195.277 127.906 194.45 127.64 193.623 127.238C192.815 126.819 192.084 126.274 191.431 125.603ZM209.294 118.827C208.213 119.678 207.011 120.009 205.69 119.821C204.369 119.633 203.139 118.954 202.002 117.784C201.332 117.096 200.741 116.281 200.228 115.341C199.715 114.4 199.313 113.402 199.022 112.345C198.715 111.272 198.518 110.174 198.432 109.053C198.345 107.932 198.386 106.854 198.553 105.821C198.813 104.196 199.356 102.981 200.182 102.178C201.017 101.935 202.153 102.019 203.59 102.429C203.676 102.346 203.754 102.27 203.822 102.203C203.874 102.119 203.944 102.035 204.03 101.952C204.941 101.065 206.184 101.43 207.757 103.047C208.811 104.131 209.634 105.339 210.227 106.671C210.82 107.969 211.183 109.324 211.316 110.734C211.466 112.128 211.37 113.527 211.028 114.931C210.687 116.301 210.108 117.6 209.294 118.827ZM202.704 109.418C202.796 110.098 202.939 110.796 203.133 111.511C203.326 112.227 203.563 112.918 203.842 113.583C204.105 114.232 204.402 114.83 204.734 115.378C205.049 115.909 205.374 116.346 205.708 116.69C206.11 117.103 206.564 117.432 207.069 117.676C207.575 117.921 207.939 117.985 208.161 117.87C208.768 116.945 209.164 115.94 209.349 114.857C209.534 113.739 209.516 112.602 209.295 111.445C209.09 110.271 208.682 109.111 208.07 107.965C207.475 106.803 206.684 105.714 205.697 104.699C205.262 104.252 204.893 103.924 204.591 103.716C204.288 103.508 203.984 103.368 203.68 103.296C203.14 104.256 202.812 105.278 202.695 106.363C202.596 107.431 202.598 108.449 202.704 109.418ZM222.812 88.5062C222.553 88.7912 222.393 89.2981 222.332 90.027C222.254 90.7388 222.243 91.5872 222.297 92.5724C222.351 93.5236 222.439 94.5601 222.559 95.682C222.696 96.7871 222.842 97.8838 222.997 98.9722C223.152 100.027 223.299 101.022 223.439 101.957C223.579 102.892 223.67 103.657 223.713 104.252C223.184 104.465 222.639 104.56 222.079 104.535C221.503 104.493 220.937 104.307 220.381 103.977C219.949 103.359 219.534 102.692 219.136 101.973C218.722 101.238 218.335 100.443 217.973 99.5896C217.629 98.7192 217.311 97.7728 217.02 96.7505C216.729 95.6941 216.482 94.5281 216.279 93.2524C216.038 93.5206 215.869 94.0528 215.773 94.8492C215.661 95.6283 215.622 96.5528 215.658 97.6225C215.678 98.6751 215.755 99.8218 215.89 101.063C216.009 102.286 216.154 103.468 216.325 104.607C216.558 106.121 216.786 107.423 217.009 108.512C217.248 109.585 217.332 110.273 217.26 110.578C216.495 110.686 215.842 110.634 215.302 110.423C214.762 110.212 214.223 109.916 213.685 109.535C213.3 109.105 212.859 108.531 212.36 107.811C211.878 107.074 211.422 106.279 210.993 105.424C210.167 103.783 209.461 102.042 208.876 100.201C208.308 98.3434 207.814 96.6138 207.395 95.0126C207.977 94.6473 208.566 94.3924 209.162 94.248C209.776 94.0868 210.507 94.0121 211.355 94.0239C211.702 94.7246 211.987 95.5517 212.211 96.5053C212.419 97.4417 212.643 98.4292 212.883 99.4678C213.123 100.506 213.414 101.529 213.757 102.535C214.099 103.541 214.562 104.447 215.145 105.253C214.957 104.096 214.755 102.753 214.539 101.222C214.34 99.6748 214.199 98.1708 214.118 96.7101C214.054 95.2326 214.098 93.8839 214.251 92.664C214.403 91.4442 214.755 90.5665 215.306 90.0311C215.512 89.8303 215.769 89.6472 216.077 89.4817C216.385 89.3163 216.692 89.1848 216.999 89.0872C217.306 88.9897 217.578 88.9256 217.816 88.8949C218.038 88.8471 218.182 88.8406 218.249 88.8755C218.498 89.3033 218.752 89.9772 219.011 90.8973C219.27 91.7835 219.537 92.7291 219.811 93.7343C220.086 94.7395 220.369 95.7024 220.662 96.623C220.938 97.5263 221.226 98.1838 221.526 98.5953C221.248 96.6226 221.027 94.812 220.863 93.1634C220.682 91.4976 220.593 90.0113 220.594 88.7045C220.595 87.3976 220.695 86.2958 220.895 85.3991C221.111 84.4856 221.469 83.7862 221.968 83.301C222.312 82.9663 222.722 82.7514 223.199 82.6562C223.676 82.5271 224.142 82.576 224.597 82.803C224.944 83.4697 225.288 84.3401 225.63 85.4141C225.988 86.4714 226.38 87.58 226.805 88.74C227.214 89.8829 227.648 90.9836 228.109 92.0423C228.586 93.0843 229.126 93.9149 229.729 94.5343C230.08 94.8956 230.366 95.0863 230.586 95.1063C230.79 95.1092 230.986 95.0186 231.176 94.8345C231.382 94.6337 231.538 94.4152 231.643 94.1791C231.749 93.909 231.844 93.7321 231.931 93.6485C232.101 93.6169 232.245 93.6444 232.362 93.7309C232.48 93.8174 232.58 93.9036 232.664 93.9896C232.588 94.5996 232.453 95.1663 232.259 95.6897C232.081 96.2303 231.769 96.7182 231.322 97.1532C230.909 97.5548 230.498 97.8207 230.089 97.9507C229.697 98.0641 229.297 98.084 228.891 98.0104C228.485 97.9369 228.097 97.7787 227.727 97.536C227.357 97.2932 226.996 96.9912 226.645 96.6299C226.076 96.0449 225.593 95.3932 225.195 94.6749C224.781 93.9393 224.426 93.213 224.131 92.4961C223.836 91.7452 223.591 91.029 223.397 90.3474C223.186 89.6486 222.991 89.0349 222.812 88.5062ZM240.596 103.249C240.289 103.414 239.9 103.29 239.431 102.876C239.144 102.719 238.833 102.503 238.498 102.226C238.179 101.934 237.828 101.589 237.443 101.193C237.091 100.832 236.666 100.275 236.168 99.5209C235.686 98.7844 235.163 97.92 234.6 96.9278C234.054 95.9188 233.492 94.8078 232.915 93.5948C232.321 92.3645 231.753 91.0922 231.212 89.7777C230.522 88.1388 229.93 86.7219 229.438 85.527C228.929 84.3149 228.476 83.2817 228.081 82.4276C227.703 81.5568 227.382 80.848 227.118 80.3012C226.871 79.7377 226.648 79.2678 226.45 78.8917C226.318 78.6183 226.178 78.2684 226.032 77.8421C225.885 77.4157 225.755 76.9726 225.643 76.5128C225.531 76.0191 225.444 75.5511 225.382 75.109C225.304 74.6496 225.275 74.2758 225.296 73.9876C225.982 73.488 226.7 73.0907 227.451 72.7956C228.202 72.5006 228.738 72.3977 229.059 72.487C229.036 72.945 229.104 73.5654 229.263 74.3483C229.405 75.1141 229.606 75.923 229.865 76.7753C230.108 77.6103 230.394 78.4374 230.722 79.2566C231.05 80.0759 231.371 80.7677 231.686 81.3322C231.573 80.8724 231.487 80.3366 231.428 79.7247C231.369 79.1129 231.33 78.2298 231.312 77.0755C231.313 75.8025 231.421 74.7263 231.637 73.8468C231.854 72.9333 232.168 72.2757 232.581 71.8742C233.235 71.2383 233.944 70.9003 234.708 70.86C235.49 70.803 236.157 71.0584 236.709 71.6261C237.914 72.8649 238.904 74.2959 239.679 75.919C240.437 77.525 240.906 79.1948 241.085 80.9284C241.161 81.5914 241.168 82.2874 241.107 83.0163C241.046 83.7453 240.934 84.4565 240.772 85.1501C240.593 85.8265 240.372 86.443 240.11 86.9994C239.848 87.5558 239.553 87.993 239.226 88.3109C238.916 88.6121 238.583 88.8196 238.225 88.9334C237.867 89.0133 237.553 89.0005 237.283 88.8949C237.569 87.8466 237.688 86.6602 237.638 85.3356C237.589 84.0111 237.387 82.6336 237.034 81.203C236.681 79.7385 236.183 78.2804 235.542 76.8288C234.917 75.3605 234.173 73.9754 233.308 72.6735C232.989 73.6534 232.764 74.6092 232.632 75.5409C232.501 76.4386 232.495 77.4653 232.614 78.6211C232.731 79.9805 232.835 81.0681 232.925 81.8841C233.016 82.7 233.1 83.3885 233.177 83.9497C233.271 84.4941 233.383 84.9879 233.513 85.431C233.643 85.8401 233.822 86.3348 234.052 86.915C234.347 87.6999 234.774 88.7072 235.334 89.937C235.894 91.1328 236.546 92.4572 237.29 93.9102C238.05 95.3465 238.869 96.8599 239.747 98.4506C240.658 100.042 241.57 101.616 242.481 103.173C242.259 103.323 241.961 103.344 241.59 103.237C241.301 103.216 241.089 103.205 240.954 103.203C240.835 103.184 240.716 103.199 240.596 103.249ZM244.233 79.8763C243.496 79.1193 242.648 77.8855 241.687 76.1749C240.71 74.4471 239.662 72.3534 238.542 69.8938C236.781 65.9487 235.428 62.5609 234.483 59.7304C233.538 56.8659 232.986 54.4566 232.827 52.5026C233.066 52.3362 233.4 52.1796 233.826 52.0328C234.27 51.8693 234.721 51.7313 235.181 51.6189C235.624 51.4893 236.041 51.4017 236.432 51.3563C236.84 51.2941 237.129 51.2811 237.298 51.3174C237.496 54.2054 237.974 57.0549 238.732 59.8659C239.491 62.6769 240.595 65.6709 242.044 68.8479C243.296 71.5809 244.527 73.9487 245.738 75.9513C246.933 77.9367 248.057 79.4713 249.111 80.5553C249.396 80.8478 249.571 81.0284 249.638 81.0972C249.705 81.1661 249.781 81.2265 249.865 81.2786C249.591 81.4784 249.326 81.619 249.07 81.7003C248.814 81.7816 248.602 81.7871 248.433 81.7169C248.315 81.6643 248.095 81.6273 247.773 81.6059C247.467 81.6016 247.213 81.6151 247.008 81.6462C246.753 81.6935 246.365 81.5523 245.843 81.2226C245.305 80.8757 244.768 80.4269 244.233 79.8763ZM249.55 57.129C250.519 58.2626 251.224 59.3672 251.668 60.4426C252.094 61.5008 252.3 62.6069 252.283 63.7607C252.268 64.8807 252.073 66.0745 251.699 67.3422C251.325 68.6099 250.796 69.9943 250.114 71.4953C250.214 71.5986 250.314 71.7188 250.414 71.8559C250.515 71.9592 250.623 72.071 250.74 72.1914C250.958 72.4151 251.201 72.6306 251.47 72.838C251.738 73.0454 252.016 73.2105 252.303 73.3333C252.59 73.4561 252.878 73.5111 253.166 73.4981C253.438 73.468 253.695 73.3357 253.936 73.1015C254.4 72.6497 254.756 72.1031 255.002 71.4615C255.249 70.82 255.428 70.1606 255.539 69.4833C255.651 68.772 255.711 68.077 255.721 67.3982C255.731 66.6855 255.731 66.0491 255.722 65.4889C256.044 65.4764 256.333 65.4804 256.587 65.5009C256.817 67.2862 256.802 68.9747 256.542 70.5665C256.283 72.1243 255.832 73.3994 255.19 74.3919C253.869 75.4088 252.522 75.8822 251.148 75.8122C249.775 75.7082 248.586 75.1401 247.582 74.1077C246.896 73.4023 246.297 72.5963 245.783 71.6896C245.27 70.749 244.859 69.7759 244.551 68.7702C244.243 67.7306 244.028 66.6838 243.907 65.6299C243.803 64.5592 243.8 63.5408 243.899 62.5748C244.014 61.592 244.23 60.6955 244.547 59.8852C244.881 59.0582 245.332 58.3686 245.9 57.8165C246.792 57.15 248.008 56.9208 249.55 57.129ZM248.597 59.7125C248.2 60.2331 247.902 60.8908 247.704 61.6858C247.507 62.4807 247.435 63.3538 247.49 64.305C247.562 65.2395 247.752 66.2265 248.06 67.2661C248.368 68.3057 248.803 69.3216 249.366 70.3138C250.073 68.287 250.398 66.3312 250.339 64.4465C250.264 62.5446 249.683 60.9666 248.597 59.7125ZM251.708 56.5872C251.521 56.5676 251.235 56.4279 250.848 56.1679C250.444 55.8907 250.126 55.6317 249.891 55.3908C250.372 54.9902 250.836 54.6063 251.282 54.2391C251.712 53.8547 252.107 53.5038 252.468 53.1864C252.224 52.4192 252.006 51.644 251.813 50.8606C251.621 50.0432 251.461 49.2942 251.335 48.6136C251.209 47.899 251.124 47.2783 251.081 46.7516C251.055 46.2081 251.068 45.8264 251.122 45.6065C251.294 45.4392 251.543 45.2645 251.868 45.0823C252.193 44.8662 252.544 44.6759 252.92 44.5114C253.279 44.3297 253.62 44.1817 253.944 44.0674C254.268 43.9531 254.523 43.9057 254.71 43.9253C254.83 45.0811 254.976 46.1269 255.15 47.0628C255.324 47.9648 255.547 48.9862 255.82 50.1271C256.164 49.7925 256.5 49.4492 256.827 49.0974C257.172 48.7288 257.508 48.3516 257.836 47.9658C258.006 47.9681 258.183 48.0131 258.369 48.1005C258.537 48.1707 258.689 48.2747 258.823 48.4123C258.281 49.5419 257.424 50.7096 256.253 51.9153C256.626 53.1594 257.042 54.3617 257.502 55.5222C257.961 56.6488 258.439 57.7077 258.934 58.699C259.446 59.6736 259.96 60.5633 260.475 61.3681C261.007 62.1563 261.533 62.817 262.051 63.3504C262.788 64.1074 263.482 64.2528 264.133 63.7867C264.582 63.2159 264.947 62.61 265.228 61.9689C265.508 61.3279 265.687 60.6854 265.764 60.0416C266.017 60.096 266.203 60.1665 266.321 60.253C266.368 60.5082 266.363 60.8646 266.306 61.322C266.266 61.7627 266.191 62.22 266.083 62.6937C265.991 63.1846 265.875 63.6327 265.733 64.0381C265.592 64.4435 265.461 64.7217 265.34 64.8727C264.893 65.2739 264.371 65.5975 263.773 65.8438C263.176 66.0901 262.571 66.2599 261.959 66.3532C261.364 66.4297 260.804 66.4219 260.279 66.3298C259.737 66.2204 259.316 66.0109 259.015 65.7012C258.613 65.2883 258.163 64.7219 257.664 64.0021C257.165 63.2484 256.659 62.4012 256.146 61.4606C255.633 60.52 255.121 59.5115 254.61 58.4352C254.099 57.3588 253.622 56.2659 253.179 55.1566L251.708 56.5872ZM266.558 40.5881C267.526 41.7218 268.232 42.8263 268.676 43.9018C269.102 44.96 269.307 46.066 269.291 47.2199C269.276 48.3399 269.081 49.5337 268.707 50.8014C268.333 52.0691 267.804 53.4535 267.122 54.9545C267.222 55.0577 267.322 55.1779 267.422 55.3151C267.522 55.4183 267.631 55.5301 267.748 55.6506C267.966 55.8743 268.209 56.0898 268.478 56.2972C268.746 56.5046 269.024 56.6697 269.311 56.7925C269.598 56.9153 269.885 56.9702 270.174 56.9573C270.446 56.9271 270.703 56.7949 270.943 56.5606C271.408 56.1089 271.763 55.5622 272.01 54.9207C272.257 54.2792 272.435 53.6198 272.547 52.9424C272.658 52.2312 272.719 51.5361 272.729 50.8574C272.738 50.1447 272.739 49.5082 272.73 48.948C273.052 48.9355 273.341 48.9396 273.595 48.9601C273.825 50.7454 273.81 52.4339 273.55 54.0256C273.291 55.5835 272.84 56.8586 272.198 57.851C270.877 58.868 269.53 59.3414 268.156 59.2713C266.783 59.1674 265.594 58.5992 264.59 57.5669C263.904 56.8615 263.304 56.0555 262.791 55.1488C262.278 54.2082 261.867 53.235 261.559 52.2294C261.251 51.1898 261.036 50.143 260.915 49.089C260.811 48.0183 260.808 47 260.907 46.0339C261.022 45.0511 261.238 44.1546 261.555 43.3444C261.889 42.5174 262.34 41.8278 262.908 41.2756C263.8 40.6091 265.016 40.38 266.558 40.5881ZM265.605 43.1716C265.208 43.6922 264.91 44.35 264.712 45.1449C264.515 45.9399 264.443 46.813 264.498 47.7642C264.569 48.6986 264.759 49.6857 265.067 50.7253C265.375 51.7649 265.811 52.7808 266.374 53.773C267.081 51.7462 267.406 49.7904 267.347 47.9057C267.272 46.0037 266.691 44.4257 265.605 43.1716ZM270.887 33.7162C271.231 33.3816 271.727 33.0999 272.375 32.8713C273.024 32.6428 273.679 32.5246 274.341 32.5168C273.585 31.9123 272.846 31.3759 272.123 30.9075C271.4 30.4053 270.592 29.9527 269.698 29.5499C268.821 29.1304 267.8 28.7343 266.634 28.3617C265.468 27.989 264.09 27.6049 262.5 27.2094C262.401 27.0044 262.337 26.7149 262.309 26.3412C262.297 25.9506 262.319 25.5606 262.376 25.171C262.433 24.7475 262.514 24.3498 262.621 23.9779C262.746 23.5893 262.903 23.269 263.093 23.017C264.094 23.0819 265.202 23.3095 266.419 23.6998C267.618 24.0729 268.834 24.5651 270.064 25.1762C271.278 25.7702 272.448 26.4738 273.573 27.2872C274.716 28.0838 275.723 28.9295 276.593 29.8241C277.463 30.7188 278.255 31.7397 278.969 32.8868C279.7 34.0171 280.328 35.2139 280.854 36.4772C281.38 37.7065 281.804 38.9514 282.126 40.2118C282.448 41.4722 282.643 42.6884 282.711 43.8605C282.797 45.0158 282.74 46.0758 282.54 47.0404C282.356 48.0222 282.022 48.8492 281.538 49.5213C280.217 50.5383 278.928 51.038 277.673 51.0205C276.451 51.0035 275.305 50.4444 274.234 49.3433C273.665 48.7583 273.132 48.0381 272.634 47.1825C272.154 46.3103 271.734 45.3964 271.374 44.4409C271.015 43.4515 270.723 42.4461 270.5 41.4247C270.277 40.3693 270.138 39.366 270.083 38.4148C270.046 37.4469 270.084 36.5564 270.197 35.7433C270.31 34.9302 270.54 34.2545 270.887 33.7162ZM280.327 48.6898C280.729 47.8977 280.888 46.8561 280.804 45.5651C280.72 44.274 280.459 42.9211 280.02 41.5063C279.565 40.0743 278.956 38.6741 278.195 37.3057C277.433 35.9034 276.559 34.6947 275.572 33.6796C275.288 33.3871 275.112 33.2065 275.045 33.1376C274.978 33.0688 274.902 33.0084 274.818 32.9563C274.573 33.5299 274.418 34.2491 274.355 35.1138C274.293 35.9785 274.296 36.912 274.367 37.9144C274.422 38.8995 274.552 39.9112 274.758 40.9493C274.964 41.9875 275.213 42.9839 275.506 43.9384C275.798 44.8929 276.134 45.7547 276.513 46.5237C276.893 47.2927 277.3 47.9009 277.735 48.3482C278.572 49.2085 279.436 49.3224 280.327 48.6898Z" fill="#AAAAFF"/>
<path d="M39.6574 12.5H38.7381L38.3209 13.3191C34.3809 21.0535 27.2843 27.2428 18.4806 30.4923L17.5 30.8543V31.8995V33.7242V35.2242L19 35.2242C20.6179 35.2243 21.6771 36.3838 21.6771 37.5174C21.6771 38.6509 20.6179 39.8104 19 39.8105L17.5 39.8105V41.3105V46.6207V48.1207L19 48.1207C20.6179 48.1208 21.6771 49.2803 21.6771 50.4138C21.6771 51.5474 20.6179 52.7069 19 52.707L17.5 52.707V54.207V59.5173V61.0173L19 61.0173C20.6179 61.0174 21.6771 62.1769 21.6771 63.3105C21.6771 64.444 20.6179 65.6035 19 65.6036L17.5 65.6036V67.1036V72.4141V73.914L19 73.9141C20.6179 73.9141 21.6771 75.0736 21.6771 76.2072C21.6771 77.3407 20.6179 78.5003 19 78.5003L17.5 78.5003V80.0003V85.3107V86.8106L19 86.8107C20.6179 86.8107 21.6771 87.9702 21.6771 89.1038C21.6771 90.2374 20.6179 91.3969 19 91.3969L17.5 91.3969V92.8969V98.2072V99.7071L19 99.7072C20.6179 99.7072 21.6771 100.867 21.6771 102C21.6771 103.134 20.6179 104.293 19 104.293L17.5 104.293V105.793V106.86V107.905L18.4806 108.267C27.5581 111.617 34.8196 118.093 38.6786 126.165L39.0864 127.018H40.0319H261.133H262.078L262.486 126.165C266.459 117.855 274.037 111.238 283.489 107.98L284.5 107.631L284.5 106.561L284.5 105.793L284.5 104.293H283C281.382 104.293 280.323 103.134 280.323 102C280.323 100.867 281.382 99.7072 283 99.7072H284.5V98.2072V92.8969V91.3969H283C281.382 91.3969 280.323 90.2374 280.323 89.1038C280.323 87.9702 281.382 86.8107 283 86.8107H284.5V85.3107V80.0003V78.5003H283C281.382 78.5003 280.323 77.3408 280.323 76.2072C280.323 75.0736 281.382 73.9141 283 73.9141H284.5V72.4141V67.1036V65.6036H283C281.382 65.6036 280.323 64.444 280.323 63.3105C280.323 62.1769 281.382 61.0173 283 61.0173H284.5V59.5173V54.207V52.707H283C281.382 52.707 280.323 51.5474 280.323 50.4138C280.323 49.2803 281.382 48.1207 283 48.1207H284.5V46.6207V41.3105V39.8105H283C281.382 39.8105 280.323 38.6509 280.323 37.5174C280.323 36.3838 281.382 35.2242 283 35.2242H284.5L284.5 33.7244L284.5 32.1978L284.5 31.1281L283.489 30.7795C274.314 27.6168 266.903 21.2881 262.844 13.3191L262.427 12.5H261.507H39.6574Z" stroke="url(#paint0_linear_619_60)" stroke-opacity="0.65" stroke-width="3"/>
<path d="M39.6574 12.5H38.7381L38.3209 13.3191C34.3809 21.0535 27.2843 27.2428 18.4806 30.4923L17.5 30.8543V31.8995V33.7242V35.2242L19 35.2242C20.6179 35.2243 21.6771 36.3838 21.6771 37.5174C21.6771 38.6509 20.6179 39.8104 19 39.8105L17.5 39.8105V41.3105V46.6207V48.1207L19 48.1207C20.6179 48.1208 21.6771 49.2803 21.6771 50.4138C21.6771 51.5474 20.6179 52.7069 19 52.707L17.5 52.707V54.207V59.5173V61.0173L19 61.0173C20.6179 61.0174 21.6771 62.1769 21.6771 63.3105C21.6771 64.444 20.6179 65.6035 19 65.6036L17.5 65.6036V67.1036V72.4141V73.914L19 73.9141C20.6179 73.9141 21.6771 75.0736 21.6771 76.2072C21.6771 77.3407 20.6179 78.5003 19 78.5003L17.5 78.5003V80.0003V85.3107V86.8106L19 86.8107C20.6179 86.8107 21.6771 87.9702 21.6771 89.1038C21.6771 90.2374 20.6179 91.3969 19 91.3969L17.5 91.3969V92.8969V98.2072V99.7071L19 99.7072C20.6179 99.7072 21.6771 100.867 21.6771 102C21.6771 103.134 20.6179 104.293 19 104.293L17.5 104.293V105.793V106.86V107.905L18.4806 108.267C27.5581 111.617 34.8196 118.093 38.6786 126.165L39.0864 127.018H40.0319H261.133H262.078L262.486 126.165C266.459 117.855 274.037 111.238 283.489 107.98L284.5 107.631L284.5 106.561L284.5 105.793L284.5 104.293H283C281.382 104.293 280.323 103.134 280.323 102C280.323 100.867 281.382 99.7072 283 99.7072H284.5V98.2072V92.8969V91.3969H283C281.382 91.3969 280.323 90.2374 280.323 89.1038C280.323 87.9702 281.382 86.8107 283 86.8107H284.5V85.3107V80.0003V78.5003H283C281.382 78.5003 280.323 77.3408 280.323 76.2072C280.323 75.0736 281.382 73.9141 283 73.9141H284.5V72.4141V67.1036V65.6036H283C281.382 65.6036 280.323 64.444 280.323 63.3105C280.323 62.1769 281.382 61.0173 283 61.0173H284.5V59.5173V54.207V52.707H283C281.382 52.707 280.323 51.5474 280.323 50.4138C280.323 49.2803 281.382 48.1207 283 48.1207H284.5V46.6207V41.3105V39.8105H283C281.382 39.8105 280.323 38.6509 280.323 37.5174C280.323 36.3838 281.382 35.2242 283 35.2242H284.5L284.5 33.7244L284.5 32.1978L284.5 31.1281L283.489 30.7795C274.314 27.6168 266.903 21.2881 262.844 13.3191L262.427 12.5H261.507H39.6574Z" stroke="#FEFEFE" stroke-width="3"/>
<path d="M44.4 14.6L44.4 124.918H40.4077C36.3145 116.595 28.8444 109.962 19.6 106.444V106.359C21.9135 106.089 23.7771 104.285 23.7771 102C23.7771 99.7155 21.9135 97.9111 19.6 97.6419V93.4622C21.9135 93.193 23.7771 91.3886 23.7771 89.1038C23.7771 86.819 21.9135 85.0146 19.6 84.7454V80.5656C21.9135 80.2964 23.7771 78.492 23.7771 76.2072C23.7771 73.9224 21.9135 72.118 19.6 71.8488V67.6688C21.9135 67.3996 23.7771 65.5952 23.7771 63.3105C23.7771 61.0257 21.9135 59.2213 19.6 58.9521V54.7722C21.9135 54.503 23.7771 52.6986 23.7771 50.4138C23.7771 48.1291 21.9135 46.3247 19.6 46.0555V41.8758C21.9135 41.6066 23.7771 39.8021 23.7771 37.5174C23.7771 35.2326 21.9135 33.4282 19.6 33.159V32.3154C28.562 28.9042 35.8561 22.567 40.0229 14.6H44.4ZM282.4 32.6231L282.4 33.1589C280.086 33.4281 278.223 35.2325 278.223 37.5174C278.223 39.8022 280.086 41.6066 282.4 41.8758V46.0554C280.086 46.3246 278.223 48.129 278.223 50.4138C278.223 52.6987 280.086 54.5031 282.4 54.7723V58.952C280.086 59.2212 278.223 61.0256 278.223 63.3105C278.223 65.5953 280.086 67.3997 282.4 67.6689V71.8488C280.086 72.1179 278.223 73.9224 278.223 76.2072C278.223 78.492 280.086 80.2964 282.4 80.5656V84.7454C280.086 85.0145 278.223 86.819 278.223 89.1038C278.223 91.3886 280.086 93.193 282.4 93.4622V97.6419C280.086 97.911 278.223 99.7154 278.223 102C278.223 104.143 279.861 105.863 281.973 106.291C272.54 109.768 264.91 116.473 260.757 124.918H45.6L45.6 14.6H261.142C265.437 22.813 273.056 29.2941 282.4 32.6231Z" stroke="url(#paint1_linear_619_60)" stroke-opacity="0.65" stroke-width="1.2"/>
<defs>
<linearGradient id="paint0_linear_619_60" x1="151" y1="14" x2="151" y2="125.518" gradientUnits="userSpaceOnUse">
<stop stop-color="#26265C" stop-opacity="0.61"/>
<stop offset="1" stop-color="#7070FF" stop-opacity="0.74"/>
</linearGradient>
<linearGradient id="paint1_linear_619_60" x1="151" y1="14" x2="151" y2="125.518" gradientUnits="userSpaceOnUse">
<stop stop-color="#26265C" stop-opacity="0.61"/>
<stop offset="1" stop-color="#7070FF" stop-opacity="0.74"/>
</linearGradient>
</defs>
</svg>
