<svg width="32" height="32" viewBox="0 0 32 32" fill="none" xmlns="http://www.w3.org/2000/svg">
<path d="M14.4109 4.17952C14.8682 3.40298 16.0833 3.4418 16.4898 4.23008C17.8586 6.88466 19.1258 8.84316 20.7173 10.4635C22.3125 12.0876 24.1859 13.3236 26.7012 14.6008C27.518 15.0156 27.561 16.2914 26.7621 16.7615C24.7777 17.9291 22.3845 19.5049 20.7684 21.1528C19.2332 22.7182 17.7587 25.002 16.6606 26.8986C16.1995 27.6949 14.8937 27.695 14.4334 26.9051C13.287 24.9379 11.7368 22.5456 10.1518 20.9607C8.57417 19.383 6.19683 17.8399 4.23553 16.6955C3.44403 16.2337 3.44396 14.9147 4.24793 14.4508C6.1428 13.3575 8.4176 11.8863 9.96664 10.3372C11.5829 8.72102 13.2117 6.21573 14.4109 4.17952Z" fill="#131111" fill-opacity="0.15" stroke="#AAAAFF" stroke-width="2"/>
</svg>
