<svg width="60" height="34" viewBox="0 0 60 34" fill="none" xmlns="http://www.w3.org/2000/svg">
<g filter="url(#filter0_d_1315_239)">
<g filter="url(#filter1_b_1315_239)">
<rect x="4" y="4" width="52" height="26" rx="13" fill="white" fill-opacity="0.46"/>
<path d="M22.9266 21L23.4588 19.3691H26.0174L26.5496 21H28.1219L25.6805 13.9297H23.7957L21.3445 21H22.9266ZM23.8299 18.2266L24.7137 15.5215H24.7625L25.6463 18.2266H23.8299ZM29.3434 21H30.7887V17.9824C30.7838 17.333 31.2672 16.8789 31.9215 16.8789C32.1217 16.8789 32.4 16.9131 32.5367 16.957V15.668C32.4098 15.6387 32.2242 15.6191 32.0777 15.6191C31.482 15.6191 30.9889 15.9658 30.7984 16.6152H30.7398V15.6973H29.3434V21ZM36.7465 15.6973H35.7504V14.4277H34.3051V15.6973H33.5727V16.7812H34.3051V19.5742C34.2953 20.6045 35.0082 21.0732 36.0531 21.0684C36.4096 21.0732 36.6684 21.0439 36.8246 21.0195V19.877C36.6488 19.8916 36.3949 19.9062 36.2484 19.9062C35.9555 19.8965 35.7455 19.7939 35.7504 19.3691V16.7812H36.7465V15.6973ZM41.0539 17.2695H42.4113C42.3332 16.2637 41.5031 15.6289 40.1652 15.6289C38.798 15.6289 37.924 16.2637 37.9289 17.2793C37.924 18.0654 38.4416 18.583 39.4523 18.7832L40.3312 18.959C40.8293 19.0615 41.0539 19.2324 41.0539 19.5059C41.0539 19.8477 40.7023 20.0576 40.175 20.0625C39.6428 20.0576 39.3059 19.8428 39.2375 19.4277H37.7824C37.9045 20.4629 38.7443 21.1025 40.175 21.1074C41.5861 21.1025 42.5236 20.4043 42.5285 19.3594C42.5236 18.5977 42.0256 18.1387 40.9953 17.9238L40.048 17.7285C39.5451 17.626 39.3596 17.4404 39.3645 17.2012C39.3596 16.8789 39.716 16.6592 40.1848 16.6543C40.6682 16.6592 40.9904 16.8984 41.0539 17.2695Z" fill="#FEFEFE"/>
</g>
<path fill-rule="evenodd" clip-rule="evenodd" d="M16.8573 15.208L16.6479 16.2548C16.6493 16.2712 16.65 16.2877 16.65 16.3044C16.65 16.622 16.3926 16.8794 16.075 16.8794C15.7574 16.8794 15.5 16.622 15.5 16.3044C15.5 15.9869 15.7574 15.7294 16.075 15.7294C16.206 15.7294 16.3268 15.7733 16.4235 15.847L16.6128 14.9006C16.5775 14.861 16.5414 14.8223 16.5044 14.7844C16.5414 14.8223 16.5775 14.861 16.6128 14.9006L16.8529 13.7L17.15 13.7294V14.5223C17.15 14.9353 17.3141 15.3313 17.6061 15.6234L17.3939 15.8355C17.1533 15.5949 16.9855 15.295 16.9048 14.9702L16.8573 15.2076C17.2621 15.7786 17.5 16.4763 17.5 17.2294C17.5 16.5275 17.289 15.8418 16.8943 15.2614C16.8821 15.2435 16.8698 15.2257 16.8573 15.208ZM15.5 17.2294H17.5C17.5 19.1624 15.933 20.7294 14 20.7294C12.067 20.7294 10.5 19.1624 10.5 17.2294C10.5 15.2964 12.067 13.7294 14 13.7294C14.9401 13.7294 15.7936 14.1001 16.4224 14.7031C16.0963 14.3905 15.7112 14.1423 15.2868 13.9746L14.5516 15.8341C14.3809 15.7666 14.1948 15.7294 14 15.7294C13.1716 15.7294 12.5 16.401 12.5 17.2294C12.5 18.0579 13.1716 18.7294 14 18.7294C14.8284 18.7294 15.5 18.0579 15.5 17.2294ZM15.1 17.2294H15.5C15.5 16.5958 15.1071 16.0539 14.5516 15.8341L14.4045 16.2062C14.2793 16.1567 14.1428 16.1294 14 16.1294C13.3925 16.1294 12.9 16.6219 12.9 17.2294C12.9 17.8369 13.3925 18.3294 14 18.3294C14.6075 18.3294 15.1 17.8369 15.1 17.2294ZM14.5 17.2294H15.1C15.1 16.7648 14.8119 16.3674 14.4045 16.2062L14.1839 16.7643C14.127 16.7418 14.0649 16.7294 14 16.7294C13.7239 16.7294 13.5 16.9533 13.5 17.2294C13.5 17.5056 13.7239 17.7294 14 17.7294C14.2761 17.7294 14.5 17.5056 14.5 17.2294ZM14.5 17.2294H14L14.1839 16.7643C14.369 16.8376 14.5 17.0182 14.5 17.2294Z" fill="#5959FF"/>
</g>
<defs>
<filter id="filter0_d_1315_239" x="0" y="0" width="60" height="34" filterUnits="userSpaceOnUse" color-interpolation-filters="sRGB">
<feFlood flood-opacity="0" result="BackgroundImageFix"/>
<feColorMatrix in="SourceAlpha" type="matrix" values="0 0 0 0 0 0 0 0 0 0 0 0 0 0 0 0 0 0 127 0" result="hardAlpha"/>
<feOffset/>
<feGaussianBlur stdDeviation="2"/>
<feComposite in2="hardAlpha" operator="out"/>
<feColorMatrix type="matrix" values="0 0 0 0 0 0 0 0 0 0 0 0 0 0 0 0 0 0 0.25 0"/>
<feBlend mode="normal" in2="BackgroundImageFix" result="effect1_dropShadow_1315_239"/>
<feBlend mode="normal" in="SourceGraphic" in2="effect1_dropShadow_1315_239" result="shape"/>
</filter>
<filter id="filter1_b_1315_239" x="0" y="0" width="60" height="34" filterUnits="userSpaceOnUse" color-interpolation-filters="sRGB">
<feFlood flood-opacity="0" result="BackgroundImageFix"/>
<feGaussianBlur in="BackgroundImageFix" stdDeviation="2"/>
<feComposite in2="SourceAlpha" operator="in" result="effect1_backgroundBlur_1315_239"/>
<feBlend mode="normal" in="SourceGraphic" in2="effect1_backgroundBlur_1315_239" result="shape"/>
</filter>
</defs>
</svg>
