<svg width="109" height="30" viewBox="0 0 109 30" fill="none" xmlns="http://www.w3.org/2000/svg">
<path d="M10.4417 7.68328C10.9037 6.26143 11.1347 5.5505 11.4817 5.35976C11.7817 5.19484 12.1452 5.19484 12.4452 5.35976C12.7921 5.5505 13.0231 6.26143 13.4851 7.68328L14.2901 10.1609C14.4193 10.5583 14.4838 10.757 14.6054 10.9039C14.7128 11.0337 14.8512 11.1343 15.0078 11.1963C15.1852 11.2665 15.394 11.2665 15.8118 11.2665H18.417C19.912 11.2665 20.6595 11.2665 20.9482 11.5375C21.1977 11.7719 21.31 12.1176 21.2459 12.4539C21.1717 12.8428 20.567 13.2822 19.3575 14.1609L17.2498 15.6922C16.9118 15.9378 16.7428 16.0606 16.6406 16.2216C16.5504 16.3639 16.4975 16.5266 16.4869 16.6947C16.4749 16.8851 16.5395 17.0837 16.6686 17.4811L17.4736 19.9587C17.9356 21.3806 18.1666 22.0915 17.998 22.4498C17.8523 22.7595 17.5582 22.9732 17.2186 23.0161C16.8257 23.0657 16.221 22.6263 15.0115 21.7476L12.9039 20.2163C12.5659 19.9707 12.3969 19.848 12.2121 19.8005C12.049 19.7586 11.8779 19.7586 11.7147 19.8005C11.53 19.848 11.361 19.9707 11.023 20.2163L8.91533 21.7476C7.70583 22.6263 7.10108 23.0657 6.70828 23.0161C6.36863 22.9732 6.07454 22.7595 5.92878 22.4498C5.7602 22.0915 5.9912 21.3806 6.45319 19.9587L7.25823 17.4811C7.38733 17.0837 7.45188 16.8851 7.43991 16.6947C7.42933 16.5266 7.37646 16.3639 7.28621 16.2216C7.18399 16.0606 7.01499 15.9378 6.67699 15.6922L4.56937 14.1609C3.35987 13.2822 2.75512 12.8428 2.68093 12.4539C2.61678 12.1176 2.72911 11.7719 2.97867 11.5375C3.26729 11.2665 4.0148 11.2665 5.50983 11.2665H8.11499C8.53278 11.2665 8.74168 11.2665 8.91904 11.1963C9.07565 11.1343 9.21406 11.0337 9.32143 10.9039C9.44303 10.757 9.50758 10.5583 9.63668 10.1609L10.4417 7.68328Z" fill="#D9D9D9"/>
<path d="M31.71 7.68328C32.172 6.26143 32.403 5.5505 32.75 5.35976C33.05 5.19484 33.4135 5.19484 33.7135 5.35976C34.0604 5.5505 34.2914 6.26143 34.7534 7.68328L35.5585 10.1609C35.6876 10.5583 35.7521 10.757 35.8737 10.9039C35.9811 11.0337 36.1195 11.1343 36.2761 11.1963C36.4535 11.2665 36.6624 11.2665 37.0801 11.2665H39.6853C41.1803 11.2665 41.9279 11.2665 42.2165 11.5375C42.466 11.7719 42.5784 12.1176 42.5142 12.4539C42.44 12.8428 41.8353 13.2822 40.6258 14.1609L38.5181 15.6922C38.1801 15.9378 38.0111 16.0606 37.9089 16.2216C37.8187 16.3639 37.7658 16.5266 37.7552 16.6947C37.7433 16.8851 37.8078 17.0837 37.9369 17.4811L38.742 19.9587C39.2039 21.3806 39.4349 22.0915 39.2664 22.4498C39.1206 22.7595 38.8265 22.9732 38.4869 23.0161C38.0941 23.0657 37.4893 22.6263 36.2798 21.7476L34.1722 20.2163C33.8342 19.9707 33.6652 19.848 33.4804 19.8005C33.3173 19.7586 33.1462 19.7586 32.983 19.8005C32.7983 19.848 32.6293 19.9707 32.2913 20.2163L30.1836 21.7476C28.9741 22.6263 28.3694 23.0657 27.9766 23.0161C27.6369 22.9732 27.3429 22.7595 27.1971 22.4498C27.0285 22.0915 27.2595 21.3806 27.7215 19.9587L28.5265 17.4811C28.6556 17.0837 28.7202 16.8851 28.7082 16.6947C28.6976 16.5266 28.6448 16.3639 28.5545 16.2216C28.4523 16.0606 28.2833 15.9378 27.9453 15.6922L25.8377 14.1609C24.6282 13.2822 24.0234 12.8428 23.9492 12.4539C23.8851 12.1176 23.9974 11.7719 24.247 11.5375C24.5356 11.2665 25.2831 11.2665 26.7781 11.2665H29.3833C29.8011 11.2665 30.01 11.2665 30.1874 11.1963C30.344 11.1343 30.4824 11.0337 30.5897 10.9039C30.7113 10.757 30.7759 10.5583 30.905 10.1609L31.71 7.68328Z" fill="#D9D9D9"/>
<path d="M52.9787 7.68328C53.4407 6.26143 53.6717 5.5505 54.0186 5.35976C54.3186 5.19484 54.6822 5.19484 54.9822 5.35976C55.3291 5.5505 55.5601 6.26143 56.0221 7.68328L56.8271 10.1609C56.9562 10.5583 57.0208 10.757 57.1424 10.9039C57.2498 11.0337 57.3882 11.1343 57.5448 11.1963C57.7221 11.2665 57.931 11.2665 58.3488 11.2665H60.954C62.449 11.2665 63.1965 11.2665 63.4851 11.5375C63.7347 11.7719 63.847 12.1176 63.7829 12.4539C63.7087 12.8428 63.1039 13.2822 61.8944 14.1609L59.7868 15.6922C59.4488 15.9378 59.2798 16.0606 59.1776 16.2216C59.0874 16.3639 59.0345 16.5266 59.0239 16.6947C59.0119 16.8851 59.0765 17.0837 59.2056 17.4811L60.0106 19.9587C60.4726 21.3806 60.7036 22.0915 60.535 22.4498C60.3893 22.7595 60.0952 22.9732 59.7555 23.0161C59.3627 23.0657 58.758 22.6263 57.5485 21.7476L55.4409 20.2163C55.1029 19.9707 54.9339 19.848 54.7491 19.8005C54.5859 19.7586 54.4149 19.7586 54.2517 19.8005C54.0669 19.848 53.8979 19.9707 53.5599 20.2163L51.4523 21.7476C50.2428 22.6263 49.6381 23.0657 49.2453 23.0161C48.9056 22.9732 48.6115 22.7595 48.4658 22.4498C48.2972 22.0915 48.5282 21.3806 48.9902 19.9587L49.7952 17.4811C49.9243 17.0837 49.9889 16.8851 49.9769 16.6947C49.9663 16.5266 49.9134 16.3639 49.8232 16.2216C49.721 16.0606 49.552 15.9378 49.214 15.6922L47.1064 14.1609C45.8969 13.2822 45.2921 12.8428 45.2179 12.4539C45.1538 12.1176 45.2661 11.7719 45.5157 11.5375C45.8043 11.2665 46.5518 11.2665 48.0468 11.2665H50.652C51.0698 11.2665 51.2787 11.2665 51.456 11.1963C51.6126 11.1343 51.7511 11.0337 51.8584 10.9039C51.98 10.757 52.0446 10.5583 52.1737 10.1609L52.9787 7.68328Z" fill="#D9D9D9"/>
<path d="M95.5148 7.68328C95.9768 6.26143 96.2078 5.5505 96.5548 5.35976C96.8548 5.19484 97.2183 5.19484 97.5183 5.35976C97.8652 5.5505 98.0962 6.26143 98.5582 7.68328L99.3633 10.1609C99.4924 10.5583 99.5569 10.757 99.6785 10.9039C99.7859 11.0337 99.9243 11.1343 100.081 11.1963C100.258 11.2665 100.467 11.2665 100.885 11.2665H103.49C104.985 11.2665 105.733 11.2665 106.021 11.5375C106.271 11.7719 106.383 12.1176 106.319 12.4539C106.245 12.8428 105.64 13.2822 104.431 14.1609L102.323 15.6922C101.985 15.9378 101.816 16.0606 101.714 16.2216C101.623 16.3639 101.571 16.5266 101.56 16.6947C101.548 16.8851 101.613 17.0837 101.742 17.4811L102.547 19.9587C103.009 21.3806 103.24 22.0915 103.071 22.4498C102.925 22.7595 102.631 22.9732 102.292 23.0161C101.899 23.0657 101.294 22.6263 100.085 21.7476L97.977 20.2163C97.639 19.9707 97.47 19.848 97.2852 19.8005C97.1221 19.7586 96.951 19.7586 96.7878 19.8005C96.6031 19.848 96.4341 19.9707 96.0961 20.2163L93.9885 21.7476C92.779 22.6263 92.1742 23.0657 91.7814 23.0161C91.4418 22.9732 91.1477 22.7595 91.0019 22.4498C90.8333 22.0915 91.0643 21.3806 91.5263 19.9587L92.3313 17.4811C92.4605 17.0837 92.525 16.8851 92.513 16.6947C92.5024 16.5266 92.4496 16.3639 92.3593 16.2216C92.2571 16.0606 92.0881 15.9378 91.7501 15.6922L89.6425 14.1609C88.433 13.2822 87.8282 12.8428 87.754 12.4539C87.6899 12.1176 87.8022 11.7719 88.0518 11.5375C88.3404 11.2665 89.0879 11.2665 90.5829 11.2665H93.1881C93.6059 11.2665 93.8148 11.2665 93.9922 11.1963C94.1488 11.1343 94.2872 11.0337 94.3946 10.9039C94.5161 10.757 94.5807 10.5583 94.7098 10.1609L95.5148 7.68328Z" fill="#D9D9D9"/>
<path d="M10.4417 7.68328C10.9037 6.26143 11.1347 5.5505 11.4817 5.35976C11.7817 5.19484 12.1452 5.19484 12.4452 5.35976C12.7921 5.5505 13.0231 6.26143 13.4851 7.68328L14.2901 10.1609C14.4193 10.5583 14.4838 10.757 14.6054 10.9039C14.7128 11.0337 14.8512 11.1343 15.0078 11.1963C15.1852 11.2665 15.394 11.2665 15.8118 11.2665H18.417C19.912 11.2665 20.6595 11.2665 20.9482 11.5375C21.1977 11.7719 21.31 12.1176 21.2459 12.4539C21.1717 12.8428 20.567 13.2822 19.3575 14.1609L17.2498 15.6922C16.9118 15.9378 16.7428 16.0606 16.6406 16.2216C16.5504 16.3639 16.4975 16.5266 16.4869 16.6947C16.4749 16.8851 16.5395 17.0837 16.6686 17.4811L17.4736 19.9587C17.9356 21.3806 18.1666 22.0915 17.998 22.4498C17.8523 22.7595 17.5582 22.9732 17.2186 23.0161C16.8257 23.0657 16.221 22.6263 15.0115 21.7476L12.9039 20.2163C12.5659 19.9707 12.3969 19.848 12.2121 19.8005C12.049 19.7586 11.8779 19.7586 11.7147 19.8005C11.53 19.848 11.361 19.9707 11.023 20.2163L8.91533 21.7476C7.70583 22.6263 7.10108 23.0657 6.70828 23.0161C6.36863 22.9732 6.07454 22.7595 5.92878 22.4498C5.7602 22.0915 5.9912 21.3806 6.45319 19.9587L7.25823 17.4811C7.38733 17.0837 7.45188 16.8851 7.43991 16.6947C7.42933 16.5266 7.37646 16.3639 7.28621 16.2216C7.18399 16.0606 7.01499 15.9378 6.67699 15.6922L4.56937 14.1609C3.35987 13.2822 2.75512 12.8428 2.68093 12.4539C2.61678 12.1176 2.72911 11.7719 2.97867 11.5375C3.26729 11.2665 4.0148 11.2665 5.50983 11.2665H8.11499C8.53278 11.2665 8.74168 11.2665 8.91904 11.1963C9.07565 11.1343 9.21406 11.0337 9.32143 10.9039C9.44303 10.757 9.50758 10.5583 9.63668 10.1609L10.4417 7.68328Z" fill="#FDE45F"/>
<path d="M31.71 7.68328C32.172 6.26143 32.403 5.5505 32.75 5.35976C33.05 5.19484 33.4135 5.19484 33.7135 5.35976C34.0604 5.5505 34.2914 6.26143 34.7534 7.68328L35.5585 10.1609C35.6876 10.5583 35.7521 10.757 35.8737 10.9039C35.9811 11.0337 36.1195 11.1343 36.2761 11.1963C36.4535 11.2665 36.6624 11.2665 37.0801 11.2665H39.6853C41.1803 11.2665 41.9279 11.2665 42.2165 11.5375C42.466 11.7719 42.5784 12.1176 42.5142 12.4539C42.44 12.8428 41.8353 13.2822 40.6258 14.1609L38.5181 15.6922C38.1801 15.9378 38.0111 16.0606 37.9089 16.2216C37.8187 16.3639 37.7658 16.5266 37.7552 16.6947C37.7433 16.8851 37.8078 17.0837 37.9369 17.4811L38.742 19.9587C39.2039 21.3806 39.4349 22.0915 39.2664 22.4498C39.1206 22.7595 38.8265 22.9732 38.4869 23.0161C38.0941 23.0657 37.4893 22.6263 36.2798 21.7476L34.1722 20.2163C33.8342 19.9707 33.6652 19.848 33.4804 19.8005C33.3173 19.7586 33.1462 19.7586 32.983 19.8005C32.7983 19.848 32.6293 19.9707 32.2913 20.2163L30.1836 21.7476C28.9741 22.6263 28.3694 23.0657 27.9766 23.0161C27.6369 22.9732 27.3429 22.7595 27.1971 22.4498C27.0285 22.0915 27.2595 21.3806 27.7215 19.9587L28.5265 17.4811C28.6556 17.0837 28.7202 16.8851 28.7082 16.6947C28.6976 16.5266 28.6448 16.3639 28.5545 16.2216C28.4523 16.0606 28.2833 15.9378 27.9453 15.6922L25.8377 14.1609C24.6282 13.2822 24.0234 12.8428 23.9492 12.4539C23.8851 12.1176 23.9974 11.7719 24.247 11.5375C24.5356 11.2665 25.2831 11.2665 26.7781 11.2665H29.3833C29.8011 11.2665 30.01 11.2665 30.1874 11.1963C30.344 11.1343 30.4824 11.0337 30.5897 10.9039C30.7113 10.757 30.7759 10.5583 30.905 10.1609L31.71 7.68328Z" fill="#FDE45F"/>
<path d="M52.9787 7.68328C53.4407 6.26143 53.6717 5.5505 54.0186 5.35976C54.3186 5.19484 54.6822 5.19484 54.9822 5.35976C55.3291 5.5505 55.5601 6.26143 56.0221 7.68328L56.8271 10.1609C56.9562 10.5583 57.0208 10.757 57.1424 10.9039C57.2498 11.0337 57.3882 11.1343 57.5448 11.1963C57.7221 11.2665 57.931 11.2665 58.3488 11.2665H60.954C62.449 11.2665 63.1965 11.2665 63.4851 11.5375C63.7347 11.7719 63.847 12.1176 63.7829 12.4539C63.7087 12.8428 63.1039 13.2822 61.8944 14.1609L59.7868 15.6922C59.4488 15.9378 59.2798 16.0606 59.1776 16.2216C59.0874 16.3639 59.0345 16.5266 59.0239 16.6947C59.0119 16.8851 59.0765 17.0837 59.2056 17.4811L60.0106 19.9587C60.4726 21.3806 60.7036 22.0915 60.535 22.4498C60.3893 22.7595 60.0952 22.9732 59.7555 23.0161C59.3627 23.0657 58.758 22.6263 57.5485 21.7476L55.4409 20.2163C55.1029 19.9707 54.9339 19.848 54.7491 19.8005C54.5859 19.7586 54.4149 19.7586 54.2517 19.8005C54.0669 19.848 53.8979 19.9707 53.5599 20.2163L51.4523 21.7476C50.2428 22.6263 49.6381 23.0657 49.2453 23.0161C48.9056 22.9732 48.6115 22.7595 48.4658 22.4498C48.2972 22.0915 48.5282 21.3806 48.9902 19.9587L49.7952 17.4811C49.9243 17.0837 49.9889 16.8851 49.9769 16.6947C49.9663 16.5266 49.9134 16.3639 49.8232 16.2216C49.721 16.0606 49.552 15.9378 49.214 15.6922L47.1064 14.1609C45.8969 13.2822 45.2921 12.8428 45.2179 12.4539C45.1538 12.1176 45.2661 11.7719 45.5157 11.5375C45.8043 11.2665 46.5518 11.2665 48.0468 11.2665H50.652C51.0698 11.2665 51.2787 11.2665 51.456 11.1963C51.6126 11.1343 51.7511 11.0337 51.8584 10.9039C51.98 10.757 52.0446 10.5583 52.1737 10.1609L52.9787 7.68328Z" fill="#FDE45F"/>
<path d="M75.8479 5.5V10.311V12.9282V16.3756V17.622V19.5331L72.7998 21.7477C71.5903 22.6264 70.9855 23.0658 70.5927 23.0162C70.2531 22.9733 69.959 22.7596 69.8132 22.4498C69.6446 22.0916 69.8756 21.3807 70.3376 19.9588L71.1427 17.4811C71.2718 17.0838 71.3363 16.8851 71.3243 16.6948C71.3138 16.5266 71.2609 16.3639 71.1706 16.2217C71.0684 16.0607 70.8994 15.9379 70.5614 15.6923L68.4538 14.161C67.2443 13.2823 66.6396 12.8429 66.5654 12.454C66.5012 12.1177 66.6136 11.772 66.8631 11.5376C67.1517 11.2666 67.8992 11.2666 69.3943 11.2666H72.0476C72.4492 11.2666 72.65 11.2666 72.8224 11.2007C72.9747 11.1425 73.1105 11.048 73.2179 10.9253C73.3394 10.7865 73.4091 10.5982 73.5483 10.2215L74 9L74.5 7.5L74.7944 6.32254C74.9152 5.83913 75.3496 5.5 75.8479 5.5V5.5Z" fill="#FDE45F"/>
<path d="M75.8482 5.5V10.311V12.9282V16.3756V17.622V19.5331L78.8963 21.7477C80.1058 22.6264 80.7105 23.0658 81.1033 23.0162C81.443 22.9733 81.7371 22.7596 81.8828 22.4498C82.0514 22.0916 81.8204 21.3807 81.3584 19.9588L80.5534 17.4811C80.4243 17.0838 80.3597 16.8851 80.3717 16.6948C80.3823 16.5266 80.4351 16.3639 80.5254 16.2217C80.6276 16.0607 80.7966 15.9379 81.1346 15.6923L83.2422 14.161C84.4517 13.2823 85.0565 12.8429 85.1307 12.454C85.1948 12.1177 85.0825 11.772 84.8329 11.5376C84.5443 11.2666 83.7968 11.2666 82.3018 11.2666H79.6442C79.244 11.2666 79.0439 11.2666 78.872 11.2011C78.7201 11.1432 78.5846 11.0492 78.4772 10.9272C78.3557 10.7891 78.2856 10.6017 78.1455 10.2268L77.5 8.5L76.7061 6.11836C76.583 5.74908 76.2374 5.5 75.8482 5.5V5.5Z" fill="#D9D9D9"/>
</svg>
