<svg width="83" height="30" viewBox="0 0 83 30" fill="none" xmlns="http://www.w3.org/2000/svg">
<rect x="0.75" y="0.75" width="81.5" height="28.5" rx="14.25" fill="#FEFEFE" stroke="#FEFEFE" stroke-width="1.5"/>
<path d="M14.976 10.708V11.956C14.976 13.78 14.076 15.856 12.24 16.72L13.14 17.98C15.18 17.02 16.236 14.464 16.236 11.956V10.708H14.976ZM15.312 10.708V11.956C15.312 14.32 16.344 16.756 18.384 17.704L19.26 16.444C17.436 15.604 16.572 13.636 16.572 11.956V10.708H15.312ZM12.672 10.024V11.332H18.768V10.024H12.672ZM19.584 8.956V20.068H21.192V8.956H19.584ZM20.832 13.192V14.512H22.8V13.192H20.832ZM27.8991 12.688V13.984H29.7351V12.688H27.8991ZM25.5231 9.916V11.788C25.5231 13.672 24.9471 15.652 23.3151 16.66L24.2751 17.86C26.0511 16.768 26.7471 14.308 26.7471 11.788V9.916H25.5231ZM25.8711 9.916V11.716C25.8711 14.116 26.4231 16.516 28.1871 17.608L29.0511 16.36C27.5391 15.376 27.0711 13.528 27.0711 11.716V9.916H25.8711ZM31.5471 8.956V20.068H33.0711V8.956H31.5471ZM29.2911 9.124V19.564H30.7791V9.124H29.2911ZM42.1781 8.956V20.068H43.7861V8.956H42.1781ZM34.7981 10.624V11.884H41.3741V10.624H34.7981ZM38.0981 12.496C36.4541 12.496 35.2541 13.6 35.2541 15.148C35.2541 16.696 36.4541 17.8 38.0981 17.8C39.7421 17.8 40.9541 16.696 40.9541 15.148C40.9541 13.6 39.7421 12.496 38.0981 12.496ZM38.0981 13.792C38.8661 13.792 39.4181 14.296 39.4181 15.148C39.4181 16 38.8661 16.504 38.0981 16.504C37.3301 16.504 36.7781 16 36.7781 15.148C36.7781 14.296 37.3301 13.792 38.0981 13.792ZM37.2821 9.112V11.404H38.8901V9.112H37.2821ZM48.5858 17.488V18.784H58.6418V17.488H48.5858ZM52.7978 15.112V17.8H54.3938V15.112H52.7978ZM49.6418 9.664V15.448H57.5498V9.664H55.9658V11.368H51.2258V9.664H49.6418ZM51.2258 12.616H55.9658V14.176H51.2258V12.616ZM67.2688 8.956V20.068H68.8768V8.956H67.2688ZM63.9928 10.108V10.396C63.9928 13.372 62.8408 15.388 59.6488 16.924L60.4768 18.196C64.4248 16.288 65.5768 13.504 65.5768 10.108H63.9928ZM60.2368 10.108V11.368H64.7488V10.108H60.2368Z" fill="#7070FF"/>
</svg>
