<svg width="80" height="35" viewBox="0 0 80 35" fill="none" xmlns="http://www.w3.org/2000/svg">
<g filter="url(#filter0_d_1060_193)">
<g filter="url(#filter1_b_1060_193)">
<g filter="url(#filter2_b_1060_193)">
<rect x="4" y="4" width="72" height="27" rx="13.5" fill="white" fill-opacity="0.46"/>
</g>
<path d="M27.0115 13.72V14.81H30.9715V13.72H27.0115ZM26.6815 16.77V21.89H27.8115V16.77H26.6815ZM26.9415 12.5C26.6715 13.71 26.1315 14.85 25.3715 15.56C25.6515 15.72 26.1415 16.1 26.3515 16.31C27.1415 15.48 27.7815 14.16 28.1315 12.73L26.9415 12.5ZM29.1015 16.2L28.0715 16.34C28.4115 18.81 29.0115 20.8 30.4715 21.87C30.6415 21.56 31.0115 21.09 31.2815 20.87C29.9815 20.03 29.3815 18.23 29.1015 16.2ZM30.4015 16.67C29.9915 17.17 29.2615 17.83 28.7515 18.21L29.4515 18.89C29.9815 18.53 30.6915 17.95 31.2415 17.42L30.4015 16.67ZM21.8615 14.03V15.14H26.0115V14.03H21.8615ZM23.4115 16.12V17.21H25.0415V16.12H23.4115ZM23.3715 12.51V14.39H24.5215V12.51H23.3715ZM24.6515 16.12V16.34C24.6115 19.42 24.5615 20.46 24.4215 20.7C24.3415 20.81 24.2615 20.85 24.1315 20.85C23.9715 20.85 23.7115 20.84 23.4015 20.8C23.5615 21.1 23.6715 21.55 23.6915 21.87C24.0915 21.88 24.4815 21.88 24.7315 21.83C25.0015 21.78 25.1915 21.69 25.3815 21.41C25.6315 21.04 25.6815 19.84 25.7315 16.59C25.7315 16.45 25.7315 16.12 25.7315 16.12H24.6515ZM22.8815 14.74V16.7C22.8815 18.04 22.7415 19.74 21.6315 21.2C21.9315 21.39 22.3215 21.69 22.5215 21.93C23.7615 20.31 23.9315 18.35 23.9315 16.71V14.74H22.8815ZM29.8615 14.91C28.9815 15.61 27.1815 16.34 25.7615 16.63C26.0215 16.89 26.3115 17.32 26.4715 17.63C27.8815 17.2 29.7215 16.36 30.7315 15.54L29.8615 14.91ZM36.3615 13.08V14.22H41.2515V13.08H36.3615ZM38.9015 16.19V20.48C38.9015 20.63 38.8415 20.67 38.6515 20.68C38.4715 20.68 37.8115 20.68 37.2415 20.65C37.4015 21 37.5615 21.52 37.6015 21.87C38.5015 21.87 39.1315 21.86 39.5615 21.68C40.0015 21.49 40.1315 21.15 40.1315 20.51V16.19H38.9015ZM35.9315 15.85V16.99H41.5115V15.85H35.9315ZM33.6915 17.03V21.91H34.8915V16.04L34.7415 15.98L33.6915 17.03ZM34.8215 14.69C34.1615 15.82 33.0715 16.98 32.0515 17.7C32.2915 17.94 32.7015 18.48 32.8715 18.73C33.9415 17.85 35.1715 16.45 35.9615 15.12L34.8215 14.69ZM34.4415 12.51C33.9515 13.21 32.9915 14.11 32.1615 14.65C32.3615 14.89 32.6715 15.36 32.8315 15.63C33.7815 14.97 34.8615 13.93 35.5915 12.98L34.4415 12.51ZM47.6715 16.25V17.38H50.9615V16.25H47.6715ZM47.1815 16.25V20.19C47.1815 21.47 47.5615 21.82 48.8115 21.82C49.0715 21.82 50.1915 21.82 50.4715 21.82C51.6015 21.82 51.9415 21.33 52.0915 19.67C51.7515 19.59 51.2415 19.39 50.9715 19.19C50.9115 20.45 50.8315 20.68 50.3815 20.68C50.1115 20.68 49.1815 20.68 48.9615 20.68C48.4815 20.68 48.3915 20.62 48.3915 20.19V16.25H47.1815ZM47.1515 13.01V14.15H50.3415V17.89H51.5515V13.01H47.1515ZM43.1315 15.58V16.48H46.3615V15.58H43.1315ZM43.1915 12.82V13.73H46.3915V12.82H43.1915ZM43.1315 16.94V17.85H46.3615V16.94H43.1315ZM42.6415 14.17V15.12H46.7615V14.17H42.6415ZM43.6815 18.33V19.28H45.2815V20.42H43.6815V21.37H46.3315V18.33H43.6815ZM43.1015 18.33V21.77H44.1415V18.33H43.1015ZM61.5615 17.01C61.3115 17.42 60.8615 17.99 60.5315 18.34L61.2815 18.84C61.6415 18.52 62.0815 18.04 62.5015 17.58L61.5615 17.01ZM57.1115 17.66C57.5015 18.05 57.9315 18.6 58.0915 18.98L58.9315 18.42C58.7415 18.04 58.3015 17.52 57.8915 17.15L57.1115 17.66ZM57.5415 12.85V13.83H60.5615V16.36H61.6715V12.85H57.5415ZM57.7615 14.36V15.28H61.1915V14.36H57.7615ZM57.0615 15.79V16.81H62.4215V15.79H57.0615ZM59.1215 16.31V20.74C59.1215 20.85 59.0915 20.88 58.9915 20.88C58.8915 20.88 58.5915 20.88 58.3115 20.87C58.4415 21.17 58.5715 21.6 58.6015 21.9C59.1515 21.9 59.5515 21.89 59.8515 21.72C60.1715 21.55 60.2315 21.26 60.2315 20.77V16.31H59.1215ZM56.7715 20.26L57.3215 21.22C57.8915 20.84 58.5415 20.37 59.1315 19.92L58.7715 19.02C58.0315 19.5 57.2815 19.97 56.7715 20.26ZM60.2015 17.02L59.5415 17.66C59.8515 18.82 60.5715 20.54 61.8815 21.38C62.0515 21.08 62.4115 20.61 62.6515 20.4C61.2815 19.7 60.5215 18.21 60.2015 17.02ZM53.8015 15V16H56.7615V15H53.8015ZM53.3215 16.73V17.75H56.9715V16.73H53.3215ZM53.4215 18.31C53.5715 18.87 53.7115 19.59 53.7315 20.07L54.5415 19.86C54.4915 19.38 54.3515 18.68 54.1815 18.12L53.4215 18.31ZM53.2115 20.6L53.4415 21.69C54.4515 21.49 55.7715 21.21 57.0215 20.95L56.9315 19.96C55.5815 20.2 54.1615 20.46 53.2115 20.6ZM56.1915 18.04C56.1215 18.52 55.9715 19.22 55.8415 19.67L56.5615 19.87C56.7115 19.45 56.8715 18.82 57.0515 18.25L56.1915 18.04ZM54.6915 15.4V20.97L55.7215 20.79V15.4H54.6915ZM54.6415 12.51C54.3315 13.29 53.7415 14.23 52.9015 14.95C53.1215 15.11 53.4615 15.49 53.6215 15.73C54.6115 14.83 55.2215 13.8 55.6115 13.04V12.73H55.2715V12.51H54.6415ZM54.7915 12.51V13.36H55.0015C55.5415 13.81 56.2215 14.65 56.5415 15.16L57.3115 14.24C56.9515 13.73 56.2115 13.01 55.6315 12.51H54.7915Z" fill="#FEFEFE"/>
</g>
<circle cx="15.5143" cy="17.6572" r="2.65715" fill="#51CBFF"/>
</g>
<defs>
<filter id="filter0_d_1060_193" x="0" y="0" width="80" height="35" filterUnits="userSpaceOnUse" color-interpolation-filters="sRGB">
<feFlood flood-opacity="0" result="BackgroundImageFix"/>
<feColorMatrix in="SourceAlpha" type="matrix" values="0 0 0 0 0 0 0 0 0 0 0 0 0 0 0 0 0 0 127 0" result="hardAlpha"/>
<feOffset/>
<feGaussianBlur stdDeviation="2"/>
<feComposite in2="hardAlpha" operator="out"/>
<feColorMatrix type="matrix" values="0 0 0 0 0 0 0 0 0 0 0 0 0 0 0 0 0 0 0.25 0"/>
<feBlend mode="normal" in2="BackgroundImageFix" result="effect1_dropShadow_1060_193"/>
<feBlend mode="normal" in="SourceGraphic" in2="effect1_dropShadow_1060_193" result="shape"/>
</filter>
<filter id="filter1_b_1060_193" x="0" y="0" width="80" height="35" filterUnits="userSpaceOnUse" color-interpolation-filters="sRGB">
<feFlood flood-opacity="0" result="BackgroundImageFix"/>
<feGaussianBlur in="BackgroundImage" stdDeviation="2"/>
<feComposite in2="SourceAlpha" operator="in" result="effect1_backgroundBlur_1060_193"/>
<feBlend mode="normal" in="SourceGraphic" in2="effect1_backgroundBlur_1060_193" result="shape"/>
</filter>
<filter id="filter2_b_1060_193" x="0" y="0" width="80" height="35" filterUnits="userSpaceOnUse" color-interpolation-filters="sRGB">
<feFlood flood-opacity="0" result="BackgroundImageFix"/>
<feGaussianBlur in="BackgroundImage" stdDeviation="2"/>
<feComposite in2="SourceAlpha" operator="in" result="effect1_backgroundBlur_1060_193"/>
<feBlend mode="normal" in="SourceGraphic" in2="effect1_backgroundBlur_1060_193" result="shape"/>
</filter>
</defs>
</svg>
